  0
SECTION
  2
HEADER
  9
$ACADVER
  1
AC1015
  9
$ACADMAINTVER
 70
     6
  9
$DWGCODEPAGE
  3
ANSI_1252
  9
$INSBASE
 10
0.0
 20
0.0
 30
0.0
  9
$EXTMIN
 10
-76.4375
 20
-47.625
 30
0.0
  9
$EXTMAX
 10
76.4375
 20
47.625
 30
0.0
  9
$LIMMIN
 10
0.0
 20
0.0
  9
$LIMMAX
 10
420.0
 20
297.0
  9
$ORTHOMODE
 70
     0
  9
$REGENMODE
 70
     1
  9
$FILLMODE
 70
     1
  9
$QTEXTMODE
 70
     0
  9
$MIRRTEXT
 70
     1
  9
$LTSCALE
 40
1.0
  9
$ATTMODE
 70
     1
  9
$TEXTSIZE
 40
3.5
  9
$TRACEWID
 40
1.0
  9
$TEXTSTYLE
  7
Standard
  9
$CLAYER
  8
0
  9
$CELTYPE
  6
ByLayer
  9
$CECOLOR
 62
   256
  9
$CELTSCALE
 40
1.0
  9
$DISPSILH
 70
     0
  9
$DIMSCALE
 40
1.0
  9
$DIMASZ
 40
3.556
  9
$DIMEXO
 40
0.0
  9
$DIMDLI
 40
3.75
  9
$DIMRND
 40
0.0
  9
$DIMDLE
 40
0.0
  9
$DIMEXE
 40
1.0
  9
$DIMTP
 40
0.0
  9
$DIMTM
 40
0.0
  9
$DIMTXT
 40
3.5
  9
$DIMCEN
 40
2.5
  9
$DIMTSZ
 40
0.0
  9
$DIMTOL
 70
     0
  9
$DIMLIM
 70
     0
  9
$DIMTIH
 70
     1
  9
$DIMTOH
 70
     1
  9
$DIMSE1
 70
     0
  9
$DIMSE2
 70
     0
  9
$DIMTAD
 70
     1
  9
$DIMZIN
 70
     1
  9
$DIMBLK
  1

  9
$DIMASO
 70
     1
  9
$DIMSHO
 70
     1
  9
$DIMPOST
  1

  9
$DIMAPOST
  1

  9
$DIMALT
 70
     0
  9
$DIMALTD
 70
     3
  9
$DIMALTF
 40
0.0393700787
  9
$DIMLFAC
 40
1.0
  9
$DIMTOFL
 70
     1
  9
$DIMTVP
 40
0.0
  9
$DIMTIX
 70
     0
  9
$DIMSOXD
 70
     0
  9
$DIMSAH
 70
     0
  9
$DIMBLK1
  1

  9
$DIMBLK2
  1

  9
$DIMSTYLE
  2
ISO-25
  9
$DIMCLRD
 70
     0
  9
$DIMCLRE
 70
     0
  9
$DIMCLRT
 70
     0
  9
$DIMTFAC
 40
1.0
  9
$DIMGAP
 40
1.524
  9
$DIMJUST
 70
     0
  9
$DIMSD1
 70
     0
  9
$DIMSD2
 70
     0
  9
$DIMTOLJ
 70
     0
  9
$DIMTZIN
 70
     1
  9
$DIMALTZ
 70
     0
  9
$DIMALTTZ
 70
     0
  9
$DIMUPT
 70
     0
  9
$DIMDEC
 70
     2
  9
$DIMTDEC
 70
     2
  9
$DIMALTU
 70
     2
  9
$DIMALTTD
 70
     3
  9
$DIMTXSTY
  7
Standard
  9
$DIMAUNIT
 70
     0
  9
$DIMADEC
 70
     2
  9
$DIMALTRND
 40
0.0
  9
$DIMAZIN
 70
     0
  9
$DIMDSEP
 70
    44
  9
$DIMATFIT
 70
     3
  9
$DIMFRAC
 70
     0
  9
$DIMLDRBLK
  1

  9
$DIMLUNIT
 70
     2
  9
$DIMLWD
 70
    -2
  9
$DIMLWE
 70
    -2
  9
$DIMTMOVE
 70
     0
  9
$LUNITS
 70
     2
  9
$LUPREC
 70
     2
  9
$SKETCHINC
 40
1.0
  9
$FILLETRAD
 40
0.0
  9
$AUNITS
 70
     0
  9
$AUPREC
 70
     2
  9
$MENU
  1
.
  9
$ELEVATION
 40
0.0
  9
$PELEVATION
 40
0.0
  9
$THICKNESS
 40
0.0
  9
$LIMCHECK
 70
     0
  9
$CHAMFERA
 40
0.0
  9
$CHAMFERB
 40
0.0
  9
$CHAMFERC
 40
0.0
  9
$CHAMFERD
 40
0.0
  9
$SKPOLY
 70
     0
  9
$TDCREATE
 40
2460218.627745868
  9
$TDUCREATE
 40
2460218.794412535
  9
$TDUPDATE
 40
2460218.627775197
  9
$TDUUPDATE
 40
2460218.794441863
  9
$TDINDWG
 40
0.0000000116
  9
$TDUSRTIMER
 40
0.0000000116
  9
$USRTIMER
 70
     1
  9
$ANGBASE
 50
0.0
  9
$ANGDIR
 70
     0
  9
$PDMODE
 70
     0
  9
$PDSIZE
 40
-1.0
  9
$PLINEWID
 40
0.0
  9
$SPLFRAME
 70
     0
  9
$SPLINETYPE
 70
     6
  9
$SPLINESEGS
 70
     8
  9
$HANDSEED
  5
504
  9
$SURFTAB1
 70
     6
  9
$SURFTAB2
 70
     6
  9
$SURFTYPE
 70
     6
  9
$SURFU
 70
     6
  9
$SURFV
 70
     6
  9
$UCSBASE
  2

  9
$UCSNAME
  2

  9
$UCSORG
 10
0.0
 20
0.0
 30
0.0
  9
$UCSXDIR
 10
1.0
 20
0.0
 30
0.0
  9
$UCSYDIR
 10
0.0
 20
1.0
 30
0.0
  9
$UCSORTHOREF
  2

  9
$UCSORTHOVIEW
 70
     0
  9
$UCSORGTOP
 10
0.0
 20
0.0
 30
0.0
  9
$UCSORGBOTTOM
 10
0.0
 20
0.0
 30
0.0
  9
$UCSORGLEFT
 10
0.0
 20
0.0
 30
0.0
  9
$UCSORGRIGHT
 10
0.0
 20
0.0
 30
0.0
  9
$UCSORGFRONT
 10
0.0
 20
0.0
 30
0.0
  9
$UCSORGBACK
 10
0.0
 20
0.0
 30
0.0
  9
$PUCSBASE
  2

  9
$PUCSNAME
  2

  9
$PUCSORG
 10
0.0
 20
0.0
 30
0.0
  9
$PUCSXDIR
 10
1.0
 20
0.0
 30
0.0
  9
$PUCSYDIR
 10
0.0
 20
1.0
 30
0.0
  9
$PUCSORTHOREF
  2

  9
$PUCSORTHOVIEW
 70
     0
  9
$PUCSORGTOP
 10
0.0
 20
0.0
 30
0.0
  9
$PUCSORGBOTTOM
 10
0.0
 20
0.0
 30
0.0
  9
$PUCSORGLEFT
 10
0.0
 20
0.0
 30
0.0
  9
$PUCSORGRIGHT
 10
0.0
 20
0.0
 30
0.0
  9
$PUCSORGFRONT
 10
0.0
 20
0.0
 30
0.0
  9
$PUCSORGBACK
 10
0.0
 20
0.0
 30
0.0
  9
$USERI1
 70
     0
  9
$USERI2
 70
     0
  9
$USERI3
 70
     0
  9
$USERI4
 70
     0
  9
$USERI5
 70
     0
  9
$USERR1
 40
0.0
  9
$USERR2
 40
0.0
  9
$USERR3
 40
0.0
  9
$USERR4
 40
0.0
  9
$USERR5
 40
0.0
  9
$WORLDVIEW
 70
     1
  9
$SHADEDGE
 70
     3
  9
$SHADEDIF
 70
    70
  9
$TILEMODE
 70
     1
  9
$MAXACTVP
 70
    64
  9
$PINSBASE
 10
0.0
 20
0.0
 30
0.0
  9
$PLIMCHECK
 70
     0
  9
$PEXTMIN
 10
1.0000000000E+20
 20
1.0000000000E+20
 30
1.0000000000E+20
  9
$PEXTMAX
 10
-1.0000000000E+20
 20
-1.0000000000E+20
 30
-1.0000000000E+20
  9
$PLIMMIN
 10
0.0
 20
0.0
  9
$PLIMMAX
 10
420.0
 20
297.0
  9
$UNITMODE
 70
     0
  9
$VISRETAIN
 70
     1
  9
$PLINEGEN
 70
     0
  9
$PSLTSCALE
 70
     1
  9
$TREEDEPTH
 70
  3020
  9
$CMLSTYLE
  2
Standard
  9
$CMLJUST
 70
     0
  9
$CMLSCALE
 40
20.0
  9
$PROXYGRAPHICS
 70
     1
  9
$MEASUREMENT
 70
     1
  9
$CELWEIGHT
370
    -1
  9
$ENDCAPS
280
     0
  9
$JOINSTYLE
280
     0
  9
$LWDISPLAY
290
     1
  9
$INSUNITS
 70
     4
  9
$HYPERLINKBASE
  1

  9
$STYLESHEET
  1

  9
$XEDIT
290
     1
  9
$CEPSNTYPE
380
     0
  9
$PSTYLEMODE
290
     1
  9
$FINGERPRINTGUID
  2
{d065f4dd-2cec-4511-b99d-3f6da87d3674}
  9
$VERSIONGUID
  2
{FAEB1C32-E019-11D5-929B-00C0DF256EC4}
  9
$EXTNAMES
290
     1
  9
$PSVPSCALE
 40
0.0
  9
$OLESTARTUP
290
     0
  0
ENDSEC
  0
SECTION
  2
CLASSES
  0
CLASS
  1
ACDBDICTIONARYWDFLT
  2
AcDbDictionaryWithDefault
  3
ObjectDBX Classes
 90
        0
280
     0
281
     0
  0
CLASS
  1
VISUALSTYLE
  2
AcDbVisualStyle
  3
ObjectDBX Classes
 90
     4095
280
     0
281
     0
  0
CLASS
  1
MATERIAL
  2
AcDbMaterial
  3
ObjectDBX Classes
 90
     1153
280
     0
281
     0
  0
CLASS
  1
SCALE
  2
AcDbScale
  3
ObjectDBX Classes
 90
     1153
280
     0
281
     0
  0
CLASS
  1
TABLESTYLE
  2
AcDbTableStyle
  3
ObjectDBX Classes
 90
     4095
280
     0
281
     0
  0
CLASS
  1
MLEADERSTYLE
  2
AcDbMLeaderStyle
  3
ACDB_MLEADERSTYLE_CLASS
 90
     4095
280
     0
281
     0
  0
CLASS
  1
SUN
  2
AcDbSun
  3
SCENEOE
 90
     1153
280
     0
281
     0
  0
CLASS
  1
ACDBPLACEHOLDER
  2
AcDbPlaceHolder
  3
ObjectDBX Classes
 90
        0
280
     0
281
     0
  0
CLASS
  1
LAYOUT
  2
AcDbLayout
  3
ObjectDBX Classes
 90
        0
280
     0
281
     0
  0
ENDSEC
  0
SECTION
  2
TABLES
  0
TABLE
  2
VPORT
  5
8
330
0
100
AcDbSymbolTable
 70
     1
  0
VPORT
  5
29
330
8
100
AcDbSymbolTableRecord
100
AcDbViewportTableRecord
  2
*Active
 70
     0
 10
0.0
 20
0.0
 11
1.0
 21
1.0
 12
0.0
 22
0.0
 13
0.0
 23
0.0
 14
10.0
 24
10.0
 15
10.0
 25
10.0
 16
0.0
 26
0.0
 36
1.0
 17
0.0
 27
0.0
 37
0.0
 40
97.155
 41
1.6049868766
 42
50.0
 43
0.0
 44
0.0
 50
0.0
 51
0.0
 71
     0
 72
   100
 73
     1
 74
     3
 75
     0
 76
     0
 77
     0
 78
     0
281
     0
 65
     1
110
0.0
120
0.0
130
0.0
111
1.0
121
0.0
131
0.0
112
0.0
122
1.0
132
0.0
 79
     0
146
0.0
  0
ENDTAB
  0
TABLE
  2
LTYPE
  5
5
330
0
100
AcDbSymbolTable
 70
     6
  0
LTYPE
  5
14
330
5
100
AcDbSymbolTableRecord
100
AcDbLinetypeTableRecord
  2
ByBlock
 70
     0
  3

 72
    65
 73
     0
 40
0.0
  0
LTYPE
  5
15
330
5
100
AcDbSymbolTableRecord
100
AcDbLinetypeTableRecord
  2
ByLayer
 70
     0
  3

 72
    65
 73
     0
 40
0.0
  0
LTYPE
  5
16
330
5
100
AcDbSymbolTableRecord
100
AcDbLinetypeTableRecord
  2
Continuous
 70
     0
  3
Solid line
 72
    65
 73
     0
 40
0.0
  0
LTYPE
  5
5E
330
5
100
AcDbSymbolTableRecord
100
AcDbLinetypeTableRecord
  2
HIDDEN
 70
     0
  3
Hidden __ __ __ __ __ __ __ __ __ __ __ __ __ __
 72
    65
 73
     2
 40
1.905
 49
1.27
 74
     0
 49
-0.635
 74
     0
  0
LTYPE
  5
5F
330
5
100
AcDbSymbolTableRecord
100
AcDbLinetypeTableRecord
  2
PHANTOM
 70
     0
  3
Phantom ______  __  __  ______  __  __  ______
 72
    65
 73
     6
 40
12.7
 49
6.35
 74
     0
 49
-1.27
 74
     0
 49
1.27
 74
     0
 49
-1.27
 74
     0
 49
1.27
 74
     0
 49
-1.27
 74
     0
  0
LTYPE
  5
60
330
5
100
AcDbSymbolTableRecord
100
AcDbLinetypeTableRecord
  2
CENTER
 70
     0
  3
Center ____ _ ____ _ ____ _ ____ _ ____ _ ____
 72
    65
 73
     4
 40
10.16
 49
6.35
 74
     0
 49
-1.27
 74
     0
 49
1.27
 74
     0
 49
-1.27
 74
     0
  0
LTYPE
  5
61
330
5
100
AcDbSymbolTableRecord
100
AcDbLinetypeTableRecord
  2
CENTERX2
 70
     0
  3
Center (2x) ________  __  ________  __  _____
 72
    65
 73
     4
 40
20.32
 49
12.7
 74
     0
 49
-2.54
 74
     0
 49
2.54
 74
     0
 49
-2.54
 74
     0
  0
LTYPE
  5
62
330
5
100
AcDbSymbolTableRecord
100
AcDbLinetypeTableRecord
  2
DOT2
 70
     0
  3
Dot (.5x) ........................................
 72
    65
 73
     2
 40
0.635
 49
0.0
 74
     0
 49
-0.635
 74
     0
  0
ENDTAB
  0
TABLE
  2
LAYER
  5
2
330
0
100
AcDbSymbolTable
 70
     1
  0
LAYER
  5
10
330
2
100
AcDbSymbolTableRecord
100
AcDbLayerTableRecord
  2
0
 70
     0
 62
     7
  6
Continuous
370
    -3
390
F
  0
ENDTAB
  0
TABLE
  2
STYLE
  5
3
330
0
100
AcDbSymbolTable
 70
     1
  0
STYLE
  5
11
330
3
100
AcDbSymbolTableRecord
100
AcDbTextStyleTableRecord
  2
Standard
 70
     0
 40
0.0
 41
1.0
 50
0.0
 71
     0
 42
3.5
  3
txt
  4

  0
ENDTAB
  0
TABLE
  2
VIEW
  5
6
330
0
100
AcDbSymbolTable
 70
     0
  0
ENDTAB
  0
TABLE
  2
UCS
  5
7
330
0
100
AcDbSymbolTable
 70
     0
  0
ENDTAB
  0
TABLE
  2
APPID
  5
9
330
0
100
AcDbSymbolTable
 70
     1
  0
APPID
  5
12
330
9
100
AcDbSymbolTableRecord
100
AcDbRegAppTableRecord
  2
ACAD
 70
     0
  0
ENDTAB
  0
TABLE
  2
DIMSTYLE
  5
A
330
0
100
AcDbSymbolTable
 70
     1
100
AcDbDimStyleTable
  0
DIMSTYLE
105
27
330
A
100
AcDbSymbolTableRecord
100
AcDbDimStyleTableRecord
  2
ISO-25
 70
     0
 41
2.5
 42
0.625
 43
3.75
 44
1.25
 73
     0
 74
     0
 77
     1
 78
     8
140
2.5
141
2.5
143
0.0393700787
147
0.625
171
     3
172
     1
178
     0
271
     2
272
     2
274
     3
278
    44
283
     0
284
     8
340
11
  0
ENDTAB
  0
TABLE
  2
BLOCK_RECORD
  5
1
330
0
100
AcDbSymbolTable
 70
     1
  0
BLOCK_RECORD
  5
1F
330
1
100
AcDbSymbolTableRecord
100
AcDbBlockTableRecord
  2
*Model_Space
340
22
  0
BLOCK_RECORD
  5
1B
330
1
100
AcDbSymbolTableRecord
100
AcDbBlockTableRecord
  2
*Paper_Space
340
1E
  0
BLOCK_RECORD
  5
23
330
1
100
AcDbSymbolTableRecord
100
AcDbBlockTableRecord
  2
*Paper_Space0
340
26
  0
ENDTAB
  0
ENDSEC
  0
SECTION
  2
BLOCKS
  0
BLOCK
  5
20
330
1F
100
AcDbEntity
  8
0
100
AcDbBlockBegin
  2
*Model_Space
 70
     0
 10
0.0
 20
0.0
 30
0.0
  3
*Model_Space
  1

  0
ENDBLK
  5
21
330
1F
100
AcDbEntity
  8
0
100
AcDbBlockEnd
  0
BLOCK
  5
1C
330
1B
100
AcDbEntity
 67
     1
  8
0
100
AcDbBlockBegin
  2
*Paper_Space
 70
     0
 10
0.0
 20
0.0
 30
0.0
  3
*Paper_Space
  1

  0
ENDBLK
  5
1D
330
1B
100
AcDbEntity
 67
     1
  8
0
100
AcDbBlockEnd
  0
BLOCK
  5
24
330
23
100
AcDbEntity
  8
0
100
AcDbBlockBegin
  2
*Paper_Space0
 70
     0
 10
0.0
 20
0.0
 30
0.0
  3
*Paper_Space0
  1

  0
ENDBLK
  5
25
330
23
100
AcDbEntity
  8
0
100
AcDbBlockEnd
  0
ENDSEC
  0
SECTION
  2
ENTITIES
  0
LINE
  5
2B3
330
1F
100
AcDbEntity
  8
0
  6
Continuous
 62
     7
370
    25
100
AcDbLine
 10
-76.4375
 20
-24.4382550373
 30
0.0
 11
-76.4375
 21
-32.7117449627
 31
0.0
  0
LINE
  5
2B4
330
1F
100
AcDbEntity
  8
0
  6
Continuous
 62
     7
370
    25
100
AcDbLine
 10
-76.4375
 20
32.7117449627
 30
0.0
 11
-76.4375
 21
24.4382550373
 31
0.0
  0
LINE
  5
2B5
330
1F
100
AcDbEntity
  8
0
  6
Continuous
 62
     7
370
    25
100
AcDbLine
 10
76.4375
 20
24.4382550373
 30
0.0
 11
76.4375
 21
32.7117449627
 31
0.0
  0
LINE
  5
2B6
330
1F
100
AcDbEntity
  8
0
  6
Continuous
 62
     7
370
    25
100
AcDbLine
 10
76.4375
 20
-32.7117449627
 30
0.0
 11
76.4375
 21
-24.4382550373
 31
0.0
  0
LINE
  5
2B7
330
1F
100
AcDbEntity
  8
0
  6
Continuous
 62
     7
370
    25
100
AcDbLine
 10
37.1718381608
 20
-45.1
 30
0.0
 11
67.5981618392
 21
-45.1
 31
0.0
  0
LINE
  5
2B8
330
1F
100
AcDbEntity
  8
0
  6
Continuous
 62
     7
370
    25
100
AcDbLine
 10
-71.4375
 20
45.625
 30
0.0
 11
-71.4375
 21
34.225
 31
0.0
  0
LINE
  5
2B9
330
1F
100
AcDbEntity
  8
0
  6
Continuous
 62
     7
370
    25
100
AcDbLine
 10
-69.4375
 20
-47.625
 30
0.0
 11
69.4375
 21
-47.625
 31
0.0
  0
LINE
  5
2BA
330
1F
100
AcDbEntity
  8
0
  6
Continuous
 62
     7
370
    25
100
AcDbLine
 10
71.4375
 20
-45.625
 30
0.0
 11
71.4375
 21
-34.225
 31
0.0
  0
LINE
  5
2BB
330
1F
100
AcDbEntity
  8
0
  6
Continuous
 62
     7
370
    25
100
AcDbLine
 10
69.4375
 20
47.625
 30
0.0
 11
-69.4375
 21
47.625
 31
0.0
  0
LINE
  5
2BC
330
1F
100
AcDbEntity
  8
0
  6
Continuous
 62
     7
370
    25
100
AcDbLine
 10
-51.4618381608
 20
45.1
 30
0.0
 11
-62.8381618392
 21
45.1
 31
0.0
  0
LINE
  5
2BD
330
1F
100
AcDbEntity
  8
0
  6
Continuous
 62
     7
370
    25
100
AcDbLine
 10
-64.15
 20
43.7881618392
 30
0.0
 11
-64.15
 21
32.4118381608
 31
0.0
  0
LINE
  5
2BE
330
1F
100
AcDbEntity
  8
0
  6
Continuous
 62
     7
370
    25
100
AcDbLine
 10
-62.8381618392
 20
31.1
 30
0.0
 11
-51.4618381608
 21
31.1
 31
0.0
  0
LINE
  5
2BF
330
1F
100
AcDbEntity
  8
0
  6
Continuous
 62
     7
370
    25
100
AcDbLine
 10
-50.15
 20
32.4118381608
 30
0.0
 11
-50.15
 21
43.7881618392
 31
0.0
  0
LINE
  5
2C0
330
1F
100
AcDbEntity
  8
0
  6
Continuous
 62
     7
370
    25
100
AcDbLine
 10
48.5481618392
 20
45.1
 30
0.0
 11
37.1718381608
 21
45.1
 31
0.0
  0
LINE
  5
2C1
330
1F
100
AcDbEntity
  8
0
  6
Continuous
 62
     7
370
    25
100
AcDbLine
 10
35.86
 20
43.7881618392
 30
0.0
 11
35.86
 21
32.4118381608
 31
0.0
  0
LINE
  5
2C2
330
1F
100
AcDbEntity
  8
0
  6
Continuous
 62
     7
370
    25
100
AcDbLine
 10
37.1718381608
 20
31.1
 30
0.0
 11
48.5481618392
 21
31.1
 31
0.0
  0
LINE
  5
2C3
330
1F
100
AcDbEntity
  8
0
  6
Continuous
 62
     7
370
    25
100
AcDbLine
 10
49.86
 20
32.4118381608
 30
0.0
 11
49.86
 21
43.7881618392
 31
0.0
  0
LINE
  5
2C4
330
1F
100
AcDbEntity
  8
0
  6
Continuous
 62
     7
370
    25
100
AcDbLine
 10
48.5481618392
 20
26.05
 30
0.0
 11
37.1718381608
 21
26.05
 31
0.0
  0
LINE
  5
2C5
330
1F
100
AcDbEntity
  8
0
  6
Continuous
 62
     7
370
    25
100
AcDbLine
 10
35.86
 20
24.7381618392
 30
0.0
 11
35.86
 21
13.3618381608
 31
0.0
  0
LINE
  5
2C6
330
1F
100
AcDbEntity
  8
0
  6
Continuous
 62
     7
370
    25
100
AcDbLine
 10
37.1718381608
 20
12.05
 30
0.0
 11
48.5481618392
 21
12.05
 31
0.0
  0
LINE
  5
2C7
330
1F
100
AcDbEntity
  8
0
  6
Continuous
 62
     7
370
    25
100
AcDbLine
 10
49.86
 20
13.3618381608
 30
0.0
 11
49.86
 21
24.7381618392
 31
0.0
  0
LINE
  5
2C8
330
1F
100
AcDbEntity
  8
0
  6
Continuous
 62
     7
370
    25
100
AcDbLine
 10
48.5481618392
 20
7.0
 30
0.0
 11
37.1718381608
 21
7.0
 31
0.0
  0
LINE
  5
2C9
330
1F
100
AcDbEntity
  8
0
  6
Continuous
 62
     7
370
    25
100
AcDbLine
 10
35.86
 20
5.6881618392
 30
0.0
 11
35.86
 21
-5.6881618392
 31
0.0
  0
LINE
  5
2CA
330
1F
100
AcDbEntity
  8
0
  6
Continuous
 62
     7
370
    25
100
AcDbLine
 10
37.1718381608
 20
-7.0
 30
0.0
 11
48.5481618392
 21
-7.0
 31
0.0
  0
LINE
  5
2CB
330
1F
100
AcDbEntity
  8
0
  6
Continuous
 62
     7
370
    25
100
AcDbLine
 10
49.86
 20
-5.6881618392
 30
0.0
 11
49.86
 21
5.6881618392
 31
0.0
  0
LINE
  5
2CC
330
1F
100
AcDbEntity
  8
0
  6
Continuous
 62
     7
370
    25
100
AcDbLine
 10
48.5481618392
 20
-12.05
 30
0.0
 11
37.1718381608
 21
-12.05
 31
0.0
  0
LINE
  5
2CD
330
1F
100
AcDbEntity
  8
0
  6
Continuous
 62
     7
370
    25
100
AcDbLine
 10
35.86
 20
-13.3618381608
 30
0.0
 11
35.86
 21
-24.7381618392
 31
0.0
  0
LINE
  5
2CE
330
1F
100
AcDbEntity
  8
0
  6
Continuous
 62
     7
370
    25
100
AcDbLine
 10
37.1718381608
 20
-26.05
 30
0.0
 11
48.5481618392
 21
-26.05
 31
0.0
  0
LINE
  5
2CF
330
1F
100
AcDbEntity
  8
0
  6
Continuous
 62
     7
370
    25
100
AcDbLine
 10
49.86
 20
-24.7381618392
 30
0.0
 11
49.86
 21
-13.3618381608
 31
0.0
  0
LINE
  5
2D0
330
1F
100
AcDbEntity
  8
0
  6
Continuous
 62
     7
370
    25
100
AcDbLine
 10
67.5981618392
 20
7.0
 30
0.0
 11
56.2218381608
 21
7.0
 31
0.0
  0
LINE
  5
2D1
330
1F
100
AcDbEntity
  8
0
  6
Continuous
 62
     7
370
    25
100
AcDbLine
 10
54.91
 20
5.6881618392
 30
0.0
 11
54.91
 21
-5.6881618392
 31
0.0
  0
LINE
  5
2D2
330
1F
100
AcDbEntity
  8
0
  6
Continuous
 62
     7
370
    25
100
AcDbLine
 10
56.2218381608
 20
-7.0
 30
0.0
 11
67.5981618392
 21
-7.0
 31
0.0
  0
LINE
  5
2D3
330
1F
100
AcDbEntity
  8
0
  6
Continuous
 62
     7
370
    25
100
AcDbLine
 10
68.91
 20
-5.6881618392
 30
0.0
 11
68.91
 21
5.6881618392
 31
0.0
  0
LINE
  5
2D4
330
1F
100
AcDbEntity
  8
0
  6
Continuous
 62
     7
370
    25
100
AcDbLine
 10
67.5981618392
 20
26.05
 30
0.0
 11
56.2218381608
 21
26.05
 31
0.0
  0
LINE
  5
2D5
330
1F
100
AcDbEntity
  8
0
  6
Continuous
 62
     7
370
    25
100
AcDbLine
 10
54.91
 20
24.7381618392
 30
0.0
 11
54.91
 21
13.3618381608
 31
0.0
  0
LINE
  5
2D6
330
1F
100
AcDbEntity
  8
0
  6
Continuous
 62
     7
370
    25
100
AcDbLine
 10
56.2218381608
 20
12.05
 30
0.0
 11
67.5981618392
 21
12.05
 31
0.0
  0
LINE
  5
2D7
330
1F
100
AcDbEntity
  8
0
  6
Continuous
 62
     7
370
    25
100
AcDbLine
 10
68.91
 20
13.3618381608
 30
0.0
 11
68.91
 21
24.7381618392
 31
0.0
  0
LINE
  5
2D8
330
1F
100
AcDbEntity
  8
0
  6
Continuous
 62
     7
370
    25
100
AcDbLine
 10
67.5981618392
 20
45.1
 30
0.0
 11
56.2218381608
 21
45.1
 31
0.0
  0
LINE
  5
2D9
330
1F
100
AcDbEntity
  8
0
  6
Continuous
 62
     7
370
    25
100
AcDbLine
 10
54.91
 20
43.7881618392
 30
0.0
 11
54.91
 21
32.4118381608
 31
0.0
  0
LINE
  5
2DA
330
1F
100
AcDbEntity
  8
0
  6
Continuous
 62
     7
370
    25
100
AcDbLine
 10
56.2218381608
 20
31.1
 30
0.0
 11
67.5981618392
 21
31.1
 31
0.0
  0
LINE
  5
2DB
330
1F
100
AcDbEntity
  8
0
  6
Continuous
 62
     7
370
    25
100
AcDbLine
 10
68.91
 20
32.4118381608
 30
0.0
 11
68.91
 21
43.7881618392
 31
0.0
  0
LINE
  5
2DC
330
1F
100
AcDbEntity
  8
0
  6
Continuous
 62
     7
370
    25
100
AcDbLine
 10
67.5981618392
 20
-31.1
 30
0.0
 11
37.1718381608
 21
-31.1
 31
0.0
  0
LINE
  5
2DD
330
1F
100
AcDbEntity
  8
0
  6
Continuous
 62
     7
370
    25
100
AcDbLine
 10
35.86
 20
-32.4118381608
 30
0.0
 11
35.86
 21
-43.7881618392
 31
0.0
  0
LINE
  5
2DE
330
1F
100
AcDbEntity
  8
0
  6
Continuous
 62
     7
370
    25
100
AcDbLine
 10
29.4981618392
 20
45.1
 30
0.0
 11
18.1218381608
 21
45.1
 31
0.0
  0
LINE
  5
2DF
330
1F
100
AcDbEntity
  8
0
  6
Continuous
 62
     7
370
    25
100
AcDbLine
 10
16.81
 20
43.7881618392
 30
0.0
 11
16.81
 21
32.4118381608
 31
0.0
  0
LINE
  5
2E0
330
1F
100
AcDbEntity
  8
0
  6
Continuous
 62
     7
370
    25
100
AcDbLine
 10
18.1218381608
 20
31.1
 30
0.0
 11
29.4981618392
 21
31.1
 31
0.0
  0
LINE
  5
2E1
330
1F
100
AcDbEntity
  8
0
  6
Continuous
 62
     7
370
    25
100
AcDbLine
 10
30.81
 20
32.4118381608
 30
0.0
 11
30.81
 21
43.7881618392
 31
0.0
  0
LINE
  5
2E2
330
1F
100
AcDbEntity
  8
0
  6
Continuous
 62
     7
370
    25
100
AcDbLine
 10
10.4481618392
 20
-31.1
 30
0.0
 11
-0.9281618392
 21
-31.1
 31
0.0
  0
LINE
  5
2E3
330
1F
100
AcDbEntity
  8
0
  6
Continuous
 62
     7
370
    25
100
AcDbLine
 10
-2.24
 20
-32.4118381608
 30
0.0
 11
-2.24
 21
-43.7881618392
 31
0.0
  0
LINE
  5
2E4
330
1F
100
AcDbEntity
  8
0
  6
Continuous
 62
     7
370
    25
100
AcDbLine
 10
-0.9281618392
 20
-45.1
 30
0.0
 11
10.4481618392
 21
-45.1
 31
0.0
  0
LINE
  5
2E5
330
1F
100
AcDbEntity
  8
0
  6
Continuous
 62
     7
370
    25
100
AcDbLine
 10
11.76
 20
-43.7881618392
 30
0.0
 11
11.76
 21
-32.4118381608
 31
0.0
  0
LINE
  5
2E6
330
1F
100
AcDbEntity
  8
0
  6
Continuous
 62
     7
370
    25
100
AcDbLine
 10
10.4481618392
 20
-12.05
 30
0.0
 11
-0.9281618392
 21
-12.05
 31
0.0
  0
LINE
  5
2E7
330
1F
100
AcDbEntity
  8
0
  6
Continuous
 62
     7
370
    25
100
AcDbLine
 10
-2.24
 20
-13.3618381608
 30
0.0
 11
-2.24
 21
-24.7381618392
 31
0.0
  0
LINE
  5
2E8
330
1F
100
AcDbEntity
  8
0
  6
Continuous
 62
     7
370
    25
100
AcDbLine
 10
-0.9281618392
 20
-26.05
 30
0.0
 11
10.4481618392
 21
-26.05
 31
0.0
  0
LINE
  5
2E9
330
1F
100
AcDbEntity
  8
0
  6
Continuous
 62
     7
370
    25
100
AcDbLine
 10
11.76
 20
-24.7381618392
 30
0.0
 11
11.76
 21
-13.3618381608
 31
0.0
  0
LINE
  5
2EA
330
1F
100
AcDbEntity
  8
0
  6
Continuous
 62
     7
370
    25
100
AcDbLine
 10
10.4481618392
 20
7.0
 30
0.0
 11
-0.9281618392
 21
7.0
 31
0.0
  0
LINE
  5
2EB
330
1F
100
AcDbEntity
  8
0
  6
Continuous
 62
     7
370
    25
100
AcDbLine
 10
-2.24
 20
5.6881618392
 30
0.0
 11
-2.24
 21
-5.6881618392
 31
0.0
  0
LINE
  5
2EC
330
1F
100
AcDbEntity
  8
0
  6
Continuous
 62
     7
370
    25
100
AcDbLine
 10
-0.9281618392
 20
-7.0
 30
0.0
 11
10.4481618392
 21
-7.0
 31
0.0
  0
LINE
  5
2ED
330
1F
100
AcDbEntity
  8
0
  6
Continuous
 62
     7
370
    25
100
AcDbLine
 10
11.76
 20
-5.6881618392
 30
0.0
 11
11.76
 21
5.6881618392
 31
0.0
  0
LINE
  5
2EE
330
1F
100
AcDbEntity
  8
0
  6
Continuous
 62
     7
370
    25
100
AcDbLine
 10
29.4981618392
 20
26.05
 30
0.0
 11
18.1218381608
 21
26.05
 31
0.0
  0
LINE
  5
2EF
330
1F
100
AcDbEntity
  8
0
  6
Continuous
 62
     7
370
    25
100
AcDbLine
 10
16.81
 20
24.7381618392
 30
0.0
 11
16.81
 21
13.3618381608
 31
0.0
  0
LINE
  5
2F0
330
1F
100
AcDbEntity
  8
0
  6
Continuous
 62
     7
370
    25
100
AcDbLine
 10
18.1218381608
 20
12.05
 30
0.0
 11
29.4981618392
 21
12.05
 31
0.0
  0
LINE
  5
2F1
330
1F
100
AcDbEntity
  8
0
  6
Continuous
 62
     7
370
    25
100
AcDbLine
 10
30.81
 20
13.3618381608
 30
0.0
 11
30.81
 21
24.7381618392
 31
0.0
  0
LINE
  5
2F2
330
1F
100
AcDbEntity
  8
0
  6
Continuous
 62
     7
370
    25
100
AcDbLine
 10
29.4981618392
 20
7.0
 30
0.0
 11
18.1218381608
 21
7.0
 31
0.0
  0
LINE
  5
2F3
330
1F
100
AcDbEntity
  8
0
  6
Continuous
 62
     7
370
    25
100
AcDbLine
 10
16.81
 20
5.6881618392
 30
0.0
 11
16.81
 21
-5.6881618392
 31
0.0
  0
LINE
  5
2F4
330
1F
100
AcDbEntity
  8
0
  6
Continuous
 62
     7
370
    25
100
AcDbLine
 10
18.1218381608
 20
-7.0
 30
0.0
 11
29.4981618392
 21
-7.0
 31
0.0
  0
LINE
  5
2F5
330
1F
100
AcDbEntity
  8
0
  6
Continuous
 62
     7
370
    25
100
AcDbLine
 10
30.81
 20
-5.6881618392
 30
0.0
 11
30.81
 21
5.6881618392
 31
0.0
  0
LINE
  5
2F6
330
1F
100
AcDbEntity
  8
0
  6
Continuous
 62
     7
370
    25
100
AcDbLine
 10
29.4981618392
 20
-12.05
 30
0.0
 11
18.1218381608
 21
-12.05
 31
0.0
  0
LINE
  5
2F7
330
1F
100
AcDbEntity
  8
0
  6
Continuous
 62
     7
370
    25
100
AcDbLine
 10
16.81
 20
-13.3618381608
 30
0.0
 11
16.81
 21
-24.7381618392
 31
0.0
  0
LINE
  5
2F8
330
1F
100
AcDbEntity
  8
0
  6
Continuous
 62
     7
370
    25
100
AcDbLine
 10
18.1218381608
 20
-26.05
 30
0.0
 11
29.4981618392
 21
-26.05
 31
0.0
  0
LINE
  5
2F9
330
1F
100
AcDbEntity
  8
0
  6
Continuous
 62
     7
370
    25
100
AcDbLine
 10
30.81
 20
-24.7381618392
 30
0.0
 11
30.81
 21
-13.3618381608
 31
0.0
  0
LINE
  5
2FA
330
1F
100
AcDbEntity
  8
0
  6
Continuous
 62
     7
370
    25
100
AcDbLine
 10
29.4981618392
 20
-31.1
 30
0.0
 11
18.1218381608
 21
-31.1
 31
0.0
  0
LINE
  5
2FB
330
1F
100
AcDbEntity
  8
0
  6
Continuous
 62
     7
370
    25
100
AcDbLine
 10
16.81
 20
-32.4118381608
 30
0.0
 11
16.81
 21
-43.7881618392
 31
0.0
  0
LINE
  5
2FC
330
1F
100
AcDbEntity
  8
0
  6
Continuous
 62
     7
370
    25
100
AcDbLine
 10
18.1218381608
 20
-45.1
 30
0.0
 11
29.4981618392
 21
-45.1
 31
0.0
  0
LINE
  5
2FD
330
1F
100
AcDbEntity
  8
0
  6
Continuous
 62
     7
370
    25
100
AcDbLine
 10
30.81
 20
-43.7881618392
 30
0.0
 11
30.81
 21
-32.4118381608
 31
0.0
  0
LINE
  5
2FE
330
1F
100
AcDbEntity
  8
0
  6
Continuous
 62
     7
370
    25
100
AcDbLine
 10
-51.4618381608
 20
-31.1
 30
0.0
 11
-62.8381618392
 21
-31.1
 31
0.0
  0
LINE
  5
2FF
330
1F
100
AcDbEntity
  8
0
  6
Continuous
 62
     7
370
    25
100
AcDbLine
 10
-64.15
 20
-32.4118381608
 30
0.0
 11
-64.15
 21
-43.7881618392
 31
0.0
  0
LINE
  5
300
330
1F
100
AcDbEntity
  8
0
  6
Continuous
 62
     7
370
    25
100
AcDbLine
 10
-62.8381618392
 20
-45.1
 30
0.0
 11
-51.4618381608
 21
-45.1
 31
0.0
  0
LINE
  5
301
330
1F
100
AcDbEntity
  8
0
  6
Continuous
 62
     7
370
    25
100
AcDbLine
 10
-50.15
 20
-43.7881618392
 30
0.0
 11
-50.15
 21
-32.4118381608
 31
0.0
  0
LINE
  5
302
330
1F
100
AcDbEntity
  8
0
  6
Continuous
 62
     7
370
    25
100
AcDbLine
 10
-8.6018381608
 20
45.1
 30
0.0
 11
-19.9781618392
 21
45.1
 31
0.0
  0
LINE
  5
303
330
1F
100
AcDbEntity
  8
0
  6
Continuous
 62
     7
370
    25
100
AcDbLine
 10
-21.29
 20
43.7881618392
 30
0.0
 11
-21.29
 21
32.4118381608
 31
0.0
  0
LINE
  5
304
330
1F
100
AcDbEntity
  8
0
  6
Continuous
 62
     7
370
    25
100
AcDbLine
 10
-19.9781618392
 20
31.1
 30
0.0
 11
-8.6018381608
 21
31.1
 31
0.0
  0
LINE
  5
305
330
1F
100
AcDbEntity
  8
0
  6
Continuous
 62
     7
370
    25
100
AcDbLine
 10
-7.29
 20
32.4118381608
 30
0.0
 11
-7.29
 21
43.7881618392
 31
0.0
  0
LINE
  5
306
330
1F
100
AcDbEntity
  8
0
  6
Continuous
 62
     7
370
    25
100
AcDbLine
 10
-27.6518381608
 20
26.05
 30
0.0
 11
-39.0281618392
 21
26.05
 31
0.0
  0
LINE
  5
307
330
1F
100
AcDbEntity
  8
0
  6
Continuous
 62
     7
370
    25
100
AcDbLine
 10
-40.34
 20
24.7381618392
 30
0.0
 11
-40.34
 21
13.3618381608
 31
0.0
  0
LINE
  5
308
330
1F
100
AcDbEntity
  8
0
  6
Continuous
 62
     7
370
    25
100
AcDbLine
 10
-39.0281618392
 20
12.05
 30
0.0
 11
-27.6518381608
 21
12.05
 31
0.0
  0
LINE
  5
309
330
1F
100
AcDbEntity
  8
0
  6
Continuous
 62
     7
370
    25
100
AcDbLine
 10
-26.34
 20
13.3618381608
 30
0.0
 11
-26.34
 21
24.7381618392
 31
0.0
  0
LINE
  5
30A
330
1F
100
AcDbEntity
  8
0
  6
Continuous
 62
     7
370
    25
100
AcDbLine
 10
-27.6518381608
 20
7.0
 30
0.0
 11
-39.0281618392
 21
7.0
 31
0.0
  0
LINE
  5
30B
330
1F
100
AcDbEntity
  8
0
  6
Continuous
 62
     7
370
    25
100
AcDbLine
 10
-40.34
 20
5.6881618392
 30
0.0
 11
-40.34
 21
-5.6881618392
 31
0.0
  0
LINE
  5
30C
330
1F
100
AcDbEntity
  8
0
  6
Continuous
 62
     7
370
    25
100
AcDbLine
 10
-39.0281618392
 20
-7.0
 30
0.0
 11
-27.6518381608
 21
-7.0
 31
0.0
  0
LINE
  5
30D
330
1F
100
AcDbEntity
  8
0
  6
Continuous
 62
     7
370
    25
100
AcDbLine
 10
-26.34
 20
-5.6881618392
 30
0.0
 11
-26.34
 21
5.6881618392
 31
0.0
  0
LINE
  5
30E
330
1F
100
AcDbEntity
  8
0
  6
Continuous
 62
     7
370
    25
100
AcDbLine
 10
-51.4618381608
 20
-12.05
 30
0.0
 11
-62.8381618392
 21
-12.05
 31
0.0
  0
LINE
  5
30F
330
1F
100
AcDbEntity
  8
0
  6
Continuous
 62
     7
370
    25
100
AcDbLine
 10
-64.15
 20
-13.3618381608
 30
0.0
 11
-64.15
 21
-24.7381618392
 31
0.0
  0
LINE
  5
310
330
1F
100
AcDbEntity
  8
0
  6
Continuous
 62
     7
370
    25
100
AcDbLine
 10
-62.8381618392
 20
-26.05
 30
0.0
 11
-51.4618381608
 21
-26.05
 31
0.0
  0
LINE
  5
311
330
1F
100
AcDbEntity
  8
0
  6
Continuous
 62
     7
370
    25
100
AcDbLine
 10
-50.15
 20
-24.7381618392
 30
0.0
 11
-50.15
 21
-13.3618381608
 31
0.0
  0
LINE
  5
312
330
1F
100
AcDbEntity
  8
0
  6
Continuous
 62
     7
370
    25
100
AcDbLine
 10
-51.4618381608
 20
7.0
 30
0.0
 11
-62.8381618392
 21
7.0
 31
0.0
  0
LINE
  5
313
330
1F
100
AcDbEntity
  8
0
  6
Continuous
 62
     7
370
    25
100
AcDbLine
 10
-64.15
 20
5.6881618392
 30
0.0
 11
-64.15
 21
-5.6881618392
 31
0.0
  0
LINE
  5
314
330
1F
100
AcDbEntity
  8
0
  6
Continuous
 62
     7
370
    25
100
AcDbLine
 10
-62.8381618392
 20
-7.0
 30
0.0
 11
-51.4618381608
 21
-7.0
 31
0.0
  0
LINE
  5
315
330
1F
100
AcDbEntity
  8
0
  6
Continuous
 62
     7
370
    25
100
AcDbLine
 10
-50.15
 20
-5.6881618392
 30
0.0
 11
-50.15
 21
5.6881618392
 31
0.0
  0
LINE
  5
316
330
1F
100
AcDbEntity
  8
0
  6
Continuous
 62
     7
370
    25
100
AcDbLine
 10
-27.6518381608
 20
45.1
 30
0.0
 11
-39.0281618392
 21
45.1
 31
0.0
  0
LINE
  5
317
330
1F
100
AcDbEntity
  8
0
  6
Continuous
 62
     7
370
    25
100
AcDbLine
 10
-40.34
 20
43.7881618392
 30
0.0
 11
-40.34
 21
32.4118381608
 31
0.0
  0
LINE
  5
318
330
1F
100
AcDbEntity
  8
0
  6
Continuous
 62
     7
370
    25
100
AcDbLine
 10
-39.0281618392
 20
31.1
 30
0.0
 11
-27.6518381608
 21
31.1
 31
0.0
  0
LINE
  5
319
330
1F
100
AcDbEntity
  8
0
  6
Continuous
 62
     7
370
    25
100
AcDbLine
 10
-26.34
 20
32.4118381608
 30
0.0
 11
-26.34
 21
43.7881618392
 31
0.0
  0
LINE
  5
31A
330
1F
100
AcDbEntity
  8
0
  6
Continuous
 62
     7
370
    25
100
AcDbLine
 10
-51.4618381608
 20
26.05
 30
0.0
 11
-62.8381618392
 21
26.05
 31
0.0
  0
LINE
  5
31B
330
1F
100
AcDbEntity
  8
0
  6
Continuous
 62
     7
370
    25
100
AcDbLine
 10
-64.15
 20
24.7381618392
 30
0.0
 11
-64.15
 21
13.3618381608
 31
0.0
  0
LINE
  5
31C
330
1F
100
AcDbEntity
  8
0
  6
Continuous
 62
     7
370
    25
100
AcDbLine
 10
-62.8381618392
 20
12.05
 30
0.0
 11
-51.4618381608
 21
12.05
 31
0.0
  0
LINE
  5
31D
330
1F
100
AcDbEntity
  8
0
  6
Continuous
 62
     7
370
    25
100
AcDbLine
 10
-50.15
 20
13.3618381608
 30
0.0
 11
-50.15
 21
24.7381618392
 31
0.0
  0
LINE
  5
31E
330
1F
100
AcDbEntity
  8
0
  6
Continuous
 62
     7
370
    25
100
AcDbLine
 10
10.4481618392
 20
26.05
 30
0.0
 11
-0.9281618392
 21
26.05
 31
0.0
  0
LINE
  5
31F
330
1F
100
AcDbEntity
  8
0
  6
Continuous
 62
     7
370
    25
100
AcDbLine
 10
-2.24
 20
24.7381618392
 30
0.0
 11
-2.24
 21
13.3618381608
 31
0.0
  0
LINE
  5
320
330
1F
100
AcDbEntity
  8
0
  6
Continuous
 62
     7
370
    25
100
AcDbLine
 10
-0.9281618392
 20
12.05
 30
0.0
 11
10.4481618392
 21
12.05
 31
0.0
  0
LINE
  5
321
330
1F
100
AcDbEntity
  8
0
  6
Continuous
 62
     7
370
    25
100
AcDbLine
 10
11.76
 20
13.3618381608
 30
0.0
 11
11.76
 21
24.7381618392
 31
0.0
  0
LINE
  5
322
330
1F
100
AcDbEntity
  8
0
  6
Continuous
 62
     7
370
    25
100
AcDbLine
 10
10.4481618392
 20
45.1
 30
0.0
 11
-0.9281618392
 21
45.1
 31
0.0
  0
LINE
  5
323
330
1F
100
AcDbEntity
  8
0
  6
Continuous
 62
     7
370
    25
100
AcDbLine
 10
-2.24
 20
43.7881618392
 30
0.0
 11
-2.24
 21
32.4118381608
 31
0.0
  0
LINE
  5
324
330
1F
100
AcDbEntity
  8
0
  6
Continuous
 62
     7
370
    25
100
AcDbLine
 10
-0.9281618392
 20
31.1
 30
0.0
 11
10.4481618392
 21
31.1
 31
0.0
  0
LINE
  5
325
330
1F
100
AcDbEntity
  8
0
  6
Continuous
 62
     7
370
    25
100
AcDbLine
 10
11.76
 20
32.4118381608
 30
0.0
 11
11.76
 21
43.7881618392
 31
0.0
  0
LINE
  5
326
330
1F
100
AcDbEntity
  8
0
  6
Continuous
 62
     7
370
    25
100
AcDbLine
 10
-8.6018381608
 20
-31.1
 30
0.0
 11
-19.9781618392
 21
-31.1
 31
0.0
  0
LINE
  5
327
330
1F
100
AcDbEntity
  8
0
  6
Continuous
 62
     7
370
    25
100
AcDbLine
 10
-21.29
 20
-32.4118381608
 30
0.0
 11
-21.29
 21
-43.7881618392
 31
0.0
  0
LINE
  5
328
330
1F
100
AcDbEntity
  8
0
  6
Continuous
 62
     7
370
    25
100
AcDbLine
 10
-19.9781618392
 20
-45.1
 30
0.0
 11
-8.6018381608
 21
-45.1
 31
0.0
  0
LINE
  5
329
330
1F
100
AcDbEntity
  8
0
  6
Continuous
 62
     7
370
    25
100
AcDbLine
 10
-7.29
 20
-43.7881618392
 30
0.0
 11
-7.29
 21
-32.4118381608
 31
0.0
  0
LINE
  5
32A
330
1F
100
AcDbEntity
  8
0
  6
Continuous
 62
     7
370
    25
100
AcDbLine
 10
-8.6018381608
 20
-12.05
 30
0.0
 11
-19.9781618392
 21
-12.05
 31
0.0
  0
LINE
  5
32B
330
1F
100
AcDbEntity
  8
0
  6
Continuous
 62
     7
370
    25
100
AcDbLine
 10
-21.29
 20
-13.3618381608
 30
0.0
 11
-21.29
 21
-24.7381618392
 31
0.0
  0
LINE
  5
32C
330
1F
100
AcDbEntity
  8
0
  6
Continuous
 62
     7
370
    25
100
AcDbLine
 10
-19.9781618392
 20
-26.05
 30
0.0
 11
-8.6018381608
 21
-26.05
 31
0.0
  0
LINE
  5
32D
330
1F
100
AcDbEntity
  8
0
  6
Continuous
 62
     7
370
    25
100
AcDbLine
 10
-7.29
 20
-24.7381618392
 30
0.0
 11
-7.29
 21
-13.3618381608
 31
0.0
  0
LINE
  5
32E
330
1F
100
AcDbEntity
  8
0
  6
Continuous
 62
     7
370
    25
100
AcDbLine
 10
-8.6018381608
 20
7.0
 30
0.0
 11
-19.9781618392
 21
7.0
 31
0.0
  0
LINE
  5
32F
330
1F
100
AcDbEntity
  8
0
  6
Continuous
 62
     7
370
    25
100
AcDbLine
 10
-21.29
 20
5.6881618392
 30
0.0
 11
-21.29
 21
-5.6881618392
 31
0.0
  0
LINE
  5
330
330
1F
100
AcDbEntity
  8
0
  6
Continuous
 62
     7
370
    25
100
AcDbLine
 10
-19.9781618392
 20
-7.0
 30
0.0
 11
-8.6018381608
 21
-7.0
 31
0.0
  0
LINE
  5
331
330
1F
100
AcDbEntity
  8
0
  6
Continuous
 62
     7
370
    25
100
AcDbLine
 10
-7.29
 20
-5.6881618392
 30
0.0
 11
-7.29
 21
5.6881618392
 31
0.0
  0
LINE
  5
332
330
1F
100
AcDbEntity
  8
0
  6
Continuous
 62
     7
370
    25
100
AcDbLine
 10
-8.6018381608
 20
26.05
 30
0.0
 11
-19.9781618392
 21
26.05
 31
0.0
  0
LINE
  5
333
330
1F
100
AcDbEntity
  8
0
  6
Continuous
 62
     7
370
    25
100
AcDbLine
 10
-21.29
 20
24.7381618392
 30
0.0
 11
-21.29
 21
13.3618381608
 31
0.0
  0
LINE
  5
334
330
1F
100
AcDbEntity
  8
0
  6
Continuous
 62
     7
370
    25
100
AcDbLine
 10
-19.9781618392
 20
12.05
 30
0.0
 11
-8.6018381608
 21
12.05
 31
0.0
  0
LINE
  5
335
330
1F
100
AcDbEntity
  8
0
  6
Continuous
 62
     7
370
    25
100
AcDbLine
 10
-7.29
 20
13.3618381608
 30
0.0
 11
-7.29
 21
24.7381618392
 31
0.0
  0
LINE
  5
336
330
1F
100
AcDbEntity
  8
0
  6
Continuous
 62
     7
370
    25
100
AcDbLine
 10
-27.6518381608
 20
-31.1
 30
0.0
 11
-39.0281618392
 21
-31.1
 31
0.0
  0
LINE
  5
337
330
1F
100
AcDbEntity
  8
0
  6
Continuous
 62
     7
370
    25
100
AcDbLine
 10
-40.34
 20
-32.4118381608
 30
0.0
 11
-40.34
 21
-43.7881618392
 31
0.0
  0
LINE
  5
338
330
1F
100
AcDbEntity
  8
0
  6
Continuous
 62
     7
370
    25
100
AcDbLine
 10
-39.0281618392
 20
-45.1
 30
0.0
 11
-27.6518381608
 21
-45.1
 31
0.0
  0
LINE
  5
339
330
1F
100
AcDbEntity
  8
0
  6
Continuous
 62
     7
370
    25
100
AcDbLine
 10
-26.34
 20
-43.7881618392
 30
0.0
 11
-26.34
 21
-32.4118381608
 31
0.0
  0
LINE
  5
33A
330
1F
100
AcDbEntity
  8
0
  6
Continuous
 62
     7
370
    25
100
AcDbLine
 10
-27.6518381608
 20
-12.05
 30
0.0
 11
-39.0281618392
 21
-12.05
 31
0.0
  0
LINE
  5
33B
330
1F
100
AcDbEntity
  8
0
  6
Continuous
 62
     7
370
    25
100
AcDbLine
 10
-40.34
 20
-13.3618381608
 30
0.0
 11
-40.34
 21
-24.7381618392
 31
0.0
  0
LINE
  5
33C
330
1F
100
AcDbEntity
  8
0
  6
Continuous
 62
     7
370
    25
100
AcDbLine
 10
-39.0281618392
 20
-26.05
 30
0.0
 11
-27.6518381608
 21
-26.05
 31
0.0
  0
LINE
  5
33D
330
1F
100
AcDbEntity
  8
0
  6
Continuous
 62
     7
370
    25
100
AcDbLine
 10
-26.34
 20
-24.7381618392
 30
0.0
 11
-26.34
 21
-13.3618381608
 31
0.0
  0
LINE
  5
33E
330
1F
100
AcDbEntity
  8
0
  6
Continuous
 62
     7
370
    25
100
AcDbLine
 10
67.5981618392
 20
-12.05
 30
0.0
 11
56.2218381608
 21
-12.05
 31
0.0
  0
LINE
  5
33F
330
1F
100
AcDbEntity
  8
0
  6
Continuous
 62
     7
370
    25
100
AcDbLine
 10
54.91
 20
-13.3618381608
 30
0.0
 11
54.91
 21
-24.7381618392
 31
0.0
  0
LINE
  5
340
330
1F
100
AcDbEntity
  8
0
  6
Continuous
 62
     7
370
    25
100
AcDbLine
 10
56.2218381608
 20
-26.05
 30
0.0
 11
67.5981618392
 21
-26.05
 31
0.0
  0
LINE
  5
341
330
1F
100
AcDbEntity
  8
0
  6
Continuous
 62
     7
370
    25
100
AcDbLine
 10
68.91
 20
-24.7381618392
 30
0.0
 11
68.91
 21
-13.3618381608
 31
0.0
  0
LINE
  5
342
330
1F
100
AcDbEntity
  8
0
  6
Continuous
 62
     7
370
    25
100
AcDbLine
 10
68.91
 20
-43.7881618392
 30
0.0
 11
68.91
 21
-32.4118381608
 31
0.0
  0
LINE
  5
343
330
1F
100
AcDbEntity
  8
0
  6
Continuous
 62
     7
370
    25
100
AcDbLine
 10
-71.4375
 20
22.925
 30
0.0
 11
-71.4375
 21
-22.925
 31
0.0
  0
LINE
  5
344
330
1F
100
AcDbEntity
  8
0
  6
Continuous
 62
     7
370
    25
100
AcDbLine
 10
-71.4375
 20
-34.225
 30
0.0
 11
-71.4375
 21
-45.625
 31
0.0
  0
LINE
  5
345
330
1F
100
AcDbEntity
  8
0
  6
Continuous
 62
     7
370
    25
100
AcDbLine
 10
71.4375
 20
-22.925
 30
0.0
 11
71.4375
 21
22.925
 31
0.0
  0
LINE
  5
346
330
1F
100
AcDbEntity
  8
0
  6
Continuous
 62
     7
370
    25
100
AcDbLine
 10
71.4375
 20
34.225
 30
0.0
 11
71.4375
 21
45.625
 31
0.0
  0
ARC
  5
347
330
1F
100
AcDbEntity
  8
0
  6
Continuous
 62
     7
370
    25
100
AcDbCircle
 10
69.4375
 20
-45.625
 30
0.0
 40
2.0
100
AcDbArc
 50
270.0
 51
0.0
  0
ARC
  5
348
330
1F
100
AcDbEntity
  8
0
  6
Continuous
 62
     7
370
    25
100
AcDbCircle
 10
-69.4375
 20
-45.625
 30
0.0
 40
2.0
100
AcDbArc
 50
180.0
 51
270.0
  0
ARC
  5
349
330
1F
100
AcDbEntity
  8
0
  6
Continuous
 62
     7
370
    25
100
AcDbCircle
 10
-72.1875
 20
-34.225
 30
0.0
 40
0.7500000000000071
100
AcDbArc
 50
0.0
 51
90.0
  0
ARC
  5
34A
330
1F
100
AcDbEntity
  8
0
  6
Continuous
 62
     7
370
    25
100
AcDbCircle
 10
-72.1875
 20
-27.6191376816
 30
0.0
 40
5.855862318361044
100
AcDbArc
 50
249.9541294326
 51
270.0
  0
ARC
  5
34B
330
1F
100
AcDbEntity
  8
0
  6
Continuous
 62
     7
370
    25
100
AcDbCircle
 10
-74.5375
 20
-34.0596615833
 30
0.0
 40
1.000000000000003
100
AcDbArc
 50
69.9541294326
 51
130.1420997508
  0
ARC
  5
34C
330
1F
100
AcDbEntity
  8
0
  6
Continuous
 62
     7
370
    25
100
AcDbCircle
 10
-75.6742449627
 20
-32.7117449627
 30
0.0
 40
0.7632550372500901
100
AcDbArc
 50
180.0
 51
310.1420997508
  0
ARC
  5
34D
330
1F
100
AcDbEntity
  8
0
  6
Continuous
 62
     7
370
    25
100
AcDbCircle
 10
-75.6742449627
 20
-24.4382550373
 30
0.0
 40
0.7632550372500767
100
AcDbArc
 50
49.8579002492
 51
180.0
  0
ARC
  5
34E
330
1F
100
AcDbEntity
  8
0
  6
Continuous
 62
     7
370
    25
100
AcDbCircle
 10
-74.5375
 20
-23.0903384167
 30
0.0
 40
0.9999999999999997
100
AcDbArc
 50
229.8579002492
 51
290.0458705674
  0
ARC
  5
34F
330
1F
100
AcDbEntity
  8
0
  6
Continuous
 62
     7
370
    25
100
AcDbCircle
 10
-72.1875
 20
-29.5308623184
 30
0.0
 40
5.855862318360785
100
AcDbArc
 50
90.0
 51
110.0458705674
  0
ARC
  5
350
330
1F
100
AcDbEntity
  8
0
  6
Continuous
 62
     7
370
    25
100
AcDbCircle
 10
-72.1875
 20
-22.925
 30
0.0
 40
0.7499999999999929
100
AcDbArc
 50
270.0
 51
0.0
  0
ARC
  5
351
330
1F
100
AcDbEntity
  8
0
  6
Continuous
 62
     7
370
    25
100
AcDbCircle
 10
-72.1875
 20
22.925
 30
0.0
 40
0.75
100
AcDbArc
 50
0.0
 51
90.0
  0
ARC
  5
352
330
1F
100
AcDbEntity
  8
0
  6
Continuous
 62
     7
370
    25
100
AcDbCircle
 10
-72.1875
 20
29.5308623184
 30
0.0
 40
5.855862318360934
100
AcDbArc
 50
249.9541294326
 51
270.0
  0
ARC
  5
353
330
1F
100
AcDbEntity
  8
0
  6
Continuous
 62
     7
370
    25
100
AcDbCircle
 10
-74.5375
 20
23.0903384167
 30
0.0
 40
1.000000000000021
100
AcDbArc
 50
69.9541294326
 51
130.1420997508
  0
ARC
  5
354
330
1F
100
AcDbEntity
  8
0
  6
Continuous
 62
     7
370
    25
100
AcDbCircle
 10
-75.6742449627
 20
24.4382550373
 30
0.0
 40
0.7632550372500901
100
AcDbArc
 50
180.0
 51
310.1420997508
  0
ARC
  5
355
330
1F
100
AcDbEntity
  8
0
  6
Continuous
 62
     7
370
    25
100
AcDbCircle
 10
-75.6742449627
 20
32.7117449627
 30
0.0
 40
0.7632550372500901
100
AcDbArc
 50
49.8579002492
 51
180.0
  0
ARC
  5
356
330
1F
100
AcDbEntity
  8
0
  6
Continuous
 62
     7
370
    25
100
AcDbCircle
 10
-74.5375
 20
34.0596615833
 30
0.0
 40
0.9999999999999563
100
AcDbArc
 50
229.8579002492
 51
290.0458705674
  0
ARC
  5
357
330
1F
100
AcDbEntity
  8
0
  6
Continuous
 62
     7
370
    25
100
AcDbCircle
 10
-72.1875
 20
27.6191376816
 30
0.0
 40
5.855862318360639
100
AcDbArc
 50
90.0
 51
110.0458705674
  0
ARC
  5
358
330
1F
100
AcDbEntity
  8
0
  6
Continuous
 62
     7
370
    25
100
AcDbCircle
 10
-72.1875
 20
34.225
 30
0.0
 40
0.7500000000000071
100
AcDbArc
 50
270.0
 51
0.0
  0
ARC
  5
359
330
1F
100
AcDbEntity
  8
0
  6
Continuous
 62
     7
370
    25
100
AcDbCircle
 10
-69.4375
 20
45.625
 30
0.0
 40
2.0
100
AcDbArc
 50
90.0
 51
180.0
  0
ARC
  5
35A
330
1F
100
AcDbEntity
  8
0
  6
Continuous
 62
     7
370
    25
100
AcDbCircle
 10
69.4375
 20
45.625
 30
0.0
 40
2.0
100
AcDbArc
 50
0.0
 51
90.0
  0
ARC
  5
35B
330
1F
100
AcDbEntity
  8
0
  6
Continuous
 62
     7
370
    25
100
AcDbCircle
 10
72.1875
 20
34.225
 30
0.0
 40
0.7500000000000071
100
AcDbArc
 50
180.0
 51
270.0
  0
ARC
  5
35C
330
1F
100
AcDbEntity
  8
0
  6
Continuous
 62
     7
370
    25
100
AcDbCircle
 10
72.1875
 20
27.6191376816
 30
0.0
 40
5.855862318361044
100
AcDbArc
 50
69.9541294326
 51
90.0
  0
ARC
  5
35D
330
1F
100
AcDbEntity
  8
0
  6
Continuous
 62
     7
370
    25
100
AcDbCircle
 10
74.5375
 20
34.0596615833
 30
0.0
 40
1.000000000000005
100
AcDbArc
 50
249.9541294326
 51
310.1420997508
  0
ARC
  5
35E
330
1F
100
AcDbEntity
  8
0
  6
Continuous
 62
     7
370
    25
100
AcDbCircle
 10
75.6742449627
 20
32.7117449627
 30
0.0
 40
0.7632550372500901
100
AcDbArc
 50
0.0
 51
130.1420997508
  0
ARC
  5
35F
330
1F
100
AcDbEntity
  8
0
  6
Continuous
 62
     7
370
    25
100
AcDbCircle
 10
75.6742449627
 20
24.4382550373
 30
0.0
 40
0.7632550372500759
100
AcDbArc
 50
229.8579002492
 51
0.0
  0
ARC
  5
360
330
1F
100
AcDbEntity
  8
0
  6
Continuous
 62
     7
370
    25
100
AcDbCircle
 10
74.5375
 20
23.0903384167
 30
0.0
 40
1.000000000000013
100
AcDbArc
 50
49.8579002492
 51
110.0458705674
  0
ARC
  5
361
330
1F
100
AcDbEntity
  8
0
  6
Continuous
 62
     7
370
    25
100
AcDbCircle
 10
72.1875
 20
29.5308623184
 30
0.0
 40
5.855862318360781
100
AcDbArc
 50
270.0
 51
290.0458705674
  0
ARC
  5
362
330
1F
100
AcDbEntity
  8
0
  6
Continuous
 62
     7
370
    25
100
AcDbCircle
 10
72.1875
 20
22.925
 30
0.0
 40
0.7499999999999929
100
AcDbArc
 50
90.0
 51
180.0
  0
ARC
  5
363
330
1F
100
AcDbEntity
  8
0
  6
Continuous
 62
     7
370
    25
100
AcDbCircle
 10
72.1875
 20
-22.925
 30
0.0
 40
0.7499999999999929
100
AcDbArc
 50
180.0
 51
270.0
  0
ARC
  5
364
330
1F
100
AcDbEntity
  8
0
  6
Continuous
 62
     7
370
    25
100
AcDbCircle
 10
72.1875
 20
-29.5308623184
 30
0.0
 40
5.855862318360927
100
AcDbArc
 50
69.9541294326
 51
90.0
  0
ARC
  5
365
330
1F
100
AcDbEntity
  8
0
  6
Continuous
 62
     7
370
    25
100
AcDbCircle
 10
74.5375
 20
-23.0903384167
 30
0.0
 40
1.000000000000013
100
AcDbArc
 50
249.9541294326
 51
310.1420997508
  0
ARC
  5
366
330
1F
100
AcDbEntity
  8
0
  6
Continuous
 62
     7
370
    25
100
AcDbCircle
 10
75.6742449627
 20
-24.4382550373
 30
0.0
 40
0.7632550372500901
100
AcDbArc
 50
0.0
 51
130.1420997508
  0
ARC
  5
367
330
1F
100
AcDbEntity
  8
0
  6
Continuous
 62
     7
370
    25
100
AcDbCircle
 10
75.6742449627
 20
-32.7117449627
 30
0.0
 40
0.7632550372500759
100
AcDbArc
 50
229.8579002492
 51
0.0
  0
ARC
  5
368
330
1F
100
AcDbEntity
  8
0
  6
Continuous
 62
     7
370
    25
100
AcDbCircle
 10
74.5375
 20
-34.0596615833
 30
0.0
 40
0.9999999999999508
100
AcDbArc
 50
49.8579002492
 51
110.0458705674
  0
ARC
  5
369
330
1F
100
AcDbEntity
  8
0
  6
Continuous
 62
     7
370
    25
100
AcDbCircle
 10
72.1875
 20
-27.6191376816
 30
0.0
 40
5.855862318360639
100
AcDbArc
 50
270.0
 51
290.0458705674
  0
ARC
  5
36A
330
1F
100
AcDbEntity
  8
0
  6
Continuous
 62
     7
370
    25
100
AcDbCircle
 10
72.1875
 20
-34.225
 30
0.0
 40
0.7500000000000071
100
AcDbArc
 50
90.0
 51
180.0
  0
ARC
  5
36B
330
1F
100
AcDbEntity
  8
0
  6
Continuous
 62
     7
370
    25
100
AcDbCircle
 10
-63.6196699141
 20
31.6303300859
 30
0.0
 40
0.7500000000000123
100
AcDbArc
 50
148.6002851901
 51
301.3997148099
  0
ARC
  5
36C
330
1F
100
AcDbEntity
  8
0
  6
Continuous
 62
     7
370
    25
100
AcDbCircle
 10
-62.8381618392
 20
30.35
 30
0.0
 40
0.7499999999997335
100
AcDbArc
 50
90.0
 51
121.3997148099
  0
ARC
  5
36D
330
1F
100
AcDbEntity
  8
0
  6
Continuous
 62
     7
370
    25
100
AcDbCircle
 10
-51.4618381608
 20
30.35
 30
0.0
 40
0.7499999999998934
100
AcDbArc
 50
58.6002851901
 51
90.0
  0
ARC
  5
36E
330
1F
100
AcDbEntity
  8
0
  6
Continuous
 62
     7
370
    25
100
AcDbCircle
 10
-50.6803300859
 20
31.6303300859
 30
0.0
 40
0.750000000000013
100
AcDbArc
 50
238.6002851901
 51
31.3997148099
  0
ARC
  5
36F
330
1F
100
AcDbEntity
  8
0
  6
Continuous
 62
     7
370
    25
100
AcDbCircle
 10
-49.4
 20
32.4118381608
 30
0.0
 40
0.74999999999973
100
AcDbArc
 50
180.0
 51
211.3997148099
  0
ARC
  5
370
330
1F
100
AcDbEntity
  8
0
  6
Continuous
 62
     7
370
    25
100
AcDbCircle
 10
-49.4
 20
43.7881618392
 30
0.0
 40
0.7499999999999503
100
AcDbArc
 50
148.6002851901
 51
180.0
  0
ARC
  5
371
330
1F
100
AcDbEntity
  8
0
  6
Continuous
 62
     7
370
    25
100
AcDbCircle
 10
-50.6803300859
 20
44.5696699141
 30
0.0
 40
0.7499999999999956
100
AcDbArc
 50
328.6002851901
 51
121.3997148099
  0
ARC
  5
372
330
1F
100
AcDbEntity
  8
0
  6
Continuous
 62
     7
370
    25
100
AcDbCircle
 10
-51.4618381608
 20
45.85
 30
0.0
 40
0.7499999999997594
100
AcDbArc
 50
270.0
 51
301.3997148099
  0
ARC
  5
373
330
1F
100
AcDbEntity
  8
0
  6
Continuous
 62
     7
370
    25
100
AcDbCircle
 10
-62.8381618392
 20
45.85
 30
0.0
 40
0.7499999999997728
100
AcDbArc
 50
238.6002851901
 51
270.0
  0
ARC
  5
374
330
1F
100
AcDbEntity
  8
0
  6
Continuous
 62
     7
370
    25
100
AcDbCircle
 10
-63.6196699141
 20
44.5696699141
 30
0.0
 40
0.7500000000000087
100
AcDbArc
 50
58.6002851901
 51
211.3997148099
  0
ARC
  5
375
330
1F
100
AcDbEntity
  8
0
  6
Continuous
 62
     7
370
    25
100
AcDbCircle
 10
-64.9
 20
43.7881618392
 30
0.0
 40
0.7499999999996755
100
AcDbArc
 50
360.0
 51
31.3997148099
  0
ARC
  5
376
330
1F
100
AcDbEntity
  8
0
  6
Continuous
 62
     7
370
    25
100
AcDbCircle
 10
-64.9
 20
32.4118381608
 30
0.0
 40
0.7499999999997442
100
AcDbArc
 50
328.6002851901
 51
0.0
  0
ARC
  5
377
330
1F
100
AcDbEntity
  8
0
  6
Continuous
 62
     7
370
    25
100
AcDbCircle
 10
55.4403300859
 20
-12.5803300859
 30
0.0
 40
0.750000000000005
100
AcDbArc
 50
58.6002851901
 51
211.3997148099
  0
ARC
  5
378
330
1F
100
AcDbEntity
  8
0
  6
Continuous
 62
     7
370
    25
100
AcDbCircle
 10
54.16
 20
-13.3618381608
 30
0.0
 40
0.7499999999997868
100
AcDbArc
 50
360.0
 51
31.3997148099
  0
ARC
  5
379
330
1F
100
AcDbEntity
  8
0
  6
Continuous
 62
     7
370
    25
100
AcDbCircle
 10
54.16
 20
-24.7381618392
 30
0.0
 40
0.7499999999998437
100
AcDbArc
 50
328.6002851901
 51
0.0
  0
ARC
  5
37A
330
1F
100
AcDbEntity
  8
0
  6
Continuous
 62
     7
370
    25
100
AcDbCircle
 10
55.4403300859
 20
-25.5196699141
 30
0.0
 40
0.750000000000003
100
AcDbArc
 50
148.6002851901
 51
301.3997148099
  0
ARC
  5
37B
330
1F
100
AcDbEntity
  8
0
  6
Continuous
 62
     7
370
    25
100
AcDbCircle
 10
56.2218381608
 20
-26.8
 30
0.0
 40
0.7499999999998046
100
AcDbArc
 50
90.0
 51
121.3997148099
  0
ARC
  5
37C
330
1F
100
AcDbEntity
  8
0
  6
Continuous
 62
     7
370
    25
100
AcDbCircle
 10
67.5981618392
 20
-26.8
 30
0.0
 40
0.7500000000000142
100
AcDbArc
 50
58.6002851901
 51
90.0
  0
ARC
  5
37D
330
1F
100
AcDbEntity
  8
0
  6
Continuous
 62
     7
370
    25
100
AcDbCircle
 10
68.3796699141
 20
-25.5196699141
 30
0.0
 40
0.7500000000000054
100
AcDbArc
 50
238.6002851901
 51
31.3997148099
  0
ARC
  5
37E
330
1F
100
AcDbEntity
  8
0
  6
Continuous
 62
     7
370
    25
100
AcDbCircle
 10
69.66
 20
-24.7381618392
 30
0.0
 40
0.7499999999997379
100
AcDbArc
 50
180.0
 51
211.3997148099
  0
ARC
  5
37F
330
1F
100
AcDbEntity
  8
0
  6
Continuous
 62
     7
370
    25
100
AcDbCircle
 10
69.66
 20
-13.3618381608
 30
0.0
 40
0.7499999999998872
100
AcDbArc
 50
148.6002851901
 51
180.0
  0
ARC
  5
380
330
1F
100
AcDbEntity
  8
0
  6
Continuous
 62
     7
370
    25
100
AcDbCircle
 10
68.3796699141
 20
-12.5803300859
 30
0.0
 40
0.749999999999991
100
AcDbArc
 50
328.6002851901
 51
121.3997148099
  0
ARC
  5
381
330
1F
100
AcDbEntity
  8
0
  6
Continuous
 62
     7
370
    25
100
AcDbCircle
 10
67.5981618392
 20
-11.3
 30
0.0
 40
0.7499999999998416
100
AcDbArc
 50
270.0
 51
301.3997148099
  0
ARC
  5
382
330
1F
100
AcDbEntity
  8
0
  6
Continuous
 62
     7
370
    25
100
AcDbCircle
 10
56.2218381608
 20
-11.3
 30
0.0
 40
0.7499999999998387
100
AcDbArc
 50
238.6002851901
 51
270.0
  0
ARC
  5
383
330
1F
100
AcDbEntity
  8
0
  6
Continuous
 62
     7
370
    25
100
AcDbCircle
 10
-20.7596699141
 20
12.5803300859
 30
0.0
 40
0.7500000000000062
100
AcDbArc
 50
148.6002851901
 51
301.3997148099
  0
ARC
  5
384
330
1F
100
AcDbEntity
  8
0
  6
Continuous
 62
     7
370
    25
100
AcDbCircle
 10
-19.9781618392
 20
11.3
 30
0.0
 40
0.7499999999998046
100
AcDbArc
 50
90.0
 51
121.3997148099
  0
ARC
  5
385
330
1F
100
AcDbEntity
  8
0
  6
Continuous
 62
     7
370
    25
100
AcDbCircle
 10
-8.6018381608
 20
11.3
 30
0.0
 40
0.7500000000000021
100
AcDbArc
 50
58.6002851901
 51
90.0
  0
ARC
  5
386
330
1F
100
AcDbEntity
  8
0
  6
Continuous
 62
     7
370
    25
100
AcDbCircle
 10
-7.8203300859
 20
12.5803300859
 30
0.0
 40
0.7500000000000007
100
AcDbArc
 50
238.6002851901
 51
31.3997148099
  0
ARC
  5
387
330
1F
100
AcDbEntity
  8
0
  6
Continuous
 62
     7
370
    25
100
AcDbCircle
 10
-6.54
 20
13.3618381608
 30
0.0
 40
0.7499999999997667
100
AcDbArc
 50
180.0
 51
211.3997148099
  0
ARC
  5
388
330
1F
100
AcDbEntity
  8
0
  6
Continuous
 62
     7
370
    25
100
AcDbCircle
 10
-6.54
 20
24.7381618392
 30
0.0
 40
0.7499999999999698
100
AcDbArc
 50
148.6002851901
 51
180.0
  0
ARC
  5
389
330
1F
100
AcDbEntity
  8
0
  6
Continuous
 62
     7
370
    25
100
AcDbCircle
 10
-7.8203300859
 20
25.5196699141
 30
0.0
 40
0.7499999999999918
100
AcDbArc
 50
328.6002851901
 51
121.3997148099
  0
ARC
  5
38A
330
1F
100
AcDbEntity
  8
0
  6
Continuous
 62
     7
370
    25
100
AcDbCircle
 10
-8.6018381608
 20
26.8
 30
0.0
 40
0.7499999999998082
100
AcDbArc
 50
270.0
 51
301.3997148099
  0
ARC
  5
38B
330
1F
100
AcDbEntity
  8
0
  6
Continuous
 62
     7
370
    25
100
AcDbCircle
 10
-19.9781618392
 20
26.8
 30
0.0
 40
0.7499999999997624
100
AcDbArc
 50
238.6002851901
 51
270.0
  0
ARC
  5
38C
330
1F
100
AcDbEntity
  8
0
  6
Continuous
 62
     7
370
    25
100
AcDbCircle
 10
-20.7596699141
 20
25.5196699141
 30
0.0
 40
0.7500000000000033
100
AcDbArc
 50
58.6002851901
 51
211.3997148099
  0
ARC
  5
38D
330
1F
100
AcDbEntity
  8
0
  6
Continuous
 62
     7
370
    25
100
AcDbCircle
 10
-22.04
 20
24.7381618392
 30
0.0
 40
0.7499999999997264
100
AcDbArc
 50
360.0
 51
31.3997148099
  0
ARC
  5
38E
330
1F
100
AcDbEntity
  8
0
  6
Continuous
 62
     7
370
    25
100
AcDbCircle
 10
-22.04
 20
13.3618381608
 30
0.0
 40
0.7499999999997713
100
AcDbArc
 50
328.6002851901
 51
0.0
  0
ARC
  5
38F
330
1F
100
AcDbEntity
  8
0
  6
Continuous
 62
     7
370
    25
100
AcDbCircle
 10
-39.8096699141
 20
-25.5196699141
 30
0.0
 40
0.7500000000000192
100
AcDbArc
 50
148.6002851901
 51
301.3997148099
  0
ARC
  5
390
330
1F
100
AcDbEntity
  8
0
  6
Continuous
 62
     7
370
    25
100
AcDbCircle
 10
-39.0281618392
 20
-26.8
 30
0.0
 40
0.749999999999785
100
AcDbArc
 50
90.0
 51
121.3997148099
  0
ARC
  5
391
330
1F
100
AcDbEntity
  8
0
  6
Continuous
 62
     7
370
    25
100
AcDbCircle
 10
-27.6518381608
 20
-26.8
 30
0.0
 40
0.7499999999999787
100
AcDbArc
 50
58.6002851901
 51
90.0
  0
ARC
  5
392
330
1F
100
AcDbEntity
  8
0
  6
Continuous
 62
     7
370
    25
100
AcDbCircle
 10
-26.8703300859
 20
-25.5196699141
 30
0.0
 40
0.750000000000005
100
AcDbArc
 50
238.6002851901
 51
31.3997148099
  0
ARC
  5
393
330
1F
100
AcDbEntity
  8
0
  6
Continuous
 62
     7
370
    25
100
AcDbCircle
 10
-25.59
 20
-24.7381618392
 30
0.0
 40
0.7499999999997845
100
AcDbArc
 50
180.0
 51
211.3997148099
  0
ARC
  5
394
330
1F
100
AcDbEntity
  8
0
  6
Continuous
 62
     7
370
    25
100
AcDbCircle
 10
-25.59
 20
-13.3618381608
 30
0.0
 40
0.750000000000032
100
AcDbArc
 50
148.6002851901
 51
180.0
  0
ARC
  5
395
330
1F
100
AcDbEntity
  8
0
  6
Continuous
 62
     7
370
    25
100
AcDbCircle
 10
-26.8703300859
 20
-12.5803300859
 30
0.0
 40
0.7499999999999923
100
AcDbArc
 50
328.6002851901
 51
121.3997148099
  0
ARC
  5
396
330
1F
100
AcDbEntity
  8
0
  6
Continuous
 62
     7
370
    25
100
AcDbCircle
 10
-27.6518381608
 20
-11.3
 30
0.0
 40
0.7499999999998135
100
AcDbArc
 50
270.0
 51
301.3997148099
  0
ARC
  5
397
330
1F
100
AcDbEntity
  8
0
  6
Continuous
 62
     7
370
    25
100
AcDbCircle
 10
-39.0281618392
 20
-11.3
 30
0.0
 40
0.7499999999998093
100
AcDbArc
 50
238.6002851901
 51
270.0
  0
ARC
  5
398
330
1F
100
AcDbEntity
  8
0
  6
Continuous
 62
     7
370
    25
100
AcDbCircle
 10
-39.8096699141
 20
-12.5803300859
 30
0.0
 40
0.750000000000007
100
AcDbArc
 50
58.6002851901
 51
211.3997148099
  0
ARC
  5
399
330
1F
100
AcDbEntity
  8
0
  6
Continuous
 62
     7
370
    25
100
AcDbCircle
 10
-41.09
 20
-13.3618381608
 30
0.0
 40
0.7499999999997655
100
AcDbArc
 50
360.0
 51
31.3997148099
  0
ARC
  5
39A
330
1F
100
AcDbEntity
  8
0
  6
Continuous
 62
     7
370
    25
100
AcDbCircle
 10
-41.09
 20
-24.7381618392
 30
0.0
 40
0.7499999999996956
100
AcDbArc
 50
328.6002851901
 51
0.0
  0
ARC
  5
39B
330
1F
100
AcDbEntity
  8
0
  6
Continuous
 62
     7
370
    25
100
AcDbCircle
 10
-39.8096699141
 20
-31.6303300859
 30
0.0
 40
0.7500000000000033
100
AcDbArc
 50
58.6002851901
 51
211.3997148099
  0
ARC
  5
39C
330
1F
100
AcDbEntity
  8
0
  6
Continuous
 62
     7
370
    25
100
AcDbCircle
 10
-41.09
 20
-32.4118381608
 30
0.0
 40
0.7499999999998884
100
AcDbArc
 50
0.0
 51
31.3997148099
  0
ARC
  5
39D
330
1F
100
AcDbEntity
  8
0
  6
Continuous
 62
     7
370
    25
100
AcDbCircle
 10
-41.09
 20
-43.7881618392
 30
0.0
 40
0.7499999999998508
100
AcDbArc
 50
328.6002851901
 51
0.0
  0
ARC
  5
39E
330
1F
100
AcDbEntity
  8
0
  6
Continuous
 62
     7
370
    25
100
AcDbCircle
 10
-39.8096699141
 20
-44.5696699141
 30
0.0
 40
0.7500000000000063
100
AcDbArc
 50
148.6002851901
 51
301.3997148099
  0
ARC
  5
39F
330
1F
100
AcDbEntity
  8
0
  6
Continuous
 62
     7
370
    25
100
AcDbCircle
 10
-39.0281618392
 20
-45.85
 30
0.0
 40
0.7499999999998721
100
AcDbArc
 50
90.0
 51
121.3997148099
  0
ARC
  5
3A0
330
1F
100
AcDbEntity
  8
0
  6
Continuous
 62
     7
370
    25
100
AcDbCircle
 10
-27.6518381608
 20
-45.85
 30
0.0
 40
0.7499999999998437
100
AcDbArc
 50
58.6002851901
 51
90.0
  0
ARC
  5
3A1
330
1F
100
AcDbEntity
  8
0
  6
Continuous
 62
     7
370
    25
100
AcDbCircle
 10
-26.8703300859
 20
-44.5696699141
 30
0.0
 40
0.7500000000000021
100
AcDbArc
 50
238.6002851901
 51
31.3997148099
  0
ARC
  5
3A2
330
1F
100
AcDbEntity
  8
0
  6
Continuous
 62
     7
370
    25
100
AcDbCircle
 10
-25.59
 20
-43.7881618392
 30
0.0
 40
0.7499999999997584
100
AcDbArc
 50
180.0
 51
211.3997148099
  0
ARC
  5
3A3
330
1F
100
AcDbEntity
  8
0
  6
Continuous
 62
     7
370
    25
100
AcDbCircle
 10
-25.59
 20
-32.4118381608
 30
0.0
 40
0.7499999999999858
100
AcDbArc
 50
148.6002851901
 51
180.0
  0
ARC
  5
3A4
330
1F
100
AcDbEntity
  8
0
  6
Continuous
 62
     7
370
    25
100
AcDbCircle
 10
-26.8703300859
 20
-31.6303300859
 30
0.0
 40
0.7499999999999963
100
AcDbArc
 50
328.6002851901
 51
121.3997148099
  0
ARC
  5
3A5
330
1F
100
AcDbEntity
  8
0
  6
Continuous
 62
     7
370
    25
100
AcDbCircle
 10
-27.6518381608
 20
-30.35
 30
0.0
 40
0.7499999999997589
100
AcDbArc
 50
270.0
 51
301.3997148099
  0
ARC
  5
3A6
330
1F
100
AcDbEntity
  8
0
  6
Continuous
 62
     7
370
    25
100
AcDbCircle
 10
-39.0281618392
 20
-30.35
 30
0.0
 40
0.7499999999997594
100
AcDbArc
 50
238.6002851901
 51
270.0
  0
ARC
  5
3A7
330
1F
100
AcDbEntity
  8
0
  6
Continuous
 62
     7
370
    25
100
AcDbCircle
 10
-1.7096699141
 20
31.6303300859
 30
0.0
 40
0.750000000000004
100
AcDbArc
 50
148.6002851901
 51
301.3997148099
  0
ARC
  5
3A8
330
1F
100
AcDbEntity
  8
0
  6
Continuous
 62
     7
370
    25
100
AcDbCircle
 10
-0.9281618392
 20
30.35
 30
0.0
 40
0.7499999999997264
100
AcDbArc
 50
90.0
 51
121.3997148099
  0
ARC
  5
3A9
330
1F
100
AcDbEntity
  8
0
  6
Continuous
 62
     7
370
    25
100
AcDbCircle
 10
10.4481618392
 20
30.35
 30
0.0
 40
0.749999999999936
100
AcDbArc
 50
58.6002851901
 51
90.0
  0
ARC
  5
3AA
330
1F
100
AcDbEntity
  8
0
  6
Continuous
 62
     7
370
    25
100
AcDbCircle
 10
11.2296699141
 20
31.6303300859
 30
0.0
 40
0.7500000000000031
100
AcDbArc
 50
238.6002851901
 51
31.3997148099
  0
ARC
  5
3AB
330
1F
100
AcDbEntity
  8
0
  6
Continuous
 62
     7
370
    25
100
AcDbCircle
 10
12.51
 20
32.4118381608
 30
0.0
 40
0.7499999999997495
100
AcDbArc
 50
180.0
 51
211.3997148099
  0
ARC
  5
3AC
330
1F
100
AcDbEntity
  8
0
  6
Continuous
 62
     7
370
    25
100
AcDbCircle
 10
12.51
 20
43.7881618392
 30
0.0
 40
0.7499999999999822
100
AcDbArc
 50
148.6002851901
 51
180.0
  0
ARC
  5
3AD
330
1F
100
AcDbEntity
  8
0
  6
Continuous
 62
     7
370
    25
100
AcDbCircle
 10
11.2296699141
 20
44.5696699141
 30
0.0
 40
0.7499999999999937
100
AcDbArc
 50
328.6002851901
 51
121.3997148099
  0
ARC
  5
3AE
330
1F
100
AcDbEntity
  8
0
  6
Continuous
 62
     7
370
    25
100
AcDbCircle
 10
10.4481618392
 20
45.85
 30
0.0
 40
0.7499999999997513
100
AcDbArc
 50
270.0
 51
301.3997148099
  0
ARC
  5
3AF
330
1F
100
AcDbEntity
  8
0
  6
Continuous
 62
     7
370
    25
100
AcDbCircle
 10
-0.9281618392
 20
45.85
 30
0.0
 40
0.7499999999997248
100
AcDbArc
 50
238.6002851901
 51
270.0
  0
ARC
  5
3B0
330
1F
100
AcDbEntity
  8
0
  6
Continuous
 62
     7
370
    25
100
AcDbCircle
 10
-1.7096699141
 20
44.5696699141
 30
0.0
 40
0.7500000000000019
100
AcDbArc
 50
58.6002851901
 51
211.3997148099
  0
ARC
  5
3B1
330
1F
100
AcDbEntity
  8
0
  6
Continuous
 62
     7
370
    25
100
AcDbCircle
 10
-2.99
 20
43.7881618392
 30
0.0
 40
0.7499999999997335
100
AcDbArc
 50
360.0
 51
31.3997148099
  0
ARC
  5
3B2
330
1F
100
AcDbEntity
  8
0
  6
Continuous
 62
     7
370
    25
100
AcDbCircle
 10
-2.99
 20
32.4118381608
 30
0.0
 40
0.7499999999997692
100
AcDbArc
 50
328.6002851901
 51
0.0
  0
ARC
  5
3B3
330
1F
100
AcDbEntity
  8
0
  6
Continuous
 62
     7
370
    25
100
AcDbCircle
 10
-20.7596699141
 20
-6.4696699141
 30
0.0
 40
0.7500000000000073
100
AcDbArc
 50
148.6002851901
 51
301.3997148099
  0
ARC
  5
3B4
330
1F
100
AcDbEntity
  8
0
  6
Continuous
 62
     7
370
    25
100
AcDbCircle
 10
-19.9781618392
 20
-7.75
 30
0.0
 40
0.7499999999997631
100
AcDbArc
 50
90.0
 51
121.3997148099
  0
ARC
  5
3B5
330
1F
100
AcDbEntity
  8
0
  6
Continuous
 62
     7
370
    25
100
AcDbCircle
 10
-8.6018381608
 20
-7.75
 30
0.0
 40
0.749999999999977
100
AcDbArc
 50
58.6002851901
 51
90.0
  0
ARC
  5
3B6
330
1F
100
AcDbEntity
  8
0
  6
Continuous
 62
     7
370
    25
100
AcDbCircle
 10
-7.8203300859
 20
-6.4696699141
 30
0.0
 40
0.7500000000000008
100
AcDbArc
 50
238.6002851901
 51
31.3997148099
  0
ARC
  5
3B7
330
1F
100
AcDbEntity
  8
0
  6
Continuous
 62
     7
370
    25
100
AcDbCircle
 10
-6.54
 20
-5.6881618392
 30
0.0
 40
0.749999999999781
100
AcDbArc
 50
180.0
 51
211.3997148099
  0
ARC
  5
3B8
330
1F
100
AcDbEntity
  8
0
  6
Continuous
 62
     7
370
    25
100
AcDbCircle
 10
-6.54
 20
5.6881618392
 30
0.0
 40
0.7499999999999654
100
AcDbArc
 50
148.6002851901
 51
180.0
  0
ARC
  5
3B9
330
1F
100
AcDbEntity
  8
0
  6
Continuous
 62
     7
370
    25
100
AcDbCircle
 10
-7.8203300859
 20
6.4696699141
 30
0.0
 40
0.7499999999999893
100
AcDbArc
 50
328.6002851901
 51
121.3997148099
  0
ARC
  5
3BA
330
1F
100
AcDbEntity
  8
0
  6
Continuous
 62
     7
370
    25
100
AcDbCircle
 10
-8.6018381608
 20
7.75
 30
0.0
 40
0.7499999999997948
100
AcDbArc
 50
270.0
 51
301.3997148099
  0
ARC
  5
3BB
330
1F
100
AcDbEntity
  8
0
  6
Continuous
 62
     7
370
    25
100
AcDbCircle
 10
-19.9781618392
 20
7.75
 30
0.0
 40
0.7499999999997744
100
AcDbArc
 50
238.6002851901
 51
270.0
  0
ARC
  5
3BC
330
1F
100
AcDbEntity
  8
0
  6
Continuous
 62
     7
370
    25
100
AcDbCircle
 10
-20.7596699141
 20
6.4696699141
 30
0.0
 40
0.7500000000000037
100
AcDbArc
 50
58.6002851901
 51
211.3997148099
  0
ARC
  5
3BD
330
1F
100
AcDbEntity
  8
0
  6
Continuous
 62
     7
370
    25
100
AcDbCircle
 10
-22.04
 20
5.6881618392
 30
0.0
 40
0.7499999999997762
100
AcDbArc
 50
360.0
 51
31.3997148099
  0
ARC
  5
3BE
330
1F
100
AcDbEntity
  8
0
  6
Continuous
 62
     7
370
    25
100
AcDbCircle
 10
-22.04
 20
-5.6881618392
 30
0.0
 40
0.7499999999998093
100
AcDbArc
 50
328.6002851901
 51
0.0
  0
ARC
  5
3BF
330
1F
100
AcDbEntity
  8
0
  6
Continuous
 62
     7
370
    25
100
AcDbCircle
 10
-20.7596699141
 20
-25.5196699141
 30
0.0
 40
0.7500000000000072
100
AcDbArc
 50
148.6002851901
 51
301.3997148099
  0
ARC
  5
3C0
330
1F
100
AcDbEntity
  8
0
  6
Continuous
 62
     7
370
    25
100
AcDbCircle
 10
-19.9781618392
 20
-26.8
 30
0.0
 40
0.7499999999997478
100
AcDbArc
 50
90.0
 51
121.3997148099
  0
ARC
  5
3C1
330
1F
100
AcDbEntity
  8
0
  6
Continuous
 62
     7
370
    25
100
AcDbCircle
 10
-8.6018381608
 20
-26.8
 30
0.0
 40
0.7499999999999858
100
AcDbArc
 50
58.6002851901
 51
90.0
  0
ARC
  5
3C2
330
1F
100
AcDbEntity
  8
0
  6
Continuous
 62
     7
370
    25
100
AcDbCircle
 10
-7.8203300859
 20
-25.5196699141
 30
0.0
 40
0.7500000000000036
100
AcDbArc
 50
238.6002851901
 51
31.3997148099
  0
ARC
  5
3C3
330
1F
100
AcDbEntity
  8
0
  6
Continuous
 62
     7
370
    25
100
AcDbCircle
 10
-6.54
 20
-24.7381618392
 30
0.0
 40
0.7499999999997664
100
AcDbArc
 50
180.0
 51
211.3997148099
  0
ARC
  5
3C4
330
1F
100
AcDbEntity
  8
0
  6
Continuous
 62
     7
370
    25
100
AcDbCircle
 10
-6.54
 20
-13.3618381608
 30
0.0
 40
0.7499999999999737
100
AcDbArc
 50
148.6002851901
 51
180.0
  0
ARC
  5
3C5
330
1F
100
AcDbEntity
  8
0
  6
Continuous
 62
     7
370
    25
100
AcDbCircle
 10
-7.8203300859
 20
-12.5803300859
 30
0.0
 40
0.7499999999999886
100
AcDbArc
 50
328.6002851901
 51
121.3997148099
  0
ARC
  5
3C6
330
1F
100
AcDbEntity
  8
0
  6
Continuous
 62
     7
370
    25
100
AcDbCircle
 10
-8.6018381608
 20
-11.3
 30
0.0
 40
0.7499999999998312
100
AcDbArc
 50
270.0
 51
301.3997148099
  0
ARC
  5
3C7
330
1F
100
AcDbEntity
  8
0
  6
Continuous
 62
     7
370
    25
100
AcDbCircle
 10
-19.9781618392
 20
-11.3
 30
0.0
 40
0.7499999999997993
100
AcDbArc
 50
238.6002851901
 51
270.0
  0
ARC
  5
3C8
330
1F
100
AcDbEntity
  8
0
  6
Continuous
 62
     7
370
    25
100
AcDbCircle
 10
-20.7596699141
 20
-12.5803300859
 30
0.0
 40
0.7499999999999988
100
AcDbArc
 50
58.6002851901
 51
211.3997148099
  0
ARC
  5
3C9
330
1F
100
AcDbEntity
  8
0
  6
Continuous
 62
     7
370
    25
100
AcDbCircle
 10
-22.04
 20
-13.3618381608
 30
0.0
 40
0.7499999999998237
100
AcDbArc
 50
360.0
 51
31.3997148099
  0
ARC
  5
3CA
330
1F
100
AcDbEntity
  8
0
  6
Continuous
 62
     7
370
    25
100
AcDbCircle
 10
-22.04
 20
-24.7381618392
 30
0.0
 40
0.7499999999998591
100
AcDbArc
 50
328.6002851901
 51
0.0
  0
ARC
  5
3CB
330
1F
100
AcDbEntity
  8
0
  6
Continuous
 62
     7
370
    25
100
AcDbCircle
 10
-20.7596699141
 20
-31.6303300859
 30
0.0
 40
0.7500000000000081
100
AcDbArc
 50
58.6002851901
 51
211.3997148099
  0
ARC
  5
3CC
330
1F
100
AcDbEntity
  8
0
  6
Continuous
 62
     7
370
    25
100
AcDbCircle
 10
-22.04
 20
-32.4118381608
 30
0.0
 40
0.7499999999997051
100
AcDbArc
 50
360.0
 51
31.3997148099
  0
ARC
  5
3CD
330
1F
100
AcDbEntity
  8
0
  6
Continuous
 62
     7
370
    25
100
AcDbCircle
 10
-22.04
 20
-43.7881618392
 30
0.0
 40
0.7499999999998093
100
AcDbArc
 50
328.6002851901
 51
0.0
  0
ARC
  5
3CE
330
1F
100
AcDbEntity
  8
0
  6
Continuous
 62
     7
370
    25
100
AcDbCircle
 10
-20.7596699141
 20
-44.5696699141
 30
0.0
 40
0.7500000000000053
100
AcDbArc
 50
148.6002851901
 51
301.3997148099
  0
ARC
  5
3CF
330
1F
100
AcDbEntity
  8
0
  6
Continuous
 62
     7
370
    25
100
AcDbCircle
 10
-19.9781618392
 20
-45.85
 30
0.0
 40
0.7499999999998227
100
AcDbArc
 50
90.0
 51
121.3997148099
  0
ARC
  5
3D0
330
1F
100
AcDbEntity
  8
0
  6
Continuous
 62
     7
370
    25
100
AcDbCircle
 10
-8.6018381608
 20
-45.85
 30
0.0
 40
0.7499999999998508
100
AcDbArc
 50
58.6002851901
 51
90.0
  0
ARC
  5
3D1
330
1F
100
AcDbEntity
  8
0
  6
Continuous
 62
     7
370
    25
100
AcDbCircle
 10
-7.8203300859
 20
-44.5696699141
 30
0.0
 40
0.7500000000000017
100
AcDbArc
 50
238.6002851901
 51
31.3997148099
  0
ARC
  5
3D2
330
1F
100
AcDbEntity
  8
0
  6
Continuous
 62
     7
370
    25
100
AcDbCircle
 10
-6.54
 20
-43.7881618392
 30
0.0
 40
0.7499999999997842
100
AcDbArc
 50
180.0
 51
211.3997148099
  0
ARC
  5
3D3
330
1F
100
AcDbEntity
  8
0
  6
Continuous
 62
     7
370
    25
100
AcDbCircle
 10
-6.54
 20
-32.4118381608
 30
0.0
 40
0.7499999999999999
100
AcDbArc
 50
148.6002851901
 51
180.0
  0
ARC
  5
3D4
330
1F
100
AcDbEntity
  8
0
  6
Continuous
 62
     7
370
    25
100
AcDbCircle
 10
-7.8203300859
 20
-31.6303300859
 30
0.0
 40
0.7499999999999934
100
AcDbArc
 50
328.6002851901
 51
121.3997148099
  0
ARC
  5
3D5
330
1F
100
AcDbEntity
  8
0
  6
Continuous
 62
     7
370
    25
100
AcDbCircle
 10
-8.6018381608
 20
-30.35
 30
0.0
 40
0.7499999999997584
100
AcDbArc
 50
270.0
 51
301.3997148099
  0
ARC
  5
3D6
330
1F
100
AcDbEntity
  8
0
  6
Continuous
 62
     7
370
    25
100
AcDbCircle
 10
-19.9781618392
 20
-30.35
 30
0.0
 40
0.7499999999997174
100
AcDbArc
 50
238.6002851901
 51
270.0
  0
ARC
  5
3D7
330
1F
100
AcDbEntity
  8
0
  6
Continuous
 62
     7
370
    25
100
AcDbCircle
 10
-63.6196699141
 20
-6.4696699141
 30
0.0
 40
0.7500000000000137
100
AcDbArc
 50
148.6002851901
 51
301.3997148099
  0
ARC
  5
3D8
330
1F
100
AcDbEntity
  8
0
  6
Continuous
 62
     7
370
    25
100
AcDbCircle
 10
-62.8381618392
 20
-7.75
 30
0.0
 40
0.7499999999996918
100
AcDbArc
 50
90.0
 51
121.3997148099
  0
ARC
  5
3D9
330
1F
100
AcDbEntity
  8
0
  6
Continuous
 62
     7
370
    25
100
AcDbCircle
 10
-51.4618381608
 20
-7.75
 30
0.0
 40
0.7499999999999689
100
AcDbArc
 50
58.6002851901
 51
90.0
  0
ARC
  5
3DA
330
1F
100
AcDbEntity
  8
0
  6
Continuous
 62
     7
370
    25
100
AcDbCircle
 10
-50.6803300859
 20
-6.4696699141
 30
0.0
 40
0.7500000000000026
100
AcDbArc
 50
238.6002851901
 51
31.3997148099
  0
ARC
  5
3DB
330
1F
100
AcDbEntity
  8
0
  6
Continuous
 62
     7
370
    25
100
AcDbCircle
 10
-49.4
 20
-5.6881618392
 30
0.0
 40
0.7499999999998721
100
AcDbArc
 50
180.0
 51
211.3997148099
  0
ARC
  5
3DC
330
1F
100
AcDbEntity
  8
0
  6
Continuous
 62
     7
370
    25
100
AcDbCircle
 10
-49.4
 20
5.6881618392
 30
0.0
 40
0.750000000000064
100
AcDbArc
 50
148.6002851901
 51
180.0
  0
ARC
  5
3DD
330
1F
100
AcDbEntity
  8
0
  6
Continuous
 62
     7
370
    25
100
AcDbCircle
 10
-50.6803300859
 20
6.4696699141
 30
0.0
 40
0.7499999999999917
100
AcDbArc
 50
328.6002851901
 51
121.3997148099
  0
ARC
  5
3DE
330
1F
100
AcDbEntity
  8
0
  6
Continuous
 62
     7
370
    25
100
AcDbCircle
 10
-51.4618381608
 20
7.75
 30
0.0
 40
0.7499999999998259
100
AcDbArc
 50
270.0
 51
301.3997148099
  0
ARC
  5
3DF
330
1F
100
AcDbEntity
  8
0
  6
Continuous
 62
     7
370
    25
100
AcDbCircle
 10
-62.8381618392
 20
7.75
 30
0.0
 40
0.7499999999998214
100
AcDbArc
 50
238.6002851901
 51
270.0
  0
ARC
  5
3E0
330
1F
100
AcDbEntity
  8
0
  6
Continuous
 62
     7
370
    25
100
AcDbCircle
 10
-63.6196699141
 20
6.4696699141
 30
0.0
 40
0.750000000000017
100
AcDbArc
 50
58.6002851901
 51
211.3997148099
  0
ARC
  5
3E1
330
1F
100
AcDbEntity
  8
0
  6
Continuous
 62
     7
370
    25
100
AcDbCircle
 10
-64.9
 20
5.6881618392
 30
0.0
 40
0.74999999999966
100
AcDbArc
 50
360.0
 51
31.3997148099
  0
ARC
  5
3E2
330
1F
100
AcDbEntity
  8
0
  6
Continuous
 62
     7
370
    25
100
AcDbCircle
 10
-64.9
 20
-5.6881618392
 30
0.0
 40
0.7499999999997217
100
AcDbArc
 50
328.6002851901
 51
0.0
  0
ARC
  5
3E3
330
1F
100
AcDbEntity
  8
0
  6
Continuous
 62
     7
370
    25
100
AcDbCircle
 10
-39.8096699141
 20
44.5696699141
 30
0.0
 40
0.7500000000000137
100
AcDbArc
 50
58.6002851901
 51
211.3997148099
  0
ARC
  5
3E4
330
1F
100
AcDbEntity
  8
0
  6
Continuous
 62
     7
370
    25
100
AcDbCircle
 10
-41.09
 20
43.7881618392
 30
0.0
 40
0.7499999999997229
100
AcDbArc
 50
360.0
 51
31.3997148099
  0
ARC
  5
3E5
330
1F
100
AcDbEntity
  8
0
  6
Continuous
 62
     7
370
    25
100
AcDbCircle
 10
-41.09
 20
32.4118381608
 30
0.0
 40
0.7499999999997132
100
AcDbArc
 50
328.6002851901
 51
0.0
  0
ARC
  5
3E6
330
1F
100
AcDbEntity
  8
0
  6
Continuous
 62
     7
370
    25
100
AcDbCircle
 10
-39.8096699141
 20
31.6303300859
 30
0.0
 40
0.7500000000000155
100
AcDbArc
 50
148.6002851901
 51
301.3997148099
  0
ARC
  5
3E7
330
1F
100
AcDbEntity
  8
0
  6
Continuous
 62
     7
370
    25
100
AcDbCircle
 10
-39.0281618392
 20
30.35
 30
0.0
 40
0.7499999999997442
100
AcDbArc
 50
90.0
 51
121.3997148099
  0
ARC
  5
3E8
330
1F
100
AcDbEntity
  8
0
  6
Continuous
 62
     7
370
    25
100
AcDbCircle
 10
-27.6518381608
 20
30.35
 30
0.0
 40
0.7499999999999397
100
AcDbArc
 50
58.6002851901
 51
90.0
  0
ARC
  5
3E9
330
1F
100
AcDbEntity
  8
0
  6
Continuous
 62
     7
370
    25
100
AcDbCircle
 10
-26.8703300859
 20
31.6303300859
 30
0.0
 40
0.7500000000000033
100
AcDbArc
 50
238.6002851901
 51
31.3997148099
  0
ARC
  5
3EA
330
1F
100
AcDbEntity
  8
0
  6
Continuous
 62
     7
370
    25
100
AcDbCircle
 10
-25.59
 20
32.4118381608
 30
0.0
 40
0.7499999999997904
100
AcDbArc
 50
180.0
 51
211.3997148099
  0
ARC
  5
3EB
330
1F
100
AcDbEntity
  8
0
  6
Continuous
 62
     7
370
    25
100
AcDbCircle
 10
-25.59
 20
43.7881618392
 30
0.0
 40
0.7500000000000558
100
AcDbArc
 50
148.6002851901
 51
180.0
  0
ARC
  5
3EC
330
1F
100
AcDbEntity
  8
0
  6
Continuous
 62
     7
370
    25
100
AcDbCircle
 10
-26.8703300859
 20
44.5696699141
 30
0.0
 40
0.7499999999999976
100
AcDbArc
 50
328.6002851901
 51
121.3997148099
  0
ARC
  5
3ED
330
1F
100
AcDbEntity
  8
0
  6
Continuous
 62
     7
370
    25
100
AcDbCircle
 10
-27.6518381608
 20
45.85
 30
0.0
 40
0.7499999999997371
100
AcDbArc
 50
270.0
 51
301.3997148099
  0
ARC
  5
3EE
330
1F
100
AcDbEntity
  8
0
  6
Continuous
 62
     7
370
    25
100
AcDbCircle
 10
-39.0281618392
 20
45.85
 30
0.0
 40
0.7499999999997352
100
AcDbArc
 50
238.6002851901
 51
270.0
  0
ARC
  5
3EF
330
1F
100
AcDbEntity
  8
0
  6
Continuous
 62
     7
370
    25
100
AcDbCircle
 10
-50.6803300859
 20
25.5196699141
 30
0.0
 40
0.7499999999999921
100
AcDbArc
 50
328.6002851901
 51
121.3997148099
  0
ARC
  5
3F0
330
1F
100
AcDbEntity
  8
0
  6
Continuous
 62
     7
370
    25
100
AcDbCircle
 10
-51.4618381608
 20
26.8
 30
0.0
 40
0.749999999999801
100
AcDbArc
 50
270.0
 51
301.3997148099
  0
ARC
  5
3F1
330
1F
100
AcDbEntity
  8
0
  6
Continuous
 62
     7
370
    25
100
AcDbCircle
 10
-62.8381618392
 20
26.8
 30
0.0
 40
0.7499999999997762
100
AcDbArc
 50
238.6002851901
 51
270.0
  0
ARC
  5
3F2
330
1F
100
AcDbEntity
  8
0
  6
Continuous
 62
     7
370
    25
100
AcDbCircle
 10
-63.6196699141
 20
25.5196699141
 30
0.0
 40
0.75000000000001
100
AcDbArc
 50
58.6002851901
 51
211.3997148099
  0
ARC
  5
3F3
330
1F
100
AcDbEntity
  8
0
  6
Continuous
 62
     7
370
    25
100
AcDbCircle
 10
-64.9
 20
24.7381618392
 30
0.0
 40
0.7499999999998863
100
AcDbArc
 50
360.0
 51
31.3997148099
  0
ARC
  5
3F4
330
1F
100
AcDbEntity
  8
0
  6
Continuous
 62
     7
370
    25
100
AcDbCircle
 10
-64.9
 20
13.3618381608
 30
0.0
 40
0.7499999999999005
100
AcDbArc
 50
328.6002851901
 51
0.0
  0
ARC
  5
3F5
330
1F
100
AcDbEntity
  8
0
  6
Continuous
 62
     7
370
    25
100
AcDbCircle
 10
-63.6196699141
 20
12.5803300859
 30
0.0
 40
0.7500000000000054
100
AcDbArc
 50
148.6002851901
 51
301.3997148099
  0
ARC
  5
3F6
330
1F
100
AcDbEntity
  8
0
  6
Continuous
 62
     7
370
    25
100
AcDbCircle
 10
-62.8381618392
 20
11.3
 30
0.0
 40
0.7499999999996927
100
AcDbArc
 50
90.0
 51
121.3997148099
  0
ARC
  5
3F7
330
1F
100
AcDbEntity
  8
0
  6
Continuous
 62
     7
370
    25
100
AcDbCircle
 10
-51.4618381608
 20
11.3
 30
0.0
 40
0.7500000000000134
100
AcDbArc
 50
58.6002851901
 51
90.0
  0
ARC
  5
3F8
330
1F
100
AcDbEntity
  8
0
  6
Continuous
 62
     7
370
    25
100
AcDbCircle
 10
-50.6803300859
 20
12.5803300859
 30
0.0
 40
0.7500000000000059
100
AcDbArc
 50
238.6002851901
 51
31.3997148099
  0
ARC
  5
3F9
330
1F
100
AcDbEntity
  8
0
  6
Continuous
 62
     7
370
    25
100
AcDbCircle
 10
-49.4
 20
13.3618381608
 30
0.0
 40
0.74999999999973
100
AcDbArc
 50
180.0
 51
211.3997148099
  0
ARC
  5
3FA
330
1F
100
AcDbEntity
  8
0
  6
Continuous
 62
     7
370
    25
100
AcDbCircle
 10
-49.4
 20
24.7381618392
 30
0.0
 40
0.7499999999999021
100
AcDbArc
 50
148.6002851901
 51
180.0
  0
ARC
  5
3FB
330
1F
100
AcDbEntity
  8
0
  6
Continuous
 62
     7
370
    25
100
AcDbCircle
 10
-39.8096699141
 20
12.5803300859
 30
0.0
 40
0.750000000000007
100
AcDbArc
 50
148.6002851901
 51
301.3997148099
  0
ARC
  5
3FC
330
1F
100
AcDbEntity
  8
0
  6
Continuous
 62
     7
370
    25
100
AcDbCircle
 10
-39.0281618392
 20
11.3
 30
0.0
 40
0.7499999999998437
100
AcDbArc
 50
90.0
 51
121.3997148099
  0
ARC
  5
3FD
330
1F
100
AcDbEntity
  8
0
  6
Continuous
 62
     7
370
    25
100
AcDbCircle
 10
-27.6518381608
 20
11.3
 30
0.0
 40
0.7499999999999893
100
AcDbArc
 50
58.6002851901
 51
90.0
  0
ARC
  5
3FE
330
1F
100
AcDbEntity
  8
0
  6
Continuous
 62
     7
370
    25
100
AcDbCircle
 10
-26.8703300859
 20
12.5803300859
 30
0.0
 40
0.7500000000000043
100
AcDbArc
 50
238.6002851901
 51
31.3997148099
  0
ARC
  5
3FF
330
1F
100
AcDbEntity
  8
0
  6
Continuous
 62
     7
370
    25
100
AcDbCircle
 10
-25.59
 20
13.3618381608
 30
0.0
 40
0.7499999999997525
100
AcDbArc
 50
180.0
 51
211.3997148099
  0
ARC
  5
400
330
1F
100
AcDbEntity
  8
0
  6
Continuous
 62
     7
370
    25
100
AcDbCircle
 10
-25.59
 20
24.7381618392
 30
0.0
 40
0.749999999999947
100
AcDbArc
 50
148.6002851901
 51
180.0
  0
ARC
  5
401
330
1F
100
AcDbEntity
  8
0
  6
Continuous
 62
     7
370
    25
100
AcDbCircle
 10
-26.8703300859
 20
25.5196699141
 30
0.0
 40
0.7499999999999933
100
AcDbArc
 50
328.6002851901
 51
121.3997148099
  0
ARC
  5
402
330
1F
100
AcDbEntity
  8
0
  6
Continuous
 62
     7
370
    25
100
AcDbCircle
 10
-27.6518381608
 20
26.8
 30
0.0
 40
0.7499999999998069
100
AcDbArc
 50
270.0
 51
301.3997148099
  0
ARC
  5
403
330
1F
100
AcDbEntity
  8
0
  6
Continuous
 62
     7
370
    25
100
AcDbCircle
 10
-39.0281618392
 20
26.8
 30
0.0
 40
0.7499999999998032
100
AcDbArc
 50
238.6002851901
 51
270.0
  0
ARC
  5
404
330
1F
100
AcDbEntity
  8
0
  6
Continuous
 62
     7
370
    25
100
AcDbCircle
 10
-39.8096699141
 20
25.5196699141
 30
0.0
 40
0.7500000000000003
100
AcDbArc
 50
58.6002851901
 51
211.3997148099
  0
ARC
  5
405
330
1F
100
AcDbEntity
  8
0
  6
Continuous
 62
     7
370
    25
100
AcDbCircle
 10
-41.09
 20
24.7381618392
 30
0.0
 40
0.7499999999999084
100
AcDbArc
 50
0.0
 51
31.3997148099
  0
ARC
  5
406
330
1F
100
AcDbEntity
  8
0
  6
Continuous
 62
     7
370
    25
100
AcDbCircle
 10
-41.09
 20
13.3618381608
 30
0.0
 40
0.74999999999986
100
AcDbArc
 50
328.6002851901
 51
0.0
  0
ARC
  5
407
330
1F
100
AcDbEntity
  8
0
  6
Continuous
 62
     7
370
    25
100
AcDbCircle
 10
-39.8096699141
 20
6.4696699141
 30
0.0
 40
0.7499999999999994
100
AcDbArc
 50
58.6002851901
 51
211.3997148099
  0
ARC
  5
408
330
1F
100
AcDbEntity
  8
0
  6
Continuous
 62
     7
370
    25
100
AcDbCircle
 10
-41.09
 20
5.6881618392
 30
0.0
 40
0.7499999999997514
100
AcDbArc
 50
360.0
 51
31.3997148099
  0
ARC
  5
409
330
1F
100
AcDbEntity
  8
0
  6
Continuous
 62
     7
370
    25
100
AcDbCircle
 10
-41.09
 20
-5.6881618392
 30
0.0
 40
0.7499999999997234
100
AcDbArc
 50
328.6002851901
 51
0.0
  0
ARC
  5
40A
330
1F
100
AcDbEntity
  8
0
  6
Continuous
 62
     7
370
    25
100
AcDbCircle
 10
-39.8096699141
 20
-6.4696699141
 30
0.0
 40
0.7500000000000053
100
AcDbArc
 50
148.6002851901
 51
301.3997148099
  0
ARC
  5
40B
330
1F
100
AcDbEntity
  8
0
  6
Continuous
 62
     7
370
    25
100
AcDbCircle
 10
-39.0281618392
 20
-7.75
 30
0.0
 40
0.7499999999998296
100
AcDbArc
 50
90.0
 51
121.3997148099
  0
ARC
  5
40C
330
1F
100
AcDbEntity
  8
0
  6
Continuous
 62
     7
370
    25
100
AcDbCircle
 10
-27.6518381608
 20
-7.75
 30
0.0
 40
0.7499999999999689
100
AcDbArc
 50
58.6002851901
 51
90.0
  0
ARC
  5
40D
330
1F
100
AcDbEntity
  8
0
  6
Continuous
 62
     7
370
    25
100
AcDbCircle
 10
-26.8703300859
 20
-6.4696699141
 30
0.0
 40
0.7500000000000043
100
AcDbArc
 50
238.6002851901
 51
31.3997148099
  0
ARC
  5
40E
330
1F
100
AcDbEntity
  8
0
  6
Continuous
 62
     7
370
    25
100
AcDbCircle
 10
-25.59
 20
-5.6881618392
 30
0.0
 40
0.7499999999996887
100
AcDbArc
 50
180.0
 51
211.3997148099
  0
ARC
  5
40F
330
1F
100
AcDbEntity
  8
0
  6
Continuous
 62
     7
370
    25
100
AcDbCircle
 10
-25.59
 20
5.6881618392
 30
0.0
 40
0.7499999999999254
100
AcDbArc
 50
148.6002851901
 51
180.0
  0
ARC
  5
410
330
1F
100
AcDbEntity
  8
0
  6
Continuous
 62
     7
370
    25
100
AcDbCircle
 10
-26.8703300859
 20
6.4696699141
 30
0.0
 40
0.7499999999999919
100
AcDbArc
 50
328.6002851901
 51
121.3997148099
  0
ARC
  5
411
330
1F
100
AcDbEntity
  8
0
  6
Continuous
 62
     7
370
    25
100
AcDbCircle
 10
-27.6518381608
 20
7.75
 30
0.0
 40
0.749999999999805
100
AcDbArc
 50
270.0
 51
301.3997148099
  0
ARC
  5
412
330
1F
100
AcDbEntity
  8
0
  6
Continuous
 62
     7
370
    25
100
AcDbCircle
 10
-39.0281618392
 20
7.75
 30
0.0
 40
0.7499999999998243
100
AcDbArc
 50
238.6002851901
 51
270.0
  0
ARC
  5
413
330
1F
100
AcDbEntity
  8
0
  6
Continuous
 62
     7
370
    25
100
AcDbCircle
 10
-63.6196699141
 20
-25.5196699141
 30
0.0
 40
0.7500000000000114
100
AcDbArc
 50
148.6002851901
 51
301.3997148099
  0
ARC
  5
414
330
1F
100
AcDbEntity
  8
0
  6
Continuous
 62
     7
370
    25
100
AcDbCircle
 10
-62.8381618392
 20
-26.8
 30
0.0
 40
0.7499999999997726
100
AcDbArc
 50
90.0
 51
121.3997148099
  0
ARC
  5
415
330
1F
100
AcDbEntity
  8
0
  6
Continuous
 62
     7
370
    25
100
AcDbCircle
 10
-51.4618381608
 20
-26.8
 30
0.0
 40
0.7499999999999396
100
AcDbArc
 50
58.6002851901
 51
90.0
  0
ARC
  5
416
330
1F
100
AcDbEntity
  8
0
  6
Continuous
 62
     7
370
    25
100
AcDbCircle
 10
-50.6803300859
 20
-25.5196699141
 30
0.0
 40
0.7500000000000073
100
AcDbArc
 50
238.6002851901
 51
31.3997148099
  0
ARC
  5
417
330
1F
100
AcDbEntity
  8
0
  6
Continuous
 62
     7
370
    25
100
AcDbCircle
 10
-49.4
 20
-24.7381618392
 30
0.0
 40
0.74999999999973
100
AcDbArc
 50
180.0
 51
211.3997148099
  0
ARC
  5
418
330
1F
100
AcDbEntity
  8
0
  6
Continuous
 62
     7
370
    25
100
AcDbCircle
 10
-49.4
 20
-13.3618381608
 30
0.0
 40
0.7499999999999218
100
AcDbArc
 50
148.6002851901
 51
180.0
  0
ARC
  5
419
330
1F
100
AcDbEntity
  8
0
  6
Continuous
 62
     7
370
    25
100
AcDbCircle
 10
-50.6803300859
 20
-12.5803300859
 30
0.0
 40
0.7500000000000023
100
AcDbArc
 50
328.6002851901
 51
121.3997148099
  0
ARC
  5
41A
330
1F
100
AcDbEntity
  8
0
  6
Continuous
 62
     7
370
    25
100
AcDbCircle
 10
-51.4618381608
 20
-11.3
 30
0.0
 40
0.7499999999998384
100
AcDbArc
 50
270.0
 51
301.3997148099
  0
ARC
  5
41B
330
1F
100
AcDbEntity
  8
0
  6
Continuous
 62
     7
370
    25
100
AcDbCircle
 10
-62.8381618392
 20
-11.3
 30
0.0
 40
0.7499999999998425
100
AcDbArc
 50
238.6002851901
 51
270.0
  0
ARC
  5
41C
330
1F
100
AcDbEntity
  8
0
  6
Continuous
 62
     7
370
    25
100
AcDbCircle
 10
-63.6196699141
 20
-12.5803300859
 30
0.0
 40
0.7500000000000068
100
AcDbArc
 50
58.6002851901
 51
211.3997148099
  0
ARC
  5
41D
330
1F
100
AcDbEntity
  8
0
  6
Continuous
 62
     7
370
    25
100
AcDbCircle
 10
-64.9
 20
-13.3618381608
 30
0.0
 40
0.7499999999997157
100
AcDbArc
 50
360.0
 51
31.3997148099
  0
ARC
  5
41E
330
1F
100
AcDbEntity
  8
0
  6
Continuous
 62
     7
370
    25
100
AcDbCircle
 10
-64.9
 20
-24.7381618392
 30
0.0
 40
0.74999999999973
100
AcDbArc
 50
328.6002851901
 51
0.0
  0
ARC
  5
41F
330
1F
100
AcDbEntity
  8
0
  6
Continuous
 62
     7
370
    25
100
AcDbCircle
 10
-20.7596699141
 20
44.5696699141
 30
0.0
 40
0.7500000000000003
100
AcDbArc
 50
58.6002851901
 51
211.3997148099
  0
ARC
  5
420
330
1F
100
AcDbEntity
  8
0
  6
Continuous
 62
     7
370
    25
100
AcDbCircle
 10
-22.04
 20
43.7881618392
 30
0.0
 40
0.7499999999997868
100
AcDbArc
 50
360.0
 51
31.3997148099
  0
ARC
  5
421
330
1F
100
AcDbEntity
  8
0
  6
Continuous
 62
     7
370
    25
100
AcDbCircle
 10
-22.04
 20
32.4118381608
 30
0.0
 40
0.7499999999998659
100
AcDbArc
 50
328.6002851901
 51
0.0
  0
ARC
  5
422
330
1F
100
AcDbEntity
  8
0
  6
Continuous
 62
     7
370
    25
100
AcDbCircle
 10
-20.7596699141
 20
31.6303300859
 30
0.0
 40
0.7500000000000052
100
AcDbArc
 50
148.6002851901
 51
301.3997148099
  0
ARC
  5
423
330
1F
100
AcDbEntity
  8
0
  6
Continuous
 62
     7
370
    25
100
AcDbCircle
 10
-19.9781618392
 20
30.35
 30
0.0
 40
0.7499999999997122
100
AcDbArc
 50
90.0
 51
121.3997148099
  0
ARC
  5
424
330
1F
100
AcDbEntity
  8
0
  6
Continuous
 62
     7
370
    25
100
AcDbCircle
 10
-8.6018381608
 20
30.35
 30
0.0
 40
0.7499999999999407
100
AcDbArc
 50
58.6002851901
 51
90.0
  0
ARC
  5
425
330
1F
100
AcDbEntity
  8
0
  6
Continuous
 62
     7
370
    25
100
AcDbCircle
 10
-7.8203300859
 20
31.6303300859
 30
0.0
 40
0.7500000000000036
100
AcDbArc
 50
238.6002851901
 51
31.3997148099
  0
ARC
  5
426
330
1F
100
AcDbEntity
  8
0
  6
Continuous
 62
     7
370
    25
100
AcDbCircle
 10
-6.54
 20
32.4118381608
 30
0.0
 40
0.7499999999997735
100
AcDbArc
 50
180.0
 51
211.3997148099
  0
ARC
  5
427
330
1F
100
AcDbEntity
  8
0
  6
Continuous
 62
     7
370
    25
100
AcDbCircle
 10
-6.54
 20
43.7881618392
 30
0.0
 40
0.7500000000000062
100
AcDbArc
 50
148.6002851901
 51
180.0
  0
ARC
  5
428
330
1F
100
AcDbEntity
  8
0
  6
Continuous
 62
     7
370
    25
100
AcDbCircle
 10
-7.8203300859
 20
44.5696699141
 30
0.0
 40
0.7499999999999946
100
AcDbArc
 50
328.6002851901
 51
121.3997148099
  0
ARC
  5
429
330
1F
100
AcDbEntity
  8
0
  6
Continuous
 62
     7
370
    25
100
AcDbCircle
 10
-8.6018381608
 20
45.85
 30
0.0
 40
0.7499999999997513
100
AcDbArc
 50
270.0
 51
301.3997148099
  0
ARC
  5
42A
330
1F
100
AcDbEntity
  8
0
  6
Continuous
 62
     7
370
    25
100
AcDbCircle
 10
-19.9781618392
 20
45.85
 30
0.0
 40
0.7499999999997314
100
AcDbArc
 50
238.6002851901
 51
270.0
  0
ARC
  5
42B
330
1F
100
AcDbEntity
  8
0
  6
Continuous
 62
     7
370
    25
100
AcDbCircle
 10
-50.6803300859
 20
-31.6303300859
 30
0.0
 40
0.7499999999999963
100
AcDbArc
 50
328.6002851901
 51
121.3997148099
  0
ARC
  5
42C
330
1F
100
AcDbEntity
  8
0
  6
Continuous
 62
     7
370
    25
100
AcDbCircle
 10
-51.4618381608
 20
-30.35
 30
0.0
 40
0.7499999999997887
100
AcDbArc
 50
270.0
 51
301.3997148099
  0
ARC
  5
42D
330
1F
100
AcDbEntity
  8
0
  6
Continuous
 62
     7
370
    25
100
AcDbCircle
 10
-62.8381618392
 20
-30.35
 30
0.0
 40
0.7499999999997335
100
AcDbArc
 50
238.6002851901
 51
270.0
  0
ARC
  5
42E
330
1F
100
AcDbEntity
  8
0
  6
Continuous
 62
     7
370
    25
100
AcDbCircle
 10
-63.6196699141
 20
-31.6303300859
 30
0.0
 40
0.7500000000000023
100
AcDbArc
 50
58.6002851901
 51
211.3997148099
  0
ARC
  5
42F
330
1F
100
AcDbEntity
  8
0
  6
Continuous
 62
     7
370
    25
100
AcDbCircle
 10
-64.9
 20
-32.4118381608
 30
0.0
 40
0.7499999999998591
100
AcDbArc
 50
360.0
 51
31.3997148099
  0
ARC
  5
430
330
1F
100
AcDbEntity
  8
0
  6
Continuous
 62
     7
370
    25
100
AcDbCircle
 10
-64.9
 20
-43.7881618392
 30
0.0
 40
0.7499999999998871
100
AcDbArc
 50
328.6002851901
 51
0.0
  0
ARC
  5
431
330
1F
100
AcDbEntity
  8
0
  6
Continuous
 62
     7
370
    25
100
AcDbCircle
 10
-63.6196699141
 20
-44.5696699141
 30
0.0
 40
0.7500000000000077
100
AcDbArc
 50
148.6002851901
 51
301.3997148099
  0
ARC
  5
432
330
1F
100
AcDbEntity
  8
0
  6
Continuous
 62
     7
370
    25
100
AcDbCircle
 10
-62.8381618392
 20
-45.85
 30
0.0
 40
0.7499999999998082
100
AcDbArc
 50
90.0
 51
121.3997148099
  0
ARC
  5
433
330
1F
100
AcDbEntity
  8
0
  6
Continuous
 62
     7
370
    25
100
AcDbCircle
 10
-51.4618381608
 20
-45.85
 30
0.0
 40
0.7499999999998493
100
AcDbArc
 50
58.6002851901
 51
90.0
  0
ARC
  5
434
330
1F
100
AcDbEntity
  8
0
  6
Continuous
 62
     7
370
    25
100
AcDbCircle
 10
-50.6803300859
 20
-44.5696699141
 30
0.0
 40
0.7500000000000012
100
AcDbArc
 50
238.6002851901
 51
31.3997148099
  0
ARC
  5
435
330
1F
100
AcDbEntity
  8
0
  6
Continuous
 62
     7
370
    25
100
AcDbCircle
 10
-49.4
 20
-43.7881618392
 30
0.0
 40
0.7499999999997442
100
AcDbArc
 50
180.0
 51
211.3997148099
  0
ARC
  5
436
330
1F
100
AcDbEntity
  8
0
  6
Continuous
 62
     7
370
    25
100
AcDbCircle
 10
-49.4
 20
-32.4118381608
 30
0.0
 40
0.7499999999999379
100
AcDbArc
 50
148.6002851901
 51
180.0
  0
ARC
  5
437
330
1F
100
AcDbEntity
  8
0
  6
Continuous
 62
     7
370
    25
100
AcDbCircle
 10
36.3903300859
 20
-6.4696699141
 30
0.0
 40
0.7500000000000114
100
AcDbArc
 50
148.6002851901
 51
301.3997148099
  0
ARC
  5
438
330
1F
100
AcDbEntity
  8
0
  6
Continuous
 62
     7
370
    25
100
AcDbCircle
 10
37.1718381608
 20
-7.75
 30
0.0
 40
0.7499999999997948
100
AcDbArc
 50
90.0
 51
121.3997148099
  0
ARC
  5
439
330
1F
100
AcDbEntity
  8
0
  6
Continuous
 62
     7
370
    25
100
AcDbCircle
 10
48.5481618392
 20
-7.75
 30
0.0
 40
0.7499999999999839
100
AcDbArc
 50
58.6002851901
 51
90.0
  0
ARC
  5
43A
330
1F
100
AcDbEntity
  8
0
  6
Continuous
 62
     7
370
    25
100
AcDbCircle
 10
49.3296699141
 20
-6.4696699141
 30
0.0
 40
0.749999999999998
100
AcDbArc
 50
238.6002851901
 51
31.3997148099
  0
ARC
  5
43B
330
1F
100
AcDbEntity
  8
0
  6
Continuous
 62
     7
370
    25
100
AcDbCircle
 10
50.61
 20
-5.6881618392
 30
0.0
 40
0.7499999999997442
100
AcDbArc
 50
180.0
 51
211.3997148099
  0
ARC
  5
43C
330
1F
100
AcDbEntity
  8
0
  6
Continuous
 62
     7
370
    25
100
AcDbCircle
 10
50.61
 20
5.6881618392
 30
0.0
 40
0.7499999999999152
100
AcDbArc
 50
148.6002851901
 51
180.0
  0
ARC
  5
43D
330
1F
100
AcDbEntity
  8
0
  6
Continuous
 62
     7
370
    25
100
AcDbCircle
 10
49.3296699141
 20
6.4696699141
 30
0.0
 40
0.7499999999999963
100
AcDbArc
 50
328.6002851901
 51
121.3997148099
  0
ARC
  5
43E
330
1F
100
AcDbEntity
  8
0
  6
Continuous
 62
     7
370
    25
100
AcDbCircle
 10
48.5481618392
 20
7.75
 30
0.0
 40
0.7499999999998161
100
AcDbArc
 50
270.0
 51
301.3997148099
  0
ARC
  5
43F
330
1F
100
AcDbEntity
  8
0
  6
Continuous
 62
     7
370
    25
100
AcDbCircle
 10
37.1718381608
 20
7.75
 30
0.0
 40
0.749999999999816
100
AcDbArc
 50
238.6002851901
 51
270.0
  0
ARC
  5
440
330
1F
100
AcDbEntity
  8
0
  6
Continuous
 62
     7
370
    25
100
AcDbCircle
 10
36.3903300859
 20
6.4696699141
 30
0.0
 40
0.7500000000000032
100
AcDbArc
 50
58.6002851901
 51
211.3997148099
  0
ARC
  5
441
330
1F
100
AcDbEntity
  8
0
  6
Continuous
 62
     7
370
    25
100
AcDbCircle
 10
35.11
 20
5.6881618392
 30
0.0
 40
0.7499999999997584
100
AcDbArc
 50
360.0
 51
31.3997148099
  0
ARC
  5
442
330
1F
100
AcDbEntity
  8
0
  6
Continuous
 62
     7
370
    25
100
AcDbCircle
 10
35.11
 20
-5.6881618392
 30
0.0
 40
0.749999999999731
100
AcDbArc
 50
328.6002851901
 51
0.0
  0
ARC
  5
443
330
1F
100
AcDbEntity
  8
0
  6
Continuous
 62
     7
370
    25
100
AcDbCircle
 10
36.3903300859
 20
31.6303300859
 30
0.0
 40
0.7500000000000033
100
AcDbArc
 50
148.6002851901
 51
301.3997148099
  0
ARC
  5
444
330
1F
100
AcDbEntity
  8
0
  6
Continuous
 62
     7
370
    25
100
AcDbCircle
 10
37.1718381608
 20
30.35
 30
0.0
 40
0.7499999999997692
100
AcDbArc
 50
90.0
 51
121.3997148099
  0
ARC
  5
445
330
1F
100
AcDbEntity
  8
0
  6
Continuous
 62
     7
370
    25
100
AcDbCircle
 10
48.5481618392
 20
30.35
 30
0.0
 40
0.7499999999999254
100
AcDbArc
 50
58.6002851901
 51
90.0
  0
ARC
  5
446
330
1F
100
AcDbEntity
  8
0
  6
Continuous
 62
     7
370
    25
100
AcDbCircle
 10
49.3296699141
 20
31.6303300859
 30
0.0
 40
0.7500000000000105
100
AcDbArc
 50
238.6002851901
 51
31.3997148099
  0
ARC
  5
447
330
1F
100
AcDbEntity
  8
0
  6
Continuous
 62
     7
370
    25
100
AcDbCircle
 10
50.61
 20
32.4118381608
 30
0.0
 40
0.749999999999865
100
AcDbArc
 50
180.0
 51
211.3997148099
  0
ARC
  5
448
330
1F
100
AcDbEntity
  8
0
  6
Continuous
 62
     7
370
    25
100
AcDbCircle
 10
50.61
 20
43.7881618392
 30
0.0
 40
0.75
100
AcDbArc
 50
148.6002851901
 51
180.0
  0
ARC
  5
449
330
1F
100
AcDbEntity
  8
0
  6
Continuous
 62
     7
370
    25
100
AcDbCircle
 10
49.3296699141
 20
44.5696699141
 30
0.0
 40
0.7499999999999956
100
AcDbArc
 50
328.6002851901
 51
121.3997148099
  0
ARC
  5
44A
330
1F
100
AcDbEntity
  8
0
  6
Continuous
 62
     7
370
    25
100
AcDbCircle
 10
48.5481618392
 20
45.85
 30
0.0
 40
0.7499999999997868
100
AcDbArc
 50
270.0
 51
301.3997148099
  0
ARC
  5
44B
330
1F
100
AcDbEntity
  8
0
  6
Continuous
 62
     7
370
    25
100
AcDbCircle
 10
37.1718381608
 20
45.85
 30
0.0
 40
0.7499999999997352
100
AcDbArc
 50
238.6002851901
 51
270.0
  0
ARC
  5
44C
330
1F
100
AcDbEntity
  8
0
  6
Continuous
 62
     7
370
    25
100
AcDbCircle
 10
36.3903300859
 20
44.5696699141
 30
0.0
 40
0.750000000000011
100
AcDbArc
 50
58.6002851901
 51
211.3997148099
  0
ARC
  5
44D
330
1F
100
AcDbEntity
  8
0
  6
Continuous
 62
     7
370
    25
100
AcDbCircle
 10
35.11
 20
43.7881618392
 30
0.0
 40
0.7499999999996518
100
AcDbArc
 50
360.0
 51
31.3997148099
  0
ARC
  5
44E
330
1F
100
AcDbEntity
  8
0
  6
Continuous
 62
     7
370
    25
100
AcDbCircle
 10
35.11
 20
32.4118381608
 30
0.0
 40
0.7499999999997339
100
AcDbArc
 50
328.6002851901
 51
0.0
  0
ARC
  5
44F
330
1F
100
AcDbEntity
  8
0
  6
Continuous
 62
     7
370
    25
100
AcDbCircle
 10
36.3903300859
 20
25.5196699141
 30
0.0
 40
0.7500000000000003
100
AcDbArc
 50
58.6002851901
 51
211.3997148099
  0
ARC
  5
450
330
1F
100
AcDbEntity
  8
0
  6
Continuous
 62
     7
370
    25
100
AcDbCircle
 10
35.11
 20
24.7381618392
 30
0.0
 40
0.7499999999998227
100
AcDbArc
 50
360.0
 51
31.3997148099
  0
ARC
  5
451
330
1F
100
AcDbEntity
  8
0
  6
Continuous
 62
     7
370
    25
100
AcDbCircle
 10
35.11
 20
13.3618381608
 30
0.0
 40
0.7499999999997166
100
AcDbArc
 50
328.6002851901
 51
0.0
  0
ARC
  5
452
330
1F
100
AcDbEntity
  8
0
  6
Continuous
 62
     7
370
    25
100
AcDbCircle
 10
36.3903300859
 20
12.5803300859
 30
0.0
 40
0.7500000000000072
100
AcDbArc
 50
148.6002851901
 51
301.3997148099
  0
ARC
  5
453
330
1F
100
AcDbEntity
  8
0
  6
Continuous
 62
     7
370
    25
100
AcDbCircle
 10
37.1718381608
 20
11.3
 30
0.0
 40
0.7499999999998437
100
AcDbArc
 50
90.0
 51
121.3997148099
  0
ARC
  5
454
330
1F
100
AcDbEntity
  8
0
  6
Continuous
 62
     7
370
    25
100
AcDbCircle
 10
48.5481618392
 20
11.3
 30
0.0
 40
0.750000000000003
100
AcDbArc
 50
58.6002851901
 51
90.0
  0
ARC
  5
455
330
1F
100
AcDbEntity
  8
0
  6
Continuous
 62
     7
370
    25
100
AcDbCircle
 10
49.3296699141
 20
12.5803300859
 30
0.0
 40
0.7500000000000083
100
AcDbArc
 50
238.6002851901
 51
31.3997148099
  0
ARC
  5
456
330
1F
100
AcDbEntity
  8
0
  6
Continuous
 62
     7
370
    25
100
AcDbCircle
 10
50.61
 20
13.3618381608
 30
0.0
 40
0.7499999999996456
100
AcDbArc
 50
180.0
 51
211.3997148099
  0
ARC
  5
457
330
1F
100
AcDbEntity
  8
0
  6
Continuous
 62
     7
370
    25
100
AcDbCircle
 10
50.61
 20
24.7381618392
 30
0.0
 40
0.749999999999826
100
AcDbArc
 50
148.6002851901
 51
180.0
  0
ARC
  5
458
330
1F
100
AcDbEntity
  8
0
  6
Continuous
 62
     7
370
    25
100
AcDbCircle
 10
49.3296699141
 20
25.5196699141
 30
0.0
 40
0.7500000000000024
100
AcDbArc
 50
328.6002851901
 51
121.3997148099
  0
ARC
  5
459
330
1F
100
AcDbEntity
  8
0
  6
Continuous
 62
     7
370
    25
100
AcDbCircle
 10
48.5481618392
 20
26.8
 30
0.0
 40
0.749999999999819
100
AcDbArc
 50
270.0
 51
301.3997148099
  0
ARC
  5
45A
330
1F
100
AcDbEntity
  8
0
  6
Continuous
 62
     7
370
    25
100
AcDbCircle
 10
37.1718381608
 20
26.8
 30
0.0
 40
0.7499999999998069
100
AcDbArc
 50
238.6002851901
 51
270.0
  0
ARC
  5
45B
330
1F
100
AcDbEntity
  8
0
  6
Continuous
 62
     7
370
    25
100
AcDbCircle
 10
55.4403300859
 20
12.5803300859
 30
0.0
 40
0.7500000000000072
100
AcDbArc
 50
148.6002851901
 51
301.3997148099
  0
ARC
  5
45C
330
1F
100
AcDbEntity
  8
0
  6
Continuous
 62
     7
370
    25
100
AcDbCircle
 10
56.2218381608
 20
11.3
 30
0.0
 40
0.749999999999849
100
AcDbArc
 50
90.0
 51
121.3997148099
  0
ARC
  5
45D
330
1F
100
AcDbEntity
  8
0
  6
Continuous
 62
     7
370
    25
100
AcDbCircle
 10
67.5981618392
 20
11.3
 30
0.0
 40
0.7499999999999787
100
AcDbArc
 50
58.6002851901
 51
90.0
  0
ARC
  5
45E
330
1F
100
AcDbEntity
  8
0
  6
Continuous
 62
     7
370
    25
100
AcDbCircle
 10
68.3796699141
 20
12.5803300859
 30
0.0
 40
0.749999999999994
100
AcDbArc
 50
238.6002851901
 51
31.3997148099
  0
ARC
  5
45F
330
1F
100
AcDbEntity
  8
0
  6
Continuous
 62
     7
370
    25
100
AcDbCircle
 10
69.66
 20
13.3618381608
 30
0.0
 40
0.7499999999999495
100
AcDbArc
 50
180.0
 51
211.3997148099
  0
ARC
  5
460
330
1F
100
AcDbEntity
  8
0
  6
Continuous
 62
     7
370
    25
100
AcDbCircle
 10
69.66
 20
24.7381618392
 30
0.0
 40
0.7500000000001137
100
AcDbArc
 50
148.6002851901
 51
180.0
  0
ARC
  5
461
330
1F
100
AcDbEntity
  8
0
  6
Continuous
 62
     7
370
    25
100
AcDbCircle
 10
68.3796699141
 20
25.5196699141
 30
0.0
 40
0.7499999999999865
100
AcDbArc
 50
328.6002851901
 51
121.3997148099
  0
ARC
  5
462
330
1F
100
AcDbEntity
  8
0
  6
Continuous
 62
     7
370
    25
100
AcDbCircle
 10
67.5981618392
 20
26.8
 30
0.0
 40
0.7499999999998775
100
AcDbArc
 50
270.0
 51
301.3997148099
  0
ARC
  5
463
330
1F
100
AcDbEntity
  8
0
  6
Continuous
 62
     7
370
    25
100
AcDbCircle
 10
56.2218381608
 20
26.8
 30
0.0
 40
0.7499999999998106
100
AcDbArc
 50
238.6002851901
 51
270.0
  0
ARC
  5
464
330
1F
100
AcDbEntity
  8
0
  6
Continuous
 62
     7
370
    25
100
AcDbCircle
 10
55.4403300859
 20
25.5196699141
 30
0.0
 40
0.750000000000001
100
AcDbArc
 50
58.6002851901
 51
211.3997148099
  0
ARC
  5
465
330
1F
100
AcDbEntity
  8
0
  6
Continuous
 62
     7
370
    25
100
AcDbCircle
 10
54.16
 20
24.7381618392
 30
0.0
 40
0.7499999999997655
100
AcDbArc
 50
360.0
 51
31.3997148099
  0
ARC
  5
466
330
1F
100
AcDbEntity
  8
0
  6
Continuous
 62
     7
370
    25
100
AcDbCircle
 10
54.16
 20
13.3618381608
 30
0.0
 40
0.7499999999997166
100
AcDbArc
 50
328.6002851901
 51
0.0
  0
ARC
  5
467
330
1F
100
AcDbEntity
  8
0
  6
Continuous
 62
     7
370
    25
100
AcDbCircle
 10
55.4403300859
 20
6.4696699141
 30
0.0
 40
0.7500000000000109
100
AcDbArc
 50
58.6002851901
 51
211.3997148099
  0
ARC
  5
468
330
1F
100
AcDbEntity
  8
0
  6
Continuous
 62
     7
370
    25
100
AcDbCircle
 10
54.16
 20
5.6881618392
 30
0.0
 40
0.7499999999997584
100
AcDbArc
 50
360.0
 51
31.3997148099
  0
ARC
  5
469
330
1F
100
AcDbEntity
  8
0
  6
Continuous
 62
     7
370
    25
100
AcDbCircle
 10
54.16
 20
-5.6881618392
 30
0.0
 40
0.749999999999731
100
AcDbArc
 50
328.6002851901
 51
0.0
  0
ARC
  5
46A
330
1F
100
AcDbEntity
  8
0
  6
Continuous
 62
     7
370
    25
100
AcDbCircle
 10
55.4403300859
 20
-6.4696699141
 30
0.0
 40
0.7500000000000114
100
AcDbArc
 50
148.6002851901
 51
301.3997148099
  0
ARC
  5
46B
330
1F
100
AcDbEntity
  8
0
  6
Continuous
 62
     7
370
    25
100
AcDbCircle
 10
56.2218381608
 20
-7.75
 30
0.0
 40
0.7499999999997948
100
AcDbArc
 50
90.0
 51
121.3997148099
  0
ARC
  5
46C
330
1F
100
AcDbEntity
  8
0
  6
Continuous
 62
     7
370
    25
100
AcDbCircle
 10
67.5981618392
 20
-7.75
 30
0.0
 40
0.749999999999849
100
AcDbArc
 50
58.6002851901
 51
90.0
  0
ARC
  5
46D
330
1F
100
AcDbEntity
  8
0
  6
Continuous
 62
     7
370
    25
100
AcDbCircle
 10
68.3796699141
 20
-6.4696699141
 30
0.0
 40
0.7500000000000023
100
AcDbArc
 50
238.6002851901
 51
31.3997148099
  0
ARC
  5
46E
330
1F
100
AcDbEntity
  8
0
  6
Continuous
 62
     7
370
    25
100
AcDbCircle
 10
69.66
 20
-5.6881618392
 30
0.0
 40
0.7499999999998059
100
AcDbArc
 50
180.0
 51
211.3997148099
  0
ARC
  5
46F
330
1F
100
AcDbEntity
  8
0
  6
Continuous
 62
     7
370
    25
100
AcDbCircle
 10
69.66
 20
5.6881618392
 30
0.0
 40
0.7499999999999589
100
AcDbArc
 50
148.6002851901
 51
180.0
  0
ARC
  5
470
330
1F
100
AcDbEntity
  8
0
  6
Continuous
 62
     7
370
    25
100
AcDbCircle
 10
68.3796699141
 20
6.4696699141
 30
0.0
 40
0.7499999999999969
100
AcDbArc
 50
328.6002851901
 51
121.3997148099
  0
ARC
  5
471
330
1F
100
AcDbEntity
  8
0
  6
Continuous
 62
     7
370
    25
100
AcDbCircle
 10
67.5981618392
 20
7.75
 30
0.0
 40
0.7499999999997571
100
AcDbArc
 50
270.0
 51
301.3997148099
  0
ARC
  5
472
330
1F
100
AcDbEntity
  8
0
  6
Continuous
 62
     7
370
    25
100
AcDbCircle
 10
56.2218381608
 20
7.75
 30
0.0
 40
0.7499999999997594
100
AcDbArc
 50
238.6002851901
 51
270.0
  0
ARC
  5
473
330
1F
100
AcDbEntity
  8
0
  6
Continuous
 62
     7
370
    25
100
AcDbCircle
 10
36.3903300859
 20
-25.5196699141
 30
0.0
 40
0.750000000000003
100
AcDbArc
 50
148.6002851901
 51
301.3997148099
  0
ARC
  5
474
330
1F
100
AcDbEntity
  8
0
  6
Continuous
 62
     7
370
    25
100
AcDbCircle
 10
37.1718381608
 20
-26.8
 30
0.0
 40
0.7499999999998082
100
AcDbArc
 50
90.0
 51
121.3997148099
  0
ARC
  5
475
330
1F
100
AcDbEntity
  8
0
  6
Continuous
 62
     7
370
    25
100
AcDbCircle
 10
48.5481618392
 20
-26.8
 30
0.0
 40
0.7499999999999645
100
AcDbArc
 50
58.6002851901
 51
90.0
  0
ARC
  5
476
330
1F
100
AcDbEntity
  8
0
  6
Continuous
 62
     7
370
    25
100
AcDbCircle
 10
49.3296699141
 20
-25.5196699141
 30
0.0
 40
0.750000000000001
100
AcDbArc
 50
238.6002851901
 51
31.3997148099
  0
ARC
  5
477
330
1F
100
AcDbEntity
  8
0
  6
Continuous
 62
     7
370
    25
100
AcDbCircle
 10
50.61
 20
-24.7381618392
 30
0.0
 40
0.749999999999865
100
AcDbArc
 50
180.0
 51
211.3997148099
  0
ARC
  5
478
330
1F
100
AcDbEntity
  8
0
  6
Continuous
 62
     7
370
    25
100
AcDbCircle
 10
50.61
 20
-13.3618381608
 30
0.0
 40
0.749999999999979
100
AcDbArc
 50
148.6002851901
 51
180.0
  0
ARC
  5
479
330
1F
100
AcDbEntity
  8
0
  6
Continuous
 62
     7
370
    25
100
AcDbCircle
 10
49.3296699141
 20
-12.5803300859
 30
0.0
 40
0.7499999999999893
100
AcDbArc
 50
328.6002851901
 51
121.3997148099
  0
ARC
  5
47A
330
1F
100
AcDbEntity
  8
0
  6
Continuous
 62
     7
370
    25
100
AcDbCircle
 10
48.5481618392
 20
-11.3
 30
0.0
 40
0.7499999999998632
100
AcDbArc
 50
270.0
 51
301.3997148099
  0
ARC
  5
47B
330
1F
100
AcDbEntity
  8
0
  6
Continuous
 62
     7
370
    25
100
AcDbCircle
 10
37.1718381608
 20
-11.3
 30
0.0
 40
0.7499999999998093
100
AcDbArc
 50
238.6002851901
 51
270.0
  0
ARC
  5
47C
330
1F
100
AcDbEntity
  8
0
  6
Continuous
 62
     7
370
    25
100
AcDbCircle
 10
36.3903300859
 20
-12.5803300859
 30
0.0
 40
0.7500000000000092
100
AcDbArc
 50
58.6002851901
 51
211.3997148099
  0
ARC
  5
47D
330
1F
100
AcDbEntity
  8
0
  6
Continuous
 62
     7
370
    25
100
AcDbCircle
 10
35.11
 20
-13.3618381608
 30
0.0
 40
0.7499999999996881
100
AcDbArc
 50
360.0
 51
31.3997148099
  0
ARC
  5
47E
330
1F
100
AcDbEntity
  8
0
  6
Continuous
 62
     7
370
    25
100
AcDbCircle
 10
35.11
 20
-24.7381618392
 30
0.0
 40
0.7499999999997301
100
AcDbArc
 50
328.6002851901
 51
0.0
  0
ARC
  5
47F
330
1F
100
AcDbEntity
  8
0
  6
Continuous
 62
     7
370
    25
100
AcDbCircle
 10
55.4403300859
 20
44.5696699141
 30
0.0
 40
0.7500000000000087
100
AcDbArc
 50
58.6002851901
 51
211.3997148099
  0
ARC
  5
480
330
1F
100
AcDbEntity
  8
0
  6
Continuous
 62
     7
370
    25
100
AcDbCircle
 10
54.16
 20
43.7881618392
 30
0.0
 40
0.7499999999997556
100
AcDbArc
 50
360.0
 51
31.3997148099
  0
ARC
  5
481
330
1F
100
AcDbEntity
  8
0
  6
Continuous
 62
     7
370
    25
100
AcDbCircle
 10
54.16
 20
32.4118381608
 30
0.0
 40
0.749999999999853
100
AcDbArc
 50
328.6002851901
 51
0.0
  0
ARC
  5
482
330
1F
100
AcDbEntity
  8
0
  6
Continuous
 62
     7
370
    25
100
AcDbCircle
 10
55.4403300859
 20
31.6303300859
 30
0.0
 40
0.750000000000004
100
AcDbArc
 50
148.6002851901
 51
301.3997148099
  0
ARC
  5
483
330
1F
100
AcDbEntity
  8
0
  6
Continuous
 62
     7
370
    25
100
AcDbCircle
 10
56.2218381608
 20
30.35
 30
0.0
 40
0.7499999999997692
100
AcDbArc
 50
90.0
 51
121.3997148099
  0
ARC
  5
484
330
1F
100
AcDbEntity
  8
0
  6
Continuous
 62
     7
370
    25
100
AcDbCircle
 10
67.5981618392
 20
30.35
 30
0.0
 40
0.749999999999833
100
AcDbArc
 50
58.6002851901
 51
90.0
  0
ARC
  5
485
330
1F
100
AcDbEntity
  8
0
  6
Continuous
 62
     7
370
    25
100
AcDbCircle
 10
68.3796699141
 20
31.6303300859
 30
0.0
 40
0.7500000000000137
100
AcDbArc
 50
238.6002851901
 51
31.3997148099
  0
ARC
  5
486
330
1F
100
AcDbEntity
  8
0
  6
Continuous
 62
     7
370
    25
100
AcDbCircle
 10
69.66
 20
32.4118381608
 30
0.0
 40
0.74999999999975
100
AcDbArc
 50
180.0
 51
211.3997148099
  0
ARC
  5
487
330
1F
100
AcDbEntity
  8
0
  6
Continuous
 62
     7
370
    25
100
AcDbCircle
 10
69.66
 20
43.7881618392
 30
0.0
 40
0.7499999999999588
100
AcDbArc
 50
148.6002851901
 51
180.0
  0
ARC
  5
488
330
1F
100
AcDbEntity
  8
0
  6
Continuous
 62
     7
370
    25
100
AcDbCircle
 10
68.3796699141
 20
44.5696699141
 30
0.0
 40
0.7499999999999956
100
AcDbArc
 50
328.6002851901
 51
121.3997148099
  0
ARC
  5
489
330
1F
100
AcDbEntity
  8
0
  6
Continuous
 62
     7
370
    25
100
AcDbCircle
 10
67.5981618392
 20
45.85
 30
0.0
 40
0.7499999999997887
100
AcDbArc
 50
270.0
 51
301.3997148099
  0
ARC
  5
48A
330
1F
100
AcDbEntity
  8
0
  6
Continuous
 62
     7
370
    25
100
AcDbCircle
 10
56.2218381608
 20
45.85
 30
0.0
 40
0.7499999999997655
100
AcDbArc
 50
238.6002851901
 51
270.0
  0
ARC
  5
48B
330
1F
100
AcDbEntity
  8
0
  6
Continuous
 62
     7
370
    25
100
AcDbCircle
 10
11.2296699141
 20
-31.6303300859
 30
0.0
 40
0.7499999999999918
100
AcDbArc
 50
328.6002851901
 51
121.3997148099
  0
ARC
  5
48C
330
1F
100
AcDbEntity
  8
0
  6
Continuous
 62
     7
370
    25
100
AcDbCircle
 10
10.4481618392
 20
-30.35
 30
0.0
 40
0.7499999999997691
100
AcDbArc
 50
270.0
 51
301.3997148099
  0
ARC
  5
48D
330
1F
100
AcDbEntity
  8
0
  6
Continuous
 62
     7
370
    25
100
AcDbCircle
 10
-0.9281618392
 20
-30.35
 30
0.0
 40
0.749999999999728
100
AcDbArc
 50
238.6002851901
 51
270.0
  0
ARC
  5
48E
330
1F
100
AcDbEntity
  8
0
  6
Continuous
 62
     7
370
    25
100
AcDbCircle
 10
-1.7096699141
 20
-31.6303300859
 30
0.0
 40
0.7500000000000042
100
AcDbArc
 50
58.6002851901
 51
211.3997148099
  0
ARC
  5
48F
330
1F
100
AcDbEntity
  8
0
  6
Continuous
 62
     7
370
    25
100
AcDbCircle
 10
-2.99
 20
-32.4118381608
 30
0.0
 40
0.7499999999997513
100
AcDbArc
 50
360.0
 51
31.3997148099
  0
ARC
  5
490
330
1F
100
AcDbEntity
  8
0
  6
Continuous
 62
     7
370
    25
100
AcDbCircle
 10
-2.99
 20
-43.7881618392
 30
0.0
 40
0.7499999999997711
100
AcDbArc
 50
328.6002851901
 51
0.0
  0
ARC
  5
491
330
1F
100
AcDbEntity
  8
0
  6
Continuous
 62
     7
370
    25
100
AcDbCircle
 10
-1.7096699141
 20
-44.5696699141
 30
0.0
 40
0.7500000000000043
100
AcDbArc
 50
148.6002851901
 51
301.3997148099
  0
ARC
  5
492
330
1F
100
AcDbEntity
  8
0
  6
Continuous
 62
     7
370
    25
100
AcDbCircle
 10
-0.9281618392
 20
-45.85
 30
0.0
 40
0.7499999999998225
100
AcDbArc
 50
90.0
 51
121.3997148099
  0
ARC
  5
493
330
1F
100
AcDbEntity
  8
0
  6
Continuous
 62
     7
370
    25
100
AcDbCircle
 10
10.4481618392
 20
-45.85
 30
0.0
 40
0.7499999999998508
100
AcDbArc
 50
58.6002851901
 51
90.0
  0
ARC
  5
494
330
1F
100
AcDbEntity
  8
0
  6
Continuous
 62
     7
370
    25
100
AcDbCircle
 10
11.2296699141
 20
-44.5696699141
 30
0.0
 40
0.7500000000000021
100
AcDbArc
 50
238.6002851901
 51
31.3997148099
  0
ARC
  5
495
330
1F
100
AcDbEntity
  8
0
  6
Continuous
 62
     7
370
    25
100
AcDbCircle
 10
12.51
 20
-43.7881618392
 30
0.0
 40
0.7499999999997851
100
AcDbArc
 50
180.0
 51
211.3997148099
  0
ARC
  5
496
330
1F
100
AcDbEntity
  8
0
  6
Continuous
 62
     7
370
    25
100
AcDbCircle
 10
12.51
 20
-32.4118381608
 30
0.0
 40
0.75
100
AcDbArc
 50
148.6002851901
 51
180.0
  0
ARC
  5
497
330
1F
100
AcDbEntity
  8
0
  6
Continuous
 62
     7
370
    25
100
AcDbCircle
 10
-1.7096699141
 20
12.5803300859
 30
0.0
 40
0.7500000000000037
100
AcDbArc
 50
148.6002851901
 51
301.3997148099
  0
ARC
  5
498
330
1F
100
AcDbEntity
  8
0
  6
Continuous
 62
     7
370
    25
100
AcDbCircle
 10
-0.9281618392
 20
11.3
 30
0.0
 40
0.7499999999997993
100
AcDbArc
 50
90.0
 51
121.3997148099
  0
ARC
  5
499
330
1F
100
AcDbEntity
  8
0
  6
Continuous
 62
     7
370
    25
100
AcDbCircle
 10
10.4481618392
 20
11.3
 30
0.0
 40
0.7500000000000037
100
AcDbArc
 50
58.6002851901
 51
90.0
  0
ARC
  5
49A
330
1F
100
AcDbEntity
  8
0
  6
Continuous
 62
     7
370
    25
100
AcDbCircle
 10
11.2296699141
 20
12.5803300859
 30
0.0
 40
0.7500000000000007
100
AcDbArc
 50
238.6002851901
 51
31.3997148099
  0
ARC
  5
49B
330
1F
100
AcDbEntity
  8
0
  6
Continuous
 62
     7
370
    25
100
AcDbCircle
 10
12.51
 20
13.3618381608
 30
0.0
 40
0.749999999999778
100
AcDbArc
 50
180.0
 51
211.3997148099
  0
ARC
  5
49C
330
1F
100
AcDbEntity
  8
0
  6
Continuous
 62
     7
370
    25
100
AcDbCircle
 10
12.51
 20
24.7381618392
 30
0.0
 40
0.749999999999968
100
AcDbArc
 50
148.6002851901
 51
180.0
  0
ARC
  5
49D
330
1F
100
AcDbEntity
  8
0
  6
Continuous
 62
     7
370
    25
100
AcDbCircle
 10
11.2296699141
 20
25.5196699141
 30
0.0
 40
0.7499999999999899
100
AcDbArc
 50
328.6002851901
 51
121.3997148099
  0
ARC
  5
49E
330
1F
100
AcDbEntity
  8
0
  6
Continuous
 62
     7
370
    25
100
AcDbCircle
 10
10.4481618392
 20
26.8
 30
0.0
 40
0.749999999999805
100
AcDbArc
 50
270.0
 51
301.3997148099
  0
ARC
  5
49F
330
1F
100
AcDbEntity
  8
0
  6
Continuous
 62
     7
370
    25
100
AcDbCircle
 10
-1.7096699141
 20
25.5196699141
 30
0.0
 40
0.7500000000000018
100
AcDbArc
 50
58.6002851901
 51
211.3997148099
  0
ARC
  5
4A0
330
1F
100
AcDbEntity
  8
0
  6
Continuous
 62
     7
370
    25
100
AcDbCircle
 10
-2.99
 20
24.7381618392
 30
0.0
 40
0.7499999999997762
100
AcDbArc
 50
360.0
 51
31.3997148099
  0
ARC
  5
4A1
330
1F
100
AcDbEntity
  8
0
  6
Continuous
 62
     7
370
    25
100
AcDbCircle
 10
-2.99
 20
13.3618381608
 30
0.0
 40
0.7499999999997793
100
AcDbArc
 50
328.6002851901
 51
0.0
  0
ARC
  5
4A2
330
1F
100
AcDbEntity
  8
0
  6
Continuous
 62
     7
370
    25
100
AcDbCircle
 10
-1.7096699141
 20
-6.4696699141
 30
0.0
 40
0.750000000000004
100
AcDbArc
 50
148.6002851901
 51
301.3997148099
  0
ARC
  5
4A3
330
1F
100
AcDbEntity
  8
0
  6
Continuous
 62
     7
370
    25
100
AcDbCircle
 10
-0.9281618392
 20
-7.75
 30
0.0
 40
0.7499999999997771
100
AcDbArc
 50
90.0
 51
121.3997148099
  0
ARC
  5
4A4
330
1F
100
AcDbEntity
  8
0
  6
Continuous
 62
     7
370
    25
100
AcDbCircle
 10
10.4481618392
 20
-7.75
 30
0.0
 40
0.749999999999977
100
AcDbArc
 50
58.6002851901
 51
90.0
  0
ARC
  5
4A5
330
1F
100
AcDbEntity
  8
0
  6
Continuous
 62
     7
370
    25
100
AcDbCircle
 10
11.2296699141
 20
-6.4696699141
 30
0.0
 40
0.7499999999999999
100
AcDbArc
 50
238.6002851901
 51
31.3997148099
  0
ARC
  5
4A6
330
1F
100
AcDbEntity
  8
0
  6
Continuous
 62
     7
370
    25
100
AcDbCircle
 10
12.51
 20
-5.6881618392
 30
0.0
 40
0.7499999999997846
100
AcDbArc
 50
180.0
 51
211.3997148099
  0
ARC
  5
4A7
330
1F
100
AcDbEntity
  8
0
  6
Continuous
 62
     7
370
    25
100
AcDbCircle
 10
12.51
 20
5.6881618392
 30
0.0
 40
0.7499999999999645
100
AcDbArc
 50
148.6002851901
 51
180.0
  0
ARC
  5
4A8
330
1F
100
AcDbEntity
  8
0
  6
Continuous
 62
     7
370
    25
100
AcDbCircle
 10
11.2296699141
 20
6.4696699141
 30
0.0
 40
0.7499999999999906
100
AcDbArc
 50
328.6002851901
 51
121.3997148099
  0
ARC
  5
4A9
330
1F
100
AcDbEntity
  8
0
  6
Continuous
 62
     7
370
    25
100
AcDbCircle
 10
10.4481618392
 20
7.75
 30
0.0
 40
0.7499999999997948
100
AcDbArc
 50
270.0
 51
301.3997148099
  0
ARC
  5
4AA
330
1F
100
AcDbEntity
  8
0
  6
Continuous
 62
     7
370
    25
100
AcDbCircle
 10
-0.9281618392
 20
7.75
 30
0.0
 40
0.7499999999997842
100
AcDbArc
 50
238.6002851901
 51
270.0
  0
ARC
  5
4AB
330
1F
100
AcDbEntity
  8
0
  6
Continuous
 62
     7
370
    25
100
AcDbCircle
 10
-1.7096699141
 20
6.4696699141
 30
0.0
 40
0.7500000000000006
100
AcDbArc
 50
58.6002851901
 51
211.3997148099
  0
ARC
  5
4AC
330
1F
100
AcDbEntity
  8
0
  6
Continuous
 62
     7
370
    25
100
AcDbCircle
 10
-2.99
 20
5.6881618392
 30
0.0
 40
0.7499999999997571
100
AcDbArc
 50
360.0
 51
31.3997148099
  0
ARC
  5
4AD
330
1F
100
AcDbEntity
  8
0
  6
Continuous
 62
     7
370
    25
100
AcDbCircle
 10
-2.99
 20
-5.6881618392
 30
0.0
 40
0.7499999999997868
100
AcDbArc
 50
328.6002851901
 51
0.0
  0
ARC
  5
4AE
330
1F
100
AcDbEntity
  8
0
  6
Continuous
 62
     7
370
    25
100
AcDbCircle
 10
-1.7096699141
 20
-12.5803300859
 30
0.0
 40
0.7500000000000003
100
AcDbArc
 50
58.6002851901
 51
211.3997148099
  0
ARC
  5
4AF
330
1F
100
AcDbEntity
  8
0
  6
Continuous
 62
     7
370
    25
100
AcDbCircle
 10
-2.99
 20
-13.3618381608
 30
0.0
 40
0.7499999999997589
100
AcDbArc
 50
360.0
 51
31.3997148099
  0
ARC
  5
4B0
330
1F
100
AcDbEntity
  8
0
  6
Continuous
 62
     7
370
    25
100
AcDbCircle
 10
-2.99
 20
-24.7381618392
 30
0.0
 40
0.7499999999997669
100
AcDbArc
 50
328.6002851901
 51
0.0
  0
ARC
  5
4B1
330
1F
100
AcDbEntity
  8
0
  6
Continuous
 62
     7
370
    25
100
AcDbCircle
 10
-1.7096699141
 20
-25.5196699141
 30
0.0
 40
0.7500000000000066
100
AcDbArc
 50
148.6002851901
 51
301.3997148099
  0
ARC
  5
4B2
330
1F
100
AcDbEntity
  8
0
  6
Continuous
 62
     7
370
    25
100
AcDbCircle
 10
-0.9281618392
 20
-26.8
 30
0.0
 40
0.7499999999997655
100
AcDbArc
 50
90.0
 51
121.3997148099
  0
ARC
  5
4B3
330
1F
100
AcDbEntity
  8
0
  6
Continuous
 62
     7
370
    25
100
AcDbCircle
 10
10.4481618392
 20
-26.8
 30
0.0
 40
0.7499999999999797
100
AcDbArc
 50
58.6002851901
 51
90.0
  0
ARC
  5
4B4
330
1F
100
AcDbEntity
  8
0
  6
Continuous
 62
     7
370
    25
100
AcDbCircle
 10
11.2296699141
 20
-25.5196699141
 30
0.0
 40
0.750000000000008
100
AcDbArc
 50
238.6002851901
 51
31.3997148099
  0
ARC
  5
4B5
330
1F
100
AcDbEntity
  8
0
  6
Continuous
 62
     7
370
    25
100
AcDbCircle
 10
12.51
 20
-24.7381618392
 30
0.0
 40
0.7499999999997532
100
AcDbArc
 50
180.0
 51
211.3997148099
  0
ARC
  5
4B6
330
1F
100
AcDbEntity
  8
0
  6
Continuous
 62
     7
370
    25
100
AcDbCircle
 10
12.51
 20
-13.3618381608
 30
0.0
 40
0.7499999999999579
100
AcDbArc
 50
148.6002851901
 51
180.0
  0
ARC
  5
4B7
330
1F
100
AcDbEntity
  8
0
  6
Continuous
 62
     7
370
    25
100
AcDbCircle
 10
11.2296699141
 20
-12.5803300859
 30
0.0
 40
0.7499999999999893
100
AcDbArc
 50
328.6002851901
 51
121.3997148099
  0
ARC
  5
4B8
330
1F
100
AcDbEntity
  8
0
  6
Continuous
 62
     7
370
    25
100
AcDbCircle
 10
10.4481618392
 20
-11.3
 30
0.0
 40
0.7499999999998312
100
AcDbArc
 50
270.0
 51
301.3997148099
  0
ARC
  5
4B9
330
1F
100
AcDbEntity
  8
0
  6
Continuous
 62
     7
370
    25
100
AcDbCircle
 10
-0.9281618392
 20
-11.3
 30
0.0
 40
0.749999999999801
100
AcDbArc
 50
238.6002851901
 51
270.0
  0
ARC
  5
4BA
330
1F
100
AcDbEntity
  8
0
  6
Continuous
 62
     7
370
    25
100
AcDbCircle
 10
17.3403300859
 20
-25.5196699141
 30
0.0
 40
0.7500000000000072
100
AcDbArc
 50
148.6002851901
 51
301.3997148099
  0
ARC
  5
4BB
330
1F
100
AcDbEntity
  8
0
  6
Continuous
 62
     7
370
    25
100
AcDbCircle
 10
18.1218381608
 20
-26.8
 30
0.0
 40
0.7499999999997478
100
AcDbArc
 50
90.0
 51
121.3997148099
  0
ARC
  5
4BC
330
1F
100
AcDbEntity
  8
0
  6
Continuous
 62
     7
370
    25
100
AcDbCircle
 10
29.4981618392
 20
-26.8
 30
0.0
 40
0.7499999999999787
100
AcDbArc
 50
58.6002851901
 51
90.0
  0
ARC
  5
4BD
330
1F
100
AcDbEntity
  8
0
  6
Continuous
 62
     7
370
    25
100
AcDbCircle
 10
30.2796699141
 20
-25.5196699141
 30
0.0
 40
0.7500000000000021
100
AcDbArc
 50
238.6002851901
 51
31.3997148099
  0
ARC
  5
4BE
330
1F
100
AcDbEntity
  8
0
  6
Continuous
 62
     7
370
    25
100
AcDbCircle
 10
31.56
 20
-24.7381618392
 30
0.0
 40
0.7499999999997875
100
AcDbArc
 50
180.0
 51
211.3997148099
  0
ARC
  5
4BF
330
1F
100
AcDbEntity
  8
0
  6
Continuous
 62
     7
370
    25
100
AcDbCircle
 10
31.56
 20
-13.3618381608
 30
0.0
 40
0.7500000000000289
100
AcDbArc
 50
148.6002851901
 51
180.0
  0
ARC
  5
4C0
330
1F
100
AcDbEntity
  8
0
  6
Continuous
 62
     7
370
    25
100
AcDbCircle
 10
30.2796699141
 20
-12.5803300859
 30
0.0
 40
0.7499999999999903
100
AcDbArc
 50
328.6002851901
 51
121.3997148099
  0
ARC
  5
4C1
330
1F
100
AcDbEntity
  8
0
  6
Continuous
 62
     7
370
    25
100
AcDbCircle
 10
29.4981618392
 20
-11.3
 30
0.0
 40
0.7499999999998401
100
AcDbArc
 50
270.0
 51
301.3997148099
  0
ARC
  5
4C2
330
1F
100
AcDbEntity
  8
0
  6
Continuous
 62
     7
370
    25
100
AcDbCircle
 10
18.1218381608
 20
-11.3
 30
0.0
 40
0.7499999999997993
100
AcDbArc
 50
238.6002851901
 51
270.0
  0
ARC
  5
4C3
330
1F
100
AcDbEntity
  8
0
  6
Continuous
 62
     7
370
    25
100
AcDbCircle
 10
17.3403300859
 20
-12.5803300859
 30
0.0
 40
0.7499999999999988
100
AcDbArc
 50
58.6002851901
 51
211.3997148099
  0
ARC
  5
4C4
330
1F
100
AcDbEntity
  8
0
  6
Continuous
 62
     7
370
    25
100
AcDbCircle
 10
16.06
 20
-13.3618381608
 30
0.0
 40
0.7499999999998237
100
AcDbArc
 50
360.0
 51
31.3997148099
  0
ARC
  5
4C5
330
1F
100
AcDbEntity
  8
0
  6
Continuous
 62
     7
370
    25
100
AcDbCircle
 10
16.06
 20
-24.7381618392
 30
0.0
 40
0.7499999999998591
100
AcDbArc
 50
328.6002851901
 51
0.0
  0
ARC
  5
4C6
330
1F
100
AcDbEntity
  8
0
  6
Continuous
 62
     7
370
    25
100
AcDbCircle
 10
17.3403300859
 20
-31.6303300859
 30
0.0
 40
0.7500000000000033
100
AcDbArc
 50
58.6002851901
 51
211.3997148099
  0
ARC
  5
4C7
330
1F
100
AcDbEntity
  8
0
  6
Continuous
 62
     7
370
    25
100
AcDbCircle
 10
16.06
 20
-32.4118381608
 30
0.0
 40
0.7499999999997601
100
AcDbArc
 50
360.0
 51
31.3997148099
  0
ARC
  5
4C8
330
1F
100
AcDbEntity
  8
0
  6
Continuous
 62
     7
370
    25
100
AcDbCircle
 10
16.06
 20
-43.7881618392
 30
0.0
 40
0.7499999999998749
100
AcDbArc
 50
328.6002851901
 51
0.0
  0
ARC
  5
4C9
330
1F
100
AcDbEntity
  8
0
  6
Continuous
 62
     7
370
    25
100
AcDbCircle
 10
17.3403300859
 20
-44.5696699141
 30
0.0
 40
0.7500000000000053
100
AcDbArc
 50
148.6002851901
 51
301.3997148099
  0
ARC
  5
4CA
330
1F
100
AcDbEntity
  8
0
  6
Continuous
 62
     7
370
    25
100
AcDbCircle
 10
18.1218381608
 20
-45.85
 30
0.0
 40
0.7499999999998227
100
AcDbArc
 50
90.0
 51
121.3997148099
  0
ARC
  5
4CB
330
1F
100
AcDbEntity
  8
0
  6
Continuous
 62
     7
370
    25
100
AcDbCircle
 10
29.4981618392
 20
-45.85
 30
0.0
 40
0.7499999999998508
100
AcDbArc
 50
58.6002851901
 51
90.0
  0
ARC
  5
4CC
330
1F
100
AcDbEntity
  8
0
  6
Continuous
 62
     7
370
    25
100
AcDbCircle
 10
30.2796699141
 20
-44.5696699141
 30
0.0
 40
0.7500000000000012
100
AcDbArc
 50
238.6002851901
 51
31.3997148099
  0
ARC
  5
4CD
330
1F
100
AcDbEntity
  8
0
  6
Continuous
 62
     7
370
    25
100
AcDbCircle
 10
31.56
 20
-43.7881618392
 30
0.0
 40
0.7499999999998046
100
AcDbArc
 50
180.0
 51
211.3997148099
  0
ARC
  5
4CE
330
1F
100
AcDbEntity
  8
0
  6
Continuous
 62
     7
370
    25
100
AcDbCircle
 10
31.56
 20
-32.4118381608
 30
0.0
 40
0.7500000000000568
100
AcDbArc
 50
148.6002851901
 51
180.0
  0
ARC
  5
4CF
330
1F
100
AcDbEntity
  8
0
  6
Continuous
 62
     7
370
    25
100
AcDbCircle
 10
30.2796699141
 20
-31.6303300859
 30
0.0
 40
0.7499999999999963
100
AcDbArc
 50
328.6002851901
 51
121.3997148099
  0
ARC
  5
4D0
330
1F
100
AcDbEntity
  8
0
  6
Continuous
 62
     7
370
    25
100
AcDbCircle
 10
29.4981618392
 20
-30.35
 30
0.0
 40
0.7499999999997589
100
AcDbArc
 50
270.0
 51
301.3997148099
  0
ARC
  5
4D1
330
1F
100
AcDbEntity
  8
0
  6
Continuous
 62
     7
370
    25
100
AcDbCircle
 10
18.1218381608
 20
-30.35
 30
0.0
 40
0.7499999999997424
100
AcDbArc
 50
238.6002851901
 51
270.0
  0
ARC
  5
4D2
330
1F
100
AcDbEntity
  8
0
  6
Continuous
 62
     7
370
    25
100
AcDbCircle
 10
17.3403300859
 20
31.6303300859
 30
0.0
 40
0.7500000000000052
100
AcDbArc
 50
148.6002851901
 51
301.3997148099
  0
ARC
  5
4D3
330
1F
100
AcDbEntity
  8
0
  6
Continuous
 62
     7
370
    25
100
AcDbCircle
 10
18.1218381608
 20
30.35
 30
0.0
 40
0.7499999999997122
100
AcDbArc
 50
90.0
 51
121.3997148099
  0
ARC
  5
4D4
330
1F
100
AcDbEntity
  8
0
  6
Continuous
 62
     7
370
    25
100
AcDbCircle
 10
29.4981618392
 20
30.35
 30
0.0
 40
0.7499999999999397
100
AcDbArc
 50
58.6002851901
 51
90.0
  0
ARC
  5
4D5
330
1F
100
AcDbEntity
  8
0
  6
Continuous
 62
     7
370
    25
100
AcDbCircle
 10
30.2796699141
 20
31.6303300859
 30
0.0
 40
0.7500000000000033
100
AcDbArc
 50
238.6002851901
 51
31.3997148099
  0
ARC
  5
4D6
330
1F
100
AcDbEntity
  8
0
  6
Continuous
 62
     7
370
    25
100
AcDbCircle
 10
31.56
 20
32.4118381608
 30
0.0
 40
0.7499999999997868
100
AcDbArc
 50
180.0
 51
211.3997148099
  0
ARC
  5
4D7
330
1F
100
AcDbEntity
  8
0
  6
Continuous
 62
     7
370
    25
100
AcDbCircle
 10
31.56
 20
43.7881618392
 30
0.0
 40
0.7500000000000036
100
AcDbArc
 50
148.6002851901
 51
180.0
  0
ARC
  5
4D8
330
1F
100
AcDbEntity
  8
0
  6
Continuous
 62
     7
370
    25
100
AcDbCircle
 10
30.2796699141
 20
44.5696699141
 30
0.0
 40
0.7499999999999976
100
AcDbArc
 50
328.6002851901
 51
121.3997148099
  0
ARC
  5
4D9
330
1F
100
AcDbEntity
  8
0
  6
Continuous
 62
     7
370
    25
100
AcDbCircle
 10
29.4981618392
 20
45.85
 30
0.0
 40
0.7499999999997607
100
AcDbArc
 50
270.0
 51
301.3997148099
  0
ARC
  5
4DA
330
1F
100
AcDbEntity
  8
0
  6
Continuous
 62
     7
370
    25
100
AcDbCircle
 10
18.1218381608
 20
45.85
 30
0.0
 40
0.7499999999997314
100
AcDbArc
 50
238.6002851901
 51
270.0
  0
ARC
  5
4DB
330
1F
100
AcDbEntity
  8
0
  6
Continuous
 62
     7
370
    25
100
AcDbCircle
 10
17.3403300859
 20
44.5696699141
 30
0.0
 40
0.7500000000000003
100
AcDbArc
 50
58.6002851901
 51
211.3997148099
  0
ARC
  5
4DC
330
1F
100
AcDbEntity
  8
0
  6
Continuous
 62
     7
370
    25
100
AcDbCircle
 10
16.06
 20
43.7881618392
 30
0.0
 40
0.7499999999997868
100
AcDbArc
 50
360.0
 51
31.3997148099
  0
ARC
  5
4DD
330
1F
100
AcDbEntity
  8
0
  6
Continuous
 62
     7
370
    25
100
AcDbCircle
 10
16.06
 20
32.4118381608
 30
0.0
 40
0.7499999999998659
100
AcDbArc
 50
328.6002851901
 51
0.0
  0
ARC
  5
4DE
330
1F
100
AcDbEntity
  8
0
  6
Continuous
 62
     7
370
    25
100
AcDbCircle
 10
17.3403300859
 20
12.5803300859
 30
0.0
 40
0.7500000000000041
100
AcDbArc
 50
148.6002851901
 51
301.3997148099
  0
ARC
  5
4DF
330
1F
100
AcDbEntity
  8
0
  6
Continuous
 62
     7
370
    25
100
AcDbCircle
 10
18.1218381608
 20
11.3
 30
0.0
 40
0.7499999999998046
100
AcDbArc
 50
90.0
 51
121.3997148099
  0
ARC
  5
4E0
330
1F
100
AcDbEntity
  8
0
  6
Continuous
 62
     7
370
    25
100
AcDbCircle
 10
29.4981618392
 20
11.3
 30
0.0
 40
0.7500000000000054
100
AcDbArc
 50
58.6002851901
 51
90.0
  0
ARC
  5
4E1
330
1F
100
AcDbEntity
  8
0
  6
Continuous
 62
     7
370
    25
100
AcDbCircle
 10
30.2796699141
 20
12.5803300859
 30
0.0
 40
0.7499999999999991
100
AcDbArc
 50
238.6002851901
 51
31.3997148099
  0
ARC
  5
4E2
330
1F
100
AcDbEntity
  8
0
  6
Continuous
 62
     7
370
    25
100
AcDbCircle
 10
31.56
 20
13.3618381608
 30
0.0
 40
0.7499999999997939
100
AcDbArc
 50
180.0
 51
211.3997148099
  0
ARC
  5
4E3
330
1F
100
AcDbEntity
  8
0
  6
Continuous
 62
     7
370
    25
100
AcDbCircle
 10
31.56
 20
24.7381618392
 30
0.0
 40
0.7500000000000213
100
AcDbArc
 50
148.6002851901
 51
180.0
  0
ARC
  5
4E4
330
1F
100
AcDbEntity
  8
0
  6
Continuous
 62
     7
370
    25
100
AcDbCircle
 10
30.2796699141
 20
25.5196699141
 30
0.0
 40
0.7499999999999932
100
AcDbArc
 50
328.6002851901
 51
121.3997148099
  0
ARC
  5
4E5
330
1F
100
AcDbEntity
  8
0
  6
Continuous
 62
     7
370
    25
100
AcDbCircle
 10
29.4981618392
 20
26.8
 30
0.0
 40
0.7499999999998069
100
AcDbArc
 50
270.0
 51
301.3997148099
  0
ARC
  5
4E6
330
1F
100
AcDbEntity
  8
0
  6
Continuous
 62
     7
370
    25
100
AcDbCircle
 10
18.1218381608
 20
26.8
 30
0.0
 40
0.7499999999997813
100
AcDbArc
 50
238.6002851901
 51
270.0
  0
ARC
  5
4E7
330
1F
100
AcDbEntity
  8
0
  6
Continuous
 62
     7
370
    25
100
AcDbCircle
 10
17.3403300859
 20
25.5196699141
 30
0.0
 40
0.7500000000000021
100
AcDbArc
 50
58.6002851901
 51
211.3997148099
  0
ARC
  5
4E8
330
1F
100
AcDbEntity
  8
0
  6
Continuous
 62
     7
370
    25
100
AcDbCircle
 10
16.06
 20
24.7381618392
 30
0.0
 40
0.7499999999998348
100
AcDbArc
 50
360.0
 51
31.3997148099
  0
ARC
  5
4E9
330
1F
100
AcDbEntity
  8
0
  6
Continuous
 62
     7
370
    25
100
AcDbCircle
 10
16.06
 20
13.3618381608
 30
0.0
 40
0.7499999999998863
100
AcDbArc
 50
328.6002851901
 51
0.0
  0
ARC
  5
4EA
330
1F
100
AcDbEntity
  8
0
  6
Continuous
 62
     7
370
    25
100
AcDbCircle
 10
17.3403300859
 20
6.4696699141
 30
0.0
 40
0.7500000000000037
100
AcDbArc
 50
58.6002851901
 51
211.3997148099
  0
ARC
  5
4EB
330
1F
100
AcDbEntity
  8
0
  6
Continuous
 62
     7
370
    25
100
AcDbCircle
 10
16.06
 20
5.6881618392
 30
0.0
 40
0.7499999999997478
100
AcDbArc
 50
360.0
 51
31.3997148099
  0
ARC
  5
4EC
330
1F
100
AcDbEntity
  8
0
  6
Continuous
 62
     7
370
    25
100
AcDbCircle
 10
16.06
 20
-5.6881618392
 30
0.0
 40
0.7499999999997673
100
AcDbArc
 50
328.6002851901
 51
0.0
  0
ARC
  5
4ED
330
1F
100
AcDbEntity
  8
0
  6
Continuous
 62
     7
370
    25
100
AcDbCircle
 10
17.3403300859
 20
-6.4696699141
 30
0.0
 40
0.7500000000000054
100
AcDbArc
 50
148.6002851901
 51
301.3997148099
  0
ARC
  5
4EE
330
1F
100
AcDbEntity
  8
0
  6
Continuous
 62
     7
370
    25
100
AcDbCircle
 10
18.1218381608
 20
-7.75
 30
0.0
 40
0.7499999999997692
100
AcDbArc
 50
90.0
 51
121.3997148099
  0
ARC
  5
4EF
330
1F
100
AcDbEntity
  8
0
  6
Continuous
 62
     7
370
    25
100
AcDbCircle
 10
29.4981618392
 20
-7.75
 30
0.0
 40
0.7499999999999654
100
AcDbArc
 50
58.6002851901
 51
90.0
  0
ARC
  5
4F0
330
1F
100
AcDbEntity
  8
0
  6
Continuous
 62
     7
370
    25
100
AcDbCircle
 10
30.2796699141
 20
-6.4696699141
 30
0.0
 40
0.750000000000004
100
AcDbArc
 50
238.6002851901
 51
31.3997148099
  0
ARC
  5
4F1
330
1F
100
AcDbEntity
  8
0
  6
Continuous
 62
     7
370
    25
100
AcDbCircle
 10
31.56
 20
-5.6881618392
 30
0.0
 40
0.7499999999997229
100
AcDbArc
 50
180.0
 51
211.3997148099
  0
ARC
  5
4F2
330
1F
100
AcDbEntity
  8
0
  6
Continuous
 62
     7
370
    25
100
AcDbCircle
 10
31.56
 20
5.6881618392
 30
0.0
 40
0.7499999999999575
100
AcDbArc
 50
148.6002851901
 51
180.0
  0
ARC
  5
4F3
330
1F
100
AcDbEntity
  8
0
  6
Continuous
 62
     7
370
    25
100
AcDbCircle
 10
30.2796699141
 20
6.4696699141
 30
0.0
 40
0.7499999999999919
100
AcDbArc
 50
328.6002851901
 51
121.3997148099
  0
ARC
  5
4F4
330
1F
100
AcDbEntity
  8
0
  6
Continuous
 62
     7
370
    25
100
AcDbCircle
 10
29.4981618392
 20
7.75
 30
0.0
 40
0.7499999999997983
100
AcDbArc
 50
270.0
 51
301.3997148099
  0
ARC
  5
4F5
330
1F
100
AcDbEntity
  8
0
  6
Continuous
 62
     7
370
    25
100
AcDbCircle
 10
18.1218381608
 20
7.75
 30
0.0
 40
0.7499999999997744
100
AcDbArc
 50
238.6002851901
 51
270.0
  0
ARC
  5
4F6
330
1F
100
AcDbEntity
  8
0
  6
Continuous
 62
     7
370
    25
100
AcDbCircle
 10
68.3796699141
 20
-44.5696699141
 30
0.0
 40
0.7499999999999952
100
AcDbArc
 50
238.6002851901
 51
31.3997148099
  0
ARC
  5
4F7
330
1F
100
AcDbEntity
  8
0
  6
Continuous
 62
     7
370
    25
100
AcDbCircle
 10
69.66
 20
-43.7881618392
 30
0.0
 40
0.7499999999999626
100
AcDbArc
 50
180.0
 51
211.3997148099
  0
ARC
  5
4F8
330
1F
100
AcDbEntity
  8
0
  6
Continuous
 62
     7
370
    25
100
AcDbCircle
 10
69.66
 20
-32.4118381608
 30
0.0
 40
0.7500000000000853
100
AcDbArc
 50
148.6002851901
 51
180.0
  0
ARC
  5
4F9
330
1F
100
AcDbEntity
  8
0
  6
Continuous
 62
     7
370
    25
100
AcDbCircle
 10
68.3796699141
 20
-31.6303300859
 30
0.0
 40
0.7499999999999856
100
AcDbArc
 50
328.6002851901
 51
121.3997148099
  0
ARC
  5
4FA
330
1F
100
AcDbEntity
  8
0
  6
Continuous
 62
     7
370
    25
100
AcDbCircle
 10
67.5981618392
 20
-30.35
 30
0.0
 40
0.749999999999796
100
AcDbArc
 50
270.0
 51
301.3997148099
  0
ARC
  5
4FB
330
1F
100
AcDbEntity
  8
0
  6
Continuous
 62
     7
370
    25
100
AcDbCircle
 10
37.1718381608
 20
-30.35
 30
0.0
 40
0.7499999999997667
100
AcDbArc
 50
238.6002851901
 51
270.0
  0
ARC
  5
4FC
330
1F
100
AcDbEntity
  8
0
  6
Continuous
 62
     7
370
    25
100
AcDbCircle
 10
36.3903300859
 20
-31.6303300859
 30
0.0
 40
0.7500000000000033
100
AcDbArc
 50
58.6002851901
 51
211.3997148099
  0
ARC
  5
4FD
330
1F
100
AcDbEntity
  8
0
  6
Continuous
 62
     7
370
    25
100
AcDbCircle
 10
35.11
 20
-32.4118381608
 30
0.0
 40
0.749999999999745
100
AcDbArc
 50
360.0
 51
31.3997148099
  0
ARC
  5
4FE
330
1F
100
AcDbEntity
  8
0
  6
Continuous
 62
     7
370
    25
100
AcDbCircle
 10
35.11
 20
-43.7881618392
 30
0.0
 40
0.7499999999997035
100
AcDbArc
 50
328.6002851901
 51
0.0
  0
ARC
  5
4FF
330
1F
100
AcDbEntity
  8
0
  6
Continuous
 62
     7
370
    25
100
AcDbCircle
 10
36.3903300859
 20
-44.5696699141
 30
0.0
 40
0.7500000000000063
100
AcDbArc
 50
148.6002851901
 51
301.3997148099
  0
ARC
  5
500
330
1F
100
AcDbEntity
  8
0
  6
Continuous
 62
     7
370
    25
100
AcDbCircle
 10
37.1718381608
 20
-45.85
 30
0.0
 40
0.7499999999998762
100
AcDbArc
 50
90.0
 51
121.3997148099
  0
ARC
  5
501
330
1F
100
AcDbEntity
  8
0
  6
Continuous
 62
     7
370
    25
100
AcDbCircle
 10
67.5981618392
 20
-45.85
 30
0.0
 40
0.750000000000064
100
AcDbArc
 50
58.6002851901
 51
90.0
  0
ARC
  5
502
330
1F
100
AcDbEntity
  8
0
  6
Continuous
 62
     7
370
    25
100
AcDbCircle
 10
-0.9281618392
 20
26.8
 30
0.0
 40
0.7499999999997696
100
AcDbArc
 50
238.6002851901
 51
270.0
  0
ENDSEC
  0
SECTION
  2
OBJECTS
  0
DICTIONARY
  5
C
330
0
100
AcDbDictionary
281
     1
  3
ACAD_GROUP
350
D
  3
ACAD_LAYOUT
350
1A
  3
ACAD_MLINESTYLE
350
17
  3
ACAD_PLOTSETTINGS
350
19
  3
ACAD_PLOTSTYLENAME
350
E
  3
ACAD_SCALELIST
350
47
  3
DWGPROPS
350
503
  0
DICTIONARY
  5
D
102
{ACAD_REACTORS
330
C
102
}
330
C
100
AcDbDictionary
281
     1
  0
DICTIONARY
  5
1A
102
{ACAD_REACTORS
330
C
102
}
330
C
100
AcDbDictionary
281
     1
  3
Layout1
350
1E
  3
Layout2
350
26
  3
Model
350
22
  0
DICTIONARY
  5
17
102
{ACAD_REACTORS
330
C
102
}
330
C
100
AcDbDictionary
281
     1
  3
Standard
350
18
  0
DICTIONARY
  5
19
102
{ACAD_REACTORS
330
C
102
}
330
C
100
AcDbDictionary
281
     1
  0
ACDBDICTIONARYWDFLT
  5
E
102
{ACAD_REACTORS
330
C
102
}
330
C
100
AcDbDictionary
281
     1
  3
Normal
350
F
100
AcDbDictionaryWithDefault
340
F
  0
DICTIONARY
  5
47
102
{ACAD_REACTORS
330
C
102
}
330
C
100
AcDbDictionary
281
     1
  3
A0
350
48
  3
A1
350
49
  3
A2
350
4A
  3
A3
350
4B
  3
A4
350
4C
  3
A5
350
4D
  3
A6
350
4E
  3
A7
350
4F
  3
A8
350
50
  3
A9
350
51
  3
B0
350
52
  3
B1
350
53
  3
B2
350
54
  3
B3
350
55
  3
B4
350
56
  3
B5
350
57
  3
B6
350
58
  0
XRECORD
  5
503
102
{ACAD_REACTORS
330
C
102
}
330
C
100
AcDbXrecord
280
     1
  1
DWGPROPS COOKIE
  2

  3

  4

  6

  7

  8
legon
  9

300
=
301
=
302
=
303
=
304
=
305
=
306
=
307
=
308
=
309
=
 40
0.0
 41
2460218.794412535
 42
2460218.794441863
  1

 90
        0
  0
LAYOUT
  5
1E
102
{ACAD_REACTORS
330
1A
102
}
330
1A
100
AcDbPlotSettings
  1

  2
none_device
  4

  6

 40
0.0
 41
0.0
 42
0.0
 43
0.0
 44
0.0
 45
0.0
 46
0.0
 47
0.0
 48
0.0
 49
0.0
140
0.0
141
0.0
142
1.0
143
1.0
 70
   688
 72
     1
 73
     0
 74
     5
  7

 75
    16
147
1.0
148
0.0
149
0.0
100
AcDbLayout
  1
Layout1
 70
     1
 71
     1
 10
0.0
 20
0.0
 11
420.0
 21
297.0
 12
0.0
 22
0.0
 32
0.0
 14
1.0000000000E+20
 24
1.0000000000E+20
 34
1.0000000000E+20
 15
-1.0000000000E+20
 25
-1.0000000000E+20
 35
-1.0000000000E+20
146
0.0
 13
0.0
 23
0.0
 33
0.0
 16
1.0
 26
0.0
 36
0.0
 17
0.0
 27
1.0
 37
0.0
 76
     0
330
1B
  0
LAYOUT
  5
26
102
{ACAD_REACTORS
330
1A
102
}
330
1A
100
AcDbPlotSettings
  1

  2
none_device
  4

  6

 40
0.0
 41
0.0
 42
0.0
 43
0.0
 44
0.0
 45
0.0
 46
0.0
 47
0.0
 48
0.0
 49
0.0
140
0.0
141
0.0
142
1.0
143
1.0
 70
   688
 72
     1
 73
     0
 74
     5
  7

 75
    16
147
1.0
148
0.0
149
0.0
100
AcDbLayout
  1
Layout2
 70
     1
 71
     2
 10
0.0
 20
0.0
 11
0.0
 21
0.0
 12
0.0
 22
0.0
 32
0.0
 14
0.0
 24
0.0
 34
0.0
 15
0.0
 25
0.0
 35
0.0
146
0.0
 13
0.0
 23
0.0
 33
0.0
 16
1.0
 26
0.0
 36
0.0
 17
0.0
 27
1.0
 37
0.0
 76
     0
330
23
  0
LAYOUT
  5
22
102
{ACAD_REACTORS
330
1A
102
}
330
1A
100
AcDbPlotSettings
  1

  2
none_device
  4
ANSI_A_(11.00_x_8.50_Inches)
  6

 40
6.35
 41
19.05
 42
6.35000508
 43
19.05000254
 44
279.4
 45
215.9
 46
133.34999746
 47
88.89999873
 48
0.0
 49
0.0
140
0.0
141
0.0
142
0.0712346688
143
1.0
 70
  1696
 72
     0
 73
     0
 74
     0
  7

 75
     0
147
0.0179189148
148
-1300.4909072572
149
0.0
100
AcDbLayout
  1
Model
 70
     1
 71
     0
 10
0.0
 20
0.0
 11
420.0
 21
297.0
 12
0.0
 22
0.0
 32
0.0
 14
-76.4375
 24
-47.625
 34
0.0
 15
76.4375
 25
47.625
 35
0.0
146
0.0
 13
0.0
 23
0.0
 33
0.0
 16
1.0
 26
0.0
 36
0.0
 17
0.0
 27
1.0
 37
0.0
 76
     0
330
1F
331
29
  0
MLINESTYLE
  5
18
102
{ACAD_REACTORS
330
17
102
}
330
17
100
AcDbMlineStyle
  2
Standard
 70
     0
  3

 62
   256
 51
90.0
 52
90.0
 71
     2
 49
0.5
 62
   256
  6
BYLAYER
 49
-0.5
 62
   256
  6
BYLAYER
  0
ACDBPLACEHOLDER
  5
F
102
{ACAD_REACTORS
330
E
102
}
330
E
  0
SCALE
  5
48
102
{ACAD_REACTORS
330
47
102
}
330
47
100
AcDbScale
 70
     0
300
1:1
140
1.0
141
1.0
290
     1
  0
SCALE
  5
49
102
{ACAD_REACTORS
330
47
102
}
330
47
100
AcDbScale
 70
     0
300
1:2
140
1.0
141
2.0
290
     0
  0
SCALE
  5
4A
102
{ACAD_REACTORS
330
47
102
}
330
47
100
AcDbScale
 70
     0
300
1:4
140
1.0
141
4.0
290
     0
  0
SCALE
  5
4B
102
{ACAD_REACTORS
330
47
102
}
330
47
100
AcDbScale
 70
     0
300
1:5
140
1.0
141
5.0
290
     0
  0
SCALE
  5
4C
102
{ACAD_REACTORS
330
47
102
}
330
47
100
AcDbScale
 70
     0
300
1:8
140
1.0
141
8.0
290
     0
  0
SCALE
  5
4D
102
{ACAD_REACTORS
330
47
102
}
330
47
100
AcDbScale
 70
     0
300
1:10
140
1.0
141
10.0
290
     0
  0
SCALE
  5
4E
102
{ACAD_REACTORS
330
47
102
}
330
47
100
AcDbScale
 70
     0
300
1:16
140
1.0
141
16.0
290
     0
  0
SCALE
  5
4F
102
{ACAD_REACTORS
330
47
102
}
330
47
100
AcDbScale
 70
     0
300
1:20
140
1.0
141
20.0
290
     0
  0
SCALE
  5
50
102
{ACAD_REACTORS
330
47
102
}
330
47
100
AcDbScale
 70
     0
300
1:30
140
1.0
141
30.0
290
     0
  0
SCALE
  5
51
102
{ACAD_REACTORS
330
47
102
}
330
47
100
AcDbScale
 70
     0
300
1:40
140
1.0
141
40.0
290
     0
  0
SCALE
  5
52
102
{ACAD_REACTORS
330
47
102
}
330
47
100
AcDbScale
 70
     0
300
1:50
140
1.0
141
50.0
290
     0
  0
SCALE
  5
53
102
{ACAD_REACTORS
330
47
102
}
330
47
100
AcDbScale
 70
     0
300
1:100
140
1.0
141
100.0
290
     0
  0
SCALE
  5
54
102
{ACAD_REACTORS
330
47
102
}
330
47
100
AcDbScale
 70
     0
300
2:1
140
2.0
141
1.0
290
     0
  0
SCALE
  5
55
102
{ACAD_REACTORS
330
47
102
}
330
47
100
AcDbScale
 70
     0
300
4:1
140
4.0
141
1.0
290
     0
  0
SCALE
  5
56
102
{ACAD_REACTORS
330
47
102
}
330
47
100
AcDbScale
 70
     0
300
8:1
140
8.0
141
1.0
290
     0
  0
SCALE
  5
57
102
{ACAD_REACTORS
330
47
102
}
330
47
100
AcDbScale
 70
     0
300
10:1
140
10.0
141
1.0
290
     0
  0
SCALE
  5
58
102
{ACAD_REACTORS
330
47
102
}
330
47
100
AcDbScale
 70
     0
300
100:1
140
100.0
141
1.0
290
     0
  0
ENDSEC
  0
EOF
