  0
SECTION
  2
HEADER
  9
$ACADVER
  1
AC1015
  9
$ACADMAINTVER
 70
     6
  9
$DWGCODEPAGE
  3
ANSI_1252
  9
$INSBASE
 10
0.0
 20
0.0
 30
0.0
  9
$EXTMIN
 10
-11.7625
 20
-131.5958888784
 30
0.0
  9
$EXTMAX
 10
150.7283154903
 20
6.9999999981
 30
0.0
  9
$LIMMIN
 10
0.0
 20
0.0
  9
$LIMMAX
 10
420.0
 20
297.0
  9
$ORTHOMODE
 70
     0
  9
$REGENMODE
 70
     1
  9
$FILLMODE
 70
     1
  9
$QTEXTMODE
 70
     0
  9
$MIRRTEXT
 70
     1
  9
$LTSCALE
 40
1.0
  9
$ATTMODE
 70
     1
  9
$TEXTSIZE
 40
3.5
  9
$TRACEWID
 40
1.0
  9
$TEXTSTYLE
  7
Standard
  9
$CLAYER
  8
0
  9
$CELTYPE
  6
ByLayer
  9
$CECOLOR
 62
   256
  9
$CELTSCALE
 40
1.0
  9
$DISPSILH
 70
     0
  9
$DIMSCALE
 40
1.0
  9
$DIMASZ
 40
3.556
  9
$DIMEXO
 40
1.0
  9
$DIMDLI
 40
3.75
  9
$DIMRND
 40
0.0
  9
$DIMDLE
 40
0.0
  9
$DIMEXE
 40
1.0
  9
$DIMTP
 40
0.0
  9
$DIMTM
 40
0.0
  9
$DIMTXT
 40
3.5
  9
$DIMCEN
 40
2.5
  9
$DIMTSZ
 40
0.0
  9
$DIMTOL
 70
     0
  9
$DIMLIM
 70
     0
  9
$DIMTIH
 70
     1
  9
$DIMTOH
 70
     1
  9
$DIMSE1
 70
     0
  9
$DIMSE2
 70
     0
  9
$DIMTAD
 70
     1
  9
$DIMZIN
 70
     1
  9
$DIMBLK
  1

  9
$DIMASO
 70
     1
  9
$DIMSHO
 70
     1
  9
$DIMPOST
  1

  9
$DIMAPOST
  1

  9
$DIMALT
 70
     0
  9
$DIMALTD
 70
     3
  9
$DIMALTF
 40
0.0393700787
  9
$DIMLFAC
 40
1.0
  9
$DIMTOFL
 70
     1
  9
$DIMTVP
 40
0.0
  9
$DIMTIX
 70
     0
  9
$DIMSOXD
 70
     0
  9
$DIMSAH
 70
     0
  9
$DIMBLK1
  1

  9
$DIMBLK2
  1

  9
$DIMSTYLE
  2
ISO-25
  9
$DIMCLRD
 70
     0
  9
$DIMCLRE
 70
     0
  9
$DIMCLRT
 70
     0
  9
$DIMTFAC
 40
1.0
  9
$DIMGAP
 40
1.524
  9
$DIMJUST
 70
     0
  9
$DIMSD1
 70
     0
  9
$DIMSD2
 70
     0
  9
$DIMTOLJ
 70
     0
  9
$DIMTZIN
 70
     1
  9
$DIMALTZ
 70
     0
  9
$DIMALTTZ
 70
     0
  9
$DIMUPT
 70
     0
  9
$DIMDEC
 70
     2
  9
$DIMTDEC
 70
     2
  9
$DIMALTU
 70
     2
  9
$DIMALTTD
 70
     3
  9
$DIMTXSTY
  7
Standard
  9
$DIMAUNIT
 70
     0
  9
$DIMADEC
 70
     2
  9
$DIMALTRND
 40
0.0
  9
$DIMAZIN
 70
     0
  9
$DIMDSEP
 70
    44
  9
$DIMATFIT
 70
     3
  9
$DIMFRAC
 70
     0
  9
$DIMLDRBLK
  1

  9
$DIMLUNIT
 70
     2
  9
$DIMLWD
 70
    -2
  9
$DIMLWE
 70
    -2
  9
$DIMTMOVE
 70
     0
  9
$LUNITS
 70
     2
  9
$LUPREC
 70
     2
  9
$SKETCHINC
 40
1.0
  9
$FILLETRAD
 40
10.0
  9
$AUNITS
 70
     0
  9
$AUPREC
 70
     2
  9
$MENU
  1
.
  9
$ELEVATION
 40
0.0
  9
$PELEVATION
 40
0.0
  9
$THICKNESS
 40
0.0
  9
$LIMCHECK
 70
     0
  9
$CHAMFERA
 40
0.0
  9
$CHAMFERB
 40
0.0
  9
$CHAMFERC
 40
0.0
  9
$CHAMFERD
 40
0.0
  9
$SKPOLY
 70
     0
  9
$TDCREATE
 40
2459211.617627963
  9
$TDUCREATE
 40
2459211.825961296
  9
$TDUPDATE
 40
2459211.617888773
  9
$TDUUPDATE
 40
2459211.826222106
  9
$TDINDWG
 40
0.0000000116
  9
$TDUSRTIMER
 40
0.0000000116
  9
$USRTIMER
 70
     1
  9
$ANGBASE
 50
0.0
  9
$ANGDIR
 70
     0
  9
$PDMODE
 70
     0
  9
$PDSIZE
 40
-1.0
  9
$PLINEWID
 40
0.0
  9
$SPLFRAME
 70
     0
  9
$SPLINETYPE
 70
     6
  9
$SPLINESEGS
 70
     8
  9
$HANDSEED
  5
71D
  9
$SURFTAB1
 70
     6
  9
$SURFTAB2
 70
     6
  9
$SURFTYPE
 70
     6
  9
$SURFU
 70
     6
  9
$SURFV
 70
     6
  9
$UCSBASE
  2

  9
$UCSNAME
  2

  9
$UCSORG
 10
0.0
 20
0.0
 30
0.0
  9
$UCSXDIR
 10
1.0
 20
0.0
 30
0.0
  9
$UCSYDIR
 10
0.0
 20
1.0
 30
0.0
  9
$UCSORTHOREF
  2

  9
$UCSORTHOVIEW
 70
     0
  9
$UCSORGTOP
 10
0.0
 20
0.0
 30
0.0
  9
$UCSORGBOTTOM
 10
0.0
 20
0.0
 30
0.0
  9
$UCSORGLEFT
 10
0.0
 20
0.0
 30
0.0
  9
$UCSORGRIGHT
 10
0.0
 20
0.0
 30
0.0
  9
$UCSORGFRONT
 10
0.0
 20
0.0
 30
0.0
  9
$UCSORGBACK
 10
0.0
 20
0.0
 30
0.0
  9
$PUCSBASE
  2

  9
$PUCSNAME
  2

  9
$PUCSORG
 10
0.0
 20
0.0
 30
0.0
  9
$PUCSXDIR
 10
1.0
 20
0.0
 30
0.0
  9
$PUCSYDIR
 10
0.0
 20
1.0
 30
0.0
  9
$PUCSORTHOREF
  2

  9
$PUCSORTHOVIEW
 70
     0
  9
$PUCSORGTOP
 10
0.0
 20
0.0
 30
0.0
  9
$PUCSORGBOTTOM
 10
0.0
 20
0.0
 30
0.0
  9
$PUCSORGLEFT
 10
0.0
 20
0.0
 30
0.0
  9
$PUCSORGRIGHT
 10
0.0
 20
0.0
 30
0.0
  9
$PUCSORGFRONT
 10
0.0
 20
0.0
 30
0.0
  9
$PUCSORGBACK
 10
0.0
 20
0.0
 30
0.0
  9
$USERI1
 70
     0
  9
$USERI2
 70
     0
  9
$USERI3
 70
     0
  9
$USERI4
 70
     0
  9
$USERI5
 70
     0
  9
$USERR1
 40
0.0
  9
$USERR2
 40
0.0
  9
$USERR3
 40
0.0
  9
$USERR4
 40
0.0
  9
$USERR5
 40
0.0
  9
$WORLDVIEW
 70
     1
  9
$SHADEDGE
 70
     3
  9
$SHADEDIF
 70
    70
  9
$TILEMODE
 70
     1
  9
$MAXACTVP
 70
    64
  9
$PINSBASE
 10
0.0
 20
0.0
 30
0.0
  9
$PLIMCHECK
 70
     0
  9
$PEXTMIN
 10
1.0000000000E+20
 20
1.0000000000E+20
 30
1.0000000000E+20
  9
$PEXTMAX
 10
-1.0000000000E+20
 20
-1.0000000000E+20
 30
-1.0000000000E+20
  9
$PLIMMIN
 10
0.0
 20
0.0
  9
$PLIMMAX
 10
420.0
 20
297.0
  9
$UNITMODE
 70
     0
  9
$VISRETAIN
 70
     1
  9
$PLINEGEN
 70
     0
  9
$PSLTSCALE
 70
     1
  9
$TREEDEPTH
 70
  3020
  9
$CMLSTYLE
  2
Standard
  9
$CMLJUST
 70
     0
  9
$CMLSCALE
 40
20.0
  9
$PROXYGRAPHICS
 70
     1
  9
$MEASUREMENT
 70
     1
  9
$CELWEIGHT
370
    -1
  9
$ENDCAPS
280
     0
  9
$JOINSTYLE
280
     0
  9
$LWDISPLAY
290
     1
  9
$INSUNITS
 70
     4
  9
$HYPERLINKBASE
  1

  9
$STYLESHEET
  1

  9
$XEDIT
290
     1
  9
$CEPSNTYPE
380
     0
  9
$PSTYLEMODE
290
     1
  9
$FINGERPRINTGUID
  2
{9d03017b-238a-4d48-9523-fcf49c724240}
  9
$VERSIONGUID
  2
{FAEB1C32-E019-11D5-929B-00C0DF256EC4}
  9
$EXTNAMES
290
     1
  9
$PSVPSCALE
 40
0.0
  9
$OLESTARTUP
290
     0
  0
ENDSEC
  0
SECTION
  2
CLASSES
  0
CLASS
  1
ACDBDICTIONARYWDFLT
  2
AcDbDictionaryWithDefault
  3
ObjectDBX Classes
 90
        0
280
     0
281
     0
  0
CLASS
  1
VISUALSTYLE
  2
AcDbVisualStyle
  3
ObjectDBX Classes
 90
     4095
280
     0
281
     0
  0
CLASS
  1
MATERIAL
  2
AcDbMaterial
  3
ObjectDBX Classes
 90
     1153
280
     0
281
     0
  0
CLASS
  1
SCALE
  2
AcDbScale
  3
ObjectDBX Classes
 90
     1153
280
     0
281
     0
  0
CLASS
  1
TABLESTYLE
  2
AcDbTableStyle
  3
ObjectDBX Classes
 90
     4095
280
     0
281
     0
  0
CLASS
  1
MLEADERSTYLE
  2
AcDbMLeaderStyle
  3
ACDB_MLEADERSTYLE_CLASS
 90
     4095
280
     0
281
     0
  0
CLASS
  1
SUN
  2
AcDbSun
  3
SCENEOE
 90
     1153
280
     0
281
     0
  0
CLASS
  1
ACDBPLACEHOLDER
  2
AcDbPlaceHolder
  3
ObjectDBX Classes
 90
        0
280
     0
281
     0
  0
CLASS
  1
LAYOUT
  2
AcDbLayout
  3
ObjectDBX Classes
 90
        0
280
     0
281
     0
  0
ENDSEC
  0
SECTION
  2
TABLES
  0
TABLE
  2
VPORT
  5
8
330
0
100
AcDbSymbolTable
 70
     1
  0
VPORT
  5
29
330
8
100
AcDbSymbolTableRecord
100
AcDbViewportTableRecord
  2
*Active
 70
     0
 10
0.0
 20
0.0
 11
1.0
 21
1.0
 12
69.4829077452
 22
-62.2979444402
 13
0.0
 23
0.0
 14
10.0
 24
10.0
 15
10.0
 25
10.0
 16
0.0
 26
0.0
 36
1.0
 17
0.0
 27
0.0
 37
0.0
 40
141.367806654
 41
1.1724071818
 42
50.0
 43
0.0
 44
0.0
 50
0.0
 51
0.0
 71
     0
 72
   100
 73
     1
 74
     3
 75
     0
 76
     0
 77
     0
 78
     0
281
     0
 65
     1
110
0.0
120
0.0
130
0.0
111
1.0
121
0.0
131
0.0
112
0.0
122
1.0
132
0.0
 79
     0
146
0.0
  0
ENDTAB
  0
TABLE
  2
LTYPE
  5
5
330
0
100
AcDbSymbolTable
 70
     6
  0
LTYPE
  5
14
330
5
100
AcDbSymbolTableRecord
100
AcDbLinetypeTableRecord
  2
ByBlock
 70
     0
  3

 72
    65
 73
     0
 40
0.0
  0
LTYPE
  5
15
330
5
100
AcDbSymbolTableRecord
100
AcDbLinetypeTableRecord
  2
ByLayer
 70
     0
  3

 72
    65
 73
     0
 40
0.0
  0
LTYPE
  5
16
330
5
100
AcDbSymbolTableRecord
100
AcDbLinetypeTableRecord
  2
Continuous
 70
     0
  3
Solid line
 72
    65
 73
     0
 40
0.0
  0
LTYPE
  5
6E
330
5
100
AcDbSymbolTableRecord
100
AcDbLinetypeTableRecord
  2
HIDDEN
 70
     0
  3
Hidden __ __ __ __ __ __ __ __ __ __ __ __ __ __
 72
    65
 73
     2
 40
1.905
 49
1.27
 74
     0
 49
-0.635
 74
     0
  0
LTYPE
  5
6F
330
5
100
AcDbSymbolTableRecord
100
AcDbLinetypeTableRecord
  2
PHANTOM
 70
     0
  3
Phantom ______  __  __  ______  __  __  ______
 72
    65
 73
     6
 40
12.7
 49
6.35
 74
     0
 49
-1.27
 74
     0
 49
1.27
 74
     0
 49
-1.27
 74
     0
 49
1.27
 74
     0
 49
-1.27
 74
     0
  0
LTYPE
  5
70
330
5
100
AcDbSymbolTableRecord
100
AcDbLinetypeTableRecord
  2
CENTER
 70
     0
  3
Center ____ _ ____ _ ____ _ ____ _ ____ _ ____
 72
    65
 73
     4
 40
10.16
 49
6.35
 74
     0
 49
-1.27
 74
     0
 49
1.27
 74
     0
 49
-1.27
 74
     0
  0
LTYPE
  5
71
330
5
100
AcDbSymbolTableRecord
100
AcDbLinetypeTableRecord
  2
CENTERX2
 70
     0
  3
Center (2x) ________  __  ________  __  _____
 72
    65
 73
     4
 40
20.32
 49
12.7
 74
     0
 49
-2.54
 74
     0
 49
2.54
 74
     0
 49
-2.54
 74
     0
  0
LTYPE
  5
72
330
5
100
AcDbSymbolTableRecord
100
AcDbLinetypeTableRecord
  2
DOT2
 70
     0
  3
Dot (.5x) ........................................
 72
    65
 73
     2
 40
0.635
 49
0.0
 74
     0
 49
-0.635
 74
     0
  0
ENDTAB
  0
TABLE
  2
LAYER
  5
2
330
0
100
AcDbSymbolTable
 70
     1
  0
LAYER
  5
10
330
2
100
AcDbSymbolTableRecord
100
AcDbLayerTableRecord
  2
0
 70
     0
 62
     7
  6
Continuous
370
    -3
390
F
  0
ENDTAB
  0
TABLE
  2
STYLE
  5
3
330
0
100
AcDbSymbolTable
 70
     1
  0
STYLE
  5
11
330
3
100
AcDbSymbolTableRecord
100
AcDbTextStyleTableRecord
  2
Standard
 70
     0
 40
0.0
 41
1.0
 50
0.0
 71
     0
 42
3.5
  3
txt
  4

  0
ENDTAB
  0
TABLE
  2
VIEW
  5
6
330
0
100
AcDbSymbolTable
 70
     0
  0
ENDTAB
  0
TABLE
  2
UCS
  5
7
330
0
100
AcDbSymbolTable
 70
     0
  0
ENDTAB
  0
TABLE
  2
APPID
  5
9
330
0
100
AcDbSymbolTable
 70
     1
  0
APPID
  5
12
330
9
100
AcDbSymbolTableRecord
100
AcDbRegAppTableRecord
  2
ACAD
 70
     0
  0
ENDTAB
  0
TABLE
  2
DIMSTYLE
  5
A
330
0
100
AcDbSymbolTable
 70
     1
100
AcDbDimStyleTable
  0
DIMSTYLE
105
27
330
A
100
AcDbSymbolTableRecord
100
AcDbDimStyleTableRecord
  2
ISO-25
 70
     0
 41
2.5
 42
0.625
 43
3.75
 44
1.25
 73
     0
 74
     0
 77
     1
 78
     8
140
2.5
141
2.5
143
0.0393700787
147
0.625
171
     3
172
     1
178
     0
271
     2
272
     2
274
     3
278
    44
283
     0
284
     8
340
11
  0
ENDTAB
  0
TABLE
  2
BLOCK_RECORD
  5
1
330
0
100
AcDbSymbolTable
 70
     1
  0
BLOCK_RECORD
  5
1F
330
1
100
AcDbSymbolTableRecord
100
AcDbBlockTableRecord
  2
*Model_Space
340
22
  0
BLOCK_RECORD
  5
1B
330
1
100
AcDbSymbolTableRecord
100
AcDbBlockTableRecord
  2
*Paper_Space
340
1E
  0
BLOCK_RECORD
  5
23
330
1
100
AcDbSymbolTableRecord
100
AcDbBlockTableRecord
  2
*Paper_Space0
340
26
  0
ENDTAB
  0
ENDSEC
  0
SECTION
  2
BLOCKS
  0
BLOCK
  5
20
330
1F
100
AcDbEntity
  8
0
100
AcDbBlockBegin
  2
*Model_Space
 70
     0
 10
0.0
 20
0.0
 30
0.0
  3
*Model_Space
  1

  0
ENDBLK
  5
21
330
1F
100
AcDbEntity
  8
0
100
AcDbBlockEnd
  0
BLOCK
  5
1C
330
1B
100
AcDbEntity
 67
     1
  8
0
100
AcDbBlockBegin
  2
*Paper_Space
 70
     0
 10
0.0
 20
0.0
 30
0.0
  3
*Paper_Space
  1

  0
ENDBLK
  5
1D
330
1B
100
AcDbEntity
 67
     1
  8
0
100
AcDbBlockEnd
  0
BLOCK
  5
24
330
23
100
AcDbEntity
  8
0
100
AcDbBlockBegin
  2
*Paper_Space0
 70
     0
 10
0.0
 20
0.0
 30
0.0
  3
*Paper_Space0
  1

  0
ENDBLK
  5
25
330
23
100
AcDbEntity
  8
0
100
AcDbBlockEnd
  0
ENDSEC
  0
SECTION
  2
ENTITIES
  0
LINE
  5
3C8
330
1F
100
AcDbEntity
  8
0
  6
Continuous
 62
     7
370
    25
100
AcDbLine
 10
102.2676960931
 20
6.9999999981
 30
0.0
 11
92.7073038985
 21
6.9999999981
 31
0.0
  0
LINE
  5
3C9
330
1F
100
AcDbEntity
  8
0
  6
Continuous
 62
     7
370
    25
100
AcDbLine
 10
142.2249999958
 20
-10.7250000019
 30
0.0
 11
142.2249999958
 21
1.2335945428
 31
0.0
  0
LINE
  5
3CA
330
1F
100
AcDbEntity
  8
0
  6
Continuous
 62
     7
370
    25
100
AcDbLine
 10
144.8249999958
 20
-21.3051960992
 30
0.0
 11
144.8249999958
 21
-11.7448039047
 31
0.0
  0
LINE
  5
3CB
330
1F
100
AcDbEntity
  8
0
  6
Continuous
 62
     7
370
    25
100
AcDbLine
 10
144.4581368157
 20
-78.8074586282
 30
0.0
 11
142.2561425734
 21
-71.4064341253
 31
0.0
  0
LINE
  5
3CC
330
1F
100
AcDbEntity
  8
0
  6
Continuous
 62
     7
370
    25
100
AcDbLine
 10
149.9673442911
 20
-88.206883209
 30
0.0
 11
147.2409946979
 21
-79.0434713548
 31
0.0
  0
LINE
  5
3CD
330
1F
100
AcDbEntity
  8
0
  6
Continuous
 62
     7
370
    25
100
AcDbLine
 10
132.7213971859
 20
-130.3600530246
 30
0.0
 11
150.6278345432
 21
-99.3451937393
 31
0.0
  0
LINE
  5
3CE
330
1F
100
AcDbEntity
  8
0
  6
Continuous
 62
     7
370
    25
100
AcDbLine
 10
109.8229473378
 20
-120.7213315761
 30
0.0
 11
128.4841949895
 21
-131.4954079313
 31
0.0
  0
LINE
  5
3CF
330
1F
100
AcDbEntity
  8
0
  6
Continuous
 62
     7
370
    25
100
AcDbLine
 10
99.3602287405
 20
-117.6828995773
 30
0.0
 11
107.6397712511
 21
-122.4630956746
 31
0.0
  0
LINE
  5
3D0
330
1F
100
AcDbEntity
  8
0
  6
Continuous
 62
     7
370
    25
100
AcDbLine
 10
36.6124999958
 20
-94.6000000019
 30
0.0
 11
64.3785119956
 21
-94.6000000019
 31
0.0
  0
LINE
  5
3D1
330
1F
100
AcDbEntity
  8
0
  6
Continuous
 62
     7
370
    25
100
AcDbLine
 10
26.0323038985
 20
-97.2000000019
 30
0.0
 11
35.5926960931
 21
-97.2000000019
 31
0.0
  0
LINE
  5
3D2
330
1F
100
AcDbEntity
  8
0
  6
Continuous
 62
     7
370
    25
100
AcDbLine
 10
-9.1625
 20
-79.4750000019
 30
0.0
 11
-9.1625
 21
-91.5284963622
 31
0.0
  0
LINE
  5
3D3
330
1F
100
AcDbEntity
  8
0
  6
Continuous
 62
     7
370
    25
100
AcDbLine
 10
-11.7625
 20
-68.8948039047
 30
0.0
 11
-11.7625
 21
-78.4551960992
 31
0.0
  0
LINE
  5
3D4
330
1F
100
AcDbEntity
  8
0
  6
Continuous
 62
     7
370
    25
100
AcDbLine
 10
-11.7625
 20
-11.7448039047
 30
0.0
 11
-11.7625
 21
-21.3051960992
 31
0.0
  0
LINE
  5
3D5
330
1F
100
AcDbEntity
  8
0
  6
Continuous
 62
     7
370
    25
100
AcDbLine
 10
34.5374999958
 20
4.3999999981
 30
0.0
 11
-5.9646267944
 21
4.3999999981
 31
0.0
  0
LINE
  5
3D6
330
1F
100
AcDbEntity
  8
0
  6
Continuous
 62
     7
370
    25
100
AcDbLine
 10
45.1176960931
 20
6.9999999981
 30
0.0
 11
35.5573038985
 21
6.9999999981
 31
0.0
  0
LINE
  5
3D7
330
1F
100
AcDbEntity
  8
0
  6
Continuous
 62
     7
370
    25
100
AcDbLine
 10
137.8199999978
 20
-71.1500000019
 30
0.0
 11
137.8224999958
 21
-71.1500000019
 31
0.0
  0
LINE
  5
3D8
330
1F
100
AcDbEntity
  8
0
  6
Continuous
 62
     7
370
    25
100
AcDbLine
 10
137.8224999958
 20
-69.7365664167
 30
0.0
 11
137.8224999958
 21
-58.5634335853
 31
0.0
  0
LINE
  5
3D9
330
1F
100
AcDbEntity
  8
0
  6
Continuous
 62
     7
370
    25
100
AcDbLine
 10
137.8224999958
 20
-57.1500000019
 30
0.0
 11
137.8199999997
 21
-57.1500000019
 31
0.0
  0
LINE
  5
3DA
330
1F
100
AcDbEntity
  8
0
  6
Continuous
 62
     7
370
    25
100
AcDbLine
 10
123.8199999958
 20
-58.6499999915
 30
0.0
 11
123.8199999958
 21
-69.6500000017
 31
0.0
  0
LINE
  5
3DB
330
1F
100
AcDbEntity
  8
0
  6
Continuous
 62
     7
370
    25
100
AcDbLine
 10
137.8199999978
 20
-52.1000000019
 30
0.0
 11
137.8224999958
 21
-52.1000000019
 31
0.0
  0
LINE
  5
3DC
330
1F
100
AcDbEntity
  8
0
  6
Continuous
 62
     7
370
    25
100
AcDbLine
 10
137.8224999958
 20
-50.6865664167
 30
0.0
 11
137.8224999958
 21
-39.5134335853
 31
0.0
  0
LINE
  5
3DD
330
1F
100
AcDbEntity
  8
0
  6
Continuous
 62
     7
370
    25
100
AcDbLine
 10
137.8224999958
 20
-38.1000000019
 30
0.0
 11
137.8199999997
 21
-38.1000000019
 31
0.0
  0
LINE
  5
3DE
330
1F
100
AcDbEntity
  8
0
  6
Continuous
 62
     7
370
    25
100
AcDbLine
 10
123.8199999958
 20
-39.5999999915
 30
0.0
 11
123.8199999958
 21
-50.6000000017
 31
0.0
  0
LINE
  5
3DF
330
1F
100
AcDbEntity
  8
0
  6
Continuous
 62
     7
370
    25
100
AcDbLine
 10
137.8199999978
 20
-33.0500000019
 30
0.0
 11
137.8224999958
 21
-33.0500000019
 31
0.0
  0
LINE
  5
3E0
330
1F
100
AcDbEntity
  8
0
  6
Continuous
 62
     7
370
    25
100
AcDbLine
 10
137.8224999958
 20
-31.6365664167
 30
0.0
 11
137.8224999958
 21
-20.4634335853
 31
0.0
  0
LINE
  5
3E1
330
1F
100
AcDbEntity
  8
0
  6
Continuous
 62
     7
370
    25
100
AcDbLine
 10
137.8224999958
 20
-19.0500000019
 30
0.0
 11
137.8199999997
 21
-19.0500000019
 31
0.0
  0
LINE
  5
3E2
330
1F
100
AcDbEntity
  8
0
  6
Continuous
 62
     7
370
    25
100
AcDbLine
 10
123.8199999958
 20
-20.5499999915
 30
0.0
 11
123.8199999958
 21
-31.5500000017
 31
0.0
  0
LINE
  5
3E3
330
1F
100
AcDbEntity
  8
0
  6
Continuous
 62
     7
370
    25
100
AcDbLine
 10
137.8199999978
 20
-14.0000000019
 30
0.0
 11
137.8224999958
 21
-14.0000000019
 31
0.0
  0
LINE
  5
3E4
330
1F
100
AcDbEntity
  8
0
  6
Continuous
 62
     7
370
    25
100
AcDbLine
 10
137.8224999958
 20
-12.5865664167
 30
0.0
 11
137.8224999958
 21
-1.4134335853
 31
0.0
  0
LINE
  5
3E5
330
1F
100
AcDbEntity
  8
0
  6
Continuous
 62
     7
370
    25
100
AcDbLine
 10
137.8224999958
 20
-0.0000000019
 30
0.0
 11
137.8199999997
 21
-0.0000000019
 31
0.0
  0
LINE
  5
3E6
330
1F
100
AcDbEntity
  8
0
  6
Continuous
 62
     7
370
    25
100
AcDbLine
 10
123.8199999958
 20
-1.4999999915
 30
0.0
 11
123.8199999958
 21
-12.5000000017
 31
0.0
  0
LINE
  5
3E7
330
1F
100
AcDbEntity
  8
0
  6
Continuous
 62
     7
370
    25
100
AcDbLine
 10
114.0099999978
 20
-71.1500000019
 30
0.0
 11
114.0124999958
 21
-71.1500000019
 31
0.0
  0
LINE
  5
3E8
330
1F
100
AcDbEntity
  8
0
  6
Continuous
 62
     7
370
    25
100
AcDbLine
 10
114.0124999958
 20
-69.7365664167
 30
0.0
 11
114.0124999958
 21
-58.5634335853
 31
0.0
  0
LINE
  5
3E9
330
1F
100
AcDbEntity
  8
0
  6
Continuous
 62
     7
370
    25
100
AcDbLine
 10
114.0124999958
 20
-57.1500000019
 30
0.0
 11
114.0099999997
 21
-57.1500000019
 31
0.0
  0
LINE
  5
3EA
330
1F
100
AcDbEntity
  8
0
  6
Continuous
 62
     7
370
    25
100
AcDbLine
 10
100.0099999958
 20
-58.6499999915
 30
0.0
 11
100.0099999958
 21
-69.6500000017
 31
0.0
  0
LINE
  5
3EB
330
1F
100
AcDbEntity
  8
0
  6
Continuous
 62
     7
370
    25
100
AcDbLine
 10
114.0099999978
 20
-52.1000000019
 30
0.0
 11
114.0124999958
 21
-52.1000000019
 31
0.0
  0
LINE
  5
3EC
330
1F
100
AcDbEntity
  8
0
  6
Continuous
 62
     7
370
    25
100
AcDbLine
 10
114.0124999958
 20
-50.6865664167
 30
0.0
 11
114.0124999958
 21
-39.5134335853
 31
0.0
  0
LINE
  5
3ED
330
1F
100
AcDbEntity
  8
0
  6
Continuous
 62
     7
370
    25
100
AcDbLine
 10
114.0124999958
 20
-38.1000000019
 30
0.0
 11
114.0099999997
 21
-38.1000000019
 31
0.0
  0
LINE
  5
3EE
330
1F
100
AcDbEntity
  8
0
  6
Continuous
 62
     7
370
    25
100
AcDbLine
 10
100.0099999958
 20
-39.5999999915
 30
0.0
 11
100.0099999958
 21
-50.6000000017
 31
0.0
  0
LINE
  5
3EF
330
1F
100
AcDbEntity
  8
0
  6
Continuous
 62
     7
370
    25
100
AcDbLine
 10
114.0099999978
 20
-33.0500000019
 30
0.0
 11
114.0124999958
 21
-33.0500000019
 31
0.0
  0
LINE
  5
3F0
330
1F
100
AcDbEntity
  8
0
  6
Continuous
 62
     7
370
    25
100
AcDbLine
 10
114.0124999958
 20
-31.6365664167
 30
0.0
 11
114.0124999958
 21
-20.4634335853
 31
0.0
  0
LINE
  5
3F1
330
1F
100
AcDbEntity
  8
0
  6
Continuous
 62
     7
370
    25
100
AcDbLine
 10
114.0124999958
 20
-19.0500000019
 30
0.0
 11
114.0099999997
 21
-19.0500000019
 31
0.0
  0
LINE
  5
3F2
330
1F
100
AcDbEntity
  8
0
  6
Continuous
 62
     7
370
    25
100
AcDbLine
 10
100.0099999958
 20
-20.5499999915
 30
0.0
 11
100.0099999958
 21
-31.5500000017
 31
0.0
  0
LINE
  5
3F3
330
1F
100
AcDbEntity
  8
0
  6
Continuous
 62
     7
370
    25
100
AcDbLine
 10
114.0099999978
 20
-14.0000000019
 30
0.0
 11
114.0124999958
 21
-14.0000000019
 31
0.0
  0
LINE
  5
3F4
330
1F
100
AcDbEntity
  8
0
  6
Continuous
 62
     7
370
    25
100
AcDbLine
 10
114.0124999958
 20
-12.5865664167
 30
0.0
 11
114.0124999958
 21
-1.4134335853
 31
0.0
  0
LINE
  5
3F5
330
1F
100
AcDbEntity
  8
0
  6
Continuous
 62
     7
370
    25
100
AcDbLine
 10
114.0124999958
 20
-0.0000000019
 30
0.0
 11
114.0099999997
 21
-0.0000000019
 31
0.0
  0
LINE
  5
3F6
330
1F
100
AcDbEntity
  8
0
  6
Continuous
 62
     7
370
    25
100
AcDbLine
 10
100.0099999958
 20
-1.4999999915
 30
0.0
 11
100.0099999958
 21
-12.5000000017
 31
0.0
  0
LINE
  5
3F7
330
1F
100
AcDbEntity
  8
0
  6
Continuous
 62
     7
370
    25
100
AcDbLine
 10
94.9599999978
 20
-14.0000000019
 30
0.0
 11
94.9624999958
 21
-14.0000000019
 31
0.0
  0
LINE
  5
3F8
330
1F
100
AcDbEntity
  8
0
  6
Continuous
 62
     7
370
    25
100
AcDbLine
 10
94.9624999958
 20
-12.5865664167
 30
0.0
 11
94.9624999958
 21
-1.4134335853
 31
0.0
  0
LINE
  5
3F9
330
1F
100
AcDbEntity
  8
0
  6
Continuous
 62
     7
370
    25
100
AcDbLine
 10
94.9624999958
 20
-0.0000000019
 30
0.0
 11
94.9599999997
 21
-0.0000000019
 31
0.0
  0
LINE
  5
3FA
330
1F
100
AcDbEntity
  8
0
  6
Continuous
 62
     7
370
    25
100
AcDbLine
 10
80.9599999958
 20
-1.4999999915
 30
0.0
 11
80.9599999958
 21
-12.5000000017
 31
0.0
  0
LINE
  5
3FB
330
1F
100
AcDbEntity
  8
0
  6
Continuous
 62
     7
370
    25
100
AcDbLine
 10
75.9099999978
 20
-90.2000000019
 30
0.0
 11
75.9124999958
 21
-90.2000000019
 31
0.0
  0
LINE
  5
3FC
330
1F
100
AcDbEntity
  8
0
  6
Continuous
 62
     7
370
    25
100
AcDbLine
 10
75.9124999958
 20
-88.7865664167
 30
0.0
 11
75.9124999958
 21
-77.6134335853
 31
0.0
  0
LINE
  5
3FD
330
1F
100
AcDbEntity
  8
0
  6
Continuous
 62
     7
370
    25
100
AcDbLine
 10
75.9124999958
 20
-76.2000000019
 30
0.0
 11
75.9099999997
 21
-76.2000000019
 31
0.0
  0
LINE
  5
3FE
330
1F
100
AcDbEntity
  8
0
  6
Continuous
 62
     7
370
    25
100
AcDbLine
 10
61.9099999958
 20
-77.6999999915
 30
0.0
 11
61.9099999958
 21
-88.7000000017
 31
0.0
  0
LINE
  5
3FF
330
1F
100
AcDbEntity
  8
0
  6
Continuous
 62
     7
370
    25
100
AcDbLine
 10
75.9099999978
 20
-71.1500000019
 30
0.0
 11
75.9124999958
 21
-71.1500000019
 31
0.0
  0
LINE
  5
400
330
1F
100
AcDbEntity
  8
0
  6
Continuous
 62
     7
370
    25
100
AcDbLine
 10
75.9124999958
 20
-69.7365664167
 30
0.0
 11
75.9124999958
 21
-58.5634335853
 31
0.0
  0
LINE
  5
401
330
1F
100
AcDbEntity
  8
0
  6
Continuous
 62
     7
370
    25
100
AcDbLine
 10
75.9124999958
 20
-57.1500000019
 30
0.0
 11
75.9099999997
 21
-57.1500000019
 31
0.0
  0
LINE
  5
402
330
1F
100
AcDbEntity
  8
0
  6
Continuous
 62
     7
370
    25
100
AcDbLine
 10
61.9099999958
 20
-58.6499999915
 30
0.0
 11
61.9099999958
 21
-69.6500000017
 31
0.0
  0
LINE
  5
403
330
1F
100
AcDbEntity
  8
0
  6
Continuous
 62
     7
370
    25
100
AcDbLine
 10
75.9099999978
 20
-52.1000000019
 30
0.0
 11
75.9124999958
 21
-52.1000000019
 31
0.0
  0
LINE
  5
404
330
1F
100
AcDbEntity
  8
0
  6
Continuous
 62
     7
370
    25
100
AcDbLine
 10
75.9124999958
 20
-50.6865664167
 30
0.0
 11
75.9124999958
 21
-39.5134335853
 31
0.0
  0
LINE
  5
405
330
1F
100
AcDbEntity
  8
0
  6
Continuous
 62
     7
370
    25
100
AcDbLine
 10
75.9124999958
 20
-38.1000000019
 30
0.0
 11
75.9099999997
 21
-38.1000000019
 31
0.0
  0
LINE
  5
406
330
1F
100
AcDbEntity
  8
0
  6
Continuous
 62
     7
370
    25
100
AcDbLine
 10
61.9099999958
 20
-39.5999999915
 30
0.0
 11
61.9099999958
 21
-50.6000000017
 31
0.0
  0
LINE
  5
407
330
1F
100
AcDbEntity
  8
0
  6
Continuous
 62
     7
370
    25
100
AcDbLine
 10
94.9599999978
 20
-33.0500000019
 30
0.0
 11
94.9624999958
 21
-33.0500000019
 31
0.0
  0
LINE
  5
408
330
1F
100
AcDbEntity
  8
0
  6
Continuous
 62
     7
370
    25
100
AcDbLine
 10
94.9624999958
 20
-31.6365664167
 30
0.0
 11
94.9624999958
 21
-20.4634335853
 31
0.0
  0
LINE
  5
409
330
1F
100
AcDbEntity
  8
0
  6
Continuous
 62
     7
370
    25
100
AcDbLine
 10
94.9624999958
 20
-19.0500000019
 30
0.0
 11
94.9599999997
 21
-19.0500000019
 31
0.0
  0
LINE
  5
40A
330
1F
100
AcDbEntity
  8
0
  6
Continuous
 62
     7
370
    25
100
AcDbLine
 10
80.9599999958
 20
-20.5499999915
 30
0.0
 11
80.9599999958
 21
-31.5500000017
 31
0.0
  0
LINE
  5
40B
330
1F
100
AcDbEntity
  8
0
  6
Continuous
 62
     7
370
    25
100
AcDbLine
 10
94.9599999978
 20
-52.1000000019
 30
0.0
 11
94.9624999958
 21
-52.1000000019
 31
0.0
  0
LINE
  5
40C
330
1F
100
AcDbEntity
  8
0
  6
Continuous
 62
     7
370
    25
100
AcDbLine
 10
94.9624999958
 20
-50.6865664167
 30
0.0
 11
94.9624999958
 21
-39.5134335853
 31
0.0
  0
LINE
  5
40D
330
1F
100
AcDbEntity
  8
0
  6
Continuous
 62
     7
370
    25
100
AcDbLine
 10
94.9624999958
 20
-38.1000000019
 30
0.0
 11
94.9599999997
 21
-38.1000000019
 31
0.0
  0
LINE
  5
40E
330
1F
100
AcDbEntity
  8
0
  6
Continuous
 62
     7
370
    25
100
AcDbLine
 10
80.9599999958
 20
-39.5999999915
 30
0.0
 11
80.9599999958
 21
-50.6000000017
 31
0.0
  0
LINE
  5
40F
330
1F
100
AcDbEntity
  8
0
  6
Continuous
 62
     7
370
    25
100
AcDbLine
 10
94.9599999978
 20
-71.1500000019
 30
0.0
 11
94.9624999958
 21
-71.1500000019
 31
0.0
  0
LINE
  5
410
330
1F
100
AcDbEntity
  8
0
  6
Continuous
 62
     7
370
    25
100
AcDbLine
 10
94.9624999958
 20
-69.7365664167
 30
0.0
 11
94.9624999958
 21
-58.5634335853
 31
0.0
  0
LINE
  5
411
330
1F
100
AcDbEntity
  8
0
  6
Continuous
 62
     7
370
    25
100
AcDbLine
 10
94.9624999958
 20
-57.1500000019
 30
0.0
 11
94.9599999997
 21
-57.1500000019
 31
0.0
  0
LINE
  5
412
330
1F
100
AcDbEntity
  8
0
  6
Continuous
 62
     7
370
    25
100
AcDbLine
 10
80.9599999958
 20
-58.6499999915
 30
0.0
 11
80.9599999958
 21
-69.6500000017
 31
0.0
  0
LINE
  5
413
330
1F
100
AcDbEntity
  8
0
  6
Continuous
 62
     7
370
    25
100
AcDbLine
 10
94.9599999978
 20
-90.2000000019
 30
0.0
 11
94.9624999958
 21
-90.2000000019
 31
0.0
  0
LINE
  5
414
330
1F
100
AcDbEntity
  8
0
  6
Continuous
 62
     7
370
    25
100
AcDbLine
 10
94.9624999958
 20
-88.7865664167
 30
0.0
 11
94.9624999958
 21
-77.6134335853
 31
0.0
  0
LINE
  5
415
330
1F
100
AcDbEntity
  8
0
  6
Continuous
 62
     7
370
    25
100
AcDbLine
 10
94.9624999958
 20
-76.2000000019
 30
0.0
 11
94.9599999997
 21
-76.2000000019
 31
0.0
  0
LINE
  5
416
330
1F
100
AcDbEntity
  8
0
  6
Continuous
 62
     7
370
    25
100
AcDbLine
 10
80.9599999958
 20
-77.6999999915
 30
0.0
 11
80.9599999958
 21
-88.7000000017
 31
0.0
  0
LINE
  5
417
330
1F
100
AcDbEntity
  8
0
  6
Continuous
 62
     7
370
    25
100
AcDbLine
 10
37.8099999978
 20
-90.2000000019
 30
0.0
 11
37.8124999958
 21
-90.2000000019
 31
0.0
  0
LINE
  5
418
330
1F
100
AcDbEntity
  8
0
  6
Continuous
 62
     7
370
    25
100
AcDbLine
 10
37.8124999958
 20
-88.7865664167
 30
0.0
 11
37.8124999958
 21
-77.6134335853
 31
0.0
  0
LINE
  5
419
330
1F
100
AcDbEntity
  8
0
  6
Continuous
 62
     7
370
    25
100
AcDbLine
 10
37.8124999958
 20
-76.2000000019
 30
0.0
 11
37.8099999997
 21
-76.2000000019
 31
0.0
  0
LINE
  5
41A
330
1F
100
AcDbEntity
  8
0
  6
Continuous
 62
     7
370
    25
100
AcDbLine
 10
23.8099999958
 20
-77.6999999915
 30
0.0
 11
23.8099999958
 21
-88.7000000017
 31
0.0
  0
LINE
  5
41B
330
1F
100
AcDbEntity
  8
0
  6
Continuous
 62
     7
370
    25
100
AcDbLine
 10
37.8099999978
 20
-71.1500000019
 30
0.0
 11
37.8124999958
 21
-71.1500000019
 31
0.0
  0
LINE
  5
41C
330
1F
100
AcDbEntity
  8
0
  6
Continuous
 62
     7
370
    25
100
AcDbLine
 10
37.8124999958
 20
-69.7365664167
 30
0.0
 11
37.8124999958
 21
-58.5634335853
 31
0.0
  0
LINE
  5
41D
330
1F
100
AcDbEntity
  8
0
  6
Continuous
 62
     7
370
    25
100
AcDbLine
 10
37.8124999958
 20
-57.1500000019
 30
0.0
 11
37.8099999997
 21
-57.1500000019
 31
0.0
  0
LINE
  5
41E
330
1F
100
AcDbEntity
  8
0
  6
Continuous
 62
     7
370
    25
100
AcDbLine
 10
23.8099999958
 20
-58.6499999915
 30
0.0
 11
23.8099999958
 21
-69.6500000017
 31
0.0
  0
LINE
  5
41F
330
1F
100
AcDbEntity
  8
0
  6
Continuous
 62
     7
370
    25
100
AcDbLine
 10
37.8099999978
 20
-52.1000000019
 30
0.0
 11
37.8124999958
 21
-52.1000000019
 31
0.0
  0
LINE
  5
420
330
1F
100
AcDbEntity
  8
0
  6
Continuous
 62
     7
370
    25
100
AcDbLine
 10
37.8124999958
 20
-50.6865664167
 30
0.0
 11
37.8124999958
 21
-39.5134335853
 31
0.0
  0
LINE
  5
421
330
1F
100
AcDbEntity
  8
0
  6
Continuous
 62
     7
370
    25
100
AcDbLine
 10
37.8124999958
 20
-38.1000000019
 30
0.0
 11
37.8099999997
 21
-38.1000000019
 31
0.0
  0
LINE
  5
422
330
1F
100
AcDbEntity
  8
0
  6
Continuous
 62
     7
370
    25
100
AcDbLine
 10
23.8099999958
 20
-39.5999999915
 30
0.0
 11
23.8099999958
 21
-50.6000000017
 31
0.0
  0
LINE
  5
423
330
1F
100
AcDbEntity
  8
0
  6
Continuous
 62
     7
370
    25
100
AcDbLine
 10
37.8099999978
 20
-33.0500000019
 30
0.0
 11
37.8124999958
 21
-33.0500000019
 31
0.0
  0
LINE
  5
424
330
1F
100
AcDbEntity
  8
0
  6
Continuous
 62
     7
370
    25
100
AcDbLine
 10
37.8124999958
 20
-31.6365664167
 30
0.0
 11
37.8124999958
 21
-20.4634335853
 31
0.0
  0
LINE
  5
425
330
1F
100
AcDbEntity
  8
0
  6
Continuous
 62
     7
370
    25
100
AcDbLine
 10
37.8124999958
 20
-19.0500000019
 30
0.0
 11
37.8099999997
 21
-19.0500000019
 31
0.0
  0
LINE
  5
426
330
1F
100
AcDbEntity
  8
0
  6
Continuous
 62
     7
370
    25
100
AcDbLine
 10
23.8099999958
 20
-20.5499999915
 30
0.0
 11
23.8099999958
 21
-31.5500000017
 31
0.0
  0
LINE
  5
427
330
1F
100
AcDbEntity
  8
0
  6
Continuous
 62
     7
370
    25
100
AcDbLine
 10
37.8099999978
 20
-14.0000000019
 30
0.0
 11
37.8124999958
 21
-14.0000000019
 31
0.0
  0
LINE
  5
428
330
1F
100
AcDbEntity
  8
0
  6
Continuous
 62
     7
370
    25
100
AcDbLine
 10
37.8124999958
 20
-12.5865664167
 30
0.0
 11
37.8124999958
 21
-1.4134335853
 31
0.0
  0
LINE
  5
429
330
1F
100
AcDbEntity
  8
0
  6
Continuous
 62
     7
370
    25
100
AcDbLine
 10
37.8124999958
 20
-0.0000000019
 30
0.0
 11
37.8099999997
 21
-0.0000000019
 31
0.0
  0
LINE
  5
42A
330
1F
100
AcDbEntity
  8
0
  6
Continuous
 62
     7
370
    25
100
AcDbLine
 10
23.8099999958
 20
-1.4999999915
 30
0.0
 11
23.8099999958
 21
-12.5000000017
 31
0.0
  0
LINE
  5
42B
330
1F
100
AcDbEntity
  8
0
  6
Continuous
 62
     7
370
    25
100
AcDbLine
 10
75.9099999978
 20
-33.0500000019
 30
0.0
 11
75.9124999958
 21
-33.0500000019
 31
0.0
  0
LINE
  5
42C
330
1F
100
AcDbEntity
  8
0
  6
Continuous
 62
     7
370
    25
100
AcDbLine
 10
75.9124999958
 20
-31.6365664167
 30
0.0
 11
75.9124999958
 21
-20.4634335853
 31
0.0
  0
LINE
  5
42D
330
1F
100
AcDbEntity
  8
0
  6
Continuous
 62
     7
370
    25
100
AcDbLine
 10
75.9124999958
 20
-19.0500000019
 30
0.0
 11
75.9099999997
 21
-19.0500000019
 31
0.0
  0
LINE
  5
42E
330
1F
100
AcDbEntity
  8
0
  6
Continuous
 62
     7
370
    25
100
AcDbLine
 10
61.9099999958
 20
-20.5499999915
 30
0.0
 11
61.9099999958
 21
-31.5500000017
 31
0.0
  0
LINE
  5
42F
330
1F
100
AcDbEntity
  8
0
  6
Continuous
 62
     7
370
    25
100
AcDbLine
 10
75.9099999978
 20
-14.0000000019
 30
0.0
 11
75.9124999958
 21
-14.0000000019
 31
0.0
  0
LINE
  5
430
330
1F
100
AcDbEntity
  8
0
  6
Continuous
 62
     7
370
    25
100
AcDbLine
 10
75.9124999958
 20
-12.5865664167
 30
0.0
 11
75.9124999958
 21
-1.4134335853
 31
0.0
  0
LINE
  5
431
330
1F
100
AcDbEntity
  8
0
  6
Continuous
 62
     7
370
    25
100
AcDbLine
 10
75.9124999958
 20
-0.0000000019
 30
0.0
 11
75.9099999997
 21
-0.0000000019
 31
0.0
  0
LINE
  5
432
330
1F
100
AcDbEntity
  8
0
  6
Continuous
 62
     7
370
    25
100
AcDbLine
 10
61.9099999958
 20
-1.4999999915
 30
0.0
 11
61.9099999958
 21
-12.5000000017
 31
0.0
  0
LINE
  5
433
330
1F
100
AcDbEntity
  8
0
  6
Continuous
 62
     7
370
    25
100
AcDbLine
 10
56.8599999978
 20
-90.2000000019
 30
0.0
 11
56.8624999958
 21
-90.2000000019
 31
0.0
  0
LINE
  5
434
330
1F
100
AcDbEntity
  8
0
  6
Continuous
 62
     7
370
    25
100
AcDbLine
 10
56.8624999958
 20
-88.7865664167
 30
0.0
 11
56.8624999958
 21
-77.6134335853
 31
0.0
  0
LINE
  5
435
330
1F
100
AcDbEntity
  8
0
  6
Continuous
 62
     7
370
    25
100
AcDbLine
 10
56.8624999958
 20
-76.2000000019
 30
0.0
 11
56.8599999997
 21
-76.2000000019
 31
0.0
  0
LINE
  5
436
330
1F
100
AcDbEntity
  8
0
  6
Continuous
 62
     7
370
    25
100
AcDbLine
 10
42.8599999958
 20
-77.6999999915
 30
0.0
 11
42.8599999958
 21
-88.7000000017
 31
0.0
  0
LINE
  5
437
330
1F
100
AcDbEntity
  8
0
  6
Continuous
 62
     7
370
    25
100
AcDbLine
 10
56.8599999978
 20
-71.1500000019
 30
0.0
 11
56.8624999958
 21
-71.1500000019
 31
0.0
  0
LINE
  5
438
330
1F
100
AcDbEntity
  8
0
  6
Continuous
 62
     7
370
    25
100
AcDbLine
 10
56.8624999958
 20
-69.7365664167
 30
0.0
 11
56.8624999958
 21
-58.5634335853
 31
0.0
  0
LINE
  5
439
330
1F
100
AcDbEntity
  8
0
  6
Continuous
 62
     7
370
    25
100
AcDbLine
 10
56.8624999958
 20
-57.1500000019
 30
0.0
 11
56.8599999997
 21
-57.1500000019
 31
0.0
  0
LINE
  5
43A
330
1F
100
AcDbEntity
  8
0
  6
Continuous
 62
     7
370
    25
100
AcDbLine
 10
42.8599999958
 20
-58.6499999915
 30
0.0
 11
42.8599999958
 21
-69.6500000017
 31
0.0
  0
LINE
  5
43B
330
1F
100
AcDbEntity
  8
0
  6
Continuous
 62
     7
370
    25
100
AcDbLine
 10
56.8599999978
 20
-14.0000000019
 30
0.0
 11
56.8624999958
 21
-14.0000000019
 31
0.0
  0
LINE
  5
43C
330
1F
100
AcDbEntity
  8
0
  6
Continuous
 62
     7
370
    25
100
AcDbLine
 10
56.8624999958
 20
-12.5865664167
 30
0.0
 11
56.8624999958
 21
-1.4134335853
 31
0.0
  0
LINE
  5
43D
330
1F
100
AcDbEntity
  8
0
  6
Continuous
 62
     7
370
    25
100
AcDbLine
 10
56.8624999958
 20
-0.0000000019
 30
0.0
 11
56.8599999997
 21
-0.0000000019
 31
0.0
  0
LINE
  5
43E
330
1F
100
AcDbEntity
  8
0
  6
Continuous
 62
     7
370
    25
100
AcDbLine
 10
42.8599999958
 20
-1.4999999915
 30
0.0
 11
42.8599999958
 21
-12.5000000017
 31
0.0
  0
LINE
  5
43F
330
1F
100
AcDbEntity
  8
0
  6
Continuous
 62
     7
370
    25
100
AcDbLine
 10
56.8599999978
 20
-33.0500000019
 30
0.0
 11
56.8624999958
 21
-33.0500000019
 31
0.0
  0
LINE
  5
440
330
1F
100
AcDbEntity
  8
0
  6
Continuous
 62
     7
370
    25
100
AcDbLine
 10
56.8624999958
 20
-31.6365664167
 30
0.0
 11
56.8624999958
 21
-20.4634335853
 31
0.0
  0
LINE
  5
441
330
1F
100
AcDbEntity
  8
0
  6
Continuous
 62
     7
370
    25
100
AcDbLine
 10
56.8624999958
 20
-19.0500000019
 30
0.0
 11
56.8599999997
 21
-19.0500000019
 31
0.0
  0
LINE
  5
442
330
1F
100
AcDbEntity
  8
0
  6
Continuous
 62
     7
370
    25
100
AcDbLine
 10
42.8599999958
 20
-20.5499999915
 30
0.0
 11
42.8599999958
 21
-31.5500000017
 31
0.0
  0
LINE
  5
443
330
1F
100
AcDbEntity
  8
0
  6
Continuous
 62
     7
370
    25
100
AcDbLine
 10
56.8599999978
 20
-52.1000000019
 30
0.0
 11
56.8624999958
 21
-52.1000000019
 31
0.0
  0
LINE
  5
444
330
1F
100
AcDbEntity
  8
0
  6
Continuous
 62
     7
370
    25
100
AcDbLine
 10
56.8624999958
 20
-50.6865664167
 30
0.0
 11
56.8624999958
 21
-39.5134335853
 31
0.0
  0
LINE
  5
445
330
1F
100
AcDbEntity
  8
0
  6
Continuous
 62
     7
370
    25
100
AcDbLine
 10
56.8624999958
 20
-38.1000000019
 30
0.0
 11
56.8599999997
 21
-38.1000000019
 31
0.0
  0
LINE
  5
446
330
1F
100
AcDbEntity
  8
0
  6
Continuous
 62
     7
370
    25
100
AcDbLine
 10
42.8599999958
 20
-39.5999999915
 30
0.0
 11
42.8599999958
 21
-50.6000000017
 31
0.0
  0
LINE
  5
447
330
1F
100
AcDbEntity
  8
0
  6
Continuous
 62
     7
370
    25
100
AcDbLine
 10
101.40522598
 20
-109.5012526517
 30
0.0
 11
112.9666651206
 21
-116.1762526517
 31
0.0
  0
LINE
  5
448
330
1F
100
AcDbEntity
  8
0
  6
Continuous
 62
     7
370
    25
100
AcDbLine
 10
113.9911841734
 20
-115.9017335989
 30
0.0
 11
116.8911841734
 21
-110.8787862569
 31
0.0
  0
LINE
  5
449
330
1F
100
AcDbEntity
  8
0
  6
Continuous
 62
     7
370
    25
100
AcDbLine
 10
116.6166651206
 20
-109.8542672041
 30
0.0
 11
105.05522598
 21
-103.1792672041
 31
0.0
  0
LINE
  5
44A
330
1F
100
AcDbEntity
  8
0
  6
Continuous
 62
     7
370
    25
100
AcDbLine
 10
104.0307069272
 20
-103.4537862569
 30
0.0
 11
101.1307069272
 21
-108.4767335989
 31
0.0
  0
LINE
  5
44B
330
1F
100
AcDbEntity
  8
0
  6
Continuous
 62
     7
370
    25
100
AcDbLine
 10
113.35522598
 20
-88.8032455013
 30
0.0
 11
124.9166651206
 21
-95.4782455013
 31
0.0
  0
LINE
  5
44C
330
1F
100
AcDbEntity
  8
0
  6
Continuous
 62
     7
370
    25
100
AcDbLine
 10
125.9411841734
 20
-95.2037264484
 30
0.0
 11
128.8411841734
 21
-90.1807791065
 31
0.0
  0
LINE
  5
44D
330
1F
100
AcDbEntity
  8
0
  6
Continuous
 62
     7
370
    25
100
AcDbLine
 10
128.5666651206
 20
-89.1562600536
 30
0.0
 11
117.00522598
 21
-82.4812600536
 31
0.0
  0
LINE
  5
44E
330
1F
100
AcDbEntity
  8
0
  6
Continuous
 62
     7
370
    25
100
AcDbLine
 10
115.9807069272
 20
-82.7557791065
 30
0.0
 11
113.0807069272
 21
-87.7787264484
 31
0.0
  0
LINE
  5
44F
330
1F
100
AcDbEntity
  8
0
  6
Continuous
 62
     7
370
    25
100
AcDbLine
 10
105.7003221693
 20
-102.2619278284
 30
0.0
 11
117.8246778223
 21
-109.2619278284
 31
0.0
  0
LINE
  5
450
330
1F
100
AcDbEntity
  8
0
  6
Continuous
 62
     7
370
    25
100
AcDbLine
 10
124.8246778223
 20
-97.1375721754
 30
0.0
 11
112.7003221693
 21
-90.1375721754
 31
0.0
  0
LINE
  5
451
330
1F
100
AcDbEntity
  8
0
  6
Continuous
 62
     7
370
    25
100
AcDbLine
 10
101.0746958338
 20
-78.5414798284
 30
0.0
 11
102.2409846542
 21
-79.2148369928
 31
0.0
  0
LINE
  5
452
330
1F
100
AcDbEntity
  8
0
  6
Continuous
 62
     7
370
    25
100
AcDbLine
 10
108.694094652
 20
-79.2148369928
 30
0.0
 11
109.8603834724
 21
-78.5414798284
 31
0.0
  0
LINE
  5
453
330
1F
100
AcDbEntity
  8
0
  6
Continuous
 62
     7
370
    25
100
AcDbLine
 10
105.9675396531
 20
-85.6694195881
 30
0.0
 11
105.9675396531
 21
-87.0161339169
 31
0.0
  0
LINE
  5
454
330
1F
100
AcDbEntity
  8
0
  6
Continuous
 62
     7
370
    25
100
AcDbLine
 10
110.3603834724
 20
-79.4075052322
 30
0.0
 11
109.194094652
 21
-80.0808623966
 31
0.0
  0
LINE
  5
455
330
1F
100
AcDbEntity
  8
0
  6
Continuous
 62
     7
370
    25
100
AcDbLine
 10
104.9675396531
 20
-87.0161339169
 30
0.0
 11
104.9675396531
 21
-85.6694195881
 31
0.0
  0
LINE
  5
456
330
1F
100
AcDbEntity
  8
0
  6
Continuous
 62
     7
370
    25
100
AcDbLine
 10
101.7409846542
 20
-80.0808623966
 30
0.0
 11
100.5746958338
 21
-79.4075052322
 31
0.0
  0
LINE
  5
457
330
1F
100
AcDbEntity
  8
0
  6
Continuous
 62
     7
370
    25
100
AcDbLine
 10
136.319999998
 20
-57.15
 30
0.0
 11
125.3199999998
 21
-57.15
 31
0.0
  0
LINE
  5
458
330
1F
100
AcDbEntity
  8
0
  6
Continuous
 62
     7
370
    25
100
AcDbLine
 10
137.8224999958
 20
-71.1500000019
 30
0.0
 11
137.8224999958
 21
-71.1474881628
 31
0.0
  0
LINE
  5
459
330
1F
100
AcDbEntity
  8
0
  6
Continuous
 62
     7
370
    25
100
AcDbLine
 10
137.8224999958
 20
-57.1525118391
 30
0.0
 11
137.8224999958
 21
-57.1500000019
 31
0.0
  0
LINE
  5
45A
330
1F
100
AcDbEntity
  8
0
  6
Continuous
 62
     7
370
    25
100
AcDbLine
 10
125.3199999956
 20
-71.1500000019
 30
0.0
 11
136.319999998
 21
-71.1500000019
 31
0.0
  0
LINE
  5
45B
330
1F
100
AcDbEntity
  8
0
  6
Continuous
 62
     7
370
    25
100
AcDbLine
 10
136.319999998
 20
-38.1
 30
0.0
 11
125.3199999998
 21
-38.1
 31
0.0
  0
LINE
  5
45C
330
1F
100
AcDbEntity
  8
0
  6
Continuous
 62
     7
370
    25
100
AcDbLine
 10
137.8224999958
 20
-52.1000000019
 30
0.0
 11
137.8224999958
 21
-52.0974881628
 31
0.0
  0
LINE
  5
45D
330
1F
100
AcDbEntity
  8
0
  6
Continuous
 62
     7
370
    25
100
AcDbLine
 10
137.8224999958
 20
-38.1025118391
 30
0.0
 11
137.8224999958
 21
-38.1000000019
 31
0.0
  0
LINE
  5
45E
330
1F
100
AcDbEntity
  8
0
  6
Continuous
 62
     7
370
    25
100
AcDbLine
 10
125.3199999956
 20
-52.1000000019
 30
0.0
 11
136.319999998
 21
-52.1000000019
 31
0.0
  0
LINE
  5
45F
330
1F
100
AcDbEntity
  8
0
  6
Continuous
 62
     7
370
    25
100
AcDbLine
 10
136.319999998
 20
-19.05
 30
0.0
 11
125.3199999998
 21
-19.05
 31
0.0
  0
LINE
  5
460
330
1F
100
AcDbEntity
  8
0
  6
Continuous
 62
     7
370
    25
100
AcDbLine
 10
137.8224999958
 20
-33.0500000019
 30
0.0
 11
137.8224999958
 21
-33.0474881628
 31
0.0
  0
LINE
  5
461
330
1F
100
AcDbEntity
  8
0
  6
Continuous
 62
     7
370
    25
100
AcDbLine
 10
137.8224999958
 20
-19.0525118391
 30
0.0
 11
137.8224999958
 21
-19.0500000019
 31
0.0
  0
LINE
  5
462
330
1F
100
AcDbEntity
  8
0
  6
Continuous
 62
     7
370
    25
100
AcDbLine
 10
125.3199999956
 20
-33.0500000019
 30
0.0
 11
136.319999998
 21
-33.0500000019
 31
0.0
  0
LINE
  5
463
330
1F
100
AcDbEntity
  8
0
  6
Continuous
 62
     7
370
    25
100
AcDbLine
 10
-0.0000000042
 20
-77.6999999915
 30
0.0
 11
-0.0000000042
 21
-88.7000000017
 31
0.0
  0
LINE
  5
464
330
1F
100
AcDbEntity
  8
0
  6
Continuous
 62
     7
370
    25
100
AcDbLine
 10
12.4999999982
 20
-76.2000000002
 30
0.0
 11
1.4999999998
 21
-76.2
 31
0.0
  0
LINE
  5
465
330
1F
100
AcDbEntity
  8
0
  6
Continuous
 62
     7
370
    25
100
AcDbLine
 10
13.9999999978
 20
-88.7000000017
 30
0.0
 11
13.9999999978
 21
-77.7000000002
 31
0.0
  0
LINE
  5
466
330
1F
100
AcDbEntity
  8
0
  6
Continuous
 62
     7
370
    25
100
AcDbLine
 10
1.4999999956
 20
-90.2000000019
 30
0.0
 11
12.499999998
 21
-90.2000000019
 31
0.0
  0
LINE
  5
467
330
1F
100
AcDbEntity
  8
0
  6
Continuous
 62
     7
370
    25
100
AcDbLine
 10
-0.0000000042
 20
-58.6499999915
 30
0.0
 11
-0.0000000042
 21
-69.6500000017
 31
0.0
  0
LINE
  5
468
330
1F
100
AcDbEntity
  8
0
  6
Continuous
 62
     7
370
    25
100
AcDbLine
 10
12.4999999982
 20
-57.1500000002
 30
0.0
 11
1.4999999998
 21
-57.15
 31
0.0
  0
LINE
  5
469
330
1F
100
AcDbEntity
  8
0
  6
Continuous
 62
     7
370
    25
100
AcDbLine
 10
13.9999999978
 20
-69.6500000017
 30
0.0
 11
13.9999999978
 21
-58.6500000002
 31
0.0
  0
LINE
  5
46A
330
1F
100
AcDbEntity
  8
0
  6
Continuous
 62
     7
370
    25
100
AcDbLine
 10
1.4999999956
 20
-71.1500000019
 30
0.0
 11
12.499999998
 21
-71.1500000019
 31
0.0
  0
LINE
  5
46B
330
1F
100
AcDbEntity
  8
0
  6
Continuous
 62
     7
370
    25
100
AcDbLine
 10
-0.0000000042
 20
-39.5999999915
 30
0.0
 11
-0.0000000042
 21
-50.6000000017
 31
0.0
  0
LINE
  5
46C
330
1F
100
AcDbEntity
  8
0
  6
Continuous
 62
     7
370
    25
100
AcDbLine
 10
12.4999999982
 20
-38.1000000002
 30
0.0
 11
1.4999999998
 21
-38.1
 31
0.0
  0
LINE
  5
46D
330
1F
100
AcDbEntity
  8
0
  6
Continuous
 62
     7
370
    25
100
AcDbLine
 10
13.9999999978
 20
-50.6000000017
 30
0.0
 11
13.9999999978
 21
-39.6000000002
 31
0.0
  0
LINE
  5
46E
330
1F
100
AcDbEntity
  8
0
  6
Continuous
 62
     7
370
    25
100
AcDbLine
 10
1.4999999956
 20
-52.1000000019
 30
0.0
 11
12.499999998
 21
-52.1000000019
 31
0.0
  0
LINE
  5
46F
330
1F
100
AcDbEntity
  8
0
  6
Continuous
 62
     7
370
    25
100
AcDbLine
 10
36.309999998
 20
-76.2
 30
0.0
 11
25.3099999998
 21
-76.2
 31
0.0
  0
LINE
  5
470
330
1F
100
AcDbEntity
  8
0
  6
Continuous
 62
     7
370
    25
100
AcDbLine
 10
37.8124999958
 20
-90.2000000019
 30
0.0
 11
37.8124999958
 21
-90.1974881628
 31
0.0
  0
LINE
  5
471
330
1F
100
AcDbEntity
  8
0
  6
Continuous
 62
     7
370
    25
100
AcDbLine
 10
37.8124999958
 20
-76.2025118391
 30
0.0
 11
37.8124999958
 21
-76.2000000019
 31
0.0
  0
LINE
  5
472
330
1F
100
AcDbEntity
  8
0
  6
Continuous
 62
     7
370
    25
100
AcDbLine
 10
25.3099999956
 20
-90.2000000019
 30
0.0
 11
36.309999998
 21
-90.2000000019
 31
0.0
  0
LINE
  5
473
330
1F
100
AcDbEntity
  8
0
  6
Continuous
 62
     7
370
    25
100
AcDbLine
 10
36.309999998
 20
-57.15
 30
0.0
 11
25.3099999998
 21
-57.15
 31
0.0
  0
LINE
  5
474
330
1F
100
AcDbEntity
  8
0
  6
Continuous
 62
     7
370
    25
100
AcDbLine
 10
37.8124999958
 20
-71.1500000019
 30
0.0
 11
37.8124999958
 21
-71.1474881628
 31
0.0
  0
LINE
  5
475
330
1F
100
AcDbEntity
  8
0
  6
Continuous
 62
     7
370
    25
100
AcDbLine
 10
37.8124999958
 20
-57.1525118391
 30
0.0
 11
37.8124999958
 21
-57.1500000019
 31
0.0
  0
LINE
  5
476
330
1F
100
AcDbEntity
  8
0
  6
Continuous
 62
     7
370
    25
100
AcDbLine
 10
25.3099999956
 20
-71.1500000019
 30
0.0
 11
36.309999998
 21
-71.1500000019
 31
0.0
  0
LINE
  5
477
330
1F
100
AcDbEntity
  8
0
  6
Continuous
 62
     7
370
    25
100
AcDbLine
 10
36.309999998
 20
-38.1
 30
0.0
 11
25.3099999998
 21
-38.1
 31
0.0
  0
LINE
  5
478
330
1F
100
AcDbEntity
  8
0
  6
Continuous
 62
     7
370
    25
100
AcDbLine
 10
37.8124999958
 20
-52.1000000019
 30
0.0
 11
37.8124999958
 21
-52.0974881628
 31
0.0
  0
LINE
  5
479
330
1F
100
AcDbEntity
  8
0
  6
Continuous
 62
     7
370
    25
100
AcDbLine
 10
37.8124999958
 20
-38.1025118391
 30
0.0
 11
37.8124999958
 21
-38.1000000019
 31
0.0
  0
LINE
  5
47A
330
1F
100
AcDbEntity
  8
0
  6
Continuous
 62
     7
370
    25
100
AcDbLine
 10
25.3099999956
 20
-52.1000000019
 30
0.0
 11
36.309999998
 21
-52.1000000019
 31
0.0
  0
LINE
  5
47B
330
1F
100
AcDbEntity
  8
0
  6
Continuous
 62
     7
370
    25
100
AcDbLine
 10
36.309999998
 20
-19.05
 30
0.0
 11
25.3099999998
 21
-19.05
 31
0.0
  0
LINE
  5
47C
330
1F
100
AcDbEntity
  8
0
  6
Continuous
 62
     7
370
    25
100
AcDbLine
 10
37.8124999958
 20
-33.0500000019
 30
0.0
 11
37.8124999958
 21
-33.0474881628
 31
0.0
  0
LINE
  5
47D
330
1F
100
AcDbEntity
  8
0
  6
Continuous
 62
     7
370
    25
100
AcDbLine
 10
37.8124999958
 20
-19.0525118391
 30
0.0
 11
37.8124999958
 21
-19.0500000019
 31
0.0
  0
LINE
  5
47E
330
1F
100
AcDbEntity
  8
0
  6
Continuous
 62
     7
370
    25
100
AcDbLine
 10
25.3099999956
 20
-33.0500000019
 30
0.0
 11
36.309999998
 21
-33.0500000019
 31
0.0
  0
LINE
  5
47F
330
1F
100
AcDbEntity
  8
0
  6
Continuous
 62
     7
370
    25
100
AcDbLine
 10
93.459999998
 20
-76.2
 30
0.0
 11
82.4599999998
 21
-76.2
 31
0.0
  0
LINE
  5
480
330
1F
100
AcDbEntity
  8
0
  6
Continuous
 62
     7
370
    25
100
AcDbLine
 10
94.9624999958
 20
-90.2000000019
 30
0.0
 11
94.9624999958
 21
-90.1974881628
 31
0.0
  0
LINE
  5
481
330
1F
100
AcDbEntity
  8
0
  6
Continuous
 62
     7
370
    25
100
AcDbLine
 10
94.9624999958
 20
-76.2025118391
 30
0.0
 11
94.9624999958
 21
-76.2000000019
 31
0.0
  0
LINE
  5
482
330
1F
100
AcDbEntity
  8
0
  6
Continuous
 62
     7
370
    25
100
AcDbLine
 10
82.4599999956
 20
-90.2000000019
 30
0.0
 11
93.459999998
 21
-90.2000000019
 31
0.0
  0
LINE
  5
483
330
1F
100
AcDbEntity
  8
0
  6
Continuous
 62
     7
370
    25
100
AcDbLine
 10
74.409999998
 20
-76.2
 30
0.0
 11
63.4099999998
 21
-76.2
 31
0.0
  0
LINE
  5
484
330
1F
100
AcDbEntity
  8
0
  6
Continuous
 62
     7
370
    25
100
AcDbLine
 10
75.9124999958
 20
-90.2000000019
 30
0.0
 11
75.9124999958
 21
-90.1974881628
 31
0.0
  0
LINE
  5
485
330
1F
100
AcDbEntity
  8
0
  6
Continuous
 62
     7
370
    25
100
AcDbLine
 10
75.9124999958
 20
-76.2025118391
 30
0.0
 11
75.9124999958
 21
-76.2000000019
 31
0.0
  0
LINE
  5
486
330
1F
100
AcDbEntity
  8
0
  6
Continuous
 62
     7
370
    25
100
AcDbLine
 10
63.4099999956
 20
-90.2000000019
 30
0.0
 11
74.409999998
 21
-90.2000000019
 31
0.0
  0
LINE
  5
487
330
1F
100
AcDbEntity
  8
0
  6
Continuous
 62
     7
370
    25
100
AcDbLine
 10
55.359999998
 20
-76.2
 30
0.0
 11
44.3599999998
 21
-76.2
 31
0.0
  0
LINE
  5
488
330
1F
100
AcDbEntity
  8
0
  6
Continuous
 62
     7
370
    25
100
AcDbLine
 10
56.8624999958
 20
-90.2000000019
 30
0.0
 11
56.8624999958
 21
-90.1974881628
 31
0.0
  0
LINE
  5
489
330
1F
100
AcDbEntity
  8
0
  6
Continuous
 62
     7
370
    25
100
AcDbLine
 10
56.8624999958
 20
-76.2025118391
 30
0.0
 11
56.8624999958
 21
-76.2000000019
 31
0.0
  0
LINE
  5
48A
330
1F
100
AcDbEntity
  8
0
  6
Continuous
 62
     7
370
    25
100
AcDbLine
 10
44.3599999956
 20
-90.2000000019
 30
0.0
 11
55.359999998
 21
-90.2000000019
 31
0.0
  0
LINE
  5
48B
330
1F
100
AcDbEntity
  8
0
  6
Continuous
 62
     7
370
    25
100
AcDbLine
 10
112.509999998
 20
-57.15
 30
0.0
 11
101.5099999998
 21
-57.15
 31
0.0
  0
LINE
  5
48C
330
1F
100
AcDbEntity
  8
0
  6
Continuous
 62
     7
370
    25
100
AcDbLine
 10
114.0124999958
 20
-71.1500000019
 30
0.0
 11
114.0124999958
 21
-71.1474881628
 31
0.0
  0
LINE
  5
48D
330
1F
100
AcDbEntity
  8
0
  6
Continuous
 62
     7
370
    25
100
AcDbLine
 10
114.0124999958
 20
-57.1525118391
 30
0.0
 11
114.0124999958
 21
-57.1500000019
 31
0.0
  0
LINE
  5
48E
330
1F
100
AcDbEntity
  8
0
  6
Continuous
 62
     7
370
    25
100
AcDbLine
 10
101.5099999956
 20
-71.1500000019
 30
0.0
 11
112.509999998
 21
-71.1500000019
 31
0.0
  0
LINE
  5
48F
330
1F
100
AcDbEntity
  8
0
  6
Continuous
 62
     7
370
    25
100
AcDbLine
 10
93.459999998
 20
-57.15
 30
0.0
 11
82.4599999998
 21
-57.15
 31
0.0
  0
LINE
  5
490
330
1F
100
AcDbEntity
  8
0
  6
Continuous
 62
     7
370
    25
100
AcDbLine
 10
94.9624999958
 20
-71.1500000019
 30
0.0
 11
94.9624999958
 21
-71.1474881628
 31
0.0
  0
LINE
  5
491
330
1F
100
AcDbEntity
  8
0
  6
Continuous
 62
     7
370
    25
100
AcDbLine
 10
94.9624999958
 20
-57.1525118391
 30
0.0
 11
94.9624999958
 21
-57.1500000019
 31
0.0
  0
LINE
  5
492
330
1F
100
AcDbEntity
  8
0
  6
Continuous
 62
     7
370
    25
100
AcDbLine
 10
82.4599999956
 20
-71.1500000019
 30
0.0
 11
93.459999998
 21
-71.1500000019
 31
0.0
  0
LINE
  5
493
330
1F
100
AcDbEntity
  8
0
  6
Continuous
 62
     7
370
    25
100
AcDbLine
 10
74.409999998
 20
-57.15
 30
0.0
 11
63.4099999998
 21
-57.15
 31
0.0
  0
LINE
  5
494
330
1F
100
AcDbEntity
  8
0
  6
Continuous
 62
     7
370
    25
100
AcDbLine
 10
75.9124999958
 20
-71.1500000019
 30
0.0
 11
75.9124999958
 21
-71.1474881628
 31
0.0
  0
LINE
  5
495
330
1F
100
AcDbEntity
  8
0
  6
Continuous
 62
     7
370
    25
100
AcDbLine
 10
75.9124999958
 20
-57.1525118391
 30
0.0
 11
75.9124999958
 21
-57.1500000019
 31
0.0
  0
LINE
  5
496
330
1F
100
AcDbEntity
  8
0
  6
Continuous
 62
     7
370
    25
100
AcDbLine
 10
63.4099999956
 20
-71.1500000019
 30
0.0
 11
74.409999998
 21
-71.1500000019
 31
0.0
  0
LINE
  5
497
330
1F
100
AcDbEntity
  8
0
  6
Continuous
 62
     7
370
    25
100
AcDbLine
 10
55.359999998
 20
-57.15
 30
0.0
 11
44.3599999998
 21
-57.15
 31
0.0
  0
LINE
  5
498
330
1F
100
AcDbEntity
  8
0
  6
Continuous
 62
     7
370
    25
100
AcDbLine
 10
56.8624999958
 20
-71.1500000019
 30
0.0
 11
56.8624999958
 21
-71.1474881628
 31
0.0
  0
LINE
  5
499
330
1F
100
AcDbEntity
  8
0
  6
Continuous
 62
     7
370
    25
100
AcDbLine
 10
56.8624999958
 20
-57.1525118391
 30
0.0
 11
56.8624999958
 21
-57.1500000019
 31
0.0
  0
LINE
  5
49A
330
1F
100
AcDbEntity
  8
0
  6
Continuous
 62
     7
370
    25
100
AcDbLine
 10
44.3599999956
 20
-71.1500000019
 30
0.0
 11
55.359999998
 21
-71.1500000019
 31
0.0
  0
LINE
  5
49B
330
1F
100
AcDbEntity
  8
0
  6
Continuous
 62
     7
370
    25
100
AcDbLine
 10
112.509999998
 20
-38.1
 30
0.0
 11
101.5099999998
 21
-38.1
 31
0.0
  0
LINE
  5
49C
330
1F
100
AcDbEntity
  8
0
  6
Continuous
 62
     7
370
    25
100
AcDbLine
 10
114.0124999958
 20
-52.1000000019
 30
0.0
 11
114.0124999958
 21
-52.0974881628
 31
0.0
  0
LINE
  5
49D
330
1F
100
AcDbEntity
  8
0
  6
Continuous
 62
     7
370
    25
100
AcDbLine
 10
114.0124999958
 20
-38.1025118391
 30
0.0
 11
114.0124999958
 21
-38.1000000019
 31
0.0
  0
LINE
  5
49E
330
1F
100
AcDbEntity
  8
0
  6
Continuous
 62
     7
370
    25
100
AcDbLine
 10
101.5099999956
 20
-52.1000000019
 30
0.0
 11
112.509999998
 21
-52.1000000019
 31
0.0
  0
LINE
  5
49F
330
1F
100
AcDbEntity
  8
0
  6
Continuous
 62
     7
370
    25
100
AcDbLine
 10
93.459999998
 20
-38.1
 30
0.0
 11
82.4599999998
 21
-38.1
 31
0.0
  0
LINE
  5
4A0
330
1F
100
AcDbEntity
  8
0
  6
Continuous
 62
     7
370
    25
100
AcDbLine
 10
94.9624999958
 20
-52.1000000019
 30
0.0
 11
94.9624999958
 21
-52.0974881628
 31
0.0
  0
LINE
  5
4A1
330
1F
100
AcDbEntity
  8
0
  6
Continuous
 62
     7
370
    25
100
AcDbLine
 10
94.9624999958
 20
-38.1025118391
 30
0.0
 11
94.9624999958
 21
-38.1000000019
 31
0.0
  0
LINE
  5
4A2
330
1F
100
AcDbEntity
  8
0
  6
Continuous
 62
     7
370
    25
100
AcDbLine
 10
82.4599999956
 20
-52.1000000019
 30
0.0
 11
93.459999998
 21
-52.1000000019
 31
0.0
  0
LINE
  5
4A3
330
1F
100
AcDbEntity
  8
0
  6
Continuous
 62
     7
370
    25
100
AcDbLine
 10
74.409999998
 20
-38.1
 30
0.0
 11
63.4099999998
 21
-38.1
 31
0.0
  0
LINE
  5
4A4
330
1F
100
AcDbEntity
  8
0
  6
Continuous
 62
     7
370
    25
100
AcDbLine
 10
75.9124999958
 20
-52.1000000019
 30
0.0
 11
75.9124999958
 21
-52.0974881628
 31
0.0
  0
LINE
  5
4A5
330
1F
100
AcDbEntity
  8
0
  6
Continuous
 62
     7
370
    25
100
AcDbLine
 10
75.9124999958
 20
-38.1025118391
 30
0.0
 11
75.9124999958
 21
-38.1000000019
 31
0.0
  0
LINE
  5
4A6
330
1F
100
AcDbEntity
  8
0
  6
Continuous
 62
     7
370
    25
100
AcDbLine
 10
63.4099999956
 20
-52.1000000019
 30
0.0
 11
74.409999998
 21
-52.1000000019
 31
0.0
  0
LINE
  5
4A7
330
1F
100
AcDbEntity
  8
0
  6
Continuous
 62
     7
370
    25
100
AcDbLine
 10
55.359999998
 20
-38.1
 30
0.0
 11
44.3599999998
 21
-38.1
 31
0.0
  0
LINE
  5
4A8
330
1F
100
AcDbEntity
  8
0
  6
Continuous
 62
     7
370
    25
100
AcDbLine
 10
56.8624999958
 20
-52.1000000019
 30
0.0
 11
56.8624999958
 21
-52.0974881628
 31
0.0
  0
LINE
  5
4A9
330
1F
100
AcDbEntity
  8
0
  6
Continuous
 62
     7
370
    25
100
AcDbLine
 10
56.8624999958
 20
-38.1025118391
 30
0.0
 11
56.8624999958
 21
-38.1000000019
 31
0.0
  0
LINE
  5
4AA
330
1F
100
AcDbEntity
  8
0
  6
Continuous
 62
     7
370
    25
100
AcDbLine
 10
44.3599999956
 20
-52.1000000019
 30
0.0
 11
55.359999998
 21
-52.1000000019
 31
0.0
  0
LINE
  5
4AB
330
1F
100
AcDbEntity
  8
0
  6
Continuous
 62
     7
370
    25
100
AcDbLine
 10
112.509999998
 20
-19.05
 30
0.0
 11
101.5099999998
 21
-19.05
 31
0.0
  0
LINE
  5
4AC
330
1F
100
AcDbEntity
  8
0
  6
Continuous
 62
     7
370
    25
100
AcDbLine
 10
114.0124999958
 20
-33.0500000019
 30
0.0
 11
114.0124999958
 21
-33.0474881628
 31
0.0
  0
LINE
  5
4AD
330
1F
100
AcDbEntity
  8
0
  6
Continuous
 62
     7
370
    25
100
AcDbLine
 10
114.0124999958
 20
-19.0525118391
 30
0.0
 11
114.0124999958
 21
-19.0500000019
 31
0.0
  0
LINE
  5
4AE
330
1F
100
AcDbEntity
  8
0
  6
Continuous
 62
     7
370
    25
100
AcDbLine
 10
101.5099999956
 20
-33.0500000019
 30
0.0
 11
112.509999998
 21
-33.0500000019
 31
0.0
  0
LINE
  5
4AF
330
1F
100
AcDbEntity
  8
0
  6
Continuous
 62
     7
370
    25
100
AcDbLine
 10
93.459999998
 20
-19.05
 30
0.0
 11
82.4599999998
 21
-19.05
 31
0.0
  0
LINE
  5
4B0
330
1F
100
AcDbEntity
  8
0
  6
Continuous
 62
     7
370
    25
100
AcDbLine
 10
94.9624999958
 20
-33.0500000019
 30
0.0
 11
94.9624999958
 21
-33.0474881628
 31
0.0
  0
LINE
  5
4B1
330
1F
100
AcDbEntity
  8
0
  6
Continuous
 62
     7
370
    25
100
AcDbLine
 10
94.9624999958
 20
-19.0525118391
 30
0.0
 11
94.9624999958
 21
-19.0500000019
 31
0.0
  0
LINE
  5
4B2
330
1F
100
AcDbEntity
  8
0
  6
Continuous
 62
     7
370
    25
100
AcDbLine
 10
82.4599999956
 20
-33.0500000019
 30
0.0
 11
93.459999998
 21
-33.0500000019
 31
0.0
  0
LINE
  5
4B3
330
1F
100
AcDbEntity
  8
0
  6
Continuous
 62
     7
370
    25
100
AcDbLine
 10
74.409999998
 20
-19.05
 30
0.0
 11
63.4099999998
 21
-19.05
 31
0.0
  0
LINE
  5
4B4
330
1F
100
AcDbEntity
  8
0
  6
Continuous
 62
     7
370
    25
100
AcDbLine
 10
75.9124999958
 20
-33.0500000019
 30
0.0
 11
75.9124999958
 21
-33.0474881628
 31
0.0
  0
LINE
  5
4B5
330
1F
100
AcDbEntity
  8
0
  6
Continuous
 62
     7
370
    25
100
AcDbLine
 10
75.9124999958
 20
-19.0525118391
 30
0.0
 11
75.9124999958
 21
-19.0500000019
 31
0.0
  0
LINE
  5
4B6
330
1F
100
AcDbEntity
  8
0
  6
Continuous
 62
     7
370
    25
100
AcDbLine
 10
63.4099999956
 20
-33.0500000019
 30
0.0
 11
74.409999998
 21
-33.0500000019
 31
0.0
  0
LINE
  5
4B7
330
1F
100
AcDbEntity
  8
0
  6
Continuous
 62
     7
370
    25
100
AcDbLine
 10
55.359999998
 20
-19.05
 30
0.0
 11
44.3599999998
 21
-19.05
 31
0.0
  0
LINE
  5
4B8
330
1F
100
AcDbEntity
  8
0
  6
Continuous
 62
     7
370
    25
100
AcDbLine
 10
56.8624999958
 20
-33.0500000019
 30
0.0
 11
56.8624999958
 21
-33.0474881628
 31
0.0
  0
LINE
  5
4B9
330
1F
100
AcDbEntity
  8
0
  6
Continuous
 62
     7
370
    25
100
AcDbLine
 10
56.8624999958
 20
-19.0525118391
 30
0.0
 11
56.8624999958
 21
-19.0500000019
 31
0.0
  0
LINE
  5
4BA
330
1F
100
AcDbEntity
  8
0
  6
Continuous
 62
     7
370
    25
100
AcDbLine
 10
44.3599999956
 20
-33.0500000019
 30
0.0
 11
55.359999998
 21
-33.0500000019
 31
0.0
  0
LINE
  5
4BB
330
1F
100
AcDbEntity
  8
0
  6
Continuous
 62
     7
370
    25
100
AcDbLine
 10
112.509999998
 20
0.0
 30
0.0
 11
101.5099999998
 21
0.0
 31
0.0
  0
LINE
  5
4BC
330
1F
100
AcDbEntity
  8
0
  6
Continuous
 62
     7
370
    25
100
AcDbLine
 10
114.0124999958
 20
-14.0000000019
 30
0.0
 11
114.0124999958
 21
-13.9974881628
 31
0.0
  0
LINE
  5
4BD
330
1F
100
AcDbEntity
  8
0
  6
Continuous
 62
     7
370
    25
100
AcDbLine
 10
114.0124999958
 20
-0.0025118391
 30
0.0
 11
114.0124999958
 21
-0.0000000019
 31
0.0
  0
LINE
  5
4BE
330
1F
100
AcDbEntity
  8
0
  6
Continuous
 62
     7
370
    25
100
AcDbLine
 10
101.5099999956
 20
-14.0000000019
 30
0.0
 11
112.509999998
 21
-14.0000000019
 31
0.0
  0
LINE
  5
4BF
330
1F
100
AcDbEntity
  8
0
  6
Continuous
 62
     7
370
    25
100
AcDbLine
 10
93.459999998
 20
0.0
 30
0.0
 11
82.4599999998
 21
0.0
 31
0.0
  0
LINE
  5
4C0
330
1F
100
AcDbEntity
  8
0
  6
Continuous
 62
     7
370
    25
100
AcDbLine
 10
94.9624999958
 20
-14.0000000019
 30
0.0
 11
94.9624999958
 21
-13.9974881628
 31
0.0
  0
LINE
  5
4C1
330
1F
100
AcDbEntity
  8
0
  6
Continuous
 62
     7
370
    25
100
AcDbLine
 10
94.9624999958
 20
-0.0025118391
 30
0.0
 11
94.9624999958
 21
-0.0000000019
 31
0.0
  0
LINE
  5
4C2
330
1F
100
AcDbEntity
  8
0
  6
Continuous
 62
     7
370
    25
100
AcDbLine
 10
82.4599999956
 20
-14.0000000019
 30
0.0
 11
93.459999998
 21
-14.0000000019
 31
0.0
  0
LINE
  5
4C3
330
1F
100
AcDbEntity
  8
0
  6
Continuous
 62
     7
370
    25
100
AcDbLine
 10
74.409999998
 20
0.0
 30
0.0
 11
63.4099999998
 21
0.0
 31
0.0
  0
LINE
  5
4C4
330
1F
100
AcDbEntity
  8
0
  6
Continuous
 62
     7
370
    25
100
AcDbLine
 10
75.9124999958
 20
-14.0000000019
 30
0.0
 11
75.9124999958
 21
-13.9974881628
 31
0.0
  0
LINE
  5
4C5
330
1F
100
AcDbEntity
  8
0
  6
Continuous
 62
     7
370
    25
100
AcDbLine
 10
75.9124999958
 20
-0.0025118391
 30
0.0
 11
75.9124999958
 21
-0.0000000019
 31
0.0
  0
LINE
  5
4C6
330
1F
100
AcDbEntity
  8
0
  6
Continuous
 62
     7
370
    25
100
AcDbLine
 10
63.4099999956
 20
-14.0000000019
 30
0.0
 11
74.409999998
 21
-14.0000000019
 31
0.0
  0
LINE
  5
4C7
330
1F
100
AcDbEntity
  8
0
  6
Continuous
 62
     7
370
    25
100
AcDbLine
 10
55.359999998
 20
0.0
 30
0.0
 11
44.3599999998
 21
0.0
 31
0.0
  0
LINE
  5
4C8
330
1F
100
AcDbEntity
  8
0
  6
Continuous
 62
     7
370
    25
100
AcDbLine
 10
56.8624999958
 20
-14.0000000019
 30
0.0
 11
56.8624999958
 21
-13.9974881628
 31
0.0
  0
LINE
  5
4C9
330
1F
100
AcDbEntity
  8
0
  6
Continuous
 62
     7
370
    25
100
AcDbLine
 10
56.8624999958
 20
-0.0025118391
 30
0.0
 11
56.8624999958
 21
-0.0000000019
 31
0.0
  0
LINE
  5
4CA
330
1F
100
AcDbEntity
  8
0
  6
Continuous
 62
     7
370
    25
100
AcDbLine
 10
44.3599999956
 20
-14.0000000019
 30
0.0
 11
55.359999998
 21
-14.0000000019
 31
0.0
  0
LINE
  5
4CB
330
1F
100
AcDbEntity
  8
0
  6
Continuous
 62
     7
370
    25
100
AcDbLine
 10
-0.0000000042
 20
-20.5499999915
 30
0.0
 11
-0.0000000042
 21
-31.5500000017
 31
0.0
  0
LINE
  5
4CC
330
1F
100
AcDbEntity
  8
0
  6
Continuous
 62
     7
370
    25
100
AcDbLine
 10
12.4999999982
 20
-19.0500000002
 30
0.0
 11
1.4999999998
 21
-19.05
 31
0.0
  0
LINE
  5
4CD
330
1F
100
AcDbEntity
  8
0
  6
Continuous
 62
     7
370
    25
100
AcDbLine
 10
13.9999999978
 20
-31.5500000017
 30
0.0
 11
13.9999999978
 21
-20.5500000002
 31
0.0
  0
LINE
  5
4CE
330
1F
100
AcDbEntity
  8
0
  6
Continuous
 62
     7
370
    25
100
AcDbLine
 10
1.4999999956
 20
-33.0500000019
 30
0.0
 11
12.499999998
 21
-33.0500000019
 31
0.0
  0
LINE
  5
4CF
330
1F
100
AcDbEntity
  8
0
  6
Continuous
 62
     7
370
    25
100
AcDbLine
 10
128.2596442305
 20
-104.2880358651
 30
0.0
 11
137.7859236445
 21
-109.7880358549
 31
0.0
  0
LINE
  5
4D0
330
1F
100
AcDbEntity
  8
0
  6
Continuous
 62
     7
370
    25
100
AcDbLine
 10
133.2106061142
 20
-92.7127183052
 30
0.0
 11
127.7106061122
 21
-102.2389977635
 31
0.0
  0
LINE
  5
4D1
330
1F
100
AcDbEntity
  8
0
  6
Continuous
 62
     7
370
    25
100
AcDbLine
 10
144.7859236546
 20
-97.663680202
 30
0.0
 11
135.25964423
 21
-92.1636802179
 31
0.0
  0
LINE
  5
4D2
330
1F
100
AcDbEntity
  8
0
  6
Continuous
 62
     7
370
    25
100
AcDbLine
 10
139.83496176
 20
-109.2389977733
 30
0.0
 11
145.3349617737
 21
-99.7127183079
 31
0.0
  0
LINE
  5
4D3
330
1F
100
AcDbEntity
  8
0
  6
Continuous
 62
     7
370
    25
100
AcDbLine
 10
135.2609236546
 20
-114.1614641441
 30
0.0
 11
125.73464423
 21
-108.66146416
 31
0.0
  0
LINE
  5
4D4
330
1F
100
AcDbEntity
  8
0
  6
Continuous
 62
     7
370
    25
100
AcDbLine
 10
130.309961754
 20
-125.7367817119
 30
0.0
 11
135.8099617737
 21
-116.21050225
 31
0.0
  0
LINE
  5
4D5
330
1F
100
AcDbEntity
  8
0
  6
Continuous
 62
     7
370
    25
100
AcDbLine
 10
118.7346442305
 20
-120.7858198072
 30
0.0
 11
128.2609236445
 21
-126.285819797
 31
0.0
  0
LINE
  5
4D6
330
1F
100
AcDbEntity
  8
0
  6
Continuous
 62
     7
370
    25
100
AcDbLine
 10
123.6856061199
 20
-109.2105022506
 30
0.0
 11
118.1856061122
 21
-118.7367817056
 31
0.0
  0
LINE
  5
4D7
330
1F
100
AcDbEntity
  8
0
  6
Continuous
 62
     7
370
    25
100
AcDbLine
 10
125.3199999956
 20
-14.0000000019
 30
0.0
 11
136.319999998
 21
-14.0000000019
 31
0.0
  0
LINE
  5
4D8
330
1F
100
AcDbEntity
  8
0
  6
Continuous
 62
     7
370
    25
100
AcDbLine
 10
136.319999998
 20
0.0
 30
0.0
 11
125.3199999998
 21
0.0
 31
0.0
  0
LINE
  5
4D9
330
1F
100
AcDbEntity
  8
0
  6
Continuous
 62
     7
370
    25
100
AcDbLine
 10
137.8224999958
 20
-14.0000000019
 30
0.0
 11
137.8224999958
 21
-13.9974881628
 31
0.0
  0
LINE
  5
4DA
330
1F
100
AcDbEntity
  8
0
  6
Continuous
 62
     7
370
    25
100
AcDbLine
 10
137.8224999958
 20
-0.0025118391
 30
0.0
 11
137.8224999958
 21
-0.0000000019
 31
0.0
  0
LINE
  5
4DB
330
1F
100
AcDbEntity
  8
0
  6
Continuous
 62
     7
370
    25
100
AcDbLine
 10
25.3099999956
 20
-14.0000000019
 30
0.0
 11
36.309999998
 21
-14.0000000019
 31
0.0
  0
LINE
  5
4DC
330
1F
100
AcDbEntity
  8
0
  6
Continuous
 62
     7
370
    25
100
AcDbLine
 10
36.309999998
 20
0.0
 30
0.0
 11
25.3099999998
 21
0.0
 31
0.0
  0
LINE
  5
4DD
330
1F
100
AcDbEntity
  8
0
  6
Continuous
 62
     7
370
    25
100
AcDbLine
 10
37.8124999958
 20
-14.0000000019
 30
0.0
 11
37.8124999958
 21
-13.9974881628
 31
0.0
  0
LINE
  5
4DE
330
1F
100
AcDbEntity
  8
0
  6
Continuous
 62
     7
370
    25
100
AcDbLine
 10
37.8124999958
 20
-0.0025118391
 30
0.0
 11
37.8124999958
 21
-0.0000000019
 31
0.0
  0
LINE
  5
4DF
330
1F
100
AcDbEntity
  8
0
  6
Continuous
 62
     7
370
    25
100
AcDbLine
 10
-0.0000000042
 20
-1.4999999915
 30
0.0
 11
-0.0000000042
 21
-12.5000000017
 31
0.0
  0
LINE
  5
4E0
330
1F
100
AcDbEntity
  8
0
  6
Continuous
 62
     7
370
    25
100
AcDbLine
 10
12.4999999982
 20
-0.0000000002
 30
0.0
 11
1.4999999998
 21
0.0
 31
0.0
  0
LINE
  5
4E1
330
1F
100
AcDbEntity
  8
0
  6
Continuous
 62
     7
370
    25
100
AcDbLine
 10
13.9999999978
 20
-12.5000000017
 30
0.0
 11
13.9999999978
 21
-1.5000000002
 31
0.0
  0
LINE
  5
4E2
330
1F
100
AcDbEntity
  8
0
  6
Continuous
 62
     7
370
    25
100
AcDbLine
 10
1.4999999956
 20
-14.0000000019
 30
0.0
 11
12.499999998
 21
-14.0000000019
 31
0.0
  0
LINE
  5
4E3
330
1F
100
AcDbEntity
  8
0
  6
Continuous
 62
     7
370
    25
100
AcDbLine
 10
-9.1625
 20
1.199854656
 30
0.0
 11
-9.1625
 21
-10.7250000019
 31
0.0
  0
LINE
  5
4E4
330
1F
100
AcDbEntity
  8
0
  6
Continuous
 62
     7
370
    25
100
AcDbLine
 10
-9.1625
 20
-22.3250000019
 30
0.0
 11
-9.1625
 21
-67.8750000019
 31
0.0
  0
LINE
  5
4E5
330
1F
100
AcDbEntity
  8
0
  6
Continuous
 62
     7
370
    25
100
AcDbLine
 10
91.6874999958
 20
4.3999999981
 30
0.0
 11
46.1374999958
 21
4.3999999981
 31
0.0
  0
LINE
  5
4E6
330
1F
100
AcDbEntity
  8
0
  6
Continuous
 62
     7
370
    25
100
AcDbLine
 10
139.0585945406
 20
4.3999999981
 30
0.0
 11
103.2874999958
 21
4.3999999981
 31
0.0
  0
LINE
  5
4E7
330
1F
100
AcDbEntity
  8
0
  6
Continuous
 62
     7
370
    25
100
AcDbLine
 10
142.2249999958
 20
-71.1925556406
 30
0.0
 11
142.2249999958
 21
-22.3250000019
 31
0.0
  0
LINE
  5
4E8
330
1F
100
AcDbEntity
  8
0
  6
Continuous
 62
     7
370
    25
100
AcDbLine
 10
-6.0909963603
 20
-94.6000000019
 30
0.0
 11
25.0124999958
 21
-94.6000000019
 31
0.0
  0
LINE
  5
4E9
330
1F
100
AcDbEntity
  8
0
  6
Continuous
 62
     7
370
    25
100
AcDbLine
 10
64.7535119956
 20
-94.7004809491
 30
0.0
 11
99.7770526539
 21
-114.9213315761
 31
0.0
  0
LINE
  5
4EA
330
1F
100
AcDbEntity
  8
0
  6
Continuous
 62
     7
370
    25
100
AcDbLine
 10
149.2536078376
 20
-94.925302106
 30
0.0
 11
147.7661240444
 21
-89.9257867622
 31
0.0
  0
LINE
  5
4EB
330
1F
100
AcDbEntity
  8
0
  6
Continuous
 62
     7
370
    25
100
AcDbLine
 10
111.7525002075
 20
-91.7792479699
 30
0.0
 11
106.6481441312
 21
-100.6202520339
 31
0.0
  0
LINE
  5
4EC
330
1F
100
AcDbEntity
  8
0
  6
Continuous
 62
     7
370
    25
100
AcDbLine
 10
118.7724997842
 20
-107.6202520339
 30
0.0
 11
123.8768558605
 21
-98.7792479699
 31
0.0
  0
ARC
  5
4ED
330
1F
100
AcDbEntity
  8
0
  6
Continuous
 62
     7
370
    25
100
AcDbCircle
 10
91.6874999958
 20
5.6999999981
 30
0.0
 40
1.30000000000001
100
AcDbArc
 50
270.0
 51
47.1665719339
  0
ARC
  5
4EE
330
1F
100
AcDbEntity
  8
0
  6
Continuous
 62
     7
370
    25
100
AcDbCircle
 10
92.7073038985
 20
6.7999999981
 30
0.0
 40
0.1999999999999931
100
AcDbArc
 50
90.0
 51
227.1665719339
  0
ARC
  5
4EF
330
1F
100
AcDbEntity
  8
0
  6
Continuous
 62
     7
370
    25
100
AcDbCircle
 10
102.2676960931
 20
6.7999999981
 30
0.0
 40
0.1999999999999966
100
AcDbArc
 50
312.8334280661
 51
90.0
  0
ARC
  5
4F0
330
1F
100
AcDbEntity
  8
0
  6
Continuous
 62
     7
370
    25
100
AcDbCircle
 10
103.2874999958
 20
5.6999999981
 30
0.0
 40
1.3
100
AcDbArc
 50
132.8334280661
 51
270.0
  0
ARC
  5
4F1
330
1F
100
AcDbEntity
  8
0
  6
Continuous
 62
     7
370
    25
100
AcDbCircle
 10
139.0585945406
 20
3.6499999981
 30
0.0
 40
0.7500000000000577
100
AcDbArc
 50
20.994582502
 51
90.0
  0
ARC
  5
4F2
330
1F
100
AcDbEntity
  8
0
  6
Continuous
 62
     7
370
    25
100
AcDbCircle
 10
142.9797746306
 20
5.1547746328
 30
0.0
 40
3.450000000000132
100
AcDbArc
 50
200.994582502
 51
249.005417498
  0
ARC
  5
4F3
330
1F
100
AcDbEntity
  8
0
  6
Continuous
 62
     7
370
    25
100
AcDbCircle
 10
141.4749999958
 20
1.2335945428
 30
0.0
 40
0.7499999999999726
100
AcDbArc
 50
0.0
 51
69.005417498
  0
ARC
  5
4F4
330
1F
100
AcDbEntity
  8
0
  6
Continuous
 62
     7
370
    25
100
AcDbCircle
 10
143.5249999958
 20
-10.7250000019
 30
0.0
 40
1.299999999999926
100
AcDbArc
 50
180.0
 51
317.1665719339
  0
ARC
  5
4F5
330
1F
100
AcDbEntity
  8
0
  6
Continuous
 62
     7
370
    25
100
AcDbCircle
 10
144.6249999958
 20
-11.7448039047
 30
0.0
 40
0.2000000000000171
100
AcDbArc
 50
360.0
 51
137.1665719339
  0
ARC
  5
4F6
330
1F
100
AcDbEntity
  8
0
  6
Continuous
 62
     7
370
    25
100
AcDbCircle
 10
144.6249999958
 20
-21.3051960992
 30
0.0
 40
0.2000000000000171
100
AcDbArc
 50
222.8334280661
 51
0.0
  0
ARC
  5
4F7
330
1F
100
AcDbEntity
  8
0
  6
Continuous
 62
     7
370
    25
100
AcDbCircle
 10
143.5249999958
 20
-22.3250000019
 30
0.0
 40
1.300000000000011
100
AcDbArc
 50
42.8334280661
 51
180.0
  0
ARC
  5
4F8
330
1F
100
AcDbEntity
  8
0
  6
Continuous
 62
     7
370
    25
100
AcDbCircle
 10
142.9749999958
 20
-71.1925556406
 30
0.0
 40
0.7500000000030735
100
AcDbArc
 50
180.0
 51
196.5690890461
  0
ARC
  5
4F9
330
1F
100
AcDbEntity
  8
0
  6
Continuous
 62
     7
370
    25
100
AcDbCircle
 10
145.7041563479
 20
-78.4367359216
 30
0.0
 40
1.299999999999955
100
AcDbArc
 50
196.5690890461
 51
333.73566098
  0
ARC
  5
4FA
330
1F
100
AcDbEntity
  8
0
  6
Continuous
 62
     7
370
    25
100
AcDbCircle
 10
147.0492993853
 20
-79.1005056173
 30
0.0
 40
0.2000000000000073
100
AcDbArc
 50
16.5690890461
 51
153.73566098
  0
ARC
  5
4FB
330
1F
100
AcDbEntity
  8
0
  6
Continuous
 62
     7
370
    25
100
AcDbCircle
 10
149.7756489785
 20
-88.2639174715
 30
0.0
 40
0.2000000000000213
100
AcDbArc
 50
239.4025171121
 51
16.5690890461
  0
ARC
  5
4FC
330
1F
100
AcDbEntity
  8
0
  6
Continuous
 62
     7
370
    25
100
AcDbCircle
 10
149.0121435766
 20
-89.5550640555
 30
0.0
 40
1.299999999999999
100
AcDbArc
 50
59.4025171122
 51
196.5690890461
  0
ARC
  5
4FD
330
1F
100
AcDbEntity
  8
0
  6
Continuous
 62
     7
370
    25
100
AcDbCircle
 10
149.97246526
 20
-94.7114236214
 30
0.0
 40
0.7500000000000754
100
AcDbArc
 50
196.5690890461
 51
235.5142315825
  0
ARC
  5
4FE
330
1F
100
AcDbEntity
  8
0
  6
Continuous
 62
     7
370
    25
100
AcDbCircle
 10
149.1231629854
 20
-95.947823899
 30
0.0
 40
0.7499999999999446
100
AcDbArc
 50
353.8401330817
 51
55.5142315825
  0
ARC
  5
4FF
330
1F
100
AcDbEntity
  8
0
  6
Continuous
 62
     7
370
    25
100
AcDbCircle
 10
153.298913734
 20
-96.3984963807
 30
0.0
 40
3.449999999999978
100
AcDbArc
 50
173.8401330817
 51
217.756638991
  0
ARC
  5
500
330
1F
100
AcDbEntity
  8
0
  6
Continuous
 62
     7
370
    25
100
AcDbCircle
 10
149.9783154903
 20
-98.9701937393
 30
0.0
 40
0.7499999999999768
100
AcDbArc
 50
330.0
 51
37.756638991
  0
ARC
  5
501
330
1F
100
AcDbEntity
  8
0
  6
Continuous
 62
     7
370
    25
100
AcDbCircle
 10
132.0718781331
 20
-129.9850530246
 30
0.0
 40
0.7499999999999737
100
AcDbArc
 50
261.6745086612
 51
330.0
  0
ARC
  5
502
330
1F
100
AcDbEntity
  8
0
  6
Continuous
 62
     7
370
    25
100
AcDbCircle
 10
131.4637331085
 20
-134.1407911815
 30
0.0
 40
3.449999999999851
100
AcDbArc
 50
81.6745086612
 51
128.3254913388
  0
ARC
  5
503
330
1F
100
AcDbEntity
  8
0
  6
Continuous
 62
     7
370
    25
100
AcDbCircle
 10
128.8591949895
 20
-130.8458888784
 30
0.0
 40
0.7500000000000577
100
AcDbArc
 50
240.0
 51
308.3254913388
  0
ARC
  5
504
330
1F
100
AcDbEntity
  8
0
  6
Continuous
 62
     7
370
    25
100
AcDbCircle
 10
109.1729473378
 20
-121.847164601
 30
0.0
 40
1.300000000000038
100
AcDbArc
 50
60.0
 51
197.1665719339
  0
ARC
  5
505
330
1F
100
AcDbEntity
  8
0
  6
Continuous
 62
     7
370
    25
100
AcDbCircle
 10
107.7397712511
 20
-122.2898905938
 30
0.0
 40
0.1999999999999967
100
AcDbArc
 50
240.0
 51
17.1665719339
  0
ARC
  5
506
330
1F
100
AcDbEntity
  8
0
  6
Continuous
 62
     7
370
    25
100
AcDbCircle
 10
99.4602287405
 20
-117.5096944966
 30
0.0
 40
0.2000000000000156
100
AcDbArc
 50
102.8334280661
 51
240.0
  0
ARC
  5
507
330
1F
100
AcDbEntity
  8
0
  6
Continuous
 62
     7
370
    25
100
AcDbCircle
 10
99.1270526539
 20
-116.047164601
 30
0.0
 40
1.300000000000022
100
AcDbArc
 50
282.8334280661
 51
60.0
  0
ARC
  5
508
330
1F
100
AcDbEntity
  8
0
  6
Continuous
 62
     7
370
    25
100
AcDbCircle
 10
64.3785119956
 20
-95.3500000019
 30
0.0
 40
0.7499999999997974
100
AcDbArc
 50
60.0
 51
90.0
  0
ARC
  5
509
330
1F
100
AcDbEntity
  8
0
  6
Continuous
 62
     7
370
    25
100
AcDbCircle
 10
36.6124999958
 20
-95.9000000019
 30
0.0
 40
1.30000000000001
100
AcDbArc
 50
90.0
 51
227.1665719339
  0
ARC
  5
50A
330
1F
100
AcDbEntity
  8
0
  6
Continuous
 62
     7
370
    25
100
AcDbCircle
 10
35.5926960931
 20
-97.0000000019
 30
0.0
 40
0.2000000000000028
100
AcDbArc
 50
270.0
 51
47.1665719339
  0
ARC
  5
50B
330
1F
100
AcDbEntity
  8
0
  6
Continuous
 62
     7
370
    25
100
AcDbCircle
 10
26.0323038985
 20
-97.0000000019
 30
0.0
 40
0.2000000000000098
100
AcDbArc
 50
132.8334280661
 51
270.0
  0
ARC
  5
50C
330
1F
100
AcDbEntity
  8
0
  6
Continuous
 62
     7
370
    25
100
AcDbCircle
 10
25.0124999958
 20
-95.9000000019
 30
0.0
 40
1.299999999999996
100
AcDbArc
 50
312.8334280661
 51
90.0
  0
ARC
  5
50D
330
1F
100
AcDbEntity
  8
0
  6
Continuous
 62
     7
370
    25
100
AcDbCircle
 10
-6.0909963603
 20
-93.8500000019
 30
0.0
 40
0.750000000000039
100
AcDbArc
 50
201.9928828703
 51
270.0
  0
ARC
  5
50E
330
1F
100
AcDbEntity
  8
0
  6
Continuous
 62
     7
370
    25
100
AcDbCircle
 10
-9.9853639565
 20
-95.4228639584
 30
0.0
 40
3.449999999999965
100
AcDbArc
 50
21.9928828703
 51
68.0071171297
  0
ARC
  5
50F
330
1F
100
AcDbEntity
  8
0
  6
Continuous
 62
     7
370
    25
100
AcDbCircle
 10
-8.4125
 20
-91.5284963622
 30
0.0
 40
0.7500000000000426
100
AcDbArc
 50
180.0
 51
248.0071171297
  0
ARC
  5
510
330
1F
100
AcDbEntity
  8
0
  6
Continuous
 62
     7
370
    25
100
AcDbCircle
 10
-10.4625
 20
-79.4750000019
 30
0.0
 40
1.299999999999484
100
AcDbArc
 50
360.0
 51
137.166571934
  0
ARC
  5
511
330
1F
100
AcDbEntity
  8
0
  6
Continuous
 62
     7
370
    25
100
AcDbCircle
 10
-11.5625
 20
-78.4551960992
 30
0.0
 40
0.2000000000000128
100
AcDbArc
 50
180.0
 51
317.1665719339
  0
ARC
  5
512
330
1F
100
AcDbEntity
  8
0
  6
Continuous
 62
     7
370
    25
100
AcDbCircle
 10
-11.5625
 20
-68.8948039047
 30
0.0
 40
0.1999999999999975
100
AcDbArc
 50
42.8334280661
 51
180.0
  0
ARC
  5
513
330
1F
100
AcDbEntity
  8
0
  6
Continuous
 62
     7
370
    25
100
AcDbCircle
 10
-10.4625
 20
-67.8750000019
 30
0.0
 40
1.29999999999992
100
AcDbArc
 50
222.8334280661
 51
360.0
  0
ARC
  5
514
330
1F
100
AcDbEntity
  8
0
  6
Continuous
 62
     7
370
    25
100
AcDbCircle
 10
-10.4625
 20
-22.3250000019
 30
0.0
 40
1.300000000000013
100
AcDbArc
 50
0.0
 51
137.1665719339
  0
ARC
  5
515
330
1F
100
AcDbEntity
  8
0
  6
Continuous
 62
     7
370
    25
100
AcDbCircle
 10
-11.5625
 20
-21.3051960992
 30
0.0
 40
0.1999999999999957
100
AcDbArc
 50
180.0
 51
317.1665719339
  0
ARC
  5
516
330
1F
100
AcDbEntity
  8
0
  6
Continuous
 62
     7
370
    25
100
AcDbCircle
 10
-11.5625
 20
-11.7448039047
 30
0.0
 40
0.1999999999999957
100
AcDbArc
 50
42.8334280661
 51
180.0
  0
ARC
  5
517
330
1F
100
AcDbEntity
  8
0
  6
Continuous
 62
     7
370
    25
100
AcDbCircle
 10
-10.4625
 20
-10.7250000019
 30
0.0
 40
1.300000000000011
100
AcDbArc
 50
222.8334280661
 51
0.0
  0
ARC
  5
518
330
1F
100
AcDbEntity
  8
0
  6
Continuous
 62
     7
370
    25
100
AcDbCircle
 10
-8.4125
 20
1.199854656
 30
0.0
 40
0.7499999999999574
100
AcDbArc
 50
110.6764121262
 51
180.0
  0
ARC
  5
519
330
1F
100
AcDbEntity
  8
0
  6
Continuous
 62
     7
370
    25
100
AcDbCircle
 10
-9.8954767592
 20
5.1293304393
 30
0.0
 40
3.450000000000002
100
AcDbArc
 50
290.6764121262
 51
339.3767456236
  0
ARC
  5
51A
330
1F
100
AcDbEntity
  8
0
  6
Continuous
 62
     7
370
    25
100
AcDbCircle
 10
-5.9646267944
 20
3.6499999981
 30
0.0
 40
0.7500000000000202
100
AcDbArc
 50
90.0
 51
159.3767456236
  0
ARC
  5
51B
330
1F
100
AcDbEntity
  8
0
  6
Continuous
 62
     7
370
    25
100
AcDbCircle
 10
34.5374999958
 20
5.6999999981
 30
0.0
 40
1.30000000000004
100
AcDbArc
 50
270.0
 51
47.1665719339
  0
ARC
  5
51C
330
1F
100
AcDbEntity
  8
0
  6
Continuous
 62
     7
370
    25
100
AcDbCircle
 10
35.5573038985
 20
6.7999999981
 30
0.0
 40
0.1999999999999958
100
AcDbArc
 50
90.0
 51
227.1665719339
  0
ARC
  5
51D
330
1F
100
AcDbEntity
  8
0
  6
Continuous
 62
     7
370
    25
100
AcDbCircle
 10
45.1176960931
 20
6.7999999981
 30
0.0
 40
0.1999999999999989
100
AcDbArc
 50
312.8334280661
 51
90.0
  0
ARC
  5
51E
330
1F
100
AcDbEntity
  8
0
  6
Continuous
 62
     7
370
    25
100
AcDbCircle
 10
46.1374999958
 20
5.6999999981
 30
0.0
 40
1.300000000000011
100
AcDbArc
 50
132.8334280661
 51
270.0
  0
ARC
  5
51F
330
1F
100
AcDbEntity
  8
0
  6
Continuous
 62
     7
370
    25
100
AcDbCircle
 10
12.499999998
 20
-15.5000000019
 30
0.0
 40
1.499999999999875
100
AcDbArc
 50
64.4712206391
 51
90.0
  0
ARC
  5
520
330
1F
100
AcDbEntity
  8
0
  6
Continuous
 62
     7
370
    25
100
AcDbCircle
 10
13.469669912
 20
-13.469669916
 30
0.0
 40
0.7500000000000043
100
AcDbArc
 50
244.4712206392
 51
25.5287793702
  0
ARC
  5
521
330
1F
100
AcDbEntity
  8
0
  6
Continuous
 62
     7
370
    25
100
AcDbCircle
 10
15.4999999978
 20
-12.5000000017
 30
0.0
 40
1.500000000000228
100
AcDbArc
 50
180.0
 51
205.5287793702
  0
ARC
  5
522
330
1F
100
AcDbEntity
  8
0
  6
Continuous
 62
     7
370
    25
100
AcDbCircle
 10
15.4999999978
 20
-1.5000000002
 30
0.0
 40
1.500000000000238
100
AcDbArc
 50
154.4712206298
 51
180.0
  0
ARC
  5
523
330
1F
100
AcDbEntity
  8
0
  6
Continuous
 62
     7
370
    25
100
AcDbCircle
 10
13.469669912
 20
-0.530330086
 30
0.0
 40
0.7499999999999988
100
AcDbArc
 50
334.4712206298
 51
115.5287793608
  0
ARC
  5
524
330
1F
100
AcDbEntity
  8
0
  6
Continuous
 62
     7
370
    25
100
AcDbCircle
 10
12.4999999964
 20
1.5000000049
 30
0.0
 40
1.500000005115948
100
AcDbArc
 50
270.0000000688
 51
295.528779335
  0
ARC
  5
525
330
1F
100
AcDbEntity
  8
0
  6
Continuous
 62
     7
370
    25
100
AcDbCircle
 10
1.4999999998
 20
1.5
 30
0.0
 40
1.500000000000105
100
AcDbArc
 50
244.4712206392
 51
270.0
  0
ARC
  5
526
330
1F
100
AcDbEntity
  8
0
  6
Continuous
 62
     7
370
    25
100
AcDbCircle
 10
0.5303300858
 20
-0.530330086
 30
0.0
 40
0.7499999999999957
100
AcDbArc
 50
64.4712206392
 51
205.5287791236
  0
ARC
  5
527
330
1F
100
AcDbEntity
  8
0
  6
Continuous
 62
     7
370
    25
100
AcDbCircle
 10
-1.5000000042
 20
-1.4999999915
 30
0.0
 40
1.500000000003855
100
AcDbArc
 50
0.0000000001
 51
25.5287791236
  0
ARC
  5
528
330
1F
100
AcDbEntity
  8
0
  6
Continuous
 62
     7
370
    25
100
AcDbCircle
 10
-1.5000000042
 20
-12.5000000017
 30
0.0
 40
1.499999999999527
100
AcDbArc
 50
334.4712206299
 51
0.0
  0
ARC
  5
529
330
1F
100
AcDbEntity
  8
0
  6
Continuous
 62
     7
370
    25
100
AcDbCircle
 10
0.5303300816
 20
-13.469669916
 30
0.0
 40
0.7500000000000051
100
AcDbArc
 50
154.4712206299
 51
295.5287793609
  0
ARC
  5
52A
330
1F
100
AcDbEntity
  8
0
  6
Continuous
 62
     7
370
    25
100
AcDbCircle
 10
1.4999999956
 20
-15.5000000019
 30
0.0
 40
1.499999999999922
100
AcDbArc
 50
90.0
 51
115.5287793609
  0
ARC
  5
52B
330
1F
100
AcDbEntity
  8
0
  6
Continuous
 62
     7
370
    25
100
AcDbCircle
 10
137.289669912
 20
-70.619669916
 30
0.0
 40
0.7499999999998778
100
AcDbArc
 50
315.2707353259
 51
25.5287793702
  0
ARC
  5
52C
330
1F
100
AcDbEntity
  8
0
  6
Continuous
 62
     7
370
    25
100
AcDbCircle
 10
139.3199999978
 20
-69.6500000017
 30
0.0
 40
1.500000000000997
100
AcDbArc
 50
183.3084317046
 51
205.5287793702
  0
ARC
  5
52D
330
1F
100
AcDbEntity
  8
0
  6
Continuous
 62
     7
370
    25
100
AcDbCircle
 10
139.3199999978
 20
-58.6500000002
 30
0.0
 40
1.500000000000901
100
AcDbArc
 50
154.4712206298
 51
176.6915682954
  0
ARC
  5
52E
330
1F
100
AcDbEntity
  8
0
  6
Continuous
 62
     7
370
    25
100
AcDbCircle
 10
137.289669912
 20
-57.680330086
 30
0.0
 40
0.749999999999933
100
AcDbArc
 50
334.4712206298
 51
44.7292646741
  0
ARC
  5
52F
330
1F
100
AcDbEntity
  8
0
  6
Continuous
 62
     7
370
    25
100
AcDbCircle
 10
137.289669912
 20
-57.680330086
 30
0.0
 40
0.7500000000000161
100
AcDbArc
 50
44.9999997993
 51
115.5287793608
  0
ARC
  5
530
330
1F
100
AcDbEntity
  8
0
  6
Continuous
 62
     7
370
    25
100
AcDbCircle
 10
136.319999998
 20
-55.65
 30
0.0
 40
1.499999999999993
100
AcDbArc
 50
270.0
 51
295.5287793608
  0
ARC
  5
531
330
1F
100
AcDbEntity
  8
0
  6
Continuous
 62
     7
370
    25
100
AcDbCircle
 10
125.3199999998
 20
-55.65
 30
0.0
 40
1.499999999999886
100
AcDbArc
 50
244.4712206392
 51
270.0
  0
ARC
  5
532
330
1F
100
AcDbEntity
  8
0
  6
Continuous
 62
     7
370
    25
100
AcDbCircle
 10
124.3503300858
 20
-57.680330086
 30
0.0
 40
0.7500000000000104
100
AcDbArc
 50
64.4712206392
 51
205.5287791236
  0
ARC
  5
533
330
1F
100
AcDbEntity
  8
0
  6
Continuous
 62
     7
370
    25
100
AcDbCircle
 10
122.3199999958
 20
-58.6499999915
 30
0.0
 40
1.499999999999687
100
AcDbArc
 50
360.0
 51
25.5287791236
  0
ARC
  5
534
330
1F
100
AcDbEntity
  8
0
  6
Continuous
 62
     7
370
    25
100
AcDbCircle
 10
122.3199999958
 20
-69.6500000017
 30
0.0
 40
1.500000000000167
100
AcDbArc
 50
334.4712206299
 51
360.0
  0
ARC
  5
535
330
1F
100
AcDbEntity
  8
0
  6
Continuous
 62
     7
370
    25
100
AcDbCircle
 10
124.3503300816
 20
-70.619669916
 30
0.0
 40
0.7499999999999977
100
AcDbArc
 50
154.4712206299
 51
295.5287793609
  0
ARC
  5
536
330
1F
100
AcDbEntity
  8
0
  6
Continuous
 62
     7
370
    25
100
AcDbCircle
 10
125.3199999956
 20
-72.6500000019
 30
0.0
 40
1.499999999999773
100
AcDbArc
 50
90.0
 51
115.5287793609
  0
ARC
  5
537
330
1F
100
AcDbEntity
  8
0
  6
Continuous
 62
     7
370
    25
100
AcDbCircle
 10
136.319999998
 20
-72.6500000019
 30
0.0
 40
1.500000000000341
100
AcDbArc
 50
64.4712206392
 51
90.0
  0
ARC
  5
538
330
1F
100
AcDbEntity
  8
0
  6
Continuous
 62
     7
370
    25
100
AcDbCircle
 10
137.289669912
 20
-70.619669916
 30
0.0
 40
0.7499999999999458
100
AcDbArc
 50
244.4712206391
 51
314.9999999916
  0
ARC
  5
539
330
1F
100
AcDbEntity
  8
0
  6
Continuous
 62
     7
370
    25
100
AcDbCircle
 10
137.289669912
 20
-51.569669916
 30
0.0
 40
0.7499999999999105
100
AcDbArc
 50
315.2707353259
 51
25.5287793702
  0
ARC
  5
53A
330
1F
100
AcDbEntity
  8
0
  6
Continuous
 62
     7
370
    25
100
AcDbCircle
 10
139.3199999978
 20
-50.6000000017
 30
0.0
 40
1.500000000000394
100
AcDbArc
 50
183.3084317046
 51
205.5287793702
  0
ARC
  5
53B
330
1F
100
AcDbEntity
  8
0
  6
Continuous
 62
     7
370
    25
100
AcDbCircle
 10
139.3199999978
 20
-39.6000000002
 30
0.0
 40
1.500000000000902
100
AcDbArc
 50
154.4712206298
 51
176.6915682954
  0
ARC
  5
53C
330
1F
100
AcDbEntity
  8
0
  6
Continuous
 62
     7
370
    25
100
AcDbCircle
 10
137.289669912
 20
-38.630330086
 30
0.0
 40
0.749999999999933
100
AcDbArc
 50
334.4712206298
 51
44.7292646741
  0
ARC
  5
53D
330
1F
100
AcDbEntity
  8
0
  6
Continuous
 62
     7
370
    25
100
AcDbCircle
 10
137.289669912
 20
-38.630330086
 30
0.0
 40
0.7500000000000111
100
AcDbArc
 50
44.9999997993
 51
115.5287793608
  0
ARC
  5
53E
330
1F
100
AcDbEntity
  8
0
  6
Continuous
 62
     7
370
    25
100
AcDbCircle
 10
136.319999998
 20
-36.6
 30
0.0
 40
1.499999999999974
100
AcDbArc
 50
270.0
 51
295.5287793608
  0
ARC
  5
53F
330
1F
100
AcDbEntity
  8
0
  6
Continuous
 62
     7
370
    25
100
AcDbCircle
 10
125.3199999998
 20
-36.6
 30
0.0
 40
1.500000000000039
100
AcDbArc
 50
244.4712206392
 51
270.0
  0
ARC
  5
540
330
1F
100
AcDbEntity
  8
0
  6
Continuous
 62
     7
370
    25
100
AcDbCircle
 10
124.3503300858
 20
-38.630330086
 30
0.0
 40
0.7500000000000008
100
AcDbArc
 50
64.4712206392
 51
205.5287791236
  0
ARC
  5
541
330
1F
100
AcDbEntity
  8
0
  6
Continuous
 62
     7
370
    25
100
AcDbCircle
 10
122.3199999958
 20
-39.5999999915
 30
0.0
 40
1.499999999999687
100
AcDbArc
 50
360.0
 51
25.5287791236
  0
ARC
  5
542
330
1F
100
AcDbEntity
  8
0
  6
Continuous
 62
     7
370
    25
100
AcDbCircle
 10
122.3199999958
 20
-50.6000000017
 30
0.0
 40
1.500000000000122
100
AcDbArc
 50
334.4712206299
 51
0.0
  0
ARC
  5
543
330
1F
100
AcDbEntity
  8
0
  6
Continuous
 62
     7
370
    25
100
AcDbCircle
 10
124.3503300816
 20
-51.569669916
 30
0.0
 40
0.7500000000000001
100
AcDbArc
 50
154.4712206299
 51
295.5287793609
  0
ARC
  5
544
330
1F
100
AcDbEntity
  8
0
  6
Continuous
 62
     7
370
    25
100
AcDbCircle
 10
125.3199999956
 20
-53.6000000019
 30
0.0
 40
1.499999999999976
100
AcDbArc
 50
90.0
 51
115.5287793609
  0
ARC
  5
545
330
1F
100
AcDbEntity
  8
0
  6
Continuous
 62
     7
370
    25
100
AcDbCircle
 10
136.319999998
 20
-53.6000000019
 30
0.0
 40
1.500000000000128
100
AcDbArc
 50
64.4712206392
 51
90.0
  0
ARC
  5
546
330
1F
100
AcDbEntity
  8
0
  6
Continuous
 62
     7
370
    25
100
AcDbCircle
 10
137.289669912
 20
-51.569669916
 30
0.0
 40
0.7499999999999719
100
AcDbArc
 50
244.4712206391
 51
314.9999999916
  0
ARC
  5
547
330
1F
100
AcDbEntity
  8
0
  6
Continuous
 62
     7
370
    25
100
AcDbCircle
 10
137.289669912
 20
-32.519669916
 30
0.0
 40
0.7499999999999074
100
AcDbArc
 50
315.2707353259
 51
25.5287793702
  0
ARC
  5
548
330
1F
100
AcDbEntity
  8
0
  6
Continuous
 62
     7
370
    25
100
AcDbCircle
 10
139.3199999978
 20
-31.5500000017
 30
0.0
 40
1.500000000000997
100
AcDbArc
 50
183.3084317046
 51
205.5287793702
  0
ARC
  5
549
330
1F
100
AcDbEntity
  8
0
  6
Continuous
 62
     7
370
    25
100
AcDbCircle
 10
139.3199999978
 20
-20.5500000002
 30
0.0
 40
1.500000000000787
100
AcDbArc
 50
154.4712206298
 51
176.6915682954
  0
ARC
  5
54A
330
1F
100
AcDbEntity
  8
0
  6
Continuous
 62
     7
370
    25
100
AcDbCircle
 10
137.289669912
 20
-19.580330086
 30
0.0
 40
0.7499999999999356
100
AcDbArc
 50
334.4712206298
 51
44.7292646741
  0
ARC
  5
54B
330
1F
100
AcDbEntity
  8
0
  6
Continuous
 62
     7
370
    25
100
AcDbCircle
 10
137.289669912
 20
-19.580330086
 30
0.0
 40
0.7500000000000085
100
AcDbArc
 50
44.9999997993
 51
115.5287793608
  0
ARC
  5
54C
330
1F
100
AcDbEntity
  8
0
  6
Continuous
 62
     7
370
    25
100
AcDbCircle
 10
136.319999998
 20
-17.55
 30
0.0
 40
1.500000000000063
100
AcDbArc
 50
270.0
 51
295.5287793608
  0
ARC
  5
54D
330
1F
100
AcDbEntity
  8
0
  6
Continuous
 62
     7
370
    25
100
AcDbCircle
 10
125.3199999998
 20
-17.55
 30
0.0
 40
1.500000000000174
100
AcDbArc
 50
244.4712206392
 51
270.0
  0
ARC
  5
54E
330
1F
100
AcDbEntity
  8
0
  6
Continuous
 62
     7
370
    25
100
AcDbCircle
 10
124.3503300858
 20
-19.580330086
 30
0.0
 40
0.7500000000000008
100
AcDbArc
 50
64.4712206392
 51
205.5287791236
  0
ARC
  5
54F
330
1F
100
AcDbEntity
  8
0
  6
Continuous
 62
     7
370
    25
100
AcDbCircle
 10
122.3199999958
 20
-20.5499999915
 30
0.0
 40
1.499999999999645
100
AcDbArc
 50
360.0
 51
25.5287791236
  0
ARC
  5
550
330
1F
100
AcDbEntity
  8
0
  6
Continuous
 62
     7
370
    25
100
AcDbCircle
 10
122.3199999958
 20
-31.5500000017
 30
0.0
 40
1.500000000000093
100
AcDbArc
 50
334.4712206299
 51
0.0
  0
ARC
  5
551
330
1F
100
AcDbEntity
  8
0
  6
Continuous
 62
     7
370
    25
100
AcDbCircle
 10
124.3503300816
 20
-32.519669916
 30
0.0
 40
0.7500000000000041
100
AcDbArc
 50
154.4712206299
 51
295.5287793609
  0
ARC
  5
552
330
1F
100
AcDbEntity
  8
0
  6
Continuous
 62
     7
370
    25
100
AcDbCircle
 10
125.3199999956
 20
-34.5500000019
 30
0.0
 40
1.499999999999976
100
AcDbArc
 50
90.0
 51
115.5287793609
  0
ARC
  5
553
330
1F
100
AcDbEntity
  8
0
  6
Continuous
 62
     7
370
    25
100
AcDbCircle
 10
136.319999998
 20
-34.5500000019
 30
0.0
 40
1.500000000000291
100
AcDbArc
 50
64.4712206392
 51
90.0
  0
ARC
  5
554
330
1F
100
AcDbEntity
  8
0
  6
Continuous
 62
     7
370
    25
100
AcDbCircle
 10
137.289669912
 20
-32.519669916
 30
0.0
 40
0.7499999999999848
100
AcDbArc
 50
244.4712206391
 51
314.9999999916
  0
ARC
  5
555
330
1F
100
AcDbEntity
  8
0
  6
Continuous
 62
     7
370
    25
100
AcDbCircle
 10
137.289669912
 20
-13.469669916
 30
0.0
 40
0.7499999999999097
100
AcDbArc
 50
315.2707353259
 51
25.5287793702
  0
ARC
  5
556
330
1F
100
AcDbEntity
  8
0
  6
Continuous
 62
     7
370
    25
100
AcDbCircle
 10
139.3199999978
 20
-12.5000000017
 30
0.0
 40
1.500000000000936
100
AcDbArc
 50
183.3084317046
 51
205.5287793702
  0
ARC
  5
557
330
1F
100
AcDbEntity
  8
0
  6
Continuous
 62
     7
370
    25
100
AcDbCircle
 10
139.3199999978
 20
-1.5000000002
 30
0.0
 40
1.500000000000901
100
AcDbArc
 50
154.4712206298
 51
176.6915682954
  0
ARC
  5
558
330
1F
100
AcDbEntity
  8
0
  6
Continuous
 62
     7
370
    25
100
AcDbCircle
 10
137.289669912
 20
-0.530330086
 30
0.0
 40
0.7499999999999806
100
AcDbArc
 50
334.4712206298
 51
44.7292646741
  0
ARC
  5
559
330
1F
100
AcDbEntity
  8
0
  6
Continuous
 62
     7
370
    25
100
AcDbCircle
 10
137.289669912
 20
-0.530330086
 30
0.0
 40
0.7500000000000068
100
AcDbArc
 50
44.9999997993
 51
115.5287793608
  0
ARC
  5
55A
330
1F
100
AcDbEntity
  8
0
  6
Continuous
 62
     7
370
    25
100
AcDbCircle
 10
136.319999998
 20
1.5
 30
0.0
 40
1.500000000000067
100
AcDbArc
 50
270.0
 51
295.5287793608
  0
ARC
  5
55B
330
1F
100
AcDbEntity
  8
0
  6
Continuous
 62
     7
370
    25
100
AcDbCircle
 10
125.3199999998
 20
1.5
 30
0.0
 40
1.50000000000021
100
AcDbArc
 50
244.4712206392
 51
270.0
  0
ARC
  5
55C
330
1F
100
AcDbEntity
  8
0
  6
Continuous
 62
     7
370
    25
100
AcDbCircle
 10
124.3503300858
 20
-0.530330086
 30
0.0
 40
0.7499999999999999
100
AcDbArc
 50
64.4712206392
 51
205.5287791236
  0
ARC
  5
55D
330
1F
100
AcDbEntity
  8
0
  6
Continuous
 62
     7
370
    25
100
AcDbCircle
 10
122.3199999958
 20
-1.4999999915
 30
0.0
 40
1.499999999999702
100
AcDbArc
 50
360.0
 51
25.5287791236
  0
ARC
  5
55E
330
1F
100
AcDbEntity
  8
0
  6
Continuous
 62
     7
370
    25
100
AcDbCircle
 10
122.3199999958
 20
-12.5000000017
 30
0.0
 40
1.500000000000203
100
AcDbArc
 50
334.4712206299
 51
0.0
  0
ARC
  5
55F
330
1F
100
AcDbEntity
  8
0
  6
Continuous
 62
     7
370
    25
100
AcDbCircle
 10
124.3503300816
 20
-13.469669916
 30
0.0
 40
0.7500000000000024
100
AcDbArc
 50
154.4712206299
 51
295.5287793609
  0
ARC
  5
560
330
1F
100
AcDbEntity
  8
0
  6
Continuous
 62
     7
370
    25
100
AcDbCircle
 10
125.3199999956
 20
-15.500000002
 30
0.0
 40
1.500000000023764
100
AcDbArc
 50
90.0000000003
 51
115.5287793607
  0
ARC
  5
561
330
1F
100
AcDbEntity
  8
0
  6
Continuous
 62
     7
370
    25
100
AcDbCircle
 10
136.319999998
 20
-15.5000000019
 30
0.0
 40
1.500000000000063
100
AcDbArc
 50
64.4712206392
 51
90.0
  0
ARC
  5
562
330
1F
100
AcDbEntity
  8
0
  6
Continuous
 62
     7
370
    25
100
AcDbCircle
 10
137.289669912
 20
-13.469669916
 30
0.0
 40
0.7499999999999433
100
AcDbArc
 50
244.4712206391
 51
314.9999999916
  0
ARC
  5
563
330
1F
100
AcDbEntity
  8
0
  6
Continuous
 62
     7
370
    25
100
AcDbCircle
 10
113.479669912
 20
-70.619669916
 30
0.0
 40
0.7500000000000089
100
AcDbArc
 50
315.2707353259
 51
25.5287793702
  0
ARC
  5
564
330
1F
100
AcDbEntity
  8
0
  6
Continuous
 62
     7
370
    25
100
AcDbCircle
 10
115.5099999978
 20
-69.6500000017
 30
0.0
 40
1.500000000000075
100
AcDbArc
 50
183.3084317046
 51
205.5287793702
  0
ARC
  5
565
330
1F
100
AcDbEntity
  8
0
  6
Continuous
 62
     7
370
    25
100
AcDbCircle
 10
115.5099999978
 20
-58.6500000002
 30
0.0
 40
1.500000000000305
100
AcDbArc
 50
154.4712206298
 51
176.6915682954
  0
ARC
  5
566
330
1F
100
AcDbEntity
  8
0
  6
Continuous
 62
     7
370
    25
100
AcDbCircle
 10
113.479669912
 20
-57.680330086
 30
0.0
 40
0.7499999999999584
100
AcDbArc
 50
334.4712206298
 51
44.7292646741
  0
ARC
  5
567
330
1F
100
AcDbEntity
  8
0
  6
Continuous
 62
     7
370
    25
100
AcDbCircle
 10
113.479669912
 20
-57.680330086
 30
0.0
 40
0.7500000000000161
100
AcDbArc
 50
44.9999997993
 51
115.5287793608
  0
ARC
  5
568
330
1F
100
AcDbEntity
  8
0
  6
Continuous
 62
     7
370
    25
100
AcDbCircle
 10
112.509999998
 20
-55.65
 30
0.0
 40
1.500000000000058
100
AcDbArc
 50
270.0
 51
295.5287793608
  0
ARC
  5
569
330
1F
100
AcDbEntity
  8
0
  6
Continuous
 62
     7
370
    25
100
AcDbCircle
 10
101.5099999998
 20
-55.65
 30
0.0
 40
1.499999999999964
100
AcDbArc
 50
244.4712206392
 51
270.0
  0
ARC
  5
56A
330
1F
100
AcDbEntity
  8
0
  6
Continuous
 62
     7
370
    25
100
AcDbCircle
 10
100.5403300858
 20
-57.680330086
 30
0.0
 40
0.7500000000000104
100
AcDbArc
 50
64.4712206392
 51
205.5287791236
  0
ARC
  5
56B
330
1F
100
AcDbEntity
  8
0
  6
Continuous
 62
     7
370
    25
100
AcDbCircle
 10
98.5099999958
 20
-58.6499999915
 30
0.0
 40
1.499999999999474
100
AcDbArc
 50
360.0
 51
25.5287791236
  0
ARC
  5
56C
330
1F
100
AcDbEntity
  8
0
  6
Continuous
 62
     7
370
    25
100
AcDbCircle
 10
98.5099999958
 20
-69.6500000017
 30
0.0
 40
1.500000000000167
100
AcDbArc
 50
334.4712206299
 51
360.0
  0
ARC
  5
56D
330
1F
100
AcDbEntity
  8
0
  6
Continuous
 62
     7
370
    25
100
AcDbCircle
 10
100.5403300816
 20
-70.619669916
 30
0.0
 40
0.7500000000000104
100
AcDbArc
 50
154.4712206299
 51
295.5287793609
  0
ARC
  5
56E
330
1F
100
AcDbEntity
  8
0
  6
Continuous
 62
     7
370
    25
100
AcDbCircle
 10
101.5099999956
 20
-72.6500000019
 30
0.0
 40
1.49999999999973
100
AcDbArc
 50
90.0
 51
115.5287793609
  0
ARC
  5
56F
330
1F
100
AcDbEntity
  8
0
  6
Continuous
 62
     7
370
    25
100
AcDbCircle
 10
112.509999998
 20
-72.6500000019
 30
0.0
 40
1.500000000000313
100
AcDbArc
 50
64.4712206392
 51
90.0
  0
ARC
  5
570
330
1F
100
AcDbEntity
  8
0
  6
Continuous
 62
     7
370
    25
100
AcDbCircle
 10
113.479669912
 20
-70.619669916
 30
0.0
 40
0.7499999999999915
100
AcDbArc
 50
244.4712206392
 51
314.9999999916
  0
ARC
  5
571
330
1F
100
AcDbEntity
  8
0
  6
Continuous
 62
     7
370
    25
100
AcDbCircle
 10
113.479669912
 20
-51.569669916
 30
0.0
 40
0.7500000000000236
100
AcDbArc
 50
315.2707353259
 51
25.5287793702
  0
ARC
  5
572
330
1F
100
AcDbEntity
  8
0
  6
Continuous
 62
     7
370
    25
100
AcDbCircle
 10
115.5099999978
 20
-50.6000000017
 30
0.0
 40
1.500000000000281
100
AcDbArc
 50
183.3084317045
 51
205.5287793702
  0
ARC
  5
573
330
1F
100
AcDbEntity
  8
0
  6
Continuous
 62
     7
370
    25
100
AcDbCircle
 10
115.5099999978
 20
-39.6000000002
 30
0.0
 40
1.500000000000143
100
AcDbArc
 50
154.4712206298
 51
176.6915682954
  0
ARC
  5
574
330
1F
100
AcDbEntity
  8
0
  6
Continuous
 62
     7
370
    25
100
AcDbCircle
 10
113.479669912
 20
-38.630330086
 30
0.0
 40
0.7499999999999788
100
AcDbArc
 50
334.4712206298
 51
44.7292646741
  0
ARC
  5
575
330
1F
100
AcDbEntity
  8
0
  6
Continuous
 62
     7
370
    25
100
AcDbCircle
 10
113.479669912
 20
-38.630330086
 30
0.0
 40
0.7500000000000161
100
AcDbArc
 50
44.9999997993
 51
115.5287793608
  0
ARC
  5
576
330
1F
100
AcDbEntity
  8
0
  6
Continuous
 62
     7
370
    25
100
AcDbCircle
 10
112.509999998
 20
-36.6
 30
0.0
 40
1.500000000000045
100
AcDbArc
 50
270.0
 51
295.5287793608
  0
ARC
  5
577
330
1F
100
AcDbEntity
  8
0
  6
Continuous
 62
     7
370
    25
100
AcDbCircle
 10
101.5099999998
 20
-36.6
 30
0.0
 40
1.499999999999964
100
AcDbArc
 50
244.4712206392
 51
270.0
  0
ARC
  5
578
330
1F
100
AcDbEntity
  8
0
  6
Continuous
 62
     7
370
    25
100
AcDbCircle
 10
100.5403300858
 20
-38.630330086
 30
0.0
 40
0.7500000000000008
100
AcDbArc
 50
64.4712206392
 51
205.5287791236
  0
ARC
  5
579
330
1F
100
AcDbEntity
  8
0
  6
Continuous
 62
     7
370
    25
100
AcDbCircle
 10
98.5099999958
 20
-39.5999999915
 30
0.0
 40
1.499999999999476
100
AcDbArc
 50
360.0
 51
25.5287791236
  0
ARC
  5
57A
330
1F
100
AcDbEntity
  8
0
  6
Continuous
 62
     7
370
    25
100
AcDbCircle
 10
98.5099999958
 20
-50.6000000017
 30
0.0
 40
1.500000000000135
100
AcDbArc
 50
334.4712206299
 51
0.0
  0
ARC
  5
57B
330
1F
100
AcDbEntity
  8
0
  6
Continuous
 62
     7
370
    25
100
AcDbCircle
 10
100.5403300816
 20
-51.569669916
 30
0.0
 40
0.7500000000000104
100
AcDbArc
 50
154.4712206299
 51
295.5287793609
  0
ARC
  5
57C
330
1F
100
AcDbEntity
  8
0
  6
Continuous
 62
     7
370
    25
100
AcDbCircle
 10
101.5099999956
 20
-53.6000000019
 30
0.0
 40
1.500000000000043
100
AcDbArc
 50
90.0
 51
115.5287793608
  0
ARC
  5
57D
330
1F
100
AcDbEntity
  8
0
  6
Continuous
 62
     7
370
    25
100
AcDbCircle
 10
112.509999998
 20
-53.6000000019
 30
0.0
 40
1.50000000000005
100
AcDbArc
 50
64.4712206392
 51
90.0
  0
ARC
  5
57E
330
1F
100
AcDbEntity
  8
0
  6
Continuous
 62
     7
370
    25
100
AcDbCircle
 10
113.479669912
 20
-51.569669916
 30
0.0
 40
0.7500000000000111
100
AcDbArc
 50
244.4712206392
 51
314.9999999916
  0
ARC
  5
57F
330
1F
100
AcDbEntity
  8
0
  6
Continuous
 62
     7
370
    25
100
AcDbCircle
 10
113.479669912
 20
-32.519669916
 30
0.0
 40
0.7500000000000088
100
AcDbArc
 50
315.2707353259
 51
25.5287793702
  0
ARC
  5
580
330
1F
100
AcDbEntity
  8
0
  6
Continuous
 62
     7
370
    25
100
AcDbCircle
 10
115.5099999978
 20
-31.5500000017
 30
0.0
 40
1.500000000000281
100
AcDbArc
 50
183.3084317045
 51
205.5287793702
  0
ARC
  5
581
330
1F
100
AcDbEntity
  8
0
  6
Continuous
 62
     7
370
    25
100
AcDbCircle
 10
115.5099999978
 20
-20.5500000002
 30
0.0
 40
1.500000000000374
100
AcDbArc
 50
154.4712206298
 51
176.6915682954
  0
ARC
  5
582
330
1F
100
AcDbEntity
  8
0
  6
Continuous
 62
     7
370
    25
100
AcDbCircle
 10
113.479669912
 20
-19.580330086
 30
0.0
 40
0.7499999999999962
100
AcDbArc
 50
334.4712206298
 51
44.7292646741
  0
ARC
  5
583
330
1F
100
AcDbEntity
  8
0
  6
Continuous
 62
     7
370
    25
100
AcDbCircle
 10
113.479669912
 20
-19.580330086
 30
0.0
 40
0.7500000000000061
100
AcDbArc
 50
44.9999997993
 51
115.5287793608
  0
ARC
  5
584
330
1F
100
AcDbEntity
  8
0
  6
Continuous
 62
     7
370
    25
100
AcDbCircle
 10
112.509999998
 20
-17.55
 30
0.0
 40
1.500000000000128
100
AcDbArc
 50
270.0
 51
295.5287793608
  0
ARC
  5
585
330
1F
100
AcDbEntity
  8
0
  6
Continuous
 62
     7
370
    25
100
AcDbCircle
 10
101.5099999998
 20
-17.55
 30
0.0
 40
1.500000000000042
100
AcDbArc
 50
244.4712206392
 51
270.0
  0
ARC
  5
586
330
1F
100
AcDbEntity
  8
0
  6
Continuous
 62
     7
370
    25
100
AcDbCircle
 10
100.5403300858
 20
-19.580330086
 30
0.0
 40
0.7500000000000008
100
AcDbArc
 50
64.4712206392
 51
205.5287791236
  0
ARC
  5
587
330
1F
100
AcDbEntity
  8
0
  6
Continuous
 62
     7
370
    25
100
AcDbCircle
 10
98.5099999958
 20
-20.5499999915
 30
0.0
 40
1.499999999999446
100
AcDbArc
 50
360.0
 51
25.5287791236
  0
ARC
  5
588
330
1F
100
AcDbEntity
  8
0
  6
Continuous
 62
     7
370
    25
100
AcDbCircle
 10
98.5099999958
 20
-31.5500000017
 30
0.0
 40
1.500000000000091
100
AcDbArc
 50
334.4712206299
 51
0.0
  0
ARC
  5
589
330
1F
100
AcDbEntity
  8
0
  6
Continuous
 62
     7
370
    25
100
AcDbCircle
 10
100.5403300816
 20
-32.519669916
 30
0.0
 40
0.7500000000000129
100
AcDbArc
 50
154.4712206299
 51
295.5287793609
  0
ARC
  5
58A
330
1F
100
AcDbEntity
  8
0
  6
Continuous
 62
     7
370
    25
100
AcDbCircle
 10
101.5099999956
 20
-34.5500000019
 30
0.0
 40
1.500000000000163
100
AcDbArc
 50
90.0
 51
115.5287793608
  0
ARC
  5
58B
330
1F
100
AcDbEntity
  8
0
  6
Continuous
 62
     7
370
    25
100
AcDbCircle
 10
112.509999998
 20
-34.5500000019
 30
0.0
 40
1.500000000000263
100
AcDbArc
 50
64.4712206392
 51
90.0
  0
ARC
  5
58C
330
1F
100
AcDbEntity
  8
0
  6
Continuous
 62
     7
370
    25
100
AcDbCircle
 10
113.479669912
 20
-32.519669916
 30
0.0
 40
0.7500000000000061
100
AcDbArc
 50
244.4712206392
 51
314.9999999916
  0
ARC
  5
58D
330
1F
100
AcDbEntity
  8
0
  6
Continuous
 62
     7
370
    25
100
AcDbCircle
 10
113.479669912
 20
-13.469669916
 30
0.0
 40
0.7499999999999999
100
AcDbArc
 50
315.2707353259
 51
25.5287793702
  0
ARC
  5
58E
330
1F
100
AcDbEntity
  8
0
  6
Continuous
 62
     7
370
    25
100
AcDbCircle
 10
115.5099999978
 20
-12.5000000017
 30
0.0
 40
1.500000000000367
100
AcDbArc
 50
183.3084317045
 51
205.5287793702
  0
ARC
  5
58F
330
1F
100
AcDbEntity
  8
0
  6
Continuous
 62
     7
370
    25
100
AcDbCircle
 10
115.5099999978
 20
-1.5000000002
 30
0.0
 40
1.499999999999871
100
AcDbArc
 50
154.4712206298
 51
176.6915682954
  0
ARC
  5
590
330
1F
100
AcDbEntity
  8
0
  6
Continuous
 62
     7
370
    25
100
AcDbCircle
 10
113.479669912
 20
-0.530330086
 30
0.0
 40
0.7499999999999951
100
AcDbArc
 50
334.4712206298
 51
44.7292646741
  0
ARC
  5
591
330
1F
100
AcDbEntity
  8
0
  6
Continuous
 62
     7
370
    25
100
AcDbCircle
 10
113.479669912
 20
-0.530330086
 30
0.0
 40
0.7499999999999954
100
AcDbArc
 50
44.9999997993
 51
115.5287793608
  0
ARC
  5
592
330
1F
100
AcDbEntity
  8
0
  6
Continuous
 62
     7
370
    25
100
AcDbCircle
 10
112.509999998
 20
1.5
 30
0.0
 40
1.500000000000135
100
AcDbArc
 50
270.0
 51
295.5287793608
  0
ARC
  5
593
330
1F
100
AcDbEntity
  8
0
  6
Continuous
 62
     7
370
    25
100
AcDbCircle
 10
101.5099999998
 20
1.5
 30
0.0
 40
1.500000000000051
100
AcDbArc
 50
244.4712206392
 51
270.0
  0
ARC
  5
594
330
1F
100
AcDbEntity
  8
0
  6
Continuous
 62
     7
370
    25
100
AcDbCircle
 10
100.5403300858
 20
-0.530330086
 30
0.0
 40
0.7499999999999999
100
AcDbArc
 50
64.4712206392
 51
205.5287791236
  0
ARC
  5
595
330
1F
100
AcDbEntity
  8
0
  6
Continuous
 62
     7
370
    25
100
AcDbCircle
 10
98.5099999958
 20
-1.4999999915
 30
0.0
 40
1.499999999999517
100
AcDbArc
 50
360.0
 51
25.5287791236
  0
ARC
  5
596
330
1F
100
AcDbEntity
  8
0
  6
Continuous
 62
     7
370
    25
100
AcDbCircle
 10
98.5099999958
 20
-12.5000000017
 30
0.0
 40
1.500000000000189
100
AcDbArc
 50
334.4712206299
 51
0.0
  0
ARC
  5
597
330
1F
100
AcDbEntity
  8
0
  6
Continuous
 62
     7
370
    25
100
AcDbCircle
 10
100.5403300816
 20
-13.469669916
 30
0.0
 40
0.750000000000006
100
AcDbArc
 50
154.4712206299
 51
295.5287793609
  0
ARC
  5
598
330
1F
100
AcDbEntity
  8
0
  6
Continuous
 62
     7
370
    25
100
AcDbCircle
 10
101.5099999956
 20
-15.5000000019
 30
0.0
 40
1.49999999999998
100
AcDbArc
 50
90.0
 51
115.5287793609
  0
ARC
  5
599
330
1F
100
AcDbEntity
  8
0
  6
Continuous
 62
     7
370
    25
100
AcDbCircle
 10
112.509999998
 20
-15.5000000019
 30
0.0
 40
1.499999999999983
100
AcDbArc
 50
64.4712206392
 51
90.0
  0
ARC
  5
59A
330
1F
100
AcDbEntity
  8
0
  6
Continuous
 62
     7
370
    25
100
AcDbCircle
 10
113.479669912
 20
-13.469669916
 30
0.0
 40
0.750000000000045
100
AcDbArc
 50
244.4712206392
 51
314.9999999916
  0
ARC
  5
59B
330
1F
100
AcDbEntity
  8
0
  6
Continuous
 62
     7
370
    25
100
AcDbCircle
 10
94.429669912
 20
-13.469669916
 30
0.0
 40
0.7499999999999659
100
AcDbArc
 50
315.2707353259
 51
25.5287793702
  0
ARC
  5
59C
330
1F
100
AcDbEntity
  8
0
  6
Continuous
 62
     7
370
    25
100
AcDbCircle
 10
96.4599999978
 20
-12.5000000017
 30
0.0
 40
1.499999999999514
100
AcDbArc
 50
183.3084317046
 51
205.5287793702
  0
ARC
  5
59D
330
1F
100
AcDbEntity
  8
0
  6
Continuous
 62
     7
370
    25
100
AcDbCircle
 10
96.4599999978
 20
-1.5000000002
 30
0.0
 40
1.499999999999745
100
AcDbArc
 50
154.4712206298
 51
176.6915682954
  0
ARC
  5
59E
330
1F
100
AcDbEntity
  8
0
  6
Continuous
 62
     7
370
    25
100
AcDbCircle
 10
94.429669912
 20
-0.530330086
 30
0.0
 40
0.7499999999999644
100
AcDbArc
 50
334.4712206298
 51
44.7292646741
  0
ARC
  5
59F
330
1F
100
AcDbEntity
  8
0
  6
Continuous
 62
     7
370
    25
100
AcDbCircle
 10
94.429669912
 20
-0.530330086
 30
0.0
 40
0.7500000000000532
100
AcDbArc
 50
44.9999997993
 51
115.5287793608
  0
ARC
  5
5A0
330
1F
100
AcDbEntity
  8
0
  6
Continuous
 62
     7
370
    25
100
AcDbCircle
 10
93.459999998
 20
1.5
 30
0.0
 40
1.499999999999679
100
AcDbArc
 50
270.0
 51
295.5287793608
  0
ARC
  5
5A1
330
1F
100
AcDbEntity
  8
0
  6
Continuous
 62
     7
370
    25
100
AcDbCircle
 10
82.4599999998
 20
1.5
 30
0.0
 40
1.500000000000203
100
AcDbArc
 50
244.4712206392
 51
270.0
  0
ARC
  5
5A2
330
1F
100
AcDbEntity
  8
0
  6
Continuous
 62
     7
370
    25
100
AcDbCircle
 10
81.4903300858
 20
-0.530330086
 30
0.0
 40
0.7500000000000123
100
AcDbArc
 50
64.4712206392
 51
205.5287791236
  0
ARC
  5
5A3
330
1F
100
AcDbEntity
  8
0
  6
Continuous
 62
     7
370
    25
100
AcDbCircle
 10
79.4599999958
 20
-1.4999999915
 30
0.0
 40
1.499999999999531
100
AcDbArc
 50
360.0
 51
25.5287791236
  0
ARC
  5
5A4
330
1F
100
AcDbEntity
  8
0
  6
Continuous
 62
     7
370
    25
100
AcDbCircle
 10
79.4599999958
 20
-12.5000000017
 30
0.0
 40
1.500000000000189
100
AcDbArc
 50
334.4712206299
 51
0.0
  0
ARC
  5
5A5
330
1F
100
AcDbEntity
  8
0
  6
Continuous
 62
     7
370
    25
100
AcDbCircle
 10
81.4903300816
 20
-13.469669916
 30
0.0
 40
0.7500000000000083
100
AcDbArc
 50
154.4712206299
 51
295.5287793609
  0
ARC
  5
5A6
330
1F
100
AcDbEntity
  8
0
  6
Continuous
 62
     7
370
    25
100
AcDbCircle
 10
82.4599999956
 20
-15.5000000019
 30
0.0
 40
1.49999999999998
100
AcDbArc
 50
90.0
 51
115.5287793609
  0
ARC
  5
5A7
330
1F
100
AcDbEntity
  8
0
  6
Continuous
 62
     7
370
    25
100
AcDbCircle
 10
93.459999998
 20
-15.5000000019
 30
0.0
 40
1.499999999999945
100
AcDbArc
 50
64.4712206391
 51
90.0
  0
ARC
  5
5A8
330
1F
100
AcDbEntity
  8
0
  6
Continuous
 62
     7
370
    25
100
AcDbCircle
 10
94.429669912
 20
-13.469669916
 30
0.0
 40
0.7499999999999979
100
AcDbArc
 50
244.4712206392
 51
314.9999999916
  0
ARC
  5
5A9
330
1F
100
AcDbEntity
  8
0
  6
Continuous
 62
     7
370
    25
100
AcDbCircle
 10
75.379669912
 20
-89.669669916
 30
0.0
 40
0.7499999999999987
100
AcDbArc
 50
315.2707353259
 51
25.5287793702
  0
ARC
  5
5AA
330
1F
100
AcDbEntity
  8
0
  6
Continuous
 62
     7
370
    25
100
AcDbCircle
 10
77.4099999978
 20
-88.7000000017
 30
0.0
 40
1.500000000000018
100
AcDbArc
 50
183.3084317046
 51
205.5287793702
  0
ARC
  5
5AB
330
1F
100
AcDbEntity
  8
0
  6
Continuous
 62
     7
370
    25
100
AcDbCircle
 10
77.4099999978
 20
-77.7000000002
 30
0.0
 40
1.500000000000302
100
AcDbArc
 50
154.4712206298
 51
176.6915682954
  0
ARC
  5
5AC
330
1F
100
AcDbEntity
  8
0
  6
Continuous
 62
     7
370
    25
100
AcDbCircle
 10
75.379669912
 20
-76.730330086
 30
0.0
 40
0.7499999999999495
100
AcDbArc
 50
334.4712206298
 51
44.7292646741
  0
ARC
  5
5AD
330
1F
100
AcDbEntity
  8
0
  6
Continuous
 62
     7
370
    25
100
AcDbCircle
 10
75.379669912
 20
-76.730330086
 30
0.0
 40
0.7499999999999871
100
AcDbArc
 50
44.9999997993
 51
115.5287793608
  0
ARC
  5
5AE
330
1F
100
AcDbEntity
  8
0
  6
Continuous
 62
     7
370
    25
100
AcDbCircle
 10
74.409999998
 20
-74.7
 30
0.0
 40
1.500000000000327
100
AcDbArc
 50
270.0
 51
295.5287793608
  0
ARC
  5
5AF
330
1F
100
AcDbEntity
  8
0
  6
Continuous
 62
     7
370
    25
100
AcDbCircle
 10
63.4099999998
 20
-74.7
 30
0.0
 40
1.499999999999752
100
AcDbArc
 50
244.4712206392
 51
270.0
  0
ARC
  5
5B0
330
1F
100
AcDbEntity
  8
0
  6
Continuous
 62
     7
370
    25
100
AcDbCircle
 10
62.4403300858
 20
-76.730330086
 30
0.0
 40
0.7500000000000038
100
AcDbArc
 50
64.4712206392
 51
205.5287791236
  0
ARC
  5
5B1
330
1F
100
AcDbEntity
  8
0
  6
Continuous
 62
     7
370
    25
100
AcDbCircle
 10
60.4099999958
 20
-77.6999999915
 30
0.0
 40
1.499999999999993
100
AcDbArc
 50
0.0
 51
25.5287791236
  0
ARC
  5
5B2
330
1F
100
AcDbEntity
  8
0
  6
Continuous
 62
     7
370
    25
100
AcDbCircle
 10
60.4099999958
 20
-88.7000000017
 30
0.0
 40
1.499999999999873
100
AcDbArc
 50
334.4712206299
 51
0.0
  0
ARC
  5
5B3
330
1F
100
AcDbEntity
  8
0
  6
Continuous
 62
     7
370
    25
100
AcDbCircle
 10
62.4403300816
 20
-89.669669916
 30
0.0
 40
0.7500000000000034
100
AcDbArc
 50
154.4712206299
 51
295.5287793609
  0
ARC
  5
5B4
330
1F
100
AcDbEntity
  8
0
  6
Continuous
 62
     7
370
    25
100
AcDbCircle
 10
63.4099999956
 20
-91.7000000019
 30
0.0
 40
1.500000000000299
100
AcDbArc
 50
90.0
 51
115.5287793608
  0
ARC
  5
5B5
330
1F
100
AcDbEntity
  8
0
  6
Continuous
 62
     7
370
    25
100
AcDbCircle
 10
74.409999998
 20
-91.7000000019
 30
0.0
 40
1.499999999999932
100
AcDbArc
 50
64.4712206391
 51
90.0
  0
ARC
  5
5B6
330
1F
100
AcDbEntity
  8
0
  6
Continuous
 62
     7
370
    25
100
AcDbCircle
 10
75.379669912
 20
-89.669669916
 30
0.0
 40
0.7499999999999982
100
AcDbArc
 50
244.4712206392
 51
314.9999999916
  0
ARC
  5
5B7
330
1F
100
AcDbEntity
  8
0
  6
Continuous
 62
     7
370
    25
100
AcDbCircle
 10
75.379669912
 20
-70.619669916
 30
0.0
 40
0.7500000000000189
100
AcDbArc
 50
315.2707353259
 51
25.5287793702
  0
ARC
  5
5B8
330
1F
100
AcDbEntity
  8
0
  6
Continuous
 62
     7
370
    25
100
AcDbCircle
 10
77.4099999978
 20
-69.6500000017
 30
0.0
 40
1.500000000000018
100
AcDbArc
 50
183.3084317046
 51
205.5287793702
  0
ARC
  5
5B9
330
1F
100
AcDbEntity
  8
0
  6
Continuous
 62
     7
370
    25
100
AcDbCircle
 10
77.4099999978
 20
-58.6500000002
 30
0.0
 40
1.500000000000394
100
AcDbArc
 50
154.4712206298
 51
176.6915682954
  0
ARC
  5
5BA
330
1F
100
AcDbEntity
  8
0
  6
Continuous
 62
     7
370
    25
100
AcDbCircle
 10
75.379669912
 20
-57.680330086
 30
0.0
 40
0.749999999999969
100
AcDbArc
 50
334.4712206298
 51
44.7292646741
  0
ARC
  5
5BB
330
1F
100
AcDbEntity
  8
0
  6
Continuous
 62
     7
370
    25
100
AcDbCircle
 10
75.379669912
 20
-57.680330086
 30
0.0
 40
0.7500000000000212
100
AcDbArc
 50
44.9999997993
 51
115.5287793608
  0
ARC
  5
5BC
330
1F
100
AcDbEntity
  8
0
  6
Continuous
 62
     7
370
    25
100
AcDbCircle
 10
74.409999998
 20
-55.65
 30
0.0
 40
1.499999999999873
100
AcDbArc
 50
270.0
 51
295.5287793608
  0
ARC
  5
5BD
330
1F
100
AcDbEntity
  8
0
  6
Continuous
 62
     7
370
    25
100
AcDbCircle
 10
63.4099999998
 20
-55.65
 30
0.0
 40
1.500000000000001
100
AcDbArc
 50
244.4712206392
 51
270.0
  0
ARC
  5
5BE
330
1F
100
AcDbEntity
  8
0
  6
Continuous
 62
     7
370
    25
100
AcDbCircle
 10
62.4403300858
 20
-57.680330086
 30
0.0
 40
0.7500000000000104
100
AcDbArc
 50
64.4712206392
 51
205.5287791236
  0
ARC
  5
5BF
330
1F
100
AcDbEntity
  8
0
  6
Continuous
 62
     7
370
    25
100
AcDbCircle
 10
60.4099999958
 20
-58.6499999915
 30
0.0
 40
1.499999999999773
100
AcDbArc
 50
360.0
 51
25.5287791236
  0
ARC
  5
5C0
330
1F
100
AcDbEntity
  8
0
  6
Continuous
 62
     7
370
    25
100
AcDbCircle
 10
60.4099999958
 20
-69.6500000017
 30
0.0
 40
1.499999999999867
100
AcDbArc
 50
334.4712206299
 51
0.0
  0
ARC
  5
5C1
330
1F
100
AcDbEntity
  8
0
  6
Continuous
 62
     7
370
    25
100
AcDbCircle
 10
62.4403300816
 20
-70.619669916
 30
0.0
 40
0.7500000000000034
100
AcDbArc
 50
154.4712206299
 51
295.5287793609
  0
ARC
  5
5C2
330
1F
100
AcDbEntity
  8
0
  6
Continuous
 62
     7
370
    25
100
AcDbCircle
 10
63.4099999956
 20
-72.6500000019
 30
0.0
 40
1.499999999999744
100
AcDbArc
 50
90.0
 51
115.5287793609
  0
ARC
  5
5C3
330
1F
100
AcDbEntity
  8
0
  6
Continuous
 62
     7
370
    25
100
AcDbCircle
 10
74.409999998
 20
-72.6500000019
 30
0.0
 40
1.500000000000315
100
AcDbArc
 50
64.4712206392
 51
90.0
  0
ARC
  5
5C4
330
1F
100
AcDbEntity
  8
0
  6
Continuous
 62
     7
370
    25
100
AcDbCircle
 10
75.379669912
 20
-70.619669916
 30
0.0
 40
0.7499999999999859
100
AcDbArc
 50
244.4712206392
 51
314.9999999916
  0
ARC
  5
5C5
330
1F
100
AcDbEntity
  8
0
  6
Continuous
 62
     7
370
    25
100
AcDbCircle
 10
75.379669912
 20
-51.569669916
 30
0.0
 40
0.7499999999999886
100
AcDbArc
 50
315.2707353259
 51
25.5287793702
  0
ARC
  5
5C6
330
1F
100
AcDbEntity
  8
0
  6
Continuous
 62
     7
370
    25
100
AcDbCircle
 10
77.4099999978
 20
-50.6000000017
 30
0.0
 40
1.499999999999991
100
AcDbArc
 50
183.3084317046
 51
205.5287793702
  0
ARC
  5
5C7
330
1F
100
AcDbEntity
  8
0
  6
Continuous
 62
     7
370
    25
100
AcDbCircle
 10
77.4099999978
 20
-39.6000000002
 30
0.0
 40
1.50000000000039
100
AcDbArc
 50
154.4712206298
 51
176.6915682954
  0
ARC
  5
5C8
330
1F
100
AcDbEntity
  8
0
  6
Continuous
 62
     7
370
    25
100
AcDbCircle
 10
75.379669912
 20
-38.630330086
 30
0.0
 40
0.7499999999999836
100
AcDbArc
 50
334.4712206298
 51
44.7292646741
  0
ARC
  5
5C9
330
1F
100
AcDbEntity
  8
0
  6
Continuous
 62
     7
370
    25
100
AcDbCircle
 10
75.379669912
 20
-38.630330086
 30
0.0
 40
0.7500000000000262
100
AcDbArc
 50
44.9999997993
 51
115.5287793608
  0
ARC
  5
5CA
330
1F
100
AcDbEntity
  8
0
  6
Continuous
 62
     7
370
    25
100
AcDbCircle
 10
74.409999998
 20
-36.6
 30
0.0
 40
1.499999999999866
100
AcDbArc
 50
270.0
 51
295.5287793608
  0
ARC
  5
5CB
330
1F
100
AcDbEntity
  8
0
  6
Continuous
 62
     7
370
    25
100
AcDbCircle
 10
63.4099999998
 20
-36.6
 30
0.0
 40
1.499999999999988
100
AcDbArc
 50
244.4712206392
 51
270.0
  0
ARC
  5
5CC
330
1F
100
AcDbEntity
  8
0
  6
Continuous
 62
     7
370
    25
100
AcDbCircle
 10
62.4403300858
 20
-38.630330086
 30
0.0
 40
0.7500000000000041
100
AcDbArc
 50
64.4712206392
 51
205.5287791236
  0
ARC
  5
5CD
330
1F
100
AcDbEntity
  8
0
  6
Continuous
 62
     7
370
    25
100
AcDbCircle
 10
60.4099999958
 20
-39.5999999915
 30
0.0
 40
1.499999999999776
100
AcDbArc
 50
360.0
 51
25.5287791236
  0
ARC
  5
5CE
330
1F
100
AcDbEntity
  8
0
  6
Continuous
 62
     7
370
    25
100
AcDbCircle
 10
60.4099999958
 20
-50.6000000017
 30
0.0
 40
1.499999999999822
100
AcDbArc
 50
334.4712206299
 51
0.0
  0
ARC
  5
5CF
330
1F
100
AcDbEntity
  8
0
  6
Continuous
 62
     7
370
    25
100
AcDbCircle
 10
62.4403300816
 20
-51.569669916
 30
0.0
 40
0.7500000000000041
100
AcDbArc
 50
154.4712206299
 51
295.5287793609
  0
ARC
  5
5D0
330
1F
100
AcDbEntity
  8
0
  6
Continuous
 62
     7
370
    25
100
AcDbCircle
 10
63.4099999956
 20
-53.6000000019
 30
0.0
 40
1.500000000000063
100
AcDbArc
 50
90.0
 51
115.5287793608
  0
ARC
  5
5D1
330
1F
100
AcDbEntity
  8
0
  6
Continuous
 62
     7
370
    25
100
AcDbCircle
 10
74.409999998
 20
-53.6000000019
 30
0.0
 40
1.500000000000043
100
AcDbArc
 50
64.4712206392
 51
90.0
  0
ARC
  5
5D2
330
1F
100
AcDbEntity
  8
0
  6
Continuous
 62
     7
370
    25
100
AcDbCircle
 10
75.379669912
 20
-51.569669916
 30
0.0
 40
0.7500000000000111
100
AcDbArc
 50
244.4712206392
 51
314.9999999916
  0
ARC
  5
5D3
330
1F
100
AcDbEntity
  8
0
  6
Continuous
 62
     7
370
    25
100
AcDbCircle
 10
94.429669912
 20
-32.519669916
 30
0.0
 40
0.7499999999999684
100
AcDbArc
 50
315.2707353259
 51
25.5287793702
  0
ARC
  5
5D4
330
1F
100
AcDbEntity
  8
0
  6
Continuous
 62
     7
370
    25
100
AcDbCircle
 10
96.4599999978
 20
-31.5500000017
 30
0.0
 40
1.499999999999543
100
AcDbArc
 50
183.3084317046
 51
205.5287793702
  0
ARC
  5
5D5
330
1F
100
AcDbEntity
  8
0
  6
Continuous
 62
     7
370
    25
100
AcDbCircle
 10
96.4599999978
 20
-20.5500000002
 30
0.0
 40
1.499999999999788
100
AcDbArc
 50
154.4712206298
 51
176.6915682954
  0
ARC
  5
5D6
330
1F
100
AcDbEntity
  8
0
  6
Continuous
 62
     7
370
    25
100
AcDbCircle
 10
94.429669912
 20
-19.580330086
 30
0.0
 40
0.7499999999999608
100
AcDbArc
 50
334.4712206298
 51
44.7292646741
  0
ARC
  5
5D7
330
1F
100
AcDbEntity
  8
0
  6
Continuous
 62
     7
370
    25
100
AcDbCircle
 10
94.429669912
 20
-19.580330086
 30
0.0
 40
0.7500000000000437
100
AcDbArc
 50
44.9999997993
 51
115.5287793608
  0
ARC
  5
5D8
330
1F
100
AcDbEntity
  8
0
  6
Continuous
 62
     7
370
    25
100
AcDbCircle
 10
93.459999998
 20
-17.55
 30
0.0
 40
1.499999999999925
100
AcDbArc
 50
270.0
 51
295.5287793608
  0
ARC
  5
5D9
330
1F
100
AcDbEntity
  8
0
  6
Continuous
 62
     7
370
    25
100
AcDbCircle
 10
82.4599999998
 20
-17.55
 30
0.0
 40
1.500000000000167
100
AcDbArc
 50
244.4712206392
 51
270.0
  0
ARC
  5
5DA
330
1F
100
AcDbEntity
  8
0
  6
Continuous
 62
     7
370
    25
100
AcDbCircle
 10
81.4903300858
 20
-19.580330086
 30
0.0
 40
0.7500000000000135
100
AcDbArc
 50
64.4712206392
 51
205.5287791236
  0
ARC
  5
5DB
330
1F
100
AcDbEntity
  8
0
  6
Continuous
 62
     7
370
    25
100
AcDbCircle
 10
79.4599999958
 20
-20.5499999915
 30
0.0
 40
1.49999999999946
100
AcDbArc
 50
360.0
 51
25.5287791236
  0
ARC
  5
5DC
330
1F
100
AcDbEntity
  8
0
  6
Continuous
 62
     7
370
    25
100
AcDbCircle
 10
79.4599999958
 20
-31.5500000017
 30
0.0
 40
1.500000000000093
100
AcDbArc
 50
334.4712206299
 51
0.0
  0
ARC
  5
5DD
330
1F
100
AcDbEntity
  8
0
  6
Continuous
 62
     7
370
    25
100
AcDbCircle
 10
81.4903300816
 20
-32.519669916
 30
0.0
 40
0.7500000000000108
100
AcDbArc
 50
154.4712206299
 51
295.5287793609
  0
ARC
  5
5DE
330
1F
100
AcDbEntity
  8
0
  6
Continuous
 62
     7
370
    25
100
AcDbCircle
 10
82.4599999956
 20
-34.5500000019
 30
0.0
 40
1.500000000000163
100
AcDbArc
 50
90.0
 51
115.5287793608
  0
ARC
  5
5DF
330
1F
100
AcDbEntity
  8
0
  6
Continuous
 62
     7
370
    25
100
AcDbCircle
 10
93.459999998
 20
-34.5500000019
 30
0.0
 40
1.500000000000181
100
AcDbArc
 50
64.4712206392
 51
90.0
  0
ARC
  5
5E0
330
1F
100
AcDbEntity
  8
0
  6
Continuous
 62
     7
370
    25
100
AcDbCircle
 10
94.429669912
 20
-32.519669916
 30
0.0
 40
0.750000000000001
100
AcDbArc
 50
244.4712206392
 51
314.9999999916
  0
ARC
  5
5E1
330
1F
100
AcDbEntity
  8
0
  6
Continuous
 62
     7
370
    25
100
AcDbCircle
 10
94.429669912
 20
-51.569669916
 30
0.0
 40
0.7499999999999735
100
AcDbArc
 50
315.2707353259
 51
25.5287793702
  0
ARC
  5
5E2
330
1F
100
AcDbEntity
  8
0
  6
Continuous
 62
     7
370
    25
100
AcDbCircle
 10
96.4599999978
 20
-50.6000000017
 30
0.0
 40
1.500000000000006
100
AcDbArc
 50
183.3084317046
 51
205.5287793702
  0
ARC
  5
5E3
330
1F
100
AcDbEntity
  8
0
  6
Continuous
 62
     7
370
    25
100
AcDbCircle
 10
96.4599999978
 20
-39.6000000002
 30
0.0
 40
1.500000000000361
100
AcDbArc
 50
154.4712206298
 51
176.6915682954
  0
ARC
  5
5E4
330
1F
100
AcDbEntity
  8
0
  6
Continuous
 62
     7
370
    25
100
AcDbCircle
 10
94.429669912
 20
-38.630330086
 30
0.0
 40
0.7499999999999584
100
AcDbArc
 50
334.4712206298
 51
44.7292646741
  0
ARC
  5
5E5
330
1F
100
AcDbEntity
  8
0
  6
Continuous
 62
     7
370
    25
100
AcDbCircle
 10
94.429669912
 20
-38.630330086
 30
0.0
 40
0.7500000000000363
100
AcDbArc
 50
44.9999997993
 51
115.5287793608
  0
ARC
  5
5E6
330
1F
100
AcDbEntity
  8
0
  6
Continuous
 62
     7
370
    25
100
AcDbCircle
 10
93.459999998
 20
-36.6
 30
0.0
 40
1.49999999999951
100
AcDbArc
 50
270.0
 51
295.5287793608
  0
ARC
  5
5E7
330
1F
100
AcDbEntity
  8
0
  6
Continuous
 62
     7
370
    25
100
AcDbCircle
 10
82.4599999998
 20
-36.6
 30
0.0
 40
1.500000000000021
100
AcDbArc
 50
244.4712206392
 51
270.0
  0
ARC
  5
5E8
330
1F
100
AcDbEntity
  8
0
  6
Continuous
 62
     7
370
    25
100
AcDbCircle
 10
81.4903300858
 20
-38.630330086
 30
0.0
 40
0.7500000000000008
100
AcDbArc
 50
64.4712206392
 51
205.5287791236
  0
ARC
  5
5E9
330
1F
100
AcDbEntity
  8
0
  6
Continuous
 62
     7
370
    25
100
AcDbCircle
 10
79.4599999958
 20
-39.5999999915
 30
0.0
 40
1.499999999999488
100
AcDbArc
 50
360.0
 51
25.5287791236
  0
ARC
  5
5EA
330
1F
100
AcDbEntity
  8
0
  6
Continuous
 62
     7
370
    25
100
AcDbCircle
 10
79.4599999958
 20
-50.6000000017
 30
0.0
 40
1.500000000000122
100
AcDbArc
 50
334.4712206299
 51
0.0
  0
ARC
  5
5EB
330
1F
100
AcDbEntity
  8
0
  6
Continuous
 62
     7
370
    25
100
AcDbCircle
 10
81.4903300816
 20
-51.569669916
 30
0.0
 40
0.7499999999999977
100
AcDbArc
 50
154.4712206299
 51
295.5287793609
  0
ARC
  5
5EC
330
1F
100
AcDbEntity
  8
0
  6
Continuous
 62
     7
370
    25
100
AcDbCircle
 10
82.4599999956
 20
-53.6000000019
 30
0.0
 40
1.500000000000043
100
AcDbArc
 50
90.0
 51
115.5287793608
  0
ARC
  5
5ED
330
1F
100
AcDbEntity
  8
0
  6
Continuous
 62
     7
370
    25
100
AcDbCircle
 10
93.459999998
 20
-53.6000000019
 30
0.0
 40
1.5
100
AcDbArc
 50
64.4712206392
 51
90.0
  0
ARC
  5
5EE
330
1F
100
AcDbEntity
  8
0
  6
Continuous
 62
     7
370
    25
100
AcDbCircle
 10
94.429669912
 20
-51.569669916
 30
0.0
 40
0.7499999999999915
100
AcDbArc
 50
244.4712206392
 51
314.9999999916
  0
ARC
  5
5EF
330
1F
100
AcDbEntity
  8
0
  6
Continuous
 62
     7
370
    25
100
AcDbCircle
 10
94.429669912
 20
-70.619669916
 30
0.0
 40
0.7499999999999383
100
AcDbArc
 50
315.2707353259
 51
25.5287793702
  0
ARC
  5
5F0
330
1F
100
AcDbEntity
  8
0
  6
Continuous
 62
     7
370
    25
100
AcDbCircle
 10
96.4599999978
 20
-69.6500000017
 30
0.0
 40
1.500000000000032
100
AcDbArc
 50
183.3084317046
 51
205.5287793702
  0
ARC
  5
5F1
330
1F
100
AcDbEntity
  8
0
  6
Continuous
 62
     7
370
    25
100
AcDbCircle
 10
96.4599999978
 20
-58.6500000002
 30
0.0
 40
1.500000000000363
100
AcDbArc
 50
154.4712206298
 51
176.6915682954
  0
ARC
  5
5F2
330
1F
100
AcDbEntity
  8
0
  6
Continuous
 62
     7
370
    25
100
AcDbCircle
 10
94.429669912
 20
-57.680330086
 30
0.0
 40
0.7499999999999435
100
AcDbArc
 50
334.4712206298
 51
44.7292646741
  0
ARC
  5
5F3
330
1F
100
AcDbEntity
  8
0
  6
Continuous
 62
     7
370
    25
100
AcDbCircle
 10
94.429669912
 20
-57.680330086
 30
0.0
 40
0.7500000000000262
100
AcDbArc
 50
44.9999997993
 51
115.5287793608
  0
ARC
  5
5F4
330
1F
100
AcDbEntity
  8
0
  6
Continuous
 62
     7
370
    25
100
AcDbCircle
 10
93.459999998
 20
-55.65
 30
0.0
 40
1.499999999999496
100
AcDbArc
 50
270.0
 51
295.5287793608
  0
ARC
  5
5F5
330
1F
100
AcDbEntity
  8
0
  6
Continuous
 62
     7
370
    25
100
AcDbCircle
 10
82.4599999998
 20
-55.65
 30
0.0
 40
1.499999999999873
100
AcDbArc
 50
244.4712206392
 51
270.0
  0
ARC
  5
5F6
330
1F
100
AcDbEntity
  8
0
  6
Continuous
 62
     7
370
    25
100
AcDbCircle
 10
81.4903300858
 20
-57.680330086
 30
0.0
 40
0.7500000000000074
100
AcDbArc
 50
64.4712206392
 51
205.5287791236
  0
ARC
  5
5F7
330
1F
100
AcDbEntity
  8
0
  6
Continuous
 62
     7
370
    25
100
AcDbCircle
 10
79.4599999958
 20
-58.6499999915
 30
0.0
 40
1.499999999999488
100
AcDbArc
 50
360.0
 51
25.5287791236
  0
ARC
  5
5F8
330
1F
100
AcDbEntity
  8
0
  6
Continuous
 62
     7
370
    25
100
AcDbCircle
 10
79.4599999958
 20
-69.6500000017
 30
0.0
 40
1.50000000000018
100
AcDbArc
 50
334.4712206299
 51
360.0
  0
ARC
  5
5F9
330
1F
100
AcDbEntity
  8
0
  6
Continuous
 62
     7
370
    25
100
AcDbCircle
 10
81.4903300816
 20
-70.619669916
 30
0.0
 40
0.7500000000000099
100
AcDbArc
 50
154.4712206299
 51
295.5287793609
  0
ARC
  5
5FA
330
1F
100
AcDbEntity
  8
0
  6
Continuous
 62
     7
370
    25
100
AcDbCircle
 10
82.4599999956
 20
-72.6500000019
 30
0.0
 40
1.49999999999973
100
AcDbArc
 50
90.0
 51
115.5287793609
  0
ARC
  5
5FB
330
1F
100
AcDbEntity
  8
0
  6
Continuous
 62
     7
370
    25
100
AcDbCircle
 10
93.459999998
 20
-72.6500000019
 30
0.0
 40
1.500000000000227
100
AcDbArc
 50
64.4712206392
 51
90.0
  0
ARC
  5
5FC
330
1F
100
AcDbEntity
  8
0
  6
Continuous
 62
     7
370
    25
100
AcDbCircle
 10
94.429669912
 20
-70.619669916
 30
0.0
 40
0.7500000000000061
100
AcDbArc
 50
244.4712206392
 51
314.9999999916
  0
ARC
  5
5FD
330
1F
100
AcDbEntity
  8
0
  6
Continuous
 62
     7
370
    25
100
AcDbCircle
 10
94.429669912
 20
-89.669669916
 30
0.0
 40
0.7499999999999684
100
AcDbArc
 50
315.2707353259
 51
25.5287793702
  0
ARC
  5
5FE
330
1F
100
AcDbEntity
  8
0
  6
Continuous
 62
     7
370
    25
100
AcDbCircle
 10
96.4599999978
 20
-88.7000000017
 30
0.0
 40
1.500000000000032
100
AcDbArc
 50
183.3084317046
 51
205.5287793702
  0
ARC
  5
5FF
330
1F
100
AcDbEntity
  8
0
  6
Continuous
 62
     7
370
    25
100
AcDbCircle
 10
96.4599999978
 20
-77.7000000002
 30
0.0
 40
1.500000000000289
100
AcDbArc
 50
154.4712206298
 51
176.6915682954
  0
ARC
  5
600
330
1F
100
AcDbEntity
  8
0
  6
Continuous
 62
     7
370
    25
100
AcDbCircle
 10
94.429669912
 20
-76.730330086
 30
0.0
 40
0.7499999999999752
100
AcDbArc
 50
334.4712206298
 51
44.7292646741
  0
ARC
  5
601
330
1F
100
AcDbEntity
  8
0
  6
Continuous
 62
     7
370
    25
100
AcDbCircle
 10
94.429669912
 20
-76.730330086
 30
0.0
 40
0.7499999999999871
100
AcDbArc
 50
44.9999997993
 51
115.5287793608
  0
ARC
  5
602
330
1F
100
AcDbEntity
  8
0
  6
Continuous
 62
     7
370
    25
100
AcDbCircle
 10
93.459999998
 20
-74.7
 30
0.0
 40
1.499999999999872
100
AcDbArc
 50
270.0
 51
295.5287793608
  0
ARC
  5
603
330
1F
100
AcDbEntity
  8
0
  6
Continuous
 62
     7
370
    25
100
AcDbCircle
 10
82.4599999998
 20
-74.7
 30
0.0
 40
1.500000000000077
100
AcDbArc
 50
244.4712206392
 51
270.0
  0
ARC
  5
604
330
1F
100
AcDbEntity
  8
0
  6
Continuous
 62
     7
370
    25
100
AcDbCircle
 10
81.4903300858
 20
-76.730330086
 30
0.0
 40
0.7500000000000038
100
AcDbArc
 50
64.4712206392
 51
205.5287791236
  0
ARC
  5
605
330
1F
100
AcDbEntity
  8
0
  6
Continuous
 62
     7
370
    25
100
AcDbCircle
 10
79.4599999958
 20
-77.6999999915
 30
0.0
 40
1.49999999999976
100
AcDbArc
 50
360.0
 51
25.5287791236
  0
ARC
  5
606
330
1F
100
AcDbEntity
  8
0
  6
Continuous
 62
     7
370
    25
100
AcDbCircle
 10
79.4599999958
 20
-88.7000000017
 30
0.0
 40
1.500000000000186
100
AcDbArc
 50
334.4712206299
 51
360.0
  0
ARC
  5
607
330
1F
100
AcDbEntity
  8
0
  6
Continuous
 62
     7
370
    25
100
AcDbCircle
 10
81.4903300816
 20
-89.669669916
 30
0.0
 40
0.7500000000000099
100
AcDbArc
 50
154.4712206299
 51
295.5287793609
  0
ARC
  5
608
330
1F
100
AcDbEntity
  8
0
  6
Continuous
 62
     7
370
    25
100
AcDbCircle
 10
82.4599999956
 20
-91.7000000019
 30
0.0
 40
1.500000000000298
100
AcDbArc
 50
90.0
 51
115.5287793608
  0
ARC
  5
609
330
1F
100
AcDbEntity
  8
0
  6
Continuous
 62
     7
370
    25
100
AcDbCircle
 10
93.459999998
 20
-91.7000000019
 30
0.0
 40
1.499999999999874
100
AcDbArc
 50
64.4712206391
 51
90.0
  0
ARC
  5
60A
330
1F
100
AcDbEntity
  8
0
  6
Continuous
 62
     7
370
    25
100
AcDbCircle
 10
94.429669912
 20
-89.669669916
 30
0.0
 40
0.7499999999999357
100
AcDbArc
 50
244.4712206391
 51
314.9999999916
  0
ARC
  5
60B
330
1F
100
AcDbEntity
  8
0
  6
Continuous
 62
     7
370
    25
100
AcDbCircle
 10
37.279669912
 20
-89.669669916
 30
0.0
 40
0.7499999999999937
100
AcDbArc
 50
315.2707353259
 51
25.5287793702
  0
ARC
  5
60C
330
1F
100
AcDbEntity
  8
0
  6
Continuous
 62
     7
370
    25
100
AcDbCircle
 10
39.3099999978
 20
-88.7000000017
 30
0.0
 40
1.500000000000385
100
AcDbArc
 50
183.3084317046
 51
205.5287793702
  0
ARC
  5
60D
330
1F
100
AcDbEntity
  8
0
  6
Continuous
 62
     7
370
    25
100
AcDbCircle
 10
39.3099999978
 20
-77.7000000002
 30
0.0
 40
1.50000000000006
100
AcDbArc
 50
154.4712206298
 51
176.6915682954
  0
ARC
  5
60E
330
1F
100
AcDbEntity
  8
0
  6
Continuous
 62
     7
370
    25
100
AcDbCircle
 10
37.279669912
 20
-76.730330086
 30
0.0
 40
0.7499999999999947
100
AcDbArc
 50
334.4712206298
 51
44.7292646741
  0
ARC
  5
60F
330
1F
100
AcDbEntity
  8
0
  6
Continuous
 62
     7
370
    25
100
AcDbCircle
 10
37.279669912
 20
-76.730330086
 30
0.0
 40
0.749999999999981
100
AcDbArc
 50
44.9999997993
 51
115.5287793608
  0
ARC
  5
610
330
1F
100
AcDbEntity
  8
0
  6
Continuous
 62
     7
370
    25
100
AcDbCircle
 10
36.309999998
 20
-74.7
 30
0.0
 40
1.500000000000227
100
AcDbArc
 50
270.0
 51
295.5287793608
  0
ARC
  5
611
330
1F
100
AcDbEntity
  8
0
  6
Continuous
 62
     7
370
    25
100
AcDbCircle
 10
25.3099999998
 20
-74.7
 30
0.0
 40
1.500000000000033
100
AcDbArc
 50
244.4712206392
 51
270.0
  0
ARC
  5
612
330
1F
100
AcDbEntity
  8
0
  6
Continuous
 62
     7
370
    25
100
AcDbCircle
 10
24.3403300858
 20
-76.730330086
 30
0.0
 40
0.7499999999999941
100
AcDbArc
 50
64.4712206392
 51
205.5287791236
  0
ARC
  5
613
330
1F
100
AcDbEntity
  8
0
  6
Continuous
 62
     7
370
    25
100
AcDbCircle
 10
22.3099999958
 20
-77.6999999915
 30
0.0
 40
1.500000000000171
100
AcDbArc
 50
0.0
 51
25.5287791236
  0
ARC
  5
614
330
1F
100
AcDbEntity
  8
0
  6
Continuous
 62
     7
370
    25
100
AcDbCircle
 10
22.3099999958
 20
-88.7000000017
 30
0.0
 40
1.499999999999982
100
AcDbArc
 50
334.4712206299
 51
0.0
  0
ARC
  5
615
330
1F
100
AcDbEntity
  8
0
  6
Continuous
 62
     7
370
    25
100
AcDbCircle
 10
24.3403300816
 20
-89.669669916
 30
0.0
 40
0.7500000000000141
100
AcDbArc
 50
154.4712206299
 51
295.5287793608
  0
ARC
  5
616
330
1F
100
AcDbEntity
  8
0
  6
Continuous
 62
     7
370
    25
100
AcDbCircle
 10
25.3099999956
 20
-91.7000000019
 30
0.0
 40
1.500000000000101
100
AcDbArc
 50
90.0
 51
115.5287793608
  0
ARC
  5
617
330
1F
100
AcDbEntity
  8
0
  6
Continuous
 62
     7
370
    25
100
AcDbCircle
 10
36.309999998
 20
-91.7000000019
 30
0.0
 40
1.499999999999861
100
AcDbArc
 50
64.4712206391
 51
90.0
  0
ARC
  5
618
330
1F
100
AcDbEntity
  8
0
  6
Continuous
 62
     7
370
    25
100
AcDbCircle
 10
37.279669912
 20
-89.669669916
 30
0.0
 40
0.7500000000000043
100
AcDbArc
 50
244.4712206392
 51
314.9999999916
  0
ARC
  5
619
330
1F
100
AcDbEntity
  8
0
  6
Continuous
 62
     7
370
    25
100
AcDbCircle
 10
12.499999998
 20
-34.5500000019
 30
0.0
 40
1.500000000000213
100
AcDbArc
 50
64.4712206392
 51
90.0
  0
ARC
  5
61A
330
1F
100
AcDbEntity
  8
0
  6
Continuous
 62
     7
370
    25
100
AcDbCircle
 10
13.469669912
 20
-32.519669916
 30
0.0
 40
0.7499999999999997
100
AcDbArc
 50
244.4712206392
 51
25.5287793702
  0
ARC
  5
61B
330
1F
100
AcDbEntity
  8
0
  6
Continuous
 62
     7
370
    25
100
AcDbCircle
 10
15.4999999978
 20
-31.5500000017
 30
0.0
 40
1.500000000000061
100
AcDbArc
 50
180.0
 51
205.5287793702
  0
ARC
  5
61C
330
1F
100
AcDbEntity
  8
0
  6
Continuous
 62
     7
370
    25
100
AcDbCircle
 10
15.4999999978
 20
-20.5500000002
 30
0.0
 40
1.500000000000233
100
AcDbArc
 50
154.4712206298
 51
180.0
  0
ARC
  5
61D
330
1F
100
AcDbEntity
  8
0
  6
Continuous
 62
     7
370
    25
100
AcDbCircle
 10
13.469669912
 20
-19.580330086
 30
0.0
 40
0.7499999999999978
100
AcDbArc
 50
334.4712206298
 51
115.5287793608
  0
ARC
  5
61E
330
1F
100
AcDbEntity
  8
0
  6
Continuous
 62
     7
370
    25
100
AcDbCircle
 10
12.4999999964
 20
-17.5499999951
 30
0.0
 40
1.500000005115815
100
AcDbArc
 50
270.0000000688
 51
295.528779335
  0
ARC
  5
61F
330
1F
100
AcDbEntity
  8
0
  6
Continuous
 62
     7
370
    25
100
AcDbCircle
 10
1.4999999998
 20
-17.55
 30
0.0
 40
1.500000000000101
100
AcDbArc
 50
244.4712206392
 51
270.0
  0
ARC
  5
620
330
1F
100
AcDbEntity
  8
0
  6
Continuous
 62
     7
370
    25
100
AcDbCircle
 10
0.5303300858
 20
-19.580330086
 30
0.0
 40
0.7499999999999971
100
AcDbArc
 50
64.4712206392
 51
205.5287791236
  0
ARC
  5
621
330
1F
100
AcDbEntity
  8
0
  6
Continuous
 62
     7
370
    25
100
AcDbCircle
 10
-1.5000000042
 20
-20.5499999915
 30
0.0
 40
1.500000000004212
100
AcDbArc
 50
0.0000000001
 51
25.5287791236
  0
ARC
  5
622
330
1F
100
AcDbEntity
  8
0
  6
Continuous
 62
     7
370
    25
100
AcDbCircle
 10
-1.5000000042
 20
-31.5500000017
 30
0.0
 40
1.499999999999665
100
AcDbArc
 50
334.4712206299
 51
0.0
  0
ARC
  5
623
330
1F
100
AcDbEntity
  8
0
  6
Continuous
 62
     7
370
    25
100
AcDbCircle
 10
0.5303300816
 20
-32.519669916
 30
0.0
 40
0.7500000000000083
100
AcDbArc
 50
154.4712206299
 51
295.5287793609
  0
ARC
  5
624
330
1F
100
AcDbEntity
  8
0
  6
Continuous
 62
     7
370
    25
100
AcDbCircle
 10
1.4999999956
 20
-34.5500000019
 30
0.0
 40
1.500000000000107
100
AcDbArc
 50
90.0
 51
115.5287793608
  0
ARC
  5
625
330
1F
100
AcDbEntity
  8
0
  6
Continuous
 62
     7
370
    25
100
AcDbCircle
 10
12.499999998
 20
-53.6000000019
 30
0.0
 40
1.500000000000057
100
AcDbArc
 50
64.4712206392
 51
90.0
  0
ARC
  5
626
330
1F
100
AcDbEntity
  8
0
  6
Continuous
 62
     7
370
    25
100
AcDbCircle
 10
13.469669912
 20
-51.569669916
 30
0.0
 40
0.7500000000000006
100
AcDbArc
 50
244.4712206392
 51
25.5287793702
  0
ARC
  5
627
330
1F
100
AcDbEntity
  8
0
  6
Continuous
 62
     7
370
    25
100
AcDbCircle
 10
15.4999999978
 20
-50.6000000017
 30
0.0
 40
1.500000000000082
100
AcDbArc
 50
180.0
 51
205.5287793702
  0
ARC
  5
628
330
1F
100
AcDbEntity
  8
0
  6
Continuous
 62
     7
370
    25
100
AcDbCircle
 10
15.4999999978
 20
-39.6000000002
 30
0.0
 40
1.50000000000027
100
AcDbArc
 50
154.4712206298
 51
180.0
  0
ARC
  5
629
330
1F
100
AcDbEntity
  8
0
  6
Continuous
 62
     7
370
    25
100
AcDbCircle
 10
13.469669912
 20
-38.630330086
 30
0.0
 40
0.7500000000000002
100
AcDbArc
 50
334.4712206298
 51
115.5287793608
  0
ARC
  5
62A
330
1F
100
AcDbEntity
  8
0
  6
Continuous
 62
     7
370
    25
100
AcDbCircle
 10
12.4999999964
 20
-36.5999999951
 30
0.0
 40
1.500000005115689
100
AcDbArc
 50
270.0000000688
 51
295.528779335
  0
ARC
  5
62B
330
1F
100
AcDbEntity
  8
0
  6
Continuous
 62
     7
370
    25
100
AcDbCircle
 10
1.4999999998
 20
-36.6
 30
0.0
 40
1.500000000000014
100
AcDbArc
 50
244.4712206392
 51
270.0
  0
ARC
  5
62C
330
1F
100
AcDbEntity
  8
0
  6
Continuous
 62
     7
370
    25
100
AcDbCircle
 10
0.5303300858
 20
-38.630330086
 30
0.0
 40
0.7500000000000021
100
AcDbArc
 50
64.4712206392
 51
205.5287791236
  0
ARC
  5
62D
330
1F
100
AcDbEntity
  8
0
  6
Continuous
 62
     7
370
    25
100
AcDbCircle
 10
-1.5000000042
 20
-39.5999999915
 30
0.0
 40
1.500000000004581
100
AcDbArc
 50
0.0000000001
 51
25.5287791236
  0
ARC
  5
62E
330
1F
100
AcDbEntity
  8
0
  6
Continuous
 62
     7
370
    25
100
AcDbCircle
 10
-1.5000000042
 20
-50.6000000017
 30
0.0
 40
1.49999999999946
100
AcDbArc
 50
334.4712206299
 51
0.0
  0
ARC
  5
62F
330
1F
100
AcDbEntity
  8
0
  6
Continuous
 62
     7
370
    25
100
AcDbCircle
 10
0.5303300816
 20
-51.569669916
 30
0.0
 40
0.7500000000000077
100
AcDbArc
 50
154.4712206299
 51
295.5287793609
  0
ARC
  5
630
330
1F
100
AcDbEntity
  8
0
  6
Continuous
 62
     7
370
    25
100
AcDbCircle
 10
1.4999999956
 20
-53.6000000019
 30
0.0
 40
1.499999999999986
100
AcDbArc
 50
90.0
 51
115.5287793608
  0
ARC
  5
631
330
1F
100
AcDbEntity
  8
0
  6
Continuous
 62
     7
370
    25
100
AcDbCircle
 10
12.499999998
 20
-72.6500000019
 30
0.0
 40
1.500000000000242
100
AcDbArc
 50
64.4712206392
 51
90.0
  0
ARC
  5
632
330
1F
100
AcDbEntity
  8
0
  6
Continuous
 62
     7
370
    25
100
AcDbCircle
 10
13.469669912
 20
-70.619669916
 30
0.0
 40
0.7500000000000012
100
AcDbArc
 50
244.4712206392
 51
25.5287793702
  0
ARC
  5
633
330
1F
100
AcDbEntity
  8
0
  6
Continuous
 62
     7
370
    25
100
AcDbCircle
 10
15.4999999978
 20
-69.6500000017
 30
0.0
 40
1.5
100
AcDbArc
 50
180.0
 51
205.5287793702
  0
ARC
  5
634
330
1F
100
AcDbEntity
  8
0
  6
Continuous
 62
     7
370
    25
100
AcDbCircle
 10
15.4999999978
 20
-58.6500000002
 30
0.0
 40
1.500000000000261
100
AcDbArc
 50
154.4712206298
 51
180.0
  0
ARC
  5
635
330
1F
100
AcDbEntity
  8
0
  6
Continuous
 62
     7
370
    25
100
AcDbCircle
 10
13.469669912
 20
-57.680330086
 30
0.0
 40
0.7500000000000067
100
AcDbArc
 50
334.4712206298
 51
115.5287793608
  0
ARC
  5
636
330
1F
100
AcDbEntity
  8
0
  6
Continuous
 62
     7
370
    25
100
AcDbCircle
 10
12.4999999964
 20
-55.6499999951
 30
0.0
 40
1.500000005115879
100
AcDbArc
 50
270.0000000688
 51
295.528779335
  0
ARC
  5
637
330
1F
100
AcDbEntity
  8
0
  6
Continuous
 62
     7
370
    25
100
AcDbCircle
 10
1.4999999998
 20
-55.65
 30
0.0
 40
1.500000000000028
100
AcDbArc
 50
244.4712206392
 51
270.0
  0
ARC
  5
638
330
1F
100
AcDbEntity
  8
0
  6
Continuous
 62
     7
370
    25
100
AcDbCircle
 10
0.5303300858
 20
-57.680330086
 30
0.0
 40
0.7499999999999998
100
AcDbArc
 50
64.4712206392
 51
205.5287791236
  0
ARC
  5
639
330
1F
100
AcDbEntity
  8
0
  6
Continuous
 62
     7
370
    25
100
AcDbCircle
 10
-1.5000000042
 20
-58.6499999915
 30
0.0
 40
1.500000000004589
100
AcDbArc
 50
0.0000000001
 51
25.5287791236
  0
ARC
  5
63A
330
1F
100
AcDbEntity
  8
0
  6
Continuous
 62
     7
370
    25
100
AcDbCircle
 10
-1.5000000042
 20
-69.6500000017
 30
0.0
 40
1.499999999999741
100
AcDbArc
 50
334.4712206299
 51
0.0
  0
ARC
  5
63B
330
1F
100
AcDbEntity
  8
0
  6
Continuous
 62
     7
370
    25
100
AcDbCircle
 10
0.5303300816
 20
-70.619669916
 30
0.0
 40
0.7500000000000062
100
AcDbArc
 50
154.4712206299
 51
295.5287793609
  0
ARC
  5
63C
330
1F
100
AcDbEntity
  8
0
  6
Continuous
 62
     7
370
    25
100
AcDbCircle
 10
1.4999999956
 20
-72.6500000019
 30
0.0
 40
1.499999999999716
100
AcDbArc
 50
90.0
 51
115.5287793609
  0
ARC
  5
63D
330
1F
100
AcDbEntity
  8
0
  6
Continuous
 62
     7
370
    25
100
AcDbCircle
 10
37.279669912
 20
-70.619669916
 30
0.0
 40
0.7500000000000189
100
AcDbArc
 50
315.2707353259
 51
25.5287793702
  0
ARC
  5
63E
330
1F
100
AcDbEntity
  8
0
  6
Continuous
 62
     7
370
    25
100
AcDbCircle
 10
39.3099999978
 20
-69.6500000017
 30
0.0
 40
1.500000000000391
100
AcDbArc
 50
183.3084317046
 51
205.5287793702
  0
ARC
  5
63F
330
1F
100
AcDbEntity
  8
0
  6
Continuous
 62
     7
370
    25
100
AcDbCircle
 10
39.3099999978
 20
-58.6500000002
 30
0.0
 40
1.500000000000299
100
AcDbArc
 50
154.4712206298
 51
176.6915682954
  0
ARC
  5
640
330
1F
100
AcDbEntity
  8
0
  6
Continuous
 62
     7
370
    25
100
AcDbCircle
 10
37.279669912
 20
-57.680330086
 30
0.0
 40
0.7499999999999836
100
AcDbArc
 50
334.4712206298
 51
44.7292646741
  0
ARC
  5
641
330
1F
100
AcDbEntity
  8
0
  6
Continuous
 62
     7
370
    25
100
AcDbCircle
 10
37.279669912
 20
-57.680330086
 30
0.0
 40
0.7500000000000067
100
AcDbArc
 50
44.9999997993
 51
115.5287793608
  0
ARC
  5
642
330
1F
100
AcDbEntity
  8
0
  6
Continuous
 62
     7
370
    25
100
AcDbCircle
 10
36.309999998
 20
-55.65
 30
0.0
 40
1.499999999999917
100
AcDbArc
 50
270.0
 51
295.5287793608
  0
ARC
  5
643
330
1F
100
AcDbEntity
  8
0
  6
Continuous
 62
     7
370
    25
100
AcDbCircle
 10
25.3099999998
 20
-55.65
 30
0.0
 40
1.500000000000007
100
AcDbArc
 50
244.4712206392
 51
270.0
  0
ARC
  5
644
330
1F
100
AcDbEntity
  8
0
  6
Continuous
 62
     7
370
    25
100
AcDbCircle
 10
24.3403300858
 20
-57.680330086
 30
0.0
 40
0.7499999999999938
100
AcDbArc
 50
64.4712206392
 51
205.5287791236
  0
ARC
  5
645
330
1F
100
AcDbEntity
  8
0
  6
Continuous
 62
     7
370
    25
100
AcDbCircle
 10
22.3099999958
 20
-58.6499999915
 30
0.0
 40
1.500000000000072
100
AcDbArc
 50
0.0
 51
25.5287791236
  0
ARC
  5
646
330
1F
100
AcDbEntity
  8
0
  6
Continuous
 62
     7
370
    25
100
AcDbCircle
 10
22.3099999958
 20
-69.6500000017
 30
0.0
 40
1.499999999999982
100
AcDbArc
 50
334.4712206299
 51
0.0
  0
ARC
  5
647
330
1F
100
AcDbEntity
  8
0
  6
Continuous
 62
     7
370
    25
100
AcDbCircle
 10
24.3403300816
 20
-70.619669916
 30
0.0
 40
0.7500000000000043
100
AcDbArc
 50
154.4712206299
 51
295.5287793609
  0
ARC
  5
648
330
1F
100
AcDbEntity
  8
0
  6
Continuous
 62
     7
370
    25
100
AcDbCircle
 10
25.3099999956
 20
-72.6500000019
 30
0.0
 40
1.499999999999744
100
AcDbArc
 50
90.0
 51
115.5287793609
  0
ARC
  5
649
330
1F
100
AcDbEntity
  8
0
  6
Continuous
 62
     7
370
    25
100
AcDbCircle
 10
36.309999998
 20
-72.6500000019
 30
0.0
 40
1.500000000000213
100
AcDbArc
 50
64.4712206392
 51
90.0
  0
ARC
  5
64A
330
1F
100
AcDbEntity
  8
0
  6
Continuous
 62
     7
370
    25
100
AcDbCircle
 10
37.279669912
 20
-70.619669916
 30
0.0
 40
0.7500000000000427
100
AcDbArc
 50
244.4712206392
 51
314.9999999916
  0
ARC
  5
64B
330
1F
100
AcDbEntity
  8
0
  6
Continuous
 62
     7
370
    25
100
AcDbCircle
 10
37.279669912
 20
-51.569669916
 30
0.0
 40
0.7499999999999987
100
AcDbArc
 50
315.2707353259
 51
25.5287793702
  0
ARC
  5
64C
330
1F
100
AcDbEntity
  8
0
  6
Continuous
 62
     7
370
    25
100
AcDbCircle
 10
39.3099999978
 20
-50.6000000017
 30
0.0
 40
1.500000000000359
100
AcDbArc
 50
183.3084317046
 51
205.5287793702
  0
ARC
  5
64D
330
1F
100
AcDbEntity
  8
0
  6
Continuous
 62
     7
370
    25
100
AcDbCircle
 10
39.3099999978
 20
-39.6000000002
 30
0.0
 40
1.500000000000289
100
AcDbArc
 50
154.4712206298
 51
176.6915682954
  0
ARC
  5
64E
330
1F
100
AcDbEntity
  8
0
  6
Continuous
 62
     7
370
    25
100
AcDbCircle
 10
37.279669912
 20
-38.630330086
 30
0.0
 40
0.7499999999999852
100
AcDbArc
 50
334.4712206298
 51
44.7292646741
  0
ARC
  5
64F
330
1F
100
AcDbEntity
  8
0
  6
Continuous
 62
     7
370
    25
100
AcDbCircle
 10
37.279669912
 20
-38.630330086
 30
0.0
 40
0.7500000000000067
100
AcDbArc
 50
44.9999997993
 51
115.5287793608
  0
ARC
  5
650
330
1F
100
AcDbEntity
  8
0
  6
Continuous
 62
     7
370
    25
100
AcDbCircle
 10
36.309999998
 20
-36.6
 30
0.0
 40
1.499999999999917
100
AcDbArc
 50
270.0
 51
295.5287793608
  0
ARC
  5
651
330
1F
100
AcDbEntity
  8
0
  6
Continuous
 62
     7
370
    25
100
AcDbCircle
 10
25.3099999998
 20
-36.6
 30
0.0
 40
1.50000000000001
100
AcDbArc
 50
244.4712206392
 51
270.0
  0
ARC
  5
652
330
1F
100
AcDbEntity
  8
0
  6
Continuous
 62
     7
370
    25
100
AcDbCircle
 10
24.3403300858
 20
-38.630330086
 30
0.0
 40
0.7499999999999953
100
AcDbArc
 50
64.4712206392
 51
205.5287791236
  0
ARC
  5
653
330
1F
100
AcDbEntity
  8
0
  6
Continuous
 62
     7
370
    25
100
AcDbCircle
 10
22.3099999958
 20
-39.5999999915
 30
0.0
 40
1.500000000000075
100
AcDbArc
 50
0.0
 51
25.5287791236
  0
ARC
  5
654
330
1F
100
AcDbEntity
  8
0
  6
Continuous
 62
     7
370
    25
100
AcDbCircle
 10
22.3099999958
 20
-50.6000000017
 30
0.0
 40
1.499999999999724
100
AcDbArc
 50
334.4712206299
 51
0.0
  0
ARC
  5
655
330
1F
100
AcDbEntity
  8
0
  6
Continuous
 62
     7
370
    25
100
AcDbCircle
 10
24.3403300816
 20
-51.569669916
 30
0.0
 40
0.750000000000007
100
AcDbArc
 50
154.4712206299
 51
295.5287793609
  0
ARC
  5
656
330
1F
100
AcDbEntity
  8
0
  6
Continuous
 62
     7
370
    25
100
AcDbCircle
 10
25.3099999956
 20
-53.6000000019
 30
0.0
 40
1.50000000000005
100
AcDbArc
 50
90.0
 51
115.5287793608
  0
ARC
  5
657
330
1F
100
AcDbEntity
  8
0
  6
Continuous
 62
     7
370
    25
100
AcDbCircle
 10
36.309999998
 20
-53.6000000019
 30
0.0
 40
1.499999999999972
100
AcDbArc
 50
64.4712206392
 51
90.0
  0
ARC
  5
658
330
1F
100
AcDbEntity
  8
0
  6
Continuous
 62
     7
370
    25
100
AcDbCircle
 10
37.279669912
 20
-51.569669916
 30
0.0
 40
0.7499999999999979
100
AcDbArc
 50
244.4712206392
 51
314.9999999916
  0
ARC
  5
659
330
1F
100
AcDbEntity
  8
0
  6
Continuous
 62
     7
370
    25
100
AcDbCircle
 10
37.279669912
 20
-32.519669916
 30
0.0
 40
0.7499999999999987
100
AcDbArc
 50
315.2707353259
 51
25.5287793702
  0
ARC
  5
65A
330
1F
100
AcDbEntity
  8
0
  6
Continuous
 62
     7
370
    25
100
AcDbCircle
 10
39.3099999978
 20
-31.5500000017
 30
0.0
 40
1.500000000000107
100
AcDbArc
 50
183.3084317046
 51
205.5287793702
  0
ARC
  5
65B
330
1F
100
AcDbEntity
  8
0
  6
Continuous
 62
     7
370
    25
100
AcDbCircle
 10
39.3099999978
 20
-20.5500000002
 30
0.0
 40
1.499999999999951
100
AcDbArc
 50
154.4712206298
 51
176.6915682954
  0
ARC
  5
65C
330
1F
100
AcDbEntity
  8
0
  6
Continuous
 62
     7
370
    25
100
AcDbCircle
 10
37.279669912
 20
-19.580330086
 30
0.0
 40
0.7500000000000046
100
AcDbArc
 50
334.4712206298
 51
44.7292646741
  0
ARC
  5
65D
330
1F
100
AcDbEntity
  8
0
  6
Continuous
 62
     7
370
    25
100
AcDbCircle
 10
37.279669912
 20
-19.580330086
 30
0.0
 40
0.7499999999999986
100
AcDbArc
 50
44.9999997993
 51
115.5287793608
  0
ARC
  5
65E
330
1F
100
AcDbEntity
  8
0
  6
Continuous
 62
     7
370
    25
100
AcDbCircle
 10
36.309999998
 20
-17.55
 30
0.0
 40
1.500000000000092
100
AcDbArc
 50
270.0
 51
295.5287793608
  0
ARC
  5
65F
330
1F
100
AcDbEntity
  8
0
  6
Continuous
 62
     7
370
    25
100
AcDbCircle
 10
25.3099999998
 20
-17.55
 30
0.0
 40
1.500000000000082
100
AcDbArc
 50
244.4712206392
 51
270.0
  0
ARC
  5
660
330
1F
100
AcDbEntity
  8
0
  6
Continuous
 62
     7
370
    25
100
AcDbCircle
 10
24.3403300858
 20
-19.580330086
 30
0.0
 40
0.7499999999999941
100
AcDbArc
 50
64.4712206392
 51
205.5287791236
  0
ARC
  5
661
330
1F
100
AcDbEntity
  8
0
  6
Continuous
 62
     7
370
    25
100
AcDbCircle
 10
22.3099999958
 20
-20.5499999915
 30
0.0
 40
1.500000000000041
100
AcDbArc
 50
0.0
 51
25.5287791236
  0
ARC
  5
662
330
1F
100
AcDbEntity
  8
0
  6
Continuous
 62
     7
370
    25
100
AcDbCircle
 10
22.3099999958
 20
-31.5500000017
 30
0.0
 40
1.499999999999934
100
AcDbArc
 50
334.4712206299
 51
0.0
  0
ARC
  5
663
330
1F
100
AcDbEntity
  8
0
  6
Continuous
 62
     7
370
    25
100
AcDbCircle
 10
24.3403300816
 20
-32.519669916
 30
0.0
 40
0.7500000000000067
100
AcDbArc
 50
154.4712206299
 51
295.5287793609
  0
ARC
  5
664
330
1F
100
AcDbEntity
  8
0
  6
Continuous
 62
     7
370
    25
100
AcDbCircle
 10
25.3099999956
 20
-34.5500000019
 30
0.0
 40
1.500000000000171
100
AcDbArc
 50
90.0
 51
115.5287793608
  0
ARC
  5
665
330
1F
100
AcDbEntity
  8
0
  6
Continuous
 62
     7
370
    25
100
AcDbCircle
 10
36.309999998
 20
-34.5500000019
 30
0.0
 40
1.500000000000185
100
AcDbArc
 50
64.4712206392
 51
90.0
  0
ARC
  5
666
330
1F
100
AcDbEntity
  8
0
  6
Continuous
 62
     7
370
    25
100
AcDbCircle
 10
37.279669912
 20
-32.519669916
 30
0.0
 40
0.7499999999999915
100
AcDbArc
 50
244.4712206392
 51
314.9999999916
  0
ARC
  5
667
330
1F
100
AcDbEntity
  8
0
  6
Continuous
 62
     7
370
    25
100
AcDbCircle
 10
37.279669912
 20
-13.469669916
 30
0.0
 40
0.7499999999999778
100
AcDbArc
 50
315.2707353259
 51
25.5287793702
  0
ARC
  5
668
330
1F
100
AcDbEntity
  8
0
  6
Continuous
 62
     7
370
    25
100
AcDbCircle
 10
39.3099999978
 20
-12.5000000017
 30
0.0
 40
1.500000000000403
100
AcDbArc
 50
183.3084317045
 51
205.5287793702
  0
ARC
  5
669
330
1F
100
AcDbEntity
  8
0
  6
Continuous
 62
     7
370
    25
100
AcDbCircle
 10
39.3099999978
 20
-1.5000000002
 30
0.0
 40
1.500000000000167
100
AcDbArc
 50
154.4712206298
 51
176.6915682955
  0
ARC
  5
66A
330
1F
100
AcDbEntity
  8
0
  6
Continuous
 62
     7
370
    25
100
AcDbCircle
 10
37.279669912
 20
-0.530330086
 30
0.0
 40
0.7499999999999921
100
AcDbArc
 50
334.4712206298
 51
44.7292646741
  0
ARC
  5
66B
330
1F
100
AcDbEntity
  8
0
  6
Continuous
 62
     7
370
    25
100
AcDbCircle
 10
37.279669912
 20
-0.530330086
 30
0.0
 40
0.7499999999999901
100
AcDbArc
 50
44.9999997993
 51
115.5287793608
  0
ARC
  5
66C
330
1F
100
AcDbEntity
  8
0
  6
Continuous
 62
     7
370
    25
100
AcDbCircle
 10
36.309999998
 20
1.5
 30
0.0
 40
1.500000000000099
100
AcDbArc
 50
270.0
 51
295.5287793608
  0
ARC
  5
66D
330
1F
100
AcDbEntity
  8
0
  6
Continuous
 62
     7
370
    25
100
AcDbCircle
 10
25.3099999998
 20
1.5
 30
0.0
 40
1.50000000000009
100
AcDbArc
 50
244.4712206392
 51
270.0
  0
ARC
  5
66E
330
1F
100
AcDbEntity
  8
0
  6
Continuous
 62
     7
370
    25
100
AcDbCircle
 10
24.3403300858
 20
-0.530330086
 30
0.0
 40
0.7499999999999941
100
AcDbArc
 50
64.4712206392
 51
205.5287791236
  0
ARC
  5
66F
330
1F
100
AcDbEntity
  8
0
  6
Continuous
 62
     7
370
    25
100
AcDbCircle
 10
22.3099999958
 20
-1.4999999915
 30
0.0
 40
1.500000000000117
100
AcDbArc
 50
0.0
 51
25.5287791236
  0
ARC
  5
670
330
1F
100
AcDbEntity
  8
0
  6
Continuous
 62
     7
370
    25
100
AcDbCircle
 10
22.3099999958
 20
-12.5000000017
 30
0.0
 40
1.500000000000005
100
AcDbArc
 50
334.4712206299
 51
0.0
  0
ARC
  5
671
330
1F
100
AcDbEntity
  8
0
  6
Continuous
 62
     7
370
    25
100
AcDbCircle
 10
24.3403300816
 20
-13.469669916
 30
0.0
 40
0.7500000000000043
100
AcDbArc
 50
154.4712206299
 51
295.5287793609
  0
ARC
  5
672
330
1F
100
AcDbEntity
  8
0
  6
Continuous
 62
     7
370
    25
100
AcDbCircle
 10
25.3099999956
 20
-15.500000002
 30
0.0
 40
1.500000000023747
100
AcDbArc
 50
90.0000000003
 51
115.5287793607
  0
ARC
  5
673
330
1F
100
AcDbEntity
  8
0
  6
Continuous
 62
     7
370
    25
100
AcDbCircle
 10
36.309999998
 20
-15.5000000019
 30
0.0
 40
1.499999999999962
100
AcDbArc
 50
64.4712206392
 51
90.0
  0
ARC
  5
674
330
1F
100
AcDbEntity
  8
0
  6
Continuous
 62
     7
370
    25
100
AcDbCircle
 10
37.279669912
 20
-13.469669916
 30
0.0
 40
0.7500000000000108
100
AcDbArc
 50
244.4712206392
 51
314.9999999916
  0
ARC
  5
675
330
1F
100
AcDbEntity
  8
0
  6
Continuous
 62
     7
370
    25
100
AcDbCircle
 10
75.379669912
 20
-32.519669916
 30
0.0
 40
0.7500000000000239
100
AcDbArc
 50
315.2707353259
 51
25.5287793702
  0
ARC
  5
676
330
1F
100
AcDbEntity
  8
0
  6
Continuous
 62
     7
370
    25
100
AcDbCircle
 10
77.4099999978
 20
-31.5500000017
 30
0.0
 40
1.500000000000253
100
AcDbArc
 50
183.3084317045
 51
205.5287793702
  0
ARC
  5
677
330
1F
100
AcDbEntity
  8
0
  6
Continuous
 62
     7
370
    25
100
AcDbCircle
 10
77.4099999978
 20
-20.5500000002
 30
0.0
 40
1.500000000000389
100
AcDbArc
 50
154.4712206298
 51
176.6915682954
  0
ARC
  5
678
330
1F
100
AcDbEntity
  8
0
  6
Continuous
 62
     7
370
    25
100
AcDbCircle
 10
75.379669912
 20
-19.580330086
 30
0.0
 40
0.7499999999999861
100
AcDbArc
 50
334.4712206298
 51
44.7292646741
  0
ARC
  5
679
330
1F
100
AcDbEntity
  8
0
  6
Continuous
 62
     7
370
    25
100
AcDbCircle
 10
75.379669912
 20
-19.580330086
 30
0.0
 40
0.7500000000000212
100
AcDbArc
 50
44.9999997993
 51
115.5287793608
  0
ARC
  5
67A
330
1F
100
AcDbEntity
  8
0
  6
Continuous
 62
     7
370
    25
100
AcDbCircle
 10
74.409999998
 20
-17.55
 30
0.0
 40
1.49999999999995
100
AcDbArc
 50
270.0
 51
295.5287793608
  0
ARC
  5
67B
330
1F
100
AcDbEntity
  8
0
  6
Continuous
 62
     7
370
    25
100
AcDbCircle
 10
63.4099999998
 20
-17.55
 30
0.0
 40
1.500000000000075
100
AcDbArc
 50
244.4712206392
 51
270.0
  0
ARC
  5
67C
330
1F
100
AcDbEntity
  8
0
  6
Continuous
 62
     7
370
    25
100
AcDbCircle
 10
62.4403300858
 20
-19.580330086
 30
0.0
 40
0.7500000000000104
100
AcDbArc
 50
64.4712206392
 51
205.5287791236
  0
ARC
  5
67D
330
1F
100
AcDbEntity
  8
0
  6
Continuous
 62
     7
370
    25
100
AcDbCircle
 10
60.4099999958
 20
-20.5499999915
 30
0.0
 40
1.499999999999739
100
AcDbArc
 50
360.0
 51
25.5287791236
  0
ARC
  5
67E
330
1F
100
AcDbEntity
  8
0
  6
Continuous
 62
     7
370
    25
100
AcDbCircle
 10
60.4099999958
 20
-31.5500000017
 30
0.0
 40
1.499999999999773
100
AcDbArc
 50
334.4712206299
 51
0.0
  0
ARC
  5
67F
330
1F
100
AcDbEntity
  8
0
  6
Continuous
 62
     7
370
    25
100
AcDbCircle
 10
62.4403300816
 20
-32.519669916
 30
0.0
 40
0.7500000000000034
100
AcDbArc
 50
154.4712206299
 51
295.5287793609
  0
ARC
  5
680
330
1F
100
AcDbEntity
  8
0
  6
Continuous
 62
     7
370
    25
100
AcDbCircle
 10
63.4099999956
 20
-34.5500000019
 30
0.0
 40
1.500000000000184
100
AcDbArc
 50
90.0
 51
115.5287793608
  0
ARC
  5
681
330
1F
100
AcDbEntity
  8
0
  6
Continuous
 62
     7
370
    25
100
AcDbCircle
 10
74.409999998
 20
-34.5500000019
 30
0.0
 40
1.500000000000264
100
AcDbArc
 50
64.4712206392
 51
90.0
  0
ARC
  5
682
330
1F
100
AcDbEntity
  8
0
  6
Continuous
 62
     7
370
    25
100
AcDbCircle
 10
75.379669912
 20
-32.519669916
 30
0.0
 40
0.7500000000000061
100
AcDbArc
 50
244.4712206392
 51
314.9999999916
  0
ARC
  5
683
330
1F
100
AcDbEntity
  8
0
  6
Continuous
 62
     7
370
    25
100
AcDbCircle
 10
75.379669912
 20
-13.469669916
 30
0.0
 40
0.7499999999999999
100
AcDbArc
 50
315.2707353259
 51
25.5287793702
  0
ARC
  5
684
330
1F
100
AcDbEntity
  8
0
  6
Continuous
 62
     7
370
    25
100
AcDbCircle
 10
77.4099999978
 20
-12.5000000017
 30
0.0
 40
1.500000000000353
100
AcDbArc
 50
183.3084317045
 51
205.5287793702
  0
ARC
  5
685
330
1F
100
AcDbEntity
  8
0
  6
Continuous
 62
     7
370
    25
100
AcDbCircle
 10
77.4099999978
 20
-1.5000000002
 30
0.0
 40
1.499999999999884
100
AcDbArc
 50
154.4712206298
 51
176.6915682954
  0
ARC
  5
686
330
1F
100
AcDbEntity
  8
0
  6
Continuous
 62
     7
370
    25
100
AcDbCircle
 10
75.379669912
 20
-0.530330086
 30
0.0
 40
0.7499999999999837
100
AcDbArc
 50
334.4712206298
 51
44.7292646741
  0
ARC
  5
687
330
1F
100
AcDbEntity
  8
0
  6
Continuous
 62
     7
370
    25
100
AcDbCircle
 10
75.379669912
 20
-0.530330086
 30
0.0
 40
0.7500000000000083
100
AcDbArc
 50
44.9999997993
 51
115.5287793608
  0
ARC
  5
688
330
1F
100
AcDbEntity
  8
0
  6
Continuous
 62
     7
370
    25
100
AcDbCircle
 10
74.409999998
 20
1.5
 30
0.0
 40
1.499999999999954
100
AcDbArc
 50
270.0
 51
295.5287793608
  0
ARC
  5
689
330
1F
100
AcDbEntity
  8
0
  6
Continuous
 62
     7
370
    25
100
AcDbCircle
 10
63.4099999998
 20
1.5
 30
0.0
 40
1.500000000000079
100
AcDbArc
 50
244.4712206392
 51
270.0
  0
ARC
  5
68A
330
1F
100
AcDbEntity
  8
0
  6
Continuous
 62
     7
370
    25
100
AcDbCircle
 10
62.4403300858
 20
-0.530330086
 30
0.0
 40
0.7500000000000046
100
AcDbArc
 50
64.4712206392
 51
205.5287791236
  0
ARC
  5
68B
330
1F
100
AcDbEntity
  8
0
  6
Continuous
 62
     7
370
    25
100
AcDbCircle
 10
60.4099999958
 20
-1.4999999915
 30
0.0
 40
1.499999999999943
100
AcDbArc
 50
0.0
 51
25.5287791236
  0
ARC
  5
68C
330
1F
100
AcDbEntity
  8
0
  6
Continuous
 62
     7
370
    25
100
AcDbCircle
 10
60.4099999958
 20
-12.5000000017
 30
0.0
 40
1.499999999999879
100
AcDbArc
 50
334.4712206299
 51
0.0
  0
ARC
  5
68D
330
1F
100
AcDbEntity
  8
0
  6
Continuous
 62
     7
370
    25
100
AcDbCircle
 10
62.4403300816
 20
-13.469669916
 30
0.0
 40
0.750000000000006
100
AcDbArc
 50
154.4712206299
 51
295.5287793609
  0
ARC
  5
68E
330
1F
100
AcDbEntity
  8
0
  6
Continuous
 62
     7
370
    25
100
AcDbCircle
 10
63.4099999956
 20
-15.5000000019
 30
0.0
 40
1.499999999999991
100
AcDbArc
 50
90.0
 51
115.5287793608
  0
ARC
  5
68F
330
1F
100
AcDbEntity
  8
0
  6
Continuous
 62
     7
370
    25
100
AcDbCircle
 10
74.409999998
 20
-15.5000000019
 30
0.0
 40
1.499999999999983
100
AcDbArc
 50
64.4712206392
 51
90.0
  0
ARC
  5
690
330
1F
100
AcDbEntity
  8
0
  6
Continuous
 62
     7
370
    25
100
AcDbCircle
 10
75.379669912
 20
-13.469669916
 30
0.0
 40
0.7500000000000387
100
AcDbArc
 50
244.4712206392
 51
314.9999999916
  0
ARC
  5
691
330
1F
100
AcDbEntity
  8
0
  6
Continuous
 62
     7
370
    25
100
AcDbCircle
 10
56.329669912
 20
-89.669669916
 30
0.0
 40
0.7499999999999937
100
AcDbArc
 50
315.2707353259
 51
25.5287793702
  0
ARC
  5
692
330
1F
100
AcDbEntity
  8
0
  6
Continuous
 62
     7
370
    25
100
AcDbCircle
 10
58.3599999978
 20
-88.7000000017
 30
0.0
 40
1.500000000000512
100
AcDbArc
 50
183.3084317046
 51
205.5287793702
  0
ARC
  5
693
330
1F
100
AcDbEntity
  8
0
  6
Continuous
 62
     7
370
    25
100
AcDbCircle
 10
58.3599999978
 20
-77.7000000002
 30
0.0
 40
1.50000000000006
100
AcDbArc
 50
154.4712206298
 51
176.6915682954
  0
ARC
  5
694
330
1F
100
AcDbEntity
  8
0
  6
Continuous
 62
     7
370
    25
100
AcDbCircle
 10
56.329669912
 20
-76.730330086
 30
0.0
 40
0.7499999999999947
100
AcDbArc
 50
334.4712206298
 51
44.7292646741
  0
ARC
  5
695
330
1F
100
AcDbEntity
  8
0
  6
Continuous
 62
     7
370
    25
100
AcDbCircle
 10
56.329669912
 20
-76.730330086
 30
0.0
 40
0.749999999999984
100
AcDbArc
 50
44.9999997993
 51
115.5287793608
  0
ARC
  5
696
330
1F
100
AcDbEntity
  8
0
  6
Continuous
 62
     7
370
    25
100
AcDbCircle
 10
55.359999998
 20
-74.7
 30
0.0
 40
1.500000000000227
100
AcDbArc
 50
270.0
 51
295.5287793608
  0
ARC
  5
697
330
1F
100
AcDbEntity
  8
0
  6
Continuous
 62
     7
370
    25
100
AcDbCircle
 10
44.3599999998
 20
-74.7
 30
0.0
 40
1.500000000000046
100
AcDbArc
 50
244.4712206392
 51
270.0
  0
ARC
  5
698
330
1F
100
AcDbEntity
  8
0
  6
Continuous
 62
     7
370
    25
100
AcDbCircle
 10
43.3903300858
 20
-76.730330086
 30
0.0
 40
0.7500000000000067
100
AcDbArc
 50
64.4712206392
 51
205.5287791236
  0
ARC
  5
699
330
1F
100
AcDbEntity
  8
0
  6
Continuous
 62
     7
370
    25
100
AcDbCircle
 10
41.3599999958
 20
-77.6999999915
 30
0.0
 40
1.499999999999993
100
AcDbArc
 50
0.0
 51
25.5287791236
  0
ARC
  5
69A
330
1F
100
AcDbEntity
  8
0
  6
Continuous
 62
     7
370
    25
100
AcDbCircle
 10
41.3599999958
 20
-88.7000000017
 30
0.0
 40
1.499999999999957
100
AcDbArc
 50
334.4712206299
 51
0.0
  0
ARC
  5
69B
330
1F
100
AcDbEntity
  8
0
  6
Continuous
 62
     7
370
    25
100
AcDbCircle
 10
43.3903300816
 20
-89.669669916
 30
0.0
 40
0.7500000000000074
100
AcDbArc
 50
154.4712206299
 51
295.5287793609
  0
ARC
  5
69C
330
1F
100
AcDbEntity
  8
0
  6
Continuous
 62
     7
370
    25
100
AcDbCircle
 10
44.3599999956
 20
-91.7000000019
 30
0.0
 40
1.500000000000341
100
AcDbArc
 50
90.0
 51
115.5287793608
  0
ARC
  5
69D
330
1F
100
AcDbEntity
  8
0
  6
Continuous
 62
     7
370
    25
100
AcDbCircle
 10
55.359999998
 20
-91.7000000019
 30
0.0
 40
1.499999999999833
100
AcDbArc
 50
64.4712206391
 51
90.0
  0
ARC
  5
69E
330
1F
100
AcDbEntity
  8
0
  6
Continuous
 62
     7
370
    25
100
AcDbCircle
 10
56.329669912
 20
-89.669669916
 30
0.0
 40
0.7499999999999946
100
AcDbArc
 50
244.4712206392
 51
314.9999999916
  0
ARC
  5
69F
330
1F
100
AcDbEntity
  8
0
  6
Continuous
 62
     7
370
    25
100
AcDbCircle
 10
56.329669912
 20
-70.619669916
 30
0.0
 40
0.7500000000000139
100
AcDbArc
 50
315.2707353259
 51
25.5287793702
  0
ARC
  5
6A0
330
1F
100
AcDbEntity
  8
0
  6
Continuous
 62
     7
370
    25
100
AcDbCircle
 10
58.3599999978
 20
-69.6500000017
 30
0.0
 40
1.500000000000512
100
AcDbArc
 50
183.3084317046
 51
205.5287793702
  0
ARC
  5
6A1
330
1F
100
AcDbEntity
  8
0
  6
Continuous
 62
     7
370
    25
100
AcDbCircle
 10
58.3599999978
 20
-58.6500000002
 30
0.0
 40
1.500000000000305
100
AcDbArc
 50
154.4712206298
 51
176.6915682954
  0
ARC
  5
6A2
330
1F
100
AcDbEntity
  8
0
  6
Continuous
 62
     7
370
    25
100
AcDbCircle
 10
56.329669912
 20
-57.680330086
 30
0.0
 40
0.7499999999999836
100
AcDbArc
 50
334.4712206298
 51
44.7292646741
  0
ARC
  5
6A3
330
1F
100
AcDbEntity
  8
0
  6
Continuous
 62
     7
370
    25
100
AcDbCircle
 10
56.329669912
 20
-57.680330086
 30
0.0
 40
0.7500000000000097
100
AcDbArc
 50
44.9999997993
 51
115.5287793608
  0
ARC
  5
6A4
330
1F
100
AcDbEntity
  8
0
  6
Continuous
 62
     7
370
    25
100
AcDbCircle
 10
55.359999998
 20
-55.65
 30
0.0
 40
1.499999999999915
100
AcDbArc
 50
270.0
 51
295.5287793608
  0
ARC
  5
6A5
330
1F
100
AcDbEntity
  8
0
  6
Continuous
 62
     7
370
    25
100
AcDbCircle
 10
44.3599999998
 20
-55.65
 30
0.0
 40
1.500000000000014
100
AcDbArc
 50
244.4712206392
 51
270.0
  0
ARC
  5
6A6
330
1F
100
AcDbEntity
  8
0
  6
Continuous
 62
     7
370
    25
100
AcDbCircle
 10
43.3903300858
 20
-57.680330086
 30
0.0
 40
0.750000000000001
100
AcDbArc
 50
64.4712206392
 51
205.5287791236
  0
ARC
  5
6A7
330
1F
100
AcDbEntity
  8
0
  6
Continuous
 62
     7
370
    25
100
AcDbCircle
 10
41.3599999958
 20
-58.6499999915
 30
0.0
 40
1.49999999999978
100
AcDbArc
 50
360.0
 51
25.5287791236
  0
ARC
  5
6A8
330
1F
100
AcDbEntity
  8
0
  6
Continuous
 62
     7
370
    25
100
AcDbCircle
 10
41.3599999958
 20
-69.6500000017
 30
0.0
 40
1.499999999999957
100
AcDbArc
 50
334.4712206299
 51
0.0
  0
ARC
  5
6A9
330
1F
100
AcDbEntity
  8
0
  6
Continuous
 62
     7
370
    25
100
AcDbCircle
 10
43.3903300816
 20
-70.619669916
 30
0.0
 40
0.7500000000000043
100
AcDbArc
 50
154.4712206299
 51
295.5287793609
  0
ARC
  5
6AA
330
1F
100
AcDbEntity
  8
0
  6
Continuous
 62
     7
370
    25
100
AcDbCircle
 10
44.3599999956
 20
-72.6500000019
 30
0.0
 40
1.499999999999789
100
AcDbArc
 50
90.0
 51
115.5287793609
  0
ARC
  5
6AB
330
1F
100
AcDbEntity
  8
0
  6
Continuous
 62
     7
370
    25
100
AcDbCircle
 10
55.359999998
 20
-72.6500000019
 30
0.0
 40
1.500000000000213
100
AcDbArc
 50
64.4712206392
 51
90.0
  0
ARC
  5
6AC
330
1F
100
AcDbEntity
  8
0
  6
Continuous
 62
     7
370
    25
100
AcDbCircle
 10
56.329669912
 20
-70.619669916
 30
0.0
 40
0.750000000000033
100
AcDbArc
 50
244.4712206392
 51
314.9999999916
  0
ARC
  5
6AD
330
1F
100
AcDbEntity
  8
0
  6
Continuous
 62
     7
370
    25
100
AcDbCircle
 10
12.499999998
 20
-91.7000000019
 30
0.0
 40
1.499999999999972
100
AcDbArc
 50
64.4712206391
 51
90.0
  0
ARC
  5
6AE
330
1F
100
AcDbEntity
  8
0
  6
Continuous
 62
     7
370
    25
100
AcDbCircle
 10
13.469669912
 20
-89.669669916
 30
0.0
 40
0.7500000000000125
100
AcDbArc
 50
244.4712206392
 51
25.5287793702
  0
ARC
  5
6AF
330
1F
100
AcDbEntity
  8
0
  6
Continuous
 62
     7
370
    25
100
AcDbCircle
 10
15.4999999978
 20
-88.7000000017
 30
0.0
 40
1.499999999999957
100
AcDbArc
 50
180.0
 51
205.5287793702
  0
ARC
  5
6B0
330
1F
100
AcDbEntity
  8
0
  6
Continuous
 62
     7
370
    25
100
AcDbCircle
 10
15.4999999978
 20
-77.7000000002
 30
0.0
 40
1.500000000000139
100
AcDbArc
 50
154.4712206298
 51
180.0
  0
ARC
  5
6B1
330
1F
100
AcDbEntity
  8
0
  6
Continuous
 62
     7
370
    25
100
AcDbCircle
 10
13.469669912
 20
-76.730330086
 30
0.0
 40
0.7500000000000074
100
AcDbArc
 50
334.4712206298
 51
115.5287793608
  0
ARC
  5
6B2
330
1F
100
AcDbEntity
  8
0
  6
Continuous
 62
     7
370
    25
100
AcDbCircle
 10
12.4999999964
 20
-74.6999999951
 30
0.0
 40
1.500000005115595
100
AcDbArc
 50
270.0000000688
 51
295.528779335
  0
ARC
  5
6B3
330
1F
100
AcDbEntity
  8
0
  6
Continuous
 62
     7
370
    25
100
AcDbCircle
 10
1.4999999998
 20
-74.7
 30
0.0
 40
1.500000000000048
100
AcDbArc
 50
244.4712206392
 51
270.0
  0
ARC
  5
6B4
330
1F
100
AcDbEntity
  8
0
  6
Continuous
 62
     7
370
    25
100
AcDbCircle
 10
0.5303300858
 20
-76.730330086
 30
0.0
 40
0.7500000000000018
100
AcDbArc
 50
64.4712206392
 51
205.5287791236
  0
ARC
  5
6B5
330
1F
100
AcDbEntity
  8
0
  6
Continuous
 62
     7
370
    25
100
AcDbCircle
 10
-1.5000000042
 20
-77.6999999915
 30
0.0
 40
1.500000000004581
100
AcDbArc
 50
0.0000000001
 51
25.5287791236
  0
ARC
  5
6B6
330
1F
100
AcDbEntity
  8
0
  6
Continuous
 62
     7
370
    25
100
AcDbCircle
 10
-1.5000000042
 20
-88.7000000017
 30
0.0
 40
1.499999999999741
100
AcDbArc
 50
334.4712206299
 51
0.0
  0
ARC
  5
6B7
330
1F
100
AcDbEntity
  8
0
  6
Continuous
 62
     7
370
    25
100
AcDbCircle
 10
0.5303300816
 20
-89.669669916
 30
0.0
 40
0.7500000000000111
100
AcDbArc
 50
154.4712206299
 51
295.5287793609
  0
ARC
  5
6B8
330
1F
100
AcDbEntity
  8
0
  6
Continuous
 62
     7
370
    25
100
AcDbCircle
 10
1.4999999956
 20
-91.7000000019
 30
0.0
 40
1.500000000000057
100
AcDbArc
 50
90.0
 51
115.5287793608
  0
ARC
  5
6B9
330
1F
100
AcDbEntity
  8
0
  6
Continuous
 62
     7
370
    25
100
AcDbCircle
 10
56.329669912
 20
-13.469669916
 30
0.0
 40
0.7499999999999898
100
AcDbArc
 50
315.2707353259
 51
25.5287793702
  0
ARC
  5
6BA
330
1F
100
AcDbEntity
  8
0
  6
Continuous
 62
     7
370
    25
100
AcDbCircle
 10
58.3599999978
 20
-12.5000000017
 30
0.0
 40
1.500000000000064
100
AcDbArc
 50
183.3084317046
 51
205.5287793702
  0
ARC
  5
6BB
330
1F
100
AcDbEntity
  8
0
  6
Continuous
 62
     7
370
    25
100
AcDbCircle
 10
58.3599999978
 20
-1.5000000002
 30
0.0
 40
1.500000000000339
100
AcDbArc
 50
154.4712206298
 51
176.6915682954
  0
ARC
  5
6BC
330
1F
100
AcDbEntity
  8
0
  6
Continuous
 62
     7
370
    25
100
AcDbCircle
 10
56.329669912
 20
-0.530330086
 30
0.0
 40
0.7499999999999798
100
AcDbArc
 50
334.4712206298
 51
44.7292646741
  0
ARC
  5
6BD
330
1F
100
AcDbEntity
  8
0
  6
Continuous
 62
     7
370
    25
100
AcDbCircle
 10
56.329669912
 20
-0.530330086
 30
0.0
 40
0.7499999999999931
100
AcDbArc
 50
44.9999997993
 51
115.5287793608
  0
ARC
  5
6BE
330
1F
100
AcDbEntity
  8
0
  6
Continuous
 62
     7
370
    25
100
AcDbCircle
 10
55.359999998
 20
1.5
 30
0.0
 40
1.500000000000099
100
AcDbArc
 50
270.0
 51
295.5287793608
  0
ARC
  5
6BF
330
1F
100
AcDbEntity
  8
0
  6
Continuous
 62
     7
370
    25
100
AcDbCircle
 10
44.3599999998
 20
1.5
 30
0.0
 40
1.500000000000101
100
AcDbArc
 50
244.4712206392
 51
270.0
  0
ARC
  5
6C0
330
1F
100
AcDbEntity
  8
0
  6
Continuous
 62
     7
370
    25
100
AcDbCircle
 10
43.3903300858
 20
-0.530330086
 30
0.0
 40
0.75
100
AcDbArc
 50
64.4712206392
 51
205.5287791236
  0
ARC
  5
6C1
330
1F
100
AcDbEntity
  8
0
  6
Continuous
 62
     7
370
    25
100
AcDbCircle
 10
41.3599999958
 20
-1.4999999915
 30
0.0
 40
1.499999999999936
100
AcDbArc
 50
0.0
 51
25.5287791236
  0
ARC
  5
6C2
330
1F
100
AcDbEntity
  8
0
  6
Continuous
 62
     7
370
    25
100
AcDbCircle
 10
41.3599999958
 20
-12.5000000017
 30
0.0
 40
1.499999999999979
100
AcDbArc
 50
334.4712206299
 51
0.0
  0
ARC
  5
6C3
330
1F
100
AcDbEntity
  8
0
  6
Continuous
 62
     7
370
    25
100
AcDbCircle
 10
43.3903300816
 20
-13.469669916
 30
0.0
 40
0.7500000000000026
100
AcDbArc
 50
154.4712206299
 51
295.5287793609
  0
ARC
  5
6C4
330
1F
100
AcDbEntity
  8
0
  6
Continuous
 62
     7
370
    25
100
AcDbCircle
 10
44.3599999956
 20
-15.5000000019
 30
0.0
 40
1.500000000000025
100
AcDbArc
 50
90.0
 51
115.5287793608
  0
ARC
  5
6C5
330
1F
100
AcDbEntity
  8
0
  6
Continuous
 62
     7
370
    25
100
AcDbCircle
 10
55.359999998
 20
-15.5000000019
 30
0.0
 40
1.49999999999995
100
AcDbArc
 50
64.4712206392
 51
90.0
  0
ARC
  5
6C6
330
1F
100
AcDbEntity
  8
0
  6
Continuous
 62
     7
370
    25
100
AcDbCircle
 10
56.329669912
 20
-13.469669916
 30
0.0
 40
0.7500000000000105
100
AcDbArc
 50
244.4712206392
 51
314.9999999916
  0
ARC
  5
6C7
330
1F
100
AcDbEntity
  8
0
  6
Continuous
 62
     7
370
    25
100
AcDbCircle
 10
56.329669912
 20
-32.519669916
 30
0.0
 40
0.7499999999999937
100
AcDbArc
 50
315.2707353259
 51
25.5287793702
  0
ARC
  5
6C8
330
1F
100
AcDbEntity
  8
0
  6
Continuous
 62
     7
370
    25
100
AcDbCircle
 10
58.3599999978
 20
-31.5500000017
 30
0.0
 40
1.500000000000459
100
AcDbArc
 50
183.3084317046
 51
205.5287793702
  0
ARC
  5
6C9
330
1F
100
AcDbEntity
  8
0
  6
Continuous
 62
     7
370
    25
100
AcDbCircle
 10
58.3599999978
 20
-20.5500000002
 30
0.0
 40
1.50000000000008
100
AcDbArc
 50
154.4712206298
 51
176.6915682954
  0
ARC
  5
6CA
330
1F
100
AcDbEntity
  8
0
  6
Continuous
 62
     7
370
    25
100
AcDbCircle
 10
56.329669912
 20
-19.580330086
 30
0.0
 40
0.7499999999999917
100
AcDbArc
 50
334.4712206298
 51
44.7292646741
  0
ARC
  5
6CB
330
1F
100
AcDbEntity
  8
0
  6
Continuous
 62
     7
370
    25
100
AcDbCircle
 10
56.329669912
 20
-19.580330086
 30
0.0
 40
0.7500000000000001
100
AcDbArc
 50
44.9999997993
 51
115.5287793608
  0
ARC
  5
6CC
330
1F
100
AcDbEntity
  8
0
  6
Continuous
 62
     7
370
    25
100
AcDbCircle
 10
55.359999998
 20
-17.55
 30
0.0
 40
1.500000000000092
100
AcDbArc
 50
270.0
 51
295.5287793608
  0
ARC
  5
6CD
330
1F
100
AcDbEntity
  8
0
  6
Continuous
 62
     7
370
    25
100
AcDbCircle
 10
44.3599999998
 20
-17.55
 30
0.0
 40
1.500000000000147
100
AcDbArc
 50
244.4712206392
 51
270.0
  0
ARC
  5
6CE
330
1F
100
AcDbEntity
  8
0
  6
Continuous
 62
     7
370
    25
100
AcDbCircle
 10
43.3903300858
 20
-19.580330086
 30
0.0
 40
0.7500000000000041
100
AcDbArc
 50
64.4712206392
 51
205.5287791236
  0
ARC
  5
6CF
330
1F
100
AcDbEntity
  8
0
  6
Continuous
 62
     7
370
    25
100
AcDbCircle
 10
41.3599999958
 20
-20.5499999915
 30
0.0
 40
1.499999999999739
100
AcDbArc
 50
360.0
 51
25.5287791236
  0
ARC
  5
6D0
330
1F
100
AcDbEntity
  8
0
  6
Continuous
 62
     7
370
    25
100
AcDbCircle
 10
41.3599999958
 20
-31.5500000017
 30
0.0
 40
1.500000000000078
100
AcDbArc
 50
334.4712206299
 51
0.0
  0
ARC
  5
6D1
330
1F
100
AcDbEntity
  8
0
  6
Continuous
 62
     7
370
    25
100
AcDbCircle
 10
43.3903300816
 20
-32.519669916
 30
0.0
 40
0.750000000000001
100
AcDbArc
 50
154.4712206299
 51
295.5287793609
  0
ARC
  5
6D2
330
1F
100
AcDbEntity
  8
0
  6
Continuous
 62
     7
370
    25
100
AcDbCircle
 10
44.3599999956
 20
-34.5500000019
 30
0.0
 40
1.500000000000207
100
AcDbArc
 50
90.0
 51
115.5287793608
  0
ARC
  5
6D3
330
1F
100
AcDbEntity
  8
0
  6
Continuous
 62
     7
370
    25
100
AcDbCircle
 10
55.359999998
 20
-34.5500000019
 30
0.0
 40
1.500000000000178
100
AcDbArc
 50
64.4712206392
 51
90.0
  0
ARC
  5
6D4
330
1F
100
AcDbEntity
  8
0
  6
Continuous
 62
     7
370
    25
100
AcDbCircle
 10
56.329669912
 20
-32.519669916
 30
0.0
 40
0.7499999999999946
100
AcDbArc
 50
244.4712206392
 51
314.9999999916
  0
ARC
  5
6D5
330
1F
100
AcDbEntity
  8
0
  6
Continuous
 62
     7
370
    25
100
AcDbCircle
 10
56.329669912
 20
-51.569669916
 30
0.0
 40
0.7499999999999987
100
AcDbArc
 50
315.2707353259
 51
25.5287793702
  0
ARC
  5
6D6
330
1F
100
AcDbEntity
  8
0
  6
Continuous
 62
     7
370
    25
100
AcDbCircle
 10
58.3599999978
 20
-50.6000000017
 30
0.0
 40
1.500000000000474
100
AcDbArc
 50
183.3084317046
 51
205.5287793702
  0
ARC
  5
6D7
330
1F
100
AcDbEntity
  8
0
  6
Continuous
 62
     7
370
    25
100
AcDbCircle
 10
58.3599999978
 20
-39.6000000002
 30
0.0
 40
1.500000000000296
100
AcDbArc
 50
154.4712206298
 51
176.6915682954
  0
ARC
  5
6D8
330
1F
100
AcDbEntity
  8
0
  6
Continuous
 62
     7
370
    25
100
AcDbCircle
 10
56.329669912
 20
-38.630330086
 30
0.0
 40
0.7499999999999788
100
AcDbArc
 50
334.4712206298
 51
44.7292646741
  0
ARC
  5
6D9
330
1F
100
AcDbEntity
  8
0
  6
Continuous
 62
     7
370
    25
100
AcDbCircle
 10
56.329669912
 20
-38.630330086
 30
0.0
 40
0.7500000000000097
100
AcDbArc
 50
44.9999997993
 51
115.5287793608
  0
ARC
  5
6DA
330
1F
100
AcDbEntity
  8
0
  6
Continuous
 62
     7
370
    25
100
AcDbCircle
 10
55.359999998
 20
-36.6
 30
0.0
 40
1.499999999999915
100
AcDbArc
 50
270.0
 51
295.5287793608
  0
ARC
  5
6DB
330
1F
100
AcDbEntity
  8
0
  6
Continuous
 62
     7
370
    25
100
AcDbCircle
 10
44.3599999998
 20
-36.6
 30
0.0
 40
1.500000000000007
100
AcDbArc
 50
244.4712206392
 51
270.0
  0
ARC
  5
6DC
330
1F
100
AcDbEntity
  8
0
  6
Continuous
 62
     7
370
    25
100
AcDbCircle
 10
43.3903300858
 20
-38.630330086
 30
0.0
 40
0.7499999999999977
100
AcDbArc
 50
64.4712206392
 51
205.5287791236
  0
ARC
  5
6DD
330
1F
100
AcDbEntity
  8
0
  6
Continuous
 62
     7
370
    25
100
AcDbCircle
 10
41.3599999958
 20
-39.5999999915
 30
0.0
 40
1.499999999999782
100
AcDbArc
 50
360.0
 51
25.5287791236
  0
ARC
  5
6DE
330
1F
100
AcDbEntity
  8
0
  6
Continuous
 62
     7
370
    25
100
AcDbCircle
 10
41.3599999958
 20
-50.6000000017
 30
0.0
 40
1.499999999999915
100
AcDbArc
 50
334.4712206299
 51
0.0
  0
ARC
  5
6DF
330
1F
100
AcDbEntity
  8
0
  6
Continuous
 62
     7
370
    25
100
AcDbCircle
 10
43.3903300816
 20
-51.569669916
 30
0.0
 40
0.7500000000000001
100
AcDbArc
 50
154.4712206299
 51
295.5287793609
  0
ARC
  5
6E0
330
1F
100
AcDbEntity
  8
0
  6
Continuous
 62
     7
370
    25
100
AcDbCircle
 10
44.3599999956
 20
-53.6000000019
 30
0.0
 40
1.500000000000079
100
AcDbArc
 50
90.0
 51
115.5287793608
  0
ARC
  5
6E1
330
1F
100
AcDbEntity
  8
0
  6
Continuous
 62
     7
370
    25
100
AcDbCircle
 10
55.359999998
 20
-53.6000000019
 30
0.0
 40
1.499999999999964
100
AcDbArc
 50
64.4712206392
 51
90.0
  0
ARC
  5
6E2
330
1F
100
AcDbEntity
  8
0
  6
Continuous
 62
     7
370
    25
100
AcDbCircle
 10
56.329669912
 20
-51.569669916
 30
0.0
 40
0.750000000000001
100
AcDbArc
 50
244.4712206392
 51
314.9999999916
  0
ARC
  5
6E3
330
1F
100
AcDbEntity
  8
0
  6
Continuous
 62
     7
370
    25
100
AcDbCircle
 10
137.1089998794
 20
-116.96050225
 30
0.0
 40
1.500000000000079
100
AcDbArc
 50
124.4712208592
 51
150.0
  0
ARC
  5
6E4
330
1F
100
AcDbEntity
  8
0
  6
Continuous
 62
     7
370
    25
100
AcDbCircle
 10
135.8355173967
 20
-115.1055784332
 30
0.0
 40
0.7500000000000376
100
AcDbArc
 50
304.4712208592
 51
85.5287795902
  0
ARC
  5
6E5
330
1F
100
AcDbEntity
  8
0
  6
Continuous
 62
     7
370
    25
100
AcDbCircle
 10
136.0109236246
 20
-112.8624261714
 30
0.0
 40
1.499999869899074
100
AcDbArc
 50
239.9999984518
 51
265.5287802479
  0
ARC
  5
6E6
330
1F
100
AcDbEntity
  8
0
  6
Continuous
 62
     7
370
    25
100
AcDbCircle
 10
126.48464423
 20
-107.3624260543
 30
0.0
 40
1.500000000000135
100
AcDbArc
 50
214.4712204098
 51
240.0
  0
ARC
  5
6E7
330
1F
100
AcDbEntity
  8
0
  6
Continuous
 62
     7
370
    25
100
AcDbCircle
 10
124.6297204031
 20
-108.6359085225
 30
0.0
 40
0.7499999999999998
100
AcDbArc
 50
34.4712204098
 51
175.5287791653
  0
ARC
  5
6E8
330
1F
100
AcDbEntity
  8
0
  6
Continuous
 62
     7
370
    25
100
AcDbCircle
 10
122.3865680142
 20
-108.4605022506
 30
0.0
 40
1.500000000000387
100
AcDbArc
 50
330.0
 51
355.5287791653
  0
ARC
  5
6E9
330
1F
100
AcDbEntity
  8
0
  6
Continuous
 62
     7
370
    25
100
AcDbCircle
 10
116.8865680065
 20
-117.9867817056
 30
0.0
 40
1.499999999999998
100
AcDbArc
 50
304.4712206547
 51
330.0
  0
ARC
  5
6EA
330
1F
100
AcDbEntity
  8
0
  6
Continuous
 62
     7
370
    25
100
AcDbCircle
 10
118.1600504826
 20
-119.841705527
 30
0.0
 40
0.7500000000000117
100
AcDbArc
 50
124.4712206547
 51
265.5287796077
  0
ARC
  5
6EB
330
1F
100
AcDbEntity
  8
0
  6
Continuous
 62
     7
370
    25
100
AcDbCircle
 10
117.9846442022
 20
-122.0848580384
 30
0.0
 40
1.500000122821616
100
AcDbArc
 50
60.0000014615
 51
85.5287789868
  0
ARC
  5
6EC
330
1F
100
AcDbEntity
  8
0
  6
Continuous
 62
     7
370
    25
100
AcDbCircle
 10
127.5109236445
 20
-127.5848579027
 30
0.0
 40
1.499999999999431
100
AcDbArc
 50
34.4712201633
 51
60.0
  0
ARC
  5
6ED
330
1F
100
AcDbEntity
  8
0
  6
Continuous
 62
     7
370
    25
100
AcDbCircle
 10
129.3658474768
 20
-126.3113754426
 30
0.0
 40
0.7500000000000543
100
AcDbArc
 50
214.4712201633
 51
355.5287791408
  0
ARC
  5
6EE
330
1F
100
AcDbEntity
  8
0
  6
Continuous
 62
     7
370
    25
100
AcDbCircle
 10
131.6090000349
 20
-126.4867817514
 30
0.0
 40
1.500000171543473
100
AcDbArc
 50
150.0000020413
 51
175.5287782736
  0
ARC
  5
6EF
330
1F
100
AcDbEntity
  8
0
  6
Continuous
 62
     7
370
    25
100
AcDbCircle
 10
146.6339998794
 20
-100.4627183079
 30
0.0
 40
1.500000000000423
100
AcDbArc
 50
124.4712208592
 51
150.0
  0
ARC
  5
6F0
330
1F
100
AcDbEntity
  8
0
  6
Continuous
 62
     7
370
    25
100
AcDbCircle
 10
145.3605173967
 20
-98.6077944911
 30
0.0
 40
0.7500000000000109
100
AcDbArc
 50
304.4712208592
 51
85.5287795902
  0
ARC
  5
6F1
330
1F
100
AcDbEntity
  8
0
  6
Continuous
 62
     7
370
    25
100
AcDbCircle
 10
145.5359236246
 20
-96.3646422293
 30
0.0
 40
1.499999869876075
100
AcDbArc
 50
239.9999984516
 51
265.5287802481
  0
ARC
  5
6F2
330
1F
100
AcDbEntity
  8
0
  6
Continuous
 62
     7
370
    25
100
AcDbCircle
 10
136.00964423
 20
-90.8646421122
 30
0.0
 40
1.499999999999833
100
AcDbArc
 50
214.4712204098
 51
240.0
  0
ARC
  5
6F3
330
1F
100
AcDbEntity
  8
0
  6
Continuous
 62
     7
370
    25
100
AcDbCircle
 10
134.1547204031
 20
-92.1381245804
 30
0.0
 40
0.7500000000000587
100
AcDbArc
 50
34.4712204098
 51
175.5287791653
  0
ARC
  5
6F4
330
1F
100
AcDbEntity
  8
0
  6
Continuous
 62
     7
370
    25
100
AcDbCircle
 10
131.9115681734
 20
-91.9627183424
 30
0.0
 40
1.499999838664181
100
AcDbArc
 50
329.9999980801
 51
355.528779981
  0
ARC
  5
6F5
330
1F
100
AcDbEntity
  8
0
  6
Continuous
 62
     7
370
    25
100
AcDbCircle
 10
126.4115680065
 20
-101.4889977635
 30
0.0
 40
1.500000000000318
100
AcDbArc
 50
304.4712206547
 51
330.0
  0
ARC
  5
6F6
330
1F
100
AcDbEntity
  8
0
  6
Continuous
 62
     7
370
    25
100
AcDbCircle
 10
127.6850504826
 20
-103.3439215849
 30
0.0
 40
0.7500000000000205
100
AcDbArc
 50
124.4712206547
 51
265.5287796077
  0
ARC
  5
6F7
330
1F
100
AcDbEntity
  8
0
  6
Continuous
 62
     7
370
    25
100
AcDbCircle
 10
127.5096442022
 20
-105.5870740963
 30
0.0
 40
1.500000122849056
100
AcDbArc
 50
60.0000014619
 51
85.5287789866
  0
ARC
  5
6F8
330
1F
100
AcDbEntity
  8
0
  6
Continuous
 62
     7
370
    25
100
AcDbCircle
 10
137.0359236445
 20
-111.0870739606
 30
0.0
 40
1.499999999998757
100
AcDbArc
 50
34.4712201633
 51
60.0
  0
ARC
  5
6F9
330
1F
100
AcDbEntity
  8
0
  6
Continuous
 62
     7
370
    25
100
AcDbCircle
 10
138.8908474768
 20
-109.8135915005
 30
0.0
 40
0.7500000000000209
100
AcDbArc
 50
214.4712201633
 51
355.5287791408
  0
ARC
  5
6FA
330
1F
100
AcDbEntity
  8
0
  6
Continuous
 62
     7
370
    25
100
AcDbCircle
 10
141.1339998657
 20
-109.9889977733
 30
0.0
 40
1.499999999998998
100
AcDbArc
 50
150.0
 51
175.5287791408
  0
ARC
  5
6FB
330
1F
100
AcDbEntity
  8
0
  6
Continuous
 62
     7
370
    25
100
AcDbCircle
 10
113.3416651206
 20
-115.5267335989
 30
0.0
 40
0.7500000000000525
100
AcDbArc
 50
240.0
 51
330.0
  0
ARC
  5
6FC
330
1F
100
AcDbEntity
  8
0
  6
Continuous
 62
     7
370
    25
100
AcDbCircle
 10
116.2416651206
 20
-110.5037862569
 30
0.0
 40
0.7500000000000019
100
AcDbArc
 50
330.0
 51
60.0
  0
ARC
  5
6FD
330
1F
100
AcDbEntity
  8
0
  6
Continuous
 62
     7
370
    25
100
AcDbCircle
 10
104.68022598
 20
-103.8287862569
 30
0.0
 40
0.7500000000000123
100
AcDbArc
 50
60.0
 51
150.0
  0
ARC
  5
6FE
330
1F
100
AcDbEntity
  8
0
  6
Continuous
 62
     7
370
    25
100
AcDbCircle
 10
101.78022598
 20
-108.8517335989
 30
0.0
 40
0.7500000000000318
100
AcDbArc
 50
150.0
 51
240.0
  0
ARC
  5
6FF
330
1F
100
AcDbEntity
  8
0
  6
Continuous
 62
     7
370
    25
100
AcDbCircle
 10
125.2916651206
 20
-94.8287264484
 30
0.0
 40
0.7500000000000602
100
AcDbArc
 50
240.0
 51
330.0
  0
ARC
  5
700
330
1F
100
AcDbEntity
  8
0
  6
Continuous
 62
     7
370
    25
100
AcDbCircle
 10
128.1916651206
 20
-89.8057791065
 30
0.0
 40
0.7500000000000531
100
AcDbArc
 50
330.0
 51
60.0
  0
ARC
  5
701
330
1F
100
AcDbEntity
  8
0
  6
Continuous
 62
     7
370
    25
100
AcDbCircle
 10
116.63022598
 20
-83.1307791065
 30
0.0
 40
0.7499999999999631
100
AcDbArc
 50
60.0
 51
150.0
  0
ARC
  5
702
330
1F
100
AcDbEntity
  8
0
  6
Continuous
 62
     7
370
    25
100
AcDbCircle
 10
113.73022598
 20
-88.1537264484
 30
0.0
 40
0.7500000000000985
100
AcDbArc
 50
150.0
 51
240.0
  0
ARC
  5
703
330
1F
100
AcDbEntity
  8
0
  6
Continuous
 62
     7
370
    25
100
AcDbCircle
 10
111.3194875056
 20
-91.5292479699
 30
0.0
 40
0.500000000000022
100
AcDbArc
 50
330.0
 51
36.4218215218
  0
ARC
  5
704
330
1F
100
AcDbEntity
  8
0
  6
Continuous
 62
     7
370
    25
100
AcDbCircle
 10
106.2151314293
 20
-100.3702520339
 30
0.0
 40
0.4999999999999868
100
AcDbArc
 50
263.5781784782
 51
330.0
  0
ARC
  5
705
330
1F
100
AcDbEntity
  8
0
  6
Continuous
 62
     7
370
    25
100
AcDbCircle
 10
106.0753221693
 20
-101.6124087756
 30
0.0
 40
0.7500000000000318
100
AcDbArc
 50
83.5781784782
 51
240.0
  0
ARC
  5
706
330
1F
100
AcDbEntity
  8
0
  6
Continuous
 62
     7
370
    25
100
AcDbCircle
 10
118.1996778223
 20
-108.6124087756
 30
0.0
 40
0.7500000000000175
100
AcDbArc
 50
240.0
 51
36.4218215218
  0
ARC
  5
707
330
1F
100
AcDbEntity
  8
0
  6
Continuous
 62
     7
370
    25
100
AcDbCircle
 10
119.2055124861
 20
-107.8702520339
 30
0.0
 40
0.5000000000001676
100
AcDbArc
 50
150.0
 51
216.4218215218
  0
ARC
  5
708
330
1F
100
AcDbEntity
  8
0
  6
Continuous
 62
     7
370
    25
100
AcDbCircle
 10
124.3098685623
 20
-99.0292479699
 30
0.0
 40
0.5000000000000683
100
AcDbArc
 50
83.5781784782
 51
150.0
  0
ARC
  5
709
330
1F
100
AcDbEntity
  8
0
  6
Continuous
 62
     7
370
    25
100
AcDbCircle
 10
124.4496778223
 20
-97.7870912283
 30
0.0
 40
0.7500000000000006
100
AcDbArc
 50
263.5781784782
 51
60.0
  0
ARC
  5
70A
330
1F
100
AcDbEntity
  8
0
  6
Continuous
 62
     7
370
    25
100
AcDbCircle
 10
112.3253221693
 20
-90.7870912283
 30
0.0
 40
0.7500000000000407
100
AcDbArc
 50
60.0
 51
216.4218215218
  0
ARC
  5
70B
330
1F
100
AcDbEntity
  8
0
  6
Continuous
 62
     7
370
    25
100
AcDbCircle
 10
102.6159846542
 20
-78.56531794
 30
0.0
 40
0.7500000000000209
100
AcDbArc
 50
240.0
 51
285.5704855107
  0
ARC
  5
70C
330
1F
100
AcDbEntity
  8
0
  6
Continuous
 62
     7
370
    25
100
AcDbCircle
 10
105.4675396531
 20
-88.7987896592
 30
0.0
 40
9.873337956570643
100
AcDbArc
 50
74.4295144893
 51
105.5704855107
  0
ARC
  5
70D
330
1F
100
AcDbEntity
  8
0
  6
Continuous
 62
     7
370
    25
100
AcDbCircle
 10
108.319094652
 20
-78.56531794
 30
0.0
 40
0.7500000000000175
100
AcDbArc
 50
254.4295144893
 51
300.0
  0
ARC
  5
70E
330
1F
100
AcDbEntity
  8
0
  6
Continuous
 62
     7
370
    25
100
AcDbCircle
 10
109.4853834724
 20
-77.8919607756
 30
0.0
 40
0.7499999999999755
100
AcDbArc
 50
300.0
 51
69.7772754836
  0
ARC
  5
70F
330
1F
100
AcDbEntity
  8
0
  6
Continuous
 62
     7
370
    25
100
AcDbCircle
 10
105.4675396531
 20
-88.7987896592
 30
0.0
 40
12.37333795657019
100
AcDbArc
 50
69.7772754836
 51
110.2227245164
  0
ARC
  5
710
330
1F
100
AcDbEntity
  8
0
  6
Continuous
 62
     7
370
    25
100
AcDbCircle
 10
101.4496958338
 20
-77.8919607756
 30
0.0
 40
0.7499999999999664
100
AcDbArc
 50
110.2227245164
 51
240.0
  0
ARC
  5
711
330
1F
100
AcDbEntity
  8
0
  6
Continuous
 62
     7
370
    25
100
AcDbCircle
 10
99.2808706748
 20
-78.0831646592
 30
0.0
 40
9.873337956570497
100
AcDbArc
 50
314.4295144893
 51
345.5704855107
  0
ARC
  5
712
330
1F
100
AcDbEntity
  8
0
  6
Continuous
 62
     7
370
    25
100
AcDbCircle
 10
106.7175396531
 20
-85.6694195881
 30
0.0
 40
0.7499999999999716
100
AcDbArc
 50
134.4295144893
 51
180.0
  0
ARC
  5
713
330
1F
100
AcDbEntity
  8
0
  6
Continuous
 62
     7
370
    25
100
AcDbCircle
 10
106.7175396531
 20
-87.0161339169
 30
0.0
 40
0.7500000000000193
100
AcDbArc
 50
180.0
 51
309.7772754836
  0
ARC
  5
714
330
1F
100
AcDbEntity
  8
0
  6
Continuous
 62
     7
370
    25
100
AcDbCircle
 10
99.2808706748
 20
-78.0831646592
 30
0.0
 40
12.37333795657015
100
AcDbArc
 50
309.7772754836
 51
350.2227245164
  0
ARC
  5
715
330
1F
100
AcDbEntity
  8
0
  6
Continuous
 62
     7
370
    25
100
AcDbCircle
 10
110.7353834724
 20
-80.057024285
 30
0.0
 40
0.7500000000000001
100
AcDbArc
 50
350.2227245164
 51
120.0
  0
ARC
  5
716
330
1F
100
AcDbEntity
  8
0
  6
Continuous
 62
     7
370
    25
100
AcDbCircle
 10
109.569094652
 20
-80.7303814494
 30
0.0
 40
0.7499999999999752
100
AcDbArc
 50
120.0
 51
165.5704855107
  0
ARC
  5
717
330
1F
100
AcDbEntity
  8
0
  6
Continuous
 62
     7
370
    25
100
AcDbCircle
 10
104.2175396531
 20
-85.6694195881
 30
0.0
 40
0.7499999999999947
100
AcDbArc
 50
0.0
 51
45.5704855107
  0
ARC
  5
718
330
1F
100
AcDbEntity
  8
0
  6
Continuous
 62
     7
370
    25
100
AcDbCircle
 10
111.6542086314
 20
-78.0831646592
 30
0.0
 40
9.873337956570559
100
AcDbArc
 50
194.4295144893
 51
225.5704855107
  0
ARC
  5
719
330
1F
100
AcDbEntity
  8
0
  6
Continuous
 62
     7
370
    25
100
AcDbCircle
 10
101.3659846542
 20
-80.7303814494
 30
0.0
 40
0.7500000000001449
100
AcDbArc
 50
14.4295144893
 51
60.0
  0
ARC
  5
71A
330
1F
100
AcDbEntity
  8
0
  6
Continuous
 62
     7
370
    25
100
AcDbCircle
 10
100.1996958338
 20
-80.057024285
 30
0.0
 40
0.7500000000000026
100
AcDbArc
 50
60.0
 51
189.7772754836
  0
ARC
  5
71B
330
1F
100
AcDbEntity
  8
0
  6
Continuous
 62
     7
370
    25
100
AcDbCircle
 10
111.6542086314
 20
-78.0831646592
 30
0.0
 40
12.37333795657017
100
AcDbArc
 50
189.7772754836
 51
230.2227245164
  0
ARC
  5
71C
330
1F
100
AcDbEntity
  8
0
  6
Continuous
 62
     7
370
    25
100
AcDbCircle
 10
104.2175396531
 20
-87.0161339169
 30
0.0
 40
0.7499999999999716
100
AcDbArc
 50
230.2227245164
 51
0.0
  0
ENDSEC
  0
SECTION
  2
OBJECTS
  0
DICTIONARY
  5
C
330
0
100
AcDbDictionary
281
     1
  3
ACAD_GROUP
350
D
  3
ACAD_LAYOUT
350
1A
  3
ACAD_MLINESTYLE
350
17
  3
ACAD_PLOTSETTINGS
350
19
  3
ACAD_PLOTSTYLENAME
350
E
  3
ACAD_SCALELIST
350
47
  0
DICTIONARY
  5
D
102
{ACAD_REACTORS
330
C
102
}
330
C
100
AcDbDictionary
281
     1
  0
DICTIONARY
  5
1A
102
{ACAD_REACTORS
330
C
102
}
330
C
100
AcDbDictionary
281
     1
  3
Layout1
350
1E
  3
Layout2
350
26
  3
Model
350
22
  0
DICTIONARY
  5
17
102
{ACAD_REACTORS
330
C
102
}
330
C
100
AcDbDictionary
281
     1
  3
Standard
350
18
  0
DICTIONARY
  5
19
102
{ACAD_REACTORS
330
C
102
}
330
C
100
AcDbDictionary
281
     1
  0
ACDBDICTIONARYWDFLT
  5
E
102
{ACAD_REACTORS
330
C
102
}
330
C
100
AcDbDictionary
281
     1
  3
Normal
350
F
100
AcDbDictionaryWithDefault
340
F
  0
DICTIONARY
  5
47
102
{ACAD_REACTORS
330
C
102
}
330
C
100
AcDbDictionary
281
     1
  3
A0
350
48
  3
A1
350
49
  3
A2
350
4A
  3
A3
350
4B
  3
A4
350
4C
  3
A5
350
4D
  3
A6
350
4E
  3
A7
350
4F
  3
A8
350
50
  3
A9
350
51
  3
B0
350
52
  3
B1
350
53
  3
B2
350
54
  3
B3
350
55
  3
B4
350
56
  3
B5
350
57
  3
B6
350
58
  3
B7
350
59
  3
B8
350
5A
  3
B9
350
5B
  3
C0
350
5C
  3
C1
350
5D
  3
C2
350
5E
  3
C3
350
5F
  3
C4
350
60
  3
C5
350
61
  3
C6
350
62
  3
C7
350
63
  3
C8
350
64
  3
C9
350
65
  3
D0
350
66
  3
D1
350
67
  3
D2
350
68
  0
LAYOUT
  5
1E
102
{ACAD_REACTORS
330
1A
102
}
330
1A
100
AcDbPlotSettings
  1

  2
none_device
  4

  6

 40
0.0
 41
0.0
 42
0.0
 43
0.0
 44
0.0
 45
0.0
 46
0.0
 47
0.0
 48
0.0
 49
0.0
140
0.0
141
0.0
142
1.0
143
1.0
 70
   688
 72
     1
 73
     0
 74
     5
  7

 75
    16
147
1.0
148
0.0
149
0.0
100
AcDbLayout
  1
Layout1
 70
     1
 71
     1
 10
0.0
 20
0.0
 11
420.0
 21
297.0
 12
0.0
 22
0.0
 32
0.0
 14
1.0000000000E+20
 24
1.0000000000E+20
 34
1.0000000000E+20
 15
-1.0000000000E+20
 25
-1.0000000000E+20
 35
-1.0000000000E+20
146
0.0
 13
0.0
 23
0.0
 33
0.0
 16
1.0
 26
0.0
 36
0.0
 17
0.0
 27
1.0
 37
0.0
 76
     0
330
1B
  0
LAYOUT
  5
26
102
{ACAD_REACTORS
330
1A
102
}
330
1A
100
AcDbPlotSettings
  1

  2
none_device
  4

  6

 40
0.0
 41
0.0
 42
0.0
 43
0.0
 44
0.0
 45
0.0
 46
0.0
 47
0.0
 48
0.0
 49
0.0
140
0.0
141
0.0
142
1.0
143
1.0
 70
   688
 72
     1
 73
     0
 74
     5
  7

 75
    16
147
1.0
148
0.0
149
0.0
100
AcDbLayout
  1
Layout2
 70
     1
 71
     2
 10
0.0
 20
0.0
 11
0.0
 21
0.0
 12
0.0
 22
0.0
 32
0.0
 14
0.0
 24
0.0
 34
0.0
 15
0.0
 25
0.0
 35
0.0
146
0.0
 13
0.0
 23
0.0
 33
0.0
 16
1.0
 26
0.0
 36
0.0
 17
0.0
 27
1.0
 37
0.0
 76
     0
330
23
  0
LAYOUT
  5
22
102
{ACAD_REACTORS
330
1A
102
}
330
1A
100
AcDbPlotSettings
  1

  2
none_device
  4
ANSI_A_(11.00_x_8.50_Inches)
  6

 40
6.35
 41
19.05
 42
6.35000508
 43
19.05000254
 44
279.4
 45
215.9
 46
26.1942491564
 47
184.9751785245
 48
0.0
 49
0.0
140
0.0
141
0.0
142
0.0607160867
143
1.0
 70
  1696
 72
     0
 73
     0
 74
     0
  7

 75
     0
147
0.0179189148
148
-1300.4909072572
149
0.0
100
AcDbLayout
  1
Model
 70
     1
 71
     0
 10
0.0
 20
0.0
 11
420.0
 21
297.0
 12
0.0
 22
0.0
 32
0.0
 14
-11.7625
 24
-131.5958888784
 34
0.0
 15
150.7283154903
 25
6.9999999981
 35
0.0
146
0.0
 13
0.0
 23
0.0
 33
0.0
 16
1.0
 26
0.0
 36
0.0
 17
0.0
 27
1.0
 37
0.0
 76
     0
330
1F
331
29
  0
MLINESTYLE
  5
18
102
{ACAD_REACTORS
330
17
102
}
330
17
100
AcDbMlineStyle
  2
Standard
 70
     0
  3

 62
   256
 51
90.0
 52
90.0
 71
     2
 49
0.5
 62
   256
  6
BYLAYER
 49
-0.5
 62
   256
  6
BYLAYER
  0
ACDBPLACEHOLDER
  5
F
102
{ACAD_REACTORS
330
E
102
}
330
E
  0
SCALE
  5
48
102
{ACAD_REACTORS
330
47
102
}
330
47
100
AcDbScale
 70
     0
300
1:1
140
1.0
141
1.0
290
     1
  0
SCALE
  5
49
102
{ACAD_REACTORS
330
47
102
}
330
47
100
AcDbScale
 70
     0
300
1:2
140
1.0
141
2.0
290
     0
  0
SCALE
  5
4A
102
{ACAD_REACTORS
330
47
102
}
330
47
100
AcDbScale
 70
     0
300
1:4
140
1.0
141
4.0
290
     0
  0
SCALE
  5
4B
102
{ACAD_REACTORS
330
47
102
}
330
47
100
AcDbScale
 70
     0
300
1:5
140
1.0
141
5.0
290
     0
  0
SCALE
  5
4C
102
{ACAD_REACTORS
330
47
102
}
330
47
100
AcDbScale
 70
     0
300
1:8
140
1.0
141
8.0
290
     0
  0
SCALE
  5
4D
102
{ACAD_REACTORS
330
47
102
}
330
47
100
AcDbScale
 70
     0
300
1:10
140
1.0
141
10.0
290
     0
  0
SCALE
  5
4E
102
{ACAD_REACTORS
330
47
102
}
330
47
100
AcDbScale
 70
     0
300
1:16
140
1.0
141
16.0
290
     0
  0
SCALE
  5
4F
102
{ACAD_REACTORS
330
47
102
}
330
47
100
AcDbScale
 70
     0
300
1:20
140
1.0
141
20.0
290
     0
  0
SCALE
  5
50
102
{ACAD_REACTORS
330
47
102
}
330
47
100
AcDbScale
 70
     0
300
1:30
140
1.0
141
30.0
290
     0
  0
SCALE
  5
51
102
{ACAD_REACTORS
330
47
102
}
330
47
100
AcDbScale
 70
     0
300
1:40
140
1.0
141
40.0
290
     0
  0
SCALE
  5
52
102
{ACAD_REACTORS
330
47
102
}
330
47
100
AcDbScale
 70
     0
300
1:50
140
1.0
141
50.0
290
     0
  0
SCALE
  5
53
102
{ACAD_REACTORS
330
47
102
}
330
47
100
AcDbScale
 70
     0
300
1:100
140
1.0
141
100.0
290
     0
  0
SCALE
  5
54
102
{ACAD_REACTORS
330
47
102
}
330
47
100
AcDbScale
 70
     0
300
2:1
140
2.0
141
1.0
290
     0
  0
SCALE
  5
55
102
{ACAD_REACTORS
330
47
102
}
330
47
100
AcDbScale
 70
     0
300
4:1
140
4.0
141
1.0
290
     0
  0
SCALE
  5
56
102
{ACAD_REACTORS
330
47
102
}
330
47
100
AcDbScale
 70
     0
300
8:1
140
8.0
141
1.0
290
     0
  0
SCALE
  5
57
102
{ACAD_REACTORS
330
47
102
}
330
47
100
AcDbScale
 70
     0
300
10:1
140
10.0
141
1.0
290
     0
  0
SCALE
  5
58
102
{ACAD_REACTORS
330
47
102
}
330
47
100
AcDbScale
 70
     0
300
100:1
140
100.0
141
1.0
290
     0
  0
SCALE
  5
59
102
{ACAD_REACTORS
330
47
102
}
330
47
100
AcDbScale
 70
     0
300
1/128" = 1'-0"
140
0.0078125
141
12.0
290
     0
  0
SCALE
  5
5A
102
{ACAD_REACTORS
330
47
102
}
330
47
100
AcDbScale
 70
     0
300
1/64" = 1'-0"
140
0.015625
141
12.0
290
     0
  0
SCALE
  5
5B
102
{ACAD_REACTORS
330
47
102
}
330
47
100
AcDbScale
 70
     0
300
1/32" = 1'-0"
140
0.03125
141
12.0
290
     0
  0
SCALE
  5
5C
102
{ACAD_REACTORS
330
47
102
}
330
47
100
AcDbScale
 70
     0
300
1/16" = 1'-0"
140
0.0625
141
12.0
290
     0
  0
SCALE
  5
5D
102
{ACAD_REACTORS
330
47
102
}
330
47
100
AcDbScale
 70
     0
300
3/32" = 1'-0"
140
0.09375
141
12.0
290
     0
  0
SCALE
  5
5E
102
{ACAD_REACTORS
330
47
102
}
330
47
100
AcDbScale
 70
     0
300
1/8" = 1'-0"
140
0.125
141
12.0
290
     0
  0
SCALE
  5
5F
102
{ACAD_REACTORS
330
47
102
}
330
47
100
AcDbScale
 70
     0
300
3/16" = 1'-0"
140
0.1875
141
12.0
290
     0
  0
SCALE
  5
60
102
{ACAD_REACTORS
330
47
102
}
330
47
100
AcDbScale
 70
     0
300
1/4" = 1'-0"
140
0.25
141
12.0
290
     0
  0
SCALE
  5
61
102
{ACAD_REACTORS
330
47
102
}
330
47
100
AcDbScale
 70
     0
300
3/8" = 1'-0"
140
0.375
141
12.0
290
     0
  0
SCALE
  5
62
102
{ACAD_REACTORS
330
47
102
}
330
47
100
AcDbScale
 70
     0
300
1/2" = 1'-0"
140
0.5
141
12.0
290
     0
  0
SCALE
  5
63
102
{ACAD_REACTORS
330
47
102
}
330
47
100
AcDbScale
 70
     0
300
3/4" = 1'-0"
140
0.75
141
12.0
290
     0
  0
SCALE
  5
64
102
{ACAD_REACTORS
330
47
102
}
330
47
100
AcDbScale
 70
     0
300
1" = 1'-0"
140
1.0
141
12.0
290
     0
  0
SCALE
  5
65
102
{ACAD_REACTORS
330
47
102
}
330
47
100
AcDbScale
 70
     0
300
1-1/2" = 1'-0"
140
1.5
141
12.0
290
     0
  0
SCALE
  5
66
102
{ACAD_REACTORS
330
47
102
}
330
47
100
AcDbScale
 70
     0
300
3" = 1'-0"
140
3.0
141
12.0
290
     0
  0
SCALE
  5
67
102
{ACAD_REACTORS
330
47
102
}
330
47
100
AcDbScale
 70
     0
300
6" = 1'-0"
140
6.0
141
12.0
290
     0
  0
SCALE
  5
68
102
{ACAD_REACTORS
330
47
102
}
330
47
100
AcDbScale
 70
     0
300
1'-0" = 1'-0"
140
12.0
141
12.0
290
     0
  0
ENDSEC
  0
EOF
