M48
; DRILL file {KiCad 8.0.6} date 2024-12-13T19:23:44-0500
; FORMAT={-:-/ absolute / inch / decimal}
; #@! TF.CreationDate,2024-12-13T19:23:44-05:00
; #@! TF.GenerationSoftware,Kicad,Pcbnew,8.0.6
; #@! TF.FileFunction,Plated,1,2,PTH
FMAT,2
INCH
; #@! TA.AperFunction,Plated,PTH,ComponentDrill
T1C0.0118
; #@! TA.AperFunction,Plated,PTH,ViaDrill
T2C0.0157
; #@! TA.AperFunction,Plated,PTH,ComponentDrill
T3C0.0197
; #@! TA.AperFunction,Plated,PTH,ComponentDrill
T4C0.0236
; #@! TA.AperFunction,Plated,PTH,ComponentDrill
T5C0.0315
; #@! TA.AperFunction,Plated,PTH,ComponentDrill
T6C0.0394
; #@! TA.AperFunction,Plated,PTH,ComponentDrill
T7C0.1181
%
G90
G05
T1
X-5.4332Y0.9405
X-5.3985Y1.0699
X-5.3594Y0.9207
X-5.3247Y1.0501
X-5.2391Y1.665
X-5.2044Y1.7943
X-5.1653Y1.6451
X-5.1306Y1.7746
X-4.9028Y0.022
X-4.8806Y0.8959
X-4.8682Y0.1513
X-4.8459Y1.0253
X-4.8291Y0.0021
X-4.8068Y0.8761
X-4.7944Y0.1316
X-4.7721Y1.0056
X-4.7087Y0.7464
X-4.6865Y1.6204
X-4.6741Y0.8758
X-4.6518Y1.7497
X-4.635Y0.7266
X-4.6127Y1.6006
X-4.6003Y0.856
X-4.578Y1.73
X-4.5146Y1.4708
X-4.4799Y1.6002
X-4.4408Y1.451
X-4.4062Y1.5804
X-4.3503Y-0.0226
X-4.3156Y0.1067
X-4.2765Y-0.0424
X-4.2418Y0.087
X-4.1784Y-0.1722
X-4.1562Y0.7018
X-4.1437Y-0.0428
X-4.1215Y0.8312
X-4.1046Y-0.192
X-4.0824Y0.682
X-4.07Y-0.0626
X-4.0477Y0.8115
X-3.9843Y0.5523
X-3.962Y1.4262
X-3.9496Y0.6816
X-3.9274Y1.5556
X-3.9105Y0.5324
X-3.8883Y1.4065
X-3.8758Y0.6619
X-3.8536Y1.5359
X-3.7902Y1.2767
X-3.7555Y1.4061
X-3.7164Y1.2569
X-3.6817Y1.3863
X-3.6258Y-0.2168
X-3.5912Y-0.0874
X-3.5753Y-0.8191
X-3.5521Y-0.2365
X-3.5406Y-0.6897
X-3.5174Y-0.1071
X-3.5015Y-0.8389
X-3.4668Y-0.7095
X-3.4317Y0.5077
X-3.3971Y0.637
X-3.3812Y-0.0946
X-3.3579Y0.4879
X-3.3465Y0.0348
X-3.3233Y0.6173
X-3.3074Y-0.1144
X-3.2727Y0.015
X-3.2376Y1.2321
X-3.2029Y1.3615
X-3.187Y0.6298
X-3.1638Y1.2124
X-3.1524Y0.7592
X-3.1291Y1.3418
X-3.1133Y0.61
X-3.0786Y0.7394
X-3.0227Y-0.8637
X-2.9929Y1.3543
X-2.988Y-0.7343
X-2.9583Y1.4836
X-2.9489Y-0.8834
X-2.9192Y1.3344
X-2.9142Y-0.754
X-2.8845Y1.4639
X-2.8286Y-0.1392
X-2.8266Y-0.9226
X-2.7939Y-0.0098
X-2.7919Y-0.7932
X-2.7548Y-0.159
X-2.7528Y-0.9424
X-2.7201Y-0.0295
X-2.7181Y-0.813
X-2.6345Y0.5852
X-2.6324Y-0.1982
X-2.5998Y0.7146
X-2.5978Y-0.0688
X-2.5607Y0.5655
X-2.5587Y-0.218
X-2.526Y0.6949
X-2.524Y-0.0886
X-2.4404Y1.3097
X-2.4383Y0.5263
X-2.4057Y1.439
X-2.4037Y0.6556
X-2.3666Y1.2899
X-2.3646Y0.5064
X-2.3319Y1.4193
X-2.3299Y0.6359
X-2.274Y-0.9672
X-2.2442Y1.2507
X-2.2393Y-0.8379
X-2.2096Y1.3801
X-2.2002Y-0.987
X-2.1705Y1.2309
X-2.1655Y-0.8575
X-2.1358Y1.3603
X-2.1264Y-1.2073
X-2.0917Y-1.0779
X-2.0799Y-0.2428
X-2.0526Y-1.2271
X-2.0452Y-0.1134
X-2.0179Y-1.0977
X-2.0061Y-0.2625
X-1.9714Y-0.1331
X-1.9323Y-0.4828
X-1.8976Y-0.3535
X-1.8858Y0.4817
X-1.8585Y-0.5027
X-1.8511Y0.611
X-1.8238Y-0.3732
X-1.812Y0.4619
X-1.7773Y0.5913
X-1.7381Y0.2416
X-1.7035Y0.371
X-1.6917Y1.2061
X-1.6644Y0.2218
X-1.657Y1.3355
X-1.6297Y0.3512
X-1.6179Y1.1864
X-1.5832Y1.3158
X-1.5738Y-1.2519
X-1.544Y0.9661
X-1.5392Y-1.1225
X-1.5094Y1.0954
X-1.5Y-1.2717
X-1.4703Y0.9462
X-1.4654Y-1.1422
X-1.4356Y1.0757
X-1.3797Y-0.5274
X-1.345Y-0.3981
X-1.3059Y-0.5472
X-1.2712Y-0.4178
X-1.2451Y-1.5405
X-1.232Y-0.7675
X-1.2104Y-1.4111
X-1.1974Y-0.6381
X-1.1856Y0.197
X-1.1713Y-1.5603
X-1.1583Y-0.7873
X-1.1509Y0.3264
X-1.1366Y-1.4309
X-1.1236Y-0.6579
X-1.1118Y0.1772
X-1.0771Y0.3067
X-1.038Y-0.0431
X-1.0033Y0.0863
X-0.9915Y0.9214
X-0.9642Y-0.0629
X-0.9568Y1.0508
X-0.9295Y0.0665
X-0.9177Y0.9017
X-0.883Y1.0311
X-0.8438Y0.6814
X-0.8092Y0.8107
X-0.7701Y0.6615
X-0.7354Y0.791
X-0.6925Y-1.5851
X-0.6795Y-0.8121
X-0.6579Y-1.4557
X-0.6448Y-0.6827
X-0.6187Y-1.6049
X-0.6057Y-0.8319
X-0.5841Y-1.4754
X-0.571Y-0.7024
X-0.4854Y-0.0877
X-0.4507Y0.0417
X-0.4116Y-0.1074
X-0.3769Y0.022
X-0.2913Y0.6368
X-0.2566Y0.7661
X-0.2175Y0.617
X-0.1828Y0.7464
X0.257Y0.6628
X0.2916Y0.5334
X0.3307Y0.6826
X0.3654Y0.5531
X0.4511Y-0.0617
X0.4857Y-0.191
X0.5249Y-0.0419
X0.5595Y-0.1713
X0.6452Y-0.7861
X0.6582Y-1.5591
X0.6799Y-0.9155
X0.6929Y-1.6884
X0.719Y-0.7663
X0.732Y-1.5393
X0.7536Y-0.8958
X0.7578Y0.9004
X0.7667Y-1.6687
X0.7925Y0.7711
X0.8315Y0.9203
X0.8662Y0.7908
X0.9519Y0.176
X0.9571Y0.9475
X0.9866Y0.0466
X0.9918Y0.8181
X1.0257Y0.1958
X1.0309Y0.9672
X1.0603Y0.0664
X1.0656Y0.8378
X1.146Y-0.5484
X1.1513Y0.223
X1.159Y-1.3214
X1.1807Y-0.6778
X1.1859Y0.0937
X1.1937Y-1.4508
X1.2198Y-0.5286
X1.225Y0.2428
X1.2328Y-1.3016
X1.2545Y-0.658
X1.2597Y0.1134
X1.2675Y-1.431
X1.3454Y-0.5014
X1.38Y-0.6308
X1.4191Y-0.4817
X1.4538Y-0.6111
X1.458Y1.1851
X1.4926Y1.0557
X1.5317Y1.205
X1.5395Y-1.2259
X1.5664Y1.0755
X1.5742Y-1.3552
X1.6133Y-1.2061
X1.6479Y-1.3355
X1.6521Y0.4607
X1.6573Y1.2321
X1.6868Y0.3313
X1.692Y1.1028
X1.7258Y0.4805
X1.7311Y1.2519
X1.7605Y0.3511
X1.7658Y1.1225
X1.8462Y-0.2638
X1.8514Y0.5077
X1.8809Y-0.3931
X1.8861Y0.3783
X1.92Y-0.2439
X1.9252Y0.5275
X1.9546Y-0.3734
X1.9599Y0.398
X2.0403Y-0.9882
X2.0456Y-0.2168
X2.075Y-1.1176
X2.0802Y-0.3461
X2.1141Y-0.9684
X2.1193Y-0.197
X2.1488Y-1.0978
X2.154Y-0.3264
X2.1582Y1.4698
X2.1928Y1.3404
X2.2319Y1.4896
X2.2397Y-0.9412
X2.2666Y1.3602
X2.2743Y-1.0706
X2.3134Y-0.9214
X2.3481Y-1.0509
X2.3523Y0.7453
X2.3869Y0.616
X2.406Y1.3357
X2.426Y0.7652
X2.4407Y1.2063
X2.4607Y0.6357
X2.4798Y1.3555
X2.5145Y1.226
X2.5464Y0.0209
X2.581Y-0.1085
X2.6001Y0.6112
X2.6201Y0.0407
X2.6348Y0.4819
X2.6548Y-0.0887
X2.6739Y0.631
X2.7086Y0.5016
X2.7405Y-0.7035
X2.7752Y-0.8329
X2.7943Y-0.1132
X2.8143Y-0.6837
X2.8289Y-0.2426
X2.8489Y-0.8131
X2.868Y-0.0934
X2.9027Y-0.2229
X2.9069Y1.5733
X2.9415Y1.444
X2.9806Y1.5932
X2.9884Y-0.8376
X3.0153Y1.4637
X3.023Y-0.967
X3.0622Y-0.8179
X3.0968Y-0.9473
X3.101Y0.8489
X3.1356Y0.7195
X3.1747Y0.8687
X3.2033Y1.2581
X3.2094Y0.7393
X3.2379Y1.1288
X3.277Y1.2779
X3.2951Y0.1245
X3.3117Y1.1485
X3.3298Y-0.0049
X3.3689Y0.1443
X3.3974Y0.5337
X3.4035Y0.0149
X3.4321Y0.4043
X3.4712Y0.5535
X3.4892Y-0.6
X3.5058Y0.424
X3.5239Y-0.7294
X3.563Y-0.5802
X3.5915Y-0.1908
X3.5976Y-0.7096
X3.6262Y-0.3201
X3.6653Y-0.171
X3.7Y-0.3004
X3.7041Y1.4958
X3.7388Y1.3664
X3.7779Y1.5156
X3.8125Y1.3862
X3.8982Y0.7713
X3.9277Y1.4523
X3.9329Y0.642
X3.9624Y1.3229
X3.972Y0.7912
X4.0015Y1.472
X4.0067Y0.6617
X4.0362Y1.3426
X4.0923Y0.0469
X4.1218Y0.7278
X4.127Y-0.0825
X4.1565Y0.5984
X4.1661Y0.0667
X4.1956Y0.7476
X4.2008Y-0.0627
X4.2303Y0.6181
X4.3159Y0.0034
X4.3506Y-0.126
X4.3897Y0.0231
X4.4244Y-0.1063
X4.4285Y1.6899
X4.4632Y1.5605
X4.5023Y1.7097
X4.537Y1.5803
X4.6227Y0.9655
X4.6522Y1.6464
X4.6573Y0.8361
X4.6868Y1.517
X4.6964Y0.9853
X4.7259Y1.6661
X4.7311Y0.8559
X4.7606Y1.5367
X4.8168Y0.241
X4.8463Y0.9219
X4.8514Y0.1117
X4.8809Y0.7926
X4.8905Y0.2609
X4.9201Y0.9417
X4.9252Y0.1314
X4.9547Y0.8123
X5.153Y1.884
X5.1877Y1.7547
X5.2268Y1.9039
X5.2614Y1.7744
X5.3471Y1.1596
X5.3818Y1.0302
X5.4209Y1.1794
X5.4555Y1.05
T2
X-5.9677Y3.1575
X-5.8695Y3.1361
X-5.8335Y3.0651
X-5.8118Y3.0985
X-5.802Y2.9213
X-5.792Y3.2375
X-5.7128Y2.9728
X-5.5265Y2.728
X-5.4095Y0.8915
X-5.2791Y1.9089
X-5.2052Y1.434
X-5.1961Y1.2873
X-5.1733Y2.0012
X-5.1185Y0.9336
X-5.0746Y2.1156
X-5.0684Y0.9235
X-5.0298Y0.9157
X-5.0153Y1.9415
X-5.0101Y0.8065
X-4.8144Y1.2157
X-4.7881Y1.3974
X-4.7295Y0.4702
X-4.6802Y1.4599
X-4.6775Y0.1451
X-4.6014Y1.4041
X-4.56Y1.4216
X-4.3647Y0.3176
X-4.3412Y0.4051
X-4.3399Y1.924
X-4.096Y1.0232
X-4.0037Y0.281
X-3.6155Y1.7299
X-3.5524Y0.4801
X-3.5438Y-0.357
X-3.492Y0.0173
X-3.3716Y0.829
X-3.2131Y-0.1855
X-3.2065Y0.3586
X-2.9626Y-0.5423
X-2.8182Y1.8075
X-2.5743Y0.9066
X-2.4578Y0.255
X-2.2283Y-0.374
X-2.2139Y-0.6459
X-2.2126Y-1.2755
X-2.145Y-1.023
X-2.0479Y1.6976
X-2.0358Y-0.6155
X-1.9509Y-0.2985
X-1.8478Y0.0863
X-1.8256Y0.803
X-1.7677Y-0.585
X-1.7576Y-0.0297
X-1.7568Y0.4259
X-1.6476Y0.8334
X-1.5627Y1.1503
X-1.5137Y-0.9305
X-1.502Y1.3767
X-1.4512Y-1.2369
X-1.3693Y1.4192
X-1.2416Y-0.5651
X-1.1526Y-0.1225
X-1.1348Y-0.168
X-1.1254Y0.5184
X-1.0663Y-0.3119
X-0.963Y0.2095
X-0.9542Y-0.1206
X-0.9376Y0.5468
X-0.9193Y-0.3091
X-0.8863Y0.7335
X-0.8074Y0.4271
X-0.7244Y0.4183
X-0.678Y1.1369
X-0.6693Y-0.1671
X-0.6473Y-0.364
X-0.6311Y-1.2588
X-0.5311Y1.1398
X-0.5274Y0.3623
X-0.4886Y0.1751
X-0.4318Y0.4438
X-0.4263Y0.213
X-0.4201Y-1.0389
X-0.3889Y-0.1948
X-0.3889Y-0.2341
X-0.3842Y-0.9711
X-0.3731Y-1.0487
X-0.3644Y-0.164
X-0.3515Y0.5791
X-0.3499Y0.4717
X-0.3366Y-0.5984
X-0.3346Y-1.0407
X-0.318Y-1.1228
X-0.2499Y0.248
X-0.2495Y0.2874
X-0.2486Y0.1587
X-0.2478Y0.1193
X-0.247Y0.08
X-0.2463Y0.0406
X-0.2397Y-0.9208
X-0.2251Y-0.25
X-0.207Y0.0404
X-0.1944Y-0.2775
X-0.1797Y0.8109
X-0.1681Y-0.0001
X-0.1677Y-0.0394
X-0.1677Y0.0398
X-0.1661Y-0.0787
X-0.1586Y0.4496
X-0.1586Y0.4103
X-0.0934Y0.1045
X-0.0748Y0.8543
X-0.0472Y-0.2913
X-0.0275Y0.0248
X-0.011Y0.3879
X0.006Y-0.1524
X0.0827Y-1.0
X0.1103Y-0.2169
X0.1296Y0.3268
X0.1465Y0.4657
X0.1468Y-0.0084
X0.1469Y-0.0477
X0.2508Y1.0657
X0.2961Y1.2044
X0.2961Y1.0862
X0.3071Y-0.4606
X0.3366Y-0.7756
X0.3389Y0.7648
X0.3413Y1.09
X0.4131Y0.4704
X0.4708Y0.2079
X0.5362Y1.1411
X0.5375Y1.2096
X0.5412Y0.3504
X0.5644Y-0.4274
X0.6031Y-0.4661
X0.6847Y0.5662
X0.7329Y-0.3591
X0.802Y-1.3933
X0.8844Y0.3552
X0.8952Y1.2869
X1.0851Y-1.1424
X1.1582Y-0.1276
X1.1806Y-0.0906
X1.3047Y-0.151
X1.334Y-0.6318
X1.53Y-1.3928
X1.5782Y0.6397
X1.6079Y1.1625
X1.6386Y1.5879
X1.705Y0.8003
X1.7916Y-0.4828
X1.8081Y0.4154
X1.8748Y0.1664
X1.9664Y-0.8092
X1.9962Y-0.2864
X2.0049Y0.1337
X2.075Y-0.5807
X2.1963Y-1.0335
X2.2746Y-0.3534
X2.2783Y0.9244
X2.3693Y1.6872
X2.6666Y-0.5245
X2.7536Y0.2373
X3.0271Y1.0279
X3.1626Y1.6086
X3.2638Y-0.1815
X3.414Y-0.4161
X3.5509Y0.1597
X3.5651Y-0.379
X3.6035Y-0.3704
X3.7317Y-0.1065
X3.8243Y0.9503
X3.8871Y1.8027
X4.2753Y0.3538
X4.5487Y1.1445
X4.5868Y0.477
X4.6026Y1.9944
X4.6983Y-0.0477
X4.8135Y1.4342
X4.8195Y0.0804
X4.9297Y1.4774
X4.9684Y1.1894
X5.0311Y1.5341
X5.0906Y2.0482
X5.1665Y1.4024
X5.28Y1.3373
X5.2959Y1.5161
T6
X0.0Y-0.5669
T7
X-5.2363Y0.9571
X-5.0422Y1.6815
X-4.969Y0.989
X-4.7749Y1.7134
X-4.706Y0.0385
X-4.5119Y0.763
X-4.4387Y0.0704
X-4.3178Y1.4874
X-4.2445Y0.7948
X-4.0504Y1.5193
X-3.9816Y-0.1556
X-3.7875Y0.5688
X-3.7142Y-0.1237
X-3.5933Y1.2933
X-3.5201Y0.6007
X-3.3784Y-0.8025
X-3.326Y1.3252
X-3.1843Y-0.0781
X-3.1111Y-0.7706
X-2.9902Y0.6464
X-2.917Y-0.0462
X-2.7961Y1.3708
X-2.7229Y0.6783
X-2.6297Y-0.9061
X-2.5287Y1.4027
X-2.4356Y-0.1816
X-2.3624Y-0.8742
X-2.2415Y0.5428
X-2.1683Y-0.1497
X-2.0474Y1.2673
X-1.9741Y0.5747
X-1.9296Y-1.1907
X-1.78Y1.2992
X-1.7354Y-0.4663
X-1.6622Y-1.1588
X-1.5413Y0.2582
X-1.4681Y-0.4344
X-1.3472Y0.9826
X-1.274Y0.29
X-1.0799Y1.0145
X-1.0483Y-1.5239
X-1.0352Y-0.751
X-0.8411Y-0.0265
X-0.7809Y-1.492
X-0.7679Y-0.7191
X-0.647Y0.6979
X-0.5738Y0.0054
X-0.3797Y0.7298
X0.4538Y0.6462
X0.6479Y-0.0783
X0.6694Y0.8075
X0.842Y-0.8027
X0.855Y-1.5757
X0.8635Y0.083
X1.0576Y-0.6414
X1.0706Y-1.4144
X1.154Y0.9308
X1.3481Y0.2064
X1.3696Y1.0921
X1.5422Y-0.518
X1.5637Y0.3677
X1.7363Y-1.2425
X1.7578Y-0.3568
X1.8542Y1.2155
X1.9519Y-1.0812
X2.0483Y0.4911
X2.0698Y1.3768
X2.2424Y-0.2334
X2.2639Y0.6524
X2.4365Y-0.9578
X2.458Y-0.0721
X2.6029Y1.3191
X2.6521Y-0.7965
X2.797Y0.5946
X2.8185Y1.4804
X2.9911Y-0.1298
X3.0126Y0.7559
X3.1852Y-0.8543
X3.2067Y0.0315
X3.4001Y1.2415
X3.4008Y-0.693
X3.5942Y0.5171
X3.6157Y1.4028
X3.7883Y-0.2074
X3.8098Y0.6784
X4.0039Y-0.0461
X4.1246Y1.4356
X4.3187Y0.7112
X4.3402Y1.5969
X4.5128Y-0.0133
X4.5343Y0.8725
X4.7284Y0.148
X4.849Y1.6297
X5.0431Y0.9053
X5.0646Y1.791
X5.2587Y1.0666
T3
G00X-6.2323Y3.4276
M15
G01X-6.213Y3.3866
M16
G05
G00X-6.1552Y3.2637
M15
G01X-6.1359Y3.2227
M16
G05
G00X-5.8351Y3.6145
M15
G01X-5.8158Y3.5736
M16
G05
G00X-5.758Y3.4507
M15
G01X-5.7387Y3.4097
M16
G05
G00X-5.2639Y0.8862
M15
G01X-5.2449Y0.8811
M16
G05
G00X-5.1161Y1.4376
M15
G01X-5.0971Y1.4325
M16
G05
G00X-5.0738Y0.8352
M15
G01X-5.0547Y0.8301
M16
G05
G00X-5.0698Y1.6106
M15
G01X-5.0508Y1.6055
M16
G05
G00X-5.0211Y1.4121
M15
G01X-5.0021Y1.407
M16
G05
G00X-4.926Y1.3867
M15
G01X-4.907Y1.3816
M16
G05
G00X-4.922Y2.1621
M15
G01X-4.903Y2.157
M16
G05
G00X-4.8796Y1.5597
M15
G01X-4.8606Y1.5546
M16
G05
G00X-4.827Y2.1366
M15
G01X-4.8079Y2.1315
M16
G05
G00X-4.7319Y2.1111
M15
G01X-4.7129Y2.106
M16
G05
G00X4.7128Y2.106
M15
G01X4.7318Y2.1111
M16
G05
G00X4.8079Y2.1315
M15
G01X4.8269Y2.1366
M16
G05
G00X4.8606Y1.5546
M15
G01X4.8796Y1.5597
M16
G05
G00X4.903Y2.157
M15
G01X4.922Y2.1621
M16
G05
G00X4.9069Y1.3816
M15
G01X4.926Y1.3867
M16
G05
G00X5.002Y1.407
M15
G01X5.021Y1.4121
M16
G05
G00X5.0507Y1.6055
M15
G01X5.0697Y1.6106
M16
G05
G00X5.0547Y0.8301
M15
G01X5.0737Y0.8352
M16
G05
G00X5.0971Y1.4325
M15
G01X5.1161Y1.4376
M16
G05
G00X5.2448Y0.8811
M15
G01X5.2638Y0.8862
M16
G05
T4
G00X-0.2067Y-0.6613
M15
G01X-0.2067Y-0.6731
M16
G05
G00X0.2067Y-0.6613
M15
G01X0.2067Y-0.6731
M16
G05
T5
G00X-0.2067Y-0.5511
M15
G01X-0.2067Y-0.5629
M16
G05
G00X-0.2067Y-0.807
M15
G01X-0.2067Y-0.8188
M16
G05
G00X0.2067Y-0.5511
M15
G01X0.2067Y-0.5629
M16
G05
G00X0.2067Y-0.807
M15
G01X0.2067Y-0.8188
M16
G05
M30
