%TF.GenerationSoftware,KiCad,Pcbnew,8.0.6*%
%TF.CreationDate,2024-12-13T19:23:41-05:00*%
%TF.ProjectId,10133,31303133-332e-46b6-9963-61645f706362,rev?*%
%TF.SameCoordinates,Original*%
%TF.FileFunction,Soldermask,Bot*%
%TF.FilePolarity,Negative*%
%FSLAX46Y46*%
G04 Gerber Fmt 4.6, Leading zero omitted, Abs format (unit mm)*
G04 Created by KiCad (PCBNEW 8.0.6) date 2024-12-13 19:23:41*
%MOMM*%
%LPD*%
G01*
G04 APERTURE LIST*
G04 Aperture macros list*
%AMRoundRect*
0 Rectangle with rounded corners*
0 $1 Rounding radius*
0 $2 $3 $4 $5 $6 $7 $8 $9 X,Y pos of 4 corners*
0 Add a 4 corners polygon primitive as box body*
4,1,4,$2,$3,$4,$5,$6,$7,$8,$9,$2,$3,0*
0 Add four circle primitives for the rounded corners*
1,1,$1+$1,$2,$3*
1,1,$1+$1,$4,$5*
1,1,$1+$1,$6,$7*
1,1,$1+$1,$8,$9*
0 Add four rect primitives between the rounded corners*
20,1,$1+$1,$2,$3,$4,$5,0*
20,1,$1+$1,$4,$5,$6,$7,0*
20,1,$1+$1,$6,$7,$8,$9,0*
20,1,$1+$1,$8,$9,$2,$3,0*%
%AMHorizOval*
0 Thick line with rounded ends*
0 $1 width*
0 $2 $3 position (X,Y) of the first rounded end (center of the circle)*
0 $4 $5 position (X,Y) of the second rounded end (center of the circle)*
0 Add line between two ends*
20,1,$1,$2,$3,$4,$5,0*
0 Add two circle primitives to create the rounded ends*
1,1,$1,$2,$3*
1,1,$1,$4,$5*%
%AMRotRect*
0 Rectangle, with rotation*
0 The origin of the aperture is its center*
0 $1 length*
0 $2 width*
0 $3 Rotation angle, in degrees counterclockwise*
0 Add horizontal line*
21,1,$1,$2,0,0,$3*%
G04 Aperture macros list end*
%ADD10C,0.010000*%
%ADD11O,1.600000X1.900000*%
%ADD12O,1.400000X1.700000*%
%ADD13C,2.700000*%
%ADD14HorizOval,1.200000X0.232937X0.869333X-0.232937X-0.869333X0*%
%ADD15HorizOval,0.900000X-0.241481X0.064705X0.241481X-0.064705X0*%
%ADD16HorizOval,1.200000X-0.232937X0.869333X0.232937X-0.869333X0*%
%ADD17HorizOval,0.900000X0.241481X0.064705X-0.241481X-0.064705X0*%
%ADD18RoundRect,0.225000X-0.183247X0.282038X-0.299716X-0.152629X0.183247X-0.282038X0.299716X0.152629X0*%
%ADD19RoundRect,0.140000X-0.140000X-0.170000X0.140000X-0.170000X0.140000X0.170000X-0.140000X0.170000X0*%
%ADD20RoundRect,0.225000X0.299716X-0.152629X0.183247X0.282038X-0.299716X0.152629X-0.183247X-0.282038X0*%
%ADD21RotRect,0.900000X0.800000X255.000000*%
%ADD22RoundRect,0.637500X-0.839009X-0.668114X0.392546X-0.998108X0.839009X0.668114X-0.392546X0.998108X0*%
%ADD23C,1.701800*%
%ADD24C,3.987800*%
%ADD25C,3.300000*%
%ADD26C,0.600000*%
%ADD27RoundRect,0.637500X-0.392546X-0.998108X0.839009X-0.668114X0.392546X0.998108X-0.839009X0.668114X0*%
%ADD28R,0.812800X0.177800*%
%ADD29R,0.177800X0.812800*%
%ADD30R,3.200400X3.200400*%
%ADD31RoundRect,0.135000X-0.040239X-0.225457X0.202436X-0.107097X0.040239X0.225457X-0.202436X0.107097X0*%
%ADD32HorizOval,0.750000X0.362347X-1.352296X-0.362347X1.352296X0*%
%ADD33HorizOval,0.725000X1.195333X0.320289X-1.195333X-0.320289X0*%
%ADD34C,2.000000*%
%ADD35C,2.500000*%
%ADD36RotRect,1.800000X0.820000X15.000000*%
%ADD37RoundRect,0.140000X0.170000X-0.140000X0.170000X0.140000X-0.170000X0.140000X-0.170000X-0.140000X0*%
%ADD38HorizOval,0.750000X-0.362347X-1.352296X0.362347X1.352296X0*%
%ADD39HorizOval,0.725000X1.195333X-0.320289X-1.195333X0.320289X0*%
%ADD40RotRect,1.800000X0.820000X345.000000*%
%ADD41HorizOval,0.750000X0.362347X1.352296X-0.362347X-1.352296X0*%
%ADD42HorizOval,0.725000X-1.195333X0.320289X1.195333X-0.320289X0*%
%ADD43RotRect,1.800000X0.820000X165.000000*%
%ADD44HorizOval,0.750000X-0.362347X1.352296X0.362347X-1.352296X0*%
%ADD45HorizOval,0.725000X-1.195333X-0.320289X1.195333X0.320289X0*%
%ADD46RotRect,1.800000X0.820000X195.000000*%
%ADD47RoundRect,0.225000X0.183247X-0.282038X0.299716X0.152629X-0.183247X0.282038X-0.299716X-0.152629X0*%
%ADD48RoundRect,0.135000X-0.185000X0.135000X-0.185000X-0.135000X0.185000X-0.135000X0.185000X0.135000X0*%
%ADD49RoundRect,0.225000X-0.299716X0.152629X-0.183247X-0.282038X0.299716X-0.152629X0.183247X0.282038X0*%
%ADD50RoundRect,0.135000X0.040239X0.225457X-0.202436X0.107097X-0.040239X-0.225457X0.202436X-0.107097X0*%
%ADD51R,1.000000X0.900000*%
%ADD52RotRect,0.900000X0.800000X285.000000*%
%ADD53RotRect,0.900000X0.800000X165.000000*%
%ADD54RoundRect,0.147500X-0.056953X-0.219702X0.208191X-0.090382X0.056953X0.219702X-0.208191X0.090382X0*%
%ADD55R,1.150000X1.000000*%
%ADD56RotRect,1.100000X1.100000X296.000000*%
%ADD57RoundRect,0.147500X0.056953X0.219702X-0.208191X0.090382X-0.056953X-0.219702X0.208191X-0.090382X0*%
%ADD58RoundRect,0.150000X0.392362X-0.462286X-0.122724X0.593797X-0.392362X0.462286X0.122724X-0.593797X0*%
%ADD59RotRect,0.900000X0.800000X345.000000*%
%ADD60RoundRect,0.225000X0.323332X-0.092636X0.126065X0.311821X-0.323332X0.092636X-0.126065X-0.311821X0*%
%ADD61RoundRect,0.135000X0.213637X-0.082518X0.143756X0.178282X-0.213637X0.082518X-0.143756X-0.178282X0*%
%ADD62RoundRect,0.225000X-0.092636X-0.323332X0.311821X-0.126065X0.092636X0.323332X-0.311821X0.126065X0*%
%ADD63RoundRect,0.135000X0.143756X-0.178282X0.213637X0.082518X-0.143756X0.178282X-0.213637X-0.082518X0*%
%ADD64RoundRect,0.135000X-0.143756X0.178282X-0.213637X-0.082518X0.143756X-0.178282X0.213637X0.082518X0*%
%ADD65RoundRect,0.135000X0.185000X-0.135000X0.185000X0.135000X-0.185000X0.135000X-0.185000X-0.135000X0*%
%ADD66RotRect,0.900000X0.800000X195.000000*%
%ADD67RoundRect,0.140000X-0.170000X0.140000X-0.170000X-0.140000X0.170000X-0.140000X0.170000X0.140000X0*%
%ADD68RoundRect,0.150000X0.150000X-0.587500X0.150000X0.587500X-0.150000X0.587500X-0.150000X-0.587500X0*%
%ADD69RoundRect,0.135000X-0.135000X-0.185000X0.135000X-0.185000X0.135000X0.185000X-0.135000X0.185000X0*%
%ADD70RoundRect,0.125000X-0.125000X0.250000X-0.125000X-0.250000X0.125000X-0.250000X0.125000X0.250000X0*%
%ADD71R,4.300000X3.400000*%
%ADD72R,1.700000X1.700000*%
%ADD73HorizOval,0.800000X1.533374X-3.257110X-1.533374X3.257110X0*%
%ADD74HorizOval,0.800000X3.890437X1.831530X-3.890437X-1.831530X0*%
%ADD75HorizOval,0.800000X2.352357X1.107437X-2.352357X-1.107437X0*%
%ADD76RotRect,0.300000X1.100000X25.210000*%
%ADD77RotRect,0.275000X1.100000X25.210000*%
%ADD78HorizOval,0.900000X-0.244914X0.520233X0.244914X-0.520233X0*%
%ADD79RoundRect,0.135000X0.135000X0.185000X-0.135000X0.185000X-0.135000X-0.185000X0.135000X-0.185000X0*%
G04 APERTURE END LIST*
D10*
%TO.C,G\u002A\u002A\u002A*%
X-131941190Y64674398D02*
X-131920541Y64654138D01*
X-131908123Y64613670D01*
X-131902992Y64547521D01*
X-131904201Y64450218D01*
X-131910806Y64316290D01*
X-131918949Y64190584D01*
X-131985525Y63551368D01*
X-132093279Y62918900D01*
X-132241418Y62295317D01*
X-132429152Y61682754D01*
X-132655688Y61083348D01*
X-132920234Y60499233D01*
X-133221998Y59932546D01*
X-133560188Y59385424D01*
X-133934013Y58860000D01*
X-134016307Y58753394D01*
X-134416899Y58273001D01*
X-134843382Y57823359D01*
X-135298605Y57401795D01*
X-135785414Y57005636D01*
X-136306655Y56632209D01*
X-136389394Y56577710D01*
X-136486021Y56517156D01*
X-136568240Y56469040D01*
X-136629280Y56437290D01*
X-136662371Y56425834D01*
X-136699603Y56435857D01*
X-136732523Y56481443D01*
X-136736322Y56504776D01*
X-136740495Y56571239D01*
X-136743857Y56677350D01*
X-136746390Y56821603D01*
X-136748077Y57002492D01*
X-136748899Y57218512D01*
X-136748837Y57468156D01*
X-136747874Y57749919D01*
X-136742083Y58962785D01*
X-136382250Y59319759D01*
X-136024528Y59695629D01*
X-135663476Y60127128D01*
X-135339665Y60575242D01*
X-135051210Y61042812D01*
X-134796229Y61532679D01*
X-134572835Y62047684D01*
X-134526830Y62167092D01*
X-134450739Y62379629D01*
X-134381253Y62596467D01*
X-134314447Y62830178D01*
X-134246397Y63093334D01*
X-134159750Y63442584D01*
X-133090833Y64060770D01*
X-132925775Y64155906D01*
X-132738231Y64263195D01*
X-132563473Y64362308D01*
X-132404898Y64451362D01*
X-132265902Y64528476D01*
X-132149879Y64591768D01*
X-132060226Y64639356D01*
X-132000337Y64669359D01*
X-131973609Y64679895D01*
X-131971015Y64679921D01*
X-131941190Y64674398D01*
G36*
X-131941190Y64674398D02*
G01*
X-131920541Y64654138D01*
X-131908123Y64613670D01*
X-131902992Y64547521D01*
X-131904201Y64450218D01*
X-131910806Y64316290D01*
X-131918949Y64190584D01*
X-131985525Y63551368D01*
X-132093279Y62918900D01*
X-132241418Y62295317D01*
X-132429152Y61682754D01*
X-132655688Y61083348D01*
X-132920234Y60499233D01*
X-133221998Y59932546D01*
X-133560188Y59385424D01*
X-133934013Y58860000D01*
X-134016307Y58753394D01*
X-134416899Y58273001D01*
X-134843382Y57823359D01*
X-135298605Y57401795D01*
X-135785414Y57005636D01*
X-136306655Y56632209D01*
X-136389394Y56577710D01*
X-136486021Y56517156D01*
X-136568240Y56469040D01*
X-136629280Y56437290D01*
X-136662371Y56425834D01*
X-136699603Y56435857D01*
X-136732523Y56481443D01*
X-136736322Y56504776D01*
X-136740495Y56571239D01*
X-136743857Y56677350D01*
X-136746390Y56821603D01*
X-136748077Y57002492D01*
X-136748899Y57218512D01*
X-136748837Y57468156D01*
X-136747874Y57749919D01*
X-136742083Y58962785D01*
X-136382250Y59319759D01*
X-136024528Y59695629D01*
X-135663476Y60127128D01*
X-135339665Y60575242D01*
X-135051210Y61042812D01*
X-134796229Y61532679D01*
X-134572835Y62047684D01*
X-134526830Y62167092D01*
X-134450739Y62379629D01*
X-134381253Y62596467D01*
X-134314447Y62830178D01*
X-134246397Y63093334D01*
X-134159750Y63442584D01*
X-133090833Y64060770D01*
X-132925775Y64155906D01*
X-132738231Y64263195D01*
X-132563473Y64362308D01*
X-132404898Y64451362D01*
X-132265902Y64528476D01*
X-132149879Y64591768D01*
X-132060226Y64639356D01*
X-132000337Y64669359D01*
X-131973609Y64679895D01*
X-131971015Y64679921D01*
X-131941190Y64674398D01*
G37*
X-141825945Y64678736D02*
X-141788354Y64659763D01*
X-141719847Y64622894D01*
X-141624389Y64570387D01*
X-141505945Y64504498D01*
X-141368481Y64427487D01*
X-141215962Y64341610D01*
X-141052354Y64249126D01*
X-140881621Y64152292D01*
X-140707730Y64053366D01*
X-140534646Y63954606D01*
X-140366334Y63858269D01*
X-140206759Y63766613D01*
X-140059887Y63681896D01*
X-139929684Y63606376D01*
X-139820114Y63542311D01*
X-139735144Y63491957D01*
X-139678738Y63457574D01*
X-139654862Y63441418D01*
X-139651401Y63432682D01*
X-139638823Y63389300D01*
X-139619434Y63316194D01*
X-139595124Y63220571D01*
X-139567786Y63109635D01*
X-139464972Y62724193D01*
X-139284706Y62176638D01*
X-139069632Y61652693D01*
X-138819034Y61151085D01*
X-138532196Y60670542D01*
X-138208402Y60209793D01*
X-137846937Y59767566D01*
X-137447084Y59342590D01*
X-137070166Y58967930D01*
X-137070166Y57710993D01*
X-137070372Y57496920D01*
X-137071014Y57281952D01*
X-137072053Y57083190D01*
X-137073446Y56904365D01*
X-137075152Y56749211D01*
X-137077129Y56621459D01*
X-137079337Y56524842D01*
X-137081733Y56463093D01*
X-137084277Y56439945D01*
X-137094676Y56432128D01*
X-137130021Y56426238D01*
X-137182878Y56440147D01*
X-137257097Y56475562D01*
X-137356527Y56534190D01*
X-137485017Y56617740D01*
X-137659674Y56737269D01*
X-138179272Y57126115D01*
X-138668862Y57543962D01*
X-139127600Y57989343D01*
X-139554643Y58460791D01*
X-139949148Y58956841D01*
X-140310270Y59476025D01*
X-140637167Y60016879D01*
X-140928995Y60577935D01*
X-141184910Y61157727D01*
X-141404069Y61754789D01*
X-141585629Y62367655D01*
X-141728746Y62994858D01*
X-141832576Y63634932D01*
X-141896277Y64286410D01*
X-141902245Y64381940D01*
X-141907391Y64496116D01*
X-141906973Y64577236D01*
X-141900093Y64630785D01*
X-141885855Y64662245D01*
X-141863361Y64677101D01*
X-141831712Y64680834D01*
X-141825945Y64678736D01*
G36*
X-141825945Y64678736D02*
G01*
X-141788354Y64659763D01*
X-141719847Y64622894D01*
X-141624389Y64570387D01*
X-141505945Y64504498D01*
X-141368481Y64427487D01*
X-141215962Y64341610D01*
X-141052354Y64249126D01*
X-140881621Y64152292D01*
X-140707730Y64053366D01*
X-140534646Y63954606D01*
X-140366334Y63858269D01*
X-140206759Y63766613D01*
X-140059887Y63681896D01*
X-139929684Y63606376D01*
X-139820114Y63542311D01*
X-139735144Y63491957D01*
X-139678738Y63457574D01*
X-139654862Y63441418D01*
X-139651401Y63432682D01*
X-139638823Y63389300D01*
X-139619434Y63316194D01*
X-139595124Y63220571D01*
X-139567786Y63109635D01*
X-139464972Y62724193D01*
X-139284706Y62176638D01*
X-139069632Y61652693D01*
X-138819034Y61151085D01*
X-138532196Y60670542D01*
X-138208402Y60209793D01*
X-137846937Y59767566D01*
X-137447084Y59342590D01*
X-137070166Y58967930D01*
X-137070166Y57710993D01*
X-137070372Y57496920D01*
X-137071014Y57281952D01*
X-137072053Y57083190D01*
X-137073446Y56904365D01*
X-137075152Y56749211D01*
X-137077129Y56621459D01*
X-137079337Y56524842D01*
X-137081733Y56463093D01*
X-137084277Y56439945D01*
X-137094676Y56432128D01*
X-137130021Y56426238D01*
X-137182878Y56440147D01*
X-137257097Y56475562D01*
X-137356527Y56534190D01*
X-137485017Y56617740D01*
X-137659674Y56737269D01*
X-138179272Y57126115D01*
X-138668862Y57543962D01*
X-139127600Y57989343D01*
X-139554643Y58460791D01*
X-139949148Y58956841D01*
X-140310270Y59476025D01*
X-140637167Y60016879D01*
X-140928995Y60577935D01*
X-141184910Y61157727D01*
X-141404069Y61754789D01*
X-141585629Y62367655D01*
X-141728746Y62994858D01*
X-141832576Y63634932D01*
X-141896277Y64286410D01*
X-141902245Y64381940D01*
X-141907391Y64496116D01*
X-141906973Y64577236D01*
X-141900093Y64630785D01*
X-141885855Y64662245D01*
X-141863361Y64677101D01*
X-141831712Y64680834D01*
X-141825945Y64678736D01*
G37*
X-136189796Y66263388D02*
X-135557714Y66197444D01*
X-134928839Y66091071D01*
X-134305052Y65944205D01*
X-133688229Y65756778D01*
X-133080250Y65528726D01*
X-133021230Y65503672D01*
X-132910452Y65454530D01*
X-132781284Y65395427D01*
X-132645313Y65331685D01*
X-132514129Y65268629D01*
X-132498312Y65260903D01*
X-132364154Y65193992D01*
X-132264985Y65140773D01*
X-132197352Y65098292D01*
X-132157804Y65063593D01*
X-132142890Y65033719D01*
X-132149158Y65005716D01*
X-132173159Y64976628D01*
X-132188509Y64965671D01*
X-132238718Y64933997D01*
X-132319690Y64884767D01*
X-132428008Y64820001D01*
X-132560254Y64741721D01*
X-132713011Y64651946D01*
X-132882860Y64552699D01*
X-133066384Y64445999D01*
X-133260166Y64333868D01*
X-133409169Y64247979D01*
X-133594168Y64141719D01*
X-133765896Y64043501D01*
X-133921018Y63955211D01*
X-134056198Y63878735D01*
X-134168100Y63815957D01*
X-134253390Y63768763D01*
X-134308731Y63739039D01*
X-134330789Y63728669D01*
X-134335479Y63729226D01*
X-134374167Y63738343D01*
X-134442788Y63756925D01*
X-134533311Y63782749D01*
X-134637706Y63813593D01*
X-134648926Y63816952D01*
X-135210538Y63962977D01*
X-135776208Y64067167D01*
X-136344429Y64129522D01*
X-136913699Y64150042D01*
X-137482513Y64128726D01*
X-138049366Y64065576D01*
X-138612754Y63960590D01*
X-139171172Y63813768D01*
X-139204151Y63803853D01*
X-139304752Y63774181D01*
X-139388907Y63750207D01*
X-139448608Y63734176D01*
X-139475850Y63728334D01*
X-139493659Y63736571D01*
X-139545386Y63764255D01*
X-139627526Y63809654D01*
X-139736796Y63870911D01*
X-139869913Y63946168D01*
X-140023593Y64033570D01*
X-140194555Y64131259D01*
X-140379515Y64237378D01*
X-140575190Y64350072D01*
X-140709119Y64427395D01*
X-140917706Y64548115D01*
X-141093745Y64650527D01*
X-141239939Y64736316D01*
X-141358991Y64807170D01*
X-141453602Y64864775D01*
X-141526476Y64910817D01*
X-141580314Y64946982D01*
X-141617821Y64974957D01*
X-141641697Y64996429D01*
X-141654646Y65013083D01*
X-141659370Y65026607D01*
X-141660201Y65039020D01*
X-141655832Y65059136D01*
X-141639511Y65079777D01*
X-141606013Y65104541D01*
X-141550116Y65137025D01*
X-141466596Y65180828D01*
X-141350230Y65239548D01*
X-141136544Y65343397D01*
X-140546419Y65598516D01*
X-139944474Y65813732D01*
X-139332588Y65988980D01*
X-138712641Y66124193D01*
X-138086509Y66219306D01*
X-137456072Y66274254D01*
X-136823209Y66288969D01*
X-136189796Y66263388D01*
G36*
X-136189796Y66263388D02*
G01*
X-135557714Y66197444D01*
X-134928839Y66091071D01*
X-134305052Y65944205D01*
X-133688229Y65756778D01*
X-133080250Y65528726D01*
X-133021230Y65503672D01*
X-132910452Y65454530D01*
X-132781284Y65395427D01*
X-132645313Y65331685D01*
X-132514129Y65268629D01*
X-132498312Y65260903D01*
X-132364154Y65193992D01*
X-132264985Y65140773D01*
X-132197352Y65098292D01*
X-132157804Y65063593D01*
X-132142890Y65033719D01*
X-132149158Y65005716D01*
X-132173159Y64976628D01*
X-132188509Y64965671D01*
X-132238718Y64933997D01*
X-132319690Y64884767D01*
X-132428008Y64820001D01*
X-132560254Y64741721D01*
X-132713011Y64651946D01*
X-132882860Y64552699D01*
X-133066384Y64445999D01*
X-133260166Y64333868D01*
X-133409169Y64247979D01*
X-133594168Y64141719D01*
X-133765896Y64043501D01*
X-133921018Y63955211D01*
X-134056198Y63878735D01*
X-134168100Y63815957D01*
X-134253390Y63768763D01*
X-134308731Y63739039D01*
X-134330789Y63728669D01*
X-134335479Y63729226D01*
X-134374167Y63738343D01*
X-134442788Y63756925D01*
X-134533311Y63782749D01*
X-134637706Y63813593D01*
X-134648926Y63816952D01*
X-135210538Y63962977D01*
X-135776208Y64067167D01*
X-136344429Y64129522D01*
X-136913699Y64150042D01*
X-137482513Y64128726D01*
X-138049366Y64065576D01*
X-138612754Y63960590D01*
X-139171172Y63813768D01*
X-139204151Y63803853D01*
X-139304752Y63774181D01*
X-139388907Y63750207D01*
X-139448608Y63734176D01*
X-139475850Y63728334D01*
X-139493659Y63736571D01*
X-139545386Y63764255D01*
X-139627526Y63809654D01*
X-139736796Y63870911D01*
X-139869913Y63946168D01*
X-140023593Y64033570D01*
X-140194555Y64131259D01*
X-140379515Y64237378D01*
X-140575190Y64350072D01*
X-140709119Y64427395D01*
X-140917706Y64548115D01*
X-141093745Y64650527D01*
X-141239939Y64736316D01*
X-141358991Y64807170D01*
X-141453602Y64864775D01*
X-141526476Y64910817D01*
X-141580314Y64946982D01*
X-141617821Y64974957D01*
X-141641697Y64996429D01*
X-141654646Y65013083D01*
X-141659370Y65026607D01*
X-141660201Y65039020D01*
X-141655832Y65059136D01*
X-141639511Y65079777D01*
X-141606013Y65104541D01*
X-141550116Y65137025D01*
X-141466596Y65180828D01*
X-141350230Y65239548D01*
X-141136544Y65343397D01*
X-140546419Y65598516D01*
X-139944474Y65813732D01*
X-139332588Y65988980D01*
X-138712641Y66124193D01*
X-138086509Y66219306D01*
X-137456072Y66274254D01*
X-136823209Y66288969D01*
X-136189796Y66263388D01*
G37*
%TD*%
D11*
%TO.C,S1*%
X-5250000Y-14147000D03*
D12*
X-5250000Y-16947000D03*
D11*
X-5249999Y-20647000D03*
X5249999Y-14147000D03*
D12*
X5250000Y-16947000D03*
D11*
X5250000Y-20647000D03*
%TD*%
D13*
%TO.C,J8*%
X12664555Y21976665D03*
%TD*%
D14*
%TO.C,E2*%
X-135320314Y30189543D03*
X-123149648Y26928423D03*
D15*
X-124879025Y35156379D03*
X-129708653Y36450473D03*
X-127293838Y35803427D03*
X-133461529Y22444550D03*
X-128631901Y21150455D03*
%TD*%
D13*
%TO.C,J7*%
X129233299Y28558589D03*
%TD*%
%TO.C,J11*%
X17595069Y3575731D03*
%TD*%
%TO.C,J10*%
X-17596571Y3576445D03*
%TD*%
%TO.C,J6*%
X-129234612Y28559260D03*
%TD*%
%TO.C,J4*%
X-22527078Y-14824459D03*
%TD*%
%TO.C,J3*%
X22525585Y-14825202D03*
%TD*%
%TO.C,J12*%
X-124304105Y46960163D03*
%TD*%
%TO.C,J9*%
X124302784Y46959523D03*
%TD*%
D16*
%TO.C,E4*%
X123148374Y26928422D03*
X135319040Y30189542D03*
D17*
X129707378Y36450474D03*
X124877749Y35156379D03*
X127292564Y35803426D03*
X128630625Y21150454D03*
X133460255Y22444549D03*
%TD*%
D16*
%TO.C,E3*%
X118217871Y45329325D03*
X130388537Y48590445D03*
D17*
X124776875Y54851377D03*
X119947246Y53557282D03*
X122362061Y54204329D03*
X123700122Y39551357D03*
X128529752Y40845452D03*
%TD*%
D13*
%TO.C,J5*%
X-12666065Y21977346D03*
%TD*%
D14*
%TO.C,E1*%
X-130389809Y48590445D03*
X-118219143Y45329325D03*
D15*
X-119948520Y53557281D03*
X-124778148Y54851375D03*
X-122363333Y54204329D03*
X-128531024Y40845452D03*
X-123701396Y39551357D03*
%TD*%
D18*
%TO.C,C31*%
X-61263269Y6218226D03*
X-61664439Y4721040D03*
%TD*%
D19*
%TO.C,C1*%
X-480000Y15100000D03*
X480000Y15100000D03*
%TD*%
D20*
%TO.C,C50*%
X38947880Y15890632D03*
X38546712Y17387820D03*
%TD*%
D21*
%TO.C,D3*%
X-21183622Y25817125D03*
X-19348363Y25325370D03*
X-20783631Y23639394D03*
%TD*%
D22*
%TO.C,K37*%
X-131694949Y43680953D03*
D23*
X-129211379Y48274686D03*
D24*
X-124304476Y46959885D03*
D23*
X-119397573Y45645084D03*
D22*
X-117659477Y42549761D03*
D25*
X-121281699Y43520334D03*
D26*
X-118156434Y44442890D03*
X-119036882Y41157003D03*
X-116282071Y43942520D03*
X-117162987Y40654894D03*
X-133071892Y42289933D03*
X-132191440Y45575821D03*
X-130317544Y45073712D03*
X-131198460Y41786088D03*
D25*
X-128072728Y42710382D03*
%TD*%
D27*
%TO.C,K7*%
X7904184Y15442192D03*
D23*
X7758154Y20662266D03*
D24*
X12665057Y21977067D03*
D23*
X17571960Y23291868D03*
D27*
X20624856Y21480287D03*
D25*
X17002635Y20509715D03*
D26*
X20128366Y19585420D03*
X19247916Y22871307D03*
X21121345Y23375154D03*
X22002263Y20087529D03*
X6526778Y16834950D03*
X7407229Y13549064D03*
X8400674Y17337059D03*
X9281591Y14049434D03*
D25*
X11526406Y16412764D03*
%TD*%
D22*
%TO.C,K40*%
X-70417607Y-22043330D03*
D23*
X-67934037Y-17449597D03*
D24*
X-63027134Y-18764398D03*
D23*
X-58120231Y-20079199D03*
D22*
X-56382135Y-23174522D03*
D25*
X-60004357Y-22203949D03*
D26*
X-56879092Y-21281393D03*
X-57759540Y-24567280D03*
X-55004729Y-21781763D03*
X-55885645Y-25069389D03*
X-71794550Y-23434350D03*
X-70914098Y-20148462D03*
X-69040202Y-20650571D03*
X-69921118Y-23938195D03*
D25*
X-66795386Y-23013901D03*
%TD*%
D27*
%TO.C,K36*%
X111002438Y-1307302D03*
D23*
X110856408Y3912772D03*
D24*
X115763311Y5227573D03*
D23*
X120670214Y6542374D03*
D27*
X123723110Y4730793D03*
D25*
X120100889Y3760221D03*
D26*
X123226620Y2835926D03*
X122346170Y6121813D03*
X124219599Y6625660D03*
X125100517Y3338035D03*
X109625032Y85456D03*
X110505483Y-3200430D03*
X111498928Y587565D03*
X112379845Y-2700060D03*
D25*
X114624660Y-336730D03*
%TD*%
D28*
%TO.C,U1*%
X3403600Y7600000D03*
X3403600Y7200001D03*
X3403600Y6799999D03*
X3403600Y6400000D03*
X3403600Y6000001D03*
X3403600Y5599999D03*
X3403600Y5200000D03*
X3403600Y4800000D03*
X3403600Y4400001D03*
X3403600Y3999999D03*
X3403600Y3600000D03*
X3403600Y3200001D03*
X3403600Y2799999D03*
X3403600Y2400000D03*
D29*
X2600000Y1596400D03*
X2200001Y1596400D03*
X1799999Y1596400D03*
X1400000Y1596400D03*
X1000001Y1596400D03*
X599999Y1596400D03*
X200000Y1596400D03*
X-200000Y1596400D03*
X-599999Y1596400D03*
X-1000001Y1596400D03*
X-1400000Y1596400D03*
X-1799999Y1596400D03*
X-2200001Y1596400D03*
X-2600000Y1596400D03*
D28*
X-3403600Y2400000D03*
X-3403600Y2799999D03*
X-3403600Y3200001D03*
X-3403600Y3600000D03*
X-3403600Y3999999D03*
X-3403600Y4400001D03*
X-3403600Y4800000D03*
X-3403600Y5200000D03*
X-3403600Y5599999D03*
X-3403600Y6000001D03*
X-3403600Y6400000D03*
X-3403600Y6799999D03*
X-3403600Y7200001D03*
X-3403600Y7600000D03*
D29*
X-2600000Y8403600D03*
X-2200001Y8403600D03*
X-1799999Y8403600D03*
X-1400000Y8403600D03*
X-1000001Y8403600D03*
X-599999Y8403600D03*
X-200000Y8403600D03*
X200000Y8403600D03*
X599999Y8403600D03*
X1000001Y8403600D03*
X1400000Y8403600D03*
X1799999Y8403600D03*
X2200001Y8403600D03*
X2600000Y8403600D03*
D30*
X0Y5000000D03*
%TD*%
D31*
%TO.C,R11*%
X-146666583Y81059284D03*
X-145749813Y81506422D03*
%TD*%
D32*
%TO.C,LED26*%
X42776536Y-21725264D03*
D33*
X43726625Y-20344825D03*
D34*
X44008091Y-21395270D03*
D35*
X44008091Y-21395270D03*
D33*
X44008091Y-21395270D03*
X44008091Y-21395270D03*
X44289557Y-22445715D03*
D32*
X45239646Y-21065276D03*
D36*
X46617020Y-21472667D03*
X46228792Y-20023778D03*
X41399162Y-21317873D03*
X41787390Y-22766762D03*
%TD*%
D37*
%TO.C,C11*%
X3741590Y-3119742D03*
X3741590Y-2159742D03*
%TD*%
D21*
%TO.C,D22*%
X-35975143Y-29385582D03*
X-34139884Y-29877337D03*
X-35575152Y-31563313D03*
%TD*%
D38*
%TO.C,LED9*%
X-110832639Y28558972D03*
D39*
X-109319619Y29279421D03*
D34*
X-109601084Y28228978D03*
D35*
X-109601084Y28228978D03*
D39*
X-109601084Y28228978D03*
X-109601084Y28228978D03*
X-109882549Y27178535D03*
D38*
X-108369529Y27898984D03*
D40*
X-107380384Y26857486D03*
X-106992155Y28306375D03*
X-111821784Y29600470D03*
X-112210013Y28151581D03*
%TD*%
D32*
%TO.C,LED37*%
X50700124Y22307234D03*
D33*
X51650213Y23687673D03*
D34*
X51931679Y22637228D03*
D35*
X51931679Y22637228D03*
D33*
X51931679Y22637228D03*
X51931679Y22637228D03*
X52213145Y21586783D03*
D32*
X53163234Y22967222D03*
D36*
X54540608Y22559831D03*
X54152380Y24008720D03*
X49322750Y22714625D03*
X49710978Y21265736D03*
%TD*%
D41*
%TO.C,LED1*%
X-10201881Y26247578D03*
D42*
X-11714901Y25527129D03*
D34*
X-11433436Y26577572D03*
D35*
X-11433436Y26577572D03*
D42*
X-11433436Y26577572D03*
X-11433436Y26577572D03*
X-11151971Y27628015D03*
D41*
X-12664991Y26907566D03*
D43*
X-13654136Y27949064D03*
X-14042365Y26500175D03*
X-9212736Y25206080D03*
X-8824507Y26654969D03*
%TD*%
D44*
%TO.C,LED33*%
X40309130Y-2664343D03*
D45*
X39359041Y-4044782D03*
D34*
X39077575Y-2994337D03*
D35*
X39077575Y-2994337D03*
D45*
X39077575Y-2994337D03*
X39077575Y-2994337D03*
X38796109Y-1943892D03*
D44*
X37846020Y-3324331D03*
D46*
X36468646Y-2916940D03*
X36856874Y-4365829D03*
X41686504Y-3071734D03*
X41298276Y-1622845D03*
%TD*%
D47*
%TO.C,C28*%
X-29749343Y13425891D03*
X-29348173Y14923077D03*
%TD*%
D20*
%TO.C,C55*%
X132801489Y33642858D03*
X132400321Y35140046D03*
%TD*%
D18*
%TO.C,C30*%
X-43478681Y-1012394D03*
X-43879851Y-2509580D03*
%TD*%
D27*
%TO.C,K19*%
X12834792Y-2958709D03*
D23*
X12688762Y2261365D03*
D24*
X17595665Y3576166D03*
D23*
X22502568Y4890967D03*
D27*
X25555464Y3079386D03*
D25*
X21933243Y2108814D03*
D26*
X25058974Y1184519D03*
X24178524Y4470406D03*
X26051953Y4974253D03*
X26932871Y1686628D03*
X11457386Y-1565951D03*
X12337837Y-4851837D03*
X13331282Y-1063842D03*
X14212199Y-4351467D03*
D25*
X16457014Y-1988137D03*
%TD*%
D48*
%TO.C,R3*%
X-1999999Y11510000D03*
X-2000001Y10490000D03*
%TD*%
%TO.C,R5*%
X-999999Y-1039741D03*
X-1000001Y-2059741D03*
%TD*%
D49*
%TO.C,C48*%
X16492139Y-10709003D03*
X16893307Y-12206191D03*
%TD*%
D27*
%TO.C,K47*%
X124472834Y22024107D03*
D23*
X124326804Y27244181D03*
D24*
X129233707Y28558982D03*
D23*
X134140610Y29873783D03*
D27*
X137193506Y28062202D03*
D25*
X133571285Y27091630D03*
D26*
X136697016Y26167335D03*
X135816566Y29453222D03*
X137689995Y29957069D03*
X138570913Y26669444D03*
X123095428Y23416865D03*
X123975879Y20130979D03*
X124969324Y23918974D03*
X125850241Y20631349D03*
D25*
X128095056Y22994679D03*
%TD*%
D37*
%TO.C,C7*%
X-1Y10520000D03*
X-1Y11480000D03*
%TD*%
D20*
%TO.C,C53*%
X95999621Y23781827D03*
X95598453Y25279015D03*
%TD*%
D44*
%TO.C,LED43*%
X105900777Y46959235D03*
D45*
X104950688Y45578796D03*
D34*
X104669222Y46629241D03*
D35*
X104669222Y46629241D03*
D45*
X104669222Y46629241D03*
X104669222Y46629241D03*
X104387756Y47679686D03*
D44*
X103437667Y46299247D03*
D46*
X102060293Y46706638D03*
X102448521Y45257749D03*
X107278151Y46551844D03*
X106889923Y48000733D03*
%TD*%
D38*
%TO.C,LED10*%
X-92431736Y23628465D03*
D39*
X-90918716Y24348914D03*
D34*
X-91200181Y23298471D03*
D35*
X-91200181Y23298471D03*
D39*
X-91200181Y23298471D03*
X-91200181Y23298471D03*
X-91481646Y22248028D03*
D38*
X-89968626Y22968477D03*
D40*
X-88979481Y21926979D03*
X-88591252Y23375868D03*
X-93420881Y24669963D03*
X-93809110Y23221074D03*
%TD*%
D50*
%TO.C,R10*%
X-150513421Y79183055D03*
X-151430191Y78735917D03*
%TD*%
D21*
%TO.C,D2*%
X-57944142Y38132330D03*
X-56108883Y37640575D03*
X-57544151Y35954599D03*
%TD*%
D44*
%TO.C,LED47*%
X30448100Y34137524D03*
D45*
X29498011Y32757085D03*
D34*
X29216545Y33807530D03*
D35*
X29216545Y33807530D03*
D45*
X29216545Y33807530D03*
X29216545Y33807530D03*
X28935079Y34857975D03*
D44*
X27984990Y33477536D03*
D46*
X26607616Y33884927D03*
X26995844Y32436038D03*
X31825474Y33730133D03*
X31437246Y35179022D03*
%TD*%
D51*
%TO.C,SW2*%
X1200000Y-4450001D03*
X1199999Y-8550001D03*
X2800001Y-4449999D03*
X2800000Y-8549999D03*
%TD*%
D32*
%TO.C,LED39*%
X89967249Y22967798D03*
D33*
X90917338Y24348237D03*
D34*
X91198804Y23297792D03*
D35*
X91198804Y23297792D03*
D33*
X91198804Y23297792D03*
X91198804Y23297792D03*
X91480270Y22247347D03*
D32*
X92430359Y23627786D03*
D36*
X93807733Y23220395D03*
X93419505Y24669284D03*
X88589875Y23375189D03*
X88978103Y21926300D03*
%TD*%
D52*
%TO.C,D23*%
X35864969Y-29415104D03*
X37700228Y-28923347D03*
X37300237Y-31101076D03*
%TD*%
D27*
%TO.C,K32*%
X35549890Y-14128989D03*
D23*
X35403860Y-8908915D03*
D24*
X40310763Y-7594114D03*
D23*
X45217666Y-6279313D03*
D27*
X48270562Y-8090894D03*
D25*
X44648341Y-9061466D03*
D26*
X47774072Y-9985761D03*
X46893622Y-6699874D03*
X48767051Y-6196027D03*
X49647969Y-9483652D03*
X34172484Y-12736231D03*
X35052935Y-16022117D03*
X36046380Y-12234122D03*
X36927297Y-15521747D03*
D25*
X39172112Y-13158417D03*
%TD*%
D27*
%TO.C,K43*%
X18095583Y-40993140D03*
D23*
X17949553Y-35773066D03*
D24*
X22856456Y-34458265D03*
D23*
X27763359Y-33143464D03*
D27*
X30816255Y-34955045D03*
D25*
X27194034Y-35925617D03*
D26*
X30319765Y-36849912D03*
X29439315Y-33564025D03*
X31312744Y-33060178D03*
X32193662Y-36347803D03*
X16718177Y-39600382D03*
X17598628Y-42886268D03*
X18592073Y-39098273D03*
X19472990Y-42385898D03*
D25*
X21717805Y-40022568D03*
%TD*%
D20*
%TO.C,C51*%
X56732497Y23121263D03*
X56331329Y24618451D03*
%TD*%
D44*
%TO.C,LED30*%
X97360873Y5226853D03*
D45*
X96410784Y3846414D03*
D34*
X96129318Y4896859D03*
D35*
X96129318Y4896859D03*
D45*
X96129318Y4896859D03*
X96129318Y4896859D03*
X95847852Y5947304D03*
D44*
X94897763Y4566865D03*
D46*
X93520389Y4974256D03*
X93908617Y3525367D03*
X98738247Y4819462D03*
X98350019Y6268351D03*
%TD*%
D53*
%TO.C,D20*%
X-131653058Y49853019D03*
X-132144813Y48017760D03*
X-133830789Y49453028D03*
%TD*%
D41*
%TO.C,LED3*%
X-45771454Y40708637D03*
D42*
X-47284474Y39988188D03*
D34*
X-47003009Y41038631D03*
D35*
X-47003009Y41038631D03*
D42*
X-47003009Y41038631D03*
X-47003009Y41038631D03*
X-46721544Y42089074D03*
D41*
X-48234564Y41368625D03*
D43*
X-49223709Y42410123D03*
X-49611938Y40961234D03*
X-44782309Y39667139D03*
X-44394080Y41116028D03*
%TD*%
D22*
%TO.C,K27*%
X-84504316Y-1012033D03*
D23*
X-82020746Y3581700D03*
D24*
X-77113843Y2266899D03*
D23*
X-72206940Y952098D03*
D22*
X-70468844Y-2143225D03*
D25*
X-74091066Y-1172652D03*
D26*
X-70965801Y-250096D03*
X-71846249Y-3535983D03*
X-69091438Y-750466D03*
X-69972354Y-4038092D03*
X-85881259Y-2403053D03*
X-85000807Y882835D03*
X-83126911Y380726D03*
X-84007827Y-2906898D03*
D25*
X-80882095Y-1982604D03*
%TD*%
D22*
%TO.C,K3*%
X-74643302Y35789771D03*
D23*
X-72159732Y40383504D03*
D24*
X-67252829Y39068703D03*
D23*
X-62345926Y37753902D03*
D22*
X-60607830Y34658579D03*
D25*
X-64230052Y35629152D03*
D26*
X-61104787Y36551708D03*
X-61985235Y33265821D03*
X-59230424Y36051338D03*
X-60111340Y32763712D03*
X-76020245Y34398751D03*
X-75139793Y37684639D03*
X-73265897Y37182530D03*
X-74146813Y33894906D03*
D25*
X-71021081Y34819200D03*
%TD*%
D27*
%TO.C,K10*%
X62490680Y32533827D03*
D23*
X62344650Y37753901D03*
D24*
X67251553Y39068702D03*
D23*
X72158456Y40383503D03*
D27*
X75211352Y38571922D03*
D25*
X71589131Y37601350D03*
D26*
X74714862Y36677055D03*
X73834412Y39962942D03*
X75707841Y40466789D03*
X76588759Y37179164D03*
X61113274Y33926585D03*
X61993725Y30640699D03*
X62987170Y34428694D03*
X63868087Y31141069D03*
D25*
X66112902Y33504399D03*
%TD*%
D27*
%TO.C,K44*%
X40480396Y-32529891D03*
D23*
X40334366Y-27309817D03*
D24*
X45241269Y-25995016D03*
D23*
X50148172Y-24680215D03*
D27*
X53201068Y-26491796D03*
D25*
X49578847Y-27462368D03*
D26*
X52704578Y-28386663D03*
X51824128Y-25100776D03*
X53697557Y-24596929D03*
X54578475Y-27884554D03*
X39102990Y-31137133D03*
X39983441Y-34423019D03*
X40976886Y-30635024D03*
X41857803Y-33922649D03*
D25*
X44102618Y-31559319D03*
%TD*%
D49*
%TO.C,C62*%
X6631109Y26092863D03*
X7032277Y24595675D03*
%TD*%
D44*
%TO.C,LED46*%
X48232719Y41368157D03*
D45*
X47282630Y39987718D03*
D34*
X47001164Y41038163D03*
D35*
X47001164Y41038163D03*
D45*
X47001164Y41038163D03*
X47001164Y41038163D03*
X46719698Y42088608D03*
D44*
X45769609Y40708169D03*
D46*
X44392235Y41115560D03*
X44780463Y39666671D03*
X49610093Y40960766D03*
X49221865Y42409655D03*
%TD*%
D19*
%TO.C,C4*%
X-480001Y18100000D03*
X479999Y18100000D03*
%TD*%
D27*
%TO.C,K22*%
X67421187Y14132925D03*
D23*
X67275157Y19352999D03*
D24*
X72182060Y20667800D03*
D23*
X77088963Y21982601D03*
D27*
X80141859Y20171020D03*
D25*
X76519638Y19200448D03*
D26*
X79645369Y18276153D03*
X78764919Y21562040D03*
X80638348Y22065887D03*
X81519266Y18778262D03*
X66043781Y15525683D03*
X66924232Y12239797D03*
X67917677Y16027792D03*
X68798594Y12740167D03*
D25*
X71043409Y15103497D03*
%TD*%
D41*
%TO.C,LED7*%
X-121839924Y51230394D03*
D42*
X-123352944Y50509945D03*
D34*
X-123071479Y51560388D03*
D35*
X-123071479Y51560388D03*
D42*
X-123071479Y51560388D03*
X-123071479Y51560388D03*
X-122790014Y52610831D03*
D41*
X-124303034Y51890382D03*
D43*
X-125292179Y52931880D03*
X-125680408Y51482991D03*
X-120850779Y50188896D03*
X-120462550Y51637785D03*
%TD*%
D20*
%TO.C,C54*%
X114400554Y28712342D03*
X113999386Y30209530D03*
%TD*%
D38*
%TO.C,LED21*%
X-82042907Y-11203508D03*
D39*
X-80529887Y-10483059D03*
D34*
X-80811352Y-11533502D03*
D35*
X-80811352Y-11533502D03*
D39*
X-80811352Y-11533502D03*
X-80811352Y-11533502D03*
X-81092817Y-12583945D03*
D38*
X-79579797Y-11863496D03*
D40*
X-78590652Y-12904994D03*
X-78202423Y-11456105D03*
X-83032052Y-10162010D03*
X-83420281Y-11610899D03*
%TD*%
D54*
%TO.C,D26*%
X-147060699Y79643200D03*
X-146188869Y80068418D03*
%TD*%
D22*
%TO.C,K1*%
X-113294047Y38750446D03*
D23*
X-110810477Y43344179D03*
D24*
X-105903574Y42029378D03*
D23*
X-100996671Y40714577D03*
D22*
X-99258575Y37619254D03*
D25*
X-102880797Y38589827D03*
D26*
X-99755532Y39512383D03*
X-100635980Y36226496D03*
X-97881169Y39012013D03*
X-98762085Y35724387D03*
X-114670990Y37359426D03*
X-113790538Y40645314D03*
X-111916642Y40143205D03*
X-112797558Y36855581D03*
D25*
X-109671826Y37779875D03*
%TD*%
D19*
%TO.C,C2*%
X-480001Y16099999D03*
X479999Y16099999D03*
%TD*%
D49*
%TO.C,C44*%
X91328501Y4412824D03*
X91729669Y2915636D03*
%TD*%
D41*
%TO.C,LED5*%
X-85038119Y41369380D03*
D42*
X-86551139Y40648931D03*
D34*
X-86269674Y41699374D03*
D35*
X-86269674Y41699374D03*
D42*
X-86269674Y41699374D03*
X-86269674Y41699374D03*
X-85988209Y42749817D03*
D41*
X-87501229Y42029368D03*
D43*
X-88490374Y43070866D03*
X-88878603Y41621977D03*
X-84048974Y40327882D03*
X-83660745Y41776771D03*
%TD*%
D20*
%TO.C,C40*%
X48808908Y-20911235D03*
X48407740Y-19414047D03*
%TD*%
D55*
%TO.C,Y1*%
X2375000Y-2749742D03*
X625000Y-2749740D03*
X625000Y-1349740D03*
X2375000Y-1349742D03*
%TD*%
D56*
%TO.C,D13*%
X-149097839Y73976692D03*
X-147870397Y71460070D03*
%TD*%
D38*
%TO.C,LED12*%
X-53164677Y22967903D03*
D39*
X-51651657Y23688352D03*
D34*
X-51933122Y22637909D03*
D35*
X-51933122Y22637909D03*
D39*
X-51933122Y22637909D03*
X-51933122Y22637909D03*
X-52214587Y21587466D03*
D38*
X-50701567Y22307915D03*
D40*
X-49712422Y21266417D03*
X-49324193Y22715306D03*
X-54153822Y24009401D03*
X-54542051Y22560512D03*
%TD*%
D20*
%TO.C,C39*%
X26424056Y-29374496D03*
X26022888Y-27877308D03*
%TD*%
D32*
%TO.C,LED40*%
X108368182Y27898313D03*
D33*
X109318271Y29278752D03*
D34*
X109599737Y28228307D03*
D35*
X109599737Y28228307D03*
D33*
X109599737Y28228307D03*
X109599737Y28228307D03*
X109881203Y27177862D03*
D32*
X110831292Y28558301D03*
D36*
X112208666Y28150910D03*
X111820438Y29599799D03*
X106990808Y28305704D03*
X107379036Y26856815D03*
%TD*%
D57*
%TO.C,D27*%
X-149154889Y78621793D03*
X-150026719Y78196575D03*
%TD*%
D27*
%TO.C,K45*%
X58264985Y-25299274D03*
D23*
X58118955Y-20079200D03*
D24*
X63025858Y-18764399D03*
D23*
X67932761Y-17449598D03*
D27*
X70985657Y-19261179D03*
D25*
X67363436Y-20231751D03*
D26*
X70489167Y-21156046D03*
X69608717Y-17870159D03*
X71482146Y-17366312D03*
X72363064Y-20653937D03*
X56887579Y-23906516D03*
X57768030Y-27192402D03*
X58761475Y-23404407D03*
X59642392Y-26692032D03*
D25*
X61887207Y-24328702D03*
%TD*%
D44*
%TO.C,LED44*%
X87499843Y42028720D03*
D45*
X86549754Y40648281D03*
D34*
X86268288Y41698726D03*
D35*
X86268288Y41698726D03*
D45*
X86268288Y41698726D03*
X86268288Y41698726D03*
X85986822Y42749171D03*
D44*
X85036733Y41368732D03*
D46*
X83659359Y41776123D03*
X84047587Y40327234D03*
X88877217Y41621329D03*
X88488989Y43070218D03*
%TD*%
D21*
%TO.C,D21*%
X-72735663Y-17070377D03*
X-70900404Y-17562132D03*
X-72335672Y-19248108D03*
%TD*%
D44*
%TO.C,LED32*%
X58093749Y4566289D03*
D45*
X57143660Y3185850D03*
D34*
X56862194Y4236295D03*
D35*
X56862194Y4236295D03*
D45*
X56862194Y4236295D03*
X56862194Y4236295D03*
X56580728Y5286740D03*
D44*
X55630639Y3906301D03*
D46*
X54253265Y4313692D03*
X54641493Y2864803D03*
X59471123Y4158898D03*
X59082895Y5607787D03*
%TD*%
D18*
%TO.C,C18*%
X-51402321Y43019788D03*
X-51803491Y41522602D03*
%TD*%
D58*
%TO.C,U2*%
X-144522906Y73607327D03*
X-146230614Y72774422D03*
X-146198707Y74876113D03*
%TD*%
D37*
%TO.C,C9*%
X-5999999Y10520000D03*
X-5999999Y11480000D03*
%TD*%
D49*
%TO.C,C43*%
X109729434Y9343339D03*
X110130602Y7846151D03*
%TD*%
D18*
%TO.C,C20*%
X-90669314Y43680594D03*
X-91070484Y42183408D03*
%TD*%
D38*
%TO.C,LED22*%
X-63025691Y-13833902D03*
D39*
X-61512671Y-13113453D03*
D34*
X-61794136Y-14163896D03*
D35*
X-61794136Y-14163896D03*
D39*
X-61794136Y-14163896D03*
X-61794136Y-14163896D03*
X-62075601Y-15214339D03*
D38*
X-60562581Y-14493890D03*
D40*
X-59573436Y-15535388D03*
X-59185207Y-14086499D03*
X-64014836Y-12792404D03*
X-64403065Y-14241293D03*
%TD*%
D22*
%TO.C,K18*%
X-24987311Y297247D03*
D23*
X-22503741Y4890980D03*
D24*
X-17596838Y3576179D03*
D23*
X-12689935Y2261378D03*
D22*
X-10951839Y-833945D03*
D25*
X-14574061Y136628D03*
D26*
X-11448796Y1059184D03*
X-12329244Y-2226703D03*
X-9574433Y558814D03*
X-10455349Y-2728812D03*
X-26364254Y-1093773D03*
X-25483802Y2192115D03*
X-23609906Y1690006D03*
X-24490822Y-1597618D03*
D25*
X-21365090Y-673324D03*
%TD*%
D59*
%TO.C,D7*%
X-101965595Y18942326D03*
X-101473840Y20777585D03*
X-99787864Y19342317D03*
%TD*%
D47*
%TO.C,C27*%
X-47533963Y20656524D03*
X-47132793Y22153710D03*
%TD*%
D60*
%TO.C,C14*%
X-142981825Y73983459D03*
X-143661301Y75376591D03*
%TD*%
D38*
%TO.C,LED11*%
X-72181891Y25598297D03*
D39*
X-70668871Y26318746D03*
D34*
X-70950336Y25268303D03*
D35*
X-70950336Y25268303D03*
D39*
X-70950336Y25268303D03*
X-70950336Y25268303D03*
X-71231801Y24217860D03*
D38*
X-69718781Y24938309D03*
D40*
X-68729636Y23896811D03*
X-68341407Y25345700D03*
X-73171036Y26639795D03*
X-73559265Y25190906D03*
%TD*%
D49*
%TO.C,C58*%
X81467471Y41214691D03*
X81868639Y39717503D03*
%TD*%
D18*
%TO.C,C17*%
X-33617667Y35789411D03*
X-34018837Y34292225D03*
%TD*%
D37*
%TO.C,C10*%
X-5000001Y10520001D03*
X-5000001Y11480001D03*
%TD*%
D22*
%TO.C,K41*%
X-52633016Y-29273949D03*
D23*
X-50149446Y-24680216D03*
D24*
X-45242543Y-25995017D03*
D23*
X-40335640Y-27309818D03*
D22*
X-38597544Y-30405141D03*
D25*
X-42219766Y-29434568D03*
D26*
X-39094501Y-28512012D03*
X-39974949Y-31797899D03*
X-37220138Y-29012382D03*
X-38101054Y-32300008D03*
X-54009959Y-30664969D03*
X-53129507Y-27379081D03*
X-51255611Y-27881190D03*
X-52136527Y-31168814D03*
D25*
X-49010795Y-30244520D03*
%TD*%
D61*
%TO.C,R15*%
X129409317Y37594602D03*
X129145321Y38579846D03*
%TD*%
D41*
%TO.C,LED16*%
X-37847485Y-3323609D03*
D42*
X-39360505Y-4044058D03*
D34*
X-39079040Y-2993615D03*
D35*
X-39079040Y-2993615D03*
D42*
X-39079040Y-2993615D03*
X-39079040Y-2993615D03*
X-38797575Y-1943172D03*
D41*
X-40310595Y-2663621D03*
D43*
X-41299740Y-1622123D03*
X-41687969Y-3071012D03*
X-36858340Y-4365107D03*
X-36470111Y-2916218D03*
%TD*%
D59*
%TO.C,D14*%
X-106896102Y541424D03*
X-106404347Y2376683D03*
X-104718371Y941415D03*
%TD*%
D22*
%TO.C,K13*%
X-118224554Y20349544D03*
D23*
X-115740984Y24943277D03*
D24*
X-110834081Y23628476D03*
D23*
X-105927178Y22313675D03*
D22*
X-104189082Y19218352D03*
D25*
X-107811304Y20188925D03*
D26*
X-104686039Y21111481D03*
X-105566487Y17825594D03*
X-102811676Y20611111D03*
X-103692592Y17323485D03*
X-119601497Y18958524D03*
X-118721045Y22244412D03*
X-116847149Y21742303D03*
X-117728065Y18454679D03*
D25*
X-114602333Y19378973D03*
%TD*%
D20*
%TO.C,C49*%
X21163259Y8659999D03*
X20762091Y10157187D03*
%TD*%
D22*
%TO.C,K14*%
X-99823651Y15419037D03*
D23*
X-97340081Y20012770D03*
D24*
X-92433178Y18697969D03*
D23*
X-87526275Y17383168D03*
D22*
X-85788179Y14287845D03*
D25*
X-89410401Y15258418D03*
D26*
X-86285136Y16180974D03*
X-87165584Y12895087D03*
X-84410773Y15680604D03*
X-85291689Y12392978D03*
X-101200594Y14028017D03*
X-100320142Y17313905D03*
X-98446246Y16811796D03*
X-99327162Y13524172D03*
D25*
X-96201430Y14448466D03*
%TD*%
D27*
%TO.C,K12*%
X101141424Y35494504D03*
D23*
X100995394Y40714578D03*
D24*
X105902297Y42029379D03*
D23*
X110809200Y43344180D03*
D27*
X113862096Y41532599D03*
D25*
X110239875Y40562027D03*
D26*
X113365606Y39637732D03*
X112485156Y42923619D03*
X114358585Y43427466D03*
X115239503Y40139841D03*
X99764018Y36887262D03*
X100644469Y33601376D03*
X101637914Y37389371D03*
X102518831Y34101746D03*
D25*
X104763646Y36465076D03*
%TD*%
D47*
%TO.C,C63*%
X-11964725Y6195261D03*
X-11563555Y7692447D03*
%TD*%
D27*
%TO.C,K11*%
X82740524Y30563995D03*
D23*
X82594494Y35784069D03*
D24*
X87501397Y37098870D03*
D23*
X92408300Y38413671D03*
D27*
X95461196Y36602090D03*
D25*
X91838975Y35631518D03*
D26*
X94964706Y34707223D03*
X94084256Y37993110D03*
X95957685Y38496957D03*
X96838603Y35209332D03*
X81363118Y31956753D03*
X82243569Y28670867D03*
X83237014Y32458862D03*
X84117931Y29171237D03*
D25*
X86362746Y31534567D03*
%TD*%
D61*
%TO.C,R14*%
X124538463Y36299812D03*
X124274467Y37285056D03*
%TD*%
D62*
%TO.C,C15*%
X-145169186Y70997374D03*
X-143776054Y71676850D03*
%TD*%
D52*
%TO.C,D5*%
X57988046Y37527780D03*
X59823305Y38019537D03*
X59423314Y35841808D03*
%TD*%
D21*
%TO.C,D9*%
X-26114129Y7416223D03*
X-24278870Y6924468D03*
X-25714138Y5238492D03*
%TD*%
D32*
%TO.C,LED38*%
X69717371Y24937634D03*
D33*
X70667460Y26318073D03*
D34*
X70948926Y25267628D03*
D35*
X70948926Y25267628D03*
D33*
X70948926Y25267628D03*
X70948926Y25267628D03*
X71230392Y24217183D03*
D32*
X72180481Y25597622D03*
D36*
X73557855Y25190231D03*
X73169627Y26639120D03*
X68339997Y25345025D03*
X68728225Y23896136D03*
%TD*%
D37*
%TO.C,C6*%
X-7999998Y10520000D03*
X-7999998Y11480000D03*
%TD*%
D63*
%TO.C,R13*%
X-124567750Y36318013D03*
X-124303754Y37303257D03*
%TD*%
D38*
%TO.C,LED14*%
X-17595498Y8506663D03*
D39*
X-16082478Y9227112D03*
D34*
X-16363943Y8176669D03*
D35*
X-16363943Y8176669D03*
D39*
X-16363943Y8176669D03*
X-16363943Y8176669D03*
X-16645408Y7126226D03*
D38*
X-15132388Y7846675D03*
D40*
X-14143243Y6805177D03*
X-13755014Y8254066D03*
X-18584643Y9548161D03*
X-18972872Y8099272D03*
%TD*%
D64*
%TO.C,R7*%
X-7568002Y24592622D03*
X-7831998Y23607378D03*
%TD*%
D27*
%TO.C,K33*%
X53334479Y-6898371D03*
D23*
X53188449Y-1678297D03*
D24*
X58095352Y-363496D03*
D23*
X63002255Y951305D03*
D27*
X66055151Y-860276D03*
D25*
X62432930Y-1830848D03*
D26*
X65558661Y-2755143D03*
X64678211Y530744D03*
X66551640Y1034591D03*
X67432558Y-2253034D03*
X51957073Y-5505613D03*
X52837524Y-8791499D03*
X53830969Y-5003504D03*
X54711886Y-8291129D03*
D25*
X56956701Y-5927799D03*
%TD*%
D52*
%TO.C,D19*%
X106962040Y1961566D03*
X108797299Y2453323D03*
X108397308Y275594D03*
%TD*%
D47*
%TO.C,C24*%
X-105201442Y26247760D03*
X-104800272Y27744946D03*
%TD*%
D22*
%TO.C,K4*%
X-55626085Y33159377D03*
D23*
X-53142515Y37753110D03*
D24*
X-48235612Y36438309D03*
D23*
X-43328709Y35123508D03*
D22*
X-41590613Y32028185D03*
D25*
X-45212835Y32998758D03*
D26*
X-42087570Y33921314D03*
X-42968018Y30635427D03*
X-40213207Y33420944D03*
X-41094123Y30133318D03*
X-57003028Y31768357D03*
X-56122576Y35054245D03*
X-54248680Y34552136D03*
X-55129596Y31264512D03*
D25*
X-52003864Y32188806D03*
%TD*%
D65*
%TO.C,R8*%
X3019999Y9940000D03*
X3020001Y10960000D03*
%TD*%
D49*
%TO.C,C47*%
X34276758Y-3478372D03*
X34677926Y-4975560D03*
%TD*%
D66*
%TO.C,D25*%
X135478787Y41076605D03*
X135970544Y39241346D03*
X133792815Y39641337D03*
%TD*%
D27*
%TO.C,K48*%
X119542331Y40425010D03*
D23*
X119396301Y45645084D03*
D24*
X124303204Y46959885D03*
D23*
X129210107Y48274686D03*
D27*
X132263003Y46463105D03*
D25*
X128640782Y45492533D03*
D26*
X131766513Y44568238D03*
X130886063Y47854125D03*
X132759492Y48357972D03*
X133640410Y45070347D03*
X118164925Y41817768D03*
X119045376Y38531882D03*
X120038821Y42319877D03*
X120919738Y39032252D03*
D25*
X123164553Y41395582D03*
%TD*%
D27*
%TO.C,K8*%
X25688875Y22672815D03*
D23*
X25542845Y27892889D03*
D24*
X30449748Y29207690D03*
D23*
X35356651Y30522491D03*
D27*
X38409547Y28710910D03*
D25*
X34787326Y27740338D03*
D26*
X37913057Y26816043D03*
X37032607Y30101930D03*
X38906036Y30605777D03*
X39786954Y27318152D03*
X24311469Y24065573D03*
X25191920Y20779687D03*
X26185365Y24567682D03*
X27066282Y21280057D03*
D25*
X29311097Y23643387D03*
%TD*%
D22*
%TO.C,K16*%
X-60556593Y14758475D03*
D23*
X-58073023Y19352208D03*
D24*
X-53166120Y18037407D03*
D23*
X-48259217Y16722606D03*
D22*
X-46521121Y13627283D03*
D25*
X-50143343Y14597856D03*
D26*
X-47018078Y15520412D03*
X-47898526Y12234525D03*
X-45143715Y15020042D03*
X-46024631Y11732416D03*
X-61933536Y13367455D03*
X-61053084Y16653343D03*
X-59179188Y16151234D03*
X-60060104Y12863610D03*
D25*
X-56934372Y13787904D03*
%TD*%
D22*
%TO.C,K30*%
X-29917110Y-18103637D03*
D23*
X-27433540Y-13509904D03*
D24*
X-22526637Y-14824705D03*
D23*
X-17619734Y-16139506D03*
D22*
X-15881638Y-19234829D03*
D25*
X-19503860Y-18264256D03*
D26*
X-16378595Y-17341700D03*
X-17259043Y-20627587D03*
X-14504232Y-17842070D03*
X-15385148Y-21129696D03*
X-31294053Y-19494657D03*
X-30413601Y-16208769D03*
X-28539705Y-16710878D03*
X-29420621Y-19998502D03*
D25*
X-26294889Y-19074208D03*
%TD*%
D22*
%TO.C,K5*%
X-37841497Y25928757D03*
D23*
X-35357927Y30522490D03*
D24*
X-30451024Y29207689D03*
D23*
X-25544121Y27892888D03*
D22*
X-23806025Y24797565D03*
D25*
X-27428247Y25768138D03*
D26*
X-24302982Y26690694D03*
X-25183430Y23404807D03*
X-22428619Y26190324D03*
X-23309535Y22902698D03*
X-39218440Y24537737D03*
X-38337988Y27823625D03*
X-36464092Y27321516D03*
X-37345008Y24033892D03*
D25*
X-34219276Y24958186D03*
%TD*%
D48*
%TO.C,R4*%
X-6999999Y11510000D03*
X-7000001Y10490000D03*
%TD*%
D22*
%TO.C,K38*%
X-136625454Y25280051D03*
D23*
X-134141884Y29873784D03*
D24*
X-129234981Y28558983D03*
D23*
X-124328078Y27244182D03*
D22*
X-122589982Y24148859D03*
D25*
X-126212204Y25119432D03*
D26*
X-123086939Y26041988D03*
X-123967387Y22756101D03*
X-121212576Y25541618D03*
X-122093492Y22253992D03*
X-138002397Y23889031D03*
X-137121945Y27174919D03*
X-135248049Y26672810D03*
X-136128965Y23385186D03*
D25*
X-133003233Y24309480D03*
%TD*%
D19*
%TO.C,C3*%
X-479999Y17100000D03*
X480001Y17100000D03*
%TD*%
D18*
%TO.C,C29*%
X-25694092Y-8243015D03*
X-26095262Y-9740201D03*
%TD*%
D41*
%TO.C,LED4*%
X-64788276Y43339210D03*
D42*
X-66301296Y42618761D03*
D34*
X-66019831Y43669204D03*
D35*
X-66019831Y43669204D03*
D42*
X-66019831Y43669204D03*
X-66019831Y43669204D03*
X-65738366Y44719647D03*
D41*
X-67251386Y43999198D03*
D43*
X-68240531Y45040696D03*
X-68628760Y43591807D03*
X-63799131Y42297712D03*
X-63410902Y43746601D03*
%TD*%
D18*
%TO.C,C22*%
X-127471119Y53541607D03*
X-127872289Y52044421D03*
%TD*%
D59*
%TO.C,D1*%
X-97035088Y37343229D03*
X-96543333Y39178488D03*
X-94857357Y37743220D03*
%TD*%
D27*
%TO.C,K20*%
X30619381Y4271912D03*
D23*
X30473351Y9491986D03*
D24*
X35380254Y10806787D03*
D23*
X40287157Y12121588D03*
D27*
X43340053Y10310007D03*
D25*
X39717832Y9339435D03*
D26*
X42843563Y8415140D03*
X41963113Y11701027D03*
X43836542Y12204874D03*
X44717460Y8917249D03*
X29241975Y5664670D03*
X30122426Y2378784D03*
X31115871Y6166779D03*
X31996788Y2879154D03*
D25*
X34241603Y5242484D03*
%TD*%
D27*
%TO.C,K46*%
X77282201Y-22668879D03*
D23*
X77136171Y-17448805D03*
D24*
X82043074Y-16134004D03*
D23*
X86949977Y-14819203D03*
D27*
X90002873Y-16630784D03*
D25*
X86380652Y-17601356D03*
D26*
X89506383Y-18525651D03*
X88625933Y-15239764D03*
X90499362Y-14735917D03*
X91380280Y-18023542D03*
X75904795Y-21276121D03*
X76785246Y-24562007D03*
X77778691Y-20774012D03*
X78659608Y-24061637D03*
D25*
X80904423Y-21698307D03*
%TD*%
D52*
%TO.C,D18*%
X67849060Y725976D03*
X69684319Y1217733D03*
X69284328Y-959996D03*
%TD*%
D48*
%TO.C,R1*%
X-3499998Y-1990001D03*
X-3500000Y-3010001D03*
%TD*%
D22*
%TO.C,K2*%
X-94893142Y33819940D03*
D23*
X-92409572Y38413673D03*
D24*
X-87502669Y37098872D03*
D23*
X-82595766Y35784071D03*
D22*
X-80857670Y32688748D03*
D25*
X-84479892Y33659321D03*
D26*
X-81354627Y34581877D03*
X-82235075Y31295990D03*
X-79480264Y34081507D03*
X-80361180Y30793881D03*
X-96270085Y32428920D03*
X-95389633Y35714808D03*
X-93515737Y35212699D03*
X-94396653Y31925075D03*
D25*
X-91270921Y32849369D03*
%TD*%
D44*
%TO.C,LED31*%
X77110998Y7196688D03*
D45*
X76160909Y5816249D03*
D34*
X75879443Y6866694D03*
D35*
X75879443Y6866694D03*
D45*
X75879443Y6866694D03*
X75879443Y6866694D03*
X75597977Y7917139D03*
D44*
X74647888Y6536700D03*
D46*
X73270514Y6944091D03*
X73658742Y5495202D03*
X78488372Y6789297D03*
X78100144Y8238186D03*
%TD*%
D19*
%TO.C,C5*%
X-480002Y19100000D03*
X479998Y19100000D03*
%TD*%
D37*
%TO.C,C8*%
X-3000002Y10520000D03*
X-3000002Y11480000D03*
%TD*%
D47*
%TO.C,C25*%
X-86801087Y21317088D03*
X-86399917Y22814274D03*
%TD*%
D63*
%TO.C,R12*%
X-129397379Y37612108D03*
X-129133383Y38597352D03*
%TD*%
D52*
%TO.C,D17*%
X30934462Y-11014201D03*
X32769721Y-10522444D03*
X32369730Y-12700173D03*
%TD*%
D18*
%TO.C,C16*%
X-15833078Y28558792D03*
X-16234248Y27061606D03*
%TD*%
D22*
%TO.C,K42*%
X-30248203Y-37737198D03*
D23*
X-27764633Y-33143465D03*
D24*
X-22857730Y-34458266D03*
D23*
X-17950827Y-35773067D03*
D22*
X-16212731Y-38868390D03*
D25*
X-19834953Y-37897817D03*
D26*
X-16709688Y-36975261D03*
X-17590136Y-40261148D03*
X-14835325Y-37475631D03*
X-15716241Y-40763257D03*
X-31625146Y-39128218D03*
X-30744694Y-35842330D03*
X-28870798Y-36344439D03*
X-29751714Y-39632063D03*
D25*
X-26625982Y-38707769D03*
%TD*%
D52*
%TO.C,D24*%
X72779567Y-17674927D03*
X74614826Y-17183170D03*
X74214835Y-19360899D03*
%TD*%
D41*
%TO.C,LED2*%
X-27986472Y33478196D03*
D42*
X-29499492Y32757747D03*
D34*
X-29218027Y33808190D03*
D35*
X-29218027Y33808190D03*
D42*
X-29218027Y33808190D03*
X-29218027Y33808190D03*
X-28936562Y34858633D03*
D41*
X-30449582Y34138184D03*
D43*
X-31438727Y35179682D03*
X-31826956Y33730793D03*
X-26997327Y32436698D03*
X-26609098Y33885587D03*
%TD*%
D41*
%TO.C,LED15*%
X-20062896Y-10554227D03*
D42*
X-21575916Y-11274676D03*
D34*
X-21294451Y-10224233D03*
D35*
X-21294451Y-10224233D03*
D42*
X-21294451Y-10224233D03*
X-21294451Y-10224233D03*
X-21012986Y-9173790D03*
D41*
X-22526006Y-9894239D03*
D43*
X-23515151Y-8852741D03*
X-23903380Y-10301630D03*
X-19073751Y-11595725D03*
X-18685522Y-10146836D03*
%TD*%
D20*
%TO.C,C41*%
X66593528Y-13680603D03*
X66192360Y-12183415D03*
%TD*%
D44*
%TO.C,LED34*%
X22524512Y-9894976D03*
D45*
X21574423Y-11275415D03*
D34*
X21292957Y-10224970D03*
D35*
X21292957Y-10224970D03*
D45*
X21292957Y-10224970D03*
X21292957Y-10224970D03*
X21011491Y-9174525D03*
D44*
X20061402Y-10554964D03*
D46*
X18684028Y-10147573D03*
X19072256Y-11596462D03*
X23901886Y-10302367D03*
X23513658Y-8853478D03*
%TD*%
D38*
%TO.C,LED24*%
X-22856287Y-29527768D03*
D39*
X-21343267Y-28807319D03*
D34*
X-21624732Y-29857762D03*
D35*
X-21624732Y-29857762D03*
D39*
X-21624732Y-29857762D03*
X-21624732Y-29857762D03*
X-21906197Y-30908205D03*
D38*
X-20393177Y-30187756D03*
D40*
X-19404032Y-31229254D03*
X-19015803Y-29780365D03*
X-23845432Y-28486270D03*
X-24233661Y-29935159D03*
%TD*%
D41*
%TO.C,LED19*%
X-94899133Y4567574D03*
D42*
X-96412153Y3847125D03*
D34*
X-96130688Y4897568D03*
D35*
X-96130688Y4897568D03*
D42*
X-96130688Y4897568D03*
X-96130688Y4897568D03*
X-95849223Y5948011D03*
D41*
X-97362243Y5227562D03*
D43*
X-98351388Y6269060D03*
X-98739617Y4820171D03*
X-93909988Y3526076D03*
X-93521759Y4974965D03*
%TD*%
D41*
%TO.C,LED20*%
X-113300034Y9498082D03*
D42*
X-114813054Y8777633D03*
D34*
X-114531589Y9828076D03*
D35*
X-114531589Y9828076D03*
D42*
X-114531589Y9828076D03*
X-114531589Y9828076D03*
X-114250124Y10878519D03*
D41*
X-115763144Y10158070D03*
D43*
X-116752289Y11199568D03*
X-117140518Y9750679D03*
X-112310889Y8456584D03*
X-111922660Y9905473D03*
%TD*%
D49*
%TO.C,C60*%
X42200347Y40554126D03*
X42601515Y39056938D03*
%TD*%
D52*
%TO.C,D10*%
X26003955Y7386701D03*
X27839214Y7878458D03*
X27439223Y5700729D03*
%TD*%
D67*
%TO.C,C13*%
X-2000000Y-1069741D03*
X-2000000Y-2029741D03*
%TD*%
D51*
%TO.C,SW1*%
X-1199999Y-8549999D03*
X-1199998Y-4449999D03*
X-2800000Y-8550001D03*
X-2799999Y-4450001D03*
%TD*%
D68*
%TO.C,Q1*%
X-1760000Y15592500D03*
X-3660000Y15592500D03*
X-2709999Y17467499D03*
%TD*%
D52*
%TO.C,D11*%
X62918552Y19126877D03*
X64753811Y19618634D03*
X64353820Y17440905D03*
%TD*%
D32*
%TO.C,LED25*%
X20391685Y-30188525D03*
D33*
X21341774Y-28808086D03*
D34*
X21623240Y-29858531D03*
D35*
X21623240Y-29858531D03*
D33*
X21623240Y-29858531D03*
X21623240Y-29858531D03*
X21904706Y-30908976D03*
D32*
X22854795Y-29528537D03*
D36*
X24232169Y-29935928D03*
X23843941Y-28487039D03*
X19014311Y-29781134D03*
X19402539Y-31230023D03*
%TD*%
D20*
%TO.C,C42*%
X85610775Y-11050205D03*
X85209607Y-9553017D03*
%TD*%
%TO.C,C52*%
X75749744Y25751663D03*
X75348576Y27248851D03*
%TD*%
D22*
%TO.C,K15*%
X-79573808Y17388868D03*
D23*
X-77090238Y21982601D03*
D24*
X-72183335Y20667800D03*
D23*
X-67276432Y19352999D03*
D22*
X-65538336Y16257676D03*
D25*
X-69160558Y17228249D03*
D26*
X-66035293Y18150805D03*
X-66915741Y14864918D03*
X-64160930Y17650435D03*
X-65041846Y14362809D03*
X-80950751Y15997848D03*
X-80070299Y19283736D03*
X-78196403Y18781627D03*
X-79077319Y15494003D03*
D25*
X-75951587Y16418297D03*
%TD*%
D27*
%TO.C,K35*%
X92601535Y-6237809D03*
D23*
X92455505Y-1017735D03*
D24*
X97362408Y297066D03*
D23*
X102269311Y1611867D03*
D27*
X105322207Y-199714D03*
D25*
X101699986Y-1170286D03*
D26*
X104825717Y-2094581D03*
X103945267Y1191306D03*
X105818696Y1695153D03*
X106699614Y-1592472D03*
X91224129Y-4845051D03*
X92104580Y-8130937D03*
X93098025Y-4342942D03*
X93978942Y-7630567D03*
D25*
X96223757Y-5267237D03*
%TD*%
D22*
%TO.C,K39*%
X-89434822Y-19412935D03*
D23*
X-86951252Y-14819202D03*
D24*
X-82044349Y-16134003D03*
D23*
X-77137446Y-17448804D03*
D22*
X-75399350Y-20544127D03*
D25*
X-79021572Y-19573554D03*
D26*
X-75896307Y-18650998D03*
X-76776755Y-21936885D03*
X-74021944Y-19151368D03*
X-74902860Y-22438994D03*
X-90811765Y-20803955D03*
X-89931313Y-17518067D03*
X-88057417Y-18020176D03*
X-88938333Y-21307800D03*
D25*
X-85812601Y-20383506D03*
%TD*%
D21*
%TO.C,D15*%
X-67805156Y1330525D03*
X-65969897Y838770D03*
X-67405165Y-847206D03*
%TD*%
D44*
%TO.C,LED48*%
X12663481Y26906892D03*
D45*
X11713392Y25526453D03*
D34*
X11431926Y26576898D03*
D35*
X11431926Y26576898D03*
D45*
X11431926Y26576898D03*
X11431926Y26576898D03*
X11150460Y27627343D03*
D44*
X10200371Y26246904D03*
D46*
X8822997Y26654295D03*
X9211225Y25205406D03*
X14040855Y26499501D03*
X13652627Y27948390D03*
%TD*%
D22*
%TO.C,K29*%
X-47702511Y-10873046D03*
D23*
X-45218941Y-6279313D03*
D24*
X-40312038Y-7594114D03*
D23*
X-35405135Y-8908915D03*
D22*
X-33667039Y-12004238D03*
D25*
X-37289261Y-11033665D03*
D26*
X-34163996Y-10111109D03*
X-35044444Y-13396996D03*
X-32289633Y-10611479D03*
X-33170549Y-13899105D03*
X-49079454Y-12264066D03*
X-48199002Y-8978178D03*
X-46325106Y-9480287D03*
X-47206022Y-12767911D03*
D25*
X-44080290Y-11843617D03*
%TD*%
D49*
%TO.C,C61*%
X23992542Y33210100D03*
X24393710Y31712912D03*
%TD*%
D52*
%TO.C,D4*%
X21073448Y25787603D03*
X22908707Y26279360D03*
X22508716Y24101631D03*
%TD*%
D18*
%TO.C,C19*%
X-70419472Y45650424D03*
X-70820642Y44153238D03*
%TD*%
D69*
%TO.C,R6*%
X-2891250Y19050000D03*
X-1871250Y19050000D03*
%TD*%
D18*
%TO.C,C33*%
X-100530328Y6878789D03*
X-100931498Y5381603D03*
%TD*%
D41*
%TO.C,LED6*%
X-103439021Y46299887D03*
D42*
X-104952041Y45579438D03*
D34*
X-104670576Y46629881D03*
D35*
X-104670576Y46629881D03*
D42*
X-104670576Y46629881D03*
X-104670576Y46629881D03*
X-104389111Y47680324D03*
D41*
X-105902131Y46959875D03*
D43*
X-106891276Y48001373D03*
X-107279505Y46552484D03*
X-102449876Y45258389D03*
X-102061647Y46707278D03*
%TD*%
D21*
%TO.C,D8*%
X-62874649Y19731428D03*
X-61039390Y19239673D03*
X-62474658Y17553697D03*
%TD*%
D22*
%TO.C,K6*%
X-20056804Y18698134D03*
D23*
X-17573234Y23291867D03*
D24*
X-12666331Y21977066D03*
D23*
X-7759428Y20662265D03*
D22*
X-6021332Y17566942D03*
D25*
X-9643554Y18537515D03*
D26*
X-6518289Y19460071D03*
X-7398737Y16174184D03*
X-4643926Y18959701D03*
X-5524842Y15672075D03*
X-21433747Y17307114D03*
X-20553295Y20593002D03*
X-18679399Y20090893D03*
X-19560315Y16803269D03*
D25*
X-16434583Y17727563D03*
%TD*%
D70*
%TO.C,U3*%
X-1904999Y28298501D03*
X-634999Y28298501D03*
X635001Y28298501D03*
X1905001Y28298501D03*
X1905001Y22898501D03*
X635001Y22898501D03*
X-634999Y22898501D03*
X-1904999Y22898501D03*
D71*
X1Y25598501D03*
%TD*%
D27*
%TO.C,K21*%
X48403972Y11502531D03*
D23*
X48257942Y16722605D03*
D24*
X53164845Y18037406D03*
D23*
X58071748Y19352207D03*
D27*
X61124644Y17540626D03*
D25*
X57502423Y16570054D03*
D26*
X60628154Y15645759D03*
X59747704Y18931646D03*
X61621133Y19435493D03*
X62502051Y16147868D03*
X47026566Y12895289D03*
X47907017Y9609403D03*
X48900462Y13397398D03*
X49781379Y10109773D03*
D25*
X52026194Y12473103D03*
%TD*%
D47*
%TO.C,C37*%
X-39609905Y-23375735D03*
X-39208735Y-21878549D03*
%TD*%
D22*
%TO.C,K17*%
X-42772003Y7527855D03*
D23*
X-40288433Y12121588D03*
D24*
X-35381530Y10806787D03*
D23*
X-30474627Y9491986D03*
D22*
X-28736531Y6396663D03*
D25*
X-32358753Y7367236D03*
D26*
X-29233488Y8289792D03*
X-30113936Y5003905D03*
X-27359125Y7789422D03*
X-28240041Y4501796D03*
X-44148946Y6136835D03*
X-43268494Y9422723D03*
X-41394598Y8920614D03*
X-42275514Y5632990D03*
D25*
X-39149782Y6557284D03*
%TD*%
D49*
%TO.C,C46*%
X52061376Y3752258D03*
X52462544Y2255070D03*
%TD*%
D41*
%TO.C,LED18*%
X-74649290Y6537406D03*
D42*
X-76162310Y5816957D03*
D34*
X-75880845Y6867400D03*
D35*
X-75880845Y6867400D03*
D42*
X-75880845Y6867400D03*
X-75880845Y6867400D03*
X-75599380Y7917843D03*
D41*
X-77112400Y7197394D03*
D43*
X-78101545Y8238892D03*
X-78489774Y6790003D03*
X-73660145Y5495908D03*
X-73271916Y6944797D03*
%TD*%
D27*
%TO.C,K9*%
X43473464Y29903434D03*
D23*
X43327434Y35123508D03*
D24*
X48234337Y36438309D03*
D23*
X53141240Y37753110D03*
D27*
X56194136Y35941529D03*
D25*
X52571915Y34970957D03*
D26*
X55697646Y34046662D03*
X54817196Y37332549D03*
X56690625Y37836396D03*
X57571543Y34548771D03*
X42096058Y31296192D03*
X42976509Y28010306D03*
X43969954Y31798301D03*
X44850871Y28510676D03*
D25*
X47095686Y30874006D03*
%TD*%
D27*
%TO.C,K23*%
X87671030Y12163094D03*
D23*
X87525000Y17383168D03*
D24*
X92431903Y18697969D03*
D23*
X97338806Y20012770D03*
D27*
X100391702Y18201189D03*
D25*
X96769481Y17230617D03*
D26*
X99895212Y16306322D03*
X99014762Y19592209D03*
X100888191Y20096056D03*
X101769109Y16808431D03*
X86293624Y13555852D03*
X87174075Y10269966D03*
X88167520Y14057961D03*
X89048437Y10770336D03*
D25*
X91293252Y13133666D03*
%TD*%
D47*
%TO.C,C26*%
X-66551210Y23286924D03*
X-66150040Y24784110D03*
%TD*%
D49*
%TO.C,C56*%
X118269338Y51075721D03*
X118670506Y49578533D03*
%TD*%
D32*
%TO.C,LED28*%
X79578402Y-11864233D03*
D33*
X80528491Y-10483794D03*
D34*
X80809957Y-11534239D03*
D35*
X80809957Y-11534239D03*
D33*
X80809957Y-11534239D03*
X80809957Y-11534239D03*
X81091423Y-12584684D03*
D32*
X82041512Y-11204245D03*
D36*
X83418886Y-11611636D03*
X83030658Y-10162747D03*
X78201028Y-11456842D03*
X78589256Y-12905731D03*
%TD*%
D22*
%TO.C,K28*%
X-65487099Y-3642428D03*
D23*
X-63003529Y951305D03*
D24*
X-58096626Y-363496D03*
D23*
X-53189723Y-1678297D03*
D22*
X-51451627Y-4773620D03*
D25*
X-55073849Y-3803047D03*
D26*
X-51948584Y-2880491D03*
X-52829032Y-6166378D03*
X-50074221Y-3380861D03*
X-50955137Y-6668487D03*
X-66864042Y-5033448D03*
X-65983590Y-1747560D03*
X-64109694Y-2249669D03*
X-64990610Y-5537293D03*
D25*
X-61864878Y-4612999D03*
%TD*%
D32*
%TO.C,LED36*%
X32915504Y15076603D03*
D33*
X33865593Y16457042D03*
D34*
X34147059Y15406597D03*
D35*
X34147059Y15406597D03*
D33*
X34147059Y15406597D03*
X34147059Y15406597D03*
X34428525Y14356152D03*
D32*
X35378614Y15736591D03*
D36*
X36755988Y15329200D03*
X36367760Y16778089D03*
X31538130Y15483994D03*
X31926358Y14035105D03*
%TD*%
D44*
%TO.C,LED45*%
X67249967Y43998554D03*
D45*
X66299878Y42618115D03*
D34*
X66018412Y43668560D03*
D35*
X66018412Y43668560D03*
D45*
X66018412Y43668560D03*
X66018412Y43668560D03*
X65736946Y44719005D03*
D44*
X64786857Y43338566D03*
D46*
X63409483Y43745957D03*
X63797711Y42297068D03*
X68627341Y43591163D03*
X68239113Y45040052D03*
%TD*%
D48*
%TO.C,R2*%
X-1000002Y11510000D03*
X-1000004Y10490000D03*
%TD*%
D38*
%TO.C,LED23*%
X-45241378Y-21064447D03*
D39*
X-43728358Y-20343998D03*
D34*
X-44009823Y-21394441D03*
D35*
X-44009823Y-21394441D03*
D39*
X-44009823Y-21394441D03*
X-44009823Y-21394441D03*
X-44291288Y-22444884D03*
D38*
X-42778268Y-21724435D03*
D40*
X-41789123Y-22765933D03*
X-41400894Y-21317044D03*
X-46230523Y-20022949D03*
X-46618752Y-21471838D03*
%TD*%
D47*
%TO.C,C35*%
X-76411713Y-13514722D03*
X-76010543Y-12017536D03*
%TD*%
D49*
%TO.C,C45*%
X71078625Y6382658D03*
X71479793Y4885470D03*
%TD*%
D22*
%TO.C,K26*%
X-104754157Y-2981867D03*
D23*
X-102270587Y1611866D03*
D24*
X-97363684Y297065D03*
D23*
X-92456781Y-1017736D03*
D22*
X-90718685Y-4113059D03*
D25*
X-94340907Y-3142486D03*
D26*
X-91215642Y-2219930D03*
X-92096090Y-5505817D03*
X-89341279Y-2720300D03*
X-90222195Y-6007926D03*
X-106131100Y-4372887D03*
X-105250648Y-1086999D03*
X-103376752Y-1589108D03*
X-104257668Y-4876732D03*
D25*
X-101131936Y-3952438D03*
%TD*%
D52*
%TO.C,D12*%
X102031533Y20362469D03*
X103866792Y20854226D03*
X103466801Y18676497D03*
%TD*%
%TO.C,D6*%
X97101025Y38763371D03*
X98936284Y39255128D03*
X98536293Y37077399D03*
%TD*%
D49*
%TO.C,C57*%
X99868402Y46145208D03*
X100269570Y44648020D03*
%TD*%
D44*
%TO.C,LED29*%
X115761807Y10157368D03*
D45*
X114811718Y8776929D03*
D34*
X114530252Y9827374D03*
D35*
X114530252Y9827374D03*
D45*
X114530252Y9827374D03*
X114530252Y9827374D03*
X114248786Y10877819D03*
D44*
X113298697Y9497380D03*
D46*
X111921323Y9904771D03*
X112309551Y8455882D03*
X117139181Y9749977D03*
X116750953Y11198866D03*
%TD*%
D32*
%TO.C,LED27*%
X60561157Y-14494632D03*
D33*
X61511246Y-13114193D03*
D34*
X61792712Y-14164638D03*
D35*
X61792712Y-14164638D03*
D33*
X61792712Y-14164638D03*
X61792712Y-14164638D03*
X62074178Y-15215083D03*
D32*
X63024267Y-13834644D03*
D36*
X64401641Y-14242035D03*
X64013413Y-12793146D03*
X59183783Y-14087241D03*
X59572011Y-15536130D03*
%TD*%
D21*
%TO.C,D16*%
X-31044636Y-10984680D03*
X-29209377Y-11476435D03*
X-30644645Y-13162411D03*
%TD*%
D47*
%TO.C,C36*%
X-57394496Y-16145116D03*
X-56993326Y-14647930D03*
%TD*%
D72*
%TO.C,RGB*%
X0Y-14400000D03*
%TD*%
D32*
%TO.C,LED35*%
X15130886Y7845971D03*
D33*
X16080975Y9226410D03*
D34*
X16362441Y8175965D03*
D35*
X16362441Y8175965D03*
D33*
X16362441Y8175965D03*
X16362441Y8175965D03*
X16643907Y7125520D03*
D32*
X17593996Y8505959D03*
D36*
X18971370Y8098568D03*
X18583142Y9547457D03*
X13753512Y8253362D03*
X14141740Y6804473D03*
%TD*%
D32*
%TO.C,LED41*%
X126769115Y32828829D03*
D33*
X127719204Y34209268D03*
D34*
X128000670Y33158823D03*
D35*
X128000670Y33158823D03*
D33*
X128000670Y33158823D03*
X128000670Y33158823D03*
X128282136Y32108378D03*
D32*
X129232225Y33488817D03*
D36*
X130609599Y33081426D03*
X130221371Y34530315D03*
X125391741Y33236220D03*
X125779969Y31787331D03*
%TD*%
D18*
%TO.C,C34*%
X-118931231Y11809296D03*
X-119332401Y10312110D03*
%TD*%
D49*
%TO.C,C59*%
X61217594Y43184526D03*
X61618762Y41687338D03*
%TD*%
D38*
%TO.C,LED13*%
X-35380089Y15737283D03*
D39*
X-33867069Y16457732D03*
D34*
X-34148534Y15407289D03*
D35*
X-34148534Y15407289D03*
D39*
X-34148534Y15407289D03*
X-34148534Y15407289D03*
X-34429999Y14356846D03*
D38*
X-32916979Y15077295D03*
D40*
X-31927834Y14035797D03*
X-31539605Y15484686D03*
X-36369234Y16778781D03*
X-36757463Y15329892D03*
%TD*%
D18*
%TO.C,C32*%
X-80280486Y8848620D03*
X-80681656Y7351434D03*
%TD*%
D19*
%TO.C,C12*%
X-1980000Y-3049741D03*
X-1020000Y-3049741D03*
%TD*%
D44*
%TO.C,LED42*%
X124301710Y51889750D03*
D45*
X123351621Y50509311D03*
D34*
X123070155Y51559756D03*
D35*
X123070155Y51559756D03*
D45*
X123070155Y51559756D03*
X123070155Y51559756D03*
X122788689Y52610201D03*
D44*
X121838600Y51229762D03*
D46*
X120461226Y51637153D03*
X120849454Y50188264D03*
X125679084Y51482359D03*
X125290856Y52931248D03*
%TD*%
D38*
%TO.C,LED8*%
X-129233541Y33489478D03*
D39*
X-127720521Y34209927D03*
D34*
X-128001986Y33159484D03*
D35*
X-128001986Y33159484D03*
D39*
X-128001986Y33159484D03*
X-128001986Y33159484D03*
X-128283451Y32109041D03*
D38*
X-126770431Y32829490D03*
D40*
X-125781286Y31787992D03*
X-125393057Y33236881D03*
X-130222686Y34530976D03*
X-130610915Y33082087D03*
%TD*%
D27*
%TO.C,K34*%
X72351696Y-4267977D03*
D23*
X72205666Y952097D03*
D24*
X77112569Y2266898D03*
D23*
X82019472Y3581699D03*
D27*
X85072368Y1770118D03*
D25*
X81450147Y799546D03*
D26*
X84575878Y-124749D03*
X83695428Y3161138D03*
X85568857Y3664985D03*
X86449775Y377360D03*
X70974290Y-2875219D03*
X71854741Y-6161105D03*
X72848186Y-2373110D03*
X73729103Y-5660735D03*
D25*
X75973918Y-3297405D03*
%TD*%
D27*
%TO.C,K24*%
X106071931Y17093601D03*
D23*
X105925901Y22313675D03*
D24*
X110832804Y23628476D03*
D23*
X115739707Y24943277D03*
D27*
X118792603Y23131696D03*
D25*
X115170382Y22161124D03*
D26*
X118296113Y21236829D03*
X117415663Y24522716D03*
X119289092Y25026563D03*
X120170010Y21738938D03*
X104694525Y18486359D03*
X105574976Y15200473D03*
X106568421Y18988468D03*
X107449338Y15700843D03*
D25*
X109694153Y18064173D03*
%TD*%
D47*
%TO.C,C23*%
X-123602345Y31178266D03*
X-123201175Y32675452D03*
%TD*%
D73*
%TO.C,J13*%
X-156904963Y87324480D03*
D26*
X-154410731Y83082864D03*
D74*
X-151575886Y85865354D03*
D75*
X-151405511Y85503453D03*
D26*
X-147625085Y86277392D03*
D73*
X-149305039Y90902353D03*
D76*
X-153537705Y82167535D03*
D77*
X-152847831Y82492312D03*
D76*
X-151637724Y83062003D03*
X-150732972Y83487940D03*
X-150280595Y83700908D03*
D77*
X-148165736Y84696537D03*
D76*
X-147475862Y85021314D03*
D77*
X-147735978Y84898857D03*
D76*
X-148425852Y84574080D03*
X-148923466Y84339815D03*
X-149828220Y83913878D03*
X-151185348Y83274972D03*
X-152587714Y82614768D03*
D77*
X-153277589Y82289991D03*
D78*
X-158055291Y86539771D03*
X-156095978Y82377908D03*
X-147967299Y91288971D03*
X-146007987Y87127108D03*
%TD*%
D22*
%TO.C,K25*%
X-123155061Y1948642D03*
D23*
X-120671491Y6542375D03*
D24*
X-115764588Y5227574D03*
D23*
X-110857685Y3912773D03*
D22*
X-109119589Y817450D03*
D25*
X-112741811Y1788023D03*
D26*
X-109616546Y2710579D03*
X-110496994Y-575308D03*
X-107742183Y2210209D03*
X-108623099Y-1077417D03*
X-124532004Y557622D03*
X-123651552Y3843510D03*
X-121777656Y3341401D03*
X-122658572Y53777D03*
D25*
X-119532840Y978071D03*
%TD*%
D41*
%TO.C,LED17*%
X-55632074Y3907013D03*
D42*
X-57145094Y3186564D03*
D34*
X-56863629Y4237007D03*
D35*
X-56863629Y4237007D03*
D42*
X-56863629Y4237007D03*
X-56863629Y4237007D03*
X-56582164Y5287450D03*
D41*
X-58095184Y4567001D03*
D43*
X-59084329Y5608499D03*
X-59472558Y4159610D03*
X-54642929Y2865515D03*
X-54254700Y4314404D03*
%TD*%
D79*
%TO.C,R9*%
X-1871250Y20240624D03*
X-2891250Y20240626D03*
%TD*%
D27*
%TO.C,K31*%
X17765300Y-21359609D03*
D23*
X17619270Y-16139535D03*
D24*
X22526173Y-14824734D03*
D23*
X27433076Y-13509933D03*
D27*
X30485972Y-15321514D03*
D25*
X26863751Y-16292086D03*
D26*
X29989482Y-17216381D03*
X29109032Y-13930494D03*
X30982461Y-13426647D03*
X31863379Y-16714272D03*
X16387894Y-19966851D03*
X17268345Y-23252737D03*
X18261790Y-19464742D03*
X19142707Y-22752367D03*
D25*
X21387522Y-20389037D03*
%TD*%
D18*
%TO.C,C21*%
X-109070217Y48611100D03*
X-109471387Y47113914D03*
%TD*%
D47*
%TO.C,C38*%
X-17225092Y-31838982D03*
X-16823922Y-30341796D03*
%TD*%
M02*
