%TF.GenerationSoftware,KiCad,Pcbnew,8.0.6*%
%TF.CreationDate,2024-12-13T19:23:41-05:00*%
%TF.ProjectId,10133,31303133-332e-46b6-9963-61645f706362,rev?*%
%TF.SameCoordinates,Original*%
%TF.FileFunction,AssemblyDrawing,Top*%
%FSLAX46Y46*%
G04 Gerber Fmt 4.6, Leading zero omitted, Abs format (unit mm)*
G04 Created by KiCad (PCBNEW 8.0.6) date 2024-12-13 19:23:41*
%MOMM*%
%LPD*%
G01*
G04 APERTURE LIST*
%ADD10C,0.150000*%
%ADD11C,0.060000*%
%ADD12C,0.075000*%
%ADD13C,0.100000*%
G04 APERTURE END LIST*
D10*
X-3380951Y-17851819D02*
X-2809523Y-17851819D01*
X-3095237Y-18851819D02*
X-3095237Y-17851819D01*
X-2476189Y-18851819D02*
X-2476189Y-17851819D01*
X-2476189Y-17851819D02*
X-2142856Y-18566104D01*
X-2142856Y-18566104D02*
X-1809523Y-17851819D01*
X-1809523Y-17851819D02*
X-1809523Y-18851819D01*
X-1333332Y-18470866D02*
X-571428Y-18470866D01*
X-142856Y-17947057D02*
X-95237Y-17899438D01*
X-95237Y-17899438D02*
X0Y-17851819D01*
X0Y-17851819D02*
X238095Y-17851819D01*
X238095Y-17851819D02*
X333333Y-17899438D01*
X333333Y-17899438D02*
X380952Y-17947057D01*
X380952Y-17947057D02*
X428571Y-18042295D01*
X428571Y-18042295D02*
X428571Y-18137533D01*
X428571Y-18137533D02*
X380952Y-18280390D01*
X380952Y-18280390D02*
X-190475Y-18851819D01*
X-190475Y-18851819D02*
X428571Y-18851819D01*
X1047619Y-17851819D02*
X1142857Y-17851819D01*
X1142857Y-17851819D02*
X1238095Y-17899438D01*
X1238095Y-17899438D02*
X1285714Y-17947057D01*
X1285714Y-17947057D02*
X1333333Y-18042295D01*
X1333333Y-18042295D02*
X1380952Y-18232771D01*
X1380952Y-18232771D02*
X1380952Y-18470866D01*
X1380952Y-18470866D02*
X1333333Y-18661342D01*
X1333333Y-18661342D02*
X1285714Y-18756580D01*
X1285714Y-18756580D02*
X1238095Y-18804200D01*
X1238095Y-18804200D02*
X1142857Y-18851819D01*
X1142857Y-18851819D02*
X1047619Y-18851819D01*
X1047619Y-18851819D02*
X952381Y-18804200D01*
X952381Y-18804200D02*
X904762Y-18756580D01*
X904762Y-18756580D02*
X857143Y-18661342D01*
X857143Y-18661342D02*
X809524Y-18470866D01*
X809524Y-18470866D02*
X809524Y-18232771D01*
X809524Y-18232771D02*
X857143Y-18042295D01*
X857143Y-18042295D02*
X904762Y-17947057D01*
X904762Y-17947057D02*
X952381Y-17899438D01*
X952381Y-17899438D02*
X1047619Y-17851819D01*
X1761905Y-17947057D02*
X1809524Y-17899438D01*
X1809524Y-17899438D02*
X1904762Y-17851819D01*
X1904762Y-17851819D02*
X2142857Y-17851819D01*
X2142857Y-17851819D02*
X2238095Y-17899438D01*
X2238095Y-17899438D02*
X2285714Y-17947057D01*
X2285714Y-17947057D02*
X2333333Y-18042295D01*
X2333333Y-18042295D02*
X2333333Y-18137533D01*
X2333333Y-18137533D02*
X2285714Y-18280390D01*
X2285714Y-18280390D02*
X1714286Y-18851819D01*
X1714286Y-18851819D02*
X2333333Y-18851819D01*
X2904762Y-18280390D02*
X2809524Y-18232771D01*
X2809524Y-18232771D02*
X2761905Y-18185152D01*
X2761905Y-18185152D02*
X2714286Y-18089914D01*
X2714286Y-18089914D02*
X2714286Y-18042295D01*
X2714286Y-18042295D02*
X2761905Y-17947057D01*
X2761905Y-17947057D02*
X2809524Y-17899438D01*
X2809524Y-17899438D02*
X2904762Y-17851819D01*
X2904762Y-17851819D02*
X3095238Y-17851819D01*
X3095238Y-17851819D02*
X3190476Y-17899438D01*
X3190476Y-17899438D02*
X3238095Y-17947057D01*
X3238095Y-17947057D02*
X3285714Y-18042295D01*
X3285714Y-18042295D02*
X3285714Y-18089914D01*
X3285714Y-18089914D02*
X3238095Y-18185152D01*
X3238095Y-18185152D02*
X3190476Y-18232771D01*
X3190476Y-18232771D02*
X3095238Y-18280390D01*
X3095238Y-18280390D02*
X2904762Y-18280390D01*
X2904762Y-18280390D02*
X2809524Y-18328009D01*
X2809524Y-18328009D02*
X2761905Y-18375628D01*
X2761905Y-18375628D02*
X2714286Y-18470866D01*
X2714286Y-18470866D02*
X2714286Y-18661342D01*
X2714286Y-18661342D02*
X2761905Y-18756580D01*
X2761905Y-18756580D02*
X2809524Y-18804200D01*
X2809524Y-18804200D02*
X2904762Y-18851819D01*
X2904762Y-18851819D02*
X3095238Y-18851819D01*
X3095238Y-18851819D02*
X3190476Y-18804200D01*
X3190476Y-18804200D02*
X3238095Y-18756580D01*
X3238095Y-18756580D02*
X3285714Y-18661342D01*
X3285714Y-18661342D02*
X3285714Y-18470866D01*
X3285714Y-18470866D02*
X3238095Y-18375628D01*
X3238095Y-18375628D02*
X3190476Y-18328009D01*
X3190476Y-18328009D02*
X3095238Y-18280390D01*
X-761905Y-20304200D02*
X-619048Y-20351819D01*
X-619048Y-20351819D02*
X-380953Y-20351819D01*
X-380953Y-20351819D02*
X-285715Y-20304200D01*
X-285715Y-20304200D02*
X-238096Y-20256580D01*
X-238096Y-20256580D02*
X-190477Y-20161342D01*
X-190477Y-20161342D02*
X-190477Y-20066104D01*
X-190477Y-20066104D02*
X-238096Y-19970866D01*
X-238096Y-19970866D02*
X-285715Y-19923247D01*
X-285715Y-19923247D02*
X-380953Y-19875628D01*
X-380953Y-19875628D02*
X-571429Y-19828009D01*
X-571429Y-19828009D02*
X-666667Y-19780390D01*
X-666667Y-19780390D02*
X-714286Y-19732771D01*
X-714286Y-19732771D02*
X-761905Y-19637533D01*
X-761905Y-19637533D02*
X-761905Y-19542295D01*
X-761905Y-19542295D02*
X-714286Y-19447057D01*
X-714286Y-19447057D02*
X-666667Y-19399438D01*
X-666667Y-19399438D02*
X-571429Y-19351819D01*
X-571429Y-19351819D02*
X-333334Y-19351819D01*
X-333334Y-19351819D02*
X-190477Y-19399438D01*
X761903Y-20351819D02*
X190475Y-20351819D01*
X476189Y-20351819D02*
X476189Y-19351819D01*
X476189Y-19351819D02*
X380951Y-19494676D01*
X380951Y-19494676D02*
X285713Y-19589914D01*
X285713Y-19589914D02*
X190475Y-19637533D01*
X9300359Y21836992D02*
X9041540Y22802918D01*
X9041540Y22802918D02*
X9548386Y22199244D01*
X9548386Y22199244D02*
X9685490Y22975464D01*
X9685490Y22975464D02*
X9944309Y22009538D01*
X10404274Y22132785D02*
X10145455Y23098711D01*
X10956231Y22280681D02*
X10394366Y22721717D01*
X10697412Y23246607D02*
X10293351Y22546753D01*
X11370199Y22391604D02*
X11197653Y23035554D01*
X11111380Y23357530D02*
X11077709Y23299209D01*
X11077709Y23299209D02*
X11136030Y23265537D01*
X11136030Y23265537D02*
X11169702Y23323858D01*
X11169702Y23323858D02*
X11111380Y23357530D01*
X11111380Y23357530D02*
X11136030Y23265537D01*
X11549998Y23376459D02*
X11583669Y23434780D01*
X11583669Y23434780D02*
X11663338Y23505426D01*
X11663338Y23505426D02*
X11893320Y23567050D01*
X11893320Y23567050D02*
X11997638Y23545703D01*
X11997638Y23545703D02*
X12055959Y23512031D01*
X12055959Y23512031D02*
X12126605Y23432363D01*
X12126605Y23432363D02*
X12151254Y23340370D01*
X12151254Y23340370D02*
X12142232Y23190056D01*
X12142232Y23190056D02*
X11738171Y22490202D01*
X11738171Y22490202D02*
X12336125Y22650423D01*
X13151737Y22918264D02*
X13072068Y22847618D01*
X13072068Y22847618D02*
X12888082Y22798319D01*
X12888082Y22798319D02*
X12783765Y22819667D01*
X12783765Y22819667D02*
X12725444Y22853338D01*
X12725444Y22853338D02*
X12654798Y22933006D01*
X12654798Y22933006D02*
X12580849Y23208985D01*
X12580849Y23208985D02*
X12602196Y23313303D01*
X12602196Y23313303D02*
X12635868Y23371624D01*
X12635868Y23371624D02*
X12715536Y23442270D01*
X12715536Y23442270D02*
X12899522Y23491569D01*
X12899522Y23491569D02*
X13003840Y23470222D01*
X14819935Y23315958D02*
X14267977Y23168061D01*
X14543956Y23242009D02*
X14285137Y24207935D01*
X14285137Y24207935D02*
X14230118Y24045296D01*
X14230118Y24045296D02*
X14162774Y23928654D01*
X14162774Y23928654D02*
X14083106Y23858008D01*
X15475325Y24181753D02*
X15647871Y23537803D01*
X15061357Y24070831D02*
X15196929Y23564870D01*
X15196929Y23564870D02*
X15267575Y23485201D01*
X15267575Y23485201D02*
X15371892Y23463854D01*
X15371892Y23463854D02*
X15509882Y23500828D01*
X15509882Y23500828D02*
X15589550Y23571474D01*
X15589550Y23571474D02*
X15623222Y23629796D01*
X-1547619Y-7921819D02*
X-2119047Y-7921819D01*
X-1833333Y-7921819D02*
X-1833333Y-6921819D01*
X-1833333Y-6921819D02*
X-1928571Y-7064676D01*
X-1928571Y-7064676D02*
X-2023809Y-7159914D01*
X-2023809Y-7159914D02*
X-2119047Y-7207533D01*
X-928571Y-6921819D02*
X-833333Y-6921819D01*
X-833333Y-6921819D02*
X-738095Y-6969438D01*
X-738095Y-6969438D02*
X-690476Y-7017057D01*
X-690476Y-7017057D02*
X-642857Y-7112295D01*
X-642857Y-7112295D02*
X-595238Y-7302771D01*
X-595238Y-7302771D02*
X-595238Y-7540866D01*
X-595238Y-7540866D02*
X-642857Y-7731342D01*
X-642857Y-7731342D02*
X-690476Y-7826580D01*
X-690476Y-7826580D02*
X-738095Y-7874200D01*
X-738095Y-7874200D02*
X-833333Y-7921819D01*
X-833333Y-7921819D02*
X-928571Y-7921819D01*
X-928571Y-7921819D02*
X-1023809Y-7874200D01*
X-1023809Y-7874200D02*
X-1071428Y-7826580D01*
X-1071428Y-7826580D02*
X-1119047Y-7731342D01*
X-1119047Y-7731342D02*
X-1166666Y-7540866D01*
X-1166666Y-7540866D02*
X-1166666Y-7302771D01*
X-1166666Y-7302771D02*
X-1119047Y-7112295D01*
X-1119047Y-7112295D02*
X-1071428Y-7017057D01*
X-1071428Y-7017057D02*
X-1023809Y-6969438D01*
X-1023809Y-6969438D02*
X-928571Y-6921819D01*
X23809Y-6921819D02*
X119047Y-6921819D01*
X119047Y-6921819D02*
X214285Y-6969438D01*
X214285Y-6969438D02*
X261904Y-7017057D01*
X261904Y-7017057D02*
X309523Y-7112295D01*
X309523Y-7112295D02*
X357142Y-7302771D01*
X357142Y-7302771D02*
X357142Y-7540866D01*
X357142Y-7540866D02*
X309523Y-7731342D01*
X309523Y-7731342D02*
X261904Y-7826580D01*
X261904Y-7826580D02*
X214285Y-7874200D01*
X214285Y-7874200D02*
X119047Y-7921819D01*
X119047Y-7921819D02*
X23809Y-7921819D01*
X23809Y-7921819D02*
X-71428Y-7874200D01*
X-71428Y-7874200D02*
X-119047Y-7826580D01*
X-119047Y-7826580D02*
X-166666Y-7731342D01*
X-166666Y-7731342D02*
X-214285Y-7540866D01*
X-214285Y-7540866D02*
X-214285Y-7302771D01*
X-214285Y-7302771D02*
X-166666Y-7112295D01*
X-166666Y-7112295D02*
X-119047Y-7017057D01*
X-119047Y-7017057D02*
X-71428Y-6969438D01*
X-71428Y-6969438D02*
X23809Y-6921819D01*
X785714Y-7255152D02*
X785714Y-7921819D01*
X785714Y-7350390D02*
X833333Y-7302771D01*
X833333Y-7302771D02*
X928571Y-7255152D01*
X928571Y-7255152D02*
X1071428Y-7255152D01*
X1071428Y-7255152D02*
X1166666Y-7302771D01*
X1166666Y-7302771D02*
X1214285Y-7398009D01*
X1214285Y-7398009D02*
X1214285Y-7921819D01*
X2023809Y-7398009D02*
X1690476Y-7398009D01*
X1690476Y-7921819D02*
X1690476Y-6921819D01*
X1690476Y-6921819D02*
X2166666Y-6921819D01*
D11*
X-257142Y-9040832D02*
X-276190Y-9059880D01*
X-276190Y-9059880D02*
X-333332Y-9078927D01*
X-333332Y-9078927D02*
X-371428Y-9078927D01*
X-371428Y-9078927D02*
X-428571Y-9059880D01*
X-428571Y-9059880D02*
X-466666Y-9021784D01*
X-466666Y-9021784D02*
X-485713Y-8983689D01*
X-485713Y-8983689D02*
X-504761Y-8907499D01*
X-504761Y-8907499D02*
X-504761Y-8850356D01*
X-504761Y-8850356D02*
X-485713Y-8774165D01*
X-485713Y-8774165D02*
X-466666Y-8736070D01*
X-466666Y-8736070D02*
X-428571Y-8697975D01*
X-428571Y-8697975D02*
X-371428Y-8678927D01*
X-371428Y-8678927D02*
X-333332Y-8678927D01*
X-333332Y-8678927D02*
X-276190Y-8697975D01*
X-276190Y-8697975D02*
X-257142Y-8717022D01*
X85714Y-8678927D02*
X9524Y-8678927D01*
X9524Y-8678927D02*
X-28571Y-8697975D01*
X-28571Y-8697975D02*
X-47618Y-8717022D01*
X-47618Y-8717022D02*
X-85713Y-8774165D01*
X-85713Y-8774165D02*
X-104761Y-8850356D01*
X-104761Y-8850356D02*
X-104761Y-9002737D01*
X-104761Y-9002737D02*
X-85713Y-9040832D01*
X-85713Y-9040832D02*
X-66666Y-9059880D01*
X-66666Y-9059880D02*
X-28571Y-9078927D01*
X-28571Y-9078927D02*
X47619Y-9078927D01*
X47619Y-9078927D02*
X85714Y-9059880D01*
X85714Y-9059880D02*
X104762Y-9040832D01*
X104762Y-9040832D02*
X123809Y-9002737D01*
X123809Y-9002737D02*
X123809Y-8907499D01*
X123809Y-8907499D02*
X104762Y-8869403D01*
X104762Y-8869403D02*
X85714Y-8850356D01*
X85714Y-8850356D02*
X47619Y-8831308D01*
X47619Y-8831308D02*
X-28571Y-8831308D01*
X-28571Y-8831308D02*
X-66666Y-8850356D01*
X-66666Y-8850356D02*
X-85713Y-8869403D01*
X-85713Y-8869403D02*
X-104761Y-8907499D01*
X466666Y-8812260D02*
X466666Y-9078927D01*
X371428Y-8659880D02*
X276190Y-8945594D01*
X276190Y-8945594D02*
X523809Y-8945594D01*
D10*
X-129928530Y26329174D02*
X-129907183Y26224857D01*
X-129907183Y26224857D02*
X-129956481Y26040871D01*
X-129956481Y26040871D02*
X-130027127Y25961203D01*
X-130027127Y25961203D02*
X-130131445Y25939856D01*
X-130131445Y25939856D02*
X-130499417Y26038453D01*
X-130499417Y26038453D02*
X-130579085Y26109099D01*
X-130579085Y26109099D02*
X-130600432Y26213417D01*
X-130600432Y26213417D02*
X-130551133Y26397403D01*
X-130551133Y26397403D02*
X-130480487Y26477071D01*
X-130480487Y26477071D02*
X-130376170Y26498418D01*
X-130376170Y26498418D02*
X-130284177Y26473769D01*
X-130284177Y26473769D02*
X-130315431Y25989154D01*
X-130403237Y26949361D02*
X-129759286Y26776815D01*
X-130311244Y26924711D02*
X-130344915Y26983032D01*
X-130344915Y26983032D02*
X-130366262Y27087350D01*
X-130366262Y27087350D02*
X-130329288Y27225339D01*
X-130329288Y27225339D02*
X-130258642Y27305008D01*
X-130258642Y27305008D02*
X-130154325Y27326355D01*
X-130154325Y27326355D02*
X-129648364Y27190783D01*
X-129460190Y28077040D02*
X-129438843Y27972723D01*
X-129438843Y27972723D02*
X-129488142Y27788737D01*
X-129488142Y27788737D02*
X-129558788Y27709069D01*
X-129558788Y27709069D02*
X-129617109Y27675397D01*
X-129617109Y27675397D02*
X-129721427Y27654050D01*
X-129721427Y27654050D02*
X-129997406Y27727998D01*
X-129997406Y27727998D02*
X-130077074Y27798644D01*
X-130077074Y27798644D02*
X-130110746Y27856965D01*
X-130110746Y27856965D02*
X-130132093Y27961283D01*
X-130132093Y27961283D02*
X-130082794Y28145269D01*
X-130082794Y28145269D02*
X-130012148Y28224937D01*
X-129266297Y28616673D02*
X-129336943Y28537005D01*
X-129336943Y28537005D02*
X-129395264Y28503333D01*
X-129395264Y28503333D02*
X-129499582Y28481986D01*
X-129499582Y28481986D02*
X-129775561Y28555935D01*
X-129775561Y28555935D02*
X-129855229Y28626581D01*
X-129855229Y28626581D02*
X-129888901Y28684902D01*
X-129888901Y28684902D02*
X-129910248Y28789219D01*
X-129910248Y28789219D02*
X-129873274Y28927209D01*
X-129873274Y28927209D02*
X-129802628Y29006877D01*
X-129802628Y29006877D02*
X-129744307Y29040549D01*
X-129744307Y29040549D02*
X-129639989Y29061896D01*
X-129639989Y29061896D02*
X-129364010Y28987948D01*
X-129364010Y28987948D02*
X-129284342Y28917302D01*
X-129284342Y28917302D02*
X-129250670Y28858981D01*
X-129250670Y28858981D02*
X-129229323Y28754663D01*
X-129229323Y28754663D02*
X-129266297Y28616673D01*
X-128958179Y29766585D02*
X-129924105Y30025404D01*
X-129004176Y29778910D02*
X-128982829Y29674592D01*
X-128982829Y29674592D02*
X-129032128Y29490606D01*
X-129032128Y29490606D02*
X-129102773Y29410938D01*
X-129102773Y29410938D02*
X-129161095Y29377266D01*
X-129161095Y29377266D02*
X-129265412Y29355919D01*
X-129265412Y29355919D02*
X-129541391Y29429868D01*
X-129541391Y29429868D02*
X-129621059Y29500514D01*
X-129621059Y29500514D02*
X-129654731Y29558835D01*
X-129654731Y29558835D02*
X-129676078Y29663152D01*
X-129676078Y29663152D02*
X-129626779Y29847138D01*
X-129626779Y29847138D02*
X-129556133Y29926807D01*
X-128782331Y30606846D02*
X-128760984Y30502529D01*
X-128760984Y30502529D02*
X-128810283Y30318543D01*
X-128810283Y30318543D02*
X-128880929Y30238875D01*
X-128880929Y30238875D02*
X-128985246Y30217528D01*
X-128985246Y30217528D02*
X-129353218Y30316125D01*
X-129353218Y30316125D02*
X-129432886Y30386771D01*
X-129432886Y30386771D02*
X-129454233Y30491089D01*
X-129454233Y30491089D02*
X-129404934Y30675075D01*
X-129404934Y30675075D02*
X-129334288Y30754743D01*
X-129334288Y30754743D02*
X-129229971Y30776090D01*
X-129229971Y30776090D02*
X-129137978Y30751441D01*
X-129137978Y30751441D02*
X-129169232Y30266827D01*
X-128613087Y31054487D02*
X-129257038Y31227033D01*
X-129073052Y31177734D02*
X-129152720Y31248380D01*
X-129152720Y31248380D02*
X-129186392Y31306701D01*
X-129186392Y31306701D02*
X-129207739Y31411018D01*
X-129207739Y31411018D02*
X-129183089Y31503011D01*
X320776Y-5107747D02*
X26972Y-6092820D01*
X26972Y-6092820D02*
X549072Y-5569468D01*
X549072Y-5569468D02*
X356886Y-6283296D01*
X356886Y-6283296D02*
X1063083Y-5536318D01*
X875568Y-6527771D02*
X975476Y-6640439D01*
X975476Y-6640439D02*
X1181672Y-6759486D01*
X1181672Y-6759486D02*
X1287961Y-6765866D01*
X1287961Y-6765866D02*
X1353009Y-6748436D01*
X1353009Y-6748436D02*
X1441868Y-6689767D01*
X1441868Y-6689767D02*
X1489487Y-6607288D01*
X1489487Y-6607288D02*
X1495867Y-6501000D01*
X1495867Y-6501000D02*
X1478437Y-6435951D01*
X1478437Y-6435951D02*
X1419768Y-6347093D01*
X1419768Y-6347093D02*
X1278620Y-6210616D01*
X1278620Y-6210616D02*
X1219951Y-6121757D01*
X1219951Y-6121757D02*
X1202521Y-6056709D01*
X1202521Y-6056709D02*
X1208901Y-5950420D01*
X1208901Y-5950420D02*
X1256520Y-5867942D01*
X1256520Y-5867942D02*
X1345378Y-5809273D01*
X1345378Y-5809273D02*
X1410427Y-5791843D01*
X1410427Y-5791843D02*
X1516715Y-5798223D01*
X1516715Y-5798223D02*
X1722912Y-5917270D01*
X1722912Y-5917270D02*
X1822820Y-6029938D01*
X2128925Y-6261654D02*
X2193974Y-6244224D01*
X2193974Y-6244224D02*
X2300262Y-6250604D01*
X2300262Y-6250604D02*
X2506459Y-6369651D01*
X2506459Y-6369651D02*
X2565128Y-6458510D01*
X2565128Y-6458510D02*
X2582557Y-6523558D01*
X2582557Y-6523558D02*
X2576178Y-6629847D01*
X2576178Y-6629847D02*
X2528559Y-6712325D01*
X2528559Y-6712325D02*
X2415891Y-6812234D01*
X2415891Y-6812234D02*
X1635305Y-7021391D01*
X1635305Y-7021391D02*
X2171416Y-7330915D01*
X2952002Y-7121757D02*
X2893333Y-7032899D01*
X2893333Y-7032899D02*
X2875903Y-6967850D01*
X2875903Y-6967850D02*
X2882283Y-6861562D01*
X2882283Y-6861562D02*
X2906092Y-6820323D01*
X2906092Y-6820323D02*
X2994951Y-6761654D01*
X2994951Y-6761654D02*
X3059999Y-6744224D01*
X3059999Y-6744224D02*
X3166288Y-6750604D01*
X3166288Y-6750604D02*
X3331245Y-6845842D01*
X3331245Y-6845842D02*
X3389914Y-6934700D01*
X3389914Y-6934700D02*
X3407344Y-6999749D01*
X3407344Y-6999749D02*
X3400964Y-7106037D01*
X3400964Y-7106037D02*
X3377154Y-7147276D01*
X3377154Y-7147276D02*
X3288296Y-7205945D01*
X3288296Y-7205945D02*
X3223247Y-7223375D01*
X3223247Y-7223375D02*
X3116959Y-7216995D01*
X3116959Y-7216995D02*
X2952002Y-7121757D01*
X2952002Y-7121757D02*
X2845714Y-7115378D01*
X2845714Y-7115378D02*
X2780665Y-7132807D01*
X2780665Y-7132807D02*
X2691807Y-7191477D01*
X2691807Y-7191477D02*
X2596568Y-7356434D01*
X2596568Y-7356434D02*
X2590189Y-7462722D01*
X2590189Y-7462722D02*
X2607618Y-7527771D01*
X2607618Y-7527771D02*
X2666288Y-7616629D01*
X2666288Y-7616629D02*
X2831245Y-7711867D01*
X2831245Y-7711867D02*
X2937533Y-7718247D01*
X2937533Y-7718247D02*
X3002582Y-7700817D01*
X3002582Y-7700817D02*
X3091440Y-7642148D01*
X3091440Y-7642148D02*
X3186678Y-7477191D01*
X3186678Y-7477191D02*
X3193058Y-7370903D01*
X3193058Y-7370903D02*
X3175628Y-7305854D01*
X3175628Y-7305854D02*
X3116959Y-7216995D01*
X3820988Y-8283296D02*
X3326116Y-7997581D01*
X3573552Y-8140439D02*
X4073552Y-7274413D01*
X4073552Y-7274413D02*
X3919645Y-7350512D01*
X3919645Y-7350512D02*
X3789547Y-7385372D01*
X3789547Y-7385372D02*
X3683259Y-7378992D01*
X4603284Y-7690225D02*
X4668332Y-7672795D01*
X4668332Y-7672795D02*
X4774621Y-7679175D01*
X4774621Y-7679175D02*
X4980817Y-7798223D01*
X4980817Y-7798223D02*
X5039486Y-7887081D01*
X5039486Y-7887081D02*
X5056916Y-7952130D01*
X5056916Y-7952130D02*
X5050536Y-8058418D01*
X5050536Y-8058418D02*
X5002917Y-8140897D01*
X5002917Y-8140897D02*
X4890249Y-8240805D01*
X4890249Y-8240805D02*
X4109663Y-8449962D01*
X4109663Y-8449962D02*
X4645774Y-8759486D01*
X5567508Y-8686806D02*
X5667416Y-8799474D01*
X5667416Y-8799474D02*
X5684846Y-8864523D01*
X5684846Y-8864523D02*
X5678466Y-8970811D01*
X5678466Y-8970811D02*
X5607038Y-9094529D01*
X5607038Y-9094529D02*
X5518179Y-9153198D01*
X5518179Y-9153198D02*
X5453131Y-9170628D01*
X5453131Y-9170628D02*
X5346842Y-9164248D01*
X5346842Y-9164248D02*
X5016928Y-8973772D01*
X5016928Y-8973772D02*
X5516928Y-8107747D01*
X5516928Y-8107747D02*
X5805603Y-8274413D01*
X5805603Y-8274413D02*
X5864272Y-8363272D01*
X5864272Y-8363272D02*
X5881702Y-8428320D01*
X5881702Y-8428320D02*
X5875322Y-8534609D01*
X5875322Y-8534609D02*
X5827703Y-8617087D01*
X5827703Y-8617087D02*
X5738845Y-8675756D01*
X5738845Y-8675756D02*
X5673796Y-8693186D01*
X5673796Y-8693186D02*
X5567508Y-8686806D01*
X5567508Y-8686806D02*
X5278833Y-8520140D01*
X6073430Y-9143858D02*
X6733259Y-9524810D01*
X7366317Y-9285463D02*
X7431366Y-9268033D01*
X7431366Y-9268033D02*
X7537654Y-9274413D01*
X7537654Y-9274413D02*
X7743850Y-9393461D01*
X7743850Y-9393461D02*
X7802519Y-9482319D01*
X7802519Y-9482319D02*
X7819949Y-9547368D01*
X7819949Y-9547368D02*
X7813569Y-9653656D01*
X7813569Y-9653656D02*
X7765950Y-9736135D01*
X7765950Y-9736135D02*
X7653282Y-9836043D01*
X7653282Y-9836043D02*
X6872697Y-10045200D01*
X6872697Y-10045200D02*
X7408808Y-10354724D01*
X8444919Y-9798223D02*
X8527397Y-9845842D01*
X8527397Y-9845842D02*
X8586066Y-9934700D01*
X8586066Y-9934700D02*
X8603496Y-9999749D01*
X8603496Y-9999749D02*
X8597116Y-10106037D01*
X8597116Y-10106037D02*
X8543117Y-10294804D01*
X8543117Y-10294804D02*
X8424070Y-10501000D01*
X8424070Y-10501000D02*
X8287592Y-10642148D01*
X8287592Y-10642148D02*
X8198734Y-10700817D01*
X8198734Y-10700817D02*
X8133685Y-10718247D01*
X8133685Y-10718247D02*
X8027397Y-10711867D01*
X8027397Y-10711867D02*
X7944919Y-10664248D01*
X7944919Y-10664248D02*
X7886249Y-10575390D01*
X7886249Y-10575390D02*
X7868820Y-10510341D01*
X7868820Y-10510341D02*
X7875199Y-10404053D01*
X7875199Y-10404053D02*
X7929198Y-10215286D01*
X7929198Y-10215286D02*
X8048246Y-10009089D01*
X8048246Y-10009089D02*
X8184723Y-9867942D01*
X8184723Y-9867942D02*
X8273582Y-9809273D01*
X8273582Y-9809273D02*
X8338630Y-9791843D01*
X8338630Y-9791843D02*
X8444919Y-9798223D01*
X9015889Y-10237844D02*
X9080938Y-10220414D01*
X9080938Y-10220414D02*
X9187226Y-10226794D01*
X9187226Y-10226794D02*
X9393423Y-10345842D01*
X9393423Y-10345842D02*
X9452092Y-10434700D01*
X9452092Y-10434700D02*
X9469521Y-10499749D01*
X9469521Y-10499749D02*
X9463142Y-10606037D01*
X9463142Y-10606037D02*
X9415523Y-10688516D01*
X9415523Y-10688516D02*
X9302855Y-10788424D01*
X9302855Y-10788424D02*
X8522269Y-10997581D01*
X8522269Y-10997581D02*
X9058380Y-11307105D01*
X10094491Y-10750604D02*
X10176969Y-10798223D01*
X10176969Y-10798223D02*
X10235639Y-10887081D01*
X10235639Y-10887081D02*
X10253068Y-10952130D01*
X10253068Y-10952130D02*
X10246689Y-11058418D01*
X10246689Y-11058418D02*
X10192690Y-11247185D01*
X10192690Y-11247185D02*
X10073642Y-11453381D01*
X10073642Y-11453381D02*
X9937165Y-11594529D01*
X9937165Y-11594529D02*
X9848306Y-11653198D01*
X9848306Y-11653198D02*
X9783258Y-11670628D01*
X9783258Y-11670628D02*
X9676969Y-11664248D01*
X9676969Y-11664248D02*
X9594491Y-11616629D01*
X9594491Y-11616629D02*
X9535822Y-11527771D01*
X9535822Y-11527771D02*
X9518392Y-11462722D01*
X9518392Y-11462722D02*
X9524772Y-11356434D01*
X9524772Y-11356434D02*
X9578770Y-11167667D01*
X9578770Y-11167667D02*
X9697818Y-10961470D01*
X9697818Y-10961470D02*
X9834295Y-10820323D01*
X9834295Y-10820323D02*
X9923154Y-10761654D01*
X9923154Y-10761654D02*
X9988203Y-10744224D01*
X9988203Y-10744224D02*
X10094491Y-10750604D01*
D12*
X3195537Y-10199943D02*
X2989341Y-10080895D01*
X2989341Y-10080895D02*
X3239341Y-9647883D01*
X3470827Y-10056460D02*
X3615165Y-10139793D01*
X3546071Y-10402324D02*
X3339875Y-10283276D01*
X3339875Y-10283276D02*
X3589875Y-9850264D01*
X3589875Y-9850264D02*
X3796071Y-9969311D01*
X3731648Y-10509467D02*
X3981648Y-10076454D01*
X3981648Y-10076454D02*
X4084747Y-10135978D01*
X4084747Y-10135978D02*
X4134701Y-10192312D01*
X4134701Y-10192312D02*
X4152130Y-10257361D01*
X4152130Y-10257361D02*
X4148941Y-10310505D01*
X4148941Y-10310505D02*
X4121941Y-10404888D01*
X4121941Y-10404888D02*
X4086227Y-10466747D01*
X4086227Y-10466747D02*
X4017988Y-10537321D01*
X4017988Y-10537321D02*
X3973559Y-10566655D01*
X3973559Y-10566655D02*
X3908510Y-10584085D01*
X3908510Y-10584085D02*
X3834747Y-10568991D01*
X3834747Y-10568991D02*
X3731648Y-10509467D01*
X4620857Y-10445502D02*
X4414661Y-10326454D01*
X4414661Y-10326454D02*
X4274994Y-10520746D01*
X4274994Y-10520746D02*
X4307518Y-10512031D01*
X4307518Y-10512031D02*
X4360662Y-10515221D01*
X4360662Y-10515221D02*
X4463760Y-10574745D01*
X4463760Y-10574745D02*
X4493095Y-10619174D01*
X4493095Y-10619174D02*
X4501810Y-10651698D01*
X4501810Y-10651698D02*
X4498620Y-10704842D01*
X4498620Y-10704842D02*
X4439096Y-10807941D01*
X4439096Y-10807941D02*
X4394667Y-10837275D01*
X4394667Y-10837275D02*
X4362143Y-10845990D01*
X4362143Y-10845990D02*
X4308999Y-10842800D01*
X4308999Y-10842800D02*
X4205900Y-10783276D01*
X4205900Y-10783276D02*
X4176566Y-10738847D01*
X4176566Y-10738847D02*
X4167851Y-10706323D01*
X4929297Y-10816029D02*
X4762630Y-11104705D01*
X4921437Y-10591548D02*
X4639767Y-10841319D01*
X4639767Y-10841319D02*
X4907823Y-10996081D01*
D10*
X-10745180Y-23230332D02*
X-9745180Y-22992237D01*
X-9745180Y-22992237D02*
X-10459466Y-22801761D01*
X-10459466Y-22801761D02*
X-9745180Y-22611285D01*
X-9745180Y-22611285D02*
X-10745180Y-22373190D01*
X-9792800Y-22039856D02*
X-9745180Y-21896999D01*
X-9745180Y-21896999D02*
X-9745180Y-21658904D01*
X-9745180Y-21658904D02*
X-9792800Y-21563666D01*
X-9792800Y-21563666D02*
X-9840419Y-21516047D01*
X-9840419Y-21516047D02*
X-9935657Y-21468428D01*
X-9935657Y-21468428D02*
X-10030895Y-21468428D01*
X-10030895Y-21468428D02*
X-10126133Y-21516047D01*
X-10126133Y-21516047D02*
X-10173752Y-21563666D01*
X-10173752Y-21563666D02*
X-10221371Y-21658904D01*
X-10221371Y-21658904D02*
X-10268990Y-21849380D01*
X-10268990Y-21849380D02*
X-10316609Y-21944618D01*
X-10316609Y-21944618D02*
X-10364228Y-21992237D01*
X-10364228Y-21992237D02*
X-10459466Y-22039856D01*
X-10459466Y-22039856D02*
X-10554704Y-22039856D01*
X-10554704Y-22039856D02*
X-10649942Y-21992237D01*
X-10649942Y-21992237D02*
X-10697561Y-21944618D01*
X-10697561Y-21944618D02*
X-10745180Y-21849380D01*
X-10745180Y-21849380D02*
X-10745180Y-21611285D01*
X-10745180Y-21611285D02*
X-10697561Y-21468428D01*
X-10649942Y-21087475D02*
X-10697561Y-21039856D01*
X-10697561Y-21039856D02*
X-10745180Y-20944618D01*
X-10745180Y-20944618D02*
X-10745180Y-20706523D01*
X-10745180Y-20706523D02*
X-10697561Y-20611285D01*
X-10697561Y-20611285D02*
X-10649942Y-20563666D01*
X-10649942Y-20563666D02*
X-10554704Y-20516047D01*
X-10554704Y-20516047D02*
X-10459466Y-20516047D01*
X-10459466Y-20516047D02*
X-10316609Y-20563666D01*
X-10316609Y-20563666D02*
X-9745180Y-21135094D01*
X-9745180Y-21135094D02*
X-9745180Y-20516047D01*
X-10316609Y-19944618D02*
X-10364228Y-20039856D01*
X-10364228Y-20039856D02*
X-10411847Y-20087475D01*
X-10411847Y-20087475D02*
X-10507085Y-20135094D01*
X-10507085Y-20135094D02*
X-10554704Y-20135094D01*
X-10554704Y-20135094D02*
X-10649942Y-20087475D01*
X-10649942Y-20087475D02*
X-10697561Y-20039856D01*
X-10697561Y-20039856D02*
X-10745180Y-19944618D01*
X-10745180Y-19944618D02*
X-10745180Y-19754142D01*
X-10745180Y-19754142D02*
X-10697561Y-19658904D01*
X-10697561Y-19658904D02*
X-10649942Y-19611285D01*
X-10649942Y-19611285D02*
X-10554704Y-19563666D01*
X-10554704Y-19563666D02*
X-10507085Y-19563666D01*
X-10507085Y-19563666D02*
X-10411847Y-19611285D01*
X-10411847Y-19611285D02*
X-10364228Y-19658904D01*
X-10364228Y-19658904D02*
X-10316609Y-19754142D01*
X-10316609Y-19754142D02*
X-10316609Y-19944618D01*
X-10316609Y-19944618D02*
X-10268990Y-20039856D01*
X-10268990Y-20039856D02*
X-10221371Y-20087475D01*
X-10221371Y-20087475D02*
X-10126133Y-20135094D01*
X-10126133Y-20135094D02*
X-9935657Y-20135094D01*
X-9935657Y-20135094D02*
X-9840419Y-20087475D01*
X-9840419Y-20087475D02*
X-9792800Y-20039856D01*
X-9792800Y-20039856D02*
X-9745180Y-19944618D01*
X-9745180Y-19944618D02*
X-9745180Y-19754142D01*
X-9745180Y-19754142D02*
X-9792800Y-19658904D01*
X-9792800Y-19658904D02*
X-9840419Y-19611285D01*
X-9840419Y-19611285D02*
X-9935657Y-19563666D01*
X-9935657Y-19563666D02*
X-10126133Y-19563666D01*
X-10126133Y-19563666D02*
X-10221371Y-19611285D01*
X-10221371Y-19611285D02*
X-10268990Y-19658904D01*
X-10268990Y-19658904D02*
X-10316609Y-19754142D01*
X-9745180Y-18611285D02*
X-9745180Y-19182713D01*
X-9745180Y-18896999D02*
X-10745180Y-18896999D01*
X-10745180Y-18896999D02*
X-10602323Y-18992237D01*
X-10602323Y-18992237D02*
X-10507085Y-19087475D01*
X-10507085Y-19087475D02*
X-10459466Y-19182713D01*
X-10649942Y-18230332D02*
X-10697561Y-18182713D01*
X-10697561Y-18182713D02*
X-10745180Y-18087475D01*
X-10745180Y-18087475D02*
X-10745180Y-17849380D01*
X-10745180Y-17849380D02*
X-10697561Y-17754142D01*
X-10697561Y-17754142D02*
X-10649942Y-17706523D01*
X-10649942Y-17706523D02*
X-10554704Y-17658904D01*
X-10554704Y-17658904D02*
X-10459466Y-17658904D01*
X-10459466Y-17658904D02*
X-10316609Y-17706523D01*
X-10316609Y-17706523D02*
X-9745180Y-18277951D01*
X-9745180Y-18277951D02*
X-9745180Y-17658904D01*
X-10268990Y-16896999D02*
X-10221371Y-16754142D01*
X-10221371Y-16754142D02*
X-10173752Y-16706523D01*
X-10173752Y-16706523D02*
X-10078514Y-16658904D01*
X-10078514Y-16658904D02*
X-9935657Y-16658904D01*
X-9935657Y-16658904D02*
X-9840419Y-16706523D01*
X-9840419Y-16706523D02*
X-9792800Y-16754142D01*
X-9792800Y-16754142D02*
X-9745180Y-16849380D01*
X-9745180Y-16849380D02*
X-9745180Y-17230332D01*
X-9745180Y-17230332D02*
X-10745180Y-17230332D01*
X-10745180Y-17230332D02*
X-10745180Y-16896999D01*
X-10745180Y-16896999D02*
X-10697561Y-16801761D01*
X-10697561Y-16801761D02*
X-10649942Y-16754142D01*
X-10649942Y-16754142D02*
X-10554704Y-16706523D01*
X-10554704Y-16706523D02*
X-10459466Y-16706523D01*
X-10459466Y-16706523D02*
X-10364228Y-16754142D01*
X-10364228Y-16754142D02*
X-10316609Y-16801761D01*
X-10316609Y-16801761D02*
X-10268990Y-16896999D01*
X-10268990Y-16896999D02*
X-10268990Y-17230332D01*
X-10126133Y-16230332D02*
X-10126133Y-15468428D01*
X-10649942Y-15039856D02*
X-10697561Y-14992237D01*
X-10697561Y-14992237D02*
X-10745180Y-14896999D01*
X-10745180Y-14896999D02*
X-10745180Y-14658904D01*
X-10745180Y-14658904D02*
X-10697561Y-14563666D01*
X-10697561Y-14563666D02*
X-10649942Y-14516047D01*
X-10649942Y-14516047D02*
X-10554704Y-14468428D01*
X-10554704Y-14468428D02*
X-10459466Y-14468428D01*
X-10459466Y-14468428D02*
X-10316609Y-14516047D01*
X-10316609Y-14516047D02*
X-9745180Y-15087475D01*
X-9745180Y-15087475D02*
X-9745180Y-14468428D01*
X-10745180Y-13849380D02*
X-10745180Y-13754142D01*
X-10745180Y-13754142D02*
X-10697561Y-13658904D01*
X-10697561Y-13658904D02*
X-10649942Y-13611285D01*
X-10649942Y-13611285D02*
X-10554704Y-13563666D01*
X-10554704Y-13563666D02*
X-10364228Y-13516047D01*
X-10364228Y-13516047D02*
X-10126133Y-13516047D01*
X-10126133Y-13516047D02*
X-9935657Y-13563666D01*
X-9935657Y-13563666D02*
X-9840419Y-13611285D01*
X-9840419Y-13611285D02*
X-9792800Y-13658904D01*
X-9792800Y-13658904D02*
X-9745180Y-13754142D01*
X-9745180Y-13754142D02*
X-9745180Y-13849380D01*
X-9745180Y-13849380D02*
X-9792800Y-13944618D01*
X-9792800Y-13944618D02*
X-9840419Y-13992237D01*
X-9840419Y-13992237D02*
X-9935657Y-14039856D01*
X-9935657Y-14039856D02*
X-10126133Y-14087475D01*
X-10126133Y-14087475D02*
X-10364228Y-14087475D01*
X-10364228Y-14087475D02*
X-10554704Y-14039856D01*
X-10554704Y-14039856D02*
X-10649942Y-13992237D01*
X-10649942Y-13992237D02*
X-10697561Y-13944618D01*
X-10697561Y-13944618D02*
X-10745180Y-13849380D01*
X-10649942Y-13135094D02*
X-10697561Y-13087475D01*
X-10697561Y-13087475D02*
X-10745180Y-12992237D01*
X-10745180Y-12992237D02*
X-10745180Y-12754142D01*
X-10745180Y-12754142D02*
X-10697561Y-12658904D01*
X-10697561Y-12658904D02*
X-10649942Y-12611285D01*
X-10649942Y-12611285D02*
X-10554704Y-12563666D01*
X-10554704Y-12563666D02*
X-10459466Y-12563666D01*
X-10459466Y-12563666D02*
X-10316609Y-12611285D01*
X-10316609Y-12611285D02*
X-9745180Y-13182713D01*
X-9745180Y-13182713D02*
X-9745180Y-12563666D01*
X-10745180Y-11944618D02*
X-10745180Y-11849380D01*
X-10745180Y-11849380D02*
X-10697561Y-11754142D01*
X-10697561Y-11754142D02*
X-10649942Y-11706523D01*
X-10649942Y-11706523D02*
X-10554704Y-11658904D01*
X-10554704Y-11658904D02*
X-10364228Y-11611285D01*
X-10364228Y-11611285D02*
X-10126133Y-11611285D01*
X-10126133Y-11611285D02*
X-9935657Y-11658904D01*
X-9935657Y-11658904D02*
X-9840419Y-11706523D01*
X-9840419Y-11706523D02*
X-9792800Y-11754142D01*
X-9792800Y-11754142D02*
X-9745180Y-11849380D01*
X-9745180Y-11849380D02*
X-9745180Y-11944618D01*
X-9745180Y-11944618D02*
X-9792800Y-12039856D01*
X-9792800Y-12039856D02*
X-9840419Y-12087475D01*
X-9840419Y-12087475D02*
X-9935657Y-12135094D01*
X-9935657Y-12135094D02*
X-10126133Y-12182713D01*
X-10126133Y-12182713D02*
X-10364228Y-12182713D01*
X-10364228Y-12182713D02*
X-10554704Y-12135094D01*
X-10554704Y-12135094D02*
X-10649942Y-12087475D01*
X-10649942Y-12087475D02*
X-10697561Y-12039856D01*
X-10697561Y-12039856D02*
X-10745180Y-11944618D01*
D12*
X-7772590Y-18194618D02*
X-7772590Y-18432713D01*
X-7772590Y-18432713D02*
X-8272590Y-18432713D01*
X-8034495Y-18027951D02*
X-8034495Y-17861284D01*
X-7772590Y-17789856D02*
X-7772590Y-18027951D01*
X-7772590Y-18027951D02*
X-8272590Y-18027951D01*
X-8272590Y-18027951D02*
X-8272590Y-17789856D01*
X-7772590Y-17575570D02*
X-8272590Y-17575570D01*
X-8272590Y-17575570D02*
X-8272590Y-17456522D01*
X-8272590Y-17456522D02*
X-8248780Y-17385094D01*
X-8248780Y-17385094D02*
X-8201161Y-17337475D01*
X-8201161Y-17337475D02*
X-8153542Y-17313665D01*
X-8153542Y-17313665D02*
X-8058304Y-17289856D01*
X-8058304Y-17289856D02*
X-7986876Y-17289856D01*
X-7986876Y-17289856D02*
X-7891638Y-17313665D01*
X-7891638Y-17313665D02*
X-7844019Y-17337475D01*
X-7844019Y-17337475D02*
X-7796400Y-17385094D01*
X-7796400Y-17385094D02*
X-7772590Y-17456522D01*
X-7772590Y-17456522D02*
X-7772590Y-17575570D01*
X-8272590Y-16837475D02*
X-8272590Y-17075570D01*
X-8272590Y-17075570D02*
X-8034495Y-17099379D01*
X-8034495Y-17099379D02*
X-8058304Y-17075570D01*
X-8058304Y-17075570D02*
X-8082114Y-17027951D01*
X-8082114Y-17027951D02*
X-8082114Y-16908903D01*
X-8082114Y-16908903D02*
X-8058304Y-16861284D01*
X-8058304Y-16861284D02*
X-8034495Y-16837475D01*
X-8034495Y-16837475D02*
X-7986876Y-16813665D01*
X-7986876Y-16813665D02*
X-7867828Y-16813665D01*
X-7867828Y-16813665D02*
X-7820209Y-16837475D01*
X-7820209Y-16837475D02*
X-7796400Y-16861284D01*
X-7796400Y-16861284D02*
X-7772590Y-16908903D01*
X-7772590Y-16908903D02*
X-7772590Y-17027951D01*
X-7772590Y-17027951D02*
X-7796400Y-17075570D01*
X-7796400Y-17075570D02*
X-7820209Y-17099379D01*
X-8224971Y-16623189D02*
X-8248780Y-16599380D01*
X-8248780Y-16599380D02*
X-8272590Y-16551761D01*
X-8272590Y-16551761D02*
X-8272590Y-16432713D01*
X-8272590Y-16432713D02*
X-8248780Y-16385094D01*
X-8248780Y-16385094D02*
X-8224971Y-16361285D01*
X-8224971Y-16361285D02*
X-8177352Y-16337475D01*
X-8177352Y-16337475D02*
X-8129733Y-16337475D01*
X-8129733Y-16337475D02*
X-8058304Y-16361285D01*
X-8058304Y-16361285D02*
X-7772590Y-16646999D01*
X-7772590Y-16646999D02*
X-7772590Y-16337475D01*
D10*
X125869103Y28418916D02*
X125610284Y29384842D01*
X125610284Y29384842D02*
X126117130Y28781168D01*
X126117130Y28781168D02*
X126254234Y29557388D01*
X126254234Y29557388D02*
X126513053Y28591462D01*
X126973018Y28714709D02*
X126714199Y29680635D01*
X127524975Y28862605D02*
X126963110Y29303641D01*
X127266156Y29828531D02*
X126862095Y29128677D01*
X127938943Y28973528D02*
X127766397Y29617478D01*
X127680124Y29939454D02*
X127646453Y29881133D01*
X127646453Y29881133D02*
X127704774Y29847461D01*
X127704774Y29847461D02*
X127738446Y29905782D01*
X127738446Y29905782D02*
X127680124Y29939454D01*
X127680124Y29939454D02*
X127704774Y29847461D01*
X128118742Y29958383D02*
X128152413Y30016704D01*
X128152413Y30016704D02*
X128232082Y30087350D01*
X128232082Y30087350D02*
X128462064Y30148974D01*
X128462064Y30148974D02*
X128566382Y30127627D01*
X128566382Y30127627D02*
X128624703Y30093955D01*
X128624703Y30093955D02*
X128695349Y30014287D01*
X128695349Y30014287D02*
X128719998Y29922294D01*
X128719998Y29922294D02*
X128710976Y29771980D01*
X128710976Y29771980D02*
X128306915Y29072126D01*
X128306915Y29072126D02*
X128904869Y29232347D01*
X129720481Y29500188D02*
X129640812Y29429542D01*
X129640812Y29429542D02*
X129456826Y29380243D01*
X129456826Y29380243D02*
X129352509Y29401591D01*
X129352509Y29401591D02*
X129294188Y29435262D01*
X129294188Y29435262D02*
X129223542Y29514930D01*
X129223542Y29514930D02*
X129149593Y29790909D01*
X129149593Y29790909D02*
X129170940Y29895227D01*
X129170940Y29895227D02*
X129204612Y29953548D01*
X129204612Y29953548D02*
X129284280Y30024194D01*
X129284280Y30024194D02*
X129468266Y30073493D01*
X129468266Y30073493D02*
X129572584Y30052146D01*
X131388679Y29897882D02*
X130836721Y29749985D01*
X131112700Y29823933D02*
X130853881Y30789859D01*
X130853881Y30789859D02*
X130798862Y30627220D01*
X130798862Y30627220D02*
X130731518Y30510578D01*
X130731518Y30510578D02*
X130651850Y30439932D01*
X132044069Y30763677D02*
X132216615Y30119727D01*
X131630101Y30652755D02*
X131765673Y30146794D01*
X131765673Y30146794D02*
X131836319Y30067125D01*
X131836319Y30067125D02*
X131940636Y30045778D01*
X131940636Y30045778D02*
X132078626Y30082752D01*
X132078626Y30082752D02*
X132158294Y30153398D01*
X132158294Y30153398D02*
X132191966Y30211720D01*
X-8979556Y-13999686D02*
X-9265271Y-14494557D01*
X-9122413Y-14247121D02*
X-9988439Y-13747121D01*
X-9988439Y-13747121D02*
X-9912340Y-13901029D01*
X-9912340Y-13901029D02*
X-9877480Y-14031126D01*
X-9877480Y-14031126D02*
X-9883860Y-14137414D01*
X-9536058Y-12963575D02*
X-9488439Y-12881096D01*
X-9488439Y-12881096D02*
X-9399580Y-12822427D01*
X-9399580Y-12822427D02*
X-9334532Y-12804997D01*
X-9334532Y-12804997D02*
X-9228243Y-12811377D01*
X-9228243Y-12811377D02*
X-9039477Y-12865376D01*
X-9039477Y-12865376D02*
X-8833280Y-12984423D01*
X-8833280Y-12984423D02*
X-8692133Y-13120901D01*
X-8692133Y-13120901D02*
X-8633463Y-13209759D01*
X-8633463Y-13209759D02*
X-8616034Y-13274808D01*
X-8616034Y-13274808D02*
X-8622413Y-13381096D01*
X-8622413Y-13381096D02*
X-8670032Y-13463575D01*
X-8670032Y-13463575D02*
X-8758891Y-13522244D01*
X-8758891Y-13522244D02*
X-8823940Y-13539673D01*
X-8823940Y-13539673D02*
X-8930228Y-13533294D01*
X-8930228Y-13533294D02*
X-9118994Y-13479295D01*
X-9118994Y-13479295D02*
X-9325191Y-13360247D01*
X-9325191Y-13360247D02*
X-9466339Y-13223770D01*
X-9466339Y-13223770D02*
X-9525008Y-13134912D01*
X-9525008Y-13134912D02*
X-9542438Y-13069863D01*
X-9542438Y-13069863D02*
X-9536058Y-12963575D01*
X-9059867Y-12138788D02*
X-9012248Y-12056310D01*
X-9012248Y-12056310D02*
X-8923390Y-11997641D01*
X-8923390Y-11997641D02*
X-8858341Y-11980211D01*
X-8858341Y-11980211D02*
X-8752053Y-11986591D01*
X-8752053Y-11986591D02*
X-8563286Y-12040590D01*
X-8563286Y-12040590D02*
X-8357090Y-12159637D01*
X-8357090Y-12159637D02*
X-8215942Y-12296115D01*
X-8215942Y-12296115D02*
X-8157273Y-12384973D01*
X-8157273Y-12384973D02*
X-8139843Y-12450022D01*
X-8139843Y-12450022D02*
X-8146223Y-12556310D01*
X-8146223Y-12556310D02*
X-8193842Y-12638788D01*
X-8193842Y-12638788D02*
X-8282700Y-12697458D01*
X-8282700Y-12697458D02*
X-8347749Y-12714887D01*
X-8347749Y-12714887D02*
X-8454037Y-12708508D01*
X-8454037Y-12708508D02*
X-8642804Y-12654509D01*
X-8642804Y-12654509D02*
X-8849001Y-12535461D01*
X-8849001Y-12535461D02*
X-8990148Y-12398984D01*
X-8990148Y-12398984D02*
X-9048817Y-12310125D01*
X-9048817Y-12310125D02*
X-9066247Y-12245077D01*
X-9066247Y-12245077D02*
X-9059867Y-12138788D01*
X-8390240Y-11645626D02*
X-7812890Y-11978960D01*
X-8307761Y-11693245D02*
X-8325191Y-11628196D01*
X-8325191Y-11628196D02*
X-8318811Y-11521908D01*
X-8318811Y-11521908D02*
X-8247383Y-11398190D01*
X-8247383Y-11398190D02*
X-8158524Y-11339521D01*
X-8158524Y-11339521D02*
X-8052236Y-11345901D01*
X-8052236Y-11345901D02*
X-7598604Y-11607806D01*
X-7647474Y-10644833D02*
X-7814141Y-10933508D01*
X-7360509Y-11195413D02*
X-8226534Y-10695413D01*
X-8226534Y-10695413D02*
X-7988439Y-10283020D01*
D11*
X-7365223Y-13441608D02*
X-7358251Y-13467627D01*
X-7358251Y-13467627D02*
X-7370327Y-13526638D01*
X-7370327Y-13526638D02*
X-7389375Y-13559630D01*
X-7389375Y-13559630D02*
X-7434442Y-13599593D01*
X-7434442Y-13599593D02*
X-7486481Y-13613537D01*
X-7486481Y-13613537D02*
X-7528996Y-13610985D01*
X-7528996Y-13610985D02*
X-7604503Y-13589385D01*
X-7604503Y-13589385D02*
X-7653990Y-13560814D01*
X-7653990Y-13560814D02*
X-7710449Y-13506223D01*
X-7710449Y-13506223D02*
X-7733917Y-13470680D01*
X-7733917Y-13470680D02*
X-7747861Y-13418641D01*
X-7747861Y-13418641D02*
X-7735785Y-13359630D01*
X-7735785Y-13359630D02*
X-7716737Y-13326638D01*
X-7716737Y-13326638D02*
X-7671670Y-13286675D01*
X-7671670Y-13286675D02*
X-7645651Y-13279703D01*
X-7507213Y-12963732D02*
X-7545309Y-13029715D01*
X-7545309Y-13029715D02*
X-7547861Y-13072230D01*
X-7547861Y-13072230D02*
X-7540889Y-13098250D01*
X-7540889Y-13098250D02*
X-7510449Y-13159813D01*
X-7510449Y-13159813D02*
X-7453990Y-13214404D01*
X-7453990Y-13214404D02*
X-7322024Y-13290594D01*
X-7322024Y-13290594D02*
X-7279509Y-13293146D01*
X-7279509Y-13293146D02*
X-7253489Y-13286174D01*
X-7253489Y-13286174D02*
X-7217946Y-13262707D01*
X-7217946Y-13262707D02*
X-7179851Y-13196724D01*
X-7179851Y-13196724D02*
X-7177299Y-13154208D01*
X-7177299Y-13154208D02*
X-7184271Y-13128189D01*
X-7184271Y-13128189D02*
X-7207738Y-13092646D01*
X-7207738Y-13092646D02*
X-7290217Y-13045027D01*
X-7290217Y-13045027D02*
X-7332732Y-13042475D01*
X-7332732Y-13042475D02*
X-7358752Y-13049447D01*
X-7358752Y-13049447D02*
X-7394295Y-13072914D01*
X-7394295Y-13072914D02*
X-7432390Y-13138897D01*
X-7432390Y-13138897D02*
X-7434942Y-13181412D01*
X-7434942Y-13181412D02*
X-7427970Y-13207432D01*
X-7427970Y-13207432D02*
X-7404503Y-13242975D01*
X-7046518Y-12965784D02*
X-7008422Y-12899801D01*
X-7008422Y-12899801D02*
X-7005871Y-12857286D01*
X-7005871Y-12857286D02*
X-7012842Y-12831266D01*
X-7012842Y-12831266D02*
X-7043282Y-12769703D01*
X-7043282Y-12769703D02*
X-7099741Y-12715112D01*
X-7099741Y-12715112D02*
X-7231707Y-12638922D01*
X-7231707Y-12638922D02*
X-7274222Y-12636370D01*
X-7274222Y-12636370D02*
X-7300242Y-12643342D01*
X-7300242Y-12643342D02*
X-7335785Y-12666810D01*
X-7335785Y-12666810D02*
X-7373880Y-12732792D01*
X-7373880Y-12732792D02*
X-7376432Y-12775308D01*
X-7376432Y-12775308D02*
X-7369460Y-12801327D01*
X-7369460Y-12801327D02*
X-7345993Y-12836871D01*
X-7345993Y-12836871D02*
X-7263514Y-12884490D01*
X-7263514Y-12884490D02*
X-7220999Y-12887042D01*
X-7220999Y-12887042D02*
X-7194979Y-12880070D01*
X-7194979Y-12880070D02*
X-7159436Y-12856602D01*
X-7159436Y-12856602D02*
X-7121341Y-12790619D01*
X-7121341Y-12790619D02*
X-7118789Y-12748104D01*
X-7118789Y-12748104D02*
X-7125761Y-12722084D01*
X-7125761Y-12722084D02*
X-7149228Y-12686541D01*
D10*
X14230873Y3436058D02*
X13972054Y4401984D01*
X13972054Y4401984D02*
X14478900Y3798310D01*
X14478900Y3798310D02*
X14616004Y4574530D01*
X14616004Y4574530D02*
X14874823Y3608604D01*
X15334788Y3731851D02*
X15075969Y4697777D01*
X15886745Y3879747D02*
X15324880Y4320783D01*
X15627926Y4845673D02*
X15223865Y4145819D01*
X16300713Y3990670D02*
X16128167Y4634620D01*
X16041894Y4956596D02*
X16008223Y4898275D01*
X16008223Y4898275D02*
X16066544Y4864603D01*
X16066544Y4864603D02*
X16100216Y4922924D01*
X16100216Y4922924D02*
X16041894Y4956596D01*
X16041894Y4956596D02*
X16066544Y4864603D01*
X16480512Y4975525D02*
X16514183Y5033846D01*
X16514183Y5033846D02*
X16593852Y5104492D01*
X16593852Y5104492D02*
X16823834Y5166116D01*
X16823834Y5166116D02*
X16928152Y5144769D01*
X16928152Y5144769D02*
X16986473Y5111097D01*
X16986473Y5111097D02*
X17057119Y5031429D01*
X17057119Y5031429D02*
X17081768Y4939436D01*
X17081768Y4939436D02*
X17072746Y4789122D01*
X17072746Y4789122D02*
X16668685Y4089268D01*
X16668685Y4089268D02*
X17266639Y4249489D01*
X18082251Y4517330D02*
X18002582Y4446684D01*
X18002582Y4446684D02*
X17818596Y4397385D01*
X17818596Y4397385D02*
X17714279Y4418733D01*
X17714279Y4418733D02*
X17655958Y4452404D01*
X17655958Y4452404D02*
X17585312Y4532072D01*
X17585312Y4532072D02*
X17511363Y4808051D01*
X17511363Y4808051D02*
X17532710Y4912369D01*
X17532710Y4912369D02*
X17566382Y4970690D01*
X17566382Y4970690D02*
X17646050Y5041336D01*
X17646050Y5041336D02*
X17830036Y5090635D01*
X17830036Y5090635D02*
X17934354Y5069288D01*
X19750449Y4915024D02*
X19198491Y4767127D01*
X19474470Y4841075D02*
X19215651Y5807001D01*
X19215651Y5807001D02*
X19160632Y5644362D01*
X19160632Y5644362D02*
X19093288Y5527720D01*
X19093288Y5527720D02*
X19013620Y5457074D01*
X20405839Y5780819D02*
X20578385Y5136869D01*
X19991871Y5669897D02*
X20127443Y5163936D01*
X20127443Y5163936D02*
X20198089Y5084267D01*
X20198089Y5084267D02*
X20302406Y5062920D01*
X20302406Y5062920D02*
X20440396Y5099894D01*
X20440396Y5099894D02*
X20520064Y5170540D01*
X20520064Y5170540D02*
X20553736Y5228862D01*
X-10424404Y-10941079D02*
X-9718208Y-11688057D01*
X-9718208Y-11688057D02*
X-9910394Y-10974229D01*
X-9910394Y-10974229D02*
X-9388293Y-11497581D01*
X-9388293Y-11497581D02*
X-9682097Y-10512508D01*
X-8917231Y-11170627D02*
X-8769704Y-11140438D01*
X-8769704Y-11140438D02*
X-8563507Y-11021391D01*
X-8563507Y-11021391D02*
X-8504838Y-10932532D01*
X-8504838Y-10932532D02*
X-8487409Y-10867483D01*
X-8487409Y-10867483D02*
X-8493788Y-10761195D01*
X-8493788Y-10761195D02*
X-8541407Y-10678717D01*
X-8541407Y-10678717D02*
X-8630266Y-10620048D01*
X-8630266Y-10620048D02*
X-8695315Y-10602618D01*
X-8695315Y-10602618D02*
X-8801603Y-10608998D01*
X-8801603Y-10608998D02*
X-8990369Y-10662996D01*
X-8990369Y-10662996D02*
X-9096658Y-10669376D01*
X-9096658Y-10669376D02*
X-9161706Y-10651946D01*
X-9161706Y-10651946D02*
X-9250565Y-10593277D01*
X-9250565Y-10593277D02*
X-9298184Y-10510799D01*
X-9298184Y-10510799D02*
X-9304564Y-10404510D01*
X-9304564Y-10404510D02*
X-9287134Y-10339462D01*
X-9287134Y-10339462D02*
X-9228465Y-10250603D01*
X-9228465Y-10250603D02*
X-9022268Y-10131556D01*
X-9022268Y-10131556D02*
X-8874741Y-10101366D01*
X-8521017Y-9952129D02*
X-8503587Y-9887081D01*
X-8503587Y-9887081D02*
X-8444918Y-9798222D01*
X-8444918Y-9798222D02*
X-8238721Y-9679175D01*
X-8238721Y-9679175D02*
X-8132433Y-9672795D01*
X-8132433Y-9672795D02*
X-8067384Y-9690225D01*
X-8067384Y-9690225D02*
X-7978526Y-9748894D01*
X-7978526Y-9748894D02*
X-7930907Y-9831372D01*
X-7930907Y-9831372D02*
X-7900718Y-9978900D01*
X-7900718Y-9978900D02*
X-8109875Y-10759486D01*
X-8109875Y-10759486D02*
X-7573764Y-10449962D01*
X-7364607Y-9669376D02*
X-7470895Y-9675756D01*
X-7470895Y-9675756D02*
X-7535944Y-9658326D01*
X-7535944Y-9658326D02*
X-7624802Y-9599657D01*
X-7624802Y-9599657D02*
X-7648612Y-9558418D01*
X-7648612Y-9558418D02*
X-7654991Y-9452129D01*
X-7654991Y-9452129D02*
X-7637562Y-9387081D01*
X-7637562Y-9387081D02*
X-7578892Y-9298222D01*
X-7578892Y-9298222D02*
X-7413935Y-9202984D01*
X-7413935Y-9202984D02*
X-7307647Y-9196604D01*
X-7307647Y-9196604D02*
X-7242598Y-9214034D01*
X-7242598Y-9214034D02*
X-7153740Y-9272703D01*
X-7153740Y-9272703D02*
X-7129930Y-9313943D01*
X-7129930Y-9313943D02*
X-7123551Y-9420231D01*
X-7123551Y-9420231D02*
X-7140980Y-9485280D01*
X-7140980Y-9485280D02*
X-7199649Y-9574138D01*
X-7199649Y-9574138D02*
X-7364607Y-9669376D01*
X-7364607Y-9669376D02*
X-7423276Y-9758234D01*
X-7423276Y-9758234D02*
X-7440706Y-9823283D01*
X-7440706Y-9823283D02*
X-7434326Y-9929571D01*
X-7434326Y-9929571D02*
X-7339088Y-10094529D01*
X-7339088Y-10094529D02*
X-7250229Y-10153198D01*
X-7250229Y-10153198D02*
X-7185181Y-10170627D01*
X-7185181Y-10170627D02*
X-7078892Y-10164248D01*
X-7078892Y-10164248D02*
X-6913935Y-10069010D01*
X-6913935Y-10069010D02*
X-6855266Y-9980151D01*
X-6855266Y-9980151D02*
X-6837836Y-9915102D01*
X-6837836Y-9915102D02*
X-6844216Y-9808814D01*
X-6844216Y-9808814D02*
X-6939454Y-9643857D01*
X-6939454Y-9643857D02*
X-7028313Y-9585188D01*
X-7028313Y-9585188D02*
X-7093361Y-9567758D01*
X-7093361Y-9567758D02*
X-7199649Y-9574138D01*
X-5924192Y-9497581D02*
X-6419063Y-9783295D01*
X-6171628Y-9640438D02*
X-6671628Y-8774413D01*
X-6671628Y-8774413D02*
X-6682678Y-8945750D01*
X-6682678Y-8945750D02*
X-6717537Y-9075847D01*
X-6717537Y-9075847D02*
X-6776206Y-9164706D01*
X-6046658Y-8523558D02*
X-6029229Y-8458509D01*
X-6029229Y-8458509D02*
X-5970559Y-8369651D01*
X-5970559Y-8369651D02*
X-5764363Y-8250603D01*
X-5764363Y-8250603D02*
X-5658075Y-8244223D01*
X-5658075Y-8244223D02*
X-5593026Y-8261653D01*
X-5593026Y-8261653D02*
X-5504168Y-8320322D01*
X-5504168Y-8320322D02*
X-5456549Y-8402801D01*
X-5456549Y-8402801D02*
X-5426359Y-8550328D01*
X-5426359Y-8550328D02*
X-5635517Y-9330914D01*
X-5635517Y-9330914D02*
X-5099406Y-9021390D01*
X-4701482Y-8186806D02*
X-4553954Y-8156616D01*
X-4553954Y-8156616D02*
X-4488905Y-8174046D01*
X-4488905Y-8174046D02*
X-4400047Y-8232715D01*
X-4400047Y-8232715D02*
X-4328618Y-8356433D01*
X-4328618Y-8356433D02*
X-4322239Y-8462721D01*
X-4322239Y-8462721D02*
X-4339668Y-8527770D01*
X-4339668Y-8527770D02*
X-4398337Y-8616629D01*
X-4398337Y-8616629D02*
X-4728252Y-8807105D01*
X-4728252Y-8807105D02*
X-5228252Y-7941079D01*
X-5228252Y-7941079D02*
X-4939577Y-7774413D01*
X-4939577Y-7774413D02*
X-4833289Y-7768033D01*
X-4833289Y-7768033D02*
X-4768240Y-7785463D01*
X-4768240Y-7785463D02*
X-4679381Y-7844132D01*
X-4679381Y-7844132D02*
X-4631762Y-7926610D01*
X-4631762Y-7926610D02*
X-4625383Y-8032899D01*
X-4625383Y-8032899D02*
X-4642812Y-8097947D01*
X-4642812Y-8097947D02*
X-4701482Y-8186806D01*
X-4701482Y-8186806D02*
X-4990157Y-8353472D01*
X-4052703Y-7977190D02*
X-3392874Y-7596238D01*
X-3283625Y-6928320D02*
X-3266195Y-6863271D01*
X-3266195Y-6863271D02*
X-3207526Y-6774413D01*
X-3207526Y-6774413D02*
X-3001330Y-6655365D01*
X-3001330Y-6655365D02*
X-2895042Y-6648985D01*
X-2895042Y-6648985D02*
X-2829993Y-6666415D01*
X-2829993Y-6666415D02*
X-2741134Y-6725084D01*
X-2741134Y-6725084D02*
X-2693515Y-6807563D01*
X-2693515Y-6807563D02*
X-2663326Y-6955090D01*
X-2663326Y-6955090D02*
X-2872483Y-7735676D01*
X-2872483Y-7735676D02*
X-2336372Y-7426152D01*
X-2300261Y-6250603D02*
X-2217783Y-6202984D01*
X-2217783Y-6202984D02*
X-2111495Y-6196604D01*
X-2111495Y-6196604D02*
X-2046446Y-6214034D01*
X-2046446Y-6214034D02*
X-1957588Y-6272703D01*
X-1957588Y-6272703D02*
X-1821110Y-6413851D01*
X-1821110Y-6413851D02*
X-1702062Y-6620048D01*
X-1702062Y-6620048D02*
X-1648064Y-6808814D01*
X-1648064Y-6808814D02*
X-1641684Y-6915102D01*
X-1641684Y-6915102D02*
X-1659114Y-6980151D01*
X-1659114Y-6980151D02*
X-1717783Y-7069010D01*
X-1717783Y-7069010D02*
X-1800261Y-7116629D01*
X-1800261Y-7116629D02*
X-1906550Y-7123008D01*
X-1906550Y-7123008D02*
X-1971598Y-7105579D01*
X-1971598Y-7105579D02*
X-2060457Y-7046910D01*
X-2060457Y-7046910D02*
X-2196934Y-6905762D01*
X-2196934Y-6905762D02*
X-2315982Y-6699565D01*
X-2315982Y-6699565D02*
X-2369981Y-6510799D01*
X-2369981Y-6510799D02*
X-2376360Y-6404510D01*
X-2376360Y-6404510D02*
X-2358931Y-6339462D01*
X-2358931Y-6339462D02*
X-2300261Y-6250603D01*
X-1634053Y-5975939D02*
X-1616623Y-5910890D01*
X-1616623Y-5910890D02*
X-1557954Y-5822032D01*
X-1557954Y-5822032D02*
X-1351757Y-5702984D01*
X-1351757Y-5702984D02*
X-1245469Y-5696604D01*
X-1245469Y-5696604D02*
X-1180420Y-5714034D01*
X-1180420Y-5714034D02*
X-1091562Y-5772703D01*
X-1091562Y-5772703D02*
X-1043943Y-5855182D01*
X-1043943Y-5855182D02*
X-1013754Y-6002709D01*
X-1013754Y-6002709D02*
X-1222911Y-6783295D01*
X-1222911Y-6783295D02*
X-686800Y-6473771D01*
X-650689Y-5298222D02*
X-568211Y-5250603D01*
X-568211Y-5250603D02*
X-461922Y-5244223D01*
X-461922Y-5244223D02*
X-396874Y-5261653D01*
X-396874Y-5261653D02*
X-308015Y-5320322D01*
X-308015Y-5320322D02*
X-171538Y-5461470D01*
X-171538Y-5461470D02*
X-52490Y-5667667D01*
X-52490Y-5667667D02*
X1508Y-5856433D01*
X1508Y-5856433D02*
X7887Y-5962721D01*
X7887Y-5962721D02*
X-9541Y-6027770D01*
X-9541Y-6027770D02*
X-68211Y-6116629D01*
X-68211Y-6116629D02*
X-150689Y-6164248D01*
X-150689Y-6164248D02*
X-256977Y-6170627D01*
X-256977Y-6170627D02*
X-322026Y-6153198D01*
X-322026Y-6153198D02*
X-410884Y-6094529D01*
X-410884Y-6094529D02*
X-547362Y-5953381D01*
X-547362Y-5953381D02*
X-666409Y-5747184D01*
X-666409Y-5747184D02*
X-720408Y-5558418D01*
X-720408Y-5558418D02*
X-726788Y-5452129D01*
X-726788Y-5452129D02*
X-709358Y-5387081D01*
X-709358Y-5387081D02*
X-650689Y-5298222D01*
D12*
X-4577052Y-10997561D02*
X-4783249Y-11116609D01*
X-4783249Y-11116609D02*
X-5033249Y-10683596D01*
X-4563667Y-10687411D02*
X-4419329Y-10604078D01*
X-4226518Y-10795180D02*
X-4432715Y-10914228D01*
X-4432715Y-10914228D02*
X-4682715Y-10481215D01*
X-4682715Y-10481215D02*
X-4476518Y-10362167D01*
X-4040941Y-10688037D02*
X-4290941Y-10255024D01*
X-4290941Y-10255024D02*
X-4187843Y-10195501D01*
X-4187843Y-10195501D02*
X-4114079Y-10180406D01*
X-4114079Y-10180406D02*
X-4049030Y-10197836D01*
X-4049030Y-10197836D02*
X-4004601Y-10227170D01*
X-4004601Y-10227170D02*
X-3936363Y-10297744D01*
X-3936363Y-10297744D02*
X-3900648Y-10359603D01*
X-3900648Y-10359603D02*
X-3873649Y-10453986D01*
X-3873649Y-10453986D02*
X-3870459Y-10507131D01*
X-3870459Y-10507131D02*
X-3887889Y-10572179D01*
X-3887889Y-10572179D02*
X-3937843Y-10628513D01*
X-3937843Y-10628513D02*
X-4040941Y-10688037D01*
X-3651732Y-9885977D02*
X-3857929Y-10005024D01*
X-3857929Y-10005024D02*
X-3759501Y-10223126D01*
X-3759501Y-10223126D02*
X-3750786Y-10190601D01*
X-3750786Y-10190601D02*
X-3721451Y-10146172D01*
X-3721451Y-10146172D02*
X-3618353Y-10086648D01*
X-3618353Y-10086648D02*
X-3565209Y-10083458D01*
X-3565209Y-10083458D02*
X-3532684Y-10092173D01*
X-3532684Y-10092173D02*
X-3488255Y-10121508D01*
X-3488255Y-10121508D02*
X-3428731Y-10224606D01*
X-3428731Y-10224606D02*
X-3425542Y-10277750D01*
X-3425542Y-10277750D02*
X-3434256Y-10310275D01*
X-3434256Y-10310275D02*
X-3463591Y-10354704D01*
X-3463591Y-10354704D02*
X-3566689Y-10414228D01*
X-3566689Y-10414228D02*
X-3619833Y-10417417D01*
X-3619833Y-10417417D02*
X-3652358Y-10408703D01*
X-3486775Y-9790739D02*
X-3218720Y-9635977D01*
X-3218720Y-9635977D02*
X-3267819Y-9884268D01*
X-3267819Y-9884268D02*
X-3205960Y-9848553D01*
X-3205960Y-9848553D02*
X-3152816Y-9845363D01*
X-3152816Y-9845363D02*
X-3120292Y-9854078D01*
X-3120292Y-9854078D02*
X-3075863Y-9883413D01*
X-3075863Y-9883413D02*
X-3016339Y-9986511D01*
X-3016339Y-9986511D02*
X-3013149Y-10039655D01*
X-3013149Y-10039655D02*
X-3021864Y-10072180D01*
X-3021864Y-10072180D02*
X-3051198Y-10116609D01*
X-3051198Y-10116609D02*
X-3174916Y-10188037D01*
X-3174916Y-10188037D02*
X-3228060Y-10191227D01*
X-3228060Y-10191227D02*
X-3260585Y-10182512D01*
D10*
X-13996943Y4315415D02*
X-14255762Y3349489D01*
X-14255762Y3349489D02*
X-14392866Y4125709D01*
X-14392866Y4125709D02*
X-14899712Y3522035D01*
X-14899712Y3522035D02*
X-14640893Y4487961D01*
X-15100858Y4611208D02*
X-15359677Y3645282D01*
X-15652816Y4759104D02*
X-15386744Y4096224D01*
X-15911635Y3793179D02*
X-15211780Y4197240D01*
X-16066784Y4870027D02*
X-16239330Y4226076D01*
X-16325603Y3904101D02*
X-16267282Y3937773D01*
X-16267282Y3937773D02*
X-16300953Y3996094D01*
X-16300953Y3996094D02*
X-16359275Y3962422D01*
X-16359275Y3962422D02*
X-16325603Y3904101D01*
X-16325603Y3904101D02*
X-16300953Y3996094D01*
X-16714921Y4107016D02*
X-16773242Y4073345D01*
X-16773242Y4073345D02*
X-16877560Y4051998D01*
X-16877560Y4051998D02*
X-17107542Y4113621D01*
X-17107542Y4113621D02*
X-17187211Y4184267D01*
X-17187211Y4184267D02*
X-17220882Y4242588D01*
X-17220882Y4242588D02*
X-17242229Y4346906D01*
X-17242229Y4346906D02*
X-17217580Y4438899D01*
X-17217580Y4438899D02*
X-17134609Y4564563D01*
X-17134609Y4564563D02*
X-16434755Y4968624D01*
X-16434755Y4968624D02*
X-17032709Y5128846D01*
X-17872970Y5304694D02*
X-17768653Y5326041D01*
X-17768653Y5326041D02*
X-17584667Y5276742D01*
X-17584667Y5276742D02*
X-17504999Y5206096D01*
X-17504999Y5206096D02*
X-17471327Y5147775D01*
X-17471327Y5147775D02*
X-17449980Y5043458D01*
X-17449980Y5043458D02*
X-17523928Y4767479D01*
X-17523928Y4767479D02*
X-17594574Y4687811D01*
X-17594574Y4687811D02*
X-17652895Y4654139D01*
X-17652895Y4654139D02*
X-17757213Y4632792D01*
X-17757213Y4632792D02*
X-17941199Y4682091D01*
X-17941199Y4682091D02*
X-18020867Y4752737D01*
X-19516519Y5794381D02*
X-18964561Y5646484D01*
X-19240540Y5720432D02*
X-19499359Y4754506D01*
X-19499359Y4754506D02*
X-19370392Y4867846D01*
X-19370392Y4867846D02*
X-19253750Y4935190D01*
X-19253750Y4935190D02*
X-19149432Y4956537D01*
X-20517001Y5372275D02*
X-20344455Y6016225D01*
X-20103033Y5261352D02*
X-19967461Y5767314D01*
X-19967461Y5767314D02*
X-19988808Y5871631D01*
X-19988808Y5871631D02*
X-20068477Y5942277D01*
X-20068477Y5942277D02*
X-20206466Y5979251D01*
X-20206466Y5979251D02*
X-20310784Y5957904D01*
X-20310784Y5957904D02*
X-20369105Y5924233D01*
X-125634984Y29298230D02*
X-125893803Y28332304D01*
X-125893803Y28332304D02*
X-126030907Y29108524D01*
X-126030907Y29108524D02*
X-126537753Y28504850D01*
X-126537753Y28504850D02*
X-126278934Y29470776D01*
X-126738899Y29594023D02*
X-126997718Y28628097D01*
X-127290857Y29741919D02*
X-127024785Y29079039D01*
X-127549676Y28775994D02*
X-126849821Y29180055D01*
X-127704825Y29852842D02*
X-127877371Y29208891D01*
X-127963644Y28886916D02*
X-127905323Y28920588D01*
X-127905323Y28920588D02*
X-127938994Y28978909D01*
X-127938994Y28978909D02*
X-127997316Y28945237D01*
X-127997316Y28945237D02*
X-127963644Y28886916D01*
X-127963644Y28886916D02*
X-127938994Y28978909D01*
X-128352962Y29089831D02*
X-128411283Y29056160D01*
X-128411283Y29056160D02*
X-128515601Y29034813D01*
X-128515601Y29034813D02*
X-128745583Y29096436D01*
X-128745583Y29096436D02*
X-128825252Y29167082D01*
X-128825252Y29167082D02*
X-128858923Y29225403D01*
X-128858923Y29225403D02*
X-128880270Y29329721D01*
X-128880270Y29329721D02*
X-128855621Y29421714D01*
X-128855621Y29421714D02*
X-128772650Y29547378D01*
X-128772650Y29547378D02*
X-128072796Y29951439D01*
X-128072796Y29951439D02*
X-128670750Y30111661D01*
X-129511011Y30287509D02*
X-129406694Y30308856D01*
X-129406694Y30308856D02*
X-129222708Y30259557D01*
X-129222708Y30259557D02*
X-129143040Y30188911D01*
X-129143040Y30188911D02*
X-129109368Y30130590D01*
X-129109368Y30130590D02*
X-129088021Y30026273D01*
X-129088021Y30026273D02*
X-129161969Y29750294D01*
X-129161969Y29750294D02*
X-129232615Y29670626D01*
X-129232615Y29670626D02*
X-129290936Y29636954D01*
X-129290936Y29636954D02*
X-129395254Y29615607D01*
X-129395254Y29615607D02*
X-129579240Y29664906D01*
X-129579240Y29664906D02*
X-129658908Y29735552D01*
X-131154560Y30777196D02*
X-130602602Y30629299D01*
X-130878581Y30703247D02*
X-131137400Y29737321D01*
X-131137400Y29737321D02*
X-131008433Y29850661D01*
X-131008433Y29850661D02*
X-130891791Y29918005D01*
X-130891791Y29918005D02*
X-130787473Y29939352D01*
X-132155042Y30355090D02*
X-131982496Y30999040D01*
X-131741074Y30244167D02*
X-131605502Y30750129D01*
X-131605502Y30750129D02*
X-131626849Y30854446D01*
X-131626849Y30854446D02*
X-131706518Y30925092D01*
X-131706518Y30925092D02*
X-131844507Y30962066D01*
X-131844507Y30962066D02*
X-131948825Y30940719D01*
X-131948825Y30940719D02*
X-132007146Y30907048D01*
X-18927450Y-14085488D02*
X-19186269Y-15051414D01*
X-19186269Y-15051414D02*
X-19323373Y-14275194D01*
X-19323373Y-14275194D02*
X-19830219Y-14878868D01*
X-19830219Y-14878868D02*
X-19571400Y-13912942D01*
X-20031365Y-13789695D02*
X-20290184Y-14755621D01*
X-20583323Y-13641799D02*
X-20317251Y-14304679D01*
X-20842142Y-14607724D02*
X-20142287Y-14203663D01*
X-20997291Y-13530876D02*
X-21169837Y-14174827D01*
X-21256110Y-14496802D02*
X-21197789Y-14463130D01*
X-21197789Y-14463130D02*
X-21231460Y-14404809D01*
X-21231460Y-14404809D02*
X-21289782Y-14438481D01*
X-21289782Y-14438481D02*
X-21256110Y-14496802D01*
X-21256110Y-14496802D02*
X-21231460Y-14404809D01*
X-21645428Y-14293887D02*
X-21703749Y-14327558D01*
X-21703749Y-14327558D02*
X-21808067Y-14348905D01*
X-21808067Y-14348905D02*
X-22038049Y-14287282D01*
X-22038049Y-14287282D02*
X-22117718Y-14216636D01*
X-22117718Y-14216636D02*
X-22151389Y-14158315D01*
X-22151389Y-14158315D02*
X-22172736Y-14053997D01*
X-22172736Y-14053997D02*
X-22148087Y-13962004D01*
X-22148087Y-13962004D02*
X-22065116Y-13836340D01*
X-22065116Y-13836340D02*
X-21365262Y-13432279D01*
X-21365262Y-13432279D02*
X-21963216Y-13272057D01*
X-22803477Y-13096209D02*
X-22699160Y-13074862D01*
X-22699160Y-13074862D02*
X-22515174Y-13124161D01*
X-22515174Y-13124161D02*
X-22435506Y-13194807D01*
X-22435506Y-13194807D02*
X-22401834Y-13253128D01*
X-22401834Y-13253128D02*
X-22380487Y-13357445D01*
X-22380487Y-13357445D02*
X-22454435Y-13633424D01*
X-22454435Y-13633424D02*
X-22525081Y-13713092D01*
X-22525081Y-13713092D02*
X-22583402Y-13746764D01*
X-22583402Y-13746764D02*
X-22687720Y-13768111D01*
X-22687720Y-13768111D02*
X-22871706Y-13718812D01*
X-22871706Y-13718812D02*
X-22951374Y-13648166D01*
X-24447026Y-12606522D02*
X-23895068Y-12754419D01*
X-24171047Y-12680471D02*
X-24429866Y-13646397D01*
X-24429866Y-13646397D02*
X-24300899Y-13533057D01*
X-24300899Y-13533057D02*
X-24184257Y-13465713D01*
X-24184257Y-13465713D02*
X-24079939Y-13444366D01*
X-25447508Y-13028628D02*
X-25274962Y-12384678D01*
X-25033540Y-13139551D02*
X-24897968Y-12633589D01*
X-24897968Y-12633589D02*
X-24919315Y-12529272D01*
X-24919315Y-12529272D02*
X-24998984Y-12458626D01*
X-24998984Y-12458626D02*
X-25136973Y-12421652D01*
X-25136973Y-12421652D02*
X-25241291Y-12442999D01*
X-25241291Y-12442999D02*
X-25299612Y-12476670D01*
X-224404Y-28741971D02*
X481791Y-29488949D01*
X481791Y-29488949D02*
X289605Y-28775121D01*
X289605Y-28775121D02*
X811706Y-29298473D01*
X811706Y-29298473D02*
X517902Y-28313400D01*
X1282768Y-28971519D02*
X1430295Y-28941330D01*
X1430295Y-28941330D02*
X1636492Y-28822283D01*
X1636492Y-28822283D02*
X1695161Y-28733424D01*
X1695161Y-28733424D02*
X1712590Y-28668375D01*
X1712590Y-28668375D02*
X1706211Y-28562087D01*
X1706211Y-28562087D02*
X1658592Y-28479609D01*
X1658592Y-28479609D02*
X1569733Y-28420940D01*
X1569733Y-28420940D02*
X1504684Y-28403510D01*
X1504684Y-28403510D02*
X1398396Y-28409890D01*
X1398396Y-28409890D02*
X1209630Y-28463888D01*
X1209630Y-28463888D02*
X1103341Y-28470268D01*
X1103341Y-28470268D02*
X1038293Y-28452838D01*
X1038293Y-28452838D02*
X949434Y-28394169D01*
X949434Y-28394169D02*
X901815Y-28311691D01*
X901815Y-28311691D02*
X895435Y-28205402D01*
X895435Y-28205402D02*
X912865Y-28140354D01*
X912865Y-28140354D02*
X971534Y-28051495D01*
X971534Y-28051495D02*
X1177731Y-27932448D01*
X1177731Y-27932448D02*
X1325258Y-27902258D01*
X1678982Y-27753021D02*
X1696412Y-27687973D01*
X1696412Y-27687973D02*
X1755081Y-27599114D01*
X1755081Y-27599114D02*
X1961278Y-27480067D01*
X1961278Y-27480067D02*
X2067566Y-27473687D01*
X2067566Y-27473687D02*
X2132615Y-27491117D01*
X2132615Y-27491117D02*
X2221473Y-27549786D01*
X2221473Y-27549786D02*
X2269092Y-27632264D01*
X2269092Y-27632264D02*
X2299281Y-27779792D01*
X2299281Y-27779792D02*
X2090124Y-28560378D01*
X2090124Y-28560378D02*
X2626235Y-28250854D01*
X2835392Y-27470268D02*
X2729104Y-27476648D01*
X2729104Y-27476648D02*
X2664055Y-27459218D01*
X2664055Y-27459218D02*
X2575197Y-27400549D01*
X2575197Y-27400549D02*
X2551387Y-27359310D01*
X2551387Y-27359310D02*
X2545008Y-27253021D01*
X2545008Y-27253021D02*
X2562437Y-27187973D01*
X2562437Y-27187973D02*
X2621107Y-27099114D01*
X2621107Y-27099114D02*
X2786064Y-27003876D01*
X2786064Y-27003876D02*
X2892352Y-26997496D01*
X2892352Y-26997496D02*
X2957401Y-27014926D01*
X2957401Y-27014926D02*
X3046259Y-27073595D01*
X3046259Y-27073595D02*
X3070069Y-27114835D01*
X3070069Y-27114835D02*
X3076448Y-27221123D01*
X3076448Y-27221123D02*
X3059019Y-27286172D01*
X3059019Y-27286172D02*
X3000350Y-27375030D01*
X3000350Y-27375030D02*
X2835392Y-27470268D01*
X2835392Y-27470268D02*
X2776723Y-27559126D01*
X2776723Y-27559126D02*
X2759293Y-27624175D01*
X2759293Y-27624175D02*
X2765673Y-27730463D01*
X2765673Y-27730463D02*
X2860911Y-27895421D01*
X2860911Y-27895421D02*
X2949770Y-27954090D01*
X2949770Y-27954090D02*
X3014818Y-27971519D01*
X3014818Y-27971519D02*
X3121107Y-27965140D01*
X3121107Y-27965140D02*
X3286064Y-27869902D01*
X3286064Y-27869902D02*
X3344733Y-27781043D01*
X3344733Y-27781043D02*
X3362163Y-27715994D01*
X3362163Y-27715994D02*
X3355783Y-27609706D01*
X3355783Y-27609706D02*
X3260545Y-27444749D01*
X3260545Y-27444749D02*
X3171686Y-27386080D01*
X3171686Y-27386080D02*
X3106638Y-27368650D01*
X3106638Y-27368650D02*
X3000350Y-27375030D01*
X4275807Y-27298473D02*
X3780936Y-27584187D01*
X4028371Y-27441330D02*
X3528371Y-26575305D01*
X3528371Y-26575305D02*
X3517321Y-26746642D01*
X3517321Y-26746642D02*
X3482462Y-26876739D01*
X3482462Y-26876739D02*
X3423793Y-26965598D01*
X4153341Y-26324450D02*
X4170770Y-26259401D01*
X4170770Y-26259401D02*
X4229440Y-26170543D01*
X4229440Y-26170543D02*
X4435636Y-26051495D01*
X4435636Y-26051495D02*
X4541924Y-26045115D01*
X4541924Y-26045115D02*
X4606973Y-26062545D01*
X4606973Y-26062545D02*
X4695831Y-26121214D01*
X4695831Y-26121214D02*
X4743450Y-26203693D01*
X4743450Y-26203693D02*
X4773640Y-26351220D01*
X4773640Y-26351220D02*
X4564482Y-27131806D01*
X4564482Y-27131806D02*
X5100593Y-26822282D01*
X5498517Y-25987698D02*
X5646045Y-25957508D01*
X5646045Y-25957508D02*
X5711094Y-25974938D01*
X5711094Y-25974938D02*
X5799952Y-26033607D01*
X5799952Y-26033607D02*
X5871381Y-26157325D01*
X5871381Y-26157325D02*
X5877760Y-26263613D01*
X5877760Y-26263613D02*
X5860331Y-26328662D01*
X5860331Y-26328662D02*
X5801662Y-26417521D01*
X5801662Y-26417521D02*
X5471747Y-26607997D01*
X5471747Y-26607997D02*
X4971747Y-25741971D01*
X4971747Y-25741971D02*
X5260422Y-25575305D01*
X5260422Y-25575305D02*
X5366710Y-25568925D01*
X5366710Y-25568925D02*
X5431759Y-25586355D01*
X5431759Y-25586355D02*
X5520618Y-25645024D01*
X5520618Y-25645024D02*
X5568237Y-25727502D01*
X5568237Y-25727502D02*
X5574616Y-25833791D01*
X5574616Y-25833791D02*
X5557187Y-25898839D01*
X5557187Y-25898839D02*
X5498517Y-25987698D01*
X5498517Y-25987698D02*
X5209842Y-26154364D01*
X6147296Y-25778082D02*
X6807125Y-25397130D01*
X6916374Y-24729212D02*
X6933804Y-24664163D01*
X6933804Y-24664163D02*
X6992473Y-24575305D01*
X6992473Y-24575305D02*
X7198669Y-24456257D01*
X7198669Y-24456257D02*
X7304957Y-24449877D01*
X7304957Y-24449877D02*
X7370006Y-24467307D01*
X7370006Y-24467307D02*
X7458865Y-24525976D01*
X7458865Y-24525976D02*
X7506484Y-24608455D01*
X7506484Y-24608455D02*
X7536673Y-24755982D01*
X7536673Y-24755982D02*
X7327516Y-25536568D01*
X7327516Y-25536568D02*
X7863627Y-25227044D01*
X7899738Y-24051495D02*
X7982216Y-24003876D01*
X7982216Y-24003876D02*
X8088504Y-23997496D01*
X8088504Y-23997496D02*
X8153553Y-24014926D01*
X8153553Y-24014926D02*
X8242411Y-24073595D01*
X8242411Y-24073595D02*
X8378889Y-24214743D01*
X8378889Y-24214743D02*
X8497937Y-24420940D01*
X8497937Y-24420940D02*
X8551935Y-24609706D01*
X8551935Y-24609706D02*
X8558315Y-24715994D01*
X8558315Y-24715994D02*
X8540885Y-24781043D01*
X8540885Y-24781043D02*
X8482216Y-24869902D01*
X8482216Y-24869902D02*
X8399738Y-24917521D01*
X8399738Y-24917521D02*
X8293449Y-24923900D01*
X8293449Y-24923900D02*
X8228401Y-24906471D01*
X8228401Y-24906471D02*
X8139542Y-24847802D01*
X8139542Y-24847802D02*
X8003065Y-24706654D01*
X8003065Y-24706654D02*
X7884017Y-24500457D01*
X7884017Y-24500457D02*
X7830018Y-24311691D01*
X7830018Y-24311691D02*
X7823639Y-24205402D01*
X7823639Y-24205402D02*
X7841068Y-24140354D01*
X7841068Y-24140354D02*
X7899738Y-24051495D01*
X8565946Y-23776831D02*
X8583376Y-23711782D01*
X8583376Y-23711782D02*
X8642045Y-23622924D01*
X8642045Y-23622924D02*
X8848242Y-23503876D01*
X8848242Y-23503876D02*
X8954530Y-23497496D01*
X8954530Y-23497496D02*
X9019579Y-23514926D01*
X9019579Y-23514926D02*
X9108437Y-23573595D01*
X9108437Y-23573595D02*
X9156056Y-23656074D01*
X9156056Y-23656074D02*
X9186245Y-23803601D01*
X9186245Y-23803601D02*
X8977088Y-24584187D01*
X8977088Y-24584187D02*
X9513199Y-24274663D01*
X9549310Y-23099114D02*
X9631788Y-23051495D01*
X9631788Y-23051495D02*
X9738077Y-23045115D01*
X9738077Y-23045115D02*
X9803125Y-23062545D01*
X9803125Y-23062545D02*
X9891984Y-23121214D01*
X9891984Y-23121214D02*
X10028461Y-23262362D01*
X10028461Y-23262362D02*
X10147509Y-23468559D01*
X10147509Y-23468559D02*
X10201508Y-23657325D01*
X10201508Y-23657325D02*
X10207887Y-23763613D01*
X10207887Y-23763613D02*
X10190458Y-23828662D01*
X10190458Y-23828662D02*
X10131788Y-23917521D01*
X10131788Y-23917521D02*
X10049310Y-23965140D01*
X10049310Y-23965140D02*
X9943022Y-23971519D01*
X9943022Y-23971519D02*
X9877973Y-23954090D01*
X9877973Y-23954090D02*
X9789115Y-23895421D01*
X9789115Y-23895421D02*
X9652637Y-23754273D01*
X9652637Y-23754273D02*
X9533590Y-23548076D01*
X9533590Y-23548076D02*
X9479591Y-23359310D01*
X9479591Y-23359310D02*
X9473211Y-23253021D01*
X9473211Y-23253021D02*
X9490641Y-23187973D01*
X9490641Y-23187973D02*
X9549310Y-23099114D01*
D12*
X3422947Y-24987941D02*
X3216750Y-25106989D01*
X3216750Y-25106989D02*
X2966750Y-24673976D01*
X3436332Y-24677791D02*
X3580670Y-24594458D01*
X3773481Y-24785560D02*
X3567284Y-24904608D01*
X3567284Y-24904608D02*
X3317284Y-24471595D01*
X3317284Y-24471595D02*
X3523481Y-24352547D01*
X3959058Y-24678417D02*
X3709058Y-24245404D01*
X3709058Y-24245404D02*
X3812156Y-24185881D01*
X3812156Y-24185881D02*
X3885920Y-24170786D01*
X3885920Y-24170786D02*
X3950969Y-24188216D01*
X3950969Y-24188216D02*
X3995398Y-24217550D01*
X3995398Y-24217550D02*
X4063636Y-24288124D01*
X4063636Y-24288124D02*
X4099351Y-24349983D01*
X4099351Y-24349983D02*
X4126350Y-24444366D01*
X4126350Y-24444366D02*
X4129540Y-24497511D01*
X4129540Y-24497511D02*
X4112110Y-24562559D01*
X4112110Y-24562559D02*
X4062156Y-24618893D01*
X4062156Y-24618893D02*
X3959058Y-24678417D01*
X4348267Y-23876357D02*
X4142070Y-23995404D01*
X4142070Y-23995404D02*
X4240498Y-24213506D01*
X4240498Y-24213506D02*
X4249213Y-24180981D01*
X4249213Y-24180981D02*
X4278548Y-24136552D01*
X4278548Y-24136552D02*
X4381646Y-24077028D01*
X4381646Y-24077028D02*
X4434790Y-24073838D01*
X4434790Y-24073838D02*
X4467315Y-24082553D01*
X4467315Y-24082553D02*
X4511744Y-24111888D01*
X4511744Y-24111888D02*
X4571268Y-24214986D01*
X4571268Y-24214986D02*
X4574457Y-24268130D01*
X4574457Y-24268130D02*
X4565743Y-24300655D01*
X4565743Y-24300655D02*
X4536408Y-24345084D01*
X4536408Y-24345084D02*
X4433310Y-24404608D01*
X4433310Y-24404608D02*
X4380166Y-24407797D01*
X4380166Y-24407797D02*
X4347641Y-24399083D01*
X4636942Y-23709690D02*
X4678181Y-23685881D01*
X4678181Y-23685881D02*
X4731325Y-23682691D01*
X4731325Y-23682691D02*
X4763850Y-23691406D01*
X4763850Y-23691406D02*
X4808279Y-23720740D01*
X4808279Y-23720740D02*
X4876517Y-23791314D01*
X4876517Y-23791314D02*
X4936041Y-23894413D01*
X4936041Y-23894413D02*
X4963041Y-23988796D01*
X4963041Y-23988796D02*
X4966230Y-24041940D01*
X4966230Y-24041940D02*
X4957516Y-24074464D01*
X4957516Y-24074464D02*
X4928181Y-24118894D01*
X4928181Y-24118894D02*
X4886942Y-24142703D01*
X4886942Y-24142703D02*
X4833798Y-24145893D01*
X4833798Y-24145893D02*
X4801273Y-24137178D01*
X4801273Y-24137178D02*
X4756844Y-24107844D01*
X4756844Y-24107844D02*
X4688605Y-24037270D01*
X4688605Y-24037270D02*
X4629082Y-23934171D01*
X4629082Y-23934171D02*
X4602082Y-23839788D01*
X4602082Y-23839788D02*
X4598892Y-23786644D01*
X4598892Y-23786644D02*
X4607607Y-23754120D01*
X4607607Y-23754120D02*
X4636942Y-23709690D01*
D10*
X7431937Y-11319130D02*
X7146223Y-10824259D01*
X7289080Y-11071695D02*
X8155105Y-10571695D01*
X8155105Y-10571695D02*
X7983768Y-10560645D01*
X7983768Y-10560645D02*
X7853671Y-10525785D01*
X7853671Y-10525785D02*
X7764812Y-10467116D01*
X8607486Y-11355241D02*
X8655105Y-11437720D01*
X8655105Y-11437720D02*
X8661485Y-11544008D01*
X8661485Y-11544008D02*
X8644055Y-11609057D01*
X8644055Y-11609057D02*
X8585386Y-11697915D01*
X8585386Y-11697915D02*
X8444238Y-11834393D01*
X8444238Y-11834393D02*
X8238042Y-11953440D01*
X8238042Y-11953440D02*
X8049275Y-12007439D01*
X8049275Y-12007439D02*
X7942987Y-12013819D01*
X7942987Y-12013819D02*
X7877938Y-11996389D01*
X7877938Y-11996389D02*
X7789080Y-11937720D01*
X7789080Y-11937720D02*
X7741461Y-11855241D01*
X7741461Y-11855241D02*
X7735081Y-11748953D01*
X7735081Y-11748953D02*
X7752511Y-11683904D01*
X7752511Y-11683904D02*
X7811180Y-11595046D01*
X7811180Y-11595046D02*
X7952328Y-11458569D01*
X7952328Y-11458569D02*
X8158524Y-11339521D01*
X8158524Y-11339521D02*
X8347291Y-11285522D01*
X8347291Y-11285522D02*
X8453579Y-11279143D01*
X8453579Y-11279143D02*
X8518628Y-11296572D01*
X8518628Y-11296572D02*
X8607486Y-11355241D01*
X9083677Y-12180028D02*
X9131296Y-12262506D01*
X9131296Y-12262506D02*
X9137676Y-12368794D01*
X9137676Y-12368794D02*
X9120246Y-12433843D01*
X9120246Y-12433843D02*
X9061577Y-12522702D01*
X9061577Y-12522702D02*
X8920429Y-12659179D01*
X8920429Y-12659179D02*
X8714232Y-12778227D01*
X8714232Y-12778227D02*
X8525466Y-12832225D01*
X8525466Y-12832225D02*
X8419178Y-12838605D01*
X8419178Y-12838605D02*
X8354129Y-12821175D01*
X8354129Y-12821175D02*
X8265270Y-12762506D01*
X8265270Y-12762506D02*
X8217651Y-12680028D01*
X8217651Y-12680028D02*
X8211272Y-12573739D01*
X8211272Y-12573739D02*
X8228701Y-12508691D01*
X8228701Y-12508691D02*
X8287370Y-12419832D01*
X8287370Y-12419832D02*
X8428518Y-12283355D01*
X8428518Y-12283355D02*
X8634715Y-12164307D01*
X8634715Y-12164307D02*
X8823481Y-12110308D01*
X8823481Y-12110308D02*
X8929770Y-12103929D01*
X8929770Y-12103929D02*
X8994818Y-12121359D01*
X8994818Y-12121359D02*
X9083677Y-12180028D01*
X9175954Y-13006523D02*
X8598604Y-13339857D01*
X9093475Y-13054142D02*
X9158524Y-13071572D01*
X9158524Y-13071572D02*
X9247383Y-13130241D01*
X9247383Y-13130241D02*
X9318811Y-13253959D01*
X9318811Y-13253959D02*
X9325191Y-13360247D01*
X9325191Y-13360247D02*
X9266522Y-13449105D01*
X9266522Y-13449105D02*
X8812889Y-13711010D01*
X9671284Y-14150174D02*
X9504617Y-13861499D01*
X9050985Y-14123403D02*
X9917010Y-13623403D01*
X9917010Y-13623403D02*
X10155105Y-14035796D01*
D11*
X7108081Y-12996224D02*
X7082061Y-12989252D01*
X7082061Y-12989252D02*
X7036994Y-12949289D01*
X7036994Y-12949289D02*
X7017946Y-12916297D01*
X7017946Y-12916297D02*
X7005871Y-12857286D01*
X7005871Y-12857286D02*
X7019815Y-12805247D01*
X7019815Y-12805247D02*
X7043282Y-12769704D01*
X7043282Y-12769704D02*
X7099741Y-12715113D01*
X7099741Y-12715113D02*
X7149228Y-12686541D01*
X7149228Y-12686541D02*
X7224735Y-12664942D01*
X7224735Y-12664942D02*
X7267250Y-12662390D01*
X7267250Y-12662390D02*
X7319289Y-12676334D01*
X7319289Y-12676334D02*
X7364357Y-12716297D01*
X7364357Y-12716297D02*
X7383404Y-12749289D01*
X7383404Y-12749289D02*
X7395480Y-12808299D01*
X7395480Y-12808299D02*
X7388508Y-12834319D01*
X7592928Y-13112194D02*
X7554833Y-13046212D01*
X7554833Y-13046212D02*
X7519289Y-13022744D01*
X7519289Y-13022744D02*
X7493270Y-13015772D01*
X7493270Y-13015772D02*
X7424735Y-13011352D01*
X7424735Y-13011352D02*
X7349228Y-13032951D01*
X7349228Y-13032951D02*
X7217263Y-13109142D01*
X7217263Y-13109142D02*
X7193795Y-13144685D01*
X7193795Y-13144685D02*
X7186823Y-13170705D01*
X7186823Y-13170705D02*
X7189375Y-13213220D01*
X7189375Y-13213220D02*
X7227470Y-13279203D01*
X7227470Y-13279203D02*
X7263014Y-13302671D01*
X7263014Y-13302671D02*
X7289033Y-13309642D01*
X7289033Y-13309642D02*
X7331548Y-13307091D01*
X7331548Y-13307091D02*
X7414027Y-13259472D01*
X7414027Y-13259472D02*
X7437495Y-13223928D01*
X7437495Y-13223928D02*
X7444467Y-13197909D01*
X7444467Y-13197909D02*
X7441915Y-13155393D01*
X7441915Y-13155393D02*
X7403819Y-13089411D01*
X7403819Y-13089411D02*
X7368276Y-13065943D01*
X7368276Y-13065943D02*
X7342257Y-13058971D01*
X7342257Y-13058971D02*
X7299741Y-13061523D01*
X7792928Y-13458604D02*
X7697690Y-13293647D01*
X7697690Y-13293647D02*
X7523209Y-13372389D01*
X7523209Y-13372389D02*
X7549228Y-13379361D01*
X7549228Y-13379361D02*
X7584772Y-13402829D01*
X7584772Y-13402829D02*
X7632391Y-13485308D01*
X7632391Y-13485308D02*
X7634943Y-13527823D01*
X7634943Y-13527823D02*
X7627971Y-13553842D01*
X7627971Y-13553842D02*
X7604503Y-13589386D01*
X7604503Y-13589386D02*
X7522024Y-13637005D01*
X7522024Y-13637005D02*
X7479509Y-13639557D01*
X7479509Y-13639557D02*
X7453490Y-13632585D01*
X7453490Y-13632585D02*
X7417946Y-13609117D01*
X7417946Y-13609117D02*
X7370327Y-13526638D01*
X7370327Y-13526638D02*
X7367775Y-13484123D01*
X7367775Y-13484123D02*
X7374747Y-13458104D01*
D10*
X9654819Y-23230332D02*
X10654819Y-22992237D01*
X10654819Y-22992237D02*
X9940533Y-22801761D01*
X9940533Y-22801761D02*
X10654819Y-22611285D01*
X10654819Y-22611285D02*
X9654819Y-22373190D01*
X10607200Y-22039856D02*
X10654819Y-21896999D01*
X10654819Y-21896999D02*
X10654819Y-21658904D01*
X10654819Y-21658904D02*
X10607200Y-21563666D01*
X10607200Y-21563666D02*
X10559580Y-21516047D01*
X10559580Y-21516047D02*
X10464342Y-21468428D01*
X10464342Y-21468428D02*
X10369104Y-21468428D01*
X10369104Y-21468428D02*
X10273866Y-21516047D01*
X10273866Y-21516047D02*
X10226247Y-21563666D01*
X10226247Y-21563666D02*
X10178628Y-21658904D01*
X10178628Y-21658904D02*
X10131009Y-21849380D01*
X10131009Y-21849380D02*
X10083390Y-21944618D01*
X10083390Y-21944618D02*
X10035771Y-21992237D01*
X10035771Y-21992237D02*
X9940533Y-22039856D01*
X9940533Y-22039856D02*
X9845295Y-22039856D01*
X9845295Y-22039856D02*
X9750057Y-21992237D01*
X9750057Y-21992237D02*
X9702438Y-21944618D01*
X9702438Y-21944618D02*
X9654819Y-21849380D01*
X9654819Y-21849380D02*
X9654819Y-21611285D01*
X9654819Y-21611285D02*
X9702438Y-21468428D01*
X9750057Y-21087475D02*
X9702438Y-21039856D01*
X9702438Y-21039856D02*
X9654819Y-20944618D01*
X9654819Y-20944618D02*
X9654819Y-20706523D01*
X9654819Y-20706523D02*
X9702438Y-20611285D01*
X9702438Y-20611285D02*
X9750057Y-20563666D01*
X9750057Y-20563666D02*
X9845295Y-20516047D01*
X9845295Y-20516047D02*
X9940533Y-20516047D01*
X9940533Y-20516047D02*
X10083390Y-20563666D01*
X10083390Y-20563666D02*
X10654819Y-21135094D01*
X10654819Y-21135094D02*
X10654819Y-20516047D01*
X10083390Y-19944618D02*
X10035771Y-20039856D01*
X10035771Y-20039856D02*
X9988152Y-20087475D01*
X9988152Y-20087475D02*
X9892914Y-20135094D01*
X9892914Y-20135094D02*
X9845295Y-20135094D01*
X9845295Y-20135094D02*
X9750057Y-20087475D01*
X9750057Y-20087475D02*
X9702438Y-20039856D01*
X9702438Y-20039856D02*
X9654819Y-19944618D01*
X9654819Y-19944618D02*
X9654819Y-19754142D01*
X9654819Y-19754142D02*
X9702438Y-19658904D01*
X9702438Y-19658904D02*
X9750057Y-19611285D01*
X9750057Y-19611285D02*
X9845295Y-19563666D01*
X9845295Y-19563666D02*
X9892914Y-19563666D01*
X9892914Y-19563666D02*
X9988152Y-19611285D01*
X9988152Y-19611285D02*
X10035771Y-19658904D01*
X10035771Y-19658904D02*
X10083390Y-19754142D01*
X10083390Y-19754142D02*
X10083390Y-19944618D01*
X10083390Y-19944618D02*
X10131009Y-20039856D01*
X10131009Y-20039856D02*
X10178628Y-20087475D01*
X10178628Y-20087475D02*
X10273866Y-20135094D01*
X10273866Y-20135094D02*
X10464342Y-20135094D01*
X10464342Y-20135094D02*
X10559580Y-20087475D01*
X10559580Y-20087475D02*
X10607200Y-20039856D01*
X10607200Y-20039856D02*
X10654819Y-19944618D01*
X10654819Y-19944618D02*
X10654819Y-19754142D01*
X10654819Y-19754142D02*
X10607200Y-19658904D01*
X10607200Y-19658904D02*
X10559580Y-19611285D01*
X10559580Y-19611285D02*
X10464342Y-19563666D01*
X10464342Y-19563666D02*
X10273866Y-19563666D01*
X10273866Y-19563666D02*
X10178628Y-19611285D01*
X10178628Y-19611285D02*
X10131009Y-19658904D01*
X10131009Y-19658904D02*
X10083390Y-19754142D01*
X10654819Y-18611285D02*
X10654819Y-19182713D01*
X10654819Y-18896999D02*
X9654819Y-18896999D01*
X9654819Y-18896999D02*
X9797676Y-18992237D01*
X9797676Y-18992237D02*
X9892914Y-19087475D01*
X9892914Y-19087475D02*
X9940533Y-19182713D01*
X9750057Y-18230332D02*
X9702438Y-18182713D01*
X9702438Y-18182713D02*
X9654819Y-18087475D01*
X9654819Y-18087475D02*
X9654819Y-17849380D01*
X9654819Y-17849380D02*
X9702438Y-17754142D01*
X9702438Y-17754142D02*
X9750057Y-17706523D01*
X9750057Y-17706523D02*
X9845295Y-17658904D01*
X9845295Y-17658904D02*
X9940533Y-17658904D01*
X9940533Y-17658904D02*
X10083390Y-17706523D01*
X10083390Y-17706523D02*
X10654819Y-18277951D01*
X10654819Y-18277951D02*
X10654819Y-17658904D01*
X10131009Y-16896999D02*
X10178628Y-16754142D01*
X10178628Y-16754142D02*
X10226247Y-16706523D01*
X10226247Y-16706523D02*
X10321485Y-16658904D01*
X10321485Y-16658904D02*
X10464342Y-16658904D01*
X10464342Y-16658904D02*
X10559580Y-16706523D01*
X10559580Y-16706523D02*
X10607200Y-16754142D01*
X10607200Y-16754142D02*
X10654819Y-16849380D01*
X10654819Y-16849380D02*
X10654819Y-17230332D01*
X10654819Y-17230332D02*
X9654819Y-17230332D01*
X9654819Y-17230332D02*
X9654819Y-16896999D01*
X9654819Y-16896999D02*
X9702438Y-16801761D01*
X9702438Y-16801761D02*
X9750057Y-16754142D01*
X9750057Y-16754142D02*
X9845295Y-16706523D01*
X9845295Y-16706523D02*
X9940533Y-16706523D01*
X9940533Y-16706523D02*
X10035771Y-16754142D01*
X10035771Y-16754142D02*
X10083390Y-16801761D01*
X10083390Y-16801761D02*
X10131009Y-16896999D01*
X10131009Y-16896999D02*
X10131009Y-17230332D01*
X10273866Y-16230332D02*
X10273866Y-15468428D01*
X9750057Y-15039856D02*
X9702438Y-14992237D01*
X9702438Y-14992237D02*
X9654819Y-14896999D01*
X9654819Y-14896999D02*
X9654819Y-14658904D01*
X9654819Y-14658904D02*
X9702438Y-14563666D01*
X9702438Y-14563666D02*
X9750057Y-14516047D01*
X9750057Y-14516047D02*
X9845295Y-14468428D01*
X9845295Y-14468428D02*
X9940533Y-14468428D01*
X9940533Y-14468428D02*
X10083390Y-14516047D01*
X10083390Y-14516047D02*
X10654819Y-15087475D01*
X10654819Y-15087475D02*
X10654819Y-14468428D01*
X9654819Y-13849380D02*
X9654819Y-13754142D01*
X9654819Y-13754142D02*
X9702438Y-13658904D01*
X9702438Y-13658904D02*
X9750057Y-13611285D01*
X9750057Y-13611285D02*
X9845295Y-13563666D01*
X9845295Y-13563666D02*
X10035771Y-13516047D01*
X10035771Y-13516047D02*
X10273866Y-13516047D01*
X10273866Y-13516047D02*
X10464342Y-13563666D01*
X10464342Y-13563666D02*
X10559580Y-13611285D01*
X10559580Y-13611285D02*
X10607200Y-13658904D01*
X10607200Y-13658904D02*
X10654819Y-13754142D01*
X10654819Y-13754142D02*
X10654819Y-13849380D01*
X10654819Y-13849380D02*
X10607200Y-13944618D01*
X10607200Y-13944618D02*
X10559580Y-13992237D01*
X10559580Y-13992237D02*
X10464342Y-14039856D01*
X10464342Y-14039856D02*
X10273866Y-14087475D01*
X10273866Y-14087475D02*
X10035771Y-14087475D01*
X10035771Y-14087475D02*
X9845295Y-14039856D01*
X9845295Y-14039856D02*
X9750057Y-13992237D01*
X9750057Y-13992237D02*
X9702438Y-13944618D01*
X9702438Y-13944618D02*
X9654819Y-13849380D01*
X9750057Y-13135094D02*
X9702438Y-13087475D01*
X9702438Y-13087475D02*
X9654819Y-12992237D01*
X9654819Y-12992237D02*
X9654819Y-12754142D01*
X9654819Y-12754142D02*
X9702438Y-12658904D01*
X9702438Y-12658904D02*
X9750057Y-12611285D01*
X9750057Y-12611285D02*
X9845295Y-12563666D01*
X9845295Y-12563666D02*
X9940533Y-12563666D01*
X9940533Y-12563666D02*
X10083390Y-12611285D01*
X10083390Y-12611285D02*
X10654819Y-13182713D01*
X10654819Y-13182713D02*
X10654819Y-12563666D01*
X9654819Y-11944618D02*
X9654819Y-11849380D01*
X9654819Y-11849380D02*
X9702438Y-11754142D01*
X9702438Y-11754142D02*
X9750057Y-11706523D01*
X9750057Y-11706523D02*
X9845295Y-11658904D01*
X9845295Y-11658904D02*
X10035771Y-11611285D01*
X10035771Y-11611285D02*
X10273866Y-11611285D01*
X10273866Y-11611285D02*
X10464342Y-11658904D01*
X10464342Y-11658904D02*
X10559580Y-11706523D01*
X10559580Y-11706523D02*
X10607200Y-11754142D01*
X10607200Y-11754142D02*
X10654819Y-11849380D01*
X10654819Y-11849380D02*
X10654819Y-11944618D01*
X10654819Y-11944618D02*
X10607200Y-12039856D01*
X10607200Y-12039856D02*
X10559580Y-12087475D01*
X10559580Y-12087475D02*
X10464342Y-12135094D01*
X10464342Y-12135094D02*
X10273866Y-12182713D01*
X10273866Y-12182713D02*
X10035771Y-12182713D01*
X10035771Y-12182713D02*
X9845295Y-12135094D01*
X9845295Y-12135094D02*
X9750057Y-12087475D01*
X9750057Y-12087475D02*
X9702438Y-12039856D01*
X9702438Y-12039856D02*
X9654819Y-11944618D01*
D12*
X8227409Y-18194618D02*
X8227409Y-18432713D01*
X8227409Y-18432713D02*
X7727409Y-18432713D01*
X7965504Y-18027951D02*
X7965504Y-17861284D01*
X8227409Y-17789856D02*
X8227409Y-18027951D01*
X8227409Y-18027951D02*
X7727409Y-18027951D01*
X7727409Y-18027951D02*
X7727409Y-17789856D01*
X8227409Y-17575570D02*
X7727409Y-17575570D01*
X7727409Y-17575570D02*
X7727409Y-17456522D01*
X7727409Y-17456522D02*
X7751219Y-17385094D01*
X7751219Y-17385094D02*
X7798838Y-17337475D01*
X7798838Y-17337475D02*
X7846457Y-17313665D01*
X7846457Y-17313665D02*
X7941695Y-17289856D01*
X7941695Y-17289856D02*
X8013123Y-17289856D01*
X8013123Y-17289856D02*
X8108361Y-17313665D01*
X8108361Y-17313665D02*
X8155980Y-17337475D01*
X8155980Y-17337475D02*
X8203600Y-17385094D01*
X8203600Y-17385094D02*
X8227409Y-17456522D01*
X8227409Y-17456522D02*
X8227409Y-17575570D01*
X7894076Y-16861284D02*
X8227409Y-16861284D01*
X7703600Y-16980332D02*
X8060742Y-17099379D01*
X8060742Y-17099379D02*
X8060742Y-16789856D01*
X8227409Y-16575570D02*
X8227409Y-16480332D01*
X8227409Y-16480332D02*
X8203600Y-16432713D01*
X8203600Y-16432713D02*
X8179790Y-16408904D01*
X8179790Y-16408904D02*
X8108361Y-16361285D01*
X8108361Y-16361285D02*
X8013123Y-16337475D01*
X8013123Y-16337475D02*
X7822647Y-16337475D01*
X7822647Y-16337475D02*
X7775028Y-16361285D01*
X7775028Y-16361285D02*
X7751219Y-16385094D01*
X7751219Y-16385094D02*
X7727409Y-16432713D01*
X7727409Y-16432713D02*
X7727409Y-16527951D01*
X7727409Y-16527951D02*
X7751219Y-16575570D01*
X7751219Y-16575570D02*
X7775028Y-16599380D01*
X7775028Y-16599380D02*
X7822647Y-16623189D01*
X7822647Y-16623189D02*
X7941695Y-16623189D01*
X7941695Y-16623189D02*
X7989314Y-16599380D01*
X7989314Y-16599380D02*
X8013123Y-16575570D01*
X8013123Y-16575570D02*
X8036933Y-16527951D01*
X8036933Y-16527951D02*
X8036933Y-16432713D01*
X8036933Y-16432713D02*
X8013123Y-16385094D01*
X8013123Y-16385094D02*
X7989314Y-16361285D01*
X7989314Y-16361285D02*
X7941695Y-16337475D01*
D10*
X19161389Y-14964874D02*
X18902570Y-13998948D01*
X18902570Y-13998948D02*
X19409416Y-14602622D01*
X19409416Y-14602622D02*
X19546520Y-13826402D01*
X19546520Y-13826402D02*
X19805339Y-14792328D01*
X20265304Y-14669081D02*
X20006485Y-13703155D01*
X20817261Y-14521185D02*
X20255396Y-14080149D01*
X20558442Y-13555259D02*
X20154381Y-14255113D01*
X21231229Y-14410262D02*
X21058683Y-13766312D01*
X20972410Y-13444336D02*
X20938739Y-13502657D01*
X20938739Y-13502657D02*
X20997060Y-13536329D01*
X20997060Y-13536329D02*
X21030732Y-13478008D01*
X21030732Y-13478008D02*
X20972410Y-13444336D01*
X20972410Y-13444336D02*
X20997060Y-13536329D01*
X21411028Y-13425407D02*
X21444699Y-13367086D01*
X21444699Y-13367086D02*
X21524368Y-13296440D01*
X21524368Y-13296440D02*
X21754350Y-13234816D01*
X21754350Y-13234816D02*
X21858668Y-13256163D01*
X21858668Y-13256163D02*
X21916989Y-13289835D01*
X21916989Y-13289835D02*
X21987635Y-13369503D01*
X21987635Y-13369503D02*
X22012284Y-13461496D01*
X22012284Y-13461496D02*
X22003262Y-13611810D01*
X22003262Y-13611810D02*
X21599201Y-14311664D01*
X21599201Y-14311664D02*
X22197155Y-14151443D01*
X23012767Y-13883602D02*
X22933098Y-13954248D01*
X22933098Y-13954248D02*
X22749112Y-14003547D01*
X22749112Y-14003547D02*
X22644795Y-13982199D01*
X22644795Y-13982199D02*
X22586474Y-13948528D01*
X22586474Y-13948528D02*
X22515828Y-13868860D01*
X22515828Y-13868860D02*
X22441879Y-13592881D01*
X22441879Y-13592881D02*
X22463226Y-13488563D01*
X22463226Y-13488563D02*
X22496898Y-13430242D01*
X22496898Y-13430242D02*
X22576566Y-13359596D01*
X22576566Y-13359596D02*
X22760552Y-13310297D01*
X22760552Y-13310297D02*
X22864870Y-13331644D01*
X24680965Y-13485908D02*
X24129007Y-13633805D01*
X24404986Y-13559857D02*
X24146167Y-12593931D01*
X24146167Y-12593931D02*
X24091148Y-12756570D01*
X24091148Y-12756570D02*
X24023804Y-12873212D01*
X24023804Y-12873212D02*
X23944136Y-12943858D01*
X25336355Y-12620113D02*
X25508901Y-13264063D01*
X24922387Y-12731035D02*
X25057959Y-13236996D01*
X25057959Y-13236996D02*
X25128605Y-13316665D01*
X25128605Y-13316665D02*
X25232922Y-13338012D01*
X25232922Y-13338012D02*
X25370912Y-13301038D01*
X25370912Y-13301038D02*
X25450580Y-13230392D01*
X25450580Y-13230392D02*
X25484252Y-13172070D01*
X-120704477Y47699133D02*
X-120963296Y46733207D01*
X-120963296Y46733207D02*
X-121100400Y47509427D01*
X-121100400Y47509427D02*
X-121607246Y46905753D01*
X-121607246Y46905753D02*
X-121348427Y47871679D01*
X-121808392Y47994926D02*
X-122067211Y47029000D01*
X-122360350Y48142822D02*
X-122094278Y47479942D01*
X-122619169Y47176897D02*
X-121919314Y47580958D01*
X-122774318Y48253745D02*
X-122946864Y47609794D01*
X-123033137Y47287819D02*
X-122974816Y47321491D01*
X-122974816Y47321491D02*
X-123008487Y47379812D01*
X-123008487Y47379812D02*
X-123066809Y47346140D01*
X-123066809Y47346140D02*
X-123033137Y47287819D01*
X-123033137Y47287819D02*
X-123008487Y47379812D01*
X-123422455Y47490734D02*
X-123480776Y47457063D01*
X-123480776Y47457063D02*
X-123585094Y47435716D01*
X-123585094Y47435716D02*
X-123815076Y47497339D01*
X-123815076Y47497339D02*
X-123894745Y47567985D01*
X-123894745Y47567985D02*
X-123928416Y47626306D01*
X-123928416Y47626306D02*
X-123949763Y47730624D01*
X-123949763Y47730624D02*
X-123925114Y47822617D01*
X-123925114Y47822617D02*
X-123842143Y47948281D01*
X-123842143Y47948281D02*
X-123142289Y48352342D01*
X-123142289Y48352342D02*
X-123740243Y48512564D01*
X-124580504Y48688412D02*
X-124476187Y48709759D01*
X-124476187Y48709759D02*
X-124292201Y48660460D01*
X-124292201Y48660460D02*
X-124212533Y48589814D01*
X-124212533Y48589814D02*
X-124178861Y48531493D01*
X-124178861Y48531493D02*
X-124157514Y48427176D01*
X-124157514Y48427176D02*
X-124231462Y48151197D01*
X-124231462Y48151197D02*
X-124302108Y48071529D01*
X-124302108Y48071529D02*
X-124360429Y48037857D01*
X-124360429Y48037857D02*
X-124464747Y48016510D01*
X-124464747Y48016510D02*
X-124648733Y48065809D01*
X-124648733Y48065809D02*
X-124728401Y48136455D01*
X-126224053Y49178099D02*
X-125672095Y49030202D01*
X-125948074Y49104150D02*
X-126206893Y48138224D01*
X-126206893Y48138224D02*
X-126077926Y48251564D01*
X-126077926Y48251564D02*
X-125961284Y48318908D01*
X-125961284Y48318908D02*
X-125856966Y48340255D01*
X-127224535Y48755993D02*
X-127051989Y49399943D01*
X-126810567Y48645070D02*
X-126674995Y49151032D01*
X-126674995Y49151032D02*
X-126696342Y49255349D01*
X-126696342Y49255349D02*
X-126776011Y49325995D01*
X-126776011Y49325995D02*
X-126914000Y49362969D01*
X-126914000Y49362969D02*
X-127018318Y49341622D01*
X-127018318Y49341622D02*
X-127076639Y49307951D01*
X-1547619Y-27781819D02*
X-2119047Y-27781819D01*
X-1833333Y-27781819D02*
X-1833333Y-26781819D01*
X-1833333Y-26781819D02*
X-1928571Y-26924676D01*
X-1928571Y-26924676D02*
X-2023809Y-27019914D01*
X-2023809Y-27019914D02*
X-2119047Y-27067533D01*
X-928571Y-26781819D02*
X-833333Y-26781819D01*
X-833333Y-26781819D02*
X-738095Y-26829438D01*
X-738095Y-26829438D02*
X-690476Y-26877057D01*
X-690476Y-26877057D02*
X-642857Y-26972295D01*
X-642857Y-26972295D02*
X-595238Y-27162771D01*
X-595238Y-27162771D02*
X-595238Y-27400866D01*
X-595238Y-27400866D02*
X-642857Y-27591342D01*
X-642857Y-27591342D02*
X-690476Y-27686580D01*
X-690476Y-27686580D02*
X-738095Y-27734200D01*
X-738095Y-27734200D02*
X-833333Y-27781819D01*
X-833333Y-27781819D02*
X-928571Y-27781819D01*
X-928571Y-27781819D02*
X-1023809Y-27734200D01*
X-1023809Y-27734200D02*
X-1071428Y-27686580D01*
X-1071428Y-27686580D02*
X-1119047Y-27591342D01*
X-1119047Y-27591342D02*
X-1166666Y-27400866D01*
X-1166666Y-27400866D02*
X-1166666Y-27162771D01*
X-1166666Y-27162771D02*
X-1119047Y-26972295D01*
X-1119047Y-26972295D02*
X-1071428Y-26877057D01*
X-1071428Y-26877057D02*
X-1023809Y-26829438D01*
X-1023809Y-26829438D02*
X-928571Y-26781819D01*
X23809Y-26781819D02*
X119047Y-26781819D01*
X119047Y-26781819D02*
X214285Y-26829438D01*
X214285Y-26829438D02*
X261904Y-26877057D01*
X261904Y-26877057D02*
X309523Y-26972295D01*
X309523Y-26972295D02*
X357142Y-27162771D01*
X357142Y-27162771D02*
X357142Y-27400866D01*
X357142Y-27400866D02*
X309523Y-27591342D01*
X309523Y-27591342D02*
X261904Y-27686580D01*
X261904Y-27686580D02*
X214285Y-27734200D01*
X214285Y-27734200D02*
X119047Y-27781819D01*
X119047Y-27781819D02*
X23809Y-27781819D01*
X23809Y-27781819D02*
X-71428Y-27734200D01*
X-71428Y-27734200D02*
X-119047Y-27686580D01*
X-119047Y-27686580D02*
X-166666Y-27591342D01*
X-166666Y-27591342D02*
X-214285Y-27400866D01*
X-214285Y-27400866D02*
X-214285Y-27162771D01*
X-214285Y-27162771D02*
X-166666Y-26972295D01*
X-166666Y-26972295D02*
X-119047Y-26877057D01*
X-119047Y-26877057D02*
X-71428Y-26829438D01*
X-71428Y-26829438D02*
X23809Y-26781819D01*
X785714Y-27115152D02*
X785714Y-27781819D01*
X785714Y-27210390D02*
X833333Y-27162771D01*
X833333Y-27162771D02*
X928571Y-27115152D01*
X928571Y-27115152D02*
X1071428Y-27115152D01*
X1071428Y-27115152D02*
X1166666Y-27162771D01*
X1166666Y-27162771D02*
X1214285Y-27258009D01*
X1214285Y-27258009D02*
X1214285Y-27781819D01*
X2023809Y-27258009D02*
X1690476Y-27258009D01*
X1690476Y-27781819D02*
X1690476Y-26781819D01*
X1690476Y-26781819D02*
X2166666Y-26781819D01*
D11*
X-257142Y-26040832D02*
X-276190Y-26059880D01*
X-276190Y-26059880D02*
X-333332Y-26078927D01*
X-333332Y-26078927D02*
X-371428Y-26078927D01*
X-371428Y-26078927D02*
X-428571Y-26059880D01*
X-428571Y-26059880D02*
X-466666Y-26021784D01*
X-466666Y-26021784D02*
X-485713Y-25983689D01*
X-485713Y-25983689D02*
X-504761Y-25907499D01*
X-504761Y-25907499D02*
X-504761Y-25850356D01*
X-504761Y-25850356D02*
X-485713Y-25774165D01*
X-485713Y-25774165D02*
X-466666Y-25736070D01*
X-466666Y-25736070D02*
X-428571Y-25697975D01*
X-428571Y-25697975D02*
X-371428Y-25678927D01*
X-371428Y-25678927D02*
X-333332Y-25678927D01*
X-333332Y-25678927D02*
X-276190Y-25697975D01*
X-276190Y-25697975D02*
X-257142Y-25717022D01*
X85714Y-25678927D02*
X9524Y-25678927D01*
X9524Y-25678927D02*
X-28571Y-25697975D01*
X-28571Y-25697975D02*
X-47618Y-25717022D01*
X-47618Y-25717022D02*
X-85713Y-25774165D01*
X-85713Y-25774165D02*
X-104761Y-25850356D01*
X-104761Y-25850356D02*
X-104761Y-26002737D01*
X-104761Y-26002737D02*
X-85713Y-26040832D01*
X-85713Y-26040832D02*
X-66666Y-26059880D01*
X-66666Y-26059880D02*
X-28571Y-26078927D01*
X-28571Y-26078927D02*
X47619Y-26078927D01*
X47619Y-26078927D02*
X85714Y-26059880D01*
X85714Y-26059880D02*
X104762Y-26040832D01*
X104762Y-26040832D02*
X123809Y-26002737D01*
X123809Y-26002737D02*
X123809Y-25907499D01*
X123809Y-25907499D02*
X104762Y-25869403D01*
X104762Y-25869403D02*
X85714Y-25850356D01*
X85714Y-25850356D02*
X47619Y-25831308D01*
X47619Y-25831308D02*
X-28571Y-25831308D01*
X-28571Y-25831308D02*
X-66666Y-25850356D01*
X-66666Y-25850356D02*
X-85713Y-25869403D01*
X-85713Y-25869403D02*
X-104761Y-25907499D01*
X257142Y-25678927D02*
X523809Y-25678927D01*
X523809Y-25678927D02*
X352380Y-26078927D01*
D10*
X120938588Y46819850D02*
X120679769Y47785776D01*
X120679769Y47785776D02*
X121186615Y47182102D01*
X121186615Y47182102D02*
X121323719Y47958322D01*
X121323719Y47958322D02*
X121582538Y46992396D01*
X122042503Y47115643D02*
X121783684Y48081569D01*
X122594460Y47263539D02*
X122032595Y47704575D01*
X122335641Y48229465D02*
X121931580Y47529611D01*
X123008428Y47374462D02*
X122835882Y48018412D01*
X122749609Y48340388D02*
X122715938Y48282067D01*
X122715938Y48282067D02*
X122774259Y48248395D01*
X122774259Y48248395D02*
X122807931Y48306716D01*
X122807931Y48306716D02*
X122749609Y48340388D01*
X122749609Y48340388D02*
X122774259Y48248395D01*
X123188227Y48359317D02*
X123221898Y48417638D01*
X123221898Y48417638D02*
X123301567Y48488284D01*
X123301567Y48488284D02*
X123531549Y48549908D01*
X123531549Y48549908D02*
X123635867Y48528561D01*
X123635867Y48528561D02*
X123694188Y48494889D01*
X123694188Y48494889D02*
X123764834Y48415221D01*
X123764834Y48415221D02*
X123789483Y48323228D01*
X123789483Y48323228D02*
X123780461Y48172914D01*
X123780461Y48172914D02*
X123376400Y47473060D01*
X123376400Y47473060D02*
X123974354Y47633281D01*
X124789966Y47901122D02*
X124710297Y47830476D01*
X124710297Y47830476D02*
X124526311Y47781177D01*
X124526311Y47781177D02*
X124421994Y47802525D01*
X124421994Y47802525D02*
X124363673Y47836196D01*
X124363673Y47836196D02*
X124293027Y47915864D01*
X124293027Y47915864D02*
X124219078Y48191843D01*
X124219078Y48191843D02*
X124240425Y48296161D01*
X124240425Y48296161D02*
X124274097Y48354482D01*
X124274097Y48354482D02*
X124353765Y48425128D01*
X124353765Y48425128D02*
X124537751Y48474427D01*
X124537751Y48474427D02*
X124642069Y48453080D01*
X126458164Y48298816D02*
X125906206Y48150919D01*
X126182185Y48224867D02*
X125923366Y49190793D01*
X125923366Y49190793D02*
X125868347Y49028154D01*
X125868347Y49028154D02*
X125801003Y48911512D01*
X125801003Y48911512D02*
X125721335Y48840866D01*
X127113554Y49164611D02*
X127286100Y48520661D01*
X126699586Y49053689D02*
X126835158Y48547728D01*
X126835158Y48547728D02*
X126905804Y48468059D01*
X126905804Y48468059D02*
X127010121Y48446712D01*
X127010121Y48446712D02*
X127148111Y48483686D01*
X127148111Y48483686D02*
X127227779Y48554332D01*
X127227779Y48554332D02*
X127261451Y48612654D01*
X129747980Y26281137D02*
X129818626Y26201468D01*
X129818626Y26201468D02*
X129867924Y26017483D01*
X129867924Y26017483D02*
X129846577Y25913165D01*
X129846577Y25913165D02*
X129766909Y25842519D01*
X129766909Y25842519D02*
X129398937Y25743921D01*
X129398937Y25743921D02*
X129294620Y25765268D01*
X129294620Y25765268D02*
X129223974Y25844937D01*
X129223974Y25844937D02*
X129174675Y26028922D01*
X129174675Y26028922D02*
X129196022Y26133240D01*
X129196022Y26133240D02*
X129275690Y26203886D01*
X129275690Y26203886D02*
X129367683Y26228535D01*
X129367683Y26228535D02*
X129582923Y25793220D01*
X129026778Y26580880D02*
X129670729Y26753426D01*
X129118771Y26605530D02*
X129060450Y26639201D01*
X129060450Y26639201D02*
X128989804Y26718870D01*
X128989804Y26718870D02*
X128952830Y26856859D01*
X128952830Y26856859D02*
X128974177Y26961177D01*
X128974177Y26961177D02*
X129053845Y27031823D01*
X129053845Y27031823D02*
X129559806Y27167394D01*
X129279640Y28029003D02*
X129350286Y27949334D01*
X129350286Y27949334D02*
X129399585Y27765349D01*
X129399585Y27765349D02*
X129378238Y27661031D01*
X129378238Y27661031D02*
X129344566Y27602710D01*
X129344566Y27602710D02*
X129264898Y27532064D01*
X129264898Y27532064D02*
X128988919Y27458116D01*
X128988919Y27458116D02*
X128884602Y27479463D01*
X128884602Y27479463D02*
X128826280Y27513134D01*
X128826280Y27513134D02*
X128755635Y27592803D01*
X128755635Y27592803D02*
X128706336Y27776788D01*
X128706336Y27776788D02*
X128727683Y27881106D01*
X129177740Y28593285D02*
X129156393Y28488967D01*
X129156393Y28488967D02*
X129122721Y28430646D01*
X129122721Y28430646D02*
X129043053Y28360000D01*
X129043053Y28360000D02*
X128767074Y28286052D01*
X128767074Y28286052D02*
X128662757Y28307399D01*
X128662757Y28307399D02*
X128604436Y28341071D01*
X128604436Y28341071D02*
X128533790Y28420739D01*
X128533790Y28420739D02*
X128496815Y28558728D01*
X128496815Y28558728D02*
X128518162Y28663046D01*
X128518162Y28663046D02*
X128551834Y28721367D01*
X128551834Y28721367D02*
X128631502Y28792013D01*
X128631502Y28792013D02*
X128907481Y28865962D01*
X128907481Y28865962D02*
X129011799Y28844614D01*
X129011799Y28844614D02*
X129070120Y28810943D01*
X129070120Y28810943D02*
X129140766Y28731275D01*
X129140766Y28731275D02*
X129177740Y28593285D01*
X128869622Y29743197D02*
X127903696Y29484378D01*
X128823626Y29730872D02*
X128894272Y29651204D01*
X128894272Y29651204D02*
X128943571Y29467218D01*
X128943571Y29467218D02*
X128922223Y29362900D01*
X128922223Y29362900D02*
X128888552Y29304579D01*
X128888552Y29304579D02*
X128808884Y29233933D01*
X128808884Y29233933D02*
X128532905Y29159985D01*
X128532905Y29159985D02*
X128428587Y29181332D01*
X128428587Y29181332D02*
X128370266Y29215004D01*
X128370266Y29215004D02*
X128299620Y29294672D01*
X128299620Y29294672D02*
X128250321Y29478658D01*
X128250321Y29478658D02*
X128271668Y29582976D01*
X128601781Y30558809D02*
X128672427Y30479140D01*
X128672427Y30479140D02*
X128721726Y30295155D01*
X128721726Y30295155D02*
X128700379Y30190837D01*
X128700379Y30190837D02*
X128620710Y30120191D01*
X128620710Y30120191D02*
X128252739Y30021593D01*
X128252739Y30021593D02*
X128148421Y30042940D01*
X128148421Y30042940D02*
X128077775Y30122609D01*
X128077775Y30122609D02*
X128028476Y30306594D01*
X128028476Y30306594D02*
X128049823Y30410912D01*
X128049823Y30410912D02*
X128129491Y30481558D01*
X128129491Y30481558D02*
X128221484Y30506207D01*
X128221484Y30506207D02*
X128436724Y30070892D01*
X128524530Y31031098D02*
X127880580Y30858552D01*
X128064565Y30907851D02*
X127960248Y30929198D01*
X127960248Y30929198D02*
X127901927Y30962870D01*
X127901927Y30962870D02*
X127831281Y31042538D01*
X127831281Y31042538D02*
X127806631Y31134531D01*
X124817477Y44682040D02*
X124888123Y44602371D01*
X124888123Y44602371D02*
X124937421Y44418386D01*
X124937421Y44418386D02*
X124916074Y44314068D01*
X124916074Y44314068D02*
X124836406Y44243422D01*
X124836406Y44243422D02*
X124468434Y44144824D01*
X124468434Y44144824D02*
X124364117Y44166171D01*
X124364117Y44166171D02*
X124293471Y44245840D01*
X124293471Y44245840D02*
X124244172Y44429825D01*
X124244172Y44429825D02*
X124265519Y44534143D01*
X124265519Y44534143D02*
X124345187Y44604789D01*
X124345187Y44604789D02*
X124437180Y44629438D01*
X124437180Y44629438D02*
X124652420Y44194123D01*
X124096275Y44981783D02*
X124740226Y45154329D01*
X124188268Y45006433D02*
X124129947Y45040104D01*
X124129947Y45040104D02*
X124059301Y45119773D01*
X124059301Y45119773D02*
X124022327Y45257762D01*
X124022327Y45257762D02*
X124043674Y45362080D01*
X124043674Y45362080D02*
X124123342Y45432726D01*
X124123342Y45432726D02*
X124629303Y45568297D01*
X124349137Y46429906D02*
X124419783Y46350237D01*
X124419783Y46350237D02*
X124469082Y46166252D01*
X124469082Y46166252D02*
X124447735Y46061934D01*
X124447735Y46061934D02*
X124414063Y46003613D01*
X124414063Y46003613D02*
X124334395Y45932967D01*
X124334395Y45932967D02*
X124058416Y45859019D01*
X124058416Y45859019D02*
X123954099Y45880366D01*
X123954099Y45880366D02*
X123895777Y45914037D01*
X123895777Y45914037D02*
X123825132Y45993706D01*
X123825132Y45993706D02*
X123775833Y46177691D01*
X123775833Y46177691D02*
X123797180Y46282009D01*
X124247237Y46994188D02*
X124225890Y46889870D01*
X124225890Y46889870D02*
X124192218Y46831549D01*
X124192218Y46831549D02*
X124112550Y46760903D01*
X124112550Y46760903D02*
X123836571Y46686955D01*
X123836571Y46686955D02*
X123732254Y46708302D01*
X123732254Y46708302D02*
X123673933Y46741974D01*
X123673933Y46741974D02*
X123603287Y46821642D01*
X123603287Y46821642D02*
X123566312Y46959631D01*
X123566312Y46959631D02*
X123587659Y47063949D01*
X123587659Y47063949D02*
X123621331Y47122270D01*
X123621331Y47122270D02*
X123700999Y47192916D01*
X123700999Y47192916D02*
X123976978Y47266865D01*
X123976978Y47266865D02*
X124081296Y47245517D01*
X124081296Y47245517D02*
X124139617Y47211846D01*
X124139617Y47211846D02*
X124210263Y47132178D01*
X124210263Y47132178D02*
X124247237Y46994188D01*
X123939119Y48144100D02*
X122973193Y47885281D01*
X123893123Y48131775D02*
X123963769Y48052107D01*
X123963769Y48052107D02*
X124013068Y47868121D01*
X124013068Y47868121D02*
X123991720Y47763803D01*
X123991720Y47763803D02*
X123958049Y47705482D01*
X123958049Y47705482D02*
X123878381Y47634836D01*
X123878381Y47634836D02*
X123602402Y47560888D01*
X123602402Y47560888D02*
X123498084Y47582235D01*
X123498084Y47582235D02*
X123439763Y47615907D01*
X123439763Y47615907D02*
X123369117Y47695575D01*
X123369117Y47695575D02*
X123319818Y47879561D01*
X123319818Y47879561D02*
X123341165Y47983879D01*
X123671278Y48959712D02*
X123741924Y48880043D01*
X123741924Y48880043D02*
X123791223Y48696058D01*
X123791223Y48696058D02*
X123769876Y48591740D01*
X123769876Y48591740D02*
X123690207Y48521094D01*
X123690207Y48521094D02*
X123322236Y48422496D01*
X123322236Y48422496D02*
X123217918Y48443843D01*
X123217918Y48443843D02*
X123147272Y48523512D01*
X123147272Y48523512D02*
X123097973Y48707497D01*
X123097973Y48707497D02*
X123119320Y48811815D01*
X123119320Y48811815D02*
X123198988Y48882461D01*
X123198988Y48882461D02*
X123290981Y48907110D01*
X123290981Y48907110D02*
X123506221Y48471795D01*
X123594027Y49432001D02*
X122950077Y49259455D01*
X123134062Y49308754D02*
X123029745Y49330101D01*
X123029745Y49330101D02*
X122971424Y49363773D01*
X122971424Y49363773D02*
X122900778Y49443441D01*
X122900778Y49443441D02*
X122876128Y49535434D01*
X-9066437Y22716316D02*
X-9325256Y21750390D01*
X-9325256Y21750390D02*
X-9462360Y22526610D01*
X-9462360Y22526610D02*
X-9969206Y21922936D01*
X-9969206Y21922936D02*
X-9710387Y22888862D01*
X-10170352Y23012109D02*
X-10429171Y22046183D01*
X-10722310Y23160005D02*
X-10456238Y22497125D01*
X-10981129Y22194080D02*
X-10281274Y22598141D01*
X-11136278Y23270928D02*
X-11308824Y22626977D01*
X-11395097Y22305002D02*
X-11336776Y22338674D01*
X-11336776Y22338674D02*
X-11370447Y22396995D01*
X-11370447Y22396995D02*
X-11428769Y22363323D01*
X-11428769Y22363323D02*
X-11395097Y22305002D01*
X-11395097Y22305002D02*
X-11370447Y22396995D01*
X-11784415Y22507917D02*
X-11842736Y22474246D01*
X-11842736Y22474246D02*
X-11947054Y22452899D01*
X-11947054Y22452899D02*
X-12177036Y22514522D01*
X-12177036Y22514522D02*
X-12256705Y22585168D01*
X-12256705Y22585168D02*
X-12290376Y22643489D01*
X-12290376Y22643489D02*
X-12311723Y22747807D01*
X-12311723Y22747807D02*
X-12287074Y22839800D01*
X-12287074Y22839800D02*
X-12204103Y22965464D01*
X-12204103Y22965464D02*
X-11504249Y23369525D01*
X-11504249Y23369525D02*
X-12102203Y23529747D01*
X-12942464Y23705595D02*
X-12838147Y23726942D01*
X-12838147Y23726942D02*
X-12654161Y23677643D01*
X-12654161Y23677643D02*
X-12574493Y23606997D01*
X-12574493Y23606997D02*
X-12540821Y23548676D01*
X-12540821Y23548676D02*
X-12519474Y23444359D01*
X-12519474Y23444359D02*
X-12593422Y23168380D01*
X-12593422Y23168380D02*
X-12664068Y23088712D01*
X-12664068Y23088712D02*
X-12722389Y23055040D01*
X-12722389Y23055040D02*
X-12826707Y23033693D01*
X-12826707Y23033693D02*
X-13010693Y23082992D01*
X-13010693Y23082992D02*
X-13090361Y23153638D01*
X-14586013Y24195282D02*
X-14034055Y24047385D01*
X-14310034Y24121333D02*
X-14568853Y23155407D01*
X-14568853Y23155407D02*
X-14439886Y23268747D01*
X-14439886Y23268747D02*
X-14323244Y23336091D01*
X-14323244Y23336091D02*
X-14218926Y23357438D01*
X-15586495Y23773176D02*
X-15413949Y24417126D01*
X-15172527Y23662253D02*
X-15036955Y24168215D01*
X-15036955Y24168215D02*
X-15058302Y24272532D01*
X-15058302Y24272532D02*
X-15137971Y24343178D01*
X-15137971Y24343178D02*
X-15275960Y24380152D01*
X-15275960Y24380152D02*
X-15380278Y24358805D01*
X-15380278Y24358805D02*
X-15438599Y24325134D01*
X-9879223Y-22908639D02*
X-10173027Y-23893712D01*
X-10173027Y-23893712D02*
X-9650927Y-23370360D01*
X-9650927Y-23370360D02*
X-9843113Y-24084188D01*
X-9843113Y-24084188D02*
X-9136916Y-23337210D01*
X-9324431Y-24328663D02*
X-9224523Y-24441331D01*
X-9224523Y-24441331D02*
X-9018327Y-24560378D01*
X-9018327Y-24560378D02*
X-8912038Y-24566758D01*
X-8912038Y-24566758D02*
X-8846990Y-24549328D01*
X-8846990Y-24549328D02*
X-8758131Y-24490659D01*
X-8758131Y-24490659D02*
X-8710512Y-24408180D01*
X-8710512Y-24408180D02*
X-8704132Y-24301892D01*
X-8704132Y-24301892D02*
X-8721562Y-24236843D01*
X-8721562Y-24236843D02*
X-8780231Y-24147985D01*
X-8780231Y-24147985D02*
X-8921379Y-24011508D01*
X-8921379Y-24011508D02*
X-8980048Y-23922649D01*
X-8980048Y-23922649D02*
X-8997478Y-23857601D01*
X-8997478Y-23857601D02*
X-8991098Y-23751312D01*
X-8991098Y-23751312D02*
X-8943479Y-23668834D01*
X-8943479Y-23668834D02*
X-8854621Y-23610165D01*
X-8854621Y-23610165D02*
X-8789572Y-23592735D01*
X-8789572Y-23592735D02*
X-8683284Y-23599115D01*
X-8683284Y-23599115D02*
X-8477087Y-23718162D01*
X-8477087Y-23718162D02*
X-8377179Y-23830830D01*
X-8071074Y-24062546D02*
X-8006025Y-24045116D01*
X-8006025Y-24045116D02*
X-7899737Y-24051496D01*
X-7899737Y-24051496D02*
X-7693540Y-24170543D01*
X-7693540Y-24170543D02*
X-7634871Y-24259402D01*
X-7634871Y-24259402D02*
X-7617442Y-24324450D01*
X-7617442Y-24324450D02*
X-7623821Y-24430739D01*
X-7623821Y-24430739D02*
X-7671440Y-24513217D01*
X-7671440Y-24513217D02*
X-7784108Y-24613126D01*
X-7784108Y-24613126D02*
X-8564694Y-24822283D01*
X-8564694Y-24822283D02*
X-8028583Y-25131807D01*
X-7247997Y-24922649D02*
X-7306666Y-24833791D01*
X-7306666Y-24833791D02*
X-7324096Y-24768742D01*
X-7324096Y-24768742D02*
X-7317716Y-24662454D01*
X-7317716Y-24662454D02*
X-7293907Y-24621215D01*
X-7293907Y-24621215D02*
X-7205048Y-24562546D01*
X-7205048Y-24562546D02*
X-7140000Y-24545116D01*
X-7140000Y-24545116D02*
X-7033711Y-24551496D01*
X-7033711Y-24551496D02*
X-6868754Y-24646734D01*
X-6868754Y-24646734D02*
X-6810085Y-24735592D01*
X-6810085Y-24735592D02*
X-6792655Y-24800641D01*
X-6792655Y-24800641D02*
X-6799035Y-24906929D01*
X-6799035Y-24906929D02*
X-6822845Y-24948168D01*
X-6822845Y-24948168D02*
X-6911703Y-25006837D01*
X-6911703Y-25006837D02*
X-6976752Y-25024267D01*
X-6976752Y-25024267D02*
X-7083040Y-25017887D01*
X-7083040Y-25017887D02*
X-7247997Y-24922649D01*
X-7247997Y-24922649D02*
X-7354285Y-24916270D01*
X-7354285Y-24916270D02*
X-7419334Y-24933699D01*
X-7419334Y-24933699D02*
X-7508192Y-24992369D01*
X-7508192Y-24992369D02*
X-7603431Y-25157326D01*
X-7603431Y-25157326D02*
X-7609810Y-25263614D01*
X-7609810Y-25263614D02*
X-7592381Y-25328663D01*
X-7592381Y-25328663D02*
X-7533711Y-25417521D01*
X-7533711Y-25417521D02*
X-7368754Y-25512759D01*
X-7368754Y-25512759D02*
X-7262466Y-25519139D01*
X-7262466Y-25519139D02*
X-7197417Y-25501709D01*
X-7197417Y-25501709D02*
X-7108559Y-25443040D01*
X-7108559Y-25443040D02*
X-7013321Y-25278083D01*
X-7013321Y-25278083D02*
X-7006941Y-25171795D01*
X-7006941Y-25171795D02*
X-7024371Y-25106746D01*
X-7024371Y-25106746D02*
X-7083040Y-25017887D01*
X-6379011Y-26084188D02*
X-6873883Y-25798473D01*
X-6626447Y-25941331D02*
X-6126447Y-25075305D01*
X-6126447Y-25075305D02*
X-6280354Y-25151404D01*
X-6280354Y-25151404D02*
X-6410452Y-25186264D01*
X-6410452Y-25186264D02*
X-6516740Y-25179884D01*
X-5596715Y-25491117D02*
X-5531667Y-25473687D01*
X-5531667Y-25473687D02*
X-5425378Y-25480067D01*
X-5425378Y-25480067D02*
X-5219182Y-25599115D01*
X-5219182Y-25599115D02*
X-5160513Y-25687973D01*
X-5160513Y-25687973D02*
X-5143083Y-25753022D01*
X-5143083Y-25753022D02*
X-5149463Y-25859310D01*
X-5149463Y-25859310D02*
X-5197082Y-25941789D01*
X-5197082Y-25941789D02*
X-5309750Y-26041697D01*
X-5309750Y-26041697D02*
X-6090336Y-26250854D01*
X-6090336Y-26250854D02*
X-5554225Y-26560378D01*
X-4632491Y-26487698D02*
X-4532583Y-26600366D01*
X-4532583Y-26600366D02*
X-4515153Y-26665415D01*
X-4515153Y-26665415D02*
X-4521533Y-26771703D01*
X-4521533Y-26771703D02*
X-4592961Y-26895421D01*
X-4592961Y-26895421D02*
X-4681820Y-26954090D01*
X-4681820Y-26954090D02*
X-4746868Y-26971520D01*
X-4746868Y-26971520D02*
X-4853157Y-26965140D01*
X-4853157Y-26965140D02*
X-5183071Y-26774664D01*
X-5183071Y-26774664D02*
X-4683071Y-25908639D01*
X-4683071Y-25908639D02*
X-4394396Y-26075305D01*
X-4394396Y-26075305D02*
X-4335727Y-26164164D01*
X-4335727Y-26164164D02*
X-4318297Y-26229212D01*
X-4318297Y-26229212D02*
X-4324677Y-26335501D01*
X-4324677Y-26335501D02*
X-4372296Y-26417979D01*
X-4372296Y-26417979D02*
X-4461154Y-26476648D01*
X-4461154Y-26476648D02*
X-4526203Y-26494078D01*
X-4526203Y-26494078D02*
X-4632491Y-26487698D01*
X-4632491Y-26487698D02*
X-4921166Y-26321032D01*
X-4126569Y-26944750D02*
X-3466740Y-27325702D01*
X-2833682Y-27086355D02*
X-2768633Y-27068925D01*
X-2768633Y-27068925D02*
X-2662345Y-27075305D01*
X-2662345Y-27075305D02*
X-2456149Y-27194353D01*
X-2456149Y-27194353D02*
X-2397480Y-27283211D01*
X-2397480Y-27283211D02*
X-2380050Y-27348260D01*
X-2380050Y-27348260D02*
X-2386430Y-27454548D01*
X-2386430Y-27454548D02*
X-2434049Y-27537027D01*
X-2434049Y-27537027D02*
X-2546717Y-27636935D01*
X-2546717Y-27636935D02*
X-3327302Y-27846092D01*
X-3327302Y-27846092D02*
X-2791191Y-28155616D01*
X-1755080Y-27599115D02*
X-1672602Y-27646734D01*
X-1672602Y-27646734D02*
X-1613933Y-27735592D01*
X-1613933Y-27735592D02*
X-1596503Y-27800641D01*
X-1596503Y-27800641D02*
X-1602883Y-27906929D01*
X-1602883Y-27906929D02*
X-1656882Y-28095696D01*
X-1656882Y-28095696D02*
X-1775929Y-28301892D01*
X-1775929Y-28301892D02*
X-1912407Y-28443040D01*
X-1912407Y-28443040D02*
X-2001265Y-28501709D01*
X-2001265Y-28501709D02*
X-2066314Y-28519139D01*
X-2066314Y-28519139D02*
X-2172602Y-28512759D01*
X-2172602Y-28512759D02*
X-2255080Y-28465140D01*
X-2255080Y-28465140D02*
X-2313750Y-28376282D01*
X-2313750Y-28376282D02*
X-2331179Y-28311233D01*
X-2331179Y-28311233D02*
X-2324800Y-28204945D01*
X-2324800Y-28204945D02*
X-2270801Y-28016178D01*
X-2270801Y-28016178D02*
X-2151753Y-27809981D01*
X-2151753Y-27809981D02*
X-2015276Y-27668834D01*
X-2015276Y-27668834D02*
X-1926417Y-27610165D01*
X-1926417Y-27610165D02*
X-1861369Y-27592735D01*
X-1861369Y-27592735D02*
X-1755080Y-27599115D01*
X-1184110Y-28038736D02*
X-1119061Y-28021306D01*
X-1119061Y-28021306D02*
X-1012773Y-28027686D01*
X-1012773Y-28027686D02*
X-806576Y-28146734D01*
X-806576Y-28146734D02*
X-747907Y-28235592D01*
X-747907Y-28235592D02*
X-730478Y-28300641D01*
X-730478Y-28300641D02*
X-736857Y-28406929D01*
X-736857Y-28406929D02*
X-784476Y-28489408D01*
X-784476Y-28489408D02*
X-897144Y-28589316D01*
X-897144Y-28589316D02*
X-1677730Y-28798473D01*
X-1677730Y-28798473D02*
X-1141619Y-29107997D01*
X-105508Y-28551496D02*
X-23030Y-28599115D01*
X-23030Y-28599115D02*
X35639Y-28687973D01*
X35639Y-28687973D02*
X53068Y-28753022D01*
X53068Y-28753022D02*
X46689Y-28859310D01*
X46689Y-28859310D02*
X-7309Y-29048077D01*
X-7309Y-29048077D02*
X-126357Y-29254273D01*
X-126357Y-29254273D02*
X-262834Y-29395421D01*
X-262834Y-29395421D02*
X-351693Y-29454090D01*
X-351693Y-29454090D02*
X-416741Y-29471520D01*
X-416741Y-29471520D02*
X-523030Y-29465140D01*
X-523030Y-29465140D02*
X-605508Y-29417521D01*
X-605508Y-29417521D02*
X-664177Y-29328663D01*
X-664177Y-29328663D02*
X-681607Y-29263614D01*
X-681607Y-29263614D02*
X-675227Y-29157326D01*
X-675227Y-29157326D02*
X-621229Y-28968559D01*
X-621229Y-28968559D02*
X-502181Y-28762362D01*
X-502181Y-28762362D02*
X-365704Y-28621215D01*
X-365704Y-28621215D02*
X-276845Y-28562546D01*
X-276845Y-28562546D02*
X-211796Y-28545116D01*
X-211796Y-28545116D02*
X-105508Y-28551496D01*
D12*
X-4804462Y-24190323D02*
X-5010658Y-24071275D01*
X-5010658Y-24071275D02*
X-4760658Y-23638263D01*
X-4529172Y-24046840D02*
X-4384834Y-24130173D01*
X-4453928Y-24392704D02*
X-4660124Y-24273656D01*
X-4660124Y-24273656D02*
X-4410124Y-23840644D01*
X-4410124Y-23840644D02*
X-4203928Y-23959691D01*
X-4268351Y-24499847D02*
X-4018351Y-24066834D01*
X-4018351Y-24066834D02*
X-3915252Y-24126358D01*
X-3915252Y-24126358D02*
X-3865298Y-24182692D01*
X-3865298Y-24182692D02*
X-3847869Y-24247741D01*
X-3847869Y-24247741D02*
X-3851058Y-24300885D01*
X-3851058Y-24300885D02*
X-3878058Y-24395268D01*
X-3878058Y-24395268D02*
X-3913772Y-24457127D01*
X-3913772Y-24457127D02*
X-3982011Y-24527701D01*
X-3982011Y-24527701D02*
X-4026440Y-24557035D01*
X-4026440Y-24557035D02*
X-4091489Y-24574465D01*
X-4091489Y-24574465D02*
X-4165252Y-24559371D01*
X-4165252Y-24559371D02*
X-4268351Y-24499847D01*
X-3379142Y-24435882D02*
X-3585338Y-24316834D01*
X-3585338Y-24316834D02*
X-3725005Y-24511126D01*
X-3725005Y-24511126D02*
X-3692481Y-24502411D01*
X-3692481Y-24502411D02*
X-3639337Y-24505601D01*
X-3639337Y-24505601D02*
X-3536239Y-24565125D01*
X-3536239Y-24565125D02*
X-3506904Y-24609554D01*
X-3506904Y-24609554D02*
X-3498189Y-24642078D01*
X-3498189Y-24642078D02*
X-3501379Y-24695222D01*
X-3501379Y-24695222D02*
X-3560903Y-24798321D01*
X-3560903Y-24798321D02*
X-3605332Y-24827655D01*
X-3605332Y-24827655D02*
X-3637856Y-24836370D01*
X-3637856Y-24836370D02*
X-3691000Y-24833180D01*
X-3691000Y-24833180D02*
X-3794099Y-24773656D01*
X-3794099Y-24773656D02*
X-3823433Y-24729227D01*
X-3823433Y-24729227D02*
X-3832148Y-24696703D01*
X-3196129Y-25118894D02*
X-3443565Y-24976037D01*
X-3319847Y-25047466D02*
X-3069847Y-24614453D01*
X-3069847Y-24614453D02*
X-3146801Y-24652502D01*
X-3146801Y-24652502D02*
X-3211850Y-24669932D01*
X-3211850Y-24669932D02*
X-3264994Y-24666742D01*
D10*
X-9767326Y-21249132D02*
X-10053040Y-20754261D01*
X-9910183Y-21001697D02*
X-9044158Y-20501697D01*
X-9044158Y-20501697D02*
X-9215495Y-20490647D01*
X-9215495Y-20490647D02*
X-9345592Y-20455787D01*
X-9345592Y-20455787D02*
X-9434451Y-20397118D01*
X-8591777Y-21285243D02*
X-8544158Y-21367722D01*
X-8544158Y-21367722D02*
X-8537778Y-21474010D01*
X-8537778Y-21474010D02*
X-8555208Y-21539059D01*
X-8555208Y-21539059D02*
X-8613877Y-21627917D01*
X-8613877Y-21627917D02*
X-8755025Y-21764395D01*
X-8755025Y-21764395D02*
X-8961221Y-21883442D01*
X-8961221Y-21883442D02*
X-9149988Y-21937441D01*
X-9149988Y-21937441D02*
X-9256276Y-21943821D01*
X-9256276Y-21943821D02*
X-9321325Y-21926391D01*
X-9321325Y-21926391D02*
X-9410183Y-21867722D01*
X-9410183Y-21867722D02*
X-9457802Y-21785243D01*
X-9457802Y-21785243D02*
X-9464182Y-21678955D01*
X-9464182Y-21678955D02*
X-9446752Y-21613906D01*
X-9446752Y-21613906D02*
X-9388083Y-21525048D01*
X-9388083Y-21525048D02*
X-9246935Y-21388571D01*
X-9246935Y-21388571D02*
X-9040739Y-21269523D01*
X-9040739Y-21269523D02*
X-8851972Y-21215524D01*
X-8851972Y-21215524D02*
X-8745684Y-21209145D01*
X-8745684Y-21209145D02*
X-8680635Y-21226574D01*
X-8680635Y-21226574D02*
X-8591777Y-21285243D01*
X-8115586Y-22110030D02*
X-8067967Y-22192508D01*
X-8067967Y-22192508D02*
X-8061587Y-22298796D01*
X-8061587Y-22298796D02*
X-8079017Y-22363845D01*
X-8079017Y-22363845D02*
X-8137686Y-22452704D01*
X-8137686Y-22452704D02*
X-8278834Y-22589181D01*
X-8278834Y-22589181D02*
X-8485031Y-22708229D01*
X-8485031Y-22708229D02*
X-8673797Y-22762227D01*
X-8673797Y-22762227D02*
X-8780085Y-22768607D01*
X-8780085Y-22768607D02*
X-8845134Y-22751177D01*
X-8845134Y-22751177D02*
X-8933993Y-22692508D01*
X-8933993Y-22692508D02*
X-8981612Y-22610030D01*
X-8981612Y-22610030D02*
X-8987991Y-22503741D01*
X-8987991Y-22503741D02*
X-8970562Y-22438693D01*
X-8970562Y-22438693D02*
X-8911893Y-22349834D01*
X-8911893Y-22349834D02*
X-8770745Y-22213357D01*
X-8770745Y-22213357D02*
X-8564548Y-22094309D01*
X-8564548Y-22094309D02*
X-8375782Y-22040310D01*
X-8375782Y-22040310D02*
X-8269493Y-22033931D01*
X-8269493Y-22033931D02*
X-8204445Y-22051361D01*
X-8204445Y-22051361D02*
X-8115586Y-22110030D01*
X-8023309Y-22936525D02*
X-8600659Y-23269859D01*
X-8105788Y-22984144D02*
X-8040739Y-23001574D01*
X-8040739Y-23001574D02*
X-7951880Y-23060243D01*
X-7951880Y-23060243D02*
X-7880452Y-23183961D01*
X-7880452Y-23183961D02*
X-7874072Y-23290249D01*
X-7874072Y-23290249D02*
X-7932741Y-23379107D01*
X-7932741Y-23379107D02*
X-8386374Y-23641012D01*
X-7527979Y-24080176D02*
X-7694646Y-23791501D01*
X-8148278Y-24053405D02*
X-7282253Y-23553405D01*
X-7282253Y-23553405D02*
X-7044158Y-23965798D01*
D11*
X-7614348Y-21496224D02*
X-7640368Y-21489252D01*
X-7640368Y-21489252D02*
X-7685435Y-21449289D01*
X-7685435Y-21449289D02*
X-7704483Y-21416297D01*
X-7704483Y-21416297D02*
X-7716558Y-21357286D01*
X-7716558Y-21357286D02*
X-7702614Y-21305247D01*
X-7702614Y-21305247D02*
X-7679147Y-21269704D01*
X-7679147Y-21269704D02*
X-7622688Y-21215113D01*
X-7622688Y-21215113D02*
X-7573201Y-21186541D01*
X-7573201Y-21186541D02*
X-7497694Y-21164942D01*
X-7497694Y-21164942D02*
X-7455179Y-21162390D01*
X-7455179Y-21162390D02*
X-7403140Y-21176334D01*
X-7403140Y-21176334D02*
X-7358072Y-21216297D01*
X-7358072Y-21216297D02*
X-7339025Y-21249289D01*
X-7339025Y-21249289D02*
X-7326949Y-21308299D01*
X-7326949Y-21308299D02*
X-7333921Y-21334319D01*
X-7129501Y-21612194D02*
X-7167596Y-21546212D01*
X-7167596Y-21546212D02*
X-7203140Y-21522744D01*
X-7203140Y-21522744D02*
X-7229159Y-21515772D01*
X-7229159Y-21515772D02*
X-7297694Y-21511352D01*
X-7297694Y-21511352D02*
X-7373201Y-21532951D01*
X-7373201Y-21532951D02*
X-7505166Y-21609142D01*
X-7505166Y-21609142D02*
X-7528634Y-21644685D01*
X-7528634Y-21644685D02*
X-7535606Y-21670705D01*
X-7535606Y-21670705D02*
X-7533054Y-21713220D01*
X-7533054Y-21713220D02*
X-7494959Y-21779203D01*
X-7494959Y-21779203D02*
X-7459415Y-21802671D01*
X-7459415Y-21802671D02*
X-7433396Y-21809642D01*
X-7433396Y-21809642D02*
X-7390881Y-21807091D01*
X-7390881Y-21807091D02*
X-7308402Y-21759472D01*
X-7308402Y-21759472D02*
X-7284934Y-21723928D01*
X-7284934Y-21723928D02*
X-7277962Y-21697909D01*
X-7277962Y-21697909D02*
X-7280514Y-21655393D01*
X-7280514Y-21655393D02*
X-7318610Y-21589411D01*
X-7318610Y-21589411D02*
X-7354153Y-21565943D01*
X-7354153Y-21565943D02*
X-7380172Y-21558971D01*
X-7380172Y-21558971D02*
X-7422688Y-21561523D01*
X-7144629Y-21928848D02*
X-7147181Y-21886333D01*
X-7147181Y-21886333D02*
X-7140209Y-21860314D01*
X-7140209Y-21860314D02*
X-7116742Y-21824770D01*
X-7116742Y-21824770D02*
X-7100246Y-21815247D01*
X-7100246Y-21815247D02*
X-7057731Y-21812695D01*
X-7057731Y-21812695D02*
X-7031711Y-21819667D01*
X-7031711Y-21819667D02*
X-6996168Y-21843134D01*
X-6996168Y-21843134D02*
X-6958073Y-21909117D01*
X-6958073Y-21909117D02*
X-6955521Y-21951632D01*
X-6955521Y-21951632D02*
X-6962493Y-21977652D01*
X-6962493Y-21977652D02*
X-6985960Y-22013195D01*
X-6985960Y-22013195D02*
X-7002456Y-22022719D01*
X-7002456Y-22022719D02*
X-7044971Y-22025271D01*
X-7044971Y-22025271D02*
X-7070991Y-22018299D01*
X-7070991Y-22018299D02*
X-7106534Y-21994831D01*
X-7106534Y-21994831D02*
X-7144629Y-21928848D01*
X-7144629Y-21928848D02*
X-7180173Y-21905381D01*
X-7180173Y-21905381D02*
X-7206192Y-21898409D01*
X-7206192Y-21898409D02*
X-7248707Y-21900961D01*
X-7248707Y-21900961D02*
X-7314690Y-21939056D01*
X-7314690Y-21939056D02*
X-7338158Y-21974599D01*
X-7338158Y-21974599D02*
X-7345130Y-22000619D01*
X-7345130Y-22000619D02*
X-7342578Y-22043134D01*
X-7342578Y-22043134D02*
X-7304483Y-22109117D01*
X-7304483Y-22109117D02*
X-7268939Y-22132585D01*
X-7268939Y-22132585D02*
X-7242920Y-22139557D01*
X-7242920Y-22139557D02*
X-7200405Y-22137005D01*
X-7200405Y-22137005D02*
X-7134422Y-22098909D01*
X-7134422Y-22098909D02*
X-7110954Y-22063366D01*
X-7110954Y-22063366D02*
X-7103982Y-22037347D01*
X-7103982Y-22037347D02*
X-7106534Y-21994831D01*
D10*
X8219707Y-23929688D02*
X7933992Y-24424559D01*
X8076850Y-24177123D02*
X7210824Y-23677123D01*
X7210824Y-23677123D02*
X7286923Y-23831031D01*
X7286923Y-23831031D02*
X7321783Y-23961128D01*
X7321783Y-23961128D02*
X7315403Y-24067416D01*
X7663205Y-22893577D02*
X7710824Y-22811098D01*
X7710824Y-22811098D02*
X7799683Y-22752429D01*
X7799683Y-22752429D02*
X7864731Y-22734999D01*
X7864731Y-22734999D02*
X7971020Y-22741379D01*
X7971020Y-22741379D02*
X8159786Y-22795378D01*
X8159786Y-22795378D02*
X8365983Y-22914425D01*
X8365983Y-22914425D02*
X8507130Y-23050903D01*
X8507130Y-23050903D02*
X8565800Y-23139761D01*
X8565800Y-23139761D02*
X8583229Y-23204810D01*
X8583229Y-23204810D02*
X8576850Y-23311098D01*
X8576850Y-23311098D02*
X8529231Y-23393577D01*
X8529231Y-23393577D02*
X8440372Y-23452246D01*
X8440372Y-23452246D02*
X8375323Y-23469675D01*
X8375323Y-23469675D02*
X8269035Y-23463296D01*
X8269035Y-23463296D02*
X8080269Y-23409297D01*
X8080269Y-23409297D02*
X7874072Y-23290249D01*
X7874072Y-23290249D02*
X7732924Y-23153772D01*
X7732924Y-23153772D02*
X7674255Y-23064914D01*
X7674255Y-23064914D02*
X7656825Y-22999865D01*
X7656825Y-22999865D02*
X7663205Y-22893577D01*
X8139396Y-22068790D02*
X8187015Y-21986312D01*
X8187015Y-21986312D02*
X8275873Y-21927643D01*
X8275873Y-21927643D02*
X8340922Y-21910213D01*
X8340922Y-21910213D02*
X8447210Y-21916593D01*
X8447210Y-21916593D02*
X8635977Y-21970592D01*
X8635977Y-21970592D02*
X8842173Y-22089639D01*
X8842173Y-22089639D02*
X8983321Y-22226117D01*
X8983321Y-22226117D02*
X9041990Y-22314975D01*
X9041990Y-22314975D02*
X9059420Y-22380024D01*
X9059420Y-22380024D02*
X9053040Y-22486312D01*
X9053040Y-22486312D02*
X9005421Y-22568790D01*
X9005421Y-22568790D02*
X8916563Y-22627460D01*
X8916563Y-22627460D02*
X8851514Y-22644889D01*
X8851514Y-22644889D02*
X8745226Y-22638510D01*
X8745226Y-22638510D02*
X8556459Y-22584511D01*
X8556459Y-22584511D02*
X8350262Y-22465463D01*
X8350262Y-22465463D02*
X8209115Y-22328986D01*
X8209115Y-22328986D02*
X8150446Y-22240127D01*
X8150446Y-22240127D02*
X8133016Y-22175079D01*
X8133016Y-22175079D02*
X8139396Y-22068790D01*
X8809023Y-21575628D02*
X9386373Y-21908962D01*
X8891502Y-21623247D02*
X8874072Y-21558198D01*
X8874072Y-21558198D02*
X8880452Y-21451910D01*
X8880452Y-21451910D02*
X8951880Y-21328192D01*
X8951880Y-21328192D02*
X9040739Y-21269523D01*
X9040739Y-21269523D02*
X9147027Y-21275903D01*
X9147027Y-21275903D02*
X9600659Y-21537808D01*
X9551789Y-20574835D02*
X9385122Y-20863510D01*
X9838754Y-21125415D02*
X8972729Y-20625415D01*
X8972729Y-20625415D02*
X9210824Y-20213022D01*
D11*
X7357206Y-21941608D02*
X7364178Y-21967627D01*
X7364178Y-21967627D02*
X7352102Y-22026638D01*
X7352102Y-22026638D02*
X7333054Y-22059630D01*
X7333054Y-22059630D02*
X7287987Y-22099593D01*
X7287987Y-22099593D02*
X7235948Y-22113537D01*
X7235948Y-22113537D02*
X7193433Y-22110985D01*
X7193433Y-22110985D02*
X7117926Y-22089385D01*
X7117926Y-22089385D02*
X7068439Y-22060814D01*
X7068439Y-22060814D02*
X7011980Y-22006223D01*
X7011980Y-22006223D02*
X6988512Y-21970680D01*
X6988512Y-21970680D02*
X6974568Y-21918641D01*
X6974568Y-21918641D02*
X6986644Y-21859630D01*
X6986644Y-21859630D02*
X7005692Y-21826638D01*
X7005692Y-21826638D02*
X7050759Y-21786675D01*
X7050759Y-21786675D02*
X7076778Y-21779703D01*
X7215216Y-21463732D02*
X7177120Y-21529715D01*
X7177120Y-21529715D02*
X7174568Y-21572230D01*
X7174568Y-21572230D02*
X7181540Y-21598250D01*
X7181540Y-21598250D02*
X7211980Y-21659813D01*
X7211980Y-21659813D02*
X7268439Y-21714404D01*
X7268439Y-21714404D02*
X7400405Y-21790594D01*
X7400405Y-21790594D02*
X7442920Y-21793146D01*
X7442920Y-21793146D02*
X7468940Y-21786174D01*
X7468940Y-21786174D02*
X7504483Y-21762707D01*
X7504483Y-21762707D02*
X7542578Y-21696724D01*
X7542578Y-21696724D02*
X7545130Y-21654208D01*
X7545130Y-21654208D02*
X7538158Y-21628189D01*
X7538158Y-21628189D02*
X7514691Y-21592646D01*
X7514691Y-21592646D02*
X7432212Y-21545027D01*
X7432212Y-21545027D02*
X7389697Y-21542475D01*
X7389697Y-21542475D02*
X7363677Y-21549447D01*
X7363677Y-21549447D02*
X7328134Y-21572914D01*
X7328134Y-21572914D02*
X7290039Y-21638897D01*
X7290039Y-21638897D02*
X7287487Y-21681412D01*
X7287487Y-21681412D02*
X7294459Y-21707432D01*
X7294459Y-21707432D02*
X7317926Y-21742975D01*
X7405692Y-21133818D02*
X7367596Y-21199801D01*
X7367596Y-21199801D02*
X7365044Y-21242316D01*
X7365044Y-21242316D02*
X7372016Y-21268336D01*
X7372016Y-21268336D02*
X7402456Y-21329899D01*
X7402456Y-21329899D02*
X7458915Y-21384490D01*
X7458915Y-21384490D02*
X7590881Y-21460680D01*
X7590881Y-21460680D02*
X7633396Y-21463232D01*
X7633396Y-21463232D02*
X7659416Y-21456260D01*
X7659416Y-21456260D02*
X7694959Y-21432792D01*
X7694959Y-21432792D02*
X7733054Y-21366810D01*
X7733054Y-21366810D02*
X7735606Y-21324294D01*
X7735606Y-21324294D02*
X7728634Y-21298275D01*
X7728634Y-21298275D02*
X7705167Y-21262731D01*
X7705167Y-21262731D02*
X7622688Y-21215112D01*
X7622688Y-21215112D02*
X7580173Y-21212560D01*
X7580173Y-21212560D02*
X7554153Y-21219532D01*
X7554153Y-21219532D02*
X7518610Y-21243000D01*
X7518610Y-21243000D02*
X7480515Y-21308983D01*
X7480515Y-21308983D02*
X7477963Y-21351498D01*
X7477963Y-21351498D02*
X7484935Y-21377518D01*
X7484935Y-21377518D02*
X7508402Y-21413061D01*
D10*
X-124998025Y44730076D02*
X-124976678Y44625759D01*
X-124976678Y44625759D02*
X-125025976Y44441773D01*
X-125025976Y44441773D02*
X-125096622Y44362105D01*
X-125096622Y44362105D02*
X-125200940Y44340758D01*
X-125200940Y44340758D02*
X-125568912Y44439355D01*
X-125568912Y44439355D02*
X-125648580Y44510001D01*
X-125648580Y44510001D02*
X-125669927Y44614319D01*
X-125669927Y44614319D02*
X-125620628Y44798305D01*
X-125620628Y44798305D02*
X-125549982Y44877973D01*
X-125549982Y44877973D02*
X-125445665Y44899320D01*
X-125445665Y44899320D02*
X-125353672Y44874671D01*
X-125353672Y44874671D02*
X-125384926Y44390056D01*
X-125472732Y45350263D02*
X-124828781Y45177717D01*
X-125380739Y45325613D02*
X-125414410Y45383934D01*
X-125414410Y45383934D02*
X-125435757Y45488252D01*
X-125435757Y45488252D02*
X-125398783Y45626241D01*
X-125398783Y45626241D02*
X-125328137Y45705910D01*
X-125328137Y45705910D02*
X-125223820Y45727257D01*
X-125223820Y45727257D02*
X-124717859Y45591685D01*
X-124529685Y46477942D02*
X-124508338Y46373625D01*
X-124508338Y46373625D02*
X-124557637Y46189639D01*
X-124557637Y46189639D02*
X-124628283Y46109971D01*
X-124628283Y46109971D02*
X-124686604Y46076299D01*
X-124686604Y46076299D02*
X-124790922Y46054952D01*
X-124790922Y46054952D02*
X-125066901Y46128900D01*
X-125066901Y46128900D02*
X-125146569Y46199546D01*
X-125146569Y46199546D02*
X-125180241Y46257867D01*
X-125180241Y46257867D02*
X-125201588Y46362185D01*
X-125201588Y46362185D02*
X-125152289Y46546171D01*
X-125152289Y46546171D02*
X-125081643Y46625839D01*
X-124335792Y47017575D02*
X-124406438Y46937907D01*
X-124406438Y46937907D02*
X-124464759Y46904235D01*
X-124464759Y46904235D02*
X-124569077Y46882888D01*
X-124569077Y46882888D02*
X-124845056Y46956837D01*
X-124845056Y46956837D02*
X-124924724Y47027483D01*
X-124924724Y47027483D02*
X-124958396Y47085804D01*
X-124958396Y47085804D02*
X-124979743Y47190121D01*
X-124979743Y47190121D02*
X-124942769Y47328111D01*
X-124942769Y47328111D02*
X-124872123Y47407779D01*
X-124872123Y47407779D02*
X-124813802Y47441451D01*
X-124813802Y47441451D02*
X-124709484Y47462798D01*
X-124709484Y47462798D02*
X-124433505Y47388850D01*
X-124433505Y47388850D02*
X-124353837Y47318204D01*
X-124353837Y47318204D02*
X-124320165Y47259883D01*
X-124320165Y47259883D02*
X-124298818Y47155565D01*
X-124298818Y47155565D02*
X-124335792Y47017575D01*
X-124027674Y48167487D02*
X-124993600Y48426306D01*
X-124073671Y48179812D02*
X-124052324Y48075494D01*
X-124052324Y48075494D02*
X-124101623Y47891508D01*
X-124101623Y47891508D02*
X-124172268Y47811840D01*
X-124172268Y47811840D02*
X-124230590Y47778168D01*
X-124230590Y47778168D02*
X-124334907Y47756821D01*
X-124334907Y47756821D02*
X-124610886Y47830770D01*
X-124610886Y47830770D02*
X-124690554Y47901416D01*
X-124690554Y47901416D02*
X-124724226Y47959737D01*
X-124724226Y47959737D02*
X-124745573Y48064054D01*
X-124745573Y48064054D02*
X-124696274Y48248040D01*
X-124696274Y48248040D02*
X-124625628Y48327709D01*
X-123851826Y49007748D02*
X-123830479Y48903431D01*
X-123830479Y48903431D02*
X-123879778Y48719445D01*
X-123879778Y48719445D02*
X-123950424Y48639777D01*
X-123950424Y48639777D02*
X-124054741Y48618430D01*
X-124054741Y48618430D02*
X-124422713Y48717027D01*
X-124422713Y48717027D02*
X-124502381Y48787673D01*
X-124502381Y48787673D02*
X-124523728Y48891991D01*
X-124523728Y48891991D02*
X-124474429Y49075977D01*
X-124474429Y49075977D02*
X-124403783Y49155645D01*
X-124403783Y49155645D02*
X-124299466Y49176992D01*
X-124299466Y49176992D02*
X-124207473Y49152343D01*
X-124207473Y49152343D02*
X-124238727Y48667729D01*
X-123682582Y49455389D02*
X-124326533Y49627935D01*
X-124142547Y49578636D02*
X-124222215Y49649282D01*
X-124222215Y49649282D02*
X-124255887Y49707603D01*
X-124255887Y49707603D02*
X-124277234Y49811920D01*
X-124277234Y49811920D02*
X-124252584Y49903913D01*
D13*
%TO.C,C64*%
X-800000Y-8497000D02*
X800000Y-8497000D01*
X-800000Y-9297000D02*
X-800000Y-8497000D01*
X800000Y-8497000D02*
X800000Y-9297000D01*
X800000Y-9297000D02*
X-800000Y-9297000D01*
%TO.C,LED54*%
X2547372Y-10717835D02*
X3547372Y-8985785D01*
X2547372Y-10717835D02*
X3976314Y-11542835D01*
X3976314Y-11542835D02*
X4727628Y-11341521D01*
X4727628Y-11341521D02*
X5452628Y-10085785D01*
X5452628Y-10085785D02*
X3547372Y-8985785D01*
X4208013Y-11041521D02*
X3933013Y-11517835D01*
X3543301Y-11292835D01*
X3818301Y-10816521D01*
X4208013Y-11041521D01*
G36*
X4208013Y-11041521D02*
G01*
X3933013Y-11517835D01*
X3543301Y-11292835D01*
X3818301Y-10816521D01*
X4208013Y-11041521D01*
G37*
X4933013Y-9785785D02*
X4633013Y-10305400D01*
X4243301Y-10080400D01*
X4543301Y-9560785D01*
X4933013Y-9785785D01*
G36*
X4933013Y-9785785D02*
G01*
X4633013Y-10305400D01*
X4243301Y-10080400D01*
X4543301Y-9560785D01*
X4933013Y-9785785D01*
G37*
%TO.C,LED52*%
X-9000000Y-16297000D02*
X-9000000Y-18497000D01*
X-7550000Y-16297000D02*
X-9000000Y-16297000D01*
X-7000000Y-16847000D02*
X-7550000Y-16297000D01*
X-7000000Y-18497000D02*
X-9000000Y-18497000D01*
X-7000000Y-18497000D02*
X-7000000Y-16847000D01*
X-8400000Y-16897000D02*
X-9000000Y-16897000D01*
X-9000000Y-17347000D01*
X-8400000Y-17347000D01*
X-8400000Y-16897000D01*
G36*
X-8400000Y-16897000D02*
G01*
X-9000000Y-16897000D01*
X-9000000Y-17347000D01*
X-8400000Y-17347000D01*
X-8400000Y-16897000D01*
G37*
X-7000000Y-16897000D02*
X-7550000Y-16897000D01*
X-7550000Y-17347000D01*
X-7000000Y-17347000D01*
X-7000000Y-16897000D01*
G36*
X-7000000Y-16897000D02*
G01*
X-7550000Y-16897000D01*
X-7550000Y-17347000D01*
X-7000000Y-17347000D01*
X-7000000Y-16897000D01*
G37*
%TO.C,C69*%
X-8107625Y-13639820D02*
X-7307625Y-12254180D01*
X-7414805Y-14039820D02*
X-8107625Y-13639820D01*
X-7307625Y-12254180D02*
X-6614805Y-12654180D01*
X-6614805Y-12654180D02*
X-7414805Y-14039820D01*
%TO.C,LED53*%
X-4452628Y-11817835D02*
X-5452628Y-10085785D01*
X-4452628Y-11817835D02*
X-3023686Y-10992835D01*
X-3547372Y-8985785D02*
X-5452628Y-10085785D01*
X-3023686Y-10992835D02*
X-2822372Y-10241521D01*
X-2822372Y-10241521D02*
X-3547372Y-8985785D01*
X-3766987Y-9805400D02*
X-4156699Y-10030400D01*
X-4456699Y-9510785D01*
X-4066987Y-9285785D01*
X-3766987Y-9805400D01*
G36*
X-3766987Y-9805400D02*
G01*
X-4156699Y-10030400D01*
X-4456699Y-9510785D01*
X-4066987Y-9285785D01*
X-3766987Y-9805400D01*
G37*
X-3066987Y-11017835D02*
X-3456699Y-11242835D01*
X-3731699Y-10766521D01*
X-3341987Y-10541521D01*
X-3066987Y-11017835D01*
G36*
X-3066987Y-11017835D02*
G01*
X-3456699Y-11242835D01*
X-3731699Y-10766521D01*
X-3341987Y-10541521D01*
X-3066987Y-11017835D01*
G37*
%TO.C,LED50*%
X2822372Y-24552479D02*
X3547372Y-25808215D01*
X3023686Y-23801165D02*
X2822372Y-24552479D01*
X3547372Y-25808215D02*
X5452628Y-24708215D01*
X4452628Y-22976165D02*
X3023686Y-23801165D01*
X4452628Y-22976165D02*
X5452628Y-24708215D01*
X3731699Y-24027479D02*
X3341987Y-24252479D01*
X3066987Y-23776165D01*
X3456699Y-23551165D01*
X3731699Y-24027479D01*
G36*
X3731699Y-24027479D02*
G01*
X3341987Y-24252479D01*
X3066987Y-23776165D01*
X3456699Y-23551165D01*
X3731699Y-24027479D01*
G37*
X4456699Y-25283215D02*
X4066987Y-25508215D01*
X3766987Y-24988600D01*
X4156699Y-24763600D01*
X4456699Y-25283215D01*
G36*
X4456699Y-25283215D02*
G01*
X4066987Y-25508215D01*
X3766987Y-24988600D01*
X4156699Y-24763600D01*
X4456699Y-25283215D01*
G37*
%TO.C,C65*%
X6614805Y-12654180D02*
X7307625Y-12254180D01*
X7307625Y-12254180D02*
X8107625Y-13639820D01*
X7414805Y-14039820D02*
X6614805Y-12654180D01*
X8107625Y-13639820D02*
X7414805Y-14039820D01*
%TO.C,LED49*%
X7000000Y-16297000D02*
X7000000Y-17947000D01*
X7000000Y-16297000D02*
X9000000Y-16297000D01*
X7000000Y-17947000D02*
X7550000Y-18497000D01*
X7550000Y-18497000D02*
X9000000Y-18497000D01*
X9000000Y-18497000D02*
X9000000Y-16297000D01*
X7000000Y-17897000D02*
X7550000Y-17897000D01*
X7550000Y-17447000D01*
X7000000Y-17447000D01*
X7000000Y-17897000D01*
G36*
X7000000Y-17897000D02*
G01*
X7550000Y-17897000D01*
X7550000Y-17447000D01*
X7000000Y-17447000D01*
X7000000Y-17897000D01*
G37*
X8400000Y-17897000D02*
X9000000Y-17897000D01*
X9000000Y-17447000D01*
X8400000Y-17447000D01*
X8400000Y-17897000D01*
G36*
X8400000Y-17897000D02*
G01*
X9000000Y-17897000D01*
X9000000Y-17447000D01*
X8400000Y-17447000D01*
X8400000Y-17897000D01*
G37*
%TO.C,C67*%
X-800000Y-25497000D02*
X800000Y-25497000D01*
X-800000Y-26297000D02*
X-800000Y-25497000D01*
X800000Y-25497000D02*
X800000Y-26297000D01*
X800000Y-26297000D02*
X-800000Y-26297000D01*
%TO.C,LED51*%
X-5452628Y-24708215D02*
X-3547372Y-25808215D01*
X-4727628Y-23452479D02*
X-5452628Y-24708215D01*
X-3976314Y-23251165D02*
X-4727628Y-23452479D01*
X-2547372Y-24076165D02*
X-3976314Y-23251165D01*
X-2547372Y-24076165D02*
X-3547372Y-25808215D01*
X-4243301Y-24713600D02*
X-4543301Y-25233215D01*
X-4933013Y-25008215D01*
X-4633013Y-24488600D01*
X-4243301Y-24713600D01*
G36*
X-4243301Y-24713600D02*
G01*
X-4543301Y-25233215D01*
X-4933013Y-25008215D01*
X-4633013Y-24488600D01*
X-4243301Y-24713600D01*
G37*
X-3543301Y-23501165D02*
X-3818301Y-23977479D01*
X-4208013Y-23752479D01*
X-3933013Y-23276165D01*
X-3543301Y-23501165D01*
G36*
X-3543301Y-23501165D02*
G01*
X-3818301Y-23977479D01*
X-4208013Y-23752479D01*
X-3933013Y-23276165D01*
X-3543301Y-23501165D01*
G37*
%TO.C,C68*%
X-8107625Y-21154180D02*
X-7414805Y-20754180D01*
X-7414805Y-20754180D02*
X-6614805Y-22139820D01*
X-7307625Y-22539820D02*
X-8107625Y-21154180D01*
X-6614805Y-22139820D02*
X-7307625Y-22539820D01*
%TO.C,C66*%
X6614805Y-22139820D02*
X7414805Y-20754180D01*
X7307625Y-22539820D02*
X6614805Y-22139820D01*
X7414805Y-20754180D02*
X8107625Y-21154180D01*
X8107625Y-21154180D02*
X7307625Y-22539820D01*
%TD*%
M02*
