%TF.GenerationSoftware,KiCad,Pcbnew,8.0.6*%
%TF.CreationDate,2024-12-13T19:23:41-05:00*%
%TF.ProjectId,10133,31303133-332e-46b6-9963-61645f706362,rev?*%
%TF.SameCoordinates,Original*%
%TF.FileFunction,Paste,Bot*%
%TF.FilePolarity,Positive*%
%FSLAX46Y46*%
G04 Gerber Fmt 4.6, Leading zero omitted, Abs format (unit mm)*
G04 Created by KiCad (PCBNEW 8.0.6) date 2024-12-13 19:23:41*
%MOMM*%
%LPD*%
G01*
G04 APERTURE LIST*
G04 Aperture macros list*
%AMRoundRect*
0 Rectangle with rounded corners*
0 $1 Rounding radius*
0 $2 $3 $4 $5 $6 $7 $8 $9 X,Y pos of 4 corners*
0 Add a 4 corners polygon primitive as box body*
4,1,4,$2,$3,$4,$5,$6,$7,$8,$9,$2,$3,0*
0 Add four circle primitives for the rounded corners*
1,1,$1+$1,$2,$3*
1,1,$1+$1,$4,$5*
1,1,$1+$1,$6,$7*
1,1,$1+$1,$8,$9*
0 Add four rect primitives between the rounded corners*
20,1,$1+$1,$2,$3,$4,$5,0*
20,1,$1+$1,$4,$5,$6,$7,0*
20,1,$1+$1,$6,$7,$8,$9,0*
20,1,$1+$1,$8,$9,$2,$3,0*%
%AMHorizOval*
0 Thick line with rounded ends*
0 $1 width*
0 $2 $3 position (X,Y) of the first rounded end (center of the circle)*
0 $4 $5 position (X,Y) of the second rounded end (center of the circle)*
0 Add line between two ends*
20,1,$1,$2,$3,$4,$5,0*
0 Add two circle primitives to create the rounded ends*
1,1,$1,$2,$3*
1,1,$1,$4,$5*%
%AMRotRect*
0 Rectangle, with rotation*
0 The origin of the aperture is its center*
0 $1 length*
0 $2 width*
0 $3 Rotation angle, in degrees counterclockwise*
0 Add horizontal line*
21,1,$1,$2,0,0,$3*%
G04 Aperture macros list end*
%ADD10C,0.100000*%
%ADD11RoundRect,0.225000X-0.183247X0.282038X-0.299716X-0.152629X0.183247X-0.282038X0.299716X0.152629X0*%
%ADD12RoundRect,0.140000X-0.140000X-0.170000X0.140000X-0.170000X0.140000X0.170000X-0.140000X0.170000X0*%
%ADD13RoundRect,0.225000X0.299716X-0.152629X0.183247X0.282038X-0.299716X0.152629X-0.183247X-0.282038X0*%
%ADD14RotRect,0.900000X0.800000X255.000000*%
%ADD15RoundRect,0.637500X-0.839009X-0.668114X0.392546X-0.998108X0.839009X0.668114X-0.392546X0.998108X0*%
%ADD16RoundRect,0.637500X-0.392546X-0.998108X0.839009X-0.668114X0.392546X0.998108X-0.839009X0.668114X0*%
%ADD17R,0.812800X0.177800*%
%ADD18R,0.177800X0.812800*%
%ADD19RoundRect,0.135000X-0.040239X-0.225457X0.202436X-0.107097X0.040239X0.225457X-0.202436X0.107097X0*%
%ADD20RotRect,1.800000X0.820000X15.000000*%
%ADD21RoundRect,0.140000X0.170000X-0.140000X0.170000X0.140000X-0.170000X0.140000X-0.170000X-0.140000X0*%
%ADD22RotRect,1.800000X0.820000X345.000000*%
%ADD23RotRect,1.800000X0.820000X165.000000*%
%ADD24RotRect,1.800000X0.820000X195.000000*%
%ADD25RoundRect,0.225000X0.183247X-0.282038X0.299716X0.152629X-0.183247X0.282038X-0.299716X-0.152629X0*%
%ADD26RoundRect,0.135000X-0.185000X0.135000X-0.185000X-0.135000X0.185000X-0.135000X0.185000X0.135000X0*%
%ADD27RoundRect,0.225000X-0.299716X0.152629X-0.183247X-0.282038X0.299716X-0.152629X0.183247X0.282038X0*%
%ADD28RoundRect,0.135000X0.040239X0.225457X-0.202436X0.107097X-0.040239X-0.225457X0.202436X-0.107097X0*%
%ADD29R,1.000000X0.900000*%
%ADD30RotRect,0.900000X0.800000X285.000000*%
%ADD31RotRect,0.900000X0.800000X165.000000*%
%ADD32RoundRect,0.147500X-0.056953X-0.219702X0.208191X-0.090382X0.056953X0.219702X-0.208191X0.090382X0*%
%ADD33R,1.150000X1.000000*%
%ADD34RotRect,1.100000X1.100000X296.000000*%
%ADD35RoundRect,0.147500X0.056953X0.219702X-0.208191X0.090382X-0.056953X-0.219702X0.208191X-0.090382X0*%
%ADD36RoundRect,0.150000X0.392362X-0.462286X-0.122724X0.593797X-0.392362X0.462286X0.122724X-0.593797X0*%
%ADD37RotRect,0.900000X0.800000X345.000000*%
%ADD38RoundRect,0.225000X0.323332X-0.092636X0.126065X0.311821X-0.323332X0.092636X-0.126065X-0.311821X0*%
%ADD39RoundRect,0.135000X0.213637X-0.082518X0.143756X0.178282X-0.213637X0.082518X-0.143756X-0.178282X0*%
%ADD40RoundRect,0.225000X-0.092636X-0.323332X0.311821X-0.126065X0.092636X0.323332X-0.311821X0.126065X0*%
%ADD41RoundRect,0.135000X0.143756X-0.178282X0.213637X0.082518X-0.143756X0.178282X-0.213637X-0.082518X0*%
%ADD42RoundRect,0.135000X-0.143756X0.178282X-0.213637X-0.082518X0.143756X-0.178282X0.213637X0.082518X0*%
%ADD43RoundRect,0.135000X0.185000X-0.135000X0.185000X0.135000X-0.185000X0.135000X-0.185000X-0.135000X0*%
%ADD44RotRect,0.900000X0.800000X195.000000*%
%ADD45RoundRect,0.140000X-0.170000X0.140000X-0.170000X-0.140000X0.170000X-0.140000X0.170000X0.140000X0*%
%ADD46RoundRect,0.150000X0.150000X-0.587500X0.150000X0.587500X-0.150000X0.587500X-0.150000X-0.587500X0*%
%ADD47RoundRect,0.135000X-0.135000X-0.185000X0.135000X-0.185000X0.135000X0.185000X-0.135000X0.185000X0*%
%ADD48RoundRect,0.250000X-0.615000X0.435000X-0.615000X-0.435000X0.615000X-0.435000X0.615000X0.435000X0*%
%ADD49RoundRect,0.125000X-0.125000X0.250000X-0.125000X-0.250000X0.125000X-0.250000X0.125000X0.250000X0*%
%ADD50RotRect,0.300000X1.100000X25.210000*%
%ADD51RotRect,0.275000X1.100000X25.210000*%
%ADD52HorizOval,0.900000X-0.244914X0.520233X0.244914X-0.520233X0*%
%ADD53RoundRect,0.135000X0.135000X0.185000X-0.135000X0.185000X-0.135000X-0.185000X0.135000X-0.185000X0*%
G04 APERTURE END LIST*
D10*
%TO.C,U1*%
X-100001Y5099999D02*
X-1500200Y5100000D01*
X-1500200Y6500199D01*
X-100000Y6500200D01*
X-100001Y5099999D01*
G36*
X-100001Y5099999D02*
G01*
X-1500200Y5100000D01*
X-1500200Y6500199D01*
X-100000Y6500200D01*
X-100001Y5099999D01*
G37*
X-99999Y4899999D02*
X-100000Y3499800D01*
X-1500199Y3499800D01*
X-1500200Y4900000D01*
X-99999Y4899999D01*
G36*
X-99999Y4899999D02*
G01*
X-100000Y3499800D01*
X-1500199Y3499800D01*
X-1500200Y4900000D01*
X-99999Y4899999D01*
G37*
X1500200Y5100000D02*
X99999Y5100001D01*
X100000Y6500200D01*
X1500199Y6500200D01*
X1500200Y5100000D01*
G36*
X1500200Y5100000D02*
G01*
X99999Y5100001D01*
X100000Y6500200D01*
X1500199Y6500200D01*
X1500200Y5100000D01*
G37*
X1500200Y4900000D02*
X1500200Y3499801D01*
X100000Y3499800D01*
X100001Y4900001D01*
X1500200Y4900000D01*
G36*
X1500200Y4900000D02*
G01*
X1500200Y3499801D01*
X100000Y3499800D01*
X100001Y4900001D01*
X1500200Y4900000D01*
G37*
%TD*%
D11*
%TO.C,C31*%
X-61263269Y6218226D03*
X-61664439Y4721040D03*
%TD*%
D12*
%TO.C,C1*%
X-480000Y15100000D03*
X480000Y15100000D03*
%TD*%
D13*
%TO.C,C50*%
X38947880Y15890632D03*
X38546712Y17387820D03*
%TD*%
D14*
%TO.C,D3*%
X-21183622Y25817125D03*
X-19348363Y25325370D03*
X-20783631Y23639394D03*
%TD*%
D15*
%TO.C,K37*%
X-131694949Y43680953D03*
X-117659477Y42549761D03*
%TD*%
D16*
%TO.C,K7*%
X7904184Y15442192D03*
X20624856Y21480287D03*
%TD*%
D15*
%TO.C,K40*%
X-70417607Y-22043330D03*
X-56382135Y-23174522D03*
%TD*%
D16*
%TO.C,K36*%
X111002438Y-1307302D03*
X123723110Y4730793D03*
%TD*%
D17*
%TO.C,U1*%
X3403600Y7600000D03*
X3403600Y7200001D03*
X3403600Y6799999D03*
X3403600Y6400000D03*
X3403600Y6000001D03*
X3403600Y5599999D03*
X3403600Y5200000D03*
X3403600Y4800000D03*
X3403600Y4400001D03*
X3403600Y3999999D03*
X3403600Y3600000D03*
X3403600Y3200001D03*
X3403600Y2799999D03*
X3403600Y2400000D03*
D18*
X2600000Y1596400D03*
X2200001Y1596400D03*
X1799999Y1596400D03*
X1400000Y1596400D03*
X1000001Y1596400D03*
X599999Y1596400D03*
X200000Y1596400D03*
X-200000Y1596400D03*
X-599999Y1596400D03*
X-1000001Y1596400D03*
X-1400000Y1596400D03*
X-1799999Y1596400D03*
X-2200001Y1596400D03*
X-2600000Y1596400D03*
D17*
X-3403600Y2400000D03*
X-3403600Y2799999D03*
X-3403600Y3200001D03*
X-3403600Y3600000D03*
X-3403600Y3999999D03*
X-3403600Y4400001D03*
X-3403600Y4800000D03*
X-3403600Y5200000D03*
X-3403600Y5599999D03*
X-3403600Y6000001D03*
X-3403600Y6400000D03*
X-3403600Y6799999D03*
X-3403600Y7200001D03*
X-3403600Y7600000D03*
D18*
X-2600000Y8403600D03*
X-2200001Y8403600D03*
X-1799999Y8403600D03*
X-1400000Y8403600D03*
X-1000001Y8403600D03*
X-599999Y8403600D03*
X-200000Y8403600D03*
X200000Y8403600D03*
X599999Y8403600D03*
X1000001Y8403600D03*
X1400000Y8403600D03*
X1799999Y8403600D03*
X2200001Y8403600D03*
X2600000Y8403600D03*
%TD*%
D19*
%TO.C,R11*%
X-146666583Y81059284D03*
X-145749813Y81506422D03*
%TD*%
D20*
%TO.C,LED26*%
X46617020Y-21472667D03*
X46228792Y-20023778D03*
X41399162Y-21317873D03*
X41787390Y-22766762D03*
%TD*%
D21*
%TO.C,C11*%
X3741590Y-3119742D03*
X3741590Y-2159742D03*
%TD*%
D14*
%TO.C,D22*%
X-35975143Y-29385582D03*
X-34139884Y-29877337D03*
X-35575152Y-31563313D03*
%TD*%
D22*
%TO.C,LED9*%
X-107380384Y26857486D03*
X-106992155Y28306375D03*
X-111821784Y29600470D03*
X-112210013Y28151581D03*
%TD*%
D20*
%TO.C,LED37*%
X54540608Y22559831D03*
X54152380Y24008720D03*
X49322750Y22714625D03*
X49710978Y21265736D03*
%TD*%
D23*
%TO.C,LED1*%
X-13654136Y27949064D03*
X-14042365Y26500175D03*
X-9212736Y25206080D03*
X-8824507Y26654969D03*
%TD*%
D24*
%TO.C,LED33*%
X36468646Y-2916940D03*
X36856874Y-4365829D03*
X41686504Y-3071734D03*
X41298276Y-1622845D03*
%TD*%
D25*
%TO.C,C28*%
X-29749343Y13425891D03*
X-29348173Y14923077D03*
%TD*%
D13*
%TO.C,C55*%
X132801489Y33642858D03*
X132400321Y35140046D03*
%TD*%
D11*
%TO.C,C30*%
X-43478681Y-1012394D03*
X-43879851Y-2509580D03*
%TD*%
D16*
%TO.C,K19*%
X12834792Y-2958709D03*
X25555464Y3079386D03*
%TD*%
D26*
%TO.C,R3*%
X-1999999Y11510000D03*
X-2000001Y10490000D03*
%TD*%
%TO.C,R5*%
X-999999Y-1039741D03*
X-1000001Y-2059741D03*
%TD*%
D27*
%TO.C,C48*%
X16492139Y-10709003D03*
X16893307Y-12206191D03*
%TD*%
D16*
%TO.C,K47*%
X124472834Y22024107D03*
X137193506Y28062202D03*
%TD*%
D21*
%TO.C,C7*%
X-1Y10520000D03*
X-1Y11480000D03*
%TD*%
D13*
%TO.C,C53*%
X95999621Y23781827D03*
X95598453Y25279015D03*
%TD*%
D24*
%TO.C,LED43*%
X102060293Y46706638D03*
X102448521Y45257749D03*
X107278151Y46551844D03*
X106889923Y48000733D03*
%TD*%
D22*
%TO.C,LED10*%
X-88979481Y21926979D03*
X-88591252Y23375868D03*
X-93420881Y24669963D03*
X-93809110Y23221074D03*
%TD*%
D28*
%TO.C,R10*%
X-150513421Y79183055D03*
X-151430191Y78735917D03*
%TD*%
D14*
%TO.C,D2*%
X-57944142Y38132330D03*
X-56108883Y37640575D03*
X-57544151Y35954599D03*
%TD*%
D24*
%TO.C,LED47*%
X26607616Y33884927D03*
X26995844Y32436038D03*
X31825474Y33730133D03*
X31437246Y35179022D03*
%TD*%
D29*
%TO.C,SW2*%
X1200000Y-4450001D03*
X1199999Y-8550001D03*
X2800001Y-4449999D03*
X2800000Y-8549999D03*
%TD*%
D20*
%TO.C,LED39*%
X93807733Y23220395D03*
X93419505Y24669284D03*
X88589875Y23375189D03*
X88978103Y21926300D03*
%TD*%
D30*
%TO.C,D23*%
X35864969Y-29415104D03*
X37700228Y-28923347D03*
X37300237Y-31101076D03*
%TD*%
D16*
%TO.C,K32*%
X35549890Y-14128989D03*
X48270562Y-8090894D03*
%TD*%
%TO.C,K43*%
X18095583Y-40993140D03*
X30816255Y-34955045D03*
%TD*%
D13*
%TO.C,C51*%
X56732497Y23121263D03*
X56331329Y24618451D03*
%TD*%
D24*
%TO.C,LED30*%
X93520389Y4974256D03*
X93908617Y3525367D03*
X98738247Y4819462D03*
X98350019Y6268351D03*
%TD*%
D31*
%TO.C,D20*%
X-131653058Y49853019D03*
X-132144813Y48017760D03*
X-133830789Y49453028D03*
%TD*%
D23*
%TO.C,LED3*%
X-49223709Y42410123D03*
X-49611938Y40961234D03*
X-44782309Y39667139D03*
X-44394080Y41116028D03*
%TD*%
D15*
%TO.C,K27*%
X-84504316Y-1012033D03*
X-70468844Y-2143225D03*
%TD*%
%TO.C,K3*%
X-74643302Y35789771D03*
X-60607830Y34658579D03*
%TD*%
D16*
%TO.C,K10*%
X62490680Y32533827D03*
X75211352Y38571922D03*
%TD*%
%TO.C,K44*%
X40480396Y-32529891D03*
X53201068Y-26491796D03*
%TD*%
D27*
%TO.C,C62*%
X6631109Y26092863D03*
X7032277Y24595675D03*
%TD*%
D24*
%TO.C,LED46*%
X44392235Y41115560D03*
X44780463Y39666671D03*
X49610093Y40960766D03*
X49221865Y42409655D03*
%TD*%
D12*
%TO.C,C4*%
X-480001Y18100000D03*
X479999Y18100000D03*
%TD*%
D16*
%TO.C,K22*%
X67421187Y14132925D03*
X80141859Y20171020D03*
%TD*%
D23*
%TO.C,LED7*%
X-125292179Y52931880D03*
X-125680408Y51482991D03*
X-120850779Y50188896D03*
X-120462550Y51637785D03*
%TD*%
D13*
%TO.C,C54*%
X114400554Y28712342D03*
X113999386Y30209530D03*
%TD*%
D22*
%TO.C,LED21*%
X-78590652Y-12904994D03*
X-78202423Y-11456105D03*
X-83032052Y-10162010D03*
X-83420281Y-11610899D03*
%TD*%
D32*
%TO.C,D26*%
X-147060699Y79643200D03*
X-146188869Y80068418D03*
%TD*%
D15*
%TO.C,K1*%
X-113294047Y38750446D03*
X-99258575Y37619254D03*
%TD*%
D12*
%TO.C,C2*%
X-480001Y16099999D03*
X479999Y16099999D03*
%TD*%
D27*
%TO.C,C44*%
X91328501Y4412824D03*
X91729669Y2915636D03*
%TD*%
D23*
%TO.C,LED5*%
X-88490374Y43070866D03*
X-88878603Y41621977D03*
X-84048974Y40327882D03*
X-83660745Y41776771D03*
%TD*%
D13*
%TO.C,C40*%
X48808908Y-20911235D03*
X48407740Y-19414047D03*
%TD*%
D33*
%TO.C,Y1*%
X2375000Y-2749742D03*
X625000Y-2749740D03*
X625000Y-1349740D03*
X2375000Y-1349742D03*
%TD*%
D34*
%TO.C,D13*%
X-149097839Y73976692D03*
X-147870397Y71460070D03*
%TD*%
D22*
%TO.C,LED12*%
X-49712422Y21266417D03*
X-49324193Y22715306D03*
X-54153822Y24009401D03*
X-54542051Y22560512D03*
%TD*%
D13*
%TO.C,C39*%
X26424056Y-29374496D03*
X26022888Y-27877308D03*
%TD*%
D20*
%TO.C,LED40*%
X112208666Y28150910D03*
X111820438Y29599799D03*
X106990808Y28305704D03*
X107379036Y26856815D03*
%TD*%
D35*
%TO.C,D27*%
X-149154889Y78621793D03*
X-150026719Y78196575D03*
%TD*%
D16*
%TO.C,K45*%
X58264985Y-25299274D03*
X70985657Y-19261179D03*
%TD*%
D24*
%TO.C,LED44*%
X83659359Y41776123D03*
X84047587Y40327234D03*
X88877217Y41621329D03*
X88488989Y43070218D03*
%TD*%
D14*
%TO.C,D21*%
X-72735663Y-17070377D03*
X-70900404Y-17562132D03*
X-72335672Y-19248108D03*
%TD*%
D24*
%TO.C,LED32*%
X54253265Y4313692D03*
X54641493Y2864803D03*
X59471123Y4158898D03*
X59082895Y5607787D03*
%TD*%
D11*
%TO.C,C18*%
X-51402321Y43019788D03*
X-51803491Y41522602D03*
%TD*%
D36*
%TO.C,U2*%
X-144522906Y73607327D03*
X-146230614Y72774422D03*
X-146198707Y74876113D03*
%TD*%
D21*
%TO.C,C9*%
X-5999999Y10520000D03*
X-5999999Y11480000D03*
%TD*%
D27*
%TO.C,C43*%
X109729434Y9343339D03*
X110130602Y7846151D03*
%TD*%
D11*
%TO.C,C20*%
X-90669314Y43680594D03*
X-91070484Y42183408D03*
%TD*%
D22*
%TO.C,LED22*%
X-59573436Y-15535388D03*
X-59185207Y-14086499D03*
X-64014836Y-12792404D03*
X-64403065Y-14241293D03*
%TD*%
D15*
%TO.C,K18*%
X-24987311Y297247D03*
X-10951839Y-833945D03*
%TD*%
D37*
%TO.C,D7*%
X-101965595Y18942326D03*
X-101473840Y20777585D03*
X-99787864Y19342317D03*
%TD*%
D25*
%TO.C,C27*%
X-47533963Y20656524D03*
X-47132793Y22153710D03*
%TD*%
D38*
%TO.C,C14*%
X-142981825Y73983459D03*
X-143661301Y75376591D03*
%TD*%
D22*
%TO.C,LED11*%
X-68729636Y23896811D03*
X-68341407Y25345700D03*
X-73171036Y26639795D03*
X-73559265Y25190906D03*
%TD*%
D27*
%TO.C,C58*%
X81467471Y41214691D03*
X81868639Y39717503D03*
%TD*%
D11*
%TO.C,C17*%
X-33617667Y35789411D03*
X-34018837Y34292225D03*
%TD*%
D21*
%TO.C,C10*%
X-5000001Y10520001D03*
X-5000001Y11480001D03*
%TD*%
D15*
%TO.C,K41*%
X-52633016Y-29273949D03*
X-38597544Y-30405141D03*
%TD*%
D39*
%TO.C,R15*%
X129409317Y37594602D03*
X129145321Y38579846D03*
%TD*%
D23*
%TO.C,LED16*%
X-41299740Y-1622123D03*
X-41687969Y-3071012D03*
X-36858340Y-4365107D03*
X-36470111Y-2916218D03*
%TD*%
D37*
%TO.C,D14*%
X-106896102Y541424D03*
X-106404347Y2376683D03*
X-104718371Y941415D03*
%TD*%
D15*
%TO.C,K13*%
X-118224554Y20349544D03*
X-104189082Y19218352D03*
%TD*%
D13*
%TO.C,C49*%
X21163259Y8659999D03*
X20762091Y10157187D03*
%TD*%
D15*
%TO.C,K14*%
X-99823651Y15419037D03*
X-85788179Y14287845D03*
%TD*%
D16*
%TO.C,K12*%
X101141424Y35494504D03*
X113862096Y41532599D03*
%TD*%
D25*
%TO.C,C63*%
X-11964725Y6195261D03*
X-11563555Y7692447D03*
%TD*%
D16*
%TO.C,K11*%
X82740524Y30563995D03*
X95461196Y36602090D03*
%TD*%
D39*
%TO.C,R14*%
X124538463Y36299812D03*
X124274467Y37285056D03*
%TD*%
D40*
%TO.C,C15*%
X-145169186Y70997374D03*
X-143776054Y71676850D03*
%TD*%
D30*
%TO.C,D5*%
X57988046Y37527780D03*
X59823305Y38019537D03*
X59423314Y35841808D03*
%TD*%
D14*
%TO.C,D9*%
X-26114129Y7416223D03*
X-24278870Y6924468D03*
X-25714138Y5238492D03*
%TD*%
D20*
%TO.C,LED38*%
X73557855Y25190231D03*
X73169627Y26639120D03*
X68339997Y25345025D03*
X68728225Y23896136D03*
%TD*%
D21*
%TO.C,C6*%
X-7999998Y10520000D03*
X-7999998Y11480000D03*
%TD*%
D41*
%TO.C,R13*%
X-124567750Y36318013D03*
X-124303754Y37303257D03*
%TD*%
D22*
%TO.C,LED14*%
X-14143243Y6805177D03*
X-13755014Y8254066D03*
X-18584643Y9548161D03*
X-18972872Y8099272D03*
%TD*%
D42*
%TO.C,R7*%
X-7568002Y24592622D03*
X-7831998Y23607378D03*
%TD*%
D16*
%TO.C,K33*%
X53334479Y-6898371D03*
X66055151Y-860276D03*
%TD*%
D30*
%TO.C,D19*%
X106962040Y1961566D03*
X108797299Y2453323D03*
X108397308Y275594D03*
%TD*%
D25*
%TO.C,C24*%
X-105201442Y26247760D03*
X-104800272Y27744946D03*
%TD*%
D15*
%TO.C,K4*%
X-55626085Y33159377D03*
X-41590613Y32028185D03*
%TD*%
D43*
%TO.C,R8*%
X3019999Y9940000D03*
X3020001Y10960000D03*
%TD*%
D27*
%TO.C,C47*%
X34276758Y-3478372D03*
X34677926Y-4975560D03*
%TD*%
D44*
%TO.C,D25*%
X135478787Y41076605D03*
X135970544Y39241346D03*
X133792815Y39641337D03*
%TD*%
D16*
%TO.C,K48*%
X119542331Y40425010D03*
X132263003Y46463105D03*
%TD*%
%TO.C,K8*%
X25688875Y22672815D03*
X38409547Y28710910D03*
%TD*%
D15*
%TO.C,K16*%
X-60556593Y14758475D03*
X-46521121Y13627283D03*
%TD*%
%TO.C,K30*%
X-29917110Y-18103637D03*
X-15881638Y-19234829D03*
%TD*%
%TO.C,K5*%
X-37841497Y25928757D03*
X-23806025Y24797565D03*
%TD*%
D26*
%TO.C,R4*%
X-6999999Y11510000D03*
X-7000001Y10490000D03*
%TD*%
D15*
%TO.C,K38*%
X-136625454Y25280051D03*
X-122589982Y24148859D03*
%TD*%
D12*
%TO.C,C3*%
X-479999Y17100000D03*
X480001Y17100000D03*
%TD*%
D11*
%TO.C,C29*%
X-25694092Y-8243015D03*
X-26095262Y-9740201D03*
%TD*%
D23*
%TO.C,LED4*%
X-68240531Y45040696D03*
X-68628760Y43591807D03*
X-63799131Y42297712D03*
X-63410902Y43746601D03*
%TD*%
D11*
%TO.C,C22*%
X-127471119Y53541607D03*
X-127872289Y52044421D03*
%TD*%
D37*
%TO.C,D1*%
X-97035088Y37343229D03*
X-96543333Y39178488D03*
X-94857357Y37743220D03*
%TD*%
D16*
%TO.C,K20*%
X30619381Y4271912D03*
X43340053Y10310007D03*
%TD*%
%TO.C,K46*%
X77282201Y-22668879D03*
X90002873Y-16630784D03*
%TD*%
D30*
%TO.C,D18*%
X67849060Y725976D03*
X69684319Y1217733D03*
X69284328Y-959996D03*
%TD*%
D26*
%TO.C,R1*%
X-3499998Y-1990001D03*
X-3500000Y-3010001D03*
%TD*%
D15*
%TO.C,K2*%
X-94893142Y33819940D03*
X-80857670Y32688748D03*
%TD*%
D24*
%TO.C,LED31*%
X73270514Y6944091D03*
X73658742Y5495202D03*
X78488372Y6789297D03*
X78100144Y8238186D03*
%TD*%
D12*
%TO.C,C5*%
X-480002Y19100000D03*
X479998Y19100000D03*
%TD*%
D21*
%TO.C,C8*%
X-3000002Y10520000D03*
X-3000002Y11480000D03*
%TD*%
D25*
%TO.C,C25*%
X-86801087Y21317088D03*
X-86399917Y22814274D03*
%TD*%
D41*
%TO.C,R12*%
X-129397379Y37612108D03*
X-129133383Y38597352D03*
%TD*%
D30*
%TO.C,D17*%
X30934462Y-11014201D03*
X32769721Y-10522444D03*
X32369730Y-12700173D03*
%TD*%
D11*
%TO.C,C16*%
X-15833078Y28558792D03*
X-16234248Y27061606D03*
%TD*%
D15*
%TO.C,K42*%
X-30248203Y-37737198D03*
X-16212731Y-38868390D03*
%TD*%
D30*
%TO.C,D24*%
X72779567Y-17674927D03*
X74614826Y-17183170D03*
X74214835Y-19360899D03*
%TD*%
D23*
%TO.C,LED2*%
X-31438727Y35179682D03*
X-31826956Y33730793D03*
X-26997327Y32436698D03*
X-26609098Y33885587D03*
%TD*%
%TO.C,LED15*%
X-23515151Y-8852741D03*
X-23903380Y-10301630D03*
X-19073751Y-11595725D03*
X-18685522Y-10146836D03*
%TD*%
D13*
%TO.C,C41*%
X66593528Y-13680603D03*
X66192360Y-12183415D03*
%TD*%
D24*
%TO.C,LED34*%
X18684028Y-10147573D03*
X19072256Y-11596462D03*
X23901886Y-10302367D03*
X23513658Y-8853478D03*
%TD*%
D22*
%TO.C,LED24*%
X-19404032Y-31229254D03*
X-19015803Y-29780365D03*
X-23845432Y-28486270D03*
X-24233661Y-29935159D03*
%TD*%
D23*
%TO.C,LED19*%
X-98351388Y6269060D03*
X-98739617Y4820171D03*
X-93909988Y3526076D03*
X-93521759Y4974965D03*
%TD*%
%TO.C,LED20*%
X-116752289Y11199568D03*
X-117140518Y9750679D03*
X-112310889Y8456584D03*
X-111922660Y9905473D03*
%TD*%
D27*
%TO.C,C60*%
X42200347Y40554126D03*
X42601515Y39056938D03*
%TD*%
D30*
%TO.C,D10*%
X26003955Y7386701D03*
X27839214Y7878458D03*
X27439223Y5700729D03*
%TD*%
D45*
%TO.C,C13*%
X-2000000Y-1069741D03*
X-2000000Y-2029741D03*
%TD*%
D29*
%TO.C,SW1*%
X-1199999Y-8549999D03*
X-1199998Y-4449999D03*
X-2800000Y-8550001D03*
X-2799999Y-4450001D03*
%TD*%
D46*
%TO.C,Q1*%
X-1760000Y15592500D03*
X-3660000Y15592500D03*
X-2709999Y17467499D03*
%TD*%
D30*
%TO.C,D11*%
X62918552Y19126877D03*
X64753811Y19618634D03*
X64353820Y17440905D03*
%TD*%
D20*
%TO.C,LED25*%
X24232169Y-29935928D03*
X23843941Y-28487039D03*
X19014311Y-29781134D03*
X19402539Y-31230023D03*
%TD*%
D13*
%TO.C,C42*%
X85610775Y-11050205D03*
X85209607Y-9553017D03*
%TD*%
%TO.C,C52*%
X75749744Y25751663D03*
X75348576Y27248851D03*
%TD*%
D15*
%TO.C,K15*%
X-79573808Y17388868D03*
X-65538336Y16257676D03*
%TD*%
D16*
%TO.C,K35*%
X92601535Y-6237809D03*
X105322207Y-199714D03*
%TD*%
D15*
%TO.C,K39*%
X-89434822Y-19412935D03*
X-75399350Y-20544127D03*
%TD*%
D14*
%TO.C,D15*%
X-67805156Y1330525D03*
X-65969897Y838770D03*
X-67405165Y-847206D03*
%TD*%
D24*
%TO.C,LED48*%
X8822997Y26654295D03*
X9211225Y25205406D03*
X14040855Y26499501D03*
X13652627Y27948390D03*
%TD*%
D15*
%TO.C,K29*%
X-47702511Y-10873046D03*
X-33667039Y-12004238D03*
%TD*%
D27*
%TO.C,C61*%
X23992542Y33210100D03*
X24393710Y31712912D03*
%TD*%
D30*
%TO.C,D4*%
X21073448Y25787603D03*
X22908707Y26279360D03*
X22508716Y24101631D03*
%TD*%
D11*
%TO.C,C19*%
X-70419472Y45650424D03*
X-70820642Y44153238D03*
%TD*%
D47*
%TO.C,R6*%
X-2891250Y19050000D03*
X-1871250Y19050000D03*
%TD*%
D11*
%TO.C,C33*%
X-100530328Y6878789D03*
X-100931498Y5381603D03*
%TD*%
D23*
%TO.C,LED6*%
X-106891276Y48001373D03*
X-107279505Y46552484D03*
X-102449876Y45258389D03*
X-102061647Y46707278D03*
%TD*%
D14*
%TO.C,D8*%
X-62874649Y19731428D03*
X-61039390Y19239673D03*
X-62474658Y17553697D03*
%TD*%
D15*
%TO.C,K6*%
X-20056804Y18698134D03*
X-6021332Y17566942D03*
%TD*%
D48*
%TO.C,U3*%
X1075001Y26448501D03*
X-1074999Y26448500D03*
X1075001Y24748502D03*
X-1074999Y24748501D03*
D49*
X-1904999Y28298501D03*
X-634999Y28298501D03*
X635001Y28298501D03*
X1905001Y28298501D03*
X1905001Y22898501D03*
X635001Y22898501D03*
X-634999Y22898501D03*
X-1904999Y22898501D03*
%TD*%
D16*
%TO.C,K21*%
X48403972Y11502531D03*
X61124644Y17540626D03*
%TD*%
D25*
%TO.C,C37*%
X-39609905Y-23375735D03*
X-39208735Y-21878549D03*
%TD*%
D15*
%TO.C,K17*%
X-42772003Y7527855D03*
X-28736531Y6396663D03*
%TD*%
D27*
%TO.C,C46*%
X52061376Y3752258D03*
X52462544Y2255070D03*
%TD*%
D23*
%TO.C,LED18*%
X-78101545Y8238892D03*
X-78489774Y6790003D03*
X-73660145Y5495908D03*
X-73271916Y6944797D03*
%TD*%
D16*
%TO.C,K9*%
X43473464Y29903434D03*
X56194136Y35941529D03*
%TD*%
%TO.C,K23*%
X87671030Y12163094D03*
X100391702Y18201189D03*
%TD*%
D25*
%TO.C,C26*%
X-66551210Y23286924D03*
X-66150040Y24784110D03*
%TD*%
D27*
%TO.C,C56*%
X118269338Y51075721D03*
X118670506Y49578533D03*
%TD*%
D20*
%TO.C,LED28*%
X83418886Y-11611636D03*
X83030658Y-10162747D03*
X78201028Y-11456842D03*
X78589256Y-12905731D03*
%TD*%
D15*
%TO.C,K28*%
X-65487099Y-3642428D03*
X-51451627Y-4773620D03*
%TD*%
D20*
%TO.C,LED36*%
X36755988Y15329200D03*
X36367760Y16778089D03*
X31538130Y15483994D03*
X31926358Y14035105D03*
%TD*%
D24*
%TO.C,LED45*%
X63409483Y43745957D03*
X63797711Y42297068D03*
X68627341Y43591163D03*
X68239113Y45040052D03*
%TD*%
D26*
%TO.C,R2*%
X-1000002Y11510000D03*
X-1000004Y10490000D03*
%TD*%
D22*
%TO.C,LED23*%
X-41789123Y-22765933D03*
X-41400894Y-21317044D03*
X-46230523Y-20022949D03*
X-46618752Y-21471838D03*
%TD*%
D25*
%TO.C,C35*%
X-76411713Y-13514722D03*
X-76010543Y-12017536D03*
%TD*%
D27*
%TO.C,C45*%
X71078625Y6382658D03*
X71479793Y4885470D03*
%TD*%
D15*
%TO.C,K26*%
X-104754157Y-2981867D03*
X-90718685Y-4113059D03*
%TD*%
D30*
%TO.C,D12*%
X102031533Y20362469D03*
X103866792Y20854226D03*
X103466801Y18676497D03*
%TD*%
%TO.C,D6*%
X97101025Y38763371D03*
X98936284Y39255128D03*
X98536293Y37077399D03*
%TD*%
D27*
%TO.C,C57*%
X99868402Y46145208D03*
X100269570Y44648020D03*
%TD*%
D24*
%TO.C,LED29*%
X111921323Y9904771D03*
X112309551Y8455882D03*
X117139181Y9749977D03*
X116750953Y11198866D03*
%TD*%
D20*
%TO.C,LED27*%
X64401641Y-14242035D03*
X64013413Y-12793146D03*
X59183783Y-14087241D03*
X59572011Y-15536130D03*
%TD*%
D14*
%TO.C,D16*%
X-31044636Y-10984680D03*
X-29209377Y-11476435D03*
X-30644645Y-13162411D03*
%TD*%
D25*
%TO.C,C36*%
X-57394496Y-16145116D03*
X-56993326Y-14647930D03*
%TD*%
D20*
%TO.C,LED35*%
X18971370Y8098568D03*
X18583142Y9547457D03*
X13753512Y8253362D03*
X14141740Y6804473D03*
%TD*%
%TO.C,LED41*%
X130609599Y33081426D03*
X130221371Y34530315D03*
X125391741Y33236220D03*
X125779969Y31787331D03*
%TD*%
D11*
%TO.C,C34*%
X-118931231Y11809296D03*
X-119332401Y10312110D03*
%TD*%
D27*
%TO.C,C59*%
X61217594Y43184526D03*
X61618762Y41687338D03*
%TD*%
D22*
%TO.C,LED13*%
X-31927834Y14035797D03*
X-31539605Y15484686D03*
X-36369234Y16778781D03*
X-36757463Y15329892D03*
%TD*%
D11*
%TO.C,C32*%
X-80280486Y8848620D03*
X-80681656Y7351434D03*
%TD*%
D12*
%TO.C,C12*%
X-1980000Y-3049741D03*
X-1020000Y-3049741D03*
%TD*%
D24*
%TO.C,LED42*%
X120461226Y51637153D03*
X120849454Y50188264D03*
X125679084Y51482359D03*
X125290856Y52931248D03*
%TD*%
D22*
%TO.C,LED8*%
X-125781286Y31787992D03*
X-125393057Y33236881D03*
X-130222686Y34530976D03*
X-130610915Y33082087D03*
%TD*%
D16*
%TO.C,K34*%
X72351696Y-4267977D03*
X85072368Y1770118D03*
%TD*%
%TO.C,K24*%
X106071931Y17093601D03*
X118792603Y23131696D03*
%TD*%
D25*
%TO.C,C23*%
X-123602345Y31178266D03*
X-123201175Y32675452D03*
%TD*%
D50*
%TO.C,J13*%
X-153537705Y82167535D03*
D51*
X-152847831Y82492312D03*
D50*
X-151637724Y83062003D03*
X-150732972Y83487940D03*
X-150280595Y83700908D03*
D51*
X-148165736Y84696537D03*
D50*
X-147475862Y85021314D03*
D51*
X-147735978Y84898857D03*
D50*
X-148425852Y84574080D03*
X-148923466Y84339815D03*
X-149828220Y83913878D03*
X-151185348Y83274972D03*
X-152587714Y82614768D03*
D51*
X-153277589Y82289991D03*
D52*
X-158055291Y86539771D03*
X-156095978Y82377908D03*
X-147967299Y91288971D03*
X-146007987Y87127108D03*
%TD*%
D15*
%TO.C,K25*%
X-123155061Y1948642D03*
X-109119589Y817450D03*
%TD*%
D23*
%TO.C,LED17*%
X-59084329Y5608499D03*
X-59472558Y4159610D03*
X-54642929Y2865515D03*
X-54254700Y4314404D03*
%TD*%
D53*
%TO.C,R9*%
X-1871250Y20240624D03*
X-2891250Y20240626D03*
%TD*%
D16*
%TO.C,K31*%
X17765300Y-21359609D03*
X30485972Y-15321514D03*
%TD*%
D11*
%TO.C,C21*%
X-109070217Y48611100D03*
X-109471387Y47113914D03*
%TD*%
D25*
%TO.C,C38*%
X-17225092Y-31838982D03*
X-16823922Y-30341796D03*
%TD*%
M02*
