M48
; DRILL file {KiCad 8.0.6} date 2024-12-13T19:23:44-0500
; FORMAT={-:-/ absolute / inch / decimal}
; #@! TF.CreationDate,2024-12-13T19:23:44-05:00
; #@! TF.GenerationSoftware,Kicad,Pcbnew,8.0.6
; #@! TF.FileFunction,NonPlated,1,2,NPTH
FMAT,2
INCH
; #@! TA.AperFunction,NonPlated,NPTH,ComponentDrill
T1C0.0236
; #@! TA.AperFunction,NonPlated,NPTH,ComponentDrill
T2C0.0285
; #@! TA.AperFunction,NonPlated,NPTH,ComponentDrill
T3C0.0295
; #@! TA.AperFunction,NonPlated,NPTH,ComponentDrill
T4C0.0315
; #@! TA.AperFunction,NonPlated,NPTH,ComponentDrill
T5C0.0472
; #@! TA.AperFunction,NonPlated,NPTH,ComponentDrill
T6C0.0670
; #@! TA.AperFunction,NonPlated,NPTH,ComponentDrill
T7C0.0787
; #@! TA.AperFunction,NonPlated,NPTH,ComponentDrill
T8C0.0984
; #@! TA.AperFunction,NonPlated,NPTH,ComponentDrill
T9C0.1063
; #@! TA.AperFunction,NonPlated,NPTH,ComponentDrill
T10C0.1570
%
G90
G05
T1
X-6.0792Y3.271
X-5.812Y3.3967
T6
X-5.2812Y1.1761
X-5.0871Y1.9006
X-4.8948Y1.0726
X-4.7508Y0.2576
X-4.7007Y1.7971
X-4.5567Y0.982
X-4.3645Y0.154
X-4.3626Y1.7065
X-4.1704Y0.8785
X-4.0264Y0.0635
X-3.9762Y1.6029
X-3.8323Y0.7879
X-3.64Y-0.0401
X-3.6382Y1.5123
X-3.4459Y0.6844
X-3.4233Y-0.5834
X-3.2518Y1.4088
X-3.2292Y0.141
X-3.0369Y-0.687
X-3.035Y0.8655
X-2.8428Y0.0375
X-2.8409Y1.5899
X-2.6746Y-0.687
X-2.6487Y0.7619
X-2.4805Y0.0375
X-2.4546Y1.4864
X-2.2882Y-0.7905
X-2.2863Y0.7619
X-2.0941Y-0.0661
X-2.0922Y1.4863
X-1.9744Y-0.9717
X-1.9Y0.6584
X-1.7803Y-0.2472
X-1.7059Y1.3828
X-1.588Y-1.0752
X-1.5862Y0.4772
X-1.3939Y-0.3507
X-1.392Y1.2017
X-1.1998Y0.3737
X-1.0931Y-1.3049
X-1.0801Y-0.5319
X-1.0057Y1.0981
X-0.886Y0.1926
X-0.7067Y-1.4084
X-0.6937Y-0.6354
X-0.6919Y0.917
X-0.4996Y0.089
X-0.3055Y0.8135
X0.3054Y0.8135
X0.4996Y0.089
X0.6918Y0.917
X0.6937Y-0.6354
X0.7067Y-1.4084
X0.8859Y0.1926
X1.0056Y1.0981
X1.08Y-0.5319
X1.093Y-1.3049
X1.1997Y0.3737
X1.392Y1.2017
X1.3939Y-0.3507
X1.5861Y0.4772
X1.588Y-1.0752
X1.7058Y1.3828
X1.7802Y-0.2472
X1.8999Y0.6584
X1.9743Y-0.9717
X2.0922Y1.4863
X2.094Y-0.0661
X2.2863Y0.7619
X2.2881Y-0.7905
X2.4545Y1.4864
X2.4804Y0.0375
X2.6486Y0.7619
X2.6745Y-0.687
X2.8409Y1.5899
X2.8427Y0.0375
X3.035Y0.8655
X3.0369Y-0.687
X3.2291Y0.141
X3.2518Y1.4088
X3.4232Y-0.5834
X3.4459Y0.6844
X3.6381Y1.5123
X3.64Y-0.0401
X3.8322Y0.7879
X3.9762Y1.6029
X4.0264Y0.0635
X4.1703Y0.8785
X4.3626Y1.7065
X4.3644Y0.154
X4.5567Y0.982
X4.7006Y1.7971
X4.7508Y0.2576
X4.8948Y1.0726
X5.087Y1.9006
X5.2811Y1.1761
T7
X-5.0394Y1.3055
X-4.8453Y2.0299
X-4.5091Y0.3869
X-4.315Y1.1114
X-4.1209Y1.8358
X-3.7847Y0.1928
X-3.5906Y0.9173
X-3.3964Y1.6417
X-3.1815Y-0.4541
X-2.9874Y0.2704
X-2.7933Y0.9948
X-2.5992Y1.7193
X-2.4328Y-0.5576
X-2.2387Y0.1668
X-2.0446Y0.8913
X-1.8505Y1.6157
X-1.7327Y-0.8423
X-1.5385Y-0.1179
X-1.3444Y0.6066
X-1.1503Y1.331
X-0.8514Y-1.1755
X-0.8384Y-0.4025
X-0.6442Y0.3219
X-0.4501Y1.0464
X0.4501Y1.0463
X0.6442Y0.3219
X0.8383Y-0.4026
X0.8513Y-1.1755
X1.1503Y1.331
X1.3444Y0.6066
X1.5385Y-0.1179
X1.7326Y-0.8423
X1.8504Y1.6157
X2.0446Y0.8912
X2.2387Y0.1668
X2.4328Y-0.5577
X2.5992Y1.7192
X2.7933Y0.9948
X2.9874Y0.2703
X3.1815Y-0.4541
X3.3964Y1.6417
X3.5905Y0.9172
X3.7846Y0.1928
X4.1208Y1.8358
X4.315Y1.1114
X4.5091Y0.3869
X4.8453Y2.0299
X5.0394Y1.3055
T8
X-5.0394Y1.3055
X-4.8453Y2.0299
X-4.5091Y0.3869
X-4.315Y1.1114
X-4.1209Y1.8358
X-3.7847Y0.1928
X-3.5906Y0.9173
X-3.3964Y1.6417
X-3.1815Y-0.4541
X-2.9874Y0.2704
X-2.7933Y0.9948
X-2.5992Y1.7193
X-2.4328Y-0.5576
X-2.2387Y0.1668
X-2.0446Y0.8913
X-1.8505Y1.6157
X-1.7327Y-0.8423
X-1.5385Y-0.1179
X-1.3444Y0.6066
X-1.1503Y1.331
X-0.8514Y-1.1755
X-0.8384Y-0.4025
X-0.6442Y0.3219
X-0.4501Y1.0464
X0.4501Y1.0463
X0.6442Y0.3219
X0.8383Y-0.4026
X0.8513Y-1.1755
X1.1503Y1.331
X1.3444Y0.6066
X1.5385Y-0.1179
X1.7326Y-0.8423
X1.8504Y1.6157
X2.0446Y0.8912
X2.2387Y0.1668
X2.4328Y-0.5577
X2.5992Y1.7192
X2.7933Y0.9948
X2.9874Y0.2703
X3.1815Y-0.4541
X3.3964Y1.6417
X3.5905Y0.9172
X3.7846Y0.1928
X4.1208Y1.8358
X4.315Y1.1114
X4.5091Y0.3869
X4.8453Y2.0299
X5.0394Y1.3055
T9
X-5.088Y1.1244
X-4.8939Y1.8488
X-0.8869Y-0.5836
X-0.6928Y0.1408
X-0.4987Y0.8652
X0.4986Y0.8652
X0.6927Y0.1408
X0.8868Y-0.5837
X4.8938Y1.8488
X5.0879Y1.1244
T10
X-5.088Y1.1244
X-4.8939Y1.8488
X-4.5577Y0.2058
X-4.3635Y0.9303
X-4.1694Y1.6547
X-3.8332Y0.0117
X-3.6391Y0.7361
X-3.445Y1.4606
X-3.2301Y-0.6352
X-3.036Y0.0892
X-2.8419Y0.8137
X-2.6477Y1.5381
X-2.4814Y-0.7388
X-2.2873Y-0.0143
X-2.0932Y0.7101
X-1.899Y1.4346
X-1.7812Y-1.0234
X-1.5871Y-0.299
X-1.393Y0.4255
X-1.1989Y1.1499
X-0.8999Y-1.3566
X-0.8869Y-0.5836
X-0.6928Y0.1408
X-0.4987Y0.8652
X0.4986Y0.8652
X0.6927Y0.1408
X0.8869Y-0.5837
X0.8999Y-1.3566
X1.1988Y1.1499
X1.3929Y0.4255
X1.587Y-0.299
X1.7812Y-1.0234
X1.899Y1.4346
X2.0931Y0.7101
X2.2872Y-0.0143
X2.4813Y-0.7388
X2.6477Y1.5381
X2.8418Y0.8137
X3.0359Y0.0892
X3.23Y-0.6352
X3.4449Y1.4606
X3.6391Y0.7361
X3.8332Y0.0117
X4.1694Y1.6547
X4.3635Y0.9303
X4.5576Y0.2058
X4.8938Y1.8488
X5.0879Y1.1244
T2
G00X-5.0976Y1.2767
M15
G01X-5.0035Y1.2515
M16
G05
G00X-5.0865Y1.3181
M15
G01X-4.9924Y1.2929
M16
G05
G00X-5.0865Y1.3181
M15
G01X-4.9924Y1.2929
M16
G05
G00X-5.0754Y1.3595
M15
G01X-4.9813Y1.3342
M16
G05
G00X-4.8094Y1.976
M15
G01X-4.9035Y2.0012
M16
G05
G00X-4.7983Y2.0173
M15
G01X-4.8924Y2.0425
M16
G05
G00X-4.7983Y2.0173
M15
G01X-4.8924Y2.0425
M16
G05
G00X-4.7872Y2.0587
M15
G01X-4.8813Y2.0839
M16
G05
G00X-4.4731Y0.333
M15
G01X-4.5673Y0.3582
M16
G05
G00X-4.4621Y0.3743
M15
G01X-4.5562Y0.3995
M16
G05
G00X-4.4621Y0.3743
M15
G01X-4.5562Y0.3995
M16
G05
G00X-4.451Y0.4157
M15
G01X-4.5451Y0.4409
M16
G05
G00X-4.3731Y1.0826
M15
G01X-4.279Y1.0574
M16
G05
G00X-4.3621Y1.124
M15
G01X-4.2679Y1.0988
M16
G05
G00X-4.3621Y1.124
M15
G01X-4.2679Y1.0988
M16
G05
G00X-4.351Y1.1653
M15
G01X-4.2569Y1.1401
M16
G05
G00X-4.0849Y1.7819
M15
G01X-4.179Y1.8071
M16
G05
G00X-4.0738Y1.8232
M15
G01X-4.1679Y1.8484
M16
G05
G00X-4.0738Y1.8232
M15
G01X-4.1679Y1.8484
M16
G05
G00X-4.0627Y1.8646
M15
G01X-4.1569Y1.8898
M16
G05
G00X-3.7487Y0.1389
M15
G01X-3.8428Y0.1641
M16
G05
G00X-3.7376Y0.1802
M15
G01X-3.8317Y0.2054
M16
G05
G00X-3.7376Y0.1802
M15
G01X-3.8317Y0.2054
M16
G05
G00X-3.7265Y0.2216
M15
G01X-3.8207Y0.2468
M16
G05
G00X-3.6487Y0.8885
M15
G01X-3.5546Y0.8633
M16
G05
G00X-3.6376Y0.9299
M15
G01X-3.5435Y0.9047
M16
G05
G00X-3.6376Y0.9299
M15
G01X-3.5435Y0.9047
M16
G05
G00X-3.6265Y0.9712
M15
G01X-3.5324Y0.946
M16
G05
G00X-3.3605Y1.5877
M15
G01X-3.4546Y1.613
M16
G05
G00X-3.3494Y1.6291
M15
G01X-3.4435Y1.6543
M16
G05
G00X-3.3494Y1.6291
M15
G01X-3.4435Y1.6543
M16
G05
G00X-3.3383Y1.6705
M15
G01X-3.4324Y1.6957
M16
G05
G00X-3.2397Y-0.4828
M15
G01X-3.1456Y-0.508
M16
G05
G00X-3.2286Y-0.4415
M15
G01X-3.1345Y-0.4667
M16
G05
G00X-3.2286Y-0.4415
M15
G01X-3.1345Y-0.4667
M16
G05
G00X-3.2175Y-0.4001
M15
G01X-3.1234Y-0.4253
M16
G05
G00X-2.9515Y0.2164
M15
G01X-3.0456Y0.2416
M16
G05
G00X-2.9404Y0.2578
M15
G01X-3.0345Y0.283
M16
G05
G00X-2.9404Y0.2578
M15
G01X-3.0345Y0.283
M16
G05
G00X-2.9293Y0.2991
M15
G01X-3.0234Y0.3243
M16
G05
G00X-2.8515Y0.9661
M15
G01X-2.7573Y0.9408
M16
G05
G00X-2.8404Y1.0074
M15
G01X-2.7463Y0.9822
M16
G05
G00X-2.8404Y1.0074
M15
G01X-2.7463Y0.9822
M16
G05
G00X-2.8293Y1.0488
M15
G01X-2.7352Y1.0236
M16
G05
G00X-2.5632Y1.6653
M15
G01X-2.6573Y1.6905
M16
G05
G00X-2.5521Y1.7067
M15
G01X-2.6463Y1.7319
M16
G05
G00X-2.5521Y1.7067
M15
G01X-2.6463Y1.7319
M16
G05
G00X-2.5411Y1.748
M15
G01X-2.6352Y1.7732
M16
G05
G00X-2.491Y-0.5864
M15
G01X-2.3969Y-0.6116
M16
G05
G00X-2.4799Y-0.545
M15
G01X-2.3858Y-0.5702
M16
G05
G00X-2.4799Y-0.545
M15
G01X-2.3858Y-0.5702
M16
G05
G00X-2.4688Y-0.5037
M15
G01X-2.3747Y-0.5289
M16
G05
G00X-2.2027Y0.1128
M15
G01X-2.2969Y0.1381
M16
G05
G00X-2.1917Y0.1542
M15
G01X-2.2858Y0.1794
M16
G05
G00X-2.1917Y0.1542
M15
G01X-2.2858Y0.1794
M16
G05
G00X-2.1806Y0.1956
M15
G01X-2.2747Y0.2208
M16
G05
G00X-2.1028Y0.8625
M15
G01X-2.0086Y0.8373
M16
G05
G00X-2.0917Y0.9039
M15
G01X-1.9976Y0.8786
M16
G05
G00X-2.0917Y0.9039
M15
G01X-1.9976Y0.8786
M16
G05
G00X-2.0806Y0.9452
M15
G01X-1.9865Y0.92
M16
G05
G00X-1.8145Y1.5617
M15
G01X-1.9087Y1.5869
M16
G05
G00X-1.8035Y1.6031
M15
G01X-1.8976Y1.6283
M16
G05
G00X-1.8035Y1.6031
M15
G01X-1.8976Y1.6283
M16
G05
G00X-1.7924Y1.6444
M15
G01X-1.8865Y1.6697
M16
G05
G00X-1.7908Y-0.871
M15
G01X-1.6967Y-0.8963
M16
G05
G00X-1.7797Y-0.8297
M15
G01X-1.6856Y-0.8549
M16
G05
G00X-1.7797Y-0.8297
M15
G01X-1.6856Y-0.8549
M16
G05
G00X-1.7686Y-0.7883
M15
G01X-1.6745Y-0.8136
M16
G05
G00X-1.5026Y-0.1718
M15
G01X-1.5967Y-0.1466
M16
G05
G00X-1.4915Y-0.1305
M15
G01X-1.5856Y-0.1052
M16
G05
G00X-1.4915Y-0.1305
M15
G01X-1.5856Y-0.1052
M16
G05
G00X-1.4804Y-0.0891
M15
G01X-1.5745Y-0.0639
M16
G05
G00X-1.4026Y0.5778
M15
G01X-1.3085Y0.5526
M16
G05
G00X-1.3915Y0.6192
M15
G01X-1.2974Y0.594
M16
G05
G00X-1.3915Y0.6192
M15
G01X-1.2974Y0.594
M16
G05
G00X-1.3804Y0.6606
M15
G01X-1.2863Y0.6353
M16
G05
G00X-1.1143Y1.2771
M15
G01X-1.2085Y1.3023
M16
G05
G00X-1.1033Y1.3184
M15
G01X-1.1974Y1.3436
M16
G05
G00X-1.1033Y1.3184
M15
G01X-1.1974Y1.3436
M16
G05
G00X-1.0922Y1.3598
M15
G01X-1.1863Y1.385
M16
G05
G00X-0.9095Y-1.2042
M15
G01X-0.8154Y-1.2295
M16
G05
G00X-0.8984Y-1.1629
M15
G01X-0.8043Y-1.1881
M16
G05
G00X-0.8984Y-1.1629
M15
G01X-0.8043Y-1.1881
M16
G05
G00X-0.8024Y-0.4565
M15
G01X-0.8965Y-0.4313
M16
G05
G00X-0.8873Y-1.1215
M15
G01X-0.7932Y-1.1468
M16
G05
G00X-0.7913Y-0.4151
M15
G01X-0.8854Y-0.3899
M16
G05
G00X-0.7913Y-0.4151
M15
G01X-0.8854Y-0.3899
M16
G05
G00X-0.7802Y-0.3738
M15
G01X-0.8743Y-0.3486
M16
G05
G00X-0.7024Y0.2932
M15
G01X-0.6083Y0.268
M16
G05
G00X-0.6913Y0.3345
M15
G01X-0.5972Y0.3093
M16
G05
G00X-0.6913Y0.3345
M15
G01X-0.5972Y0.3093
M16
G05
G00X-0.6802Y0.3759
M15
G01X-0.5861Y0.3507
M16
G05
G00X-0.4142Y0.9924
M15
G01X-0.5083Y1.0176
M16
G05
G00X-0.4031Y1.0338
M15
G01X-0.4972Y1.059
M16
G05
G00X-0.4031Y1.0338
M15
G01X-0.4972Y1.059
M16
G05
G00X-0.392Y1.0751
M15
G01X-0.4861Y1.1003
M16
G05
G00X0.4861Y1.1003
M15
G01X0.3919Y1.0751
M16
G05
G00X0.4971Y1.0589
M15
G01X0.403Y1.0337
M16
G05
G00X0.4971Y1.0589
M15
G01X0.403Y1.0337
M16
G05
G00X0.5082Y1.0176
M15
G01X0.4141Y0.9924
M16
G05
G00X0.586Y0.3506
M15
G01X0.6802Y0.3759
M16
G05
G00X0.5971Y0.3093
M15
G01X0.6913Y0.3345
M16
G05
G00X0.5971Y0.3093
M15
G01X0.6913Y0.3345
M16
G05
G00X0.6082Y0.2679
M15
G01X0.7023Y0.2931
M16
G05
G00X0.8743Y-0.3486
M15
G01X0.7802Y-0.3738
M16
G05
G00X0.8854Y-0.3899
M15
G01X0.7912Y-0.4152
M16
G05
G00X0.8854Y-0.3899
M15
G01X0.7912Y-0.4152
M16
G05
G00X0.7932Y-1.1468
M15
G01X0.8873Y-1.1216
M16
G05
G00X0.8964Y-0.4313
M15
G01X0.8023Y-0.4565
M16
G05
G00X0.8042Y-1.1881
M15
G01X0.8984Y-1.1629
M16
G05
G00X0.8042Y-1.1881
M15
G01X0.8984Y-1.1629
M16
G05
G00X0.8153Y-1.2295
M15
G01X0.9095Y-1.2043
M16
G05
G00X1.1862Y1.385
M15
G01X1.0921Y1.3598
M16
G05
G00X1.1973Y1.3436
M15
G01X1.1032Y1.3184
M16
G05
G00X1.1973Y1.3436
M15
G01X1.1032Y1.3184
M16
G05
G00X1.2084Y1.3023
M15
G01X1.1143Y1.277
M16
G05
G00X1.2862Y0.6353
M15
G01X1.3804Y0.6605
M16
G05
G00X1.2973Y0.5939
M15
G01X1.3914Y0.6192
M16
G05
G00X1.2973Y0.5939
M15
G01X1.3914Y0.6192
M16
G05
G00X1.3084Y0.5526
M15
G01X1.4025Y0.5778
M16
G05
G00X1.5745Y-0.0639
M15
G01X1.4803Y-0.0891
M16
G05
G00X1.5855Y-0.1053
M15
G01X1.4914Y-0.1305
M16
G05
G00X1.5855Y-0.1053
M15
G01X1.4914Y-0.1305
M16
G05
G00X1.5966Y-0.1466
M15
G01X1.5025Y-0.1719
M16
G05
G00X1.6745Y-0.8136
M15
G01X1.7686Y-0.7884
M16
G05
G00X1.6855Y-0.8549
M15
G01X1.7797Y-0.8297
M16
G05
G00X1.6855Y-0.8549
M15
G01X1.7797Y-0.8297
M16
G05
G00X1.6966Y-0.8963
M15
G01X1.7907Y-0.8711
M16
G05
G00X1.8864Y1.6696
M15
G01X1.7923Y1.6444
M16
G05
G00X1.8975Y1.6283
M15
G01X1.8034Y1.6031
M16
G05
G00X1.8975Y1.6283
M15
G01X1.8034Y1.6031
M16
G05
G00X1.9086Y1.5869
M15
G01X1.8145Y1.5617
M16
G05
G00X1.9864Y0.92
M15
G01X2.0805Y0.9452
M16
G05
G00X1.9975Y0.8786
M15
G01X2.0916Y0.9038
M16
G05
G00X1.9975Y0.8786
M15
G01X2.0916Y0.9038
M16
G05
G00X2.0086Y0.8373
M15
G01X2.1027Y0.8625
M16
G05
G00X2.2746Y0.2207
M15
G01X2.1805Y0.1955
M16
G05
G00X2.2857Y0.1794
M15
G01X2.1916Y0.1542
M16
G05
G00X2.2857Y0.1794
M15
G01X2.1916Y0.1542
M16
G05
G00X2.2968Y0.138
M15
G01X2.2027Y0.1128
M16
G05
G00X2.3746Y-0.5289
M15
G01X2.4688Y-0.5037
M16
G05
G00X2.3857Y-0.5703
M15
G01X2.4798Y-0.5451
M16
G05
G00X2.3857Y-0.5703
M15
G01X2.4798Y-0.5451
M16
G05
G00X2.3968Y-0.6116
M15
G01X2.4909Y-0.5864
M16
G05
G00X2.6351Y1.7732
M15
G01X2.541Y1.748
M16
G05
G00X2.6462Y1.7318
M15
G01X2.5521Y1.7066
M16
G05
G00X2.6462Y1.7318
M15
G01X2.5521Y1.7066
M16
G05
G00X2.6573Y1.6905
M15
G01X2.5632Y1.6653
M16
G05
G00X2.7351Y1.0235
M15
G01X2.8292Y1.0488
M16
G05
G00X2.7462Y0.9822
M15
G01X2.8403Y1.0074
M16
G05
G00X2.7462Y0.9822
M15
G01X2.8403Y1.0074
M16
G05
G00X2.7573Y0.9408
M15
G01X2.8514Y0.966
M16
G05
G00X3.0234Y0.3243
M15
G01X2.9292Y0.2991
M16
G05
G00X3.0344Y0.283
M15
G01X2.9403Y0.2577
M16
G05
G00X3.0344Y0.283
M15
G01X2.9403Y0.2577
M16
G05
G00X3.0455Y0.2416
M15
G01X2.9514Y0.2164
M16
G05
G00X3.1234Y-0.4254
M15
G01X3.2175Y-0.4001
M16
G05
G00X3.1344Y-0.4667
M15
G01X3.2286Y-0.4415
M16
G05
G00X3.1344Y-0.4667
M15
G01X3.2286Y-0.4415
M16
G05
G00X3.1455Y-0.5081
M15
G01X3.2396Y-0.4829
M16
G05
G00X3.4324Y1.6956
M15
G01X3.3382Y1.6704
M16
G05
G00X3.4434Y1.6543
M15
G01X3.3493Y1.6291
M16
G05
G00X3.4434Y1.6543
M15
G01X3.3493Y1.6291
M16
G05
G00X3.4545Y1.6129
M15
G01X3.3604Y1.5877
M16
G05
G00X3.5324Y0.946
M15
G01X3.6265Y0.9712
M16
G05
G00X3.5434Y0.9046
M15
G01X3.6376Y0.9298
M16
G05
G00X3.5434Y0.9046
M15
G01X3.6376Y0.9298
M16
G05
G00X3.5545Y0.8633
M15
G01X3.6486Y0.8885
M16
G05
G00X3.8206Y0.2468
M15
G01X3.7265Y0.2215
M16
G05
G00X3.8317Y0.2054
M15
G01X3.7376Y0.1802
M16
G05
G00X3.8317Y0.2054
M15
G01X3.7376Y0.1802
M16
G05
G00X3.8428Y0.164
M15
G01X3.7486Y0.1388
M16
G05
G00X4.1568Y1.8898
M15
G01X4.0627Y1.8645
M16
G05
G00X4.1679Y1.8484
M15
G01X4.0738Y1.8232
M16
G05
G00X4.1679Y1.8484
M15
G01X4.0738Y1.8232
M16
G05
G00X4.179Y1.8071
M15
G01X4.0849Y1.7818
M16
G05
G00X4.2568Y1.1401
M15
G01X4.3509Y1.1653
M16
G05
G00X4.2679Y1.0987
M15
G01X4.362Y1.124
M16
G05
G00X4.2679Y1.0987
M15
G01X4.362Y1.124
M16
G05
G00X4.279Y1.0574
M15
G01X4.3731Y1.0826
M16
G05
G00X4.545Y0.4409
M15
G01X4.4509Y0.4157
M16
G05
G00X4.5561Y0.3995
M15
G01X4.462Y0.3743
M16
G05
G00X4.5561Y0.3995
M15
G01X4.462Y0.3743
M16
G05
G00X4.5672Y0.3582
M15
G01X4.4731Y0.3329
M16
G05
G00X4.8813Y2.0839
M15
G01X4.7871Y2.0587
M16
G05
G00X4.8923Y2.0425
M15
G01X4.7982Y2.0173
M16
G05
G00X4.8923Y2.0425
M15
G01X4.7982Y2.0173
M16
G05
G00X4.9034Y2.0012
M15
G01X4.8093Y1.9759
M16
G05
G00X4.9813Y1.3342
M15
G01X5.0754Y1.3594
M16
G05
G00X4.9923Y1.2929
M15
G01X5.0865Y1.3181
M16
G05
G00X4.9923Y1.2929
M15
G01X5.0865Y1.3181
M16
G05
G00X5.0034Y1.2515
M15
G01X5.0975Y1.2767
M16
G05
T3
G00X-5.0737Y1.3717
M15
G01X-5.1022Y1.2652
M16
G05
G00X-4.9767Y1.3457
M15
G01X-5.0052Y1.2393
M16
G05
G00X-4.9081Y1.9897
M15
G01X-4.8796Y2.0962
M16
G05
G00X-4.8111Y1.9637
M15
G01X-4.7826Y2.0702
M16
G05
G00X-4.5719Y0.3467
M15
G01X-4.5433Y0.4532
M16
G05
G00X-4.4749Y0.3207
M15
G01X-4.4464Y0.4272
M16
G05
G00X-4.3492Y1.1776
M15
G01X-4.3778Y1.0711
M16
G05
G00X-4.2523Y1.1516
M15
G01X-4.2808Y1.0451
M16
G05
G00X-4.1836Y1.7956
M15
G01X-4.1551Y1.9021
M16
G05
G00X-4.0867Y1.7696
M15
G01X-4.0581Y1.8761
M16
G05
G00X-3.8474Y0.1526
M15
G01X-3.8189Y0.259
M16
G05
G00X-3.7505Y0.1266
M15
G01X-3.7219Y0.2331
M16
G05
G00X-3.6248Y0.9835
M15
G01X-3.6533Y0.877
M16
G05
G00X-3.5278Y0.9575
M15
G01X-3.5563Y0.851
M16
G05
G00X-3.4592Y1.6015
M15
G01X-3.4307Y1.7079
M16
G05
G00X-3.3622Y1.5755
M15
G01X-3.3337Y1.682
M16
G05
G00X-3.2158Y-0.3878
M15
G01X-3.2443Y-0.4943
M16
G05
G00X-3.1188Y-0.4138
M15
G01X-3.1473Y-0.5203
M16
G05
G00X-3.0502Y0.2301
M15
G01X-3.0217Y0.3366
M16
G05
G00X-2.9532Y0.2041
M15
G01X-2.9247Y0.3106
M16
G05
G00X-2.8275Y1.061
M15
G01X-2.8561Y0.9546
M16
G05
G00X-2.7306Y1.0351
M15
G01X-2.7591Y0.9286
M16
G05
G00X-2.662Y1.679
M15
G01X-2.6334Y1.7855
M16
G05
G00X-2.565Y1.653
M15
G01X-2.5365Y1.7595
M16
G05
G00X-2.4671Y-0.4914
M15
G01X-2.4956Y-0.5979
M16
G05
G00X-2.3701Y-0.5174
M15
G01X-2.3986Y-0.6239
M16
G05
G00X-2.3015Y0.1266
M15
G01X-2.2729Y0.233
M16
G05
G00X-2.2045Y0.1006
M15
G01X-2.176Y0.2071
M16
G05
G00X-2.0788Y0.9575
M15
G01X-2.1074Y0.851
M16
G05
G00X-1.9819Y0.9315
M15
G01X-2.0104Y0.825
M16
G05
G00X-1.9133Y1.5754
M15
G01X-1.8847Y1.6819
M16
G05
G00X-1.8163Y1.5495
M15
G01X-1.7878Y1.6559
M16
G05
G00X-1.7669Y-0.7761
M15
G01X-1.7954Y-0.8825
M16
G05
G00X-1.6699Y-0.8021
M15
G01X-1.6984Y-0.9085
M16
G05
G00X-1.6013Y-0.1581
M15
G01X-1.5728Y-0.0516
M16
G05
G00X-1.5043Y-0.1841
M15
G01X-1.4758Y-0.0776
M16
G05
G00X-1.3787Y0.6728
M15
G01X-1.4072Y0.5663
M16
G05
G00X-1.2817Y0.6468
M15
G01X-1.3102Y0.5404
M16
G05
G00X-1.2131Y1.2908
M15
G01X-1.1845Y1.3973
M16
G05
G00X-1.1161Y1.2648
M15
G01X-1.0876Y1.3713
M16
G05
G00X-0.8856Y-1.1093
M15
G01X-0.9141Y-1.2158
M16
G05
G00X-0.9011Y-0.4428
M15
G01X-0.8726Y-0.3363
M16
G05
G00X-0.7886Y-1.1353
M15
G01X-0.8171Y-1.2417
M16
G05
G00X-0.8041Y-0.4688
M15
G01X-0.7756Y-0.3623
M16
G05
G00X-0.6785Y0.3881
M15
G01X-0.707Y0.2817
M16
G05
G00X-0.5815Y0.3622
M15
G01X-0.61Y0.2557
M16
G05
G00X-0.5129Y1.0061
M15
G01X-0.4844Y1.1126
M16
G05
G00X-0.4159Y0.9801
M15
G01X-0.3874Y1.0866
M16
G05
G00X0.4159Y0.9801
M15
G01X0.3873Y1.0866
M16
G05
G00X0.5128Y1.0061
M15
G01X0.4843Y1.1126
M16
G05
G00X0.5814Y0.3621
M15
G01X0.61Y0.2557
M16
G05
G00X0.6784Y0.3881
M15
G01X0.7069Y0.2816
M16
G05
G00X0.8041Y-0.4688
M15
G01X0.7756Y-0.3623
M16
G05
G00X0.7886Y-1.1353
M15
G01X0.8171Y-1.2418
M16
G05
G00X0.9011Y-0.4428
M15
G01X0.8725Y-0.3363
M16
G05
G00X0.8855Y-1.1093
M15
G01X0.9141Y-1.2158
M16
G05
G00X1.116Y1.2648
M15
G01X1.0875Y1.3713
M16
G05
G00X1.213Y1.2908
M15
G01X1.1845Y1.3972
M16
G05
G00X1.2816Y0.6468
M15
G01X1.3102Y0.5403
M16
G05
G00X1.3786Y0.6728
M15
G01X1.4071Y0.5663
M16
G05
G00X1.5043Y-0.1841
M15
G01X1.4757Y-0.0776
M16
G05
G00X1.6012Y-0.1581
M15
G01X1.5727Y-0.0517
M16
G05
G00X1.6698Y-0.8021
M15
G01X1.6984Y-0.9086
M16
G05
G00X1.7668Y-0.7761
M15
G01X1.7954Y-0.8826
M16
G05
G00X1.8162Y1.5494
M15
G01X1.7877Y1.6559
M16
G05
G00X1.9132Y1.5754
M15
G01X1.8847Y1.6819
M16
G05
G00X1.9818Y0.9315
M15
G01X2.0103Y0.825
M16
G05
G00X2.0788Y0.9575
M15
G01X2.1073Y0.851
M16
G05
G00X2.2044Y0.1006
M15
G01X2.1759Y0.207
M16
G05
G00X2.3014Y0.1265
M15
G01X2.2729Y0.233
M16
G05
G00X2.37Y-0.5174
M15
G01X2.3986Y-0.6239
M16
G05
G00X2.467Y-0.4914
M15
G01X2.4955Y-0.5979
M16
G05
G00X2.5649Y1.653
M15
G01X2.5364Y1.7595
M16
G05
G00X2.6619Y1.679
M15
G01X2.6334Y1.7855
M16
G05
G00X2.7305Y1.035
M15
G01X2.759Y0.9286
M16
G05
G00X2.8275Y1.061
M15
G01X2.856Y0.9545
M16
G05
G00X2.9532Y0.2041
M15
G01X2.9246Y0.3106
M16
G05
G00X3.0501Y0.2301
M15
G01X3.0216Y0.3366
M16
G05
G00X3.1187Y-0.4139
M15
G01X3.1473Y-0.5203
M16
G05
G00X3.2157Y-0.3879
M15
G01X3.2442Y-0.4944
M16
G05
G00X3.3622Y1.5755
M15
G01X3.3336Y1.6819
M16
G05
G00X3.4591Y1.6014
M15
G01X3.4306Y1.7079
M16
G05
G00X3.5278Y0.9575
M15
G01X3.5563Y0.851
M16
G05
G00X3.6247Y0.9835
M15
G01X3.6533Y0.877
M16
G05
G00X3.7504Y0.1266
M15
G01X3.7219Y0.233
M16
G05
G00X3.8474Y0.1525
M15
G01X3.8188Y0.259
M16
G05
G00X4.0866Y1.7696
M15
G01X4.0581Y1.876
M16
G05
G00X4.1836Y1.7955
M15
G01X4.1551Y1.902
M16
G05
G00X4.2522Y1.1516
M15
G01X4.2807Y1.0451
M16
G05
G00X4.3492Y1.1776
M15
G01X4.3777Y1.0711
M16
G05
G00X4.4748Y0.3207
M15
G01X4.4463Y0.4272
M16
G05
G00X4.5718Y0.3467
M15
G01X4.5433Y0.4531
M16
G05
G00X4.8111Y1.9637
M15
G01X4.7825Y2.0702
M16
G05
G00X4.908Y1.9897
M15
G01X4.8795Y2.0961
M16
G05
G00X4.9766Y1.3457
M15
G01X5.0052Y1.2392
M16
G05
G00X5.0736Y1.3717
M15
G01X5.1021Y1.2652
M16
G05
T4
G00X-6.2377Y3.5662
M15
G01X-6.117Y3.3097
M16
G05
G00X-6.1207Y3.3084
M15
G01X-5.8144Y3.4526
M16
G05
G00X-6.0535Y3.3227
M15
G01X-5.8682Y3.4099
M16
G05
G00X-5.9385Y3.7071
M15
G01X-5.8178Y3.4506
M16
G05
T5
G00X-5.3367Y1.1543
M15
G01X-5.3184Y1.2228
M16
G05
G00X-5.1426Y1.8788
M15
G01X-5.1243Y1.9472
M16
G05
G00X-4.8576Y1.0259
M15
G01X-4.8392Y1.0944
M16
G05
G00X-4.6635Y1.7504
M15
G01X-4.6451Y1.8188
M16
G05
G00X4.6634Y1.7504
M15
G01X4.6451Y1.8188
M16
G05
G00X4.8575Y1.0259
M15
G01X4.8392Y1.0944
M16
G05
G00X5.1426Y1.8788
M15
G01X5.1242Y1.9472
M16
G05
G00X5.3367Y1.1543
M15
G01X5.3184Y1.2228
M16
G05
M30
