  0
SECTION
  2
HEADER
  9
$ANGBASE
  50
0.0
  9
$ANGDIR
  70
  1
  9
$MEASUREMENT
  70
0
  0
ENDSEC
  0
SECTION
  2
TABLES
  0
TABLE
  2
LTYPE
  70
1
  0
LTYPE
  2
CONTINUOUS
  70
0
  3
Solid line
  72
65
  73
0
  40
0.0
  0
ENDTAB
  0
TABLE
  2
STYLE
  70
4
  0
STYLE
  2
KICAD
  70
0
  40
0
  41
1
  42
1
  50
0
  71
0
  3
isocp.shx
  0
STYLE
  2
KICADB
  70
0
  40
0
  41
1
  42
1
  50
0
  71
0
  3
isocp.shx
  0
STYLE
  2
KICADI
  70
0
  40
0
  41
1
  42
1
  50
15
  71
0
  3
isocp.shx
  0
STYLE
  2
KICADBI
  70
0
  40
0
  41
1
  42
1
  50
15
  71
0
  3
isocp.shx
  0
ENDTAB
  0
TABLE
  2
LAYER
  70
30
  0
LAYER
  2
BLACK
  70
0
  62
7
  6
CONTINUOUS
  0
LAYER
  2
GRAY1
  70
0
  62
251
  6
CONTINUOUS
  0
LAYER
  2
GRAY2
  70
0
  62
8
  6
CONTINUOUS
  0
LAYER
  2
GRAY3
  70
0
  62
9
  6
CONTINUOUS
  0
LAYER
  2
WHITE
  70
0
  62
7
  6
CONTINUOUS
  0
LAYER
  2
LYELLOW
  70
0
  62
51
  6
CONTINUOUS
  0
LAYER
  2
BLUE1
  70
0
  62
178
  6
CONTINUOUS
  0
LAYER
  2
GREEN1
  70
0
  62
98
  6
CONTINUOUS
  0
LAYER
  2
CYAN1
  70
0
  62
138
  6
CONTINUOUS
  0
LAYER
  2
RED1
  70
0
  62
18
  6
CONTINUOUS
  0
LAYER
  2
MAGENTA1
  70
0
  62
228
  6
CONTINUOUS
  0
LAYER
  2
BROWN1
  70
0
  62
58
  6
CONTINUOUS
  0
LAYER
  2
BLUE2
  70
0
  62
5
  6
CONTINUOUS
  0
LAYER
  2
GREEN2
  70
0
  62
3
  6
CONTINUOUS
  0
LAYER
  2
CYAN2
  70
0
  62
4
  6
CONTINUOUS
  0
LAYER
  2
RED2
  70
0
  62
1
  6
CONTINUOUS
  0
LAYER
  2
MAGENTA2
  70
0
  62
6
  6
CONTINUOUS
  0
LAYER
  2
BROWN2
  70
0
  62
54
  6
CONTINUOUS
  0
LAYER
  2
BLUE3
  70
0
  62
171
  6
CONTINUOUS
  0
LAYER
  2
GREEN3
  70
0
  62
91
  6
CONTINUOUS
  0
LAYER
  2
CYAN3
  70
0
  62
131
  6
CONTINUOUS
  0
LAYER
  2
RED3
  70
0
  62
11
  6
CONTINUOUS
  0
LAYER
  2
MAGENTA3
  70
0
  62
221
  6
CONTINUOUS
  0
LAYER
  2
YELLOW3
  70
0
  62
2
  6
CONTINUOUS
  0
LAYER
  2
BLUE4
  70
0
  62
5
  6
CONTINUOUS
  0
LAYER
  2
GREEN4
  70
0
  62
3
  6
CONTINUOUS
  0
LAYER
  2
CYAN4
  70
0
  62
4
  6
CONTINUOUS
  0
LAYER
  2
RED4
  70
0
  62
1
  6
CONTINUOUS
  0
LAYER
  2
MAGENTA4
  70
0
  62
6
  6
CONTINUOUS
  0
LAYER
  2
YELLOW4
  70
0
  62
2
  6
CONTINUOUS
  0
ENDTAB
  0
ENDSEC
  0
SECTION
  2
ENTITIES
0
LINE
8
Black
10
200.982
20
-173.717
11
200.299
21
-173.594
0
LINE
8
Black
10
200.299
20
-173.594
11
200.293
21
-173.591
0
LINE
8
Black
10
200.293
20
-173.591
11
200.286
21
-173.59
0
LINE
8
Black
10
200.286
20
-173.59
11
199.976
21
-173.444
0
LINE
8
Black
10
199.976
20
-173.444
11
199.975
21
-173.443
0
LINE
8
Black
10
199.975
20
-173.443
11
199.973
21
-173.442
0
LINE
8
Black
10
199.973
20
-173.442
11
137.463
21
-137.239
0
LINE
8
Black
10
137.463
20
-137.239
11
137.152
21
-137.094
0
LINE
8
Black
10
137.152
20
-137.094
11
136.479
21
-136.975
0
LINE
8
Black
10
136.479
20
-136.975
11
66.575
21
-136.975
0
LINE
8
Black
10
66.575
20
-136.975
11
66.5707
21
-136.974
0
LINE
8
Black
10
66.5707
20
-136.974
11
66.5663
21
-136.974
0
LINE
8
Black
10
66.5663
20
-136.974
11
65.8823
21
-136.854
0
LINE
8
Black
10
65.8823
20
-136.854
11
65.8823
21
-136.854
0
LINE
8
Black
10
65.8823
20
-136.854
11
65.8741
21
-136.851
0
LINE
8
Black
10
65.8741
20
-136.851
11
65.866
21
-136.848
0
LINE
8
Black
10
65.866
20
-136.848
11
65.866
21
-136.848
0
LINE
8
Black
10
65.866
20
-136.848
11
65.2644
21
-136.5
0
LINE
8
Black
10
65.2644
20
-136.5
11
65.2511
21
-136.489
0
LINE
8
Black
10
65.2511
20
-136.489
11
65.2511
21
-136.489
0
LINE
8
Black
10
65.2511
20
-136.489
11
64.8046
21
-135.957
0
LINE
8
Black
10
64.8046
20
-135.957
11
64.8046
21
-135.957
0
LINE
8
Black
10
64.8046
20
-135.957
11
64.796
21
-135.942
0
LINE
8
Black
10
64.796
20
-135.942
11
64.5584
21
-135.289
0
LINE
8
Black
10
64.5584
20
-135.289
11
64.5573
21
-135.283
0
LINE
8
Black
10
64.5573
20
-135.283
11
64.5556
21
-135.277
0
LINE
8
Black
10
64.5556
20
-135.277
11
64.5252
21
-134.929
0
LINE
8
Black
10
64.5252
20
-134.929
11
64.5254
21
-134.927
0
LINE
8
Black
10
64.5254
20
-134.927
11
64.525
21
-134.925
0
LINE
8
Black
10
64.525
20
-134.925
11
64.525
21
-43.325
0
LINE
8
Black
10
64.525
20
-43.325
11
64.5258
21
-43.3207
0
LINE
8
Black
10
64.5258
20
-43.3207
11
64.5258
21
-43.3163
0
LINE
8
Black
10
64.5258
20
-43.3163
11
64.6464
21
-42.6323
0
LINE
8
Black
10
64.6464
20
-42.6323
11
64.6464
21
-42.6323
0
LINE
8
Black
10
64.6464
20
-42.6323
11
64.6498
21
-42.6229
0
LINE
8
Black
10
64.6498
20
-42.6229
11
64.6523
21
-42.616
0
LINE
8
Black
10
64.6523
20
-42.616
11
64.6523
21
-42.616
0
LINE
8
Black
10
64.6523
20
-42.616
11
64.9996
21
-42.0144
0
LINE
8
Black
10
64.9996
20
-42.0144
11
64.9996
21
-42.0144
0
LINE
8
Black
10
64.9996
20
-42.0144
11
65.0035
21
-42.0097
0
LINE
8
Black
10
65.0035
20
-42.0097
11
65.0108
21
-42.0011
0
LINE
8
Black
10
65.0108
20
-42.0011
11
65.0108
21
-42.0011
0
LINE
8
Black
10
65.0108
20
-42.0011
11
65.5429
21
-41.5547
0
LINE
8
Black
10
65.5429
20
-41.5547
11
65.5429
21
-41.5546
0
LINE
8
Black
10
65.5429
20
-41.5546
11
65.5579
21
-41.546
0
LINE
8
Black
10
65.5579
20
-41.546
11
66.2106
21
-41.3084
0
LINE
8
Black
10
66.2106
20
-41.3084
11
66.217
21
-41.3073
0
LINE
8
Black
10
66.217
20
-41.3073
11
66.2233
21
-41.3056
0
LINE
8
Black
10
66.2233
20
-41.3056
11
66.5706
21
-41.2752
0
LINE
8
Black
10
66.5706
20
-41.2752
11
66.5728
21
-41.2754
0
LINE
8
Black
10
66.5728
20
-41.2754
11
66.575
21
-41.275
0
LINE
8
Black
10
66.575
20
-41.275
11
202.925
21
-41.275
0
LINE
8
Black
10
202.925
20
-41.275
11
202.929
21
-41.2758
0
LINE
8
Black
10
202.929
20
-41.2758
11
202.934
21
-41.2758
0
LINE
8
Black
10
202.934
20
-41.2758
11
202.938
21
-41.2773
0
LINE
8
Black
10
202.938
20
-41.2773
11
202.942
21
-41.278
0
LINE
8
Black
10
202.942
20
-41.278
11
202.946
21
-41.2802
0
LINE
8
Black
10
202.946
20
-41.2802
11
202.95
21
-41.2817
0
LINE
8
Black
10
202.95
20
-41.2817
11
202.953
21
-41.2845
0
LINE
8
Black
10
202.953
20
-41.2845
11
202.957
21
-41.2867
0
LINE
8
Black
10
202.957
20
-41.2867
11
202.96
21
-41.29
0
LINE
8
Black
10
202.96
20
-41.29
11
202.963
21
-41.2929
0
LINE
8
Black
10
202.963
20
-41.2929
11
202.965
21
-41.2966
0
LINE
8
Black
10
202.965
20
-41.2966
11
202.968
21
-41.3
0
LINE
8
Black
10
202.968
20
-41.3
11
202.97
21
-41.3041
0
LINE
8
Black
10
202.97
20
-41.3041
11
202.972
21
-41.3079
0
LINE
8
Black
10
202.972
20
-41.3079
11
202.973
21
-41.3122
0
LINE
8
Black
10
202.973
20
-41.3122
11
202.974
21
-41.3163
0
LINE
8
Black
10
202.974
20
-41.3163
11
202.974
21
-41.3207
0
LINE
8
Black
10
202.974
20
-41.3207
11
202.975
21
-41.325
0
LINE
8
Black
10
202.975
20
-41.325
11
202.975
21
-86.706
0
LINE
8
Black
10
202.975
20
-86.706
11
202.975
21
-86.7064
0
LINE
8
Black
10
202.975
20
-86.7064
11
202.975
21
-86.7067
0
LINE
8
Black
10
202.975
20
-86.7067
11
202.973
21
-86.7149
0
LINE
8
Black
10
202.973
20
-86.7149
11
202.972
21
-86.7231
0
LINE
8
Black
10
202.972
20
-86.7231
11
202.972
21
-86.7234
0
LINE
8
Black
10
202.972
20
-86.7234
11
202.972
21
-86.7238
0
LINE
8
Black
10
202.972
20
-86.7238
11
202.967
21
-86.7309
0
LINE
8
Black
10
202.967
20
-86.7309
11
202.963
21
-86.7381
0
LINE
8
Black
10
202.963
20
-86.7381
11
202.963
21
-86.7384
0
LINE
8
Black
10
202.963
20
-86.7384
11
202.963
21
-86.7387
0
LINE
8
Black
10
202.963
20
-86.7387
11
202.956
21
-86.744
0
LINE
8
Black
10
202.956
20
-86.744
11
202.95
21
-86.7493
0
LINE
8
Black
10
202.95
20
-86.7493
11
202.95
21
-86.7494
0
LINE
8
Black
10
202.95
20
-86.7494
11
202.949
21
-86.7497
0
LINE
8
Black
10
202.949
20
-86.7497
11
193.225
21
-92.177
0
LINE
8
Black
10
193.225
20
-92.177
11
193.204
21
-92.1891
0
LINE
8
Black
10
193.204
20
-92.1891
11
192.682
21
-92.6269
0
LINE
8
Black
10
192.682
20
-92.6269
11
192.343
21
-93.2132
0
LINE
8
Black
10
192.343
20
-93.2132
11
192.225
21
-93.8843
0
LINE
8
Black
10
192.225
20
-93.8843
11
192.225
21
-123.64
0
LINE
8
Black
10
192.225
20
-123.64
11
192.341
21
-124.303
0
LINE
8
Black
10
192.341
20
-124.303
11
192.677
21
-124.891
0
LINE
8
Black
10
192.677
20
-124.891
11
193.197
21
-125.331
0
LINE
8
Black
10
193.197
20
-125.331
11
219.193
21
-140.476
0
LINE
8
Black
10
219.193
20
-140.476
11
219.196
21
-140.479
0
LINE
8
Black
10
219.196
20
-140.479
11
219.2
21
-140.481
0
LINE
8
Black
10
219.2
20
-140.481
11
219.731
21
-140.93
0
LINE
8
Black
10
219.731
20
-140.93
11
219.731
21
-140.93
0
LINE
8
Black
10
219.731
20
-140.93
11
219.742
21
-140.943
0
LINE
8
Black
10
219.742
20
-140.943
11
220.087
21
-141.546
0
LINE
8
Black
10
220.087
20
-141.546
11
220.087
21
-141.546
0
LINE
8
Black
10
220.087
20
-141.546
11
220.093
21
-141.563
0
LINE
8
Black
10
220.093
20
-141.563
11
220.21
21
-142.247
0
LINE
8
Black
10
220.21
20
-142.247
11
220.21
21
-142.247
0
LINE
8
Black
10
220.21
20
-142.247
11
220.21
21
-142.265
0
LINE
8
Black
10
220.21
20
-142.265
11
220.087
21
-142.948
0
LINE
8
Black
10
220.087
20
-142.948
11
220.085
21
-142.954
0
LINE
8
Black
10
220.085
20
-142.954
11
220.083
21
-142.961
0
LINE
8
Black
10
220.083
20
-142.961
11
219.934
21
-143.277
0
LINE
8
Black
10
219.934
20
-143.277
11
219.933
21
-143.279
0
LINE
8
Black
10
219.933
20
-143.279
11
219.932
21
-143.281
0
LINE
8
Black
10
219.932
20
-143.281
11
202.771
21
-172.701
0
LINE
8
Black
10
202.771
20
-172.701
11
202.768
21
-172.704
0
LINE
8
Black
10
202.768
20
-172.704
11
202.766
21
-172.708
0
LINE
8
Black
10
202.766
20
-172.708
11
202.317
21
-173.238
0
LINE
8
Black
10
202.317
20
-173.238
11
202.304
21
-173.249
0
LINE
8
Black
10
202.304
20
-173.249
11
202.304
21
-173.249
0
LINE
8
Black
10
202.304
20
-173.249
11
201.7
21
-173.594
0
LINE
8
Black
10
201.7
20
-173.594
11
201.7
21
-173.594
0
LINE
8
Black
10
201.7
20
-173.594
11
201.69
21
-173.598
0
LINE
8
Black
10
201.69
20
-173.598
11
201.684
21
-173.6
0
LINE
8
Black
10
201.684
20
-173.6
11
201.684
21
-173.6
0
LINE
8
Black
10
201.684
20
-173.6
11
201
21
-173.717
0
LINE
8
Black
10
201
20
-173.717
11
200.982
21
-173.717
0
LINE
8
Black
10
200.982
20
-173.717
11
200.982
21
-173.717
0
LINE
8
Black
10
66.5772
20
-41.375
11
66.2386
21
-41.4046
0
LINE
8
Black
10
66.2386
20
-41.4046
11
65.6004
21
-41.6369
0
LINE
8
Black
10
65.6004
20
-41.6369
11
65.0818
21
-42.0721
0
LINE
8
Black
10
65.0818
20
-42.0721
11
64.7433
21
-42.6583
0
LINE
8
Black
10
64.7433
20
-42.6583
11
64.625
21
-43.3294
0
LINE
8
Black
10
64.625
20
-43.3294
11
64.625
21
-134.923
0
LINE
8
Black
10
64.625
20
-134.923
11
64.6546
21
-135.261
0
LINE
8
Black
10
64.6546
20
-135.261
11
64.8869
21
-135.9
0
LINE
8
Black
10
64.8869
20
-135.9
11
65.3221
21
-136.418
0
LINE
8
Black
10
65.3221
20
-136.418
11
65.9083
21
-136.757
0
LINE
8
Black
10
65.9083
20
-136.757
11
66.5794
21
-136.875
0
LINE
8
Black
10
66.5794
20
-136.875
11
136.483
21
-136.875
0
LINE
8
Black
10
136.483
20
-136.875
11
136.488
21
-136.876
0
LINE
8
Black
10
136.488
20
-136.876
11
136.492
21
-136.876
0
LINE
8
Black
10
136.492
20
-136.876
11
137.176
21
-136.996
0
LINE
8
Black
10
137.176
20
-136.996
11
137.182
21
-136.999
0
LINE
8
Black
10
137.182
20
-136.999
11
137.189
21
-137
0
LINE
8
Black
10
137.189
20
-137
11
137.507
21
-137.149
0
LINE
8
Black
10
137.507
20
-137.149
11
137.509
21
-137.15
0
LINE
8
Black
10
137.509
20
-137.15
11
137.511
21
-137.151
0
LINE
8
Black
10
137.511
20
-137.151
11
200.021
21
-173.354
0
LINE
8
Black
10
200.021
20
-173.354
11
200.323
21
-173.496
0
LINE
8
Black
10
200.323
20
-173.496
11
200.991
21
-173.617
0
LINE
8
Black
10
200.991
20
-173.617
11
201.659
21
-173.503
0
LINE
8
Black
10
201.659
20
-173.503
11
202.246
21
-173.167
0
LINE
8
Black
10
202.246
20
-173.167
11
202.687
21
-172.647
0
LINE
8
Black
10
202.687
20
-172.647
11
219.844
21
-143.232
0
LINE
8
Black
10
219.844
20
-143.232
11
219.99
21
-142.924
0
LINE
8
Black
10
219.99
20
-142.924
11
220.11
21
-142.255
0
LINE
8
Black
10
220.11
20
-142.255
11
219.995
21
-141.588
0
LINE
8
Black
10
219.995
20
-141.588
11
219.659
21
-141.001
0
LINE
8
Black
10
219.659
20
-141.001
11
219.139
21
-140.561
0
LINE
8
Black
10
219.139
20
-140.561
11
193.143
21
-125.415
0
LINE
8
Black
10
193.143
20
-125.415
11
193.14
21
-125.412
0
LINE
8
Black
10
193.14
20
-125.412
11
193.136
21
-125.41
0
LINE
8
Black
10
193.136
20
-125.41
11
192.606
21
-124.962
0
LINE
8
Black
10
192.606
20
-124.962
11
192.594
21
-124.948
0
LINE
8
Black
10
192.594
20
-124.948
11
192.594
21
-124.948
0
LINE
8
Black
10
192.594
20
-124.948
11
192.25
21
-124.346
0
LINE
8
Black
10
192.25
20
-124.346
11
192.25
21
-124.346
0
LINE
8
Black
10
192.25
20
-124.346
11
192.25
21
-124.346
0
LINE
8
Black
10
192.25
20
-124.346
11
192.25
21
-124.345
0
LINE
8
Black
10
192.25
20
-124.345
11
192.247
21
-124.337
0
LINE
8
Black
10
192.247
20
-124.337
11
192.244
21
-124.329
0
LINE
8
Black
10
192.244
20
-124.329
11
192.126
21
-123.653
0
LINE
8
Black
10
192.126
20
-123.653
11
192.126
21
-123.648
0
LINE
8
Black
10
192.126
20
-123.648
11
192.125
21
-123.644
0
LINE
8
Black
10
192.125
20
-123.644
11
192.125
21
-93.8799
0
LINE
8
Black
10
192.125
20
-93.8799
11
192.126
21
-93.8756
0
LINE
8
Black
10
192.126
20
-93.8756
11
192.126
21
-93.8712
0
LINE
8
Black
10
192.126
20
-93.8712
11
192.246
21
-93.1872
0
LINE
8
Black
10
192.246
20
-93.1872
11
192.246
21
-93.1872
0
LINE
8
Black
10
192.246
20
-93.1872
11
192.25
21
-93.1778
0
LINE
8
Black
10
192.25
20
-93.1778
11
192.252
21
-93.1708
0
LINE
8
Black
10
192.252
20
-93.1708
11
192.252
21
-93.1708
0
LINE
8
Black
10
192.252
20
-93.1708
11
192.6
21
-92.5693
0
LINE
8
Black
10
192.6
20
-92.5693
11
192.6
21
-92.5693
0
LINE
8
Black
10
192.6
20
-92.5693
11
192.604
21
-92.5646
0
LINE
8
Black
10
192.604
20
-92.5646
11
192.611
21
-92.556
0
LINE
8
Black
10
192.611
20
-92.556
11
192.611
21
-92.556
0
LINE
8
Black
10
192.611
20
-92.556
11
193.143
21
-92.1095
0
LINE
8
Black
10
193.143
20
-92.1095
11
193.147
21
-92.1073
0
LINE
8
Black
10
193.147
20
-92.1073
11
193.15
21
-92.1044
0
LINE
8
Black
10
193.15
20
-92.1044
11
193.176
21
-92.09
0
LINE
8
Black
10
193.176
20
-92.09
11
193.176
21
-92.0899
0
LINE
8
Black
10
193.176
20
-92.0899
11
193.176
21
-92.0898
0
LINE
8
Black
10
193.176
20
-92.0898
11
202.875
21
-86.6766
0
LINE
8
Black
10
202.875
20
-86.6766
11
202.875
21
-41.375
0
LINE
8
Black
10
202.875
20
-41.375
11
66.5772
21
-41.375
0
LINE
8
Black
10
197.027
20
-152.493
11
197.036
21
-152.493
0
LINE
8
Black
10
197.036
20
-152.493
11
197.045
21
-152.493
0
LINE
8
Black
10
197.045
20
-152.493
11
197.045
21
-152.493
0
LINE
8
Black
10
197.045
20
-152.493
11
197.216
21
-152.523
0
LINE
8
Black
10
197.216
20
-152.523
11
197.222
21
-152.526
0
LINE
8
Black
10
197.222
20
-152.526
11
197.228
21
-152.527
0
LINE
8
Black
10
197.228
20
-152.527
11
197.307
21
-152.564
0
LINE
8
Black
10
197.307
20
-152.564
11
197.309
21
-152.565
0
LINE
8
Black
10
197.309
20
-152.565
11
197.311
21
-152.566
0
LINE
8
Black
10
197.311
20
-152.566
11
203.373
21
-156.066
0
LINE
8
Black
10
203.373
20
-156.066
11
203.377
21
-156.069
0
LINE
8
Black
10
203.377
20
-156.069
11
203.38
21
-156.071
0
LINE
8
Black
10
203.38
20
-156.071
11
203.513
21
-156.183
0
LINE
8
Black
10
203.513
20
-156.183
11
203.513
21
-156.183
0
LINE
8
Black
10
203.513
20
-156.183
11
203.525
21
-156.196
0
LINE
8
Black
10
203.525
20
-156.196
11
203.611
21
-156.346
0
LINE
8
Black
10
203.611
20
-156.346
11
203.611
21
-156.346
0
LINE
8
Black
10
203.611
20
-156.346
11
203.614
21
-156.353
0
LINE
8
Black
10
203.614
20
-156.353
11
203.617
21
-156.363
0
LINE
8
Black
10
203.617
20
-156.363
11
203.617
21
-156.363
0
LINE
8
Black
10
203.617
20
-156.363
11
203.647
21
-156.534
0
LINE
8
Black
10
203.647
20
-156.534
11
203.647
21
-156.534
0
LINE
8
Black
10
203.647
20
-156.534
11
203.647
21
-156.542
0
LINE
8
Black
10
203.647
20
-156.542
11
203.647
21
-156.551
0
LINE
8
Black
10
203.647
20
-156.551
11
203.647
21
-156.551
0
LINE
8
Black
10
203.647
20
-156.551
11
203.617
21
-156.722
0
LINE
8
Black
10
203.617
20
-156.722
11
203.615
21
-156.728
0
LINE
8
Black
10
203.615
20
-156.728
11
203.613
21
-156.735
0
LINE
8
Black
10
203.613
20
-156.735
11
203.577
21
-156.814
0
LINE
8
Black
10
203.577
20
-156.814
11
203.575
21
-156.815
0
LINE
8
Black
10
203.575
20
-156.815
11
203.575
21
-156.817
0
LINE
8
Black
10
203.575
20
-156.817
11
200.075
21
-162.88
0
LINE
8
Black
10
200.075
20
-162.88
11
200.072
21
-162.883
0
LINE
8
Black
10
200.072
20
-162.883
11
200.07
21
-162.887
0
LINE
8
Black
10
200.07
20
-162.887
11
199.958
21
-163.02
0
LINE
8
Black
10
199.958
20
-163.02
11
199.958
21
-163.02
0
LINE
8
Black
10
199.958
20
-163.02
11
199.952
21
-163.025
0
LINE
8
Black
10
199.952
20
-163.025
11
199.945
21
-163.031
0
LINE
8
Black
10
199.945
20
-163.031
11
199.945
21
-163.031
0
LINE
8
Black
10
199.945
20
-163.031
11
199.794
21
-163.118
0
LINE
8
Black
10
199.794
20
-163.118
11
199.794
21
-163.118
0
LINE
8
Black
10
199.794
20
-163.118
11
199.789
21
-163.12
0
LINE
8
Black
10
199.789
20
-163.12
11
199.778
21
-163.124
0
LINE
8
Black
10
199.778
20
-163.124
11
199.778
21
-163.124
0
LINE
8
Black
10
199.778
20
-163.124
11
199.607
21
-163.154
0
LINE
8
Black
10
199.607
20
-163.154
11
199.607
21
-163.154
0
LINE
8
Black
10
199.607
20
-163.154
11
199.598
21
-163.154
0
LINE
8
Black
10
199.598
20
-163.154
11
199.59
21
-163.154
0
LINE
8
Black
10
199.59
20
-163.154
11
199.59
21
-163.154
0
LINE
8
Black
10
199.59
20
-163.154
11
199.419
21
-163.124
0
LINE
8
Black
10
199.419
20
-163.124
11
199.412
21
-163.121
0
LINE
8
Black
10
199.412
20
-163.121
11
199.406
21
-163.12
0
LINE
8
Black
10
199.406
20
-163.12
11
199.327
21
-163.083
0
LINE
8
Black
10
199.327
20
-163.083
11
199.325
21
-163.082
0
LINE
8
Black
10
199.325
20
-163.082
11
199.323
21
-163.081
0
LINE
8
Black
10
199.323
20
-163.081
11
193.261
21
-159.581
0
LINE
8
Black
10
193.261
20
-159.581
11
193.258
21
-159.578
0
LINE
8
Black
10
193.258
20
-159.578
11
193.254
21
-159.576
0
LINE
8
Black
10
193.254
20
-159.576
11
193.121
21
-159.464
0
LINE
8
Black
10
193.121
20
-159.464
11
193.121
21
-159.464
0
LINE
8
Black
10
193.121
20
-159.464
11
193.115
21
-159.458
0
LINE
8
Black
10
193.115
20
-159.458
11
193.11
21
-159.451
0
LINE
8
Black
10
193.11
20
-159.451
11
193.11
21
-159.451
0
LINE
8
Black
10
193.11
20
-159.451
11
193.023
21
-159.301
0
LINE
8
Black
10
193.023
20
-159.301
11
193.023
21
-159.301
0
LINE
8
Black
10
193.023
20
-159.301
11
193.02
21
-159.294
0
LINE
8
Black
10
193.02
20
-159.294
11
193.017
21
-159.284
0
LINE
8
Black
10
193.017
20
-159.284
11
193.017
21
-159.284
0
LINE
8
Black
10
193.017
20
-159.284
11
192.987
21
-159.113
0
LINE
8
Black
10
192.987
20
-159.113
11
192.987
21
-159.113
0
LINE
8
Black
10
192.987
20
-159.113
11
192.987
21
-159.105
0
LINE
8
Black
10
192.987
20
-159.105
11
192.987
21
-159.096
0
LINE
8
Black
10
192.987
20
-159.096
11
192.987
21
-159.096
0
LINE
8
Black
10
192.987
20
-159.096
11
193.017
21
-158.925
0
LINE
8
Black
10
193.017
20
-158.925
11
193.019
21
-158.919
0
LINE
8
Black
10
193.019
20
-158.919
11
193.021
21
-158.912
0
LINE
8
Black
10
193.021
20
-158.912
11
193.058
21
-158.833
0
LINE
8
Black
10
193.058
20
-158.833
11
193.059
21
-158.832
0
LINE
8
Black
10
193.059
20
-158.832
11
193.06
21
-158.83
0
LINE
8
Black
10
193.06
20
-158.83
11
196.56
21
-152.767
0
LINE
8
Black
10
196.56
20
-152.767
11
196.563
21
-152.764
0
LINE
8
Black
10
196.563
20
-152.764
11
196.565
21
-152.76
0
LINE
8
Black
10
196.565
20
-152.76
11
196.676
21
-152.627
0
LINE
8
Black
10
196.676
20
-152.627
11
196.676
21
-152.627
0
LINE
8
Black
10
196.676
20
-152.627
11
196.69
21
-152.616
0
LINE
8
Black
10
196.69
20
-152.616
11
196.84
21
-152.529
0
LINE
8
Black
10
196.84
20
-152.529
11
196.84
21
-152.529
0
LINE
8
Black
10
196.84
20
-152.529
11
196.847
21
-152.527
0
LINE
8
Black
10
196.847
20
-152.527
11
196.856
21
-152.523
0
LINE
8
Black
10
196.856
20
-152.523
11
197.027
21
-152.493
0
LINE
8
Black
10
197.027
20
-152.493
11
197.027
21
-152.493
0
LINE
8
Black
10
196.882
20
-152.62
11
196.747
21
-152.698
0
LINE
8
Black
10
196.747
20
-152.698
11
196.644
21
-152.821
0
LINE
8
Black
10
196.644
20
-152.821
11
193.147
21
-158.878
0
LINE
8
Black
10
193.147
20
-158.878
11
193.114
21
-158.949
0
LINE
8
Black
10
193.114
20
-158.949
11
193.087
21
-159.105
0
LINE
8
Black
10
193.087
20
-159.105
11
193.114
21
-159.258
0
LINE
8
Black
10
193.114
20
-159.258
11
193.192
21
-159.393
0
LINE
8
Black
10
193.192
20
-159.393
11
193.315
21
-159.496
0
LINE
8
Black
10
193.315
20
-159.496
11
199.371
21
-162.993
0
LINE
8
Black
10
199.371
20
-162.993
11
199.442
21
-163.026
0
LINE
8
Black
10
199.442
20
-163.026
11
199.598
21
-163.054
0
LINE
8
Black
10
199.598
20
-163.054
11
199.752
21
-163.027
0
LINE
8
Black
10
199.752
20
-163.027
11
199.887
21
-162.949
0
LINE
8
Black
10
199.887
20
-162.949
11
199.99
21
-162.826
0
LINE
8
Black
10
199.99
20
-162.826
11
203.487
21
-156.769
0
LINE
8
Black
10
203.487
20
-156.769
11
203.52
21
-156.698
0
LINE
8
Black
10
203.52
20
-156.698
11
203.547
21
-156.542
0
LINE
8
Black
10
203.547
20
-156.542
11
203.52
21
-156.389
0
LINE
8
Black
10
203.52
20
-156.389
11
203.442
21
-156.254
0
LINE
8
Black
10
203.442
20
-156.254
11
203.319
21
-156.15
0
LINE
8
Black
10
203.319
20
-156.15
11
197.263
21
-152.654
0
LINE
8
Black
10
197.263
20
-152.654
11
197.192
21
-152.621
0
LINE
8
Black
10
197.192
20
-152.621
11
197.036
21
-152.593
0
LINE
8
Black
10
197.036
20
-152.593
11
196.882
21
-152.62
0
LINE
8
Black
10
180.359
20
-142.968
11
180.367
21
-142.968
0
LINE
8
Black
10
180.367
20
-142.968
11
180.376
21
-142.968
0
LINE
8
Black
10
180.376
20
-142.968
11
180.376
21
-142.968
0
LINE
8
Black
10
180.376
20
-142.968
11
180.547
21
-142.998
0
LINE
8
Black
10
180.547
20
-142.998
11
180.553
21
-143.001
0
LINE
8
Black
10
180.553
20
-143.001
11
180.559
21
-143.002
0
LINE
8
Black
10
180.559
20
-143.002
11
180.638
21
-143.039
0
LINE
8
Black
10
180.638
20
-143.039
11
180.64
21
-143.04
0
LINE
8
Black
10
180.64
20
-143.04
11
180.642
21
-143.041
0
LINE
8
Black
10
180.642
20
-143.041
11
186.704
21
-146.541
0
LINE
8
Black
10
186.704
20
-146.541
11
186.708
21
-146.544
0
LINE
8
Black
10
186.708
20
-146.544
11
186.712
21
-146.546
0
LINE
8
Black
10
186.712
20
-146.546
11
186.845
21
-146.658
0
LINE
8
Black
10
186.845
20
-146.658
11
186.845
21
-146.658
0
LINE
8
Black
10
186.845
20
-146.658
11
186.856
21
-146.671
0
LINE
8
Black
10
186.856
20
-146.671
11
186.943
21
-146.821
0
LINE
8
Black
10
186.943
20
-146.821
11
186.943
21
-146.821
0
LINE
8
Black
10
186.943
20
-146.821
11
186.945
21
-146.828
0
LINE
8
Black
10
186.945
20
-146.828
11
186.949
21
-146.838
0
LINE
8
Black
10
186.949
20
-146.838
11
186.949
21
-146.838
0
LINE
8
Black
10
186.949
20
-146.838
11
186.979
21
-147.009
0
LINE
8
Black
10
186.979
20
-147.009
11
186.979
21
-147.009
0
LINE
8
Black
10
186.979
20
-147.009
11
186.979
21
-147.017
0
LINE
8
Black
10
186.979
20
-147.017
11
186.979
21
-147.026
0
LINE
8
Black
10
186.979
20
-147.026
11
186.979
21
-147.026
0
LINE
8
Black
10
186.979
20
-147.026
11
186.949
21
-147.197
0
LINE
8
Black
10
186.949
20
-147.197
11
186.946
21
-147.203
0
LINE
8
Black
10
186.946
20
-147.203
11
186.945
21
-147.21
0
LINE
8
Black
10
186.945
20
-147.21
11
186.908
21
-147.289
0
LINE
8
Black
10
186.908
20
-147.289
11
186.907
21
-147.29
0
LINE
8
Black
10
186.907
20
-147.29
11
186.906
21
-147.292
0
LINE
8
Black
10
186.906
20
-147.292
11
183.406
21
-153.355
0
LINE
8
Black
10
183.406
20
-153.355
11
183.403
21
-153.358
0
LINE
8
Black
10
183.403
20
-153.358
11
183.401
21
-153.362
0
LINE
8
Black
10
183.401
20
-153.362
11
183.289
21
-153.495
0
LINE
8
Black
10
183.289
20
-153.495
11
183.289
21
-153.495
0
LINE
8
Black
10
183.289
20
-153.495
11
183.283
21
-153.5
0
LINE
8
Black
10
183.283
20
-153.5
11
183.276
21
-153.506
0
LINE
8
Black
10
183.276
20
-153.506
11
183.276
21
-153.506
0
LINE
8
Black
10
183.276
20
-153.506
11
183.126
21
-153.593
0
LINE
8
Black
10
183.126
20
-153.593
11
183.125
21
-153.593
0
LINE
8
Black
10
183.125
20
-153.593
11
183.12
21
-153.595
0
LINE
8
Black
10
183.12
20
-153.595
11
183.109
21
-153.599
0
LINE
8
Black
10
183.109
20
-153.599
11
183.109
21
-153.599
0
LINE
8
Black
10
183.109
20
-153.599
11
182.938
21
-153.629
0
LINE
8
Black
10
182.938
20
-153.629
11
182.938
21
-153.629
0
LINE
8
Black
10
182.938
20
-153.629
11
182.929
21
-153.629
0
LINE
8
Black
10
182.929
20
-153.629
11
182.921
21
-153.629
0
LINE
8
Black
10
182.921
20
-153.629
11
182.921
21
-153.629
0
LINE
8
Black
10
182.921
20
-153.629
11
182.75
21
-153.599
0
LINE
8
Black
10
182.75
20
-153.599
11
182.744
21
-153.596
0
LINE
8
Black
10
182.744
20
-153.596
11
182.737
21
-153.595
0
LINE
8
Black
10
182.737
20
-153.595
11
182.658
21
-153.558
0
LINE
8
Black
10
182.658
20
-153.558
11
182.657
21
-153.557
0
LINE
8
Black
10
182.657
20
-153.557
11
182.654
21
-153.556
0
LINE
8
Black
10
182.654
20
-153.556
11
176.592
21
-150.056
0
LINE
8
Black
10
176.592
20
-150.056
11
176.589
21
-150.053
0
LINE
8
Black
10
176.589
20
-150.053
11
176.585
21
-150.051
0
LINE
8
Black
10
176.585
20
-150.051
11
176.452
21
-149.939
0
LINE
8
Black
10
176.452
20
-149.939
11
176.452
21
-149.939
0
LINE
8
Black
10
176.452
20
-149.939
11
176.447
21
-149.933
0
LINE
8
Black
10
176.447
20
-149.933
11
176.441
21
-149.926
0
LINE
8
Black
10
176.441
20
-149.926
11
176.441
21
-149.926
0
LINE
8
Black
10
176.441
20
-149.926
11
176.354
21
-149.776
0
LINE
8
Black
10
176.354
20
-149.776
11
176.354
21
-149.776
0
LINE
8
Black
10
176.354
20
-149.776
11
176.352
21
-149.769
0
LINE
8
Black
10
176.352
20
-149.769
11
176.348
21
-149.759
0
LINE
8
Black
10
176.348
20
-149.759
11
176.348
21
-149.759
0
LINE
8
Black
10
176.348
20
-149.759
11
176.318
21
-149.588
0
LINE
8
Black
10
176.318
20
-149.588
11
176.318
21
-149.588
0
LINE
8
Black
10
176.318
20
-149.588
11
176.318
21
-149.58
0
LINE
8
Black
10
176.318
20
-149.58
11
176.318
21
-149.571
0
LINE
8
Black
10
176.318
20
-149.571
11
176.318
21
-149.571
0
LINE
8
Black
10
176.318
20
-149.571
11
176.348
21
-149.4
0
LINE
8
Black
10
176.348
20
-149.4
11
176.35
21
-149.394
0
LINE
8
Black
10
176.35
20
-149.394
11
176.352
21
-149.387
0
LINE
8
Black
10
176.352
20
-149.387
11
176.389
21
-149.308
0
LINE
8
Black
10
176.389
20
-149.308
11
176.39
21
-149.307
0
LINE
8
Black
10
176.39
20
-149.307
11
176.391
21
-149.305
0
LINE
8
Black
10
176.391
20
-149.305
11
179.891
21
-143.242
0
LINE
8
Black
10
179.891
20
-143.242
11
179.894
21
-143.239
0
LINE
8
Black
10
179.894
20
-143.239
11
179.896
21
-143.235
0
LINE
8
Black
10
179.896
20
-143.235
11
180.008
21
-143.102
0
LINE
8
Black
10
180.008
20
-143.102
11
180.008
21
-143.102
0
LINE
8
Black
10
180.008
20
-143.102
11
180.021
21
-143.091
0
LINE
8
Black
10
180.021
20
-143.091
11
180.171
21
-143.004
0
LINE
8
Black
10
180.171
20
-143.004
11
180.171
21
-143.004
0
LINE
8
Black
10
180.171
20
-143.004
11
180.178
21
-143.002
0
LINE
8
Black
10
180.178
20
-143.002
11
180.188
21
-142.998
0
LINE
8
Black
10
180.188
20
-142.998
11
180.359
21
-142.968
0
LINE
8
Black
10
180.359
20
-142.968
11
180.359
21
-142.968
0
LINE
8
Black
10
180.214
20
-143.095
11
180.079
21
-143.173
0
LINE
8
Black
10
180.079
20
-143.173
11
179.975
21
-143.296
0
LINE
8
Black
10
179.975
20
-143.296
11
176.479
21
-149.353
0
LINE
8
Black
10
176.479
20
-149.353
11
176.446
21
-149.424
0
LINE
8
Black
10
176.446
20
-149.424
11
176.418
21
-149.58
0
LINE
8
Black
10
176.418
20
-149.58
11
176.445
21
-149.733
0
LINE
8
Black
10
176.445
20
-149.733
11
176.523
21
-149.868
0
LINE
8
Black
10
176.523
20
-149.868
11
176.646
21
-149.971
0
LINE
8
Black
10
176.646
20
-149.971
11
182.703
21
-153.468
0
LINE
8
Black
10
182.703
20
-153.468
11
182.774
21
-153.501
0
LINE
8
Black
10
182.774
20
-153.501
11
182.929
21
-153.529
0
LINE
8
Black
10
182.929
20
-153.529
11
183.083
21
-153.502
0
LINE
8
Black
10
183.083
20
-153.502
11
183.218
21
-153.424
0
LINE
8
Black
10
183.218
20
-153.424
11
183.321
21
-153.301
0
LINE
8
Black
10
183.321
20
-153.301
11
186.818
21
-147.244
0
LINE
8
Black
10
186.818
20
-147.244
11
186.851
21
-147.173
0
LINE
8
Black
10
186.851
20
-147.173
11
186.879
21
-147.017
0
LINE
8
Black
10
186.879
20
-147.017
11
186.852
21
-146.864
0
LINE
8
Black
10
186.852
20
-146.864
11
186.774
21
-146.729
0
LINE
8
Black
10
186.774
20
-146.729
11
186.651
21
-146.625
0
LINE
8
Black
10
186.651
20
-146.625
11
180.594
21
-143.129
0
LINE
8
Black
10
180.594
20
-143.129
11
180.523
21
-143.096
0
LINE
8
Black
10
180.523
20
-143.096
11
180.367
21
-143.068
0
LINE
8
Black
10
180.367
20
-143.068
11
180.214
21
-143.095
0
LINE
8
Black
10
170.478
20
-116.02
11
170.485
21
-116.02
0
LINE
8
Black
10
170.485
20
-116.02
11
170.656
21
-116.05
0
LINE
8
Black
10
170.656
20
-116.05
11
170.68
21
-116.059
0
LINE
8
Black
10
170.68
20
-116.059
11
170.831
21
-116.146
0
LINE
8
Black
10
170.831
20
-116.146
11
170.851
21
-116.163
0
LINE
8
Black
10
170.851
20
-116.163
11
170.962
21
-116.296
0
LINE
8
Black
10
170.962
20
-116.296
11
170.975
21
-116.318
0
LINE
8
Black
10
170.975
20
-116.318
11
171.035
21
-116.481
0
LINE
8
Black
10
171.035
20
-116.481
11
171.036
21
-116.491
0
LINE
8
Black
10
171.036
20
-116.491
11
171.039
21
-116.5
0
LINE
8
Black
10
171.039
20
-116.5
11
171.047
21
-116.587
0
LINE
8
Black
10
171.047
20
-116.587
11
171.046
21
-116.591
0
LINE
8
Black
10
171.046
20
-116.591
11
171.047
21
-116.594
0
LINE
8
Black
10
171.047
20
-116.594
11
171.047
21
-124.094
0
LINE
8
Black
10
171.047
20
-124.094
11
171.042
21
-124.119
0
LINE
8
Black
10
171.042
20
-124.119
11
171.031
21
-124.138
0
LINE
8
Black
10
171.031
20
-124.138
11
171.016
21
-124.228
0
LINE
8
Black
10
171.016
20
-124.228
11
171.007
21
-124.252
0
LINE
8
Black
10
171.007
20
-124.252
11
171.007
21
-124.252
0
LINE
8
Black
10
171.007
20
-124.252
11
170.92
21
-124.403
0
LINE
8
Black
10
170.92
20
-124.403
11
170.903
21
-124.423
0
LINE
8
Black
10
170.903
20
-124.423
11
170.903
21
-124.423
0
LINE
8
Black
10
170.903
20
-124.423
11
170.77
21
-124.534
0
LINE
8
Black
10
170.77
20
-124.534
11
170.748
21
-124.547
0
LINE
8
Black
10
170.748
20
-124.547
11
170.584
21
-124.607
0
LINE
8
Black
10
170.584
20
-124.607
11
170.575
21
-124.608
0
LINE
8
Black
10
170.575
20
-124.608
11
170.565
21
-124.611
0
LINE
8
Black
10
170.565
20
-124.611
11
170.478
21
-124.618
0
LINE
8
Black
10
170.478
20
-124.618
11
170.475
21
-124.618
0
LINE
8
Black
10
170.475
20
-124.618
11
170.472
21
-124.619
0
LINE
8
Black
10
170.472
20
-124.619
11
163.542
21
-124.619
0
LINE
8
Black
10
163.542
20
-124.619
11
163.542
21
-124.619
0
LINE
8
Black
10
163.542
20
-124.619
11
163.529
21
-124.642
0
LINE
8
Black
10
163.529
20
-124.642
11
163.509
21
-124.659
0
LINE
8
Black
10
163.509
20
-124.659
11
163.485
21
-124.668
0
LINE
8
Black
10
163.485
20
-124.668
11
163.459
21
-124.668
0
LINE
8
Black
10
163.459
20
-124.668
11
163.288
21
-124.637
0
LINE
8
Black
10
163.288
20
-124.637
11
163.263
21
-124.629
0
LINE
8
Black
10
163.263
20
-124.629
11
163.263
21
-124.629
0
LINE
8
Black
10
163.263
20
-124.629
11
163.113
21
-124.542
0
LINE
8
Black
10
163.113
20
-124.542
11
163.093
21
-124.525
0
LINE
8
Black
10
163.093
20
-124.525
11
163.093
21
-124.525
0
LINE
8
Black
10
163.093
20
-124.525
11
162.981
21
-124.392
0
LINE
8
Black
10
162.981
20
-124.392
11
162.968
21
-124.369
0
LINE
8
Black
10
162.968
20
-124.369
11
162.909
21
-124.206
0
LINE
8
Black
10
162.909
20
-124.206
11
162.907
21
-124.197
0
LINE
8
Black
10
162.907
20
-124.197
11
162.905
21
-124.187
0
LINE
8
Black
10
162.905
20
-124.187
11
162.897
21
-124.1
0
LINE
8
Black
10
162.897
20
-124.1
11
162.897
21
-124.097
0
LINE
8
Black
10
162.897
20
-124.097
11
162.897
21
-124.094
0
LINE
8
Black
10
162.897
20
-124.094
11
162.897
21
-116.594
0
LINE
8
Black
10
162.897
20
-116.594
11
162.898
21
-116.587
0
LINE
8
Black
10
162.898
20
-116.587
11
162.898
21
-116.581
0
LINE
8
Black
10
162.898
20
-116.581
11
162.928
21
-116.41
0
LINE
8
Black
10
162.928
20
-116.41
11
162.937
21
-116.385
0
LINE
8
Black
10
162.937
20
-116.385
11
163.024
21
-116.235
0
LINE
8
Black
10
163.024
20
-116.235
11
163.041
21
-116.215
0
LINE
8
Black
10
163.041
20
-116.215
11
163.174
21
-116.103
0
LINE
8
Black
10
163.174
20
-116.103
11
163.196
21
-116.09
0
LINE
8
Black
10
163.196
20
-116.09
11
163.359
21
-116.031
0
LINE
8
Black
10
163.359
20
-116.031
11
163.369
21
-116.029
0
LINE
8
Black
10
163.369
20
-116.029
11
163.379
21
-116.027
0
LINE
8
Black
10
163.379
20
-116.027
11
163.465
21
-116.019
0
LINE
8
Black
10
163.465
20
-116.019
11
163.469
21
-116.019
0
LINE
8
Black
10
163.469
20
-116.019
11
163.472
21
-116.019
0
LINE
8
Black
10
163.472
20
-116.019
11
170.472
21
-116.019
0
LINE
8
Black
10
170.472
20
-116.019
11
170.478
21
-116.02
0
LINE
8
Black
10
163.475
20
-116.169
11
163.401
21
-116.175
0
LINE
8
Black
10
163.401
20
-116.175
11
163.26
21
-116.227
0
LINE
8
Black
10
163.26
20
-116.227
11
163.147
21
-116.321
0
LINE
8
Black
10
163.147
20
-116.321
11
163.074
21
-116.449
0
LINE
8
Black
10
163.074
20
-116.449
11
163.047
21
-116.6
0
LINE
8
Black
10
163.047
20
-116.6
11
163.047
21
-124.09
0
LINE
8
Black
10
163.047
20
-124.09
11
163.053
21
-124.164
0
LINE
8
Black
10
163.053
20
-124.164
11
163.105
21
-124.306
0
LINE
8
Black
10
163.105
20
-124.306
11
163.199
21
-124.418
0
LINE
8
Black
10
163.199
20
-124.418
11
163.327
21
-124.492
0
LINE
8
Black
10
163.327
20
-124.492
11
163.407
21
-124.506
0
LINE
8
Black
10
163.407
20
-124.506
11
163.424
21
-124.486
0
LINE
8
Black
10
163.424
20
-124.486
11
163.446
21
-124.473
0
LINE
8
Black
10
163.446
20
-124.473
11
163.472
21
-124.469
0
LINE
8
Black
10
163.472
20
-124.469
11
170.469
21
-124.469
0
LINE
8
Black
10
170.469
20
-124.469
11
170.542
21
-124.462
0
LINE
8
Black
10
170.542
20
-124.462
11
170.684
21
-124.411
0
LINE
8
Black
10
170.684
20
-124.411
11
170.797
21
-124.316
0
LINE
8
Black
10
170.797
20
-124.316
11
170.87
21
-124.189
0
LINE
8
Black
10
170.87
20
-124.189
11
170.897
21
-124.037
0
LINE
8
Black
10
170.897
20
-124.037
11
170.897
21
-116.597
0
LINE
8
Black
10
170.897
20
-116.597
11
170.89
21
-116.523
0
LINE
8
Black
10
170.89
20
-116.523
11
170.839
21
-116.382
0
LINE
8
Black
10
170.839
20
-116.382
11
170.744
21
-116.269
0
LINE
8
Black
10
170.744
20
-116.269
11
170.617
21
-116.195
0
LINE
8
Black
10
170.617
20
-116.195
11
170.465
21
-116.169
0
LINE
8
Black
10
170.465
20
-116.169
11
163.475
21
-116.169
0
LINE
8
Black
10
93.9752
20
-115.948
11
93.9818
21
-115.948
0
LINE
8
Black
10
93.9818
20
-115.948
11
94.1528
21
-115.978
0
LINE
8
Black
10
94.1528
20
-115.978
11
94.1773
21
-115.987
0
LINE
8
Black
10
94.1773
20
-115.987
11
94.3276
21
-116.074
0
LINE
8
Black
10
94.3276
20
-116.074
11
94.3476
21
-116.091
0
LINE
8
Black
10
94.3476
20
-116.091
11
94.4592
21
-116.224
0
LINE
8
Black
10
94.4592
20
-116.224
11
94.4722
21
-116.246
0
LINE
8
Black
10
94.4722
20
-116.246
11
94.5316
21
-116.409
0
LINE
8
Black
10
94.5316
20
-116.409
11
94.5333
21
-116.419
0
LINE
8
Black
10
94.5333
20
-116.419
11
94.5359
21
-116.429
0
LINE
8
Black
10
94.5359
20
-116.429
11
94.5435
21
-116.515
0
LINE
8
Black
10
94.5435
20
-116.515
11
94.5432
21
-116.519
0
LINE
8
Black
10
94.5432
20
-116.519
11
94.5437
21
-116.522
0
LINE
8
Black
10
94.5437
20
-116.522
11
94.5437
21
-124.022
0
LINE
8
Black
10
94.5437
20
-124.022
11
94.5426
21
-124.028
0
LINE
8
Black
10
94.5426
20
-124.028
11
94.5426
21
-124.035
0
LINE
8
Black
10
94.5426
20
-124.035
11
94.5125
21
-124.206
0
LINE
8
Black
10
94.5125
20
-124.206
11
94.5035
21
-124.23
0
LINE
8
Black
10
94.5035
20
-124.23
11
94.5035
21
-124.23
0
LINE
8
Black
10
94.5035
20
-124.23
11
94.4167
21
-124.381
0
LINE
8
Black
10
94.4167
20
-124.381
11
94.4
21
-124.401
0
LINE
8
Black
10
94.4
20
-124.401
11
94.4
21
-124.401
0
LINE
8
Black
10
94.4
20
-124.401
11
94.267
21
-124.512
0
LINE
8
Black
10
94.267
20
-124.512
11
94.2444
21
-124.525
0
LINE
8
Black
10
94.2444
20
-124.525
11
94.0812
21
-124.585
0
LINE
8
Black
10
94.0812
20
-124.585
11
94.0716
21
-124.586
0
LINE
8
Black
10
94.0716
20
-124.586
11
94.0621
21
-124.589
0
LINE
8
Black
10
94.0621
20
-124.589
11
93.9753
21
-124.597
0
LINE
8
Black
10
93.9753
20
-124.597
11
93.972
21
-124.596
0
LINE
8
Black
10
93.972
20
-124.596
11
93.9688
21
-124.597
0
LINE
8
Black
10
93.9688
20
-124.597
11
86.9688
21
-124.597
0
LINE
8
Black
10
86.9688
20
-124.597
11
86.9623
21
-124.596
0
LINE
8
Black
10
86.9623
20
-124.596
11
86.9557
21
-124.596
0
LINE
8
Black
10
86.9557
20
-124.596
11
86.7847
21
-124.566
0
LINE
8
Black
10
86.7847
20
-124.566
11
86.7602
21
-124.557
0
LINE
8
Black
10
86.7602
20
-124.557
11
86.7602
21
-124.557
0
LINE
8
Black
10
86.7602
20
-124.557
11
86.6099
21
-124.47
0
LINE
8
Black
10
86.6099
20
-124.47
11
86.5899
21
-124.453
0
LINE
8
Black
10
86.5899
20
-124.453
11
86.5899
21
-124.453
0
LINE
8
Black
10
86.5899
20
-124.453
11
86.4783
21
-124.32
0
LINE
8
Black
10
86.4783
20
-124.32
11
86.4653
21
-124.298
0
LINE
8
Black
10
86.4653
20
-124.298
11
86.4059
21
-124.134
0
LINE
8
Black
10
86.4059
20
-124.134
11
86.4042
21
-124.125
0
LINE
8
Black
10
86.4042
20
-124.125
11
86.4016
21
-124.115
0
LINE
8
Black
10
86.4016
20
-124.115
11
86.394
21
-124.028
0
LINE
8
Black
10
86.394
20
-124.028
11
86.3943
21
-124.025
0
LINE
8
Black
10
86.3943
20
-124.025
11
86.3937
21
-124.022
0
LINE
8
Black
10
86.3937
20
-124.022
11
86.3937
21
-116.522
0
LINE
8
Black
10
86.3937
20
-116.522
11
86.3949
21
-116.515
0
LINE
8
Black
10
86.3949
20
-116.515
11
86.3949
21
-116.509
0
LINE
8
Black
10
86.3949
20
-116.509
11
86.425
21
-116.338
0
LINE
8
Black
10
86.425
20
-116.338
11
86.434
21
-116.313
0
LINE
8
Black
10
86.434
20
-116.313
11
86.5208
21
-116.163
0
LINE
8
Black
10
86.5208
20
-116.163
11
86.5375
21
-116.143
0
LINE
8
Black
10
86.5375
20
-116.143
11
86.6705
21
-116.031
0
LINE
8
Black
10
86.6705
20
-116.031
11
86.6931
21
-116.018
0
LINE
8
Black
10
86.6931
20
-116.018
11
86.8563
21
-115.959
0
LINE
8
Black
10
86.8563
20
-115.959
11
86.8659
21
-115.957
0
LINE
8
Black
10
86.8659
20
-115.957
11
86.8754
21
-115.955
0
LINE
8
Black
10
86.8754
20
-115.955
11
86.9622
21
-115.947
0
LINE
8
Black
10
86.9622
20
-115.947
11
86.9655
21
-115.947
0
LINE
8
Black
10
86.9655
20
-115.947
11
86.9688
21
-115.947
0
LINE
8
Black
10
86.9688
20
-115.947
11
93.9688
21
-115.947
0
LINE
8
Black
10
93.9688
20
-115.947
11
93.9752
21
-115.948
0
LINE
8
Black
10
86.972
20
-116.097
11
86.8983
21
-116.103
0
LINE
8
Black
10
86.8983
20
-116.103
11
86.7568
21
-116.155
0
LINE
8
Black
10
86.7568
20
-116.155
11
86.6441
21
-116.249
0
LINE
8
Black
10
86.6441
20
-116.249
11
86.5705
21
-116.377
0
LINE
8
Black
10
86.5705
20
-116.377
11
86.5438
21
-116.528
0
LINE
8
Black
10
86.5438
20
-116.528
11
86.5438
21
-124.019
0
LINE
8
Black
10
86.5438
20
-124.019
11
86.5502
21
-124.092
0
LINE
8
Black
10
86.5502
20
-124.092
11
86.6017
21
-124.234
0
LINE
8
Black
10
86.6017
20
-124.234
11
86.6963
21
-124.347
0
LINE
8
Black
10
86.6963
20
-124.347
11
86.8238
21
-124.42
0
LINE
8
Black
10
86.8238
20
-124.42
11
86.9753
21
-124.447
0
LINE
8
Black
10
86.9753
20
-124.447
11
93.9655
21
-124.447
0
LINE
8
Black
10
93.9655
20
-124.447
11
94.0392
21
-124.44
0
LINE
8
Black
10
94.0392
20
-124.44
11
94.1807
21
-124.389
0
LINE
8
Black
10
94.1807
20
-124.389
11
94.2934
21
-124.294
0
LINE
8
Black
10
94.2934
20
-124.294
11
94.367
21
-124.167
0
LINE
8
Black
10
94.367
20
-124.167
11
94.3937
21
-124.015
0
LINE
8
Black
10
94.3937
20
-124.015
11
94.3937
21
-116.525
0
LINE
8
Black
10
94.3937
20
-116.525
11
94.3873
21
-116.451
0
LINE
8
Black
10
94.3873
20
-116.451
11
94.3358
21
-116.31
0
LINE
8
Black
10
94.3358
20
-116.31
11
94.2412
21
-116.197
0
LINE
8
Black
10
94.2412
20
-116.197
11
94.1137
21
-116.124
0
LINE
8
Black
10
94.1137
20
-116.124
11
93.9622
21
-116.097
0
LINE
8
Black
10
93.9622
20
-116.097
11
86.972
21
-116.097
0
LINE
8
Black
10
132.075
20
-115.948
11
132.082
21
-115.948
0
LINE
8
Black
10
132.082
20
-115.948
11
132.253
21
-115.978
0
LINE
8
Black
10
132.253
20
-115.978
11
132.277
21
-115.987
0
LINE
8
Black
10
132.277
20
-115.987
11
132.428
21
-116.074
0
LINE
8
Black
10
132.428
20
-116.074
11
132.448
21
-116.091
0
LINE
8
Black
10
132.448
20
-116.091
11
132.559
21
-116.224
0
LINE
8
Black
10
132.559
20
-116.224
11
132.572
21
-116.246
0
LINE
8
Black
10
132.572
20
-116.246
11
132.632
21
-116.409
0
LINE
8
Black
10
132.632
20
-116.409
11
132.633
21
-116.419
0
LINE
8
Black
10
132.633
20
-116.419
11
132.636
21
-116.429
0
LINE
8
Black
10
132.636
20
-116.429
11
132.643
21
-116.515
0
LINE
8
Black
10
132.643
20
-116.515
11
132.643
21
-116.519
0
LINE
8
Black
10
132.643
20
-116.519
11
132.644
21
-116.522
0
LINE
8
Black
10
132.644
20
-116.522
11
132.644
21
-124.022
0
LINE
8
Black
10
132.644
20
-124.022
11
132.643
21
-124.028
0
LINE
8
Black
10
132.643
20
-124.028
11
132.643
21
-124.035
0
LINE
8
Black
10
132.643
20
-124.035
11
132.612
21
-124.206
0
LINE
8
Black
10
132.612
20
-124.206
11
132.604
21
-124.23
0
LINE
8
Black
10
132.604
20
-124.23
11
132.604
21
-124.23
0
LINE
8
Black
10
132.604
20
-124.23
11
132.517
21
-124.381
0
LINE
8
Black
10
132.517
20
-124.381
11
132.5
21
-124.401
0
LINE
8
Black
10
132.5
20
-124.401
11
132.5
21
-124.401
0
LINE
8
Black
10
132.5
20
-124.401
11
132.367
21
-124.512
0
LINE
8
Black
10
132.367
20
-124.512
11
132.344
21
-124.525
0
LINE
8
Black
10
132.344
20
-124.525
11
132.181
21
-124.585
0
LINE
8
Black
10
132.181
20
-124.585
11
132.172
21
-124.586
0
LINE
8
Black
10
132.172
20
-124.586
11
132.162
21
-124.589
0
LINE
8
Black
10
132.162
20
-124.589
11
132.075
21
-124.597
0
LINE
8
Black
10
132.075
20
-124.597
11
132.072
21
-124.596
0
LINE
8
Black
10
132.072
20
-124.596
11
132.069
21
-124.597
0
LINE
8
Black
10
132.069
20
-124.597
11
125.069
21
-124.597
0
LINE
8
Black
10
125.069
20
-124.597
11
125.062
21
-124.596
0
LINE
8
Black
10
125.062
20
-124.596
11
125.056
21
-124.596
0
LINE
8
Black
10
125.056
20
-124.596
11
124.885
21
-124.566
0
LINE
8
Black
10
124.885
20
-124.566
11
124.86
21
-124.557
0
LINE
8
Black
10
124.86
20
-124.557
11
124.86
21
-124.557
0
LINE
8
Black
10
124.86
20
-124.557
11
124.71
21
-124.47
0
LINE
8
Black
10
124.71
20
-124.47
11
124.69
21
-124.453
0
LINE
8
Black
10
124.69
20
-124.453
11
124.69
21
-124.453
0
LINE
8
Black
10
124.69
20
-124.453
11
124.578
21
-124.32
0
LINE
8
Black
10
124.578
20
-124.32
11
124.565
21
-124.298
0
LINE
8
Black
10
124.565
20
-124.298
11
124.506
21
-124.134
0
LINE
8
Black
10
124.506
20
-124.134
11
124.504
21
-124.125
0
LINE
8
Black
10
124.504
20
-124.125
11
124.502
21
-124.115
0
LINE
8
Black
10
124.502
20
-124.115
11
124.494
21
-124.028
0
LINE
8
Black
10
124.494
20
-124.028
11
124.494
21
-124.025
0
LINE
8
Black
10
124.494
20
-124.025
11
124.494
21
-124.022
0
LINE
8
Black
10
124.494
20
-124.022
11
124.494
21
-116.522
0
LINE
8
Black
10
124.494
20
-116.522
11
124.495
21
-116.515
0
LINE
8
Black
10
124.495
20
-116.515
11
124.495
21
-116.509
0
LINE
8
Black
10
124.495
20
-116.509
11
124.525
21
-116.338
0
LINE
8
Black
10
124.525
20
-116.338
11
124.534
21
-116.313
0
LINE
8
Black
10
124.534
20
-116.313
11
124.621
21
-116.163
0
LINE
8
Black
10
124.621
20
-116.163
11
124.638
21
-116.143
0
LINE
8
Black
10
124.638
20
-116.143
11
124.771
21
-116.031
0
LINE
8
Black
10
124.771
20
-116.031
11
124.793
21
-116.018
0
LINE
8
Black
10
124.793
20
-116.018
11
124.956
21
-115.959
0
LINE
8
Black
10
124.956
20
-115.959
11
124.966
21
-115.957
0
LINE
8
Black
10
124.966
20
-115.957
11
124.975
21
-115.955
0
LINE
8
Black
10
124.975
20
-115.955
11
125.062
21
-115.947
0
LINE
8
Black
10
125.062
20
-115.947
11
125.066
21
-115.947
0
LINE
8
Black
10
125.066
20
-115.947
11
125.069
21
-115.947
0
LINE
8
Black
10
125.069
20
-115.947
11
132.069
21
-115.947
0
LINE
8
Black
10
132.069
20
-115.947
11
132.075
21
-115.948
0
LINE
8
Black
10
125.072
20
-116.097
11
124.998
21
-116.103
0
LINE
8
Black
10
124.998
20
-116.103
11
124.857
21
-116.155
0
LINE
8
Black
10
124.857
20
-116.155
11
124.744
21
-116.249
0
LINE
8
Black
10
124.744
20
-116.249
11
124.67
21
-116.377
0
LINE
8
Black
10
124.67
20
-116.377
11
124.644
21
-116.528
0
LINE
8
Black
10
124.644
20
-116.528
11
124.644
21
-124.019
0
LINE
8
Black
10
124.644
20
-124.019
11
124.65
21
-124.092
0
LINE
8
Black
10
124.65
20
-124.092
11
124.702
21
-124.234
0
LINE
8
Black
10
124.702
20
-124.234
11
124.796
21
-124.347
0
LINE
8
Black
10
124.796
20
-124.347
11
124.924
21
-124.42
0
LINE
8
Black
10
124.924
20
-124.42
11
125.075
21
-124.447
0
LINE
8
Black
10
125.075
20
-124.447
11
132.065
21
-124.447
0
LINE
8
Black
10
132.065
20
-124.447
11
132.139
21
-124.44
0
LINE
8
Black
10
132.139
20
-124.44
11
132.281
21
-124.389
0
LINE
8
Black
10
132.281
20
-124.389
11
132.393
21
-124.294
0
LINE
8
Black
10
132.393
20
-124.294
11
132.467
21
-124.167
0
LINE
8
Black
10
132.467
20
-124.167
11
132.494
21
-124.015
0
LINE
8
Black
10
132.494
20
-124.015
11
132.494
21
-116.525
0
LINE
8
Black
10
132.494
20
-116.525
11
132.487
21
-116.451
0
LINE
8
Black
10
132.487
20
-116.451
11
132.436
21
-116.31
0
LINE
8
Black
10
132.436
20
-116.31
11
132.341
21
-116.197
0
LINE
8
Black
10
132.341
20
-116.197
11
132.214
21
-116.124
0
LINE
8
Black
10
132.214
20
-116.124
11
132.062
21
-116.097
0
LINE
8
Black
10
132.062
20
-116.097
11
125.072
21
-116.097
0
LINE
8
Black
10
113.025
20
-115.948
11
113.032
21
-115.948
0
LINE
8
Black
10
113.032
20
-115.948
11
113.203
21
-115.978
0
LINE
8
Black
10
113.203
20
-115.978
11
113.227
21
-115.987
0
LINE
8
Black
10
113.227
20
-115.987
11
113.378
21
-116.074
0
LINE
8
Black
10
113.378
20
-116.074
11
113.398
21
-116.091
0
LINE
8
Black
10
113.398
20
-116.091
11
113.509
21
-116.224
0
LINE
8
Black
10
113.509
20
-116.224
11
113.522
21
-116.246
0
LINE
8
Black
10
113.522
20
-116.246
11
113.582
21
-116.409
0
LINE
8
Black
10
113.582
20
-116.409
11
113.583
21
-116.419
0
LINE
8
Black
10
113.583
20
-116.419
11
113.586
21
-116.429
0
LINE
8
Black
10
113.586
20
-116.429
11
113.593
21
-116.515
0
LINE
8
Black
10
113.593
20
-116.515
11
113.593
21
-116.519
0
LINE
8
Black
10
113.593
20
-116.519
11
113.594
21
-116.522
0
LINE
8
Black
10
113.594
20
-116.522
11
113.594
21
-124.022
0
LINE
8
Black
10
113.594
20
-124.022
11
113.593
21
-124.028
0
LINE
8
Black
10
113.593
20
-124.028
11
113.593
21
-124.035
0
LINE
8
Black
10
113.593
20
-124.035
11
113.562
21
-124.206
0
LINE
8
Black
10
113.562
20
-124.206
11
113.554
21
-124.23
0
LINE
8
Black
10
113.554
20
-124.23
11
113.554
21
-124.23
0
LINE
8
Black
10
113.554
20
-124.23
11
113.467
21
-124.381
0
LINE
8
Black
10
113.467
20
-124.381
11
113.45
21
-124.401
0
LINE
8
Black
10
113.45
20
-124.401
11
113.45
21
-124.401
0
LINE
8
Black
10
113.45
20
-124.401
11
113.317
21
-124.512
0
LINE
8
Black
10
113.317
20
-124.512
11
113.294
21
-124.525
0
LINE
8
Black
10
113.294
20
-124.525
11
113.131
21
-124.585
0
LINE
8
Black
10
113.131
20
-124.585
11
113.122
21
-124.586
0
LINE
8
Black
10
113.122
20
-124.586
11
113.112
21
-124.589
0
LINE
8
Black
10
113.112
20
-124.589
11
113.025
21
-124.597
0
LINE
8
Black
10
113.025
20
-124.597
11
113.022
21
-124.596
0
LINE
8
Black
10
113.022
20
-124.596
11
113.019
21
-124.597
0
LINE
8
Black
10
113.019
20
-124.597
11
106.019
21
-124.597
0
LINE
8
Black
10
106.019
20
-124.597
11
106.012
21
-124.596
0
LINE
8
Black
10
106.012
20
-124.596
11
106.006
21
-124.596
0
LINE
8
Black
10
106.006
20
-124.596
11
105.835
21
-124.566
0
LINE
8
Black
10
105.835
20
-124.566
11
105.81
21
-124.557
0
LINE
8
Black
10
105.81
20
-124.557
11
105.81
21
-124.557
0
LINE
8
Black
10
105.81
20
-124.557
11
105.66
21
-124.47
0
LINE
8
Black
10
105.66
20
-124.47
11
105.64
21
-124.453
0
LINE
8
Black
10
105.64
20
-124.453
11
105.64
21
-124.453
0
LINE
8
Black
10
105.64
20
-124.453
11
105.528
21
-124.32
0
LINE
8
Black
10
105.528
20
-124.32
11
105.515
21
-124.298
0
LINE
8
Black
10
105.515
20
-124.298
11
105.456
21
-124.134
0
LINE
8
Black
10
105.456
20
-124.134
11
105.454
21
-124.125
0
LINE
8
Black
10
105.454
20
-124.125
11
105.452
21
-124.115
0
LINE
8
Black
10
105.452
20
-124.115
11
105.444
21
-124.028
0
LINE
8
Black
10
105.444
20
-124.028
11
105.444
21
-124.025
0
LINE
8
Black
10
105.444
20
-124.025
11
105.444
21
-124.022
0
LINE
8
Black
10
105.444
20
-124.022
11
105.444
21
-116.522
0
LINE
8
Black
10
105.444
20
-116.522
11
105.445
21
-116.515
0
LINE
8
Black
10
105.445
20
-116.515
11
105.445
21
-116.509
0
LINE
8
Black
10
105.445
20
-116.509
11
105.475
21
-116.338
0
LINE
8
Black
10
105.475
20
-116.338
11
105.484
21
-116.313
0
LINE
8
Black
10
105.484
20
-116.313
11
105.571
21
-116.163
0
LINE
8
Black
10
105.571
20
-116.163
11
105.588
21
-116.143
0
LINE
8
Black
10
105.588
20
-116.143
11
105.721
21
-116.031
0
LINE
8
Black
10
105.721
20
-116.031
11
105.743
21
-116.018
0
LINE
8
Black
10
105.743
20
-116.018
11
105.906
21
-115.959
0
LINE
8
Black
10
105.906
20
-115.959
11
105.916
21
-115.957
0
LINE
8
Black
10
105.916
20
-115.957
11
105.925
21
-115.955
0
LINE
8
Black
10
105.925
20
-115.955
11
106.012
21
-115.947
0
LINE
8
Black
10
106.012
20
-115.947
11
106.016
21
-115.947
0
LINE
8
Black
10
106.016
20
-115.947
11
106.019
21
-115.947
0
LINE
8
Black
10
106.019
20
-115.947
11
113.019
21
-115.947
0
LINE
8
Black
10
113.019
20
-115.947
11
113.025
21
-115.948
0
LINE
8
Black
10
106.022
20
-116.097
11
105.948
21
-116.103
0
LINE
8
Black
10
105.948
20
-116.103
11
105.807
21
-116.155
0
LINE
8
Black
10
105.807
20
-116.155
11
105.694
21
-116.249
0
LINE
8
Black
10
105.694
20
-116.249
11
105.62
21
-116.377
0
LINE
8
Black
10
105.62
20
-116.377
11
105.594
21
-116.528
0
LINE
8
Black
10
105.594
20
-116.528
11
105.594
21
-124.019
0
LINE
8
Black
10
105.594
20
-124.019
11
105.6
21
-124.092
0
LINE
8
Black
10
105.6
20
-124.092
11
105.652
21
-124.234
0
LINE
8
Black
10
105.652
20
-124.234
11
105.746
21
-124.347
0
LINE
8
Black
10
105.746
20
-124.347
11
105.874
21
-124.42
0
LINE
8
Black
10
105.874
20
-124.42
11
106.025
21
-124.447
0
LINE
8
Black
10
106.025
20
-124.447
11
113.015
21
-124.447
0
LINE
8
Black
10
113.015
20
-124.447
11
113.089
21
-124.44
0
LINE
8
Black
10
113.089
20
-124.44
11
113.231
21
-124.389
0
LINE
8
Black
10
113.231
20
-124.389
11
113.343
21
-124.294
0
LINE
8
Black
10
113.343
20
-124.294
11
113.417
21
-124.167
0
LINE
8
Black
10
113.417
20
-124.167
11
113.444
21
-124.015
0
LINE
8
Black
10
113.444
20
-124.015
11
113.444
21
-116.525
0
LINE
8
Black
10
113.444
20
-116.525
11
113.437
21
-116.451
0
LINE
8
Black
10
113.437
20
-116.451
11
113.386
21
-116.31
0
LINE
8
Black
10
113.386
20
-116.31
11
113.291
21
-116.197
0
LINE
8
Black
10
113.291
20
-116.197
11
113.164
21
-116.124
0
LINE
8
Black
10
113.164
20
-116.124
11
113.012
21
-116.097
0
LINE
8
Black
10
113.012
20
-116.097
11
106.022
21
-116.097
0
LINE
8
Black
10
151.125
20
-115.948
11
151.132
21
-115.948
0
LINE
8
Black
10
151.132
20
-115.948
11
151.303
21
-115.978
0
LINE
8
Black
10
151.303
20
-115.978
11
151.327
21
-115.987
0
LINE
8
Black
10
151.327
20
-115.987
11
151.478
21
-116.074
0
LINE
8
Black
10
151.478
20
-116.074
11
151.498
21
-116.091
0
LINE
8
Black
10
151.498
20
-116.091
11
151.609
21
-116.224
0
LINE
8
Black
10
151.609
20
-116.224
11
151.622
21
-116.246
0
LINE
8
Black
10
151.622
20
-116.246
11
151.682
21
-116.409
0
LINE
8
Black
10
151.682
20
-116.409
11
151.683
21
-116.419
0
LINE
8
Black
10
151.683
20
-116.419
11
151.686
21
-116.429
0
LINE
8
Black
10
151.686
20
-116.429
11
151.693
21
-116.515
0
LINE
8
Black
10
151.693
20
-116.515
11
151.693
21
-116.519
0
LINE
8
Black
10
151.693
20
-116.519
11
151.694
21
-116.522
0
LINE
8
Black
10
151.694
20
-116.522
11
151.694
21
-124.022
0
LINE
8
Black
10
151.694
20
-124.022
11
151.693
21
-124.028
0
LINE
8
Black
10
151.693
20
-124.028
11
151.693
21
-124.035
0
LINE
8
Black
10
151.693
20
-124.035
11
151.662
21
-124.206
0
LINE
8
Black
10
151.662
20
-124.206
11
151.654
21
-124.23
0
LINE
8
Black
10
151.654
20
-124.23
11
151.654
21
-124.23
0
LINE
8
Black
10
151.654
20
-124.23
11
151.567
21
-124.381
0
LINE
8
Black
10
151.567
20
-124.381
11
151.55
21
-124.401
0
LINE
8
Black
10
151.55
20
-124.401
11
151.55
21
-124.401
0
LINE
8
Black
10
151.55
20
-124.401
11
151.417
21
-124.512
0
LINE
8
Black
10
151.417
20
-124.512
11
151.394
21
-124.525
0
LINE
8
Black
10
151.394
20
-124.525
11
151.231
21
-124.585
0
LINE
8
Black
10
151.231
20
-124.585
11
151.222
21
-124.586
0
LINE
8
Black
10
151.222
20
-124.586
11
151.212
21
-124.589
0
LINE
8
Black
10
151.212
20
-124.589
11
151.125
21
-124.597
0
LINE
8
Black
10
151.125
20
-124.597
11
151.122
21
-124.596
0
LINE
8
Black
10
151.122
20
-124.596
11
151.119
21
-124.597
0
LINE
8
Black
10
151.119
20
-124.597
11
144.119
21
-124.597
0
LINE
8
Black
10
144.119
20
-124.597
11
144.112
21
-124.596
0
LINE
8
Black
10
144.112
20
-124.596
11
144.106
21
-124.596
0
LINE
8
Black
10
144.106
20
-124.596
11
143.935
21
-124.566
0
LINE
8
Black
10
143.935
20
-124.566
11
143.91
21
-124.557
0
LINE
8
Black
10
143.91
20
-124.557
11
143.91
21
-124.557
0
LINE
8
Black
10
143.91
20
-124.557
11
143.76
21
-124.47
0
LINE
8
Black
10
143.76
20
-124.47
11
143.74
21
-124.453
0
LINE
8
Black
10
143.74
20
-124.453
11
143.74
21
-124.453
0
LINE
8
Black
10
143.74
20
-124.453
11
143.628
21
-124.32
0
LINE
8
Black
10
143.628
20
-124.32
11
143.615
21
-124.298
0
LINE
8
Black
10
143.615
20
-124.298
11
143.556
21
-124.134
0
LINE
8
Black
10
143.556
20
-124.134
11
143.554
21
-124.125
0
LINE
8
Black
10
143.554
20
-124.125
11
143.552
21
-124.115
0
LINE
8
Black
10
143.552
20
-124.115
11
143.544
21
-124.028
0
LINE
8
Black
10
143.544
20
-124.028
11
143.544
21
-124.025
0
LINE
8
Black
10
143.544
20
-124.025
11
143.544
21
-124.022
0
LINE
8
Black
10
143.544
20
-124.022
11
143.544
21
-116.522
0
LINE
8
Black
10
143.544
20
-116.522
11
143.545
21
-116.515
0
LINE
8
Black
10
143.545
20
-116.515
11
143.545
21
-116.509
0
LINE
8
Black
10
143.545
20
-116.509
11
143.575
21
-116.338
0
LINE
8
Black
10
143.575
20
-116.338
11
143.584
21
-116.313
0
LINE
8
Black
10
143.584
20
-116.313
11
143.671
21
-116.163
0
LINE
8
Black
10
143.671
20
-116.163
11
143.688
21
-116.143
0
LINE
8
Black
10
143.688
20
-116.143
11
143.821
21
-116.031
0
LINE
8
Black
10
143.821
20
-116.031
11
143.843
21
-116.018
0
LINE
8
Black
10
143.843
20
-116.018
11
144.006
21
-115.959
0
LINE
8
Black
10
144.006
20
-115.959
11
144.016
21
-115.957
0
LINE
8
Black
10
144.016
20
-115.957
11
144.025
21
-115.955
0
LINE
8
Black
10
144.025
20
-115.955
11
144.112
21
-115.947
0
LINE
8
Black
10
144.112
20
-115.947
11
144.116
21
-115.947
0
LINE
8
Black
10
144.116
20
-115.947
11
144.119
21
-115.947
0
LINE
8
Black
10
144.119
20
-115.947
11
151.119
21
-115.947
0
LINE
8
Black
10
151.119
20
-115.947
11
151.125
21
-115.948
0
LINE
8
Black
10
144.122
20
-116.097
11
144.048
21
-116.103
0
LINE
8
Black
10
144.048
20
-116.103
11
143.907
21
-116.155
0
LINE
8
Black
10
143.907
20
-116.155
11
143.794
21
-116.249
0
LINE
8
Black
10
143.794
20
-116.249
11
143.72
21
-116.377
0
LINE
8
Black
10
143.72
20
-116.377
11
143.694
21
-116.528
0
LINE
8
Black
10
143.694
20
-116.528
11
143.694
21
-124.019
0
LINE
8
Black
10
143.694
20
-124.019
11
143.7
21
-124.092
0
LINE
8
Black
10
143.7
20
-124.092
11
143.752
21
-124.234
0
LINE
8
Black
10
143.752
20
-124.234
11
143.846
21
-124.347
0
LINE
8
Black
10
143.846
20
-124.347
11
143.974
21
-124.42
0
LINE
8
Black
10
143.974
20
-124.42
11
144.125
21
-124.447
0
LINE
8
Black
10
144.125
20
-124.447
11
151.115
21
-124.447
0
LINE
8
Black
10
151.115
20
-124.447
11
151.189
21
-124.44
0
LINE
8
Black
10
151.189
20
-124.44
11
151.331
21
-124.389
0
LINE
8
Black
10
151.331
20
-124.389
11
151.443
21
-124.294
0
LINE
8
Black
10
151.443
20
-124.294
11
151.517
21
-124.167
0
LINE
8
Black
10
151.517
20
-124.167
11
151.544
21
-124.015
0
LINE
8
Black
10
151.544
20
-124.015
11
151.544
21
-116.525
0
LINE
8
Black
10
151.544
20
-116.525
11
151.537
21
-116.451
0
LINE
8
Black
10
151.537
20
-116.451
11
151.486
21
-116.31
0
LINE
8
Black
10
151.486
20
-116.31
11
151.391
21
-116.197
0
LINE
8
Black
10
151.391
20
-116.197
11
151.264
21
-116.124
0
LINE
8
Black
10
151.264
20
-116.124
11
151.112
21
-116.097
0
LINE
8
Black
10
151.112
20
-116.097
11
144.122
21
-116.097
0
LINE
8
Black
10
93.9752
20
-96.898
11
93.9818
21
-96.898
0
LINE
8
Black
10
93.9818
20
-96.898
11
94.1528
21
-96.9282
0
LINE
8
Black
10
94.1528
20
-96.9282
11
94.1773
21
-96.9371
0
LINE
8
Black
10
94.1773
20
-96.9371
11
94.3276
21
-97.0239
0
LINE
8
Black
10
94.3276
20
-97.0239
11
94.3476
21
-97.0406
0
LINE
8
Black
10
94.3476
20
-97.0406
11
94.4592
21
-97.1737
0
LINE
8
Black
10
94.4592
20
-97.1737
11
94.4722
21
-97.1962
0
LINE
8
Black
10
94.4722
20
-97.1962
11
94.5316
21
-97.3594
0
LINE
8
Black
10
94.5316
20
-97.3594
11
94.5333
21
-97.369
0
LINE
8
Black
10
94.5333
20
-97.369
11
94.5359
21
-97.3785
0
LINE
8
Black
10
94.5359
20
-97.3785
11
94.5435
21
-97.4653
0
LINE
8
Black
10
94.5435
20
-97.4653
11
94.5432
21
-97.4686
0
LINE
8
Black
10
94.5432
20
-97.4686
11
94.5437
21
-97.4719
0
LINE
8
Black
10
94.5437
20
-97.4719
11
94.5437
21
-104.972
0
LINE
8
Black
10
94.5437
20
-104.972
11
94.5426
21
-104.978
0
LINE
8
Black
10
94.5426
20
-104.978
11
94.5426
21
-104.985
0
LINE
8
Black
10
94.5426
20
-104.985
11
94.5125
21
-105.156
0
LINE
8
Black
10
94.5125
20
-105.156
11
94.5035
21
-105.18
0
LINE
8
Black
10
94.5035
20
-105.18
11
94.5035
21
-105.18
0
LINE
8
Black
10
94.5035
20
-105.18
11
94.4167
21
-105.331
0
LINE
8
Black
10
94.4167
20
-105.331
11
94.4
21
-105.351
0
LINE
8
Black
10
94.4
20
-105.351
11
94.4
21
-105.351
0
LINE
8
Black
10
94.4
20
-105.351
11
94.267
21
-105.462
0
LINE
8
Black
10
94.267
20
-105.462
11
94.2444
21
-105.475
0
LINE
8
Black
10
94.2444
20
-105.475
11
94.0812
21
-105.535
0
LINE
8
Black
10
94.0812
20
-105.535
11
94.0716
21
-105.536
0
LINE
8
Black
10
94.0716
20
-105.536
11
94.0621
21
-105.539
0
LINE
8
Black
10
94.0621
20
-105.539
11
93.9753
21
-105.547
0
LINE
8
Black
10
93.9753
20
-105.547
11
93.972
21
-105.546
0
LINE
8
Black
10
93.972
20
-105.546
11
93.9688
21
-105.547
0
LINE
8
Black
10
93.9688
20
-105.547
11
86.9688
21
-105.547
0
LINE
8
Black
10
86.9688
20
-105.547
11
86.9623
21
-105.546
0
LINE
8
Black
10
86.9623
20
-105.546
11
86.9557
21
-105.546
0
LINE
8
Black
10
86.9557
20
-105.546
11
86.7847
21
-105.516
0
LINE
8
Black
10
86.7847
20
-105.516
11
86.7602
21
-105.507
0
LINE
8
Black
10
86.7602
20
-105.507
11
86.7602
21
-105.507
0
LINE
8
Black
10
86.7602
20
-105.507
11
86.6099
21
-105.42
0
LINE
8
Black
10
86.6099
20
-105.42
11
86.5899
21
-105.403
0
LINE
8
Black
10
86.5899
20
-105.403
11
86.5899
21
-105.403
0
LINE
8
Black
10
86.5899
20
-105.403
11
86.4783
21
-105.27
0
LINE
8
Black
10
86.4783
20
-105.27
11
86.4653
21
-105.248
0
LINE
8
Black
10
86.4653
20
-105.248
11
86.4059
21
-105.084
0
LINE
8
Black
10
86.4059
20
-105.084
11
86.4042
21
-105.075
0
LINE
8
Black
10
86.4042
20
-105.075
11
86.4016
21
-105.065
0
LINE
8
Black
10
86.4016
20
-105.065
11
86.394
21
-104.978
0
LINE
8
Black
10
86.394
20
-104.978
11
86.3943
21
-104.975
0
LINE
8
Black
10
86.3943
20
-104.975
11
86.3937
21
-104.972
0
LINE
8
Black
10
86.3937
20
-104.972
11
86.3937
21
-97.4719
0
LINE
8
Black
10
86.3937
20
-97.4719
11
86.3949
21
-97.4654
0
LINE
8
Black
10
86.3949
20
-97.4654
11
86.3949
21
-97.4589
0
LINE
8
Black
10
86.3949
20
-97.4589
11
86.425
21
-97.2878
0
LINE
8
Black
10
86.425
20
-97.2878
11
86.434
21
-97.2634
0
LINE
8
Black
10
86.434
20
-97.2634
11
86.5208
21
-97.113
0
LINE
8
Black
10
86.5208
20
-97.113
11
86.5375
21
-97.093
0
LINE
8
Black
10
86.5375
20
-97.093
11
86.6705
21
-96.9814
0
LINE
8
Black
10
86.6705
20
-96.9814
11
86.6931
21
-96.9684
0
LINE
8
Black
10
86.6931
20
-96.9684
11
86.8563
21
-96.909
0
LINE
8
Black
10
86.8563
20
-96.909
11
86.8659
21
-96.9073
0
LINE
8
Black
10
86.8659
20
-96.9073
11
86.8754
21
-96.9048
0
LINE
8
Black
10
86.8754
20
-96.9048
11
86.9622
21
-96.8972
0
LINE
8
Black
10
86.9622
20
-96.8972
11
86.9655
21
-96.8974
0
LINE
8
Black
10
86.9655
20
-96.8974
11
86.9688
21
-96.8969
0
LINE
8
Black
10
86.9688
20
-96.8969
11
93.9688
21
-96.8969
0
LINE
8
Black
10
93.9688
20
-96.8969
11
93.9752
21
-96.898
0
LINE
8
Black
10
86.972
20
-97.0469
11
86.8983
21
-97.0533
0
LINE
8
Black
10
86.8983
20
-97.0533
11
86.7568
21
-97.1048
0
LINE
8
Black
10
86.7568
20
-97.1048
11
86.6441
21
-97.1994
0
LINE
8
Black
10
86.6441
20
-97.1994
11
86.5705
21
-97.3269
0
LINE
8
Black
10
86.5705
20
-97.3269
11
86.5438
21
-97.4784
0
LINE
8
Black
10
86.5438
20
-97.4784
11
86.5438
21
-104.969
0
LINE
8
Black
10
86.5438
20
-104.969
11
86.5502
21
-105.042
0
LINE
8
Black
10
86.5502
20
-105.042
11
86.6017
21
-105.184
0
LINE
8
Black
10
86.6017
20
-105.184
11
86.6963
21
-105.297
0
LINE
8
Black
10
86.6963
20
-105.297
11
86.8238
21
-105.37
0
LINE
8
Black
10
86.8238
20
-105.37
11
86.9753
21
-105.397
0
LINE
8
Black
10
86.9753
20
-105.397
11
93.9655
21
-105.397
0
LINE
8
Black
10
93.9655
20
-105.397
11
94.0392
21
-105.39
0
LINE
8
Black
10
94.0392
20
-105.39
11
94.1807
21
-105.339
0
LINE
8
Black
10
94.1807
20
-105.339
11
94.2934
21
-105.244
0
LINE
8
Black
10
94.2934
20
-105.244
11
94.367
21
-105.117
0
LINE
8
Black
10
94.367
20
-105.117
11
94.3937
21
-104.965
0
LINE
8
Black
10
94.3937
20
-104.965
11
94.3937
21
-97.4752
0
LINE
8
Black
10
94.3937
20
-97.4752
11
94.3873
21
-97.4014
0
LINE
8
Black
10
94.3873
20
-97.4014
11
94.3358
21
-97.26
0
LINE
8
Black
10
94.3358
20
-97.26
11
94.2412
21
-97.1472
0
LINE
8
Black
10
94.2412
20
-97.1472
11
94.1137
21
-97.0736
0
LINE
8
Black
10
94.1137
20
-97.0736
11
93.9622
21
-97.0469
0
LINE
8
Black
10
93.9622
20
-97.0469
11
86.972
21
-97.0469
0
LINE
8
Black
10
170.175
20
-96.898
11
170.182
21
-96.898
0
LINE
8
Black
10
170.182
20
-96.898
11
170.353
21
-96.9282
0
LINE
8
Black
10
170.353
20
-96.9282
11
170.377
21
-96.9371
0
LINE
8
Black
10
170.377
20
-96.9371
11
170.528
21
-97.0239
0
LINE
8
Black
10
170.528
20
-97.0239
11
170.548
21
-97.0406
0
LINE
8
Black
10
170.548
20
-97.0406
11
170.659
21
-97.1737
0
LINE
8
Black
10
170.659
20
-97.1737
11
170.672
21
-97.1962
0
LINE
8
Black
10
170.672
20
-97.1962
11
170.732
21
-97.3594
0
LINE
8
Black
10
170.732
20
-97.3594
11
170.733
21
-97.369
0
LINE
8
Black
10
170.733
20
-97.369
11
170.736
21
-97.3785
0
LINE
8
Black
10
170.736
20
-97.3785
11
170.743
21
-97.4653
0
LINE
8
Black
10
170.743
20
-97.4653
11
170.743
21
-97.4686
0
LINE
8
Black
10
170.743
20
-97.4686
11
170.744
21
-97.4719
0
LINE
8
Black
10
170.744
20
-97.4719
11
170.744
21
-104.972
0
LINE
8
Black
10
170.744
20
-104.972
11
170.743
21
-104.978
0
LINE
8
Black
10
170.743
20
-104.978
11
170.743
21
-104.985
0
LINE
8
Black
10
170.743
20
-104.985
11
170.712
21
-105.156
0
LINE
8
Black
10
170.712
20
-105.156
11
170.704
21
-105.18
0
LINE
8
Black
10
170.704
20
-105.18
11
170.704
21
-105.18
0
LINE
8
Black
10
170.704
20
-105.18
11
170.617
21
-105.331
0
LINE
8
Black
10
170.617
20
-105.331
11
170.6
21
-105.351
0
LINE
8
Black
10
170.6
20
-105.351
11
170.6
21
-105.351
0
LINE
8
Black
10
170.6
20
-105.351
11
170.467
21
-105.462
0
LINE
8
Black
10
170.467
20
-105.462
11
170.444
21
-105.475
0
LINE
8
Black
10
170.444
20
-105.475
11
170.281
21
-105.535
0
LINE
8
Black
10
170.281
20
-105.535
11
170.272
21
-105.536
0
LINE
8
Black
10
170.272
20
-105.536
11
170.262
21
-105.539
0
LINE
8
Black
10
170.262
20
-105.539
11
170.175
21
-105.547
0
LINE
8
Black
10
170.175
20
-105.547
11
170.172
21
-105.546
0
LINE
8
Black
10
170.172
20
-105.546
11
170.169
21
-105.547
0
LINE
8
Black
10
170.169
20
-105.547
11
163.169
21
-105.547
0
LINE
8
Black
10
163.169
20
-105.547
11
163.162
21
-105.546
0
LINE
8
Black
10
163.162
20
-105.546
11
163.156
21
-105.546
0
LINE
8
Black
10
163.156
20
-105.546
11
162.985
21
-105.516
0
LINE
8
Black
10
162.985
20
-105.516
11
162.96
21
-105.507
0
LINE
8
Black
10
162.96
20
-105.507
11
162.96
21
-105.507
0
LINE
8
Black
10
162.96
20
-105.507
11
162.81
21
-105.42
0
LINE
8
Black
10
162.81
20
-105.42
11
162.79
21
-105.403
0
LINE
8
Black
10
162.79
20
-105.403
11
162.79
21
-105.403
0
LINE
8
Black
10
162.79
20
-105.403
11
162.678
21
-105.27
0
LINE
8
Black
10
162.678
20
-105.27
11
162.665
21
-105.248
0
LINE
8
Black
10
162.665
20
-105.248
11
162.606
21
-105.084
0
LINE
8
Black
10
162.606
20
-105.084
11
162.604
21
-105.075
0
LINE
8
Black
10
162.604
20
-105.075
11
162.602
21
-105.065
0
LINE
8
Black
10
162.602
20
-105.065
11
162.594
21
-104.978
0
LINE
8
Black
10
162.594
20
-104.978
11
162.594
21
-104.975
0
LINE
8
Black
10
162.594
20
-104.975
11
162.594
21
-104.972
0
LINE
8
Black
10
162.594
20
-104.972
11
162.594
21
-97.4719
0
LINE
8
Black
10
162.594
20
-97.4719
11
162.595
21
-97.4654
0
LINE
8
Black
10
162.595
20
-97.4654
11
162.595
21
-97.4589
0
LINE
8
Black
10
162.595
20
-97.4589
11
162.625
21
-97.2878
0
LINE
8
Black
10
162.625
20
-97.2878
11
162.634
21
-97.2634
0
LINE
8
Black
10
162.634
20
-97.2634
11
162.721
21
-97.113
0
LINE
8
Black
10
162.721
20
-97.113
11
162.738
21
-97.093
0
LINE
8
Black
10
162.738
20
-97.093
11
162.871
21
-96.9814
0
LINE
8
Black
10
162.871
20
-96.9814
11
162.893
21
-96.9684
0
LINE
8
Black
10
162.893
20
-96.9684
11
163.056
21
-96.909
0
LINE
8
Black
10
163.056
20
-96.909
11
163.066
21
-96.9073
0
LINE
8
Black
10
163.066
20
-96.9073
11
163.075
21
-96.9048
0
LINE
8
Black
10
163.075
20
-96.9048
11
163.162
21
-96.8972
0
LINE
8
Black
10
163.162
20
-96.8972
11
163.166
21
-96.8974
0
LINE
8
Black
10
163.166
20
-96.8974
11
163.169
21
-96.8969
0
LINE
8
Black
10
163.169
20
-96.8969
11
170.169
21
-96.8969
0
LINE
8
Black
10
170.169
20
-96.8969
11
170.175
21
-96.898
0
LINE
8
Black
10
163.172
20
-97.0469
11
163.098
21
-97.0533
0
LINE
8
Black
10
163.098
20
-97.0533
11
162.957
21
-97.1048
0
LINE
8
Black
10
162.957
20
-97.1048
11
162.844
21
-97.1994
0
LINE
8
Black
10
162.844
20
-97.1994
11
162.77
21
-97.3269
0
LINE
8
Black
10
162.77
20
-97.3269
11
162.744
21
-97.4784
0
LINE
8
Black
10
162.744
20
-97.4784
11
162.744
21
-104.969
0
LINE
8
Black
10
162.744
20
-104.969
11
162.75
21
-105.042
0
LINE
8
Black
10
162.75
20
-105.042
11
162.802
21
-105.184
0
LINE
8
Black
10
162.802
20
-105.184
11
162.896
21
-105.297
0
LINE
8
Black
10
162.896
20
-105.297
11
163.024
21
-105.37
0
LINE
8
Black
10
163.024
20
-105.37
11
163.175
21
-105.397
0
LINE
8
Black
10
163.175
20
-105.397
11
170.165
21
-105.397
0
LINE
8
Black
10
170.165
20
-105.397
11
170.239
21
-105.39
0
LINE
8
Black
10
170.239
20
-105.39
11
170.381
21
-105.339
0
LINE
8
Black
10
170.381
20
-105.339
11
170.493
21
-105.244
0
LINE
8
Black
10
170.493
20
-105.244
11
170.567
21
-105.117
0
LINE
8
Black
10
170.567
20
-105.117
11
170.594
21
-104.965
0
LINE
8
Black
10
170.594
20
-104.965
11
170.594
21
-97.4752
0
LINE
8
Black
10
170.594
20
-97.4752
11
170.587
21
-97.4014
0
LINE
8
Black
10
170.587
20
-97.4014
11
170.536
21
-97.26
0
LINE
8
Black
10
170.536
20
-97.26
11
170.441
21
-97.1472
0
LINE
8
Black
10
170.441
20
-97.1472
11
170.314
21
-97.0736
0
LINE
8
Black
10
170.314
20
-97.0736
11
170.162
21
-97.0469
0
LINE
8
Black
10
170.162
20
-97.0469
11
163.172
21
-97.0469
0
LINE
8
Black
10
170.175
20
-77.848
11
170.182
21
-77.848
0
LINE
8
Black
10
170.182
20
-77.848
11
170.353
21
-77.8782
0
LINE
8
Black
10
170.353
20
-77.8782
11
170.377
21
-77.8871
0
LINE
8
Black
10
170.377
20
-77.8871
11
170.528
21
-77.9739
0
LINE
8
Black
10
170.528
20
-77.9739
11
170.548
21
-77.9906
0
LINE
8
Black
10
170.548
20
-77.9906
11
170.659
21
-78.1237
0
LINE
8
Black
10
170.659
20
-78.1237
11
170.672
21
-78.1462
0
LINE
8
Black
10
170.672
20
-78.1462
11
170.732
21
-78.3094
0
LINE
8
Black
10
170.732
20
-78.3094
11
170.733
21
-78.319
0
LINE
8
Black
10
170.733
20
-78.319
11
170.736
21
-78.3285
0
LINE
8
Black
10
170.736
20
-78.3285
11
170.743
21
-78.4153
0
LINE
8
Black
10
170.743
20
-78.4153
11
170.743
21
-78.4186
0
LINE
8
Black
10
170.743
20
-78.4186
11
170.744
21
-78.4219
0
LINE
8
Black
10
170.744
20
-78.4219
11
170.744
21
-85.9219
0
LINE
8
Black
10
170.744
20
-85.9219
11
170.743
21
-85.9283
0
LINE
8
Black
10
170.743
20
-85.9283
11
170.743
21
-85.9349
0
LINE
8
Black
10
170.743
20
-85.9349
11
170.712
21
-86.1059
0
LINE
8
Black
10
170.712
20
-86.1059
11
170.704
21
-86.1304
0
LINE
8
Black
10
170.704
20
-86.1304
11
170.704
21
-86.1304
0
LINE
8
Black
10
170.704
20
-86.1304
11
170.617
21
-86.2808
0
LINE
8
Black
10
170.617
20
-86.2808
11
170.6
21
-86.3007
0
LINE
8
Black
10
170.6
20
-86.3007
11
170.6
21
-86.3007
0
LINE
8
Black
10
170.6
20
-86.3007
11
170.467
21
-86.4123
0
LINE
8
Black
10
170.467
20
-86.4123
11
170.444
21
-86.4254
0
LINE
8
Black
10
170.444
20
-86.4254
11
170.281
21
-86.4848
0
LINE
8
Black
10
170.281
20
-86.4848
11
170.272
21
-86.4865
0
LINE
8
Black
10
170.272
20
-86.4865
11
170.262
21
-86.489
0
LINE
8
Black
10
170.262
20
-86.489
11
170.175
21
-86.4966
0
LINE
8
Black
10
170.175
20
-86.4966
11
170.172
21
-86.4963
0
LINE
8
Black
10
170.172
20
-86.4963
11
170.169
21
-86.4969
0
LINE
8
Black
10
170.169
20
-86.4969
11
163.169
21
-86.4969
0
LINE
8
Black
10
163.169
20
-86.4969
11
163.162
21
-86.4957
0
LINE
8
Black
10
163.162
20
-86.4957
11
163.156
21
-86.4957
0
LINE
8
Black
10
163.156
20
-86.4957
11
162.985
21
-86.4656
0
LINE
8
Black
10
162.985
20
-86.4656
11
162.96
21
-86.4567
0
LINE
8
Black
10
162.96
20
-86.4567
11
162.96
21
-86.4567
0
LINE
8
Black
10
162.96
20
-86.4567
11
162.81
21
-86.3698
0
LINE
8
Black
10
162.81
20
-86.3698
11
162.79
21
-86.3531
0
LINE
8
Black
10
162.79
20
-86.3531
11
162.79
21
-86.3531
0
LINE
8
Black
10
162.79
20
-86.3531
11
162.678
21
-86.2201
0
LINE
8
Black
10
162.678
20
-86.2201
11
162.665
21
-86.1975
0
LINE
8
Black
10
162.665
20
-86.1975
11
162.606
21
-86.0343
0
LINE
8
Black
10
162.606
20
-86.0343
11
162.604
21
-86.0247
0
LINE
8
Black
10
162.604
20
-86.0247
11
162.602
21
-86.0152
0
LINE
8
Black
10
162.602
20
-86.0152
11
162.594
21
-85.9284
0
LINE
8
Black
10
162.594
20
-85.9284
11
162.594
21
-85.9251
0
LINE
8
Black
10
162.594
20
-85.9251
11
162.594
21
-85.9219
0
LINE
8
Black
10
162.594
20
-85.9219
11
162.594
21
-78.4219
0
LINE
8
Black
10
162.594
20
-78.4219
11
162.595
21
-78.4154
0
LINE
8
Black
10
162.595
20
-78.4154
11
162.595
21
-78.4089
0
LINE
8
Black
10
162.595
20
-78.4089
11
162.625
21
-78.2378
0
LINE
8
Black
10
162.625
20
-78.2378
11
162.634
21
-78.2134
0
LINE
8
Black
10
162.634
20
-78.2134
11
162.721
21
-78.063
0
LINE
8
Black
10
162.721
20
-78.063
11
162.738
21
-78.043
0
LINE
8
Black
10
162.738
20
-78.043
11
162.871
21
-77.9314
0
LINE
8
Black
10
162.871
20
-77.9314
11
162.893
21
-77.9184
0
LINE
8
Black
10
162.893
20
-77.9184
11
163.056
21
-77.859
0
LINE
8
Black
10
163.056
20
-77.859
11
163.066
21
-77.8573
0
LINE
8
Black
10
163.066
20
-77.8573
11
163.075
21
-77.8548
0
LINE
8
Black
10
163.075
20
-77.8548
11
163.162
21
-77.8472
0
LINE
8
Black
10
163.162
20
-77.8472
11
163.166
21
-77.8474
0
LINE
8
Black
10
163.166
20
-77.8474
11
163.169
21
-77.8469
0
LINE
8
Black
10
163.169
20
-77.8469
11
170.169
21
-77.8469
0
LINE
8
Black
10
170.169
20
-77.8469
11
170.175
21
-77.848
0
LINE
8
Black
10
163.172
20
-77.9969
11
163.098
21
-78.0033
0
LINE
8
Black
10
163.098
20
-78.0033
11
162.957
21
-78.0548
0
LINE
8
Black
10
162.957
20
-78.0548
11
162.844
21
-78.1494
0
LINE
8
Black
10
162.844
20
-78.1494
11
162.77
21
-78.2769
0
LINE
8
Black
10
162.77
20
-78.2769
11
162.744
21
-78.4284
0
LINE
8
Black
10
162.744
20
-78.4284
11
162.744
21
-85.9186
0
LINE
8
Black
10
162.744
20
-85.9186
11
162.75
21
-85.9923
0
LINE
8
Black
10
162.75
20
-85.9923
11
162.802
21
-86.1338
0
LINE
8
Black
10
162.802
20
-86.1338
11
162.896
21
-86.2466
0
LINE
8
Black
10
162.896
20
-86.2466
11
163.024
21
-86.3202
0
LINE
8
Black
10
163.024
20
-86.3202
11
163.175
21
-86.3469
0
LINE
8
Black
10
163.175
20
-86.3469
11
170.165
21
-86.3469
0
LINE
8
Black
10
170.165
20
-86.3469
11
170.239
21
-86.3404
0
LINE
8
Black
10
170.239
20
-86.3404
11
170.381
21
-86.2889
0
LINE
8
Black
10
170.381
20
-86.2889
11
170.493
21
-86.1943
0
LINE
8
Black
10
170.493
20
-86.1943
11
170.567
21
-86.0668
0
LINE
8
Black
10
170.567
20
-86.0668
11
170.594
21
-85.9153
0
LINE
8
Black
10
170.594
20
-85.9153
11
170.594
21
-78.4252
0
LINE
8
Black
10
170.594
20
-78.4252
11
170.587
21
-78.3514
0
LINE
8
Black
10
170.587
20
-78.3514
11
170.536
21
-78.21
0
LINE
8
Black
10
170.536
20
-78.21
11
170.441
21
-78.0972
0
LINE
8
Black
10
170.441
20
-78.0972
11
170.314
21
-78.0236
0
LINE
8
Black
10
170.314
20
-78.0236
11
170.162
21
-77.9969
0
LINE
8
Black
10
170.162
20
-77.9969
11
163.172
21
-77.9969
0
LINE
8
Black
10
93.9752
20
-77.848
11
93.9818
21
-77.848
0
LINE
8
Black
10
93.9818
20
-77.848
11
94.1528
21
-77.8782
0
LINE
8
Black
10
94.1528
20
-77.8782
11
94.1773
21
-77.8871
0
LINE
8
Black
10
94.1773
20
-77.8871
11
94.3276
21
-77.9739
0
LINE
8
Black
10
94.3276
20
-77.9739
11
94.3476
21
-77.9906
0
LINE
8
Black
10
94.3476
20
-77.9906
11
94.4592
21
-78.1237
0
LINE
8
Black
10
94.4592
20
-78.1237
11
94.4722
21
-78.1462
0
LINE
8
Black
10
94.4722
20
-78.1462
11
94.5316
21
-78.3094
0
LINE
8
Black
10
94.5316
20
-78.3094
11
94.5333
21
-78.319
0
LINE
8
Black
10
94.5333
20
-78.319
11
94.5359
21
-78.3285
0
LINE
8
Black
10
94.5359
20
-78.3285
11
94.5435
21
-78.4153
0
LINE
8
Black
10
94.5435
20
-78.4153
11
94.5432
21
-78.4186
0
LINE
8
Black
10
94.5432
20
-78.4186
11
94.5437
21
-78.4219
0
LINE
8
Black
10
94.5437
20
-78.4219
11
94.5437
21
-85.9219
0
LINE
8
Black
10
94.5437
20
-85.9219
11
94.5426
21
-85.9283
0
LINE
8
Black
10
94.5426
20
-85.9283
11
94.5426
21
-85.9349
0
LINE
8
Black
10
94.5426
20
-85.9349
11
94.5125
21
-86.1059
0
LINE
8
Black
10
94.5125
20
-86.1059
11
94.5035
21
-86.1304
0
LINE
8
Black
10
94.5035
20
-86.1304
11
94.5035
21
-86.1304
0
LINE
8
Black
10
94.5035
20
-86.1304
11
94.4167
21
-86.2808
0
LINE
8
Black
10
94.4167
20
-86.2808
11
94.4
21
-86.3007
0
LINE
8
Black
10
94.4
20
-86.3007
11
94.4
21
-86.3007
0
LINE
8
Black
10
94.4
20
-86.3007
11
94.267
21
-86.4123
0
LINE
8
Black
10
94.267
20
-86.4123
11
94.2444
21
-86.4254
0
LINE
8
Black
10
94.2444
20
-86.4254
11
94.0812
21
-86.4848
0
LINE
8
Black
10
94.0812
20
-86.4848
11
94.0716
21
-86.4865
0
LINE
8
Black
10
94.0716
20
-86.4865
11
94.0621
21
-86.489
0
LINE
8
Black
10
94.0621
20
-86.489
11
93.9753
21
-86.4966
0
LINE
8
Black
10
93.9753
20
-86.4966
11
93.972
21
-86.4963
0
LINE
8
Black
10
93.972
20
-86.4963
11
93.9688
21
-86.4969
0
LINE
8
Black
10
93.9688
20
-86.4969
11
86.9688
21
-86.4969
0
LINE
8
Black
10
86.9688
20
-86.4969
11
86.9623
21
-86.4957
0
LINE
8
Black
10
86.9623
20
-86.4957
11
86.9557
21
-86.4957
0
LINE
8
Black
10
86.9557
20
-86.4957
11
86.7847
21
-86.4656
0
LINE
8
Black
10
86.7847
20
-86.4656
11
86.7602
21
-86.4567
0
LINE
8
Black
10
86.7602
20
-86.4567
11
86.7602
21
-86.4567
0
LINE
8
Black
10
86.7602
20
-86.4567
11
86.6099
21
-86.3698
0
LINE
8
Black
10
86.6099
20
-86.3698
11
86.5899
21
-86.3531
0
LINE
8
Black
10
86.5899
20
-86.3531
11
86.5899
21
-86.3531
0
LINE
8
Black
10
86.5899
20
-86.3531
11
86.4783
21
-86.2201
0
LINE
8
Black
10
86.4783
20
-86.2201
11
86.4653
21
-86.1975
0
LINE
8
Black
10
86.4653
20
-86.1975
11
86.4059
21
-86.0343
0
LINE
8
Black
10
86.4059
20
-86.0343
11
86.4042
21
-86.0247
0
LINE
8
Black
10
86.4042
20
-86.0247
11
86.4016
21
-86.0152
0
LINE
8
Black
10
86.4016
20
-86.0152
11
86.394
21
-85.9284
0
LINE
8
Black
10
86.394
20
-85.9284
11
86.3943
21
-85.9251
0
LINE
8
Black
10
86.3943
20
-85.9251
11
86.3937
21
-85.9219
0
LINE
8
Black
10
86.3937
20
-85.9219
11
86.3937
21
-78.4219
0
LINE
8
Black
10
86.3937
20
-78.4219
11
86.3949
21
-78.4154
0
LINE
8
Black
10
86.3949
20
-78.4154
11
86.3949
21
-78.4089
0
LINE
8
Black
10
86.3949
20
-78.4089
11
86.425
21
-78.2378
0
LINE
8
Black
10
86.425
20
-78.2378
11
86.434
21
-78.2134
0
LINE
8
Black
10
86.434
20
-78.2134
11
86.5208
21
-78.063
0
LINE
8
Black
10
86.5208
20
-78.063
11
86.5375
21
-78.043
0
LINE
8
Black
10
86.5375
20
-78.043
11
86.6705
21
-77.9314
0
LINE
8
Black
10
86.6705
20
-77.9314
11
86.6931
21
-77.9184
0
LINE
8
Black
10
86.6931
20
-77.9184
11
86.8563
21
-77.859
0
LINE
8
Black
10
86.8563
20
-77.859
11
86.8659
21
-77.8573
0
LINE
8
Black
10
86.8659
20
-77.8573
11
86.8754
21
-77.8548
0
LINE
8
Black
10
86.8754
20
-77.8548
11
86.9622
21
-77.8472
0
LINE
8
Black
10
86.9622
20
-77.8472
11
86.9655
21
-77.8474
0
LINE
8
Black
10
86.9655
20
-77.8474
11
86.9688
21
-77.8469
0
LINE
8
Black
10
86.9688
20
-77.8469
11
93.9688
21
-77.8469
0
LINE
8
Black
10
93.9688
20
-77.8469
11
93.9752
21
-77.848
0
LINE
8
Black
10
86.972
20
-77.9969
11
86.8983
21
-78.0033
0
LINE
8
Black
10
86.8983
20
-78.0033
11
86.7568
21
-78.0548
0
LINE
8
Black
10
86.7568
20
-78.0548
11
86.6441
21
-78.1494
0
LINE
8
Black
10
86.6441
20
-78.1494
11
86.5705
21
-78.2769
0
LINE
8
Black
10
86.5705
20
-78.2769
11
86.5438
21
-78.4284
0
LINE
8
Black
10
86.5438
20
-78.4284
11
86.5438
21
-85.9186
0
LINE
8
Black
10
86.5438
20
-85.9186
11
86.5502
21
-85.9923
0
LINE
8
Black
10
86.5502
20
-85.9923
11
86.6017
21
-86.1338
0
LINE
8
Black
10
86.6017
20
-86.1338
11
86.6963
21
-86.2466
0
LINE
8
Black
10
86.6963
20
-86.2466
11
86.8238
21
-86.3202
0
LINE
8
Black
10
86.8238
20
-86.3202
11
86.9753
21
-86.3469
0
LINE
8
Black
10
86.9753
20
-86.3469
11
93.9655
21
-86.3469
0
LINE
8
Black
10
93.9655
20
-86.3469
11
94.0392
21
-86.3404
0
LINE
8
Black
10
94.0392
20
-86.3404
11
94.1807
21
-86.2889
0
LINE
8
Black
10
94.1807
20
-86.2889
11
94.2934
21
-86.1943
0
LINE
8
Black
10
94.2934
20
-86.1943
11
94.367
21
-86.0668
0
LINE
8
Black
10
94.367
20
-86.0668
11
94.3937
21
-85.9153
0
LINE
8
Black
10
94.3937
20
-85.9153
11
94.3937
21
-78.4252
0
LINE
8
Black
10
94.3937
20
-78.4252
11
94.3873
21
-78.3514
0
LINE
8
Black
10
94.3873
20
-78.3514
11
94.3358
21
-78.21
0
LINE
8
Black
10
94.3358
20
-78.21
11
94.2412
21
-78.0972
0
LINE
8
Black
10
94.2412
20
-78.0972
11
94.1137
21
-78.0236
0
LINE
8
Black
10
94.1137
20
-78.0236
11
93.9622
21
-77.9969
0
LINE
8
Black
10
93.9622
20
-77.9969
11
86.972
21
-77.9969
0
LINE
8
Black
10
151.163
20
-58.7605
11
151.169
21
-58.7605
0
LINE
8
Black
10
151.169
20
-58.7605
11
151.34
21
-58.7907
0
LINE
8
Black
10
151.34
20
-58.7907
11
151.365
21
-58.7996
0
LINE
8
Black
10
151.365
20
-58.7996
11
151.515
21
-58.8864
0
LINE
8
Black
10
151.515
20
-58.8864
11
151.535
21
-58.9031
0
LINE
8
Black
10
151.535
20
-58.9031
11
151.647
21
-59.0362
0
LINE
8
Black
10
151.647
20
-59.0362
11
151.66
21
-59.0587
0
LINE
8
Black
10
151.66
20
-59.0587
11
151.719
21
-59.2219
0
LINE
8
Black
10
151.719
20
-59.2219
11
151.721
21
-59.2315
0
LINE
8
Black
10
151.721
20
-59.2315
11
151.723
21
-59.241
0
LINE
8
Black
10
151.723
20
-59.241
11
151.731
21
-59.3278
0
LINE
8
Black
10
151.731
20
-59.3278
11
151.731
21
-59.3311
0
LINE
8
Black
10
151.731
20
-59.3311
11
151.731
21
-59.3344
0
LINE
8
Black
10
151.731
20
-59.3344
11
151.731
21
-66.8344
0
LINE
8
Black
10
151.731
20
-66.8344
11
151.73
21
-66.8408
0
LINE
8
Black
10
151.73
20
-66.8408
11
151.73
21
-66.8474
0
LINE
8
Black
10
151.73
20
-66.8474
11
151.7
21
-67.0184
0
LINE
8
Black
10
151.7
20
-67.0184
11
151.691
21
-67.0429
0
LINE
8
Black
10
151.691
20
-67.0429
11
151.691
21
-67.0429
0
LINE
8
Black
10
151.691
20
-67.0429
11
151.604
21
-67.1933
0
LINE
8
Black
10
151.604
20
-67.1933
11
151.587
21
-67.2132
0
LINE
8
Black
10
151.587
20
-67.2132
11
151.587
21
-67.2132
0
LINE
8
Black
10
151.587
20
-67.2132
11
151.454
21
-67.3248
0
LINE
8
Black
10
151.454
20
-67.3248
11
151.432
21
-67.3379
0
LINE
8
Black
10
151.432
20
-67.3379
11
151.269
21
-67.3973
0
LINE
8
Black
10
151.269
20
-67.3973
11
151.259
21
-67.399
0
LINE
8
Black
10
151.259
20
-67.399
11
151.25
21
-67.4015
0
LINE
8
Black
10
151.25
20
-67.4015
11
151.163
21
-67.4091
0
LINE
8
Black
10
151.163
20
-67.4091
11
151.159
21
-67.4088
0
LINE
8
Black
10
151.159
20
-67.4088
11
151.156
21
-67.4094
0
LINE
8
Black
10
151.156
20
-67.4094
11
144.156
21
-67.4094
0
LINE
8
Black
10
144.156
20
-67.4094
11
144.15
21
-67.4082
0
LINE
8
Black
10
144.15
20
-67.4082
11
144.143
21
-67.4082
0
LINE
8
Black
10
144.143
20
-67.4082
11
143.972
21
-67.3781
0
LINE
8
Black
10
143.972
20
-67.3781
11
143.948
21
-67.3692
0
LINE
8
Black
10
143.948
20
-67.3692
11
143.948
21
-67.3692
0
LINE
8
Black
10
143.948
20
-67.3692
11
143.797
21
-67.2823
0
LINE
8
Black
10
143.797
20
-67.2823
11
143.777
21
-67.2656
0
LINE
8
Black
10
143.777
20
-67.2656
11
143.777
21
-67.2656
0
LINE
8
Black
10
143.777
20
-67.2656
11
143.666
21
-67.1326
0
LINE
8
Black
10
143.666
20
-67.1326
11
143.653
21
-67.11
0
LINE
8
Black
10
143.653
20
-67.11
11
143.593
21
-66.9468
0
LINE
8
Black
10
143.593
20
-66.9468
11
143.592
21
-66.9372
0
LINE
8
Black
10
143.592
20
-66.9372
11
143.589
21
-66.9277
0
LINE
8
Black
10
143.589
20
-66.9277
11
143.582
21
-66.8409
0
LINE
8
Black
10
143.582
20
-66.8409
11
143.582
21
-66.8376
0
LINE
8
Black
10
143.582
20
-66.8376
11
143.581
21
-66.8344
0
LINE
8
Black
10
143.581
20
-66.8344
11
143.581
21
-59.3344
0
LINE
8
Black
10
143.581
20
-59.3344
11
143.582
21
-59.3279
0
LINE
8
Black
10
143.582
20
-59.3279
11
143.582
21
-59.3214
0
LINE
8
Black
10
143.582
20
-59.3214
11
143.613
21
-59.1503
0
LINE
8
Black
10
143.613
20
-59.1503
11
143.621
21
-59.1259
0
LINE
8
Black
10
143.621
20
-59.1259
11
143.708
21
-58.9755
0
LINE
8
Black
10
143.708
20
-58.9755
11
143.725
21
-58.9555
0
LINE
8
Black
10
143.725
20
-58.9555
11
143.858
21
-58.8439
0
LINE
8
Black
10
143.858
20
-58.8439
11
143.881
21
-58.8309
0
LINE
8
Black
10
143.881
20
-58.8309
11
144.044
21
-58.7715
0
LINE
8
Black
10
144.044
20
-58.7715
11
144.053
21
-58.7698
0
LINE
8
Black
10
144.053
20
-58.7698
11
144.063
21
-58.7673
0
LINE
8
Black
10
144.063
20
-58.7673
11
144.15
21
-58.7597
0
LINE
8
Black
10
144.15
20
-58.7597
11
144.153
21
-58.7599
0
LINE
8
Black
10
144.153
20
-58.7599
11
144.156
21
-58.7594
0
LINE
8
Black
10
144.156
20
-58.7594
11
151.156
21
-58.7594
0
LINE
8
Black
10
151.156
20
-58.7594
11
151.163
21
-58.7605
0
LINE
8
Black
10
144.16
20
-58.9094
11
144.086
21
-58.9158
0
LINE
8
Black
10
144.086
20
-58.9158
11
143.944
21
-58.9673
0
LINE
8
Black
10
143.944
20
-58.9673
11
143.832
21
-59.0619
0
LINE
8
Black
10
143.832
20
-59.0619
11
143.758
21
-59.1894
0
LINE
8
Black
10
143.758
20
-59.1894
11
143.731
21
-59.3409
0
LINE
8
Black
10
143.731
20
-59.3409
11
143.731
21
-66.8311
0
LINE
8
Black
10
143.731
20
-66.8311
11
143.738
21
-66.9048
0
LINE
8
Black
10
143.738
20
-66.9048
11
143.789
21
-67.0463
0
LINE
8
Black
10
143.789
20
-67.0463
11
143.884
21
-67.1591
0
LINE
8
Black
10
143.884
20
-67.1591
11
144.011
21
-67.2327
0
LINE
8
Black
10
144.011
20
-67.2327
11
144.163
21
-67.2594
0
LINE
8
Black
10
144.163
20
-67.2594
11
151.153
21
-67.2594
0
LINE
8
Black
10
151.153
20
-67.2594
11
151.227
21
-67.2529
0
LINE
8
Black
10
151.227
20
-67.2529
11
151.368
21
-67.2014
0
LINE
8
Black
10
151.368
20
-67.2014
11
151.481
21
-67.1068
0
LINE
8
Black
10
151.481
20
-67.1068
11
151.555
21
-66.9793
0
LINE
8
Black
10
151.555
20
-66.9793
11
151.581
21
-66.8278
0
LINE
8
Black
10
151.581
20
-66.8278
11
151.581
21
-59.3377
0
LINE
8
Black
10
151.581
20
-59.3377
11
151.575
21
-59.2639
0
LINE
8
Black
10
151.575
20
-59.2639
11
151.523
21
-59.1225
0
LINE
8
Black
10
151.523
20
-59.1225
11
151.429
21
-59.0097
0
LINE
8
Black
10
151.429
20
-59.0097
11
151.301
21
-58.9361
0
LINE
8
Black
10
151.301
20
-58.9361
11
151.15
21
-58.9094
0
LINE
8
Black
10
151.15
20
-58.9094
11
144.16
21
-58.9094
0
LINE
8
Black
10
170.213
20
-58.7605
11
170.219
21
-58.7605
0
LINE
8
Black
10
170.219
20
-58.7605
11
170.39
21
-58.7907
0
LINE
8
Black
10
170.39
20
-58.7907
11
170.415
21
-58.7996
0
LINE
8
Black
10
170.415
20
-58.7996
11
170.565
21
-58.8864
0
LINE
8
Black
10
170.565
20
-58.8864
11
170.585
21
-58.9031
0
LINE
8
Black
10
170.585
20
-58.9031
11
170.697
21
-59.0362
0
LINE
8
Black
10
170.697
20
-59.0362
11
170.71
21
-59.0587
0
LINE
8
Black
10
170.71
20
-59.0587
11
170.769
21
-59.2219
0
LINE
8
Black
10
170.769
20
-59.2219
11
170.771
21
-59.2315
0
LINE
8
Black
10
170.771
20
-59.2315
11
170.773
21
-59.241
0
LINE
8
Black
10
170.773
20
-59.241
11
170.781
21
-59.3278
0
LINE
8
Black
10
170.781
20
-59.3278
11
170.781
21
-59.3311
0
LINE
8
Black
10
170.781
20
-59.3311
11
170.781
21
-59.3344
0
LINE
8
Black
10
170.781
20
-59.3344
11
170.781
21
-66.8344
0
LINE
8
Black
10
170.781
20
-66.8344
11
170.78
21
-66.8408
0
LINE
8
Black
10
170.78
20
-66.8408
11
170.78
21
-66.8474
0
LINE
8
Black
10
170.78
20
-66.8474
11
170.75
21
-67.0184
0
LINE
8
Black
10
170.75
20
-67.0184
11
170.741
21
-67.0429
0
LINE
8
Black
10
170.741
20
-67.0429
11
170.741
21
-67.0429
0
LINE
8
Black
10
170.741
20
-67.0429
11
170.654
21
-67.1933
0
LINE
8
Black
10
170.654
20
-67.1933
11
170.637
21
-67.2132
0
LINE
8
Black
10
170.637
20
-67.2132
11
170.637
21
-67.2132
0
LINE
8
Black
10
170.637
20
-67.2132
11
170.504
21
-67.3248
0
LINE
8
Black
10
170.504
20
-67.3248
11
170.482
21
-67.3379
0
LINE
8
Black
10
170.482
20
-67.3379
11
170.319
21
-67.3973
0
LINE
8
Black
10
170.319
20
-67.3973
11
170.309
21
-67.399
0
LINE
8
Black
10
170.309
20
-67.399
11
170.3
21
-67.4015
0
LINE
8
Black
10
170.3
20
-67.4015
11
170.213
21
-67.4091
0
LINE
8
Black
10
170.213
20
-67.4091
11
170.209
21
-67.4088
0
LINE
8
Black
10
170.209
20
-67.4088
11
170.206
21
-67.4094
0
LINE
8
Black
10
170.206
20
-67.4094
11
163.206
21
-67.4094
0
LINE
8
Black
10
163.206
20
-67.4094
11
163.2
21
-67.4082
0
LINE
8
Black
10
163.2
20
-67.4082
11
163.193
21
-67.4082
0
LINE
8
Black
10
163.193
20
-67.4082
11
163.022
21
-67.3781
0
LINE
8
Black
10
163.022
20
-67.3781
11
162.998
21
-67.3692
0
LINE
8
Black
10
162.998
20
-67.3692
11
162.998
21
-67.3692
0
LINE
8
Black
10
162.998
20
-67.3692
11
162.847
21
-67.2823
0
LINE
8
Black
10
162.847
20
-67.2823
11
162.827
21
-67.2656
0
LINE
8
Black
10
162.827
20
-67.2656
11
162.827
21
-67.2656
0
LINE
8
Black
10
162.827
20
-67.2656
11
162.716
21
-67.1326
0
LINE
8
Black
10
162.716
20
-67.1326
11
162.703
21
-67.11
0
LINE
8
Black
10
162.703
20
-67.11
11
162.643
21
-66.9468
0
LINE
8
Black
10
162.643
20
-66.9468
11
162.642
21
-66.9372
0
LINE
8
Black
10
162.642
20
-66.9372
11
162.639
21
-66.9277
0
LINE
8
Black
10
162.639
20
-66.9277
11
162.632
21
-66.8409
0
LINE
8
Black
10
162.632
20
-66.8409
11
162.632
21
-66.8376
0
LINE
8
Black
10
162.632
20
-66.8376
11
162.631
21
-66.8344
0
LINE
8
Black
10
162.631
20
-66.8344
11
162.631
21
-59.3344
0
LINE
8
Black
10
162.631
20
-59.3344
11
162.632
21
-59.3279
0
LINE
8
Black
10
162.632
20
-59.3279
11
162.632
21
-59.3214
0
LINE
8
Black
10
162.632
20
-59.3214
11
162.663
21
-59.1503
0
LINE
8
Black
10
162.663
20
-59.1503
11
162.671
21
-59.1259
0
LINE
8
Black
10
162.671
20
-59.1259
11
162.758
21
-58.9755
0
LINE
8
Black
10
162.758
20
-58.9755
11
162.775
21
-58.9555
0
LINE
8
Black
10
162.775
20
-58.9555
11
162.908
21
-58.8439
0
LINE
8
Black
10
162.908
20
-58.8439
11
162.931
21
-58.8309
0
LINE
8
Black
10
162.931
20
-58.8309
11
163.094
21
-58.7715
0
LINE
8
Black
10
163.094
20
-58.7715
11
163.103
21
-58.7698
0
LINE
8
Black
10
163.103
20
-58.7698
11
163.113
21
-58.7673
0
LINE
8
Black
10
163.113
20
-58.7673
11
163.2
21
-58.7597
0
LINE
8
Black
10
163.2
20
-58.7597
11
163.203
21
-58.7599
0
LINE
8
Black
10
163.203
20
-58.7599
11
163.206
21
-58.7594
0
LINE
8
Black
10
163.206
20
-58.7594
11
170.206
21
-58.7594
0
LINE
8
Black
10
170.206
20
-58.7594
11
170.213
21
-58.7605
0
LINE
8
Black
10
163.21
20
-58.9094
11
163.136
21
-58.9158
0
LINE
8
Black
10
163.136
20
-58.9158
11
162.994
21
-58.9673
0
LINE
8
Black
10
162.994
20
-58.9673
11
162.882
21
-59.0619
0
LINE
8
Black
10
162.882
20
-59.0619
11
162.808
21
-59.1894
0
LINE
8
Black
10
162.808
20
-59.1894
11
162.781
21
-59.3409
0
LINE
8
Black
10
162.781
20
-59.3409
11
162.781
21
-66.8311
0
LINE
8
Black
10
162.781
20
-66.8311
11
162.788
21
-66.9048
0
LINE
8
Black
10
162.788
20
-66.9048
11
162.839
21
-67.0463
0
LINE
8
Black
10
162.839
20
-67.0463
11
162.934
21
-67.1591
0
LINE
8
Black
10
162.934
20
-67.1591
11
163.061
21
-67.2327
0
LINE
8
Black
10
163.061
20
-67.2327
11
163.213
21
-67.2594
0
LINE
8
Black
10
163.213
20
-67.2594
11
170.203
21
-67.2594
0
LINE
8
Black
10
170.203
20
-67.2594
11
170.277
21
-67.2529
0
LINE
8
Black
10
170.277
20
-67.2529
11
170.418
21
-67.2014
0
LINE
8
Black
10
170.418
20
-67.2014
11
170.531
21
-67.1068
0
LINE
8
Black
10
170.531
20
-67.1068
11
170.605
21
-66.9793
0
LINE
8
Black
10
170.605
20
-66.9793
11
170.631
21
-66.8278
0
LINE
8
Black
10
170.631
20
-66.8278
11
170.631
21
-59.3377
0
LINE
8
Black
10
170.631
20
-59.3377
11
170.625
21
-59.2639
0
LINE
8
Black
10
170.625
20
-59.2639
11
170.573
21
-59.1225
0
LINE
8
Black
10
170.573
20
-59.1225
11
170.479
21
-59.0097
0
LINE
8
Black
10
170.479
20
-59.0097
11
170.351
21
-58.9361
0
LINE
8
Black
10
170.351
20
-58.9361
11
170.2
21
-58.9094
0
LINE
8
Black
10
170.2
20
-58.9094
11
163.21
21
-58.9094
0
LINE
8
Black
10
94.0127
20
-58.7605
11
94.0193
21
-58.7605
0
LINE
8
Black
10
94.0193
20
-58.7605
11
94.1903
21
-58.7907
0
LINE
8
Black
10
94.1903
20
-58.7907
11
94.2148
21
-58.7996
0
LINE
8
Black
10
94.2148
20
-58.7996
11
94.3651
21
-58.8864
0
LINE
8
Black
10
94.3651
20
-58.8864
11
94.3851
21
-58.9031
0
LINE
8
Black
10
94.3851
20
-58.9031
11
94.4967
21
-59.0362
0
LINE
8
Black
10
94.4967
20
-59.0362
11
94.5097
21
-59.0587
0
LINE
8
Black
10
94.5097
20
-59.0587
11
94.5691
21
-59.2219
0
LINE
8
Black
10
94.5691
20
-59.2219
11
94.5708
21
-59.2315
0
LINE
8
Black
10
94.5708
20
-59.2315
11
94.5734
21
-59.241
0
LINE
8
Black
10
94.5734
20
-59.241
11
94.581
21
-59.3278
0
LINE
8
Black
10
94.581
20
-59.3278
11
94.5807
21
-59.3311
0
LINE
8
Black
10
94.5807
20
-59.3311
11
94.5812
21
-59.3344
0
LINE
8
Black
10
94.5812
20
-59.3344
11
94.5812
21
-66.8344
0
LINE
8
Black
10
94.5812
20
-66.8344
11
94.5801
21
-66.8408
0
LINE
8
Black
10
94.5801
20
-66.8408
11
94.5801
21
-66.8474
0
LINE
8
Black
10
94.5801
20
-66.8474
11
94.55
21
-67.0184
0
LINE
8
Black
10
94.55
20
-67.0184
11
94.541
21
-67.0429
0
LINE
8
Black
10
94.541
20
-67.0429
11
94.541
21
-67.0429
0
LINE
8
Black
10
94.541
20
-67.0429
11
94.4542
21
-67.1933
0
LINE
8
Black
10
94.4542
20
-67.1933
11
94.4375
21
-67.2132
0
LINE
8
Black
10
94.4375
20
-67.2132
11
94.4375
21
-67.2132
0
LINE
8
Black
10
94.4375
20
-67.2132
11
94.3045
21
-67.3248
0
LINE
8
Black
10
94.3045
20
-67.3248
11
94.2819
21
-67.3379
0
LINE
8
Black
10
94.2819
20
-67.3379
11
94.1187
21
-67.3973
0
LINE
8
Black
10
94.1187
20
-67.3973
11
94.1091
21
-67.399
0
LINE
8
Black
10
94.1091
20
-67.399
11
94.0996
21
-67.4015
0
LINE
8
Black
10
94.0996
20
-67.4015
11
94.0128
21
-67.4091
0
LINE
8
Black
10
94.0128
20
-67.4091
11
94.0095
21
-67.4088
0
LINE
8
Black
10
94.0095
20
-67.4088
11
94.0062
21
-67.4094
0
LINE
8
Black
10
94.0062
20
-67.4094
11
87.0062
21
-67.4094
0
LINE
8
Black
10
87.0062
20
-67.4094
11
86.9998
21
-67.4082
0
LINE
8
Black
10
86.9998
20
-67.4082
11
86.9932
21
-67.4082
0
LINE
8
Black
10
86.9932
20
-67.4082
11
86.8222
21
-67.3781
0
LINE
8
Black
10
86.8222
20
-67.3781
11
86.7977
21
-67.3692
0
LINE
8
Black
10
86.7977
20
-67.3692
11
86.7977
21
-67.3692
0
LINE
8
Black
10
86.7977
20
-67.3692
11
86.6474
21
-67.2823
0
LINE
8
Black
10
86.6474
20
-67.2823
11
86.6274
21
-67.2656
0
LINE
8
Black
10
86.6274
20
-67.2656
11
86.6274
21
-67.2656
0
LINE
8
Black
10
86.6274
20
-67.2656
11
86.5158
21
-67.1326
0
LINE
8
Black
10
86.5158
20
-67.1326
11
86.5028
21
-67.11
0
LINE
8
Black
10
86.5028
20
-67.11
11
86.4434
21
-66.9468
0
LINE
8
Black
10
86.4434
20
-66.9468
11
86.4417
21
-66.9372
0
LINE
8
Black
10
86.4417
20
-66.9372
11
86.4391
21
-66.9277
0
LINE
8
Black
10
86.4391
20
-66.9277
11
86.4315
21
-66.8409
0
LINE
8
Black
10
86.4315
20
-66.8409
11
86.4318
21
-66.8376
0
LINE
8
Black
10
86.4318
20
-66.8376
11
86.4312
21
-66.8344
0
LINE
8
Black
10
86.4312
20
-66.8344
11
86.4312
21
-59.3344
0
LINE
8
Black
10
86.4312
20
-59.3344
11
86.4324
21
-59.3279
0
LINE
8
Black
10
86.4324
20
-59.3279
11
86.4324
21
-59.3214
0
LINE
8
Black
10
86.4324
20
-59.3214
11
86.4625
21
-59.1503
0
LINE
8
Black
10
86.4625
20
-59.1503
11
86.4715
21
-59.1259
0
LINE
8
Black
10
86.4715
20
-59.1259
11
86.5583
21
-58.9755
0
LINE
8
Black
10
86.5583
20
-58.9755
11
86.575
21
-58.9555
0
LINE
8
Black
10
86.575
20
-58.9555
11
86.708
21
-58.8439
0
LINE
8
Black
10
86.708
20
-58.8439
11
86.7306
21
-58.8309
0
LINE
8
Black
10
86.7306
20
-58.8309
11
86.8938
21
-58.7715
0
LINE
8
Black
10
86.8938
20
-58.7715
11
86.9034
21
-58.7698
0
LINE
8
Black
10
86.9034
20
-58.7698
11
86.9129
21
-58.7673
0
LINE
8
Black
10
86.9129
20
-58.7673
11
86.9997
21
-58.7597
0
LINE
8
Black
10
86.9997
20
-58.7597
11
87.003
21
-58.7599
0
LINE
8
Black
10
87.003
20
-58.7599
11
87.0062
21
-58.7594
0
LINE
8
Black
10
87.0062
20
-58.7594
11
94.0062
21
-58.7594
0
LINE
8
Black
10
94.0062
20
-58.7594
11
94.0127
21
-58.7605
0
LINE
8
Black
10
87.0095
20
-58.9094
11
86.9358
21
-58.9158
0
LINE
8
Black
10
86.9358
20
-58.9158
11
86.7943
21
-58.9673
0
LINE
8
Black
10
86.7943
20
-58.9673
11
86.6816
21
-59.0619
0
LINE
8
Black
10
86.6816
20
-59.0619
11
86.608
21
-59.1894
0
LINE
8
Black
10
86.608
20
-59.1894
11
86.5812
21
-59.3409
0
LINE
8
Black
10
86.5812
20
-59.3409
11
86.5812
21
-66.8311
0
LINE
8
Black
10
86.5812
20
-66.8311
11
86.5877
21
-66.9048
0
LINE
8
Black
10
86.5877
20
-66.9048
11
86.6392
21
-67.0463
0
LINE
8
Black
10
86.6392
20
-67.0463
11
86.7338
21
-67.1591
0
LINE
8
Black
10
86.7338
20
-67.1591
11
86.8613
21
-67.2327
0
LINE
8
Black
10
86.8613
20
-67.2327
11
87.0128
21
-67.2594
0
LINE
8
Black
10
87.0128
20
-67.2594
11
94.003
21
-67.2594
0
LINE
8
Black
10
94.003
20
-67.2594
11
94.0767
21
-67.2529
0
LINE
8
Black
10
94.0767
20
-67.2529
11
94.2182
21
-67.2014
0
LINE
8
Black
10
94.2182
20
-67.2014
11
94.3309
21
-67.1068
0
LINE
8
Black
10
94.3309
20
-67.1068
11
94.4045
21
-66.9793
0
LINE
8
Black
10
94.4045
20
-66.9793
11
94.4312
21
-66.8278
0
LINE
8
Black
10
94.4312
20
-66.8278
11
94.4312
21
-59.3377
0
LINE
8
Black
10
94.4312
20
-59.3377
11
94.4248
21
-59.2639
0
LINE
8
Black
10
94.4248
20
-59.2639
11
94.3733
21
-59.1225
0
LINE
8
Black
10
94.3733
20
-59.1225
11
94.2787
21
-59.0097
0
LINE
8
Black
10
94.2787
20
-59.0097
11
94.1512
21
-58.9361
0
LINE
8
Black
10
94.1512
20
-58.9361
11
93.9997
21
-58.9094
0
LINE
8
Black
10
93.9997
20
-58.9094
11
87.0095
21
-58.9094
0
LINE
8
Black
10
113.063
20
-58.7605
11
113.069
21
-58.7605
0
LINE
8
Black
10
113.069
20
-58.7605
11
113.24
21
-58.7907
0
LINE
8
Black
10
113.24
20
-58.7907
11
113.265
21
-58.7996
0
LINE
8
Black
10
113.265
20
-58.7996
11
113.415
21
-58.8864
0
LINE
8
Black
10
113.415
20
-58.8864
11
113.435
21
-58.9031
0
LINE
8
Black
10
113.435
20
-58.9031
11
113.547
21
-59.0362
0
LINE
8
Black
10
113.547
20
-59.0362
11
113.56
21
-59.0587
0
LINE
8
Black
10
113.56
20
-59.0587
11
113.619
21
-59.2219
0
LINE
8
Black
10
113.619
20
-59.2219
11
113.621
21
-59.2315
0
LINE
8
Black
10
113.621
20
-59.2315
11
113.623
21
-59.241
0
LINE
8
Black
10
113.623
20
-59.241
11
113.631
21
-59.3278
0
LINE
8
Black
10
113.631
20
-59.3278
11
113.631
21
-59.3311
0
LINE
8
Black
10
113.631
20
-59.3311
11
113.631
21
-59.3344
0
LINE
8
Black
10
113.631
20
-59.3344
11
113.631
21
-66.8344
0
LINE
8
Black
10
113.631
20
-66.8344
11
113.63
21
-66.8408
0
LINE
8
Black
10
113.63
20
-66.8408
11
113.63
21
-66.8474
0
LINE
8
Black
10
113.63
20
-66.8474
11
113.6
21
-67.0184
0
LINE
8
Black
10
113.6
20
-67.0184
11
113.591
21
-67.0429
0
LINE
8
Black
10
113.591
20
-67.0429
11
113.591
21
-67.0429
0
LINE
8
Black
10
113.591
20
-67.0429
11
113.504
21
-67.1933
0
LINE
8
Black
10
113.504
20
-67.1933
11
113.487
21
-67.2132
0
LINE
8
Black
10
113.487
20
-67.2132
11
113.487
21
-67.2132
0
LINE
8
Black
10
113.487
20
-67.2132
11
113.354
21
-67.3248
0
LINE
8
Black
10
113.354
20
-67.3248
11
113.332
21
-67.3379
0
LINE
8
Black
10
113.332
20
-67.3379
11
113.169
21
-67.3973
0
LINE
8
Black
10
113.169
20
-67.3973
11
113.159
21
-67.399
0
LINE
8
Black
10
113.159
20
-67.399
11
113.15
21
-67.4015
0
LINE
8
Black
10
113.15
20
-67.4015
11
113.063
21
-67.4091
0
LINE
8
Black
10
113.063
20
-67.4091
11
113.059
21
-67.4088
0
LINE
8
Black
10
113.059
20
-67.4088
11
113.056
21
-67.4094
0
LINE
8
Black
10
113.056
20
-67.4094
11
106.056
21
-67.4094
0
LINE
8
Black
10
106.056
20
-67.4094
11
106.05
21
-67.4082
0
LINE
8
Black
10
106.05
20
-67.4082
11
106.043
21
-67.4082
0
LINE
8
Black
10
106.043
20
-67.4082
11
105.872
21
-67.3781
0
LINE
8
Black
10
105.872
20
-67.3781
11
105.848
21
-67.3692
0
LINE
8
Black
10
105.848
20
-67.3692
11
105.848
21
-67.3692
0
LINE
8
Black
10
105.848
20
-67.3692
11
105.697
21
-67.2823
0
LINE
8
Black
10
105.697
20
-67.2823
11
105.677
21
-67.2656
0
LINE
8
Black
10
105.677
20
-67.2656
11
105.677
21
-67.2656
0
LINE
8
Black
10
105.677
20
-67.2656
11
105.566
21
-67.1326
0
LINE
8
Black
10
105.566
20
-67.1326
11
105.553
21
-67.11
0
LINE
8
Black
10
105.553
20
-67.11
11
105.493
21
-66.9468
0
LINE
8
Black
10
105.493
20
-66.9468
11
105.492
21
-66.9372
0
LINE
8
Black
10
105.492
20
-66.9372
11
105.489
21
-66.9277
0
LINE
8
Black
10
105.489
20
-66.9277
11
105.482
21
-66.8409
0
LINE
8
Black
10
105.482
20
-66.8409
11
105.482
21
-66.8376
0
LINE
8
Black
10
105.482
20
-66.8376
11
105.481
21
-66.8344
0
LINE
8
Black
10
105.481
20
-66.8344
11
105.481
21
-59.3344
0
LINE
8
Black
10
105.481
20
-59.3344
11
105.482
21
-59.3279
0
LINE
8
Black
10
105.482
20
-59.3279
11
105.482
21
-59.3214
0
LINE
8
Black
10
105.482
20
-59.3214
11
105.513
21
-59.1503
0
LINE
8
Black
10
105.513
20
-59.1503
11
105.521
21
-59.1259
0
LINE
8
Black
10
105.521
20
-59.1259
11
105.608
21
-58.9755
0
LINE
8
Black
10
105.608
20
-58.9755
11
105.625
21
-58.9555
0
LINE
8
Black
10
105.625
20
-58.9555
11
105.758
21
-58.8439
0
LINE
8
Black
10
105.758
20
-58.8439
11
105.781
21
-58.8309
0
LINE
8
Black
10
105.781
20
-58.8309
11
105.944
21
-58.7715
0
LINE
8
Black
10
105.944
20
-58.7715
11
105.953
21
-58.7698
0
LINE
8
Black
10
105.953
20
-58.7698
11
105.963
21
-58.7673
0
LINE
8
Black
10
105.963
20
-58.7673
11
106.05
21
-58.7597
0
LINE
8
Black
10
106.05
20
-58.7597
11
106.053
21
-58.7599
0
LINE
8
Black
10
106.053
20
-58.7599
11
106.056
21
-58.7594
0
LINE
8
Black
10
106.056
20
-58.7594
11
113.056
21
-58.7594
0
LINE
8
Black
10
113.056
20
-58.7594
11
113.063
21
-58.7605
0
LINE
8
Black
10
106.06
20
-58.9094
11
105.986
21
-58.9158
0
LINE
8
Black
10
105.986
20
-58.9158
11
105.844
21
-58.9673
0
LINE
8
Black
10
105.844
20
-58.9673
11
105.732
21
-59.0619
0
LINE
8
Black
10
105.732
20
-59.0619
11
105.658
21
-59.1894
0
LINE
8
Black
10
105.658
20
-59.1894
11
105.631
21
-59.3409
0
LINE
8
Black
10
105.631
20
-59.3409
11
105.631
21
-66.8311
0
LINE
8
Black
10
105.631
20
-66.8311
11
105.638
21
-66.9048
0
LINE
8
Black
10
105.638
20
-66.9048
11
105.689
21
-67.0463
0
LINE
8
Black
10
105.689
20
-67.0463
11
105.784
21
-67.1591
0
LINE
8
Black
10
105.784
20
-67.1591
11
105.911
21
-67.2327
0
LINE
8
Black
10
105.911
20
-67.2327
11
106.063
21
-67.2594
0
LINE
8
Black
10
106.063
20
-67.2594
11
113.053
21
-67.2594
0
LINE
8
Black
10
113.053
20
-67.2594
11
113.127
21
-67.2529
0
LINE
8
Black
10
113.127
20
-67.2529
11
113.268
21
-67.2014
0
LINE
8
Black
10
113.268
20
-67.2014
11
113.381
21
-67.1068
0
LINE
8
Black
10
113.381
20
-67.1068
11
113.455
21
-66.9793
0
LINE
8
Black
10
113.455
20
-66.9793
11
113.481
21
-66.8278
0
LINE
8
Black
10
113.481
20
-66.8278
11
113.481
21
-59.3377
0
LINE
8
Black
10
113.481
20
-59.3377
11
113.475
21
-59.2639
0
LINE
8
Black
10
113.475
20
-59.2639
11
113.423
21
-59.1225
0
LINE
8
Black
10
113.423
20
-59.1225
11
113.329
21
-59.0097
0
LINE
8
Black
10
113.329
20
-59.0097
11
113.201
21
-58.9361
0
LINE
8
Black
10
113.201
20
-58.9361
11
113.05
21
-58.9094
0
LINE
8
Black
10
113.05
20
-58.9094
11
106.06
21
-58.9094
0
LINE
8
Black
10
132.113
20
-58.7605
11
132.119
21
-58.7605
0
LINE
8
Black
10
132.119
20
-58.7605
11
132.29
21
-58.7907
0
LINE
8
Black
10
132.29
20
-58.7907
11
132.315
21
-58.7996
0
LINE
8
Black
10
132.315
20
-58.7996
11
132.465
21
-58.8864
0
LINE
8
Black
10
132.465
20
-58.8864
11
132.485
21
-58.9031
0
LINE
8
Black
10
132.485
20
-58.9031
11
132.597
21
-59.0362
0
LINE
8
Black
10
132.597
20
-59.0362
11
132.61
21
-59.0587
0
LINE
8
Black
10
132.61
20
-59.0587
11
132.669
21
-59.2219
0
LINE
8
Black
10
132.669
20
-59.2219
11
132.671
21
-59.2315
0
LINE
8
Black
10
132.671
20
-59.2315
11
132.673
21
-59.241
0
LINE
8
Black
10
132.673
20
-59.241
11
132.681
21
-59.3278
0
LINE
8
Black
10
132.681
20
-59.3278
11
132.681
21
-59.3311
0
LINE
8
Black
10
132.681
20
-59.3311
11
132.681
21
-59.3344
0
LINE
8
Black
10
132.681
20
-59.3344
11
132.681
21
-66.8344
0
LINE
8
Black
10
132.681
20
-66.8344
11
132.68
21
-66.8408
0
LINE
8
Black
10
132.68
20
-66.8408
11
132.68
21
-66.8474
0
LINE
8
Black
10
132.68
20
-66.8474
11
132.65
21
-67.0184
0
LINE
8
Black
10
132.65
20
-67.0184
11
132.641
21
-67.0429
0
LINE
8
Black
10
132.641
20
-67.0429
11
132.641
21
-67.0429
0
LINE
8
Black
10
132.641
20
-67.0429
11
132.554
21
-67.1933
0
LINE
8
Black
10
132.554
20
-67.1933
11
132.537
21
-67.2132
0
LINE
8
Black
10
132.537
20
-67.2132
11
132.537
21
-67.2132
0
LINE
8
Black
10
132.537
20
-67.2132
11
132.404
21
-67.3248
0
LINE
8
Black
10
132.404
20
-67.3248
11
132.382
21
-67.3379
0
LINE
8
Black
10
132.382
20
-67.3379
11
132.219
21
-67.3973
0
LINE
8
Black
10
132.219
20
-67.3973
11
132.209
21
-67.399
0
LINE
8
Black
10
132.209
20
-67.399
11
132.2
21
-67.4015
0
LINE
8
Black
10
132.2
20
-67.4015
11
132.113
21
-67.4091
0
LINE
8
Black
10
132.113
20
-67.4091
11
132.109
21
-67.4088
0
LINE
8
Black
10
132.109
20
-67.4088
11
132.106
21
-67.4094
0
LINE
8
Black
10
132.106
20
-67.4094
11
125.106
21
-67.4094
0
LINE
8
Black
10
125.106
20
-67.4094
11
125.1
21
-67.4082
0
LINE
8
Black
10
125.1
20
-67.4082
11
125.093
21
-67.4082
0
LINE
8
Black
10
125.093
20
-67.4082
11
124.922
21
-67.3781
0
LINE
8
Black
10
124.922
20
-67.3781
11
124.898
21
-67.3692
0
LINE
8
Black
10
124.898
20
-67.3692
11
124.898
21
-67.3692
0
LINE
8
Black
10
124.898
20
-67.3692
11
124.747
21
-67.2823
0
LINE
8
Black
10
124.747
20
-67.2823
11
124.727
21
-67.2656
0
LINE
8
Black
10
124.727
20
-67.2656
11
124.727
21
-67.2656
0
LINE
8
Black
10
124.727
20
-67.2656
11
124.616
21
-67.1326
0
LINE
8
Black
10
124.616
20
-67.1326
11
124.603
21
-67.11
0
LINE
8
Black
10
124.603
20
-67.11
11
124.543
21
-66.9468
0
LINE
8
Black
10
124.543
20
-66.9468
11
124.542
21
-66.9372
0
LINE
8
Black
10
124.542
20
-66.9372
11
124.539
21
-66.9277
0
LINE
8
Black
10
124.539
20
-66.9277
11
124.532
21
-66.8409
0
LINE
8
Black
10
124.532
20
-66.8409
11
124.532
21
-66.8376
0
LINE
8
Black
10
124.532
20
-66.8376
11
124.531
21
-66.8344
0
LINE
8
Black
10
124.531
20
-66.8344
11
124.531
21
-59.3344
0
LINE
8
Black
10
124.531
20
-59.3344
11
124.532
21
-59.3279
0
LINE
8
Black
10
124.532
20
-59.3279
11
124.532
21
-59.3214
0
LINE
8
Black
10
124.532
20
-59.3214
11
124.563
21
-59.1503
0
LINE
8
Black
10
124.563
20
-59.1503
11
124.571
21
-59.1259
0
LINE
8
Black
10
124.571
20
-59.1259
11
124.658
21
-58.9755
0
LINE
8
Black
10
124.658
20
-58.9755
11
124.675
21
-58.9555
0
LINE
8
Black
10
124.675
20
-58.9555
11
124.808
21
-58.8439
0
LINE
8
Black
10
124.808
20
-58.8439
11
124.831
21
-58.8309
0
LINE
8
Black
10
124.831
20
-58.8309
11
124.994
21
-58.7715
0
LINE
8
Black
10
124.994
20
-58.7715
11
125.003
21
-58.7698
0
LINE
8
Black
10
125.003
20
-58.7698
11
125.013
21
-58.7673
0
LINE
8
Black
10
125.013
20
-58.7673
11
125.1
21
-58.7597
0
LINE
8
Black
10
125.1
20
-58.7597
11
125.103
21
-58.7599
0
LINE
8
Black
10
125.103
20
-58.7599
11
125.106
21
-58.7594
0
LINE
8
Black
10
125.106
20
-58.7594
11
132.106
21
-58.7594
0
LINE
8
Black
10
132.106
20
-58.7594
11
132.113
21
-58.7605
0
LINE
8
Black
10
125.11
20
-58.9094
11
125.036
21
-58.9158
0
LINE
8
Black
10
125.036
20
-58.9158
11
124.894
21
-58.9673
0
LINE
8
Black
10
124.894
20
-58.9673
11
124.782
21
-59.0619
0
LINE
8
Black
10
124.782
20
-59.0619
11
124.708
21
-59.1894
0
LINE
8
Black
10
124.708
20
-59.1894
11
124.681
21
-59.3409
0
LINE
8
Black
10
124.681
20
-59.3409
11
124.681
21
-66.8311
0
LINE
8
Black
10
124.681
20
-66.8311
11
124.688
21
-66.9048
0
LINE
8
Black
10
124.688
20
-66.9048
11
124.739
21
-67.0463
0
LINE
8
Black
10
124.739
20
-67.0463
11
124.834
21
-67.1591
0
LINE
8
Black
10
124.834
20
-67.1591
11
124.961
21
-67.2327
0
LINE
8
Black
10
124.961
20
-67.2327
11
125.113
21
-67.2594
0
LINE
8
Black
10
125.113
20
-67.2594
11
132.103
21
-67.2594
0
LINE
8
Black
10
132.103
20
-67.2594
11
132.177
21
-67.2529
0
LINE
8
Black
10
132.177
20
-67.2529
11
132.318
21
-67.2014
0
LINE
8
Black
10
132.318
20
-67.2014
11
132.431
21
-67.1068
0
LINE
8
Black
10
132.431
20
-67.1068
11
132.505
21
-66.9793
0
LINE
8
Black
10
132.505
20
-66.9793
11
132.531
21
-66.8278
0
LINE
8
Black
10
132.531
20
-66.8278
11
132.531
21
-59.3377
0
LINE
8
Black
10
132.531
20
-59.3377
11
132.525
21
-59.2639
0
LINE
8
Black
10
132.525
20
-59.2639
11
132.473
21
-59.1225
0
LINE
8
Black
10
132.473
20
-59.1225
11
132.379
21
-59.0097
0
LINE
8
Black
10
132.379
20
-59.0097
11
132.251
21
-58.9361
0
LINE
8
Black
10
132.251
20
-58.9361
11
132.1
21
-58.9094
0
LINE
8
Black
10
132.1
20
-58.9094
11
125.11
21
-58.9094
  0
ENDSEC
  0
EOF
