  0
SECTION
  2
HEADER
  9
$ACADVER
  1
AC1015
  9
$ACADMAINTVER
 70
     6
  9
$DWGCODEPAGE
  3
ANSI_1252
  9
$INSBASE
 10
0.0
 20
0.0
 30
0.0
  9
$EXTMIN
 10
-74.3375
 20
-48.9
 30
0.0
  9
$EXTMAX
 10
74.3375
 20
53.5
 30
0.0
  9
$LIMMIN
 10
0.0
 20
0.0
  9
$LIMMAX
 10
420.0
 20
297.0
  9
$ORTHOMODE
 70
     0
  9
$REGENMODE
 70
     1
  9
$FILLMODE
 70
     1
  9
$QTEXTMODE
 70
     0
  9
$MIRRTEXT
 70
     1
  9
$LTSCALE
 40
1.0
  9
$ATTMODE
 70
     1
  9
$TEXTSIZE
 40
3.5
  9
$TRACEWID
 40
1.0
  9
$TEXTSTYLE
  7
Standard
  9
$CLAYER
  8
0
  9
$CELTYPE
  6
ByLayer
  9
$CECOLOR
 62
   256
  9
$CELTSCALE
 40
1.0
  9
$DISPSILH
 70
     0
  9
$DIMSCALE
 40
1.0
  9
$DIMASZ
 40
3.556
  9
$DIMEXO
 40
1.0
  9
$DIMDLI
 40
3.75
  9
$DIMRND
 40
0.0
  9
$DIMDLE
 40
0.0
  9
$DIMEXE
 40
1.0
  9
$DIMTP
 40
0.0
  9
$DIMTM
 40
0.0
  9
$DIMTXT
 40
3.5
  9
$DIMCEN
 40
2.5
  9
$DIMTSZ
 40
0.0
  9
$DIMTOL
 70
     0
  9
$DIMLIM
 70
     0
  9
$DIMTIH
 70
     1
  9
$DIMTOH
 70
     1
  9
$DIMSE1
 70
     0
  9
$DIMSE2
 70
     0
  9
$DIMTAD
 70
     1
  9
$DIMZIN
 70
     1
  9
$DIMBLK
  1

  9
$DIMASO
 70
     1
  9
$DIMSHO
 70
     1
  9
$DIMPOST
  1

  9
$DIMAPOST
  1

  9
$DIMALT
 70
     0
  9
$DIMALTD
 70
     3
  9
$DIMALTF
 40
0.0393700787
  9
$DIMLFAC
 40
1.0
  9
$DIMTOFL
 70
     1
  9
$DIMTVP
 40
0.0
  9
$DIMTIX
 70
     0
  9
$DIMSOXD
 70
     0
  9
$DIMSAH
 70
     0
  9
$DIMBLK1
  1

  9
$DIMBLK2
  1

  9
$DIMSTYLE
  2
ISO-25
  9
$DIMCLRD
 70
     0
  9
$DIMCLRE
 70
     0
  9
$DIMCLRT
 70
     0
  9
$DIMTFAC
 40
1.0
  9
$DIMGAP
 40
1.524
  9
$DIMJUST
 70
     0
  9
$DIMSD1
 70
     0
  9
$DIMSD2
 70
     0
  9
$DIMTOLJ
 70
     0
  9
$DIMTZIN
 70
     1
  9
$DIMALTZ
 70
     0
  9
$DIMALTTZ
 70
     0
  9
$DIMUPT
 70
     0
  9
$DIMDEC
 70
     2
  9
$DIMTDEC
 70
     2
  9
$DIMALTU
 70
     2
  9
$DIMALTTD
 70
     3
  9
$DIMTXSTY
  7
Standard
  9
$DIMAUNIT
 70
     0
  9
$DIMADEC
 70
     2
  9
$DIMALTRND
 40
0.0
  9
$DIMAZIN
 70
     0
  9
$DIMDSEP
 70
    44
  9
$DIMATFIT
 70
     3
  9
$DIMFRAC
 70
     0
  9
$DIMLDRBLK
  1

  9
$DIMLUNIT
 70
     2
  9
$DIMLWD
 70
    -2
  9
$DIMLWE
 70
    -2
  9
$DIMTMOVE
 70
     0
  9
$LUNITS
 70
     2
  9
$LUPREC
 70
     2
  9
$SKETCHINC
 40
1.0
  9
$FILLETRAD
 40
10.0
  9
$AUNITS
 70
     0
  9
$AUPREC
 70
     2
  9
$MENU
  1
.
  9
$ELEVATION
 40
0.0
  9
$PELEVATION
 40
0.0
  9
$THICKNESS
 40
0.0
  9
$LIMCHECK
 70
     0
  9
$CHAMFERA
 40
0.0
  9
$CHAMFERB
 40
0.0
  9
$CHAMFERC
 40
0.0
  9
$CHAMFERD
 40
0.0
  9
$SKPOLY
 70
     0
  9
$TDCREATE
 40
2459208.100011157
  9
$TDUCREATE
 40
2459208.308344491
  9
$TDUPDATE
 40
2459208.100121111
  9
$TDUUPDATE
 40
2459208.308454445
  9
$TDINDWG
 40
0.0000000116
  9
$TDUSRTIMER
 40
0.0000000116
  9
$USRTIMER
 70
     1
  9
$ANGBASE
 50
0.0
  9
$ANGDIR
 70
     0
  9
$PDMODE
 70
     0
  9
$PDSIZE
 40
-1.0
  9
$PLINEWID
 40
0.0
  9
$SPLFRAME
 70
     0
  9
$SPLINETYPE
 70
     6
  9
$SPLINESEGS
 70
     8
  9
$HANDSEED
  5
41B
  9
$SURFTAB1
 70
     6
  9
$SURFTAB2
 70
     6
  9
$SURFTYPE
 70
     6
  9
$SURFU
 70
     6
  9
$SURFV
 70
     6
  9
$UCSBASE
  2

  9
$UCSNAME
  2

  9
$UCSORG
 10
0.0
 20
0.0
 30
0.0
  9
$UCSXDIR
 10
1.0
 20
0.0
 30
0.0
  9
$UCSYDIR
 10
0.0
 20
1.0
 30
0.0
  9
$UCSORTHOREF
  2

  9
$UCSORTHOVIEW
 70
     0
  9
$UCSORGTOP
 10
0.0
 20
0.0
 30
0.0
  9
$UCSORGBOTTOM
 10
0.0
 20
0.0
 30
0.0
  9
$UCSORGLEFT
 10
0.0
 20
0.0
 30
0.0
  9
$UCSORGRIGHT
 10
0.0
 20
0.0
 30
0.0
  9
$UCSORGFRONT
 10
0.0
 20
0.0
 30
0.0
  9
$UCSORGBACK
 10
0.0
 20
0.0
 30
0.0
  9
$PUCSBASE
  2

  9
$PUCSNAME
  2

  9
$PUCSORG
 10
0.0
 20
0.0
 30
0.0
  9
$PUCSXDIR
 10
1.0
 20
0.0
 30
0.0
  9
$PUCSYDIR
 10
0.0
 20
1.0
 30
0.0
  9
$PUCSORTHOREF
  2

  9
$PUCSORTHOVIEW
 70
     0
  9
$PUCSORGTOP
 10
0.0
 20
0.0
 30
0.0
  9
$PUCSORGBOTTOM
 10
0.0
 20
0.0
 30
0.0
  9
$PUCSORGLEFT
 10
0.0
 20
0.0
 30
0.0
  9
$PUCSORGRIGHT
 10
0.0
 20
0.0
 30
0.0
  9
$PUCSORGFRONT
 10
0.0
 20
0.0
 30
0.0
  9
$PUCSORGBACK
 10
0.0
 20
0.0
 30
0.0
  9
$USERI1
 70
     0
  9
$USERI2
 70
     0
  9
$USERI3
 70
     0
  9
$USERI4
 70
     0
  9
$USERI5
 70
     0
  9
$USERR1
 40
0.0
  9
$USERR2
 40
0.0
  9
$USERR3
 40
0.0
  9
$USERR4
 40
0.0
  9
$USERR5
 40
0.0
  9
$WORLDVIEW
 70
     1
  9
$SHADEDGE
 70
     3
  9
$SHADEDIF
 70
    70
  9
$TILEMODE
 70
     1
  9
$MAXACTVP
 70
    64
  9
$PINSBASE
 10
0.0
 20
0.0
 30
0.0
  9
$PLIMCHECK
 70
     0
  9
$PEXTMIN
 10
1.0000000000E+20
 20
1.0000000000E+20
 30
1.0000000000E+20
  9
$PEXTMAX
 10
-1.0000000000E+20
 20
-1.0000000000E+20
 30
-1.0000000000E+20
  9
$PLIMMIN
 10
0.0
 20
0.0
  9
$PLIMMAX
 10
420.0
 20
297.0
  9
$UNITMODE
 70
     0
  9
$VISRETAIN
 70
     1
  9
$PLINEGEN
 70
     0
  9
$PSLTSCALE
 70
     1
  9
$TREEDEPTH
 70
  3020
  9
$CMLSTYLE
  2
Standard
  9
$CMLJUST
 70
     0
  9
$CMLSCALE
 40
20.0
  9
$PROXYGRAPHICS
 70
     1
  9
$MEASUREMENT
 70
     1
  9
$CELWEIGHT
370
    -1
  9
$ENDCAPS
280
     0
  9
$JOINSTYLE
280
     0
  9
$LWDISPLAY
290
     1
  9
$INSUNITS
 70
     4
  9
$HYPERLINKBASE
  1

  9
$STYLESHEET
  1

  9
$XEDIT
290
     1
  9
$CEPSNTYPE
380
     0
  9
$PSTYLEMODE
290
     1
  9
$FINGERPRINTGUID
  2
{115b5661-e54d-4d08-b9d1-020b70c9ba6f}
  9
$VERSIONGUID
  2
{FAEB1C32-E019-11D5-929B-00C0DF256EC4}
  9
$EXTNAMES
290
     1
  9
$PSVPSCALE
 40
0.0
  9
$OLESTARTUP
290
     0
  0
ENDSEC
  0
SECTION
  2
CLASSES
  0
CLASS
  1
ACDBDICTIONARYWDFLT
  2
AcDbDictionaryWithDefault
  3
ObjectDBX Classes
 90
        0
280
     0
281
     0
  0
CLASS
  1
VISUALSTYLE
  2
AcDbVisualStyle
  3
ObjectDBX Classes
 90
     4095
280
     0
281
     0
  0
CLASS
  1
MATERIAL
  2
AcDbMaterial
  3
ObjectDBX Classes
 90
     1153
280
     0
281
     0
  0
CLASS
  1
SCALE
  2
AcDbScale
  3
ObjectDBX Classes
 90
     1153
280
     0
281
     0
  0
CLASS
  1
TABLESTYLE
  2
AcDbTableStyle
  3
ObjectDBX Classes
 90
     4095
280
     0
281
     0
  0
CLASS
  1
MLEADERSTYLE
  2
AcDbMLeaderStyle
  3
ACDB_MLEADERSTYLE_CLASS
 90
     4095
280
     0
281
     0
  0
CLASS
  1
SUN
  2
AcDbSun
  3
SCENEOE
 90
     1153
280
     0
281
     0
  0
CLASS
  1
ACDBPLACEHOLDER
  2
AcDbPlaceHolder
  3
ObjectDBX Classes
 90
        0
280
     0
281
     0
  0
CLASS
  1
LAYOUT
  2
AcDbLayout
  3
ObjectDBX Classes
 90
        0
280
     0
281
     0
  0
ENDSEC
  0
SECTION
  2
TABLES
  0
TABLE
  2
VPORT
  5
8
330
0
100
AcDbSymbolTable
 70
     1
  0
VPORT
  5
29
330
8
100
AcDbSymbolTableRecord
100
AcDbViewportTableRecord
  2
*Active
 70
     0
 10
0.0
 20
0.0
 11
1.0
 21
1.0
 12
0.0
 22
2.3
 13
0.0
 23
0.0
 14
10.0
 24
10.0
 15
10.0
 25
10.0
 16
0.0
 26
0.0
 36
1.0
 17
0.0
 27
0.0
 37
0.0
 40
104.448
 41
1.4519042969
 42
50.0
 43
0.0
 44
0.0
 50
0.0
 51
0.0
 71
     0
 72
   100
 73
     1
 74
     3
 75
     0
 76
     0
 77
     0
 78
     0
281
     0
 65
     1
110
0.0
120
0.0
130
0.0
111
1.0
121
0.0
131
0.0
112
0.0
122
1.0
132
0.0
 79
     0
146
0.0
  0
ENDTAB
  0
TABLE
  2
LTYPE
  5
5
330
0
100
AcDbSymbolTable
 70
     6
  0
LTYPE
  5
14
330
5
100
AcDbSymbolTableRecord
100
AcDbLinetypeTableRecord
  2
ByBlock
 70
     0
  3

 72
    65
 73
     0
 40
0.0
  0
LTYPE
  5
15
330
5
100
AcDbSymbolTableRecord
100
AcDbLinetypeTableRecord
  2
ByLayer
 70
     0
  3

 72
    65
 73
     0
 40
0.0
  0
LTYPE
  5
16
330
5
100
AcDbSymbolTableRecord
100
AcDbLinetypeTableRecord
  2
Continuous
 70
     0
  3
Solid line
 72
    65
 73
     0
 40
0.0
  0
LTYPE
  5
6E
330
5
100
AcDbSymbolTableRecord
100
AcDbLinetypeTableRecord
  2
HIDDEN
 70
     0
  3
Hidden __ __ __ __ __ __ __ __ __ __ __ __ __ __
 72
    65
 73
     2
 40
1.905
 49
1.27
 74
     0
 49
-0.635
 74
     0
  0
LTYPE
  5
6F
330
5
100
AcDbSymbolTableRecord
100
AcDbLinetypeTableRecord
  2
PHANTOM
 70
     0
  3
Phantom ______  __  __  ______  __  __  ______
 72
    65
 73
     6
 40
12.7
 49
6.35
 74
     0
 49
-1.27
 74
     0
 49
1.27
 74
     0
 49
-1.27
 74
     0
 49
1.27
 74
     0
 49
-1.27
 74
     0
  0
LTYPE
  5
70
330
5
100
AcDbSymbolTableRecord
100
AcDbLinetypeTableRecord
  2
CENTER
 70
     0
  3
Center ____ _ ____ _ ____ _ ____ _ ____ _ ____
 72
    65
 73
     4
 40
10.16
 49
6.35
 74
     0
 49
-1.27
 74
     0
 49
1.27
 74
     0
 49
-1.27
 74
     0
  0
LTYPE
  5
71
330
5
100
AcDbSymbolTableRecord
100
AcDbLinetypeTableRecord
  2
CENTERX2
 70
     0
  3
Center (2x) ________  __  ________  __  _____
 72
    65
 73
     4
 40
20.32
 49
12.7
 74
     0
 49
-2.54
 74
     0
 49
2.54
 74
     0
 49
-2.54
 74
     0
  0
LTYPE
  5
72
330
5
100
AcDbSymbolTableRecord
100
AcDbLinetypeTableRecord
  2
DOT2
 70
     0
  3
Dot (.5x) ........................................
 72
    65
 73
     2
 40
0.635
 49
0.0
 74
     0
 49
-0.635
 74
     0
  0
ENDTAB
  0
TABLE
  2
LAYER
  5
2
330
0
100
AcDbSymbolTable
 70
     1
  0
LAYER
  5
10
330
2
100
AcDbSymbolTableRecord
100
AcDbLayerTableRecord
  2
0
 70
     0
 62
     7
  6
Continuous
370
    -3
390
F
  0
ENDTAB
  0
TABLE
  2
STYLE
  5
3
330
0
100
AcDbSymbolTable
 70
     1
  0
STYLE
  5
11
330
3
100
AcDbSymbolTableRecord
100
AcDbTextStyleTableRecord
  2
Standard
 70
     0
 40
0.0
 41
1.0
 50
0.0
 71
     0
 42
3.5
  3
txt
  4

  0
ENDTAB
  0
TABLE
  2
VIEW
  5
6
330
0
100
AcDbSymbolTable
 70
     0
  0
ENDTAB
  0
TABLE
  2
UCS
  5
7
330
0
100
AcDbSymbolTable
 70
     0
  0
ENDTAB
  0
TABLE
  2
APPID
  5
9
330
0
100
AcDbSymbolTable
 70
     1
  0
APPID
  5
12
330
9
100
AcDbSymbolTableRecord
100
AcDbRegAppTableRecord
  2
ACAD
 70
     0
  0
ENDTAB
  0
TABLE
  2
DIMSTYLE
  5
A
330
0
100
AcDbSymbolTable
 70
     1
100
AcDbDimStyleTable
  0
DIMSTYLE
105
27
330
A
100
AcDbSymbolTableRecord
100
AcDbDimStyleTableRecord
  2
ISO-25
 70
     0
 41
2.5
 42
0.625
 43
3.75
 44
1.25
 73
     0
 74
     0
 77
     1
 78
     8
140
2.5
141
2.5
143
0.0393700787
147
0.625
171
     3
172
     1
178
     0
271
     2
272
     2
274
     3
278
    44
283
     0
284
     8
340
11
  0
ENDTAB
  0
TABLE
  2
BLOCK_RECORD
  5
1
330
0
100
AcDbSymbolTable
 70
     1
  0
BLOCK_RECORD
  5
1F
330
1
100
AcDbSymbolTableRecord
100
AcDbBlockTableRecord
  2
*Model_Space
340
22
  0
BLOCK_RECORD
  5
1B
330
1
100
AcDbSymbolTableRecord
100
AcDbBlockTableRecord
  2
*Paper_Space
340
1E
  0
BLOCK_RECORD
  5
23
330
1
100
AcDbSymbolTableRecord
100
AcDbBlockTableRecord
  2
*Paper_Space0
340
26
  0
ENDTAB
  0
ENDSEC
  0
SECTION
  2
BLOCKS
  0
BLOCK
  5
20
330
1F
100
AcDbEntity
  8
0
100
AcDbBlockBegin
  2
*Model_Space
 70
     0
 10
0.0
 20
0.0
 30
0.0
  3
*Model_Space
  1

  0
ENDBLK
  5
21
330
1F
100
AcDbEntity
  8
0
100
AcDbBlockEnd
  0
BLOCK
  5
1C
330
1B
100
AcDbEntity
 67
     1
  8
0
100
AcDbBlockBegin
  2
*Paper_Space
 70
     0
 10
0.0
 20
0.0
 30
0.0
  3
*Paper_Space
  1

  0
ENDBLK
  5
1D
330
1B
100
AcDbEntity
 67
     1
  8
0
100
AcDbBlockEnd
  0
BLOCK
  5
24
330
23
100
AcDbEntity
  8
0
100
AcDbBlockBegin
  2
*Paper_Space0
 70
     0
 10
0.0
 20
0.0
 30
0.0
  3
*Paper_Space0
  1

  0
ENDBLK
  5
25
330
23
100
AcDbEntity
  8
0
100
AcDbBlockEnd
  0
ENDSEC
  0
SECTION
  2
ENTITIES
  0
LINE
  5
247
330
1F
100
AcDbEntity
  8
0
  6
Continuous
 62
     7
370
    25
100
AcDbLine
 10
-73.8875
 20
-35.3431524646
 30
0.0
 11
-72.2625
 21
-36.2813466521
 31
0.0
  0
LINE
  5
248
330
1F
100
AcDbEntity
  8
0
  6
Continuous
 62
     7
370
    25
100
AcDbLine
 10
-74.3375
 20
-30.075
 30
0.0
 11
-74.3375
 21
-34.5637296012
 31
0.0
  0
LINE
  5
249
330
1F
100
AcDbEntity
  8
0
  6
Continuous
 62
     7
370
    25
100
AcDbLine
 10
-73.8375
 20
-29.575
 30
0.0
 11
-73.0203203914
 21
-29.575
 31
0.0
  0
LINE
  5
24A
330
1F
100
AcDbEntity
  8
0
  6
Continuous
 62
     7
370
    25
100
AcDbLine
 10
-73.0203203914
 20
-27.575
 30
0.0
 11
-73.8375
 21
-27.575
 31
0.0
  0
LINE
  5
24B
330
1F
100
AcDbEntity
  8
0
  6
Continuous
 62
     7
370
    25
100
AcDbLine
 10
-74.3375
 20
27.075
 30
0.0
 11
-74.3375
 21
-27.075
 31
0.0
  0
LINE
  5
24C
330
1F
100
AcDbEntity
  8
0
  6
Continuous
 62
     7
370
    25
100
AcDbLine
 10
-73.8375
 20
27.575
 30
0.0
 11
-73.0203203914
 21
27.575
 31
0.0
  0
LINE
  5
24D
330
1F
100
AcDbEntity
  8
0
  6
Continuous
 62
     7
370
    25
100
AcDbLine
 10
-73.0203203914
 20
29.575
 30
0.0
 11
-73.8375
 21
29.575
 31
0.0
  0
LINE
  5
24E
330
1F
100
AcDbEntity
  8
0
  6
Continuous
 62
     7
370
    25
100
AcDbLine
 10
-74.3375
 20
34.5637296012
 30
0.0
 11
-74.3375
 21
30.075
 31
0.0
  0
LINE
  5
24F
330
1F
100
AcDbEntity
  8
0
  6
Continuous
 62
     7
370
    25
100
AcDbLine
 10
-72.2625
 20
36.2813466521
 30
0.0
 11
-73.8875
 21
35.3431524646
 31
0.0
  0
LINE
  5
250
330
1F
100
AcDbEntity
  8
0
  6
Continuous
 62
     7
370
    25
100
AcDbLine
 10
-71.7125
 20
52.1
 30
0.0
 11
-71.7125
 21
37.2339745962
 31
0.0
  0
LINE
  5
251
330
1F
100
AcDbEntity
  8
0
  6
Continuous
 62
     7
370
    25
100
AcDbLine
 10
70.3125
 20
53.5
 30
0.0
 11
-70.3125
 21
53.5
 31
0.0
  0
LINE
  5
252
330
1F
100
AcDbEntity
  8
0
  6
Continuous
 62
     7
370
    25
100
AcDbLine
 10
71.7125
 20
37.2339745962
 30
0.0
 11
71.7125
 21
52.1
 31
0.0
  0
LINE
  5
253
330
1F
100
AcDbEntity
  8
0
  6
Continuous
 62
     7
370
    25
100
AcDbLine
 10
73.8875
 20
35.3431524646
 30
0.0
 11
72.2625
 21
36.2813466521
 31
0.0
  0
LINE
  5
254
330
1F
100
AcDbEntity
  8
0
  6
Continuous
 62
     7
370
    25
100
AcDbLine
 10
74.3375
 20
30.075
 30
0.0
 11
74.3375
 21
34.5637296012
 31
0.0
  0
LINE
  5
255
330
1F
100
AcDbEntity
  8
0
  6
Continuous
 62
     7
370
    25
100
AcDbLine
 10
73.8375
 20
29.575
 30
0.0
 11
73.0203203914
 21
29.575
 31
0.0
  0
LINE
  5
256
330
1F
100
AcDbEntity
  8
0
  6
Continuous
 62
     7
370
    25
100
AcDbLine
 10
73.0203203914
 20
27.575
 30
0.0
 11
73.8375
 21
27.575
 31
0.0
  0
LINE
  5
257
330
1F
100
AcDbEntity
  8
0
  6
Continuous
 62
     7
370
    25
100
AcDbLine
 10
74.3375
 20
-27.075
 30
0.0
 11
74.3375
 21
27.075
 31
0.0
  0
LINE
  5
258
330
1F
100
AcDbEntity
  8
0
  6
Continuous
 62
     7
370
    25
100
AcDbLine
 10
73.8375
 20
-27.575
 30
0.0
 11
73.0203203914
 21
-27.575
 31
0.0
  0
LINE
  5
259
330
1F
100
AcDbEntity
  8
0
  6
Continuous
 62
     7
370
    25
100
AcDbLine
 10
73.0203203914
 20
-29.575
 30
0.0
 11
73.8375
 21
-29.575
 31
0.0
  0
LINE
  5
25A
330
1F
100
AcDbEntity
  8
0
  6
Continuous
 62
     7
370
    25
100
AcDbLine
 10
74.3375
 20
-34.5637296012
 30
0.0
 11
74.3375
 21
-30.075
 31
0.0
  0
LINE
  5
25B
330
1F
100
AcDbEntity
  8
0
  6
Continuous
 62
     7
370
    25
100
AcDbLine
 10
72.2625
 20
-36.2813466521
 30
0.0
 11
73.8875
 21
-35.3431524646
 31
0.0
  0
LINE
  5
25C
330
1F
100
AcDbEntity
  8
0
  6
Continuous
 62
     7
370
    25
100
AcDbLine
 10
71.7125
 20
-47.5
 30
0.0
 11
71.7125
 21
-37.2339745962
 31
0.0
  0
LINE
  5
25D
330
1F
100
AcDbEntity
  8
0
  6
Continuous
 62
     7
370
    25
100
AcDbLine
 10
-70.3125
 20
-48.9
 30
0.0
 11
70.3125
 21
-48.9
 31
0.0
  0
LINE
  5
25E
330
1F
100
AcDbEntity
  8
0
  6
Continuous
 62
     7
370
    25
100
AcDbLine
 10
-71.7125
 20
-37.2339745962
 30
0.0
 11
-71.7125
 21
-47.5
 31
0.0
  0
LINE
  5
25F
330
1F
100
AcDbEntity
  8
0
  6
Continuous
 62
     7
370
    25
100
AcDbLine
 10
20.1374999999
 20
-30.85
 30
0.0
 11
20.1374999999
 21
-31.1
 31
0.0
  0
LINE
  5
260
330
1F
100
AcDbEntity
  8
0
  6
Continuous
 62
     7
370
    25
100
AcDbLine
 10
20.1374999999
 20
-31.1
 30
0.0
 11
16.8124999999
 21
-31.1
 31
0.0
  0
LINE
  5
261
330
1F
100
AcDbEntity
  8
0
  6
Continuous
 62
     7
370
    25
100
AcDbLine
 10
16.8124999999
 20
-33.8320508076
 30
0.0
 11
16.8124999999
 21
-42.3679491924
 31
0.0
  0
LINE
  5
262
330
1F
100
AcDbEntity
  8
0
  6
Continuous
 62
     7
370
    25
100
AcDbLine
 10
16.8124999999
 20
-45.1
 30
0.0
 11
68.9124999999
 21
-45.1
 31
0.0
  0
LINE
  5
263
330
1F
100
AcDbEntity
  8
0
  6
Continuous
 62
     7
370
    25
100
AcDbLine
 10
68.9124999999
 20
-42.3679491924
 30
0.0
 11
68.9124999999
 21
-33.8320508076
 31
0.0
  0
LINE
  5
264
330
1F
100
AcDbEntity
  8
0
  6
Continuous
 62
     7
370
    25
100
AcDbLine
 10
68.9124999999
 20
-31.1
 30
0.0
 11
65.5874999999
 21
-31.1
 31
0.0
  0
LINE
  5
265
330
1F
100
AcDbEntity
  8
0
  6
Continuous
 62
     7
370
    25
100
AcDbLine
 10
65.5874999999
 20
-31.1
 30
0.0
 11
65.5874999999
 21
-30.85
 31
0.0
  0
LINE
  5
266
330
1F
100
AcDbEntity
  8
0
  6
Continuous
 62
     7
370
    25
100
AcDbLine
 10
63.0874999999
 20
-30.85
 30
0.0
 11
63.0874999999
 21
-31.1
 31
0.0
  0
LINE
  5
267
330
1F
100
AcDbEntity
  8
0
  6
Continuous
 62
     7
370
    25
100
AcDbLine
 10
63.0874999999
 20
-31.1
 30
0.0
 11
46.5374999999
 21
-31.1
 31
0.0
  0
LINE
  5
268
330
1F
100
AcDbEntity
  8
0
  6
Continuous
 62
     7
370
    25
100
AcDbLine
 10
46.5374999999
 20
-31.1
 30
0.0
 11
46.5374999999
 21
-30.85
 31
0.0
  0
LINE
  5
269
330
1F
100
AcDbEntity
  8
0
  6
Continuous
 62
     7
370
    25
100
AcDbLine
 10
44.0374999999
 20
-30.85
 30
0.0
 11
44.0374999999
 21
-31.1
 31
0.0
  0
LINE
  5
26A
330
1F
100
AcDbEntity
  8
0
  6
Continuous
 62
     7
370
    25
100
AcDbLine
 10
44.0374999999
 20
-31.1
 30
0.0
 11
41.6874999999
 21
-31.1
 31
0.0
  0
LINE
  5
26B
330
1F
100
AcDbEntity
  8
0
  6
Continuous
 62
     7
370
    25
100
AcDbLine
 10
41.6874999999
 20
-31.1
 30
0.0
 11
41.6874999999
 21
-30.85
 31
0.0
  0
LINE
  5
26C
330
1F
100
AcDbEntity
  8
0
  6
Continuous
 62
     7
370
    25
100
AcDbLine
 10
39.1874999999
 20
-30.85
 30
0.0
 11
39.1874999999
 21
-31.1
 31
0.0
  0
LINE
  5
26D
330
1F
100
AcDbEntity
  8
0
  6
Continuous
 62
     7
370
    25
100
AcDbLine
 10
39.1874999999
 20
-31.1
 30
0.0
 11
22.6374999999
 21
-31.1
 31
0.0
  0
LINE
  5
26E
330
1F
100
AcDbEntity
  8
0
  6
Continuous
 62
     7
370
    25
100
AcDbLine
 10
22.6374999999
 20
-31.1
 30
0.0
 11
22.6374999999
 21
-30.85
 31
0.0
  0
LINE
  5
26F
330
1F
100
AcDbEntity
  8
0
  6
Continuous
 62
     7
370
    25
100
AcDbLine
 10
-2.2375000001
 20
-33.8320508076
 30
0.0
 11
-2.2375000001
 21
-42.3679491924
 31
0.0
  0
LINE
  5
270
330
1F
100
AcDbEntity
  8
0
  6
Continuous
 62
     7
370
    25
100
AcDbLine
 10
-2.2375000001
 20
-45.1
 30
0.0
 11
11.7624999999
 21
-45.1
 31
0.0
  0
LINE
  5
271
330
1F
100
AcDbEntity
  8
0
  6
Continuous
 62
     7
370
    25
100
AcDbLine
 10
11.7624999999
 20
-42.3679491924
 30
0.0
 11
11.7624999999
 21
-33.8320508076
 31
0.0
  0
LINE
  5
272
330
1F
100
AcDbEntity
  8
0
  6
Continuous
 62
     7
370
    25
100
AcDbLine
 10
11.7624999999
 20
-31.1
 30
0.0
 11
-2.2375000001
 21
-31.1
 31
0.0
  0
LINE
  5
273
330
1F
100
AcDbEntity
  8
0
  6
Continuous
 62
     7
370
    25
100
AcDbLine
 10
-21.2875000001
 20
-33.8320508076
 30
0.0
 11
-21.2875000001
 21
-42.3679491924
 31
0.0
  0
LINE
  5
274
330
1F
100
AcDbEntity
  8
0
  6
Continuous
 62
     7
370
    25
100
AcDbLine
 10
-21.2875000001
 20
-45.1
 30
0.0
 11
-7.2875000001
 21
-45.1
 31
0.0
  0
LINE
  5
275
330
1F
100
AcDbEntity
  8
0
  6
Continuous
 62
     7
370
    25
100
AcDbLine
 10
-7.2875000001
 20
-42.3679491924
 30
0.0
 11
-7.2875000001
 21
-33.8320508076
 31
0.0
  0
LINE
  5
276
330
1F
100
AcDbEntity
  8
0
  6
Continuous
 62
     7
370
    25
100
AcDbLine
 10
-7.2875000001
 20
-31.1
 30
0.0
 11
-21.2875000001
 21
-31.1
 31
0.0
  0
LINE
  5
277
330
1F
100
AcDbEntity
  8
0
  6
Continuous
 62
     7
370
    25
100
AcDbLine
 10
-40.3375000001
 20
-33.8320508076
 30
0.0
 11
-40.3375000001
 21
-42.3679491924
 31
0.0
  0
LINE
  5
278
330
1F
100
AcDbEntity
  8
0
  6
Continuous
 62
     7
370
    25
100
AcDbLine
 10
-40.3375000001
 20
-45.1
 30
0.0
 11
-26.3375000001
 21
-45.1
 31
0.0
  0
LINE
  5
279
330
1F
100
AcDbEntity
  8
0
  6
Continuous
 62
     7
370
    25
100
AcDbLine
 10
-26.3375000001
 20
-42.3679491924
 30
0.0
 11
-26.3375000001
 21
-33.8320508076
 31
0.0
  0
LINE
  5
27A
330
1F
100
AcDbEntity
  8
0
  6
Continuous
 62
     7
370
    25
100
AcDbLine
 10
-26.3375000001
 20
-31.1
 30
0.0
 11
-40.3375000001
 21
-31.1
 31
0.0
  0
LINE
  5
27B
330
1F
100
AcDbEntity
  8
0
  6
Continuous
 62
     7
370
    25
100
AcDbLine
 10
-64.1500000001
 20
-33.8320508076
 30
0.0
 11
-64.1500000001
 21
-42.3679491924
 31
0.0
  0
LINE
  5
27C
330
1F
100
AcDbEntity
  8
0
  6
Continuous
 62
     7
370
    25
100
AcDbLine
 10
-64.1500000001
 20
-45.1
 30
0.0
 11
-50.1500000001
 21
-45.1
 31
0.0
  0
LINE
  5
27D
330
1F
100
AcDbEntity
  8
0
  6
Continuous
 62
     7
370
    25
100
AcDbLine
 10
-50.1500000001
 20
-42.3679491924
 30
0.0
 11
-50.1500000001
 21
-33.8320508076
 31
0.0
  0
LINE
  5
27E
330
1F
100
AcDbEntity
  8
0
  6
Continuous
 62
     7
370
    25
100
AcDbLine
 10
-50.1500000001
 20
-31.1
 30
0.0
 11
-64.1500000001
 21
-31.1
 31
0.0
  0
LINE
  5
27F
330
1F
100
AcDbEntity
  8
0
  6
Continuous
 62
     7
370
    25
100
AcDbLine
 10
54.9124999999
 20
-14.7820508076
 30
0.0
 11
54.9124999999
 21
-23.3179491924
 31
0.0
  0
LINE
  5
280
330
1F
100
AcDbEntity
  8
0
  6
Continuous
 62
     7
370
    25
100
AcDbLine
 10
54.9124999999
 20
-26.05
 30
0.0
 11
68.9124999999
 21
-26.05
 31
0.0
  0
LINE
  5
281
330
1F
100
AcDbEntity
  8
0
  6
Continuous
 62
     7
370
    25
100
AcDbLine
 10
68.9124999999
 20
-23.3179491924
 30
0.0
 11
68.9124999999
 21
-14.7820508076
 31
0.0
  0
LINE
  5
282
330
1F
100
AcDbEntity
  8
0
  6
Continuous
 62
     7
370
    25
100
AcDbLine
 10
68.9124999999
 20
-12.05
 30
0.0
 11
54.9124999999
 21
-12.05
 31
0.0
  0
LINE
  5
283
330
1F
100
AcDbEntity
  8
0
  6
Continuous
 62
     7
370
    25
100
AcDbLine
 10
35.8624999999
 20
-14.7820508076
 30
0.0
 11
35.8624999999
 21
-23.3179491924
 31
0.0
  0
LINE
  5
284
330
1F
100
AcDbEntity
  8
0
  6
Continuous
 62
     7
370
    25
100
AcDbLine
 10
35.8624999999
 20
-26.05
 30
0.0
 11
49.8624999999
 21
-26.05
 31
0.0
  0
LINE
  5
285
330
1F
100
AcDbEntity
  8
0
  6
Continuous
 62
     7
370
    25
100
AcDbLine
 10
49.8624999999
 20
-23.3179491924
 30
0.0
 11
49.8624999999
 21
-14.7820508076
 31
0.0
  0
LINE
  5
286
330
1F
100
AcDbEntity
  8
0
  6
Continuous
 62
     7
370
    25
100
AcDbLine
 10
49.8624999999
 20
-12.05
 30
0.0
 11
35.8624999999
 21
-12.05
 31
0.0
  0
LINE
  5
287
330
1F
100
AcDbEntity
  8
0
  6
Continuous
 62
     7
370
    25
100
AcDbLine
 10
16.8124999999
 20
-14.7820508076
 30
0.0
 11
16.8124999999
 21
-23.3179491924
 31
0.0
  0
LINE
  5
288
330
1F
100
AcDbEntity
  8
0
  6
Continuous
 62
     7
370
    25
100
AcDbLine
 10
16.8124999999
 20
-26.05
 30
0.0
 11
30.8124999999
 21
-26.05
 31
0.0
  0
LINE
  5
289
330
1F
100
AcDbEntity
  8
0
  6
Continuous
 62
     7
370
    25
100
AcDbLine
 10
30.8124999999
 20
-23.3179491924
 30
0.0
 11
30.8124999999
 21
-14.7820508076
 31
0.0
  0
LINE
  5
28A
330
1F
100
AcDbEntity
  8
0
  6
Continuous
 62
     7
370
    25
100
AcDbLine
 10
30.8124999999
 20
-12.05
 30
0.0
 11
16.8124999999
 21
-12.05
 31
0.0
  0
LINE
  5
28B
330
1F
100
AcDbEntity
  8
0
  6
Continuous
 62
     7
370
    25
100
AcDbLine
 10
-2.2375000001
 20
-14.7820508076
 30
0.0
 11
-2.2375000001
 21
-23.3179491924
 31
0.0
  0
LINE
  5
28C
330
1F
100
AcDbEntity
  8
0
  6
Continuous
 62
     7
370
    25
100
AcDbLine
 10
-2.2375000001
 20
-26.05
 30
0.0
 11
11.7624999999
 21
-26.05
 31
0.0
  0
LINE
  5
28D
330
1F
100
AcDbEntity
  8
0
  6
Continuous
 62
     7
370
    25
100
AcDbLine
 10
11.7624999999
 20
-23.3179491924
 30
0.0
 11
11.7624999999
 21
-14.7820508076
 31
0.0
  0
LINE
  5
28E
330
1F
100
AcDbEntity
  8
0
  6
Continuous
 62
     7
370
    25
100
AcDbLine
 10
11.7624999999
 20
-12.05
 30
0.0
 11
-2.2375000001
 21
-12.05
 31
0.0
  0
LINE
  5
28F
330
1F
100
AcDbEntity
  8
0
  6
Continuous
 62
     7
370
    25
100
AcDbLine
 10
-21.2875000001
 20
-14.7820508076
 30
0.0
 11
-21.2875000001
 21
-23.3179491924
 31
0.0
  0
LINE
  5
290
330
1F
100
AcDbEntity
  8
0
  6
Continuous
 62
     7
370
    25
100
AcDbLine
 10
-21.2875000001
 20
-26.05
 30
0.0
 11
-7.2875000001
 21
-26.05
 31
0.0
  0
LINE
  5
291
330
1F
100
AcDbEntity
  8
0
  6
Continuous
 62
     7
370
    25
100
AcDbLine
 10
-7.2875000001
 20
-23.3179491924
 30
0.0
 11
-7.2875000001
 21
-14.7820508076
 31
0.0
  0
LINE
  5
292
330
1F
100
AcDbEntity
  8
0
  6
Continuous
 62
     7
370
    25
100
AcDbLine
 10
-7.2875000001
 20
-12.05
 30
0.0
 11
-21.2875000001
 21
-12.05
 31
0.0
  0
LINE
  5
293
330
1F
100
AcDbEntity
  8
0
  6
Continuous
 62
     7
370
    25
100
AcDbLine
 10
-40.3375000001
 20
-14.7820508076
 30
0.0
 11
-40.3375000001
 21
-23.3179491924
 31
0.0
  0
LINE
  5
294
330
1F
100
AcDbEntity
  8
0
  6
Continuous
 62
     7
370
    25
100
AcDbLine
 10
-40.3375000001
 20
-26.05
 30
0.0
 11
-26.3375000001
 21
-26.05
 31
0.0
  0
LINE
  5
295
330
1F
100
AcDbEntity
  8
0
  6
Continuous
 62
     7
370
    25
100
AcDbLine
 10
-26.3375000001
 20
-23.3179491924
 30
0.0
 11
-26.3375000001
 21
-14.7820508076
 31
0.0
  0
LINE
  5
296
330
1F
100
AcDbEntity
  8
0
  6
Continuous
 62
     7
370
    25
100
AcDbLine
 10
-26.3375000001
 20
-12.05
 30
0.0
 11
-40.3375000001
 21
-12.05
 31
0.0
  0
LINE
  5
297
330
1F
100
AcDbEntity
  8
0
  6
Continuous
 62
     7
370
    25
100
AcDbLine
 10
-64.1500000001
 20
-14.7820508076
 30
0.0
 11
-64.1500000001
 21
-23.3179491924
 31
0.0
  0
LINE
  5
298
330
1F
100
AcDbEntity
  8
0
  6
Continuous
 62
     7
370
    25
100
AcDbLine
 10
-64.1500000001
 20
-26.05
 30
0.0
 11
-50.1500000001
 21
-26.05
 31
0.0
  0
LINE
  5
299
330
1F
100
AcDbEntity
  8
0
  6
Continuous
 62
     7
370
    25
100
AcDbLine
 10
-50.1500000001
 20
-23.3179491924
 30
0.0
 11
-50.1500000001
 21
-14.7820508076
 31
0.0
  0
LINE
  5
29A
330
1F
100
AcDbEntity
  8
0
  6
Continuous
 62
     7
370
    25
100
AcDbLine
 10
-50.1500000001
 20
-12.05
 30
0.0
 11
-64.1500000001
 21
-12.05
 31
0.0
  0
LINE
  5
29B
330
1F
100
AcDbEntity
  8
0
  6
Continuous
 62
     7
370
    25
100
AcDbLine
 10
54.9124999999
 20
4.2679491924
 30
0.0
 11
54.9124999999
 21
-4.2679491924
 31
0.0
  0
LINE
  5
29C
330
1F
100
AcDbEntity
  8
0
  6
Continuous
 62
     7
370
    25
100
AcDbLine
 10
54.9124999999
 20
-7.0
 30
0.0
 11
68.9124999999
 21
-7.0
 31
0.0
  0
LINE
  5
29D
330
1F
100
AcDbEntity
  8
0
  6
Continuous
 62
     7
370
    25
100
AcDbLine
 10
68.9124999999
 20
-4.2679491924
 30
0.0
 11
68.9124999999
 21
4.2679491924
 31
0.0
  0
LINE
  5
29E
330
1F
100
AcDbEntity
  8
0
  6
Continuous
 62
     7
370
    25
100
AcDbLine
 10
68.9124999999
 20
7.0
 30
0.0
 11
54.9124999999
 21
7.0
 31
0.0
  0
LINE
  5
29F
330
1F
100
AcDbEntity
  8
0
  6
Continuous
 62
     7
370
    25
100
AcDbLine
 10
35.8624999999
 20
4.2679491924
 30
0.0
 11
35.8624999999
 21
-4.2679491924
 31
0.0
  0
LINE
  5
2A0
330
1F
100
AcDbEntity
  8
0
  6
Continuous
 62
     7
370
    25
100
AcDbLine
 10
35.8624999999
 20
-7.0
 30
0.0
 11
49.8624999999
 21
-7.0
 31
0.0
  0
LINE
  5
2A1
330
1F
100
AcDbEntity
  8
0
  6
Continuous
 62
     7
370
    25
100
AcDbLine
 10
49.8624999999
 20
-4.2679491924
 30
0.0
 11
49.8624999999
 21
4.2679491924
 31
0.0
  0
LINE
  5
2A2
330
1F
100
AcDbEntity
  8
0
  6
Continuous
 62
     7
370
    25
100
AcDbLine
 10
49.8624999999
 20
7.0
 30
0.0
 11
35.8624999999
 21
7.0
 31
0.0
  0
LINE
  5
2A3
330
1F
100
AcDbEntity
  8
0
  6
Continuous
 62
     7
370
    25
100
AcDbLine
 10
16.8124999999
 20
4.2679491924
 30
0.0
 11
16.8124999999
 21
-4.2679491924
 31
0.0
  0
LINE
  5
2A4
330
1F
100
AcDbEntity
  8
0
  6
Continuous
 62
     7
370
    25
100
AcDbLine
 10
16.8124999999
 20
-7.0
 30
0.0
 11
30.8124999999
 21
-7.0
 31
0.0
  0
LINE
  5
2A5
330
1F
100
AcDbEntity
  8
0
  6
Continuous
 62
     7
370
    25
100
AcDbLine
 10
30.8124999999
 20
-4.2679491924
 30
0.0
 11
30.8124999999
 21
4.2679491924
 31
0.0
  0
LINE
  5
2A6
330
1F
100
AcDbEntity
  8
0
  6
Continuous
 62
     7
370
    25
100
AcDbLine
 10
30.8124999999
 20
7.0
 30
0.0
 11
16.8124999999
 21
7.0
 31
0.0
  0
LINE
  5
2A7
330
1F
100
AcDbEntity
  8
0
  6
Continuous
 62
     7
370
    25
100
AcDbLine
 10
-2.2375000001
 20
4.2679491924
 30
0.0
 11
-2.2375000001
 21
-4.2679491924
 31
0.0
  0
LINE
  5
2A8
330
1F
100
AcDbEntity
  8
0
  6
Continuous
 62
     7
370
    25
100
AcDbLine
 10
-2.2375000001
 20
-7.0
 30
0.0
 11
11.7624999999
 21
-7.0
 31
0.0
  0
LINE
  5
2A9
330
1F
100
AcDbEntity
  8
0
  6
Continuous
 62
     7
370
    25
100
AcDbLine
 10
11.7624999999
 20
-4.2679491924
 30
0.0
 11
11.7624999999
 21
4.2679491924
 31
0.0
  0
LINE
  5
2AA
330
1F
100
AcDbEntity
  8
0
  6
Continuous
 62
     7
370
    25
100
AcDbLine
 10
11.7624999999
 20
7.0
 30
0.0
 11
-2.2375000001
 21
7.0
 31
0.0
  0
LINE
  5
2AB
330
1F
100
AcDbEntity
  8
0
  6
Continuous
 62
     7
370
    25
100
AcDbLine
 10
-21.2875000001
 20
4.2679491924
 30
0.0
 11
-21.2875000001
 21
-4.2679491924
 31
0.0
  0
LINE
  5
2AC
330
1F
100
AcDbEntity
  8
0
  6
Continuous
 62
     7
370
    25
100
AcDbLine
 10
-21.2875000001
 20
-7.0
 30
0.0
 11
-7.2875000001
 21
-7.0
 31
0.0
  0
LINE
  5
2AD
330
1F
100
AcDbEntity
  8
0
  6
Continuous
 62
     7
370
    25
100
AcDbLine
 10
-7.2875000001
 20
-4.2679491924
 30
0.0
 11
-7.2875000001
 21
4.2679491924
 31
0.0
  0
LINE
  5
2AE
330
1F
100
AcDbEntity
  8
0
  6
Continuous
 62
     7
370
    25
100
AcDbLine
 10
-7.2875000001
 20
7.0
 30
0.0
 11
-21.2875000001
 21
7.0
 31
0.0
  0
LINE
  5
2AF
330
1F
100
AcDbEntity
  8
0
  6
Continuous
 62
     7
370
    25
100
AcDbLine
 10
-40.3375000001
 20
4.2679491924
 30
0.0
 11
-40.3375000001
 21
-4.2679491924
 31
0.0
  0
LINE
  5
2B0
330
1F
100
AcDbEntity
  8
0
  6
Continuous
 62
     7
370
    25
100
AcDbLine
 10
-40.3375000001
 20
-7.0
 30
0.0
 11
-26.3375000001
 21
-7.0
 31
0.0
  0
LINE
  5
2B1
330
1F
100
AcDbEntity
  8
0
  6
Continuous
 62
     7
370
    25
100
AcDbLine
 10
-26.3375000001
 20
-4.2679491924
 30
0.0
 11
-26.3375000001
 21
4.2679491924
 31
0.0
  0
LINE
  5
2B2
330
1F
100
AcDbEntity
  8
0
  6
Continuous
 62
     7
370
    25
100
AcDbLine
 10
-26.3375000001
 20
7.0
 30
0.0
 11
-40.3375000001
 21
7.0
 31
0.0
  0
LINE
  5
2B3
330
1F
100
AcDbEntity
  8
0
  6
Continuous
 62
     7
370
    25
100
AcDbLine
 10
-64.1500000001
 20
4.2679491924
 30
0.0
 11
-64.1500000001
 21
-4.2679491924
 31
0.0
  0
LINE
  5
2B4
330
1F
100
AcDbEntity
  8
0
  6
Continuous
 62
     7
370
    25
100
AcDbLine
 10
-64.1500000001
 20
-7.0
 30
0.0
 11
-50.1500000001
 21
-7.0
 31
0.0
  0
LINE
  5
2B5
330
1F
100
AcDbEntity
  8
0
  6
Continuous
 62
     7
370
    25
100
AcDbLine
 10
-50.1500000001
 20
-4.2679491924
 30
0.0
 11
-50.1500000001
 21
4.2679491924
 31
0.0
  0
LINE
  5
2B6
330
1F
100
AcDbEntity
  8
0
  6
Continuous
 62
     7
370
    25
100
AcDbLine
 10
-50.1500000001
 20
7.0
 30
0.0
 11
-64.1500000001
 21
7.0
 31
0.0
  0
LINE
  5
2B7
330
1F
100
AcDbEntity
  8
0
  6
Continuous
 62
     7
370
    25
100
AcDbLine
 10
54.9124999999
 20
26.575
 30
0.0
 11
54.9124999999
 21
14.7820508076
 31
0.0
  0
LINE
  5
2B8
330
1F
100
AcDbEntity
  8
0
  6
Continuous
 62
     7
370
    25
100
AcDbLine
 10
54.9124999999
 20
12.05
 30
0.0
 11
68.9124999999
 21
12.05
 31
0.0
  0
LINE
  5
2B9
330
1F
100
AcDbEntity
  8
0
  6
Continuous
 62
     7
370
    25
100
AcDbLine
 10
68.9124999999
 20
14.7820508076
 30
0.0
 11
68.9124999999
 21
26.575
 31
0.0
  0
LINE
  5
2BA
330
1F
100
AcDbEntity
  8
0
  6
Continuous
 62
     7
370
    25
100
AcDbLine
 10
65.9697249229
 20
26.05
 30
0.0
 11
57.855275077
 21
26.05
 31
0.0
  0
LINE
  5
2BB
330
1F
100
AcDbEntity
  8
0
  6
Continuous
 62
     7
370
    25
100
AcDbLine
 10
35.8624999999
 20
23.3179491924
 30
0.0
 11
35.8624999999
 21
14.7820508076
 31
0.0
  0
LINE
  5
2BC
330
1F
100
AcDbEntity
  8
0
  6
Continuous
 62
     7
370
    25
100
AcDbLine
 10
35.8624999999
 20
12.05
 30
0.0
 11
49.8624999999
 21
12.05
 31
0.0
  0
LINE
  5
2BD
330
1F
100
AcDbEntity
  8
0
  6
Continuous
 62
     7
370
    25
100
AcDbLine
 10
49.8624999999
 20
14.7820508076
 30
0.0
 11
49.8624999999
 21
23.3179491924
 31
0.0
  0
LINE
  5
2BE
330
1F
100
AcDbEntity
  8
0
  6
Continuous
 62
     7
370
    25
100
AcDbLine
 10
49.8624999999
 20
26.05
 30
0.0
 11
35.8624999999
 21
26.05
 31
0.0
  0
LINE
  5
2BF
330
1F
100
AcDbEntity
  8
0
  6
Continuous
 62
     7
370
    25
100
AcDbLine
 10
16.8124999999
 20
23.3179491924
 30
0.0
 11
16.8124999999
 21
14.7820508076
 31
0.0
  0
LINE
  5
2C0
330
1F
100
AcDbEntity
  8
0
  6
Continuous
 62
     7
370
    25
100
AcDbLine
 10
16.8124999999
 20
12.05
 30
0.0
 11
30.8124999999
 21
12.05
 31
0.0
  0
LINE
  5
2C1
330
1F
100
AcDbEntity
  8
0
  6
Continuous
 62
     7
370
    25
100
AcDbLine
 10
30.8124999999
 20
14.7820508076
 30
0.0
 11
30.8124999999
 21
23.3179491924
 31
0.0
  0
LINE
  5
2C2
330
1F
100
AcDbEntity
  8
0
  6
Continuous
 62
     7
370
    25
100
AcDbLine
 10
30.8124999999
 20
26.05
 30
0.0
 11
16.8124999999
 21
26.05
 31
0.0
  0
LINE
  5
2C3
330
1F
100
AcDbEntity
  8
0
  6
Continuous
 62
     7
370
    25
100
AcDbLine
 10
-2.2375000001
 20
23.3179491924
 30
0.0
 11
-2.2375000001
 21
14.7820508076
 31
0.0
  0
LINE
  5
2C4
330
1F
100
AcDbEntity
  8
0
  6
Continuous
 62
     7
370
    25
100
AcDbLine
 10
-2.2375000001
 20
12.05
 30
0.0
 11
11.7624999999
 21
12.05
 31
0.0
  0
LINE
  5
2C5
330
1F
100
AcDbEntity
  8
0
  6
Continuous
 62
     7
370
    25
100
AcDbLine
 10
11.7624999999
 20
14.7820508076
 30
0.0
 11
11.7624999999
 21
23.3179491924
 31
0.0
  0
LINE
  5
2C6
330
1F
100
AcDbEntity
  8
0
  6
Continuous
 62
     7
370
    25
100
AcDbLine
 10
11.7624999999
 20
26.05
 30
0.0
 11
-2.2375000001
 21
26.05
 31
0.0
  0
LINE
  5
2C7
330
1F
100
AcDbEntity
  8
0
  6
Continuous
 62
     7
370
    25
100
AcDbLine
 10
-21.2875000001
 20
23.3179491924
 30
0.0
 11
-21.2875000001
 21
14.7820508076
 31
0.0
  0
LINE
  5
2C8
330
1F
100
AcDbEntity
  8
0
  6
Continuous
 62
     7
370
    25
100
AcDbLine
 10
-21.2875000001
 20
12.05
 30
0.0
 11
-7.2875000001
 21
12.05
 31
0.0
  0
LINE
  5
2C9
330
1F
100
AcDbEntity
  8
0
  6
Continuous
 62
     7
370
    25
100
AcDbLine
 10
-7.2875000001
 20
14.7820508076
 30
0.0
 11
-7.2875000001
 21
23.3179491924
 31
0.0
  0
LINE
  5
2CA
330
1F
100
AcDbEntity
  8
0
  6
Continuous
 62
     7
370
    25
100
AcDbLine
 10
-7.2875000001
 20
26.05
 30
0.0
 11
-21.2875000001
 21
26.05
 31
0.0
  0
LINE
  5
2CB
330
1F
100
AcDbEntity
  8
0
  6
Continuous
 62
     7
370
    25
100
AcDbLine
 10
-40.3375000001
 20
23.3179491924
 30
0.0
 11
-40.3375000001
 21
14.7820508076
 31
0.0
  0
LINE
  5
2CC
330
1F
100
AcDbEntity
  8
0
  6
Continuous
 62
     7
370
    25
100
AcDbLine
 10
-40.3375000001
 20
12.05
 30
0.0
 11
-26.3375000001
 21
12.05
 31
0.0
  0
LINE
  5
2CD
330
1F
100
AcDbEntity
  8
0
  6
Continuous
 62
     7
370
    25
100
AcDbLine
 10
-26.3375000001
 20
14.7820508076
 30
0.0
 11
-26.3375000001
 21
23.3179491924
 31
0.0
  0
LINE
  5
2CE
330
1F
100
AcDbEntity
  8
0
  6
Continuous
 62
     7
370
    25
100
AcDbLine
 10
-26.3375000001
 20
26.05
 30
0.0
 11
-40.3375000001
 21
26.05
 31
0.0
  0
LINE
  5
2CF
330
1F
100
AcDbEntity
  8
0
  6
Continuous
 62
     7
370
    25
100
AcDbLine
 10
-64.1500000001
 20
23.3179491924
 30
0.0
 11
-64.1500000001
 21
14.7820508076
 31
0.0
  0
LINE
  5
2D0
330
1F
100
AcDbEntity
  8
0
  6
Continuous
 62
     7
370
    25
100
AcDbLine
 10
-64.1500000001
 20
12.05
 30
0.0
 11
-50.1500000001
 21
12.05
 31
0.0
  0
LINE
  5
2D1
330
1F
100
AcDbEntity
  8
0
  6
Continuous
 62
     7
370
    25
100
AcDbLine
 10
-50.1500000001
 20
14.7820508076
 30
0.0
 11
-50.1500000001
 21
23.3179491924
 31
0.0
  0
LINE
  5
2D2
330
1F
100
AcDbEntity
  8
0
  6
Continuous
 62
     7
370
    25
100
AcDbLine
 10
-50.1500000001
 20
26.05
 30
0.0
 11
-64.1500000001
 21
26.05
 31
0.0
  0
LINE
  5
2D3
330
1F
100
AcDbEntity
  8
0
  6
Continuous
 62
     7
370
    25
100
AcDbLine
 10
68.9124999999
 20
30.575
 30
0.0
 11
68.9124999999
 21
42.3679491924
 31
0.0
  0
LINE
  5
2D4
330
1F
100
AcDbEntity
  8
0
  6
Continuous
 62
     7
370
    25
100
AcDbLine
 10
68.9124999999
 20
45.1
 30
0.0
 11
54.9124999999
 21
45.1
 31
0.0
  0
LINE
  5
2D5
330
1F
100
AcDbEntity
  8
0
  6
Continuous
 62
     7
370
    25
100
AcDbLine
 10
54.9124999999
 20
42.3679491924
 30
0.0
 11
54.9124999999
 21
30.575
 31
0.0
  0
LINE
  5
2D6
330
1F
100
AcDbEntity
  8
0
  6
Continuous
 62
     7
370
    25
100
AcDbLine
 10
57.855275077
 20
31.1
 30
0.0
 11
65.9697249229
 21
31.1
 31
0.0
  0
LINE
  5
2D7
330
1F
100
AcDbEntity
  8
0
  6
Continuous
 62
     7
370
    25
100
AcDbLine
 10
35.8624999999
 20
42.3679491924
 30
0.0
 11
35.8624999999
 21
33.8320508076
 31
0.0
  0
LINE
  5
2D8
330
1F
100
AcDbEntity
  8
0
  6
Continuous
 62
     7
370
    25
100
AcDbLine
 10
35.8624999999
 20
31.1
 30
0.0
 11
49.8624999999
 21
31.1
 31
0.0
  0
LINE
  5
2D9
330
1F
100
AcDbEntity
  8
0
  6
Continuous
 62
     7
370
    25
100
AcDbLine
 10
49.8624999999
 20
33.8320508076
 30
0.0
 11
49.8624999999
 21
42.3679491924
 31
0.0
  0
LINE
  5
2DA
330
1F
100
AcDbEntity
  8
0
  6
Continuous
 62
     7
370
    25
100
AcDbLine
 10
49.8624999999
 20
45.1
 30
0.0
 11
35.8624999999
 21
45.1
 31
0.0
  0
LINE
  5
2DB
330
1F
100
AcDbEntity
  8
0
  6
Continuous
 62
     7
370
    25
100
AcDbLine
 10
16.8124999999
 20
42.3679491924
 30
0.0
 11
16.8124999999
 21
33.8320508076
 31
0.0
  0
LINE
  5
2DC
330
1F
100
AcDbEntity
  8
0
  6
Continuous
 62
     7
370
    25
100
AcDbLine
 10
16.8124999999
 20
31.1
 30
0.0
 11
30.8124999999
 21
31.1
 31
0.0
  0
LINE
  5
2DD
330
1F
100
AcDbEntity
  8
0
  6
Continuous
 62
     7
370
    25
100
AcDbLine
 10
30.8124999999
 20
33.8320508076
 30
0.0
 11
30.8124999999
 21
42.3679491924
 31
0.0
  0
LINE
  5
2DE
330
1F
100
AcDbEntity
  8
0
  6
Continuous
 62
     7
370
    25
100
AcDbLine
 10
30.8124999999
 20
45.1
 30
0.0
 11
16.8124999999
 21
45.1
 31
0.0
  0
LINE
  5
2DF
330
1F
100
AcDbEntity
  8
0
  6
Continuous
 62
     7
370
    25
100
AcDbLine
 10
-2.2375000001
 20
42.3679491924
 30
0.0
 11
-2.2375000001
 21
33.8320508076
 31
0.0
  0
LINE
  5
2E0
330
1F
100
AcDbEntity
  8
0
  6
Continuous
 62
     7
370
    25
100
AcDbLine
 10
-2.2375000001
 20
31.1
 30
0.0
 11
11.7624999999
 21
31.1
 31
0.0
  0
LINE
  5
2E1
330
1F
100
AcDbEntity
  8
0
  6
Continuous
 62
     7
370
    25
100
AcDbLine
 10
11.7624999999
 20
33.8320508076
 30
0.0
 11
11.7624999999
 21
42.3679491924
 31
0.0
  0
LINE
  5
2E2
330
1F
100
AcDbEntity
  8
0
  6
Continuous
 62
     7
370
    25
100
AcDbLine
 10
11.7624999999
 20
45.1
 30
0.0
 11
-2.2375000001
 21
45.1
 31
0.0
  0
LINE
  5
2E3
330
1F
100
AcDbEntity
  8
0
  6
Continuous
 62
     7
370
    25
100
AcDbLine
 10
-21.2875000001
 20
42.3679491924
 30
0.0
 11
-21.2875000001
 21
33.8320508076
 31
0.0
  0
LINE
  5
2E4
330
1F
100
AcDbEntity
  8
0
  6
Continuous
 62
     7
370
    25
100
AcDbLine
 10
-21.2875000001
 20
31.1
 30
0.0
 11
-7.2875000001
 21
31.1
 31
0.0
  0
LINE
  5
2E5
330
1F
100
AcDbEntity
  8
0
  6
Continuous
 62
     7
370
    25
100
AcDbLine
 10
-7.2875000001
 20
33.8320508076
 30
0.0
 11
-7.2875000001
 21
42.3679491924
 31
0.0
  0
LINE
  5
2E6
330
1F
100
AcDbEntity
  8
0
  6
Continuous
 62
     7
370
    25
100
AcDbLine
 10
-7.2875000001
 20
45.1
 30
0.0
 11
-21.2875000001
 21
45.1
 31
0.0
  0
LINE
  5
2E7
330
1F
100
AcDbEntity
  8
0
  6
Continuous
 62
     7
370
    25
100
AcDbLine
 10
-40.3375000001
 20
42.3679491924
 30
0.0
 11
-40.3375000001
 21
33.8320508076
 31
0.0
  0
LINE
  5
2E8
330
1F
100
AcDbEntity
  8
0
  6
Continuous
 62
     7
370
    25
100
AcDbLine
 10
-40.3375000001
 20
31.1
 30
0.0
 11
-26.3375000001
 21
31.1
 31
0.0
  0
LINE
  5
2E9
330
1F
100
AcDbEntity
  8
0
  6
Continuous
 62
     7
370
    25
100
AcDbLine
 10
-26.3375000001
 20
33.8320508076
 30
0.0
 11
-26.3375000001
 21
42.3679491924
 31
0.0
  0
LINE
  5
2EA
330
1F
100
AcDbEntity
  8
0
  6
Continuous
 62
     7
370
    25
100
AcDbLine
 10
-26.3375000001
 20
45.1
 30
0.0
 11
-40.3375000001
 21
45.1
 31
0.0
  0
LINE
  5
2EB
330
1F
100
AcDbEntity
  8
0
  6
Continuous
 62
     7
370
    25
100
AcDbLine
 10
-64.1500000001
 20
42.3679491924
 30
0.0
 11
-64.1500000001
 21
33.8320508076
 31
0.0
  0
LINE
  5
2EC
330
1F
100
AcDbEntity
  8
0
  6
Continuous
 62
     7
370
    25
100
AcDbLine
 10
-64.1500000001
 20
31.1
 30
0.0
 11
-50.1500000001
 21
31.1
 31
0.0
  0
LINE
  5
2ED
330
1F
100
AcDbEntity
  8
0
  6
Continuous
 62
     7
370
    25
100
AcDbLine
 10
-50.1500000001
 20
33.8320508076
 30
0.0
 11
-50.1500000001
 21
42.3679491924
 31
0.0
  0
LINE
  5
2EE
330
1F
100
AcDbEntity
  8
0
  6
Continuous
 62
     7
370
    25
100
AcDbLine
 10
-50.1500000001
 20
45.1
 30
0.0
 11
-64.1500000001
 21
45.1
 31
0.0
  0
ARC
  5
2EF
330
1F
100
AcDbEntity
  8
0
  6
Continuous
 62
     7
370
    25
100
AcDbCircle
 10
-72.8125
 20
-37.2339745962
 30
0.0
 40
1.099999999999956
100
AcDbArc
 50
0.0
 51
60.0
  0
ARC
  5
2F0
330
1F
100
AcDbEntity
  8
0
  6
Continuous
 62
     7
370
    25
100
AcDbCircle
 10
-73.4375
 20
-34.5637296012
 30
0.0
 40
0.9000000000000441
100
AcDbArc
 50
180.0
 51
240.0
  0
ARC
  5
2F1
330
1F
100
AcDbEntity
  8
0
  6
Continuous
 62
     7
370
    25
100
AcDbCircle
 10
-73.8375
 20
-30.075
 30
0.0
 40
0.4999999999999716
100
AcDbArc
 50
90.0
 51
180.0
  0
ARC
  5
2F2
330
1F
100
AcDbEntity
  8
0
  6
Continuous
 62
     7
370
    25
100
AcDbCircle
 10
-73.0203203914
 20
-30.075
 30
0.0
 40
0.4999999999999183
100
AcDbArc
 50
54.1752256313
 51
90.0
  0
ARC
  5
2F3
330
1F
100
AcDbEntity
  8
0
  6
Continuous
 62
     7
370
    25
100
AcDbCircle
 10
-71.9375
 20
-28.575
 30
0.0
 40
1.350000000000309
100
AcDbArc
 50
234.1752256313
 51
125.8247743687
  0
ARC
  5
2F4
330
1F
100
AcDbEntity
  8
0
  6
Continuous
 62
     7
370
    25
100
AcDbCircle
 10
-73.0203203914
 20
-27.075
 30
0.0
 40
0.5000000000003944
100
AcDbArc
 50
270.0
 51
305.8247743686
  0
ARC
  5
2F5
330
1F
100
AcDbEntity
  8
0
  6
Continuous
 62
     7
370
    25
100
AcDbCircle
 10
-73.8375
 20
-27.075
 30
0.0
 40
0.5000000000003553
100
AcDbArc
 50
180.0
 51
270.0
  0
ARC
  5
2F6
330
1F
100
AcDbEntity
  8
0
  6
Continuous
 62
     7
370
    25
100
AcDbCircle
 10
-73.8375
 20
27.075
 30
0.0
 40
0.5000000000000142
100
AcDbArc
 50
90.0
 51
180.0
  0
ARC
  5
2F7
330
1F
100
AcDbEntity
  8
0
  6
Continuous
 62
     7
370
    25
100
AcDbCircle
 10
-73.0203203914
 20
27.075
 30
0.0
 40
0.4999999999999893
100
AcDbArc
 50
54.1752256314
 51
90.0
  0
ARC
  5
2F8
330
1F
100
AcDbEntity
  8
0
  6
Continuous
 62
     7
370
    25
100
AcDbCircle
 10
-71.9375
 20
28.575
 30
0.0
 40
1.349999999999995
100
AcDbArc
 50
234.1752256314
 51
125.8247743686
  0
ARC
  5
2F9
330
1F
100
AcDbEntity
  8
0
  6
Continuous
 62
     7
370
    25
100
AcDbCircle
 10
-73.0203203914
 20
30.075
 30
0.0
 40
0.4999999999999439
100
AcDbArc
 50
270.0
 51
305.8247743687
  0
ARC
  5
2FA
330
1F
100
AcDbEntity
  8
0
  6
Continuous
 62
     7
370
    25
100
AcDbCircle
 10
-73.8375
 20
30.075
 30
0.0
 40
0.5000000000031157
100
AcDbArc
 50
180.0000000004
 51
269.9999999998
  0
ARC
  5
2FB
330
1F
100
AcDbEntity
  8
0
  6
Continuous
 62
     7
370
    25
100
AcDbCircle
 10
-73.4375
 20
34.5637296012
 30
0.0
 40
0.900000000000011
100
AcDbArc
 50
120.0
 51
180.0
  0
ARC
  5
2FC
330
1F
100
AcDbEntity
  8
0
  6
Continuous
 62
     7
370
    25
100
AcDbCircle
 10
-72.8125
 20
37.2339745962
 30
0.0
 40
1.100000000000037
100
AcDbArc
 50
300.0
 51
0.0
  0
ARC
  5
2FD
330
1F
100
AcDbEntity
  8
0
  6
Continuous
 62
     7
370
    25
100
AcDbCircle
 10
-70.3125
 20
52.1
 30
0.0
 40
1.400000000000034
100
AcDbArc
 50
90.0
 51
180.0
  0
ARC
  5
2FE
330
1F
100
AcDbEntity
  8
0
  6
Continuous
 62
     7
370
    25
100
AcDbCircle
 10
70.3125
 20
52.1
 30
0.0
 40
1.400000000000034
100
AcDbArc
 50
0.0
 51
90.0
  0
ARC
  5
2FF
330
1F
100
AcDbEntity
  8
0
  6
Continuous
 62
     7
370
    25
100
AcDbCircle
 10
72.8125
 20
37.2339745962
 30
0.0
 40
1.100000000000065
100
AcDbArc
 50
180.0
 51
240.0
  0
ARC
  5
300
330
1F
100
AcDbEntity
  8
0
  6
Continuous
 62
     7
370
    25
100
AcDbCircle
 10
73.4375
 20
34.5637296012
 30
0.0
 40
0.9000000000000199
100
AcDbArc
 50
0.0
 51
60.0
  0
ARC
  5
301
330
1F
100
AcDbEntity
  8
0
  6
Continuous
 62
     7
370
    25
100
AcDbCircle
 10
73.8375
 20
30.075
 30
0.0
 40
0.5000000000000142
100
AcDbArc
 50
269.9999999999
 51
0.0000000001
  0
ARC
  5
302
330
1F
100
AcDbEntity
  8
0
  6
Continuous
 62
     7
370
    25
100
AcDbCircle
 10
73.0203203914
 20
30.075
 30
0.0
 40
0.499999999999964
100
AcDbArc
 50
234.1752256314
 51
270.0
  0
ARC
  5
303
330
1F
100
AcDbEntity
  8
0
  6
Continuous
 62
     7
370
    25
100
AcDbCircle
 10
71.9375
 20
28.575
 30
0.0
 40
1.349999999999618
100
AcDbArc
 50
54.1752256314
 51
305.8247743686
  0
ARC
  5
304
330
1F
100
AcDbEntity
  8
0
  6
Continuous
 62
     7
370
    25
100
AcDbCircle
 10
73.0203203914
 20
27.075
 30
0.0
 40
0.499999999999865
100
AcDbArc
 50
90.0
 51
125.8247743687
  0
ARC
  5
305
330
1F
100
AcDbEntity
  8
0
  6
Continuous
 62
     7
370
    25
100
AcDbCircle
 10
73.8375
 20
27.075
 30
0.0
 40
0.4999999999973745
100
AcDbArc
 50
359.9999999997
 51
90.0000000002
  0
ARC
  5
306
330
1F
100
AcDbEntity
  8
0
  6
Continuous
 62
     7
370
    25
100
AcDbCircle
 10
73.8375
 20
-27.075
 30
0.0
 40
0.4999999999999574
100
AcDbArc
 50
270.0
 51
0.0
  0
ARC
  5
307
330
1F
100
AcDbEntity
  8
0
  6
Continuous
 62
     7
370
    25
100
AcDbCircle
 10
73.0203203914
 20
-27.075
 30
0.0
 40
0.4999999999713902
100
AcDbArc
 50
234.1752256299
 51
270.0000000006
  0
ARC
  5
308
330
1F
100
AcDbEntity
  8
0
  6
Continuous
 62
     7
370
    25
100
AcDbCircle
 10
71.9375
 20
-28.575
 30
0.0
 40
1.350000000000178
100
AcDbArc
 50
54.1752256313
 51
305.8247743686
  0
ARC
  5
309
330
1F
100
AcDbEntity
  8
0
  6
Continuous
 62
     7
370
    25
100
AcDbCircle
 10
73.0203203914
 20
-30.075
 30
0.0
 40
0.49999999997354
100
AcDbArc
 50
89.9999999986
 51
125.8247743693
  0
ARC
  5
30A
330
1F
100
AcDbEntity
  8
0
  6
Continuous
 62
     7
370
    25
100
AcDbCircle
 10
73.8375
 20
-30.075
 30
0.0
 40
0.5000000000040643
100
AcDbArc
 50
0.0000000005
 51
89.9999999998
  0
ARC
  5
30B
330
1F
100
AcDbEntity
  8
0
  6
Continuous
 62
     7
370
    25
100
AcDbCircle
 10
73.4375
 20
-34.5637296012
 30
0.0
 40
0.9000000000000199
100
AcDbArc
 50
300.0
 51
0.0
  0
ARC
  5
30C
330
1F
100
AcDbEntity
  8
0
  6
Continuous
 62
     7
370
    25
100
AcDbCircle
 10
72.8125
 20
-37.2339745962
 30
0.0
 40
1.100000000000023
100
AcDbArc
 50
120.0
 51
180.0
  0
ARC
  5
30D
330
1F
100
AcDbEntity
  8
0
  6
Continuous
 62
     7
370
    25
100
AcDbCircle
 10
70.3125
 20
-47.5
 30
0.0
 40
1.40000000000002
100
AcDbArc
 50
270.0
 51
0.0
  0
ARC
  5
30E
330
1F
100
AcDbEntity
  8
0
  6
Continuous
 62
     7
370
    25
100
AcDbCircle
 10
-70.3125
 20
-47.5
 30
0.0
 40
1.40000000000002
100
AcDbArc
 50
180.0
 51
270.0
  0
ARC
  5
30F
330
1F
100
AcDbEntity
  8
0
  6
Continuous
 62
     7
370
    25
100
AcDbCircle
 10
16.8124999999
 20
-32.1
 30
0.0
 40
1.000000000000007
100
AcDbArc
 50
90.0
 51
240.0
  0
ARC
  5
310
330
1F
100
AcDbEntity
  8
0
  6
Continuous
 62
     7
370
    25
100
AcDbCircle
 10
15.8124999999
 20
-33.8320508076
 30
0.0
 40
0.9999999999999716
100
AcDbArc
 50
0.0
 51
60.0
  0
ARC
  5
311
330
1F
100
AcDbEntity
  8
0
  6
Continuous
 62
     7
370
    25
100
AcDbCircle
 10
15.8124999999
 20
-42.3679491924
 30
0.0
 40
0.9999999999999827
100
AcDbArc
 50
300.0
 51
0.0
  0
ARC
  5
312
330
1F
100
AcDbEntity
  8
0
  6
Continuous
 62
     7
370
    25
100
AcDbCircle
 10
16.8124999999
 20
-44.1
 30
0.0
 40
1.000000000000014
100
AcDbArc
 50
120.0
 51
270.0
  0
ARC
  5
313
330
1F
100
AcDbEntity
  8
0
  6
Continuous
 62
     7
370
    25
100
AcDbCircle
 10
68.9124999999
 20
-44.1
 30
0.0
 40
1.000000000000014
100
AcDbArc
 50
270.0
 51
60.0
  0
ARC
  5
314
330
1F
100
AcDbEntity
  8
0
  6
Continuous
 62
     7
370
    25
100
AcDbCircle
 10
69.9124999999
 20
-42.3679491924
 30
0.0
 40
1.000000000000014
100
AcDbArc
 50
180.0
 51
240.0
  0
ARC
  5
315
330
1F
100
AcDbEntity
  8
0
  6
Continuous
 62
     7
370
    25
100
AcDbCircle
 10
69.9124999999
 20
-33.8320508076
 30
0.0
 40
1.0000000000009
100
AcDbArc
 50
120.0
 51
180.0
  0
ARC
  5
316
330
1F
100
AcDbEntity
  8
0
  6
Continuous
 62
     7
370
    25
100
AcDbCircle
 10
68.9124999999
 20
-32.1
 30
0.0
 40
0.9999999999996696
100
AcDbArc
 50
300.0
 51
90.0
  0
ARC
  5
317
330
1F
100
AcDbEntity
  8
0
  6
Continuous
 62
     7
370
    25
100
AcDbCircle
 10
64.3374999999
 20
-30.85
 30
0.0
 40
1.250000000000007
100
AcDbArc
 50
0.0
 51
180.0
  0
ARC
  5
318
330
1F
100
AcDbEntity
  8
0
  6
Continuous
 62
     7
370
    25
100
AcDbCircle
 10
45.2874999999
 20
-30.85
 30
0.0
 40
1.250000000000014
100
AcDbArc
 50
0.0
 51
180.0
  0
ARC
  5
319
330
1F
100
AcDbEntity
  8
0
  6
Continuous
 62
     7
370
    25
100
AcDbCircle
 10
40.4374999999
 20
-30.85
 30
0.0
 40
1.25
100
AcDbArc
 50
0.0
 51
180.0
  0
ARC
  5
31A
330
1F
100
AcDbEntity
  8
0
  6
Continuous
 62
     7
370
    25
100
AcDbCircle
 10
21.3874999999
 20
-30.85
 30
0.0
 40
1.250000000000004
100
AcDbArc
 50
0.0
 51
180.0
  0
ARC
  5
31B
330
1F
100
AcDbEntity
  8
0
  6
Continuous
 62
     7
370
    25
100
AcDbCircle
 10
-3.2375000001
 20
-42.3679491924
 30
0.0
 40
0.9999999999999996
100
AcDbArc
 50
300.0
 51
0.0
  0
ARC
  5
31C
330
1F
100
AcDbEntity
  8
0
  6
Continuous
 62
     7
370
    25
100
AcDbCircle
 10
-2.2375000001
 20
-44.1
 30
0.0
 40
1.000000000000014
100
AcDbArc
 50
120.0
 51
270.0
  0
ARC
  5
31D
330
1F
100
AcDbEntity
  8
0
  6
Continuous
 62
     7
370
    25
100
AcDbCircle
 10
11.7624999999
 20
-44.1
 30
0.0
 40
1.000000000000014
100
AcDbArc
 50
270.0
 51
60.0
  0
ARC
  5
31E
330
1F
100
AcDbEntity
  8
0
  6
Continuous
 62
     7
370
    25
100
AcDbCircle
 10
12.7624999999
 20
-42.3679491924
 30
0.0
 40
1.000000000000011
100
AcDbArc
 50
180.0
 51
240.0
  0
ARC
  5
31F
330
1F
100
AcDbEntity
  8
0
  6
Continuous
 62
     7
370
    25
100
AcDbCircle
 10
12.7624999999
 20
-33.8320508076
 30
0.0
 40
1.000000000000854
100
AcDbArc
 50
120.0
 51
180.0
  0
ARC
  5
320
330
1F
100
AcDbEntity
  8
0
  6
Continuous
 62
     7
370
    25
100
AcDbCircle
 10
11.7624999999
 20
-32.1
 30
0.0
 40
0.9999999999996696
100
AcDbArc
 50
300.0
 51
90.0
  0
ARC
  5
321
330
1F
100
AcDbEntity
  8
0
  6
Continuous
 62
     7
370
    25
100
AcDbCircle
 10
-2.2375000001
 20
-32.1
 30
0.0
 40
1.000000000000005
100
AcDbArc
 50
90.0
 51
240.0
  0
ARC
  5
322
330
1F
100
AcDbEntity
  8
0
  6
Continuous
 62
     7
370
    25
100
AcDbCircle
 10
-3.2375000001
 20
-33.8320508076
 30
0.0
 40
0.9999999999999929
100
AcDbArc
 50
0.0
 51
60.0
  0
ARC
  5
323
330
1F
100
AcDbEntity
  8
0
  6
Continuous
 62
     7
370
    25
100
AcDbCircle
 10
-22.2875000001
 20
-42.3679491924
 30
0.0
 40
0.9999999999999827
100
AcDbArc
 50
300.0
 51
0.0
  0
ARC
  5
324
330
1F
100
AcDbEntity
  8
0
  6
Continuous
 62
     7
370
    25
100
AcDbCircle
 10
-21.2875000001
 20
-44.1
 30
0.0
 40
1.000000000000014
100
AcDbArc
 50
120.0
 51
270.0
  0
ARC
  5
325
330
1F
100
AcDbEntity
  8
0
  6
Continuous
 62
     7
370
    25
100
AcDbCircle
 10
-7.2875000001
 20
-44.1
 30
0.0
 40
1.000000000000014
100
AcDbArc
 50
270.0
 51
60.0
  0
ARC
  5
326
330
1F
100
AcDbEntity
  8
0
  6
Continuous
 62
     7
370
    25
100
AcDbCircle
 10
-6.2875000001
 20
-42.3679491924
 30
0.0
 40
1.00000000000001
100
AcDbArc
 50
180.0
 51
240.0
  0
ARC
  5
327
330
1F
100
AcDbEntity
  8
0
  6
Continuous
 62
     7
370
    25
100
AcDbCircle
 10
-6.2875000001
 20
-33.8320508076
 30
0.0
 40
1.000000000000858
100
AcDbArc
 50
120.0
 51
180.0
  0
ARC
  5
328
330
1F
100
AcDbEntity
  8
0
  6
Continuous
 62
     7
370
    25
100
AcDbCircle
 10
-7.2875000001
 20
-32.1
 30
0.0
 40
0.9999999999996696
100
AcDbArc
 50
300.0
 51
90.0
  0
ARC
  5
329
330
1F
100
AcDbEntity
  8
0
  6
Continuous
 62
     7
370
    25
100
AcDbCircle
 10
-21.2875000001
 20
-32.1
 30
0.0
 40
1.000000000000007
100
AcDbArc
 50
90.0
 51
240.0
  0
ARC
  5
32A
330
1F
100
AcDbEntity
  8
0
  6
Continuous
 62
     7
370
    25
100
AcDbCircle
 10
-22.2875000001
 20
-33.8320508076
 30
0.0
 40
0.999999999999968
100
AcDbArc
 50
0.0
 51
60.0
  0
ARC
  5
32B
330
1F
100
AcDbEntity
  8
0
  6
Continuous
 62
     7
370
    25
100
AcDbCircle
 10
-41.3375000001
 20
-42.3679491924
 30
0.0
 40
1.000000000000016
100
AcDbArc
 50
300.0
 51
0.0
  0
ARC
  5
32C
330
1F
100
AcDbEntity
  8
0
  6
Continuous
 62
     7
370
    25
100
AcDbCircle
 10
-40.3375000001
 20
-44.1
 30
0.0
 40
1.000000000000014
100
AcDbArc
 50
120.0
 51
270.0
  0
ARC
  5
32D
330
1F
100
AcDbEntity
  8
0
  6
Continuous
 62
     7
370
    25
100
AcDbCircle
 10
-26.3375000001
 20
-44.1
 30
0.0
 40
1.000000000000014
100
AcDbArc
 50
270.0
 51
60.0
  0
ARC
  5
32E
330
1F
100
AcDbEntity
  8
0
  6
Continuous
 62
     7
370
    25
100
AcDbCircle
 10
-25.3375000001
 20
-42.3679491924
 30
0.0
 40
1.000000000000011
100
AcDbArc
 50
180.0
 51
240.0
  0
ARC
  5
32F
330
1F
100
AcDbEntity
  8
0
  6
Continuous
 62
     7
370
    25
100
AcDbCircle
 10
-25.3375000001
 20
-33.8320508076
 30
0.0
 40
1.000000000000874
100
AcDbArc
 50
120.0
 51
180.0
  0
ARC
  5
330
330
1F
100
AcDbEntity
  8
0
  6
Continuous
 62
     7
370
    25
100
AcDbCircle
 10
-26.3375000001
 20
-32.1
 30
0.0
 40
0.9999999999996696
100
AcDbArc
 50
300.0
 51
90.0
  0
ARC
  5
331
330
1F
100
AcDbEntity
  8
0
  6
Continuous
 62
     7
370
    25
100
AcDbCircle
 10
-40.3375000001
 20
-32.1
 30
0.0
 40
1.000000000000004
100
AcDbArc
 50
90.0
 51
240.0
  0
ARC
  5
332
330
1F
100
AcDbEntity
  8
0
  6
Continuous
 62
     7
370
    25
100
AcDbCircle
 10
-41.3375000001
 20
-33.8320508076
 30
0.0
 40
0.9999999999999888
100
AcDbArc
 50
0.0
 51
60.0
  0
ARC
  5
333
330
1F
100
AcDbEntity
  8
0
  6
Continuous
 62
     7
370
    25
100
AcDbCircle
 10
-65.1500000001
 20
-42.3679491924
 30
0.0
 40
1.000000000000017
100
AcDbArc
 50
300.0
 51
0.0
  0
ARC
  5
334
330
1F
100
AcDbEntity
  8
0
  6
Continuous
 62
     7
370
    25
100
AcDbCircle
 10
-64.1500000001
 20
-44.1
 30
0.0
 40
1.000000000000009
100
AcDbArc
 50
120.0
 51
270.0
  0
ARC
  5
335
330
1F
100
AcDbEntity
  8
0
  6
Continuous
 62
     7
370
    25
100
AcDbCircle
 10
-50.1500000001
 20
-44.1
 30
0.0
 40
1.000000000000002
100
AcDbArc
 50
270.0
 51
60.0
  0
ARC
  5
336
330
1F
100
AcDbEntity
  8
0
  6
Continuous
 62
     7
370
    25
100
AcDbCircle
 10
-49.1500000001
 20
-42.3679491924
 30
0.0
 40
1.000000000000021
100
AcDbArc
 50
180.0
 51
240.0
  0
ARC
  5
337
330
1F
100
AcDbEntity
  8
0
  6
Continuous
 62
     7
370
    25
100
AcDbCircle
 10
-49.1500000001
 20
-33.8320508076
 30
0.0
 40
0.9999999999999574
100
AcDbArc
 50
120.0
 51
180.0
  0
ARC
  5
338
330
1F
100
AcDbEntity
  8
0
  6
Continuous
 62
     7
370
    25
100
AcDbCircle
 10
-50.1500000001
 20
-32.1
 30
0.0
 40
1.000000000000004
100
AcDbArc
 50
300.0
 51
90.0
  0
ARC
  5
339
330
1F
100
AcDbEntity
  8
0
  6
Continuous
 62
     7
370
    25
100
AcDbCircle
 10
-64.1500000001
 20
-32.1
 30
0.0
 40
1.000000000000011
100
AcDbArc
 50
90.0
 51
240.0
  0
ARC
  5
33A
330
1F
100
AcDbEntity
  8
0
  6
Continuous
 62
     7
370
    25
100
AcDbCircle
 10
-65.1500000001
 20
-33.8320508076
 30
0.0
 40
1.000000000000029
100
AcDbArc
 50
0.0
 51
60.0
  0
ARC
  5
33B
330
1F
100
AcDbEntity
  8
0
  6
Continuous
 62
     7
370
    25
100
AcDbCircle
 10
53.9124999999
 20
-23.3179491924
 30
0.0
 40
1.000000000000021
100
AcDbArc
 50
300.0
 51
0.0
  0
ARC
  5
33C
330
1F
100
AcDbEntity
  8
0
  6
Continuous
 62
     7
370
    25
100
AcDbCircle
 10
54.9124999999
 20
-25.05
 30
0.0
 40
1.0
100
AcDbArc
 50
120.0
 51
270.0
  0
ARC
  5
33D
330
1F
100
AcDbEntity
  8
0
  6
Continuous
 62
     7
370
    25
100
AcDbCircle
 10
68.9124999999
 20
-25.05
 30
0.0
 40
1.000000000000011
100
AcDbArc
 50
270.0
 51
60.0
  0
ARC
  5
33E
330
1F
100
AcDbEntity
  8
0
  6
Continuous
 62
     7
370
    25
100
AcDbCircle
 10
69.9124999999
 20
-23.3179491924
 30
0.0
 40
0.999999999999929
100
AcDbArc
 50
180.0
 51
240.0
  0
ARC
  5
33F
330
1F
100
AcDbEntity
  8
0
  6
Continuous
 62
     7
370
    25
100
AcDbCircle
 10
69.9124999999
 20
-14.7820508076
 30
0.0
 40
1.000000000000824
100
AcDbArc
 50
120.0
 51
180.0
  0
ARC
  5
340
330
1F
100
AcDbEntity
  8
0
  6
Continuous
 62
     7
370
    25
100
AcDbCircle
 10
68.9124999999
 20
-13.05
 30
0.0
 40
0.9999999999996781
100
AcDbArc
 50
300.0
 51
90.0
  0
ARC
  5
341
330
1F
100
AcDbEntity
  8
0
  6
Continuous
 62
     7
370
    25
100
AcDbCircle
 10
54.9124999999
 20
-13.05
 30
0.0
 40
1.000000000000007
100
AcDbArc
 50
90.0
 51
240.0
  0
ARC
  5
342
330
1F
100
AcDbEntity
  8
0
  6
Continuous
 62
     7
370
    25
100
AcDbCircle
 10
53.9124999999
 20
-14.7820508076
 30
0.0
 40
0.9999999999999791
100
AcDbArc
 50
0.0
 51
60.0
  0
ARC
  5
343
330
1F
100
AcDbEntity
  8
0
  6
Continuous
 62
     7
370
    25
100
AcDbCircle
 10
34.8624999999
 20
-23.3179491924
 30
0.0
 40
1.000000000000021
100
AcDbArc
 50
300.0
 51
0.0
  0
ARC
  5
344
330
1F
100
AcDbEntity
  8
0
  6
Continuous
 62
     7
370
    25
100
AcDbCircle
 10
35.8624999999
 20
-25.05
 30
0.0
 40
1.0
100
AcDbArc
 50
120.0
 51
270.0
  0
ARC
  5
345
330
1F
100
AcDbEntity
  8
0
  6
Continuous
 62
     7
370
    25
100
AcDbCircle
 10
49.8624999999
 20
-25.05
 30
0.0
 40
1.000000000000005
100
AcDbArc
 50
270.0
 51
60.0
  0
ARC
  5
346
330
1F
100
AcDbEntity
  8
0
  6
Continuous
 62
     7
370
    25
100
AcDbCircle
 10
50.8624999999
 20
-23.3179491924
 30
0.0
 40
1.000000000000007
100
AcDbArc
 50
180.0
 51
240.0
  0
ARC
  5
347
330
1F
100
AcDbEntity
  8
0
  6
Continuous
 62
     7
370
    25
100
AcDbCircle
 10
50.8624999999
 20
-14.7820508076
 30
0.0
 40
1.00000000000086
100
AcDbArc
 50
120.0
 51
180.0
  0
ARC
  5
348
330
1F
100
AcDbEntity
  8
0
  6
Continuous
 62
     7
370
    25
100
AcDbCircle
 10
49.8624999999
 20
-13.05
 30
0.0
 40
0.9999999999996686
100
AcDbArc
 50
300.0
 51
90.0
  0
ARC
  5
349
330
1F
100
AcDbEntity
  8
0
  6
Continuous
 62
     7
370
    25
100
AcDbCircle
 10
35.8624999999
 20
-13.05
 30
0.0
 40
1.000000000000004
100
AcDbArc
 50
90.0
 51
240.0
  0
ARC
  5
34A
330
1F
100
AcDbEntity
  8
0
  6
Continuous
 62
     7
370
    25
100
AcDbCircle
 10
34.8624999999
 20
-14.7820508076
 30
0.0
 40
0.9999999999999858
100
AcDbArc
 50
0.0
 51
60.0
  0
ARC
  5
34B
330
1F
100
AcDbEntity
  8
0
  6
Continuous
 62
     7
370
    25
100
AcDbCircle
 10
15.8124999999
 20
-23.3179491924
 30
0.0
 40
1.000000000000023
100
AcDbArc
 50
300.0
 51
0.0
  0
ARC
  5
34C
330
1F
100
AcDbEntity
  8
0
  6
Continuous
 62
     7
370
    25
100
AcDbCircle
 10
16.8124999999
 20
-25.05
 30
0.0
 40
1.0
100
AcDbArc
 50
120.0
 51
270.0
  0
ARC
  5
34D
330
1F
100
AcDbEntity
  8
0
  6
Continuous
 62
     7
370
    25
100
AcDbCircle
 10
30.8124999999
 20
-25.05
 30
0.0
 40
1.000000000000002
100
AcDbArc
 50
270.0
 51
60.0
  0
ARC
  5
34E
330
1F
100
AcDbEntity
  8
0
  6
Continuous
 62
     7
370
    25
100
AcDbCircle
 10
31.8124999999
 20
-23.3179491924
 30
0.0
 40
0.9999999999999893
100
AcDbArc
 50
180.0
 51
240.0
  0
ARC
  5
34F
330
1F
100
AcDbEntity
  8
0
  6
Continuous
 62
     7
370
    25
100
AcDbCircle
 10
31.8124999999
 20
-14.7820508076
 30
0.0
 40
1.000000000000858
100
AcDbArc
 50
120.0
 51
180.0
  0
ARC
  5
350
330
1F
100
AcDbEntity
  8
0
  6
Continuous
 62
     7
370
    25
100
AcDbCircle
 10
30.8124999999
 20
-13.05
 30
0.0
 40
0.9999999999996696
100
AcDbArc
 50
300.0
 51
90.0
  0
ARC
  5
351
330
1F
100
AcDbEntity
  8
0
  6
Continuous
 62
     7
370
    25
100
AcDbCircle
 10
16.8124999999
 20
-13.05
 30
0.0
 40
1.000000000000006
100
AcDbArc
 50
90.0
 51
240.0
  0
ARC
  5
352
330
1F
100
AcDbEntity
  8
0
  6
Continuous
 62
     7
370
    25
100
AcDbCircle
 10
15.8124999999
 20
-14.7820508076
 30
0.0
 40
0.9999999999999915
100
AcDbArc
 50
0.0
 51
60.0
  0
ARC
  5
353
330
1F
100
AcDbEntity
  8
0
  6
Continuous
 62
     7
370
    25
100
AcDbCircle
 10
-3.2375000001
 20
-23.3179491924
 30
0.0
 40
1.000000000000026
100
AcDbArc
 50
300.0
 51
0.0
  0
ARC
  5
354
330
1F
100
AcDbEntity
  8
0
  6
Continuous
 62
     7
370
    25
100
AcDbCircle
 10
-2.2375000001
 20
-25.05
 30
0.0
 40
1.0
100
AcDbArc
 50
120.0
 51
270.0
  0
ARC
  5
355
330
1F
100
AcDbEntity
  8
0
  6
Continuous
 62
     7
370
    25
100
AcDbCircle
 10
11.7624999999
 20
-25.05
 30
0.0
 40
1.000000000000004
100
AcDbArc
 50
270.0
 51
60.0
  0
ARC
  5
356
330
1F
100
AcDbEntity
  8
0
  6
Continuous
 62
     7
370
    25
100
AcDbCircle
 10
12.7624999999
 20
-23.3179491924
 30
0.0
 40
1.000000000000013
100
AcDbArc
 50
180.0
 51
240.0
  0
ARC
  5
357
330
1F
100
AcDbEntity
  8
0
  6
Continuous
 62
     7
370
    25
100
AcDbCircle
 10
12.7624999999
 20
-14.7820508076
 30
0.0
 40
1.000000000000878
100
AcDbArc
 50
120.0
 51
180.0
  0
ARC
  5
358
330
1F
100
AcDbEntity
  8
0
  6
Continuous
 62
     7
370
    25
100
AcDbCircle
 10
11.7624999999
 20
-13.05
 30
0.0
 40
0.9999999999996678
100
AcDbArc
 50
300.0
 51
90.0
  0
ARC
  5
359
330
1F
100
AcDbEntity
  8
0
  6
Continuous
 62
     7
370
    25
100
AcDbCircle
 10
-2.2375000001
 20
-13.05
 30
0.0
 40
1.000000000000005
100
AcDbArc
 50
90.0
 51
240.0
  0
ARC
  5
35A
330
1F
100
AcDbEntity
  8
0
  6
Continuous
 62
     7
370
    25
100
AcDbCircle
 10
-3.2375000001
 20
-14.7820508076
 30
0.0
 40
0.9999999999999902
100
AcDbArc
 50
0.0
 51
60.0
  0
ARC
  5
35B
330
1F
100
AcDbEntity
  8
0
  6
Continuous
 62
     7
370
    25
100
AcDbCircle
 10
-22.2875000001
 20
-23.3179491924
 30
0.0
 40
1.000000000000021
100
AcDbArc
 50
300.0
 51
0.0
  0
ARC
  5
35C
330
1F
100
AcDbEntity
  8
0
  6
Continuous
 62
     7
370
    25
100
AcDbCircle
 10
-21.2875000001
 20
-25.05
 30
0.0
 40
1.0
100
AcDbArc
 50
120.0
 51
270.0
  0
ARC
  5
35D
330
1F
100
AcDbEntity
  8
0
  6
Continuous
 62
     7
370
    25
100
AcDbCircle
 10
-7.2875000001
 20
-25.05
 30
0.0
 40
1.000000000000004
100
AcDbArc
 50
270.0
 51
60.0
  0
ARC
  5
35E
330
1F
100
AcDbEntity
  8
0
  6
Continuous
 62
     7
370
    25
100
AcDbCircle
 10
-6.2875000001
 20
-23.3179491924
 30
0.0
 40
1.000000000000002
100
AcDbArc
 50
180.0
 51
240.0
  0
ARC
  5
35F
330
1F
100
AcDbEntity
  8
0
  6
Continuous
 62
     7
370
    25
100
AcDbCircle
 10
-6.2875000001
 20
-14.7820508076
 30
0.0
 40
1.000000000000872
100
AcDbArc
 50
120.0
 51
180.0
  0
ARC
  5
360
330
1F
100
AcDbEntity
  8
0
  6
Continuous
 62
     7
370
    25
100
AcDbCircle
 10
-7.2875000001
 20
-13.05
 30
0.0
 40
0.9999999999996699
100
AcDbArc
 50
300.0
 51
90.0
  0
ARC
  5
361
330
1F
100
AcDbEntity
  8
0
  6
Continuous
 62
     7
370
    25
100
AcDbCircle
 10
-21.2875000001
 20
-13.05
 30
0.0
 40
1.000000000000008
100
AcDbArc
 50
90.0
 51
240.0
  0
ARC
  5
362
330
1F
100
AcDbEntity
  8
0
  6
Continuous
 62
     7
370
    25
100
AcDbCircle
 10
-22.2875000001
 20
-14.7820508076
 30
0.0
 40
0.9999999999999929
100
AcDbArc
 50
0.0
 51
60.0
  0
ARC
  5
363
330
1F
100
AcDbEntity
  8
0
  6
Continuous
 62
     7
370
    25
100
AcDbCircle
 10
-41.3375000001
 20
-23.3179491924
 30
0.0
 40
1.000000000000036
100
AcDbArc
 50
300.0
 51
0.0
  0
ARC
  5
364
330
1F
100
AcDbEntity
  8
0
  6
Continuous
 62
     7
370
    25
100
AcDbCircle
 10
-40.3375000001
 20
-25.05
 30
0.0
 40
1.0
100
AcDbArc
 50
120.0
 51
270.0
  0
ARC
  5
365
330
1F
100
AcDbEntity
  8
0
  6
Continuous
 62
     7
370
    25
100
AcDbCircle
 10
-26.3375000001
 20
-25.05
 30
0.0
 40
1.000000000000004
100
AcDbArc
 50
270.0
 51
60.0
  0
ARC
  5
366
330
1F
100
AcDbEntity
  8
0
  6
Continuous
 62
     7
370
    25
100
AcDbCircle
 10
-25.3375000001
 20
-23.3179491924
 30
0.0
 40
0.9999999999999976
100
AcDbArc
 50
180.0
 51
240.0
  0
ARC
  5
367
330
1F
100
AcDbEntity
  8
0
  6
Continuous
 62
     7
370
    25
100
AcDbCircle
 10
-25.3375000001
 20
-14.7820508076
 30
0.0
 40
1.000000000000867
100
AcDbArc
 50
120.0
 51
180.0
  0
ARC
  5
368
330
1F
100
AcDbEntity
  8
0
  6
Continuous
 62
     7
370
    25
100
AcDbCircle
 10
-26.3375000001
 20
-13.05
 30
0.0
 40
0.9999999999996678
100
AcDbArc
 50
300.0
 51
90.0
  0
ARC
  5
369
330
1F
100
AcDbEntity
  8
0
  6
Continuous
 62
     7
370
    25
100
AcDbCircle
 10
-40.3375000001
 20
-13.05
 30
0.0
 40
1.000000000000004
100
AcDbArc
 50
90.0
 51
240.0
  0
ARC
  5
36A
330
1F
100
AcDbEntity
  8
0
  6
Continuous
 62
     7
370
    25
100
AcDbCircle
 10
-41.3375000001
 20
-14.7820508076
 30
0.0
 40
1.000000000000022
100
AcDbArc
 50
0.0
 51
60.0
  0
ARC
  5
36B
330
1F
100
AcDbEntity
  8
0
  6
Continuous
 62
     7
370
    25
100
AcDbCircle
 10
-65.1500000001
 20
-23.3179491924
 30
0.0
 40
0.9999999999999574
100
AcDbArc
 50
300.0
 51
0.0
  0
ARC
  5
36C
330
1F
100
AcDbEntity
  8
0
  6
Continuous
 62
     7
370
    25
100
AcDbCircle
 10
-64.1500000001
 20
-25.05
 30
0.0
 40
1.000000000000007
100
AcDbArc
 50
120.0
 51
270.0
  0
ARC
  5
36D
330
1F
100
AcDbEntity
  8
0
  6
Continuous
 62
     7
370
    25
100
AcDbCircle
 10
-50.1500000001
 20
-25.05
 30
0.0
 40
1.000000000000001
100
AcDbArc
 50
270.0
 51
60.0
  0
ARC
  5
36E
330
1F
100
AcDbEntity
  8
0
  6
Continuous
 62
     7
370
    25
100
AcDbCircle
 10
-49.1500000001
 20
-23.3179491924
 30
0.0
 40
1.000000000000064
100
AcDbArc
 50
180.0
 51
240.0
  0
ARC
  5
36F
330
1F
100
AcDbEntity
  8
0
  6
Continuous
 62
     7
370
    25
100
AcDbCircle
 10
-49.1500000001
 20
-14.7820508076
 30
0.0
 40
0.9999999999999503
100
AcDbArc
 50
120.0
 51
180.0
  0
ARC
  5
370
330
1F
100
AcDbEntity
  8
0
  6
Continuous
 62
     7
370
    25
100
AcDbCircle
 10
-50.1500000001
 20
-13.05
 30
0.0
 40
1.000000000000001
100
AcDbArc
 50
300.0
 51
90.0
  0
ARC
  5
371
330
1F
100
AcDbEntity
  8
0
  6
Continuous
 62
     7
370
    25
100
AcDbCircle
 10
-64.1500000001
 20
-13.05
 30
0.0
 40
1.000000000000009
100
AcDbArc
 50
90.0
 51
240.0
  0
ARC
  5
372
330
1F
100
AcDbEntity
  8
0
  6
Continuous
 62
     7
370
    25
100
AcDbCircle
 10
-65.1500000001
 20
-14.7820508076
 30
0.0
 40
0.9999999999999005
100
AcDbArc
 50
360.0
 51
60.0
  0
ARC
  5
373
330
1F
100
AcDbEntity
  8
0
  6
Continuous
 62
     7
370
    25
100
AcDbCircle
 10
53.9124999999
 20
-4.2679491924
 30
0.0
 40
1.000000000000071
100
AcDbArc
 50
300.0
 51
0.0
  0
ARC
  5
374
330
1F
100
AcDbEntity
  8
0
  6
Continuous
 62
     7
370
    25
100
AcDbCircle
 10
54.9124999999
 20
-6.0
 30
0.0
 40
0.9999999999999964
100
AcDbArc
 50
120.0
 51
270.0
  0
ARC
  5
375
330
1F
100
AcDbEntity
  8
0
  6
Continuous
 62
     7
370
    25
100
AcDbCircle
 10
68.9124999999
 20
-6.0
 30
0.0
 40
1.000000000000007
100
AcDbArc
 50
270.0
 51
60.0
  0
ARC
  5
376
330
1F
100
AcDbEntity
  8
0
  6
Continuous
 62
     7
370
    25
100
AcDbCircle
 10
69.9124999999
 20
-4.2679491924
 30
0.0
 40
0.9999999999999716
100
AcDbArc
 50
180.0
 51
240.0
  0
ARC
  5
377
330
1F
100
AcDbEntity
  8
0
  6
Continuous
 62
     7
370
    25
100
AcDbCircle
 10
69.9124999999
 20
4.2679491924
 30
0.0
 40
1.000000000000842
100
AcDbArc
 50
120.0
 51
180.0
  0
ARC
  5
378
330
1F
100
AcDbEntity
  8
0
  6
Continuous
 62
     7
370
    25
100
AcDbCircle
 10
68.9124999999
 20
6.0
 30
0.0
 40
0.9999999999996696
100
AcDbArc
 50
300.0
 51
90.0
  0
ARC
  5
379
330
1F
100
AcDbEntity
  8
0
  6
Continuous
 62
     7
370
    25
100
AcDbCircle
 10
54.9124999999
 20
6.0
 30
0.0
 40
1.000000000000002
100
AcDbArc
 50
90.0
 51
240.0
  0
ARC
  5
37A
330
1F
100
AcDbEntity
  8
0
  6
Continuous
 62
     7
370
    25
100
AcDbCircle
 10
53.9124999999
 20
4.2679491924
 30
0.0
 40
1.000000000000016
100
AcDbArc
 50
0.0
 51
60.0
  0
ARC
  5
37B
330
1F
100
AcDbEntity
  8
0
  6
Continuous
 62
     7
370
    25
100
AcDbCircle
 10
34.8624999999
 20
-4.2679491924
 30
0.0
 40
1.000000000000058
100
AcDbArc
 50
300.0
 51
0.0
  0
ARC
  5
37C
330
1F
100
AcDbEntity
  8
0
  6
Continuous
 62
     7
370
    25
100
AcDbCircle
 10
35.8624999999
 20
-6.0
 30
0.0
 40
0.9999999999999973
100
AcDbArc
 50
120.0
 51
270.0
  0
ARC
  5
37D
330
1F
100
AcDbEntity
  8
0
  6
Continuous
 62
     7
370
    25
100
AcDbCircle
 10
49.8624999999
 20
-6.0
 30
0.0
 40
1.000000000000004
100
AcDbArc
 50
270.0
 51
60.0
  0
ARC
  5
37E
330
1F
100
AcDbEntity
  8
0
  6
Continuous
 62
     7
370
    25
100
AcDbCircle
 10
50.8624999999
 20
-4.2679491924
 30
0.0
 40
0.9999999999999679
100
AcDbArc
 50
180.0
 51
240.0
  0
ARC
  5
37F
330
1F
100
AcDbEntity
  8
0
  6
Continuous
 62
     7
370
    25
100
AcDbCircle
 10
50.8624999999
 20
4.2679491924
 30
0.0
 40
1.000000000000845
100
AcDbArc
 50
120.0
 51
180.0
  0
ARC
  5
380
330
1F
100
AcDbEntity
  8
0
  6
Continuous
 62
     7
370
    25
100
AcDbCircle
 10
49.8624999999
 20
6.0
 30
0.0
 40
0.9999999999996706
100
AcDbArc
 50
300.0
 51
90.0
  0
ARC
  5
381
330
1F
100
AcDbEntity
  8
0
  6
Continuous
 62
     7
370
    25
100
AcDbCircle
 10
35.8624999999
 20
6.0
 30
0.0
 40
1.000000000000003
100
AcDbArc
 50
90.0
 51
240.0
  0
ARC
  5
382
330
1F
100
AcDbEntity
  8
0
  6
Continuous
 62
     7
370
    25
100
AcDbCircle
 10
34.8624999999
 20
4.2679491924
 30
0.0
 40
1.000000000000016
100
AcDbArc
 50
0.0
 51
60.0
  0
ARC
  5
383
330
1F
100
AcDbEntity
  8
0
  6
Continuous
 62
     7
370
    25
100
AcDbCircle
 10
15.8124999999
 20
-4.2679491924
 30
0.0
 40
1.000000000000025
100
AcDbArc
 50
300.0
 51
0.0
  0
ARC
  5
384
330
1F
100
AcDbEntity
  8
0
  6
Continuous
 62
     7
370
    25
100
AcDbCircle
 10
16.8124999999
 20
-6.0
 30
0.0
 40
0.9999999999999982
100
AcDbArc
 50
120.0
 51
270.0
  0
ARC
  5
385
330
1F
100
AcDbEntity
  8
0
  6
Continuous
 62
     7
370
    25
100
AcDbCircle
 10
30.8124999999
 20
-6.0
 30
0.0
 40
1.000000000000002
100
AcDbArc
 50
270.0
 51
60.0
  0
ARC
  5
386
330
1F
100
AcDbEntity
  8
0
  6
Continuous
 62
     7
370
    25
100
AcDbCircle
 10
31.8124999999
 20
-4.2679491924
 30
0.0
 40
1.000000000000028
100
AcDbArc
 50
180.0
 51
240.0
  0
ARC
  5
387
330
1F
100
AcDbEntity
  8
0
  6
Continuous
 62
     7
370
    25
100
AcDbCircle
 10
31.8124999999
 20
4.2679491924
 30
0.0
 40
1.000000000000871
100
AcDbArc
 50
120.0
 51
180.0
  0
ARC
  5
388
330
1F
100
AcDbEntity
  8
0
  6
Continuous
 62
     7
370
    25
100
AcDbCircle
 10
30.8124999999
 20
6.0
 30
0.0
 40
0.9999999999996678
100
AcDbArc
 50
300.0
 51
90.0
  0
ARC
  5
389
330
1F
100
AcDbEntity
  8
0
  6
Continuous
 62
     7
370
    25
100
AcDbCircle
 10
16.8124999999
 20
6.0
 30
0.0
 40
1.000000000000004
100
AcDbArc
 50
90.0
 51
240.0
  0
ARC
  5
38A
330
1F
100
AcDbEntity
  8
0
  6
Continuous
 62
     7
370
    25
100
AcDbCircle
 10
15.8124999999
 20
4.2679491924
 30
0.0
 40
0.9999999999999865
100
AcDbArc
 50
0.0
 51
60.0
  0
ARC
  5
38B
330
1F
100
AcDbEntity
  8
0
  6
Continuous
 62
     7
370
    25
100
AcDbCircle
 10
-3.2375000001
 20
-4.2679491924
 30
0.0
 40
1.000000000000023
100
AcDbArc
 50
300.0
 51
0.0
  0
ARC
  5
38C
330
1F
100
AcDbEntity
  8
0
  6
Continuous
 62
     7
370
    25
100
AcDbCircle
 10
-2.2375000001
 20
-6.0
 30
0.0
 40
0.9999999999999982
100
AcDbArc
 50
120.0
 51
270.0
  0
ARC
  5
38D
330
1F
100
AcDbEntity
  8
0
  6
Continuous
 62
     7
370
    25
100
AcDbCircle
 10
11.7624999999
 20
-6.0
 30
0.0
 40
1.000000000000002
100
AcDbArc
 50
270.0
 51
60.0
  0
ARC
  5
38E
330
1F
100
AcDbEntity
  8
0
  6
Continuous
 62
     7
370
    25
100
AcDbCircle
 10
12.7624999999
 20
-4.2679491924
 30
0.0
 40
1.000000000000021
100
AcDbArc
 50
180.0
 51
240.0
  0
ARC
  5
38F
330
1F
100
AcDbEntity
  8
0
  6
Continuous
 62
     7
370
    25
100
AcDbCircle
 10
12.7624999999
 20
4.2679491924
 30
0.0
 40
1.000000000000863
100
AcDbArc
 50
120.0
 51
180.0
  0
ARC
  5
390
330
1F
100
AcDbEntity
  8
0
  6
Continuous
 62
     7
370
    25
100
AcDbCircle
 10
11.7624999999
 20
6.0
 30
0.0
 40
0.9999999999996678
100
AcDbArc
 50
300.0
 51
90.0
  0
ARC
  5
391
330
1F
100
AcDbEntity
  8
0
  6
Continuous
 62
     7
370
    25
100
AcDbCircle
 10
-2.2375000001
 20
6.0
 30
0.0
 40
1.000000000000004
100
AcDbArc
 50
90.0
 51
240.0
  0
ARC
  5
392
330
1F
100
AcDbEntity
  8
0
  6
Continuous
 62
     7
370
    25
100
AcDbCircle
 10
-3.2375000001
 20
4.2679491924
 30
0.0
 40
0.9999999999999915
100
AcDbArc
 50
0.0
 51
60.0
  0
ARC
  5
393
330
1F
100
AcDbEntity
  8
0
  6
Continuous
 62
     7
370
    25
100
AcDbCircle
 10
-22.2875000001
 20
-4.2679491924
 30
0.0
 40
1.000000000000036
100
AcDbArc
 50
300.0
 51
0.0
  0
ARC
  5
394
330
1F
100
AcDbEntity
  8
0
  6
Continuous
 62
     7
370
    25
100
AcDbCircle
 10
-21.2875000001
 20
-6.0
 30
0.0
 40
0.9999999999999982
100
AcDbArc
 50
120.0
 51
270.0
  0
ARC
  5
395
330
1F
100
AcDbEntity
  8
0
  6
Continuous
 62
     7
370
    25
100
AcDbCircle
 10
-7.2875000001
 20
-6.0
 30
0.0
 40
1.000000000000002
100
AcDbArc
 50
270.0
 51
60.0
  0
ARC
  5
396
330
1F
100
AcDbEntity
  8
0
  6
Continuous
 62
     7
370
    25
100
AcDbCircle
 10
-6.2875000001
 20
-4.2679491924
 30
0.0
 40
1.000000000000015
100
AcDbArc
 50
180.0
 51
240.0
  0
ARC
  5
397
330
1F
100
AcDbEntity
  8
0
  6
Continuous
 62
     7
370
    25
100
AcDbCircle
 10
-6.2875000001
 20
4.2679491924
 30
0.0
 40
1.00000000000086
100
AcDbArc
 50
120.0
 51
180.0
  0
ARC
  5
398
330
1F
100
AcDbEntity
  8
0
  6
Continuous
 62
     7
370
    25
100
AcDbCircle
 10
-7.2875000001
 20
6.0
 30
0.0
 40
0.9999999999996682
100
AcDbArc
 50
300.0
 51
90.0
  0
ARC
  5
399
330
1F
100
AcDbEntity
  8
0
  6
Continuous
 62
     7
370
    25
100
AcDbCircle
 10
-21.2875000001
 20
6.0
 30
0.0
 40
1.000000000000004
100
AcDbArc
 50
90.0
 51
240.0
  0
ARC
  5
39A
330
1F
100
AcDbEntity
  8
0
  6
Continuous
 62
     7
370
    25
100
AcDbCircle
 10
-22.2875000001
 20
4.2679491924
 30
0.0
 40
0.9999999999999964
100
AcDbArc
 50
0.0
 51
60.0
  0
ARC
  5
39B
330
1F
100
AcDbEntity
  8
0
  6
Continuous
 62
     7
370
    25
100
AcDbCircle
 10
-41.3375000001
 20
-4.2679491924
 30
0.0
 40
1.000000000000015
100
AcDbArc
 50
300.0
 51
0.0
  0
ARC
  5
39C
330
1F
100
AcDbEntity
  8
0
  6
Continuous
 62
     7
370
    25
100
AcDbCircle
 10
-40.3375000001
 20
-6.0
 30
0.0
 40
1.0
100
AcDbArc
 50
120.0
 51
270.0
  0
ARC
  5
39D
330
1F
100
AcDbEntity
  8
0
  6
Continuous
 62
     7
370
    25
100
AcDbCircle
 10
-26.3375000001
 20
-6.0
 30
0.0
 40
1.000000000000002
100
AcDbArc
 50
270.0
 51
60.0
  0
ARC
  5
39E
330
1F
100
AcDbEntity
  8
0
  6
Continuous
 62
     7
370
    25
100
AcDbCircle
 10
-25.3375000001
 20
-4.2679491924
 30
0.0
 40
1.000000000000019
100
AcDbArc
 50
180.0
 51
240.0
  0
ARC
  5
39F
330
1F
100
AcDbEntity
  8
0
  6
Continuous
 62
     7
370
    25
100
AcDbCircle
 10
-25.3375000001
 20
4.2679491924
 30
0.0
 40
1.000000000000867
100
AcDbArc
 50
120.0
 51
180.0
  0
ARC
  5
3A0
330
1F
100
AcDbEntity
  8
0
  6
Continuous
 62
     7
370
    25
100
AcDbCircle
 10
-26.3375000001
 20
6.0
 30
0.0
 40
0.9999999999996669
100
AcDbArc
 50
300.0
 51
90.0
  0
ARC
  5
3A1
330
1F
100
AcDbEntity
  8
0
  6
Continuous
 62
     7
370
    25
100
AcDbCircle
 10
-40.3375000001
 20
6.0
 30
0.0
 40
1.000000000000004
100
AcDbArc
 50
90.0
 51
240.0
  0
ARC
  5
3A2
330
1F
100
AcDbEntity
  8
0
  6
Continuous
 62
     7
370
    25
100
AcDbCircle
 10
-41.3375000001
 20
4.2679491924
 30
0.0
 40
0.9999999999999681
100
AcDbArc
 50
0.0
 51
60.0
  0
ARC
  5
3A3
330
1F
100
AcDbEntity
  8
0
  6
Continuous
 62
     7
370
    25
100
AcDbCircle
 10
-65.1500000001
 20
-4.2679491924
 30
0.0
 40
1.000000000000043
100
AcDbArc
 50
300.0
 51
0.0
  0
ARC
  5
3A4
330
1F
100
AcDbEntity
  8
0
  6
Continuous
 62
     7
370
    25
100
AcDbCircle
 10
-64.1500000001
 20
-6.0
 30
0.0
 40
0.9999999999999991
100
AcDbArc
 50
120.0
 51
270.0
  0
ARC
  5
3A5
330
1F
100
AcDbEntity
  8
0
  6
Continuous
 62
     7
370
    25
100
AcDbCircle
 10
-50.1500000001
 20
-6.0
 30
0.0
 40
1.000000000000003
100
AcDbArc
 50
270.0
 51
60.0
  0
ARC
  5
3A6
330
1F
100
AcDbEntity
  8
0
  6
Continuous
 62
     7
370
    25
100
AcDbCircle
 10
-49.1500000001
 20
-4.2679491924
 30
0.0
 40
1.000000000000028
100
AcDbArc
 50
180.0
 51
240.0
  0
ARC
  5
3A7
330
1F
100
AcDbEntity
  8
0
  6
Continuous
 62
     7
370
    25
100
AcDbCircle
 10
-49.1500000001
 20
4.2679491924
 30
0.0
 40
1.000000000000008
100
AcDbArc
 50
120.0
 51
180.0
  0
ARC
  5
3A8
330
1F
100
AcDbEntity
  8
0
  6
Continuous
 62
     7
370
    25
100
AcDbCircle
 10
-50.1500000001
 20
6.0
 30
0.0
 40
0.9999999999999946
100
AcDbArc
 50
300.0
 51
90.0
  0
ARC
  5
3A9
330
1F
100
AcDbEntity
  8
0
  6
Continuous
 62
     7
370
    25
100
AcDbCircle
 10
-64.1500000001
 20
6.0
 30
0.0
 40
1.000000000000002
100
AcDbArc
 50
90.0
 51
240.0
  0
ARC
  5
3AA
330
1F
100
AcDbEntity
  8
0
  6
Continuous
 62
     7
370
    25
100
AcDbCircle
 10
-65.1500000001
 20
4.2679491924
 30
0.0
 40
1.000000000000004
100
AcDbArc
 50
0.0
 51
60.0
  0
ARC
  5
3AB
330
1F
100
AcDbEntity
  8
0
  6
Continuous
 62
     7
370
    25
100
AcDbCircle
 10
53.9124999999
 20
14.7820508076
 30
0.0
 40
1.000000000000002
100
AcDbArc
 50
300.0
 51
0.0
  0
ARC
  5
3AC
330
1F
100
AcDbEntity
  8
0
  6
Continuous
 62
     7
370
    25
100
AcDbCircle
 10
54.9124999999
 20
13.05
 30
0.0
 40
1.000000000000007
100
AcDbArc
 50
120.0
 51
270.0
  0
ARC
  5
3AD
330
1F
100
AcDbEntity
  8
0
  6
Continuous
 62
     7
370
    25
100
AcDbCircle
 10
68.9124999999
 20
13.05
 30
0.0
 40
1.000000000000007
100
AcDbArc
 50
270.0
 51
60.0
  0
ARC
  5
3AE
330
1F
100
AcDbEntity
  8
0
  6
Continuous
 62
     7
370
    25
100
AcDbCircle
 10
69.9124999999
 20
14.7820508076
 30
0.0
 40
1.000000000000016
100
AcDbArc
 50
180.0
 51
240.0
  0
ARC
  5
3AF
330
1F
100
AcDbEntity
  8
0
  6
Continuous
 62
     7
370
    25
100
AcDbCircle
 10
67.9124999999
 20
26.575
 30
0.0
 40
1.000000000000014
100
AcDbArc
 50
0.0
 51
166.2609648256
  0
ARC
  5
3B0
330
1F
100
AcDbEntity
  8
0
  6
Continuous
 62
     7
370
    25
100
AcDbCircle
 10
65.9697249229
 20
27.05
 30
0.0
 40
1.000000000000002
100
AcDbArc
 50
270.0
 51
346.2609648256
  0
ARC
  5
3B1
330
1F
100
AcDbEntity
  8
0
  6
Continuous
 62
     7
370
    25
100
AcDbCircle
 10
57.855275077
 20
27.05
 30
0.0
 40
1.000000000000016
100
AcDbArc
 50
193.7390351744
 51
270.0
  0
ARC
  5
3B2
330
1F
100
AcDbEntity
  8
0
  6
Continuous
 62
     7
370
    25
100
AcDbCircle
 10
55.9124999999
 20
26.575
 30
0.0
 40
1.000000000000007
100
AcDbArc
 50
13.7390351744
 51
180.0
  0
ARC
  5
3B3
330
1F
100
AcDbEntity
  8
0
  6
Continuous
 62
     7
370
    25
100
AcDbCircle
 10
34.8624999999
 20
14.7820508076
 30
0.0
 40
1.000000000000023
100
AcDbArc
 50
300.0
 51
0.0
  0
ARC
  5
3B4
330
1F
100
AcDbEntity
  8
0
  6
Continuous
 62
     7
370
    25
100
AcDbCircle
 10
35.8624999999
 20
13.05
 30
0.0
 40
1.0
100
AcDbArc
 50
120.0
 51
270.0
  0
ARC
  5
3B5
330
1F
100
AcDbEntity
  8
0
  6
Continuous
 62
     7
370
    25
100
AcDbCircle
 10
49.8624999999
 20
13.05
 30
0.0
 40
1.000000000000005
100
AcDbArc
 50
270.0
 51
60.0
  0
ARC
  5
3B6
330
1F
100
AcDbEntity
  8
0
  6
Continuous
 62
     7
370
    25
100
AcDbCircle
 10
50.8624999999
 20
14.7820508076
 30
0.0
 40
1.00000000000003
100
AcDbArc
 50
180.0
 51
240.0
  0
ARC
  5
3B7
330
1F
100
AcDbEntity
  8
0
  6
Continuous
 62
     7
370
    25
100
AcDbCircle
 10
50.8624999999
 20
23.3179491924
 30
0.0
 40
1.000000000000869
100
AcDbArc
 50
120.0
 51
180.0
  0
ARC
  5
3B8
330
1F
100
AcDbEntity
  8
0
  6
Continuous
 62
     7
370
    25
100
AcDbCircle
 10
49.8624999999
 20
25.05
 30
0.0
 40
0.9999999999996741
100
AcDbArc
 50
300.0
 51
90.0
  0
ARC
  5
3B9
330
1F
100
AcDbEntity
  8
0
  6
Continuous
 62
     7
370
    25
100
AcDbCircle
 10
35.8624999999
 20
25.05
 30
0.0
 40
1.000000000000007
100
AcDbArc
 50
90.0
 51
240.0
  0
ARC
  5
3BA
330
1F
100
AcDbEntity
  8
0
  6
Continuous
 62
     7
370
    25
100
AcDbCircle
 10
34.8624999999
 20
23.3179491924
 30
0.0
 40
0.9999999999999725
100
AcDbArc
 50
0.0
 51
60.0
  0
ARC
  5
3BB
330
1F
100
AcDbEntity
  8
0
  6
Continuous
 62
     7
370
    25
100
AcDbCircle
 10
15.8124999999
 20
14.7820508076
 30
0.0
 40
1.000000000000004
100
AcDbArc
 50
300.0
 51
0.0
  0
ARC
  5
3BC
330
1F
100
AcDbEntity
  8
0
  6
Continuous
 62
     7
370
    25
100
AcDbCircle
 10
16.8124999999
 20
13.05
 30
0.0
 40
1.0
100
AcDbArc
 50
120.0
 51
270.0
  0
ARC
  5
3BD
330
1F
100
AcDbEntity
  8
0
  6
Continuous
 62
     7
370
    25
100
AcDbCircle
 10
30.8124999999
 20
13.05
 30
0.0
 40
1.000000000000004
100
AcDbArc
 50
270.0
 51
60.0
  0
ARC
  5
3BE
330
1F
100
AcDbEntity
  8
0
  6
Continuous
 62
     7
370
    25
100
AcDbCircle
 10
31.8124999999
 20
14.7820508076
 30
0.0
 40
0.9999999999999929
100
AcDbArc
 50
180.0
 51
240.0
  0
ARC
  5
3BF
330
1F
100
AcDbEntity
  8
0
  6
Continuous
 62
     7
370
    25
100
AcDbCircle
 10
31.8124999999
 20
23.3179491924
 30
0.0
 40
1.000000000000863
100
AcDbArc
 50
120.0
 51
180.0
  0
ARC
  5
3C0
330
1F
100
AcDbEntity
  8
0
  6
Continuous
 62
     7
370
    25
100
AcDbCircle
 10
30.8124999999
 20
25.05
 30
0.0
 40
0.9999999999996653
100
AcDbArc
 50
300.0
 51
90.0
  0
ARC
  5
3C1
330
1F
100
AcDbEntity
  8
0
  6
Continuous
 62
     7
370
    25
100
AcDbCircle
 10
16.8124999999
 20
25.05
 30
0.0
 40
1.000000000000005
100
AcDbArc
 50
90.0
 51
240.0
  0
ARC
  5
3C2
330
1F
100
AcDbEntity
  8
0
  6
Continuous
 62
     7
370
    25
100
AcDbCircle
 10
15.8124999999
 20
23.3179491924
 30
0.0
 40
0.9999999999999756
100
AcDbArc
 50
0.0
 51
60.0
  0
ARC
  5
3C3
330
1F
100
AcDbEntity
  8
0
  6
Continuous
 62
     7
370
    25
100
AcDbCircle
 10
-3.2375000001
 20
14.7820508076
 30
0.0
 40
1.000000000000021
100
AcDbArc
 50
300.0
 51
0.0
  0
ARC
  5
3C4
330
1F
100
AcDbEntity
  8
0
  6
Continuous
 62
     7
370
    25
100
AcDbCircle
 10
-2.2375000001
 20
13.05
 30
0.0
 40
1.000000000000002
100
AcDbArc
 50
120.0
 51
270.0
  0
ARC
  5
3C5
330
1F
100
AcDbEntity
  8
0
  6
Continuous
 62
     7
370
    25
100
AcDbCircle
 10
11.7624999999
 20
13.05
 30
0.0
 40
1.000000000000004
100
AcDbArc
 50
270.0
 51
60.0
  0
ARC
  5
3C6
330
1F
100
AcDbEntity
  8
0
  6
Continuous
 62
     7
370
    25
100
AcDbCircle
 10
12.7624999999
 20
14.7820508076
 30
0.0
 40
1.000000000000014
100
AcDbArc
 50
180.0
 51
240.0
  0
ARC
  5
3C7
330
1F
100
AcDbEntity
  8
0
  6
Continuous
 62
     7
370
    25
100
AcDbCircle
 10
12.7624999999
 20
23.3179491924
 30
0.0
 40
1.00000000000087
100
AcDbArc
 50
120.0
 51
180.0
  0
ARC
  5
3C8
330
1F
100
AcDbEntity
  8
0
  6
Continuous
 62
     7
370
    25
100
AcDbCircle
 10
11.7624999999
 20
25.05
 30
0.0
 40
0.9999999999996662
100
AcDbArc
 50
300.0
 51
90.0
  0
ARC
  5
3C9
330
1F
100
AcDbEntity
  8
0
  6
Continuous
 62
     7
370
    25
100
AcDbCircle
 10
-2.2375000001
 20
25.05
 30
0.0
 40
1.000000000000004
100
AcDbArc
 50
90.0
 51
240.0
  0
ARC
  5
3CA
330
1F
100
AcDbEntity
  8
0
  6
Continuous
 62
     7
370
    25
100
AcDbCircle
 10
-3.2375000001
 20
23.3179491924
 30
0.0
 40
0.9999999999999782
100
AcDbArc
 50
0.0
 51
60.0
  0
ARC
  5
3CB
330
1F
100
AcDbEntity
  8
0
  6
Continuous
 62
     7
370
    25
100
AcDbCircle
 10
-22.2875000001
 20
14.7820508076
 30
0.0
 40
1.000000000000001
100
AcDbArc
 50
300.0
 51
0.0
  0
ARC
  5
3CC
330
1F
100
AcDbEntity
  8
0
  6
Continuous
 62
     7
370
    25
100
AcDbCircle
 10
-21.2875000001
 20
13.05
 30
0.0
 40
1.0
100
AcDbArc
 50
120.0
 51
270.0
  0
ARC
  5
3CD
330
1F
100
AcDbEntity
  8
0
  6
Continuous
 62
     7
370
    25
100
AcDbCircle
 10
-7.2875000001
 20
13.05
 30
0.0
 40
1.000000000000005
100
AcDbArc
 50
270.0
 51
60.0
  0
ARC
  5
3CE
330
1F
100
AcDbEntity
  8
0
  6
Continuous
 62
     7
370
    25
100
AcDbCircle
 10
-6.2875000001
 20
14.7820508076
 30
0.0
 40
1.000000000000014
100
AcDbArc
 50
180.0
 51
240.0
  0
ARC
  5
3CF
330
1F
100
AcDbEntity
  8
0
  6
Continuous
 62
     7
370
    25
100
AcDbCircle
 10
-6.2875000001
 20
23.3179491924
 30
0.0
 40
1.000000000000872
100
AcDbArc
 50
120.0
 51
180.0
  0
ARC
  5
3D0
330
1F
100
AcDbEntity
  8
0
  6
Continuous
 62
     7
370
    25
100
AcDbCircle
 10
-7.2875000001
 20
25.05
 30
0.0
 40
0.9999999999996653
100
AcDbArc
 50
300.0
 51
90.0
  0
ARC
  5
3D1
330
1F
100
AcDbEntity
  8
0
  6
Continuous
 62
     7
370
    25
100
AcDbCircle
 10
-21.2875000001
 20
25.05
 30
0.0
 40
1.000000000000005
100
AcDbArc
 50
90.0
 51
240.0
  0
ARC
  5
3D2
330
1F
100
AcDbEntity
  8
0
  6
Continuous
 62
     7
370
    25
100
AcDbCircle
 10
-22.2875000001
 20
23.3179491924
 30
0.0
 40
0.9999999999999609
100
AcDbArc
 50
0.0
 51
60.0
  0
ARC
  5
3D3
330
1F
100
AcDbEntity
  8
0
  6
Continuous
 62
     7
370
    25
100
AcDbCircle
 10
-41.3375000001
 20
14.7820508076
 30
0.0
 40
1.000000000000023
100
AcDbArc
 50
300.0
 51
0.0
  0
ARC
  5
3D4
330
1F
100
AcDbEntity
  8
0
  6
Continuous
 62
     7
370
    25
100
AcDbCircle
 10
-40.3375000001
 20
13.05
 30
0.0
 40
1.000000000000002
100
AcDbArc
 50
120.0
 51
270.0
  0
ARC
  5
3D5
330
1F
100
AcDbEntity
  8
0
  6
Continuous
 62
     7
370
    25
100
AcDbCircle
 10
-26.3375000001
 20
13.05
 30
0.0
 40
1.000000000000005
100
AcDbArc
 50
270.0
 51
60.0
  0
ARC
  5
3D6
330
1F
100
AcDbEntity
  8
0
  6
Continuous
 62
     7
370
    25
100
AcDbCircle
 10
-25.3375000001
 20
14.7820508076
 30
0.0
 40
1.000000000000032
100
AcDbArc
 50
180.0
 51
240.0
  0
ARC
  5
3D7
330
1F
100
AcDbEntity
  8
0
  6
Continuous
 62
     7
370
    25
100
AcDbCircle
 10
-25.3375000001
 20
23.3179491924
 30
0.0
 40
1.000000000000878
100
AcDbArc
 50
120.0
 51
180.0
  0
ARC
  5
3D8
330
1F
100
AcDbEntity
  8
0
  6
Continuous
 62
     7
370
    25
100
AcDbCircle
 10
-26.3375000001
 20
25.05
 30
0.0
 40
0.9999999999996653
100
AcDbArc
 50
300.0
 51
90.0
  0
ARC
  5
3D9
330
1F
100
AcDbEntity
  8
0
  6
Continuous
 62
     7
370
    25
100
AcDbCircle
 10
-40.3375000001
 20
25.05
 30
0.0
 40
1.000000000000004
100
AcDbArc
 50
90.0
 51
240.0
  0
ARC
  5
3DA
330
1F
100
AcDbEntity
  8
0
  6
Continuous
 62
     7
370
    25
100
AcDbCircle
 10
-41.3375000001
 20
23.3179491924
 30
0.0
 40
0.9999999999999725
100
AcDbArc
 50
0.0
 51
60.0
  0
ARC
  5
3DB
330
1F
100
AcDbEntity
  8
0
  6
Continuous
 62
     7
370
    25
100
AcDbCircle
 10
-65.1500000001
 20
14.7820508076
 30
0.0
 40
1.000000000000028
100
AcDbArc
 50
300.0
 51
0.0
  0
ARC
  5
3DC
330
1F
100
AcDbEntity
  8
0
  6
Continuous
 62
     7
370
    25
100
AcDbCircle
 10
-64.1500000001
 20
13.05
 30
0.0
 40
0.9999999999999982
100
AcDbArc
 50
120.0
 51
270.0
  0
ARC
  5
3DD
330
1F
100
AcDbEntity
  8
0
  6
Continuous
 62
     7
370
    25
100
AcDbCircle
 10
-50.1500000001
 20
13.05
 30
0.0
 40
1.000000000000007
100
AcDbArc
 50
270.0
 51
60.0
  0
ARC
  5
3DE
330
1F
100
AcDbEntity
  8
0
  6
Continuous
 62
     7
370
    25
100
AcDbCircle
 10
-49.1500000001
 20
14.7820508076
 30
0.0
 40
1.000000000000014
100
AcDbArc
 50
180.0
 51
240.0
  0
ARC
  5
3DF
330
1F
100
AcDbEntity
  8
0
  6
Continuous
 62
     7
370
    25
100
AcDbCircle
 10
-49.1500000001
 20
23.3179491924
 30
0.0
 40
0.9999999999999725
100
AcDbArc
 50
120.0
 51
180.0
  0
ARC
  5
3E0
330
1F
100
AcDbEntity
  8
0
  6
Continuous
 62
     7
370
    25
100
AcDbCircle
 10
-50.1500000001
 20
25.05
 30
0.0
 40
1.000000000000001
100
AcDbArc
 50
300.0
 51
90.0
  0
ARC
  5
3E1
330
1F
100
AcDbEntity
  8
0
  6
Continuous
 62
     7
370
    25
100
AcDbCircle
 10
-64.1500000001
 20
25.05
 30
0.0
 40
1.000000000000011
100
AcDbArc
 50
90.0
 51
240.0
  0
ARC
  5
3E2
330
1F
100
AcDbEntity
  8
0
  6
Continuous
 62
     7
370
    25
100
AcDbCircle
 10
-65.1500000001
 20
23.3179491924
 30
0.0
 40
0.9999999999999459
100
AcDbArc
 50
0.0
 51
60.0
  0
ARC
  5
3E3
330
1F
100
AcDbEntity
  8
0
  6
Continuous
 62
     7
370
    25
100
AcDbCircle
 10
69.9124999999
 20
42.3679491924
 30
0.0
 40
1.00000000000081
100
AcDbArc
 50
120.0
 51
180.0
  0
ARC
  5
3E4
330
1F
100
AcDbEntity
  8
0
  6
Continuous
 62
     7
370
    25
100
AcDbCircle
 10
68.9124999999
 20
44.1
 30
0.0
 40
0.9999999999996773
100
AcDbArc
 50
300.0
 51
90.0
  0
ARC
  5
3E5
330
1F
100
AcDbEntity
  8
0
  6
Continuous
 62
     7
370
    25
100
AcDbCircle
 10
54.9124999999
 20
44.1
 30
0.0
 40
1.0
100
AcDbArc
 50
90.0
 51
240.0
  0
ARC
  5
3E6
330
1F
100
AcDbEntity
  8
0
  6
Continuous
 62
     7
370
    25
100
AcDbCircle
 10
53.9124999999
 20
42.3679491924
 30
0.0
 40
1.000000000000008
100
AcDbArc
 50
0.0
 51
60.0
  0
ARC
  5
3E7
330
1F
100
AcDbEntity
  8
0
  6
Continuous
 62
     7
370
    25
100
AcDbCircle
 10
55.9124999999
 20
30.575
 30
0.0
 40
1.000000000000012
100
AcDbArc
 50
180.0
 51
346.2609648256
  0
ARC
  5
3E8
330
1F
100
AcDbEntity
  8
0
  6
Continuous
 62
     7
370
    25
100
AcDbCircle
 10
57.855275077
 20
30.1
 30
0.0
 40
0.9999999999999893
100
AcDbArc
 50
90.0
 51
166.2609648256
  0
ARC
  5
3E9
330
1F
100
AcDbEntity
  8
0
  6
Continuous
 62
     7
370
    25
100
AcDbCircle
 10
65.9697249229
 20
30.1
 30
0.0
 40
1.00000000000004
100
AcDbArc
 50
13.7390351744
 51
90.0
  0
ARC
  5
3EA
330
1F
100
AcDbEntity
  8
0
  6
Continuous
 62
     7
370
    25
100
AcDbCircle
 10
67.9124999999
 20
30.575
 30
0.0
 40
1.000000000000014
100
AcDbArc
 50
193.7390351744
 51
0.0
  0
ARC
  5
3EB
330
1F
100
AcDbEntity
  8
0
  6
Continuous
 62
     7
370
    25
100
AcDbCircle
 10
34.8624999999
 20
33.8320508076
 30
0.0
 40
1.000000000000014
100
AcDbArc
 50
300.0
 51
0.0
  0
ARC
  5
3EC
330
1F
100
AcDbEntity
  8
0
  6
Continuous
 62
     7
370
    25
100
AcDbCircle
 10
35.8624999999
 20
32.1
 30
0.0
 40
1.000000000000008
100
AcDbArc
 50
120.0
 51
270.0
  0
ARC
  5
3ED
330
1F
100
AcDbEntity
  8
0
  6
Continuous
 62
     7
370
    25
100
AcDbCircle
 10
49.8624999999
 20
32.1
 30
0.0
 40
1.000000000000015
100
AcDbArc
 50
270.0
 51
60.0
  0
ARC
  5
3EE
330
1F
100
AcDbEntity
  8
0
  6
Continuous
 62
     7
370
    25
100
AcDbCircle
 10
50.8624999999
 20
33.8320508076
 30
0.0
 40
1.000000000000007
100
AcDbArc
 50
180.0
 51
240.0
  0
ARC
  5
3EF
330
1F
100
AcDbEntity
  8
0
  6
Continuous
 62
     7
370
    25
100
AcDbCircle
 10
50.8624999999
 20
42.3679491924
 30
0.0
 40
1.000000000000838
100
AcDbArc
 50
120.0
 51
180.0
  0
ARC
  5
3F0
330
1F
100
AcDbEntity
  8
0
  6
Continuous
 62
     7
370
    25
100
AcDbCircle
 10
49.8624999999
 20
44.1
 30
0.0
 40
0.9999999999996692
100
AcDbArc
 50
300.0
 51
90.0
  0
ARC
  5
3F1
330
1F
100
AcDbEntity
  8
0
  6
Continuous
 62
     7
370
    25
100
AcDbCircle
 10
35.8624999999
 20
44.1
 30
0.0
 40
1.0
100
AcDbArc
 50
90.0
 51
240.0
  0
ARC
  5
3F2
330
1F
100
AcDbEntity
  8
0
  6
Continuous
 62
     7
370
    25
100
AcDbCircle
 10
34.8624999999
 20
42.3679491924
 30
0.0
 40
1.000000000000008
100
AcDbArc
 50
0.0
 51
60.0
  0
ARC
  5
3F3
330
1F
100
AcDbEntity
  8
0
  6
Continuous
 62
     7
370
    25
100
AcDbCircle
 10
15.8124999999
 20
33.8320508076
 30
0.0
 40
1.000000000000023
100
AcDbArc
 50
300.0
 51
0.0
  0
ARC
  5
3F4
330
1F
100
AcDbEntity
  8
0
  6
Continuous
 62
     7
370
    25
100
AcDbCircle
 10
16.8124999999
 20
32.1
 30
0.0
 40
1.000000000000011
100
AcDbArc
 50
120.0
 51
270.0
  0
ARC
  5
3F5
330
1F
100
AcDbEntity
  8
0
  6
Continuous
 62
     7
370
    25
100
AcDbCircle
 10
30.8124999999
 20
32.1
 30
0.0
 40
1.000000000000013
100
AcDbArc
 50
270.0
 51
60.0
  0
ARC
  5
3F6
330
1F
100
AcDbEntity
  8
0
  6
Continuous
 62
     7
370
    25
100
AcDbCircle
 10
31.8124999999
 20
33.8320508076
 30
0.0
 40
1.000000000000007
100
AcDbArc
 50
180.0
 51
240.0
  0
ARC
  5
3F7
330
1F
100
AcDbEntity
  8
0
  6
Continuous
 62
     7
370
    25
100
AcDbCircle
 10
31.8124999999
 20
42.3679491924
 30
0.0
 40
1.000000000000868
100
AcDbArc
 50
120.0
 51
180.0
  0
ARC
  5
3F8
330
1F
100
AcDbEntity
  8
0
  6
Continuous
 62
     7
370
    25
100
AcDbCircle
 10
30.8124999999
 20
44.1
 30
0.0
 40
0.9999999999996666
100
AcDbArc
 50
300.0
 51
90.0
  0
ARC
  5
3F9
330
1F
100
AcDbEntity
  8
0
  6
Continuous
 62
     7
370
    25
100
AcDbCircle
 10
16.8124999999
 20
44.1
 30
0.0
 40
1.0
100
AcDbArc
 50
90.0
 51
240.0
  0
ARC
  5
3FA
330
1F
100
AcDbEntity
  8
0
  6
Continuous
 62
     7
370
    25
100
AcDbCircle
 10
15.8124999999
 20
42.3679491924
 30
0.0
 40
1.000000000000022
100
AcDbArc
 50
0.0
 51
60.0
  0
ARC
  5
3FB
330
1F
100
AcDbEntity
  8
0
  6
Continuous
 62
     7
370
    25
100
AcDbCircle
 10
-3.2375000001
 20
33.8320508076
 30
0.0
 40
1.000000000000022
100
AcDbArc
 50
300.0
 51
0.0
  0
ARC
  5
3FC
330
1F
100
AcDbEntity
  8
0
  6
Continuous
 62
     7
370
    25
100
AcDbCircle
 10
-2.2375000001
 20
32.1
 30
0.0
 40
1.000000000000008
100
AcDbArc
 50
120.0
 51
270.0
  0
ARC
  5
3FD
330
1F
100
AcDbEntity
  8
0
  6
Continuous
 62
     7
370
    25
100
AcDbCircle
 10
11.7624999999
 20
32.1
 30
0.0
 40
1.000000000000014
100
AcDbArc
 50
270.0
 51
60.0
  0
ARC
  5
3FE
330
1F
100
AcDbEntity
  8
0
  6
Continuous
 62
     7
370
    25
100
AcDbCircle
 10
12.7624999999
 20
33.8320508076
 30
0.0
 40
1.000000000000007
100
AcDbArc
 50
180.0
 51
240.0
  0
ARC
  5
3FF
330
1F
100
AcDbEntity
  8
0
  6
Continuous
 62
     7
370
    25
100
AcDbCircle
 10
12.7624999999
 20
42.3679491924
 30
0.0
 40
1.000000000000854
100
AcDbArc
 50
120.0
 51
180.0
  0
ARC
  5
400
330
1F
100
AcDbEntity
  8
0
  6
Continuous
 62
     7
370
    25
100
AcDbCircle
 10
11.7624999999
 20
44.1
 30
0.0
 40
0.9999999999996666
100
AcDbArc
 50
300.0
 51
90.0
  0
ARC
  5
401
330
1F
100
AcDbEntity
  8
0
  6
Continuous
 62
     7
370
    25
100
AcDbCircle
 10
-2.2375000001
 20
44.1
 30
0.0
 40
1.0
100
AcDbArc
 50
90.0
 51
240.0
  0
ARC
  5
402
330
1F
100
AcDbEntity
  8
0
  6
Continuous
 62
     7
370
    25
100
AcDbCircle
 10
-3.2375000001
 20
42.3679491924
 30
0.0
 40
1.000000000000017
100
AcDbArc
 50
0.0
 51
60.0
  0
ARC
  5
403
330
1F
100
AcDbEntity
  8
0
  6
Continuous
 62
     7
370
    25
100
AcDbCircle
 10
-22.2875000001
 20
33.8320508076
 30
0.0
 40
1.000000000000025
100
AcDbArc
 50
300.0
 51
0.0
  0
ARC
  5
404
330
1F
100
AcDbEntity
  8
0
  6
Continuous
 62
     7
370
    25
100
AcDbCircle
 10
-21.2875000001
 20
32.1
 30
0.0
 40
1.000000000000013
100
AcDbArc
 50
120.0
 51
270.0
  0
ARC
  5
405
330
1F
100
AcDbEntity
  8
0
  6
Continuous
 62
     7
370
    25
100
AcDbCircle
 10
-7.2875000001
 20
32.1
 30
0.0
 40
1.000000000000014
100
AcDbArc
 50
270.0
 51
60.0
  0
ARC
  5
406
330
1F
100
AcDbEntity
  8
0
  6
Continuous
 62
     7
370
    25
100
AcDbCircle
 10
-6.2875000001
 20
33.8320508076
 30
0.0
 40
1.000000000000011
100
AcDbArc
 50
180.0
 51
240.0
  0
ARC
  5
407
330
1F
100
AcDbEntity
  8
0
  6
Continuous
 62
     7
370
    25
100
AcDbCircle
 10
-6.2875000001
 20
42.3679491924
 30
0.0
 40
1.000000000000857
100
AcDbArc
 50
120.0
 51
180.0
  0
ARC
  5
408
330
1F
100
AcDbEntity
  8
0
  6
Continuous
 62
     7
370
    25
100
AcDbCircle
 10
-7.2875000001
 20
44.1
 30
0.0
 40
0.9999999999996666
100
AcDbArc
 50
300.0
 51
90.0
  0
ARC
  5
409
330
1F
100
AcDbEntity
  8
0
  6
Continuous
 62
     7
370
    25
100
AcDbCircle
 10
-21.2875000001
 20
44.1
 30
0.0
 40
1.0
100
AcDbArc
 50
90.0
 51
240.0
  0
ARC
  5
40A
330
1F
100
AcDbEntity
  8
0
  6
Continuous
 62
     7
370
    25
100
AcDbCircle
 10
-22.2875000001
 20
42.3679491924
 30
0.0
 40
1.000000000000014
100
AcDbArc
 50
0.0
 51
60.0
  0
ARC
  5
40B
330
1F
100
AcDbEntity
  8
0
  6
Continuous
 62
     7
370
    25
100
AcDbCircle
 10
-41.3375000001
 20
33.8320508076
 30
0.0
 40
1.000000000000028
100
AcDbArc
 50
300.0
 51
0.0
  0
ARC
  5
40C
330
1F
100
AcDbEntity
  8
0
  6
Continuous
 62
     7
370
    25
100
AcDbCircle
 10
-40.3375000001
 20
32.1
 30
0.0
 40
1.000000000000008
100
AcDbArc
 50
120.0
 51
270.0
  0
ARC
  5
40D
330
1F
100
AcDbEntity
  8
0
  6
Continuous
 62
     7
370
    25
100
AcDbCircle
 10
-26.3375000001
 20
32.1
 30
0.0
 40
1.00000000000002
100
AcDbArc
 50
270.0
 51
60.0
  0
ARC
  5
40E
330
1F
100
AcDbEntity
  8
0
  6
Continuous
 62
     7
370
    25
100
AcDbCircle
 10
-25.3375000001
 20
33.8320508076
 30
0.0
 40
0.9999999999999893
100
AcDbArc
 50
180.0
 51
240.0
  0
ARC
  5
40F
330
1F
100
AcDbEntity
  8
0
  6
Continuous
 62
     7
370
    25
100
AcDbCircle
 10
-25.3375000001
 20
42.3679491924
 30
0.0
 40
1.000000000000857
100
AcDbArc
 50
120.0
 51
180.0
  0
ARC
  5
410
330
1F
100
AcDbEntity
  8
0
  6
Continuous
 62
     7
370
    25
100
AcDbCircle
 10
-26.3375000001
 20
44.1
 30
0.0
 40
0.999999999999666
100
AcDbArc
 50
300.0
 51
90.0
  0
ARC
  5
411
330
1F
100
AcDbEntity
  8
0
  6
Continuous
 62
     7
370
    25
100
AcDbCircle
 10
-40.3375000001
 20
44.1
 30
0.0
 40
0.999999999999938
100
AcDbArc
 50
90.0
 51
240.0
  0
ARC
  5
412
330
1F
100
AcDbEntity
  8
0
  6
Continuous
 62
     7
370
    25
100
AcDbCircle
 10
-41.3375000001
 20
42.3679491924
 30
0.0
 40
1.000000000000535
100
AcDbArc
 50
0.0000000001
 51
60.0
  0
ARC
  5
413
330
1F
100
AcDbEntity
  8
0
  6
Continuous
 62
     7
370
    25
100
AcDbCircle
 10
-65.1500000001
 20
33.8320508076
 30
0.0
 40
0.9999999999999716
100
AcDbArc
 50
300.0
 51
0.0
  0
ARC
  5
414
330
1F
100
AcDbEntity
  8
0
  6
Continuous
 62
     7
370
    25
100
AcDbCircle
 10
-64.1500000001
 20
32.1
 30
0.0
 40
1.000000000000004
100
AcDbArc
 50
120.0
 51
270.0
  0
ARC
  5
415
330
1F
100
AcDbEntity
  8
0
  6
Continuous
 62
     7
370
    25
100
AcDbCircle
 10
-50.1500000001
 20
32.1
 30
0.0
 40
1.000000000000001
100
AcDbArc
 50
270.0
 51
60.0
  0
ARC
  5
416
330
1F
100
AcDbEntity
  8
0
  6
Continuous
 62
     7
370
    25
100
AcDbCircle
 10
-49.1500000001
 20
33.8320508076
 30
0.0
 40
1.000000000000043
100
AcDbArc
 50
180.0
 51
240.0
  0
ARC
  5
417
330
1F
100
AcDbEntity
  8
0
  6
Continuous
 62
     7
370
    25
100
AcDbCircle
 10
-49.1500000001
 20
42.3679491924
 30
0.0
 40
0.9999999999999574
100
AcDbArc
 50
120.0
 51
180.0
  0
ARC
  5
418
330
1F
100
AcDbEntity
  8
0
  6
Continuous
 62
     7
370
    25
100
AcDbCircle
 10
-50.1500000001
 20
44.1
 30
0.0
 40
0.9999999999999969
100
AcDbArc
 50
300.0
 51
90.0
  0
ARC
  5
419
330
1F
100
AcDbEntity
  8
0
  6
Continuous
 62
     7
370
    25
100
AcDbCircle
 10
-64.1500000001
 20
44.1
 30
0.0
 40
1.000000000000015
100
AcDbArc
 50
90.0
 51
240.0
  0
ARC
  5
41A
330
1F
100
AcDbEntity
  8
0
  6
Continuous
 62
     7
370
    25
100
AcDbCircle
 10
-65.1500000001
 20
42.3679491924
 30
0.0
 40
0.9999999999999432
100
AcDbArc
 50
0.0
 51
60.0
  0
ENDSEC
  0
SECTION
  2
OBJECTS
  0
DICTIONARY
  5
C
330
0
100
AcDbDictionary
281
     1
  3
ACAD_GROUP
350
D
  3
ACAD_LAYOUT
350
1A
  3
ACAD_MLINESTYLE
350
17
  3
ACAD_PLOTSETTINGS
350
19
  3
ACAD_PLOTSTYLENAME
350
E
  3
ACAD_SCALELIST
350
47
  0
DICTIONARY
  5
D
102
{ACAD_REACTORS
330
C
102
}
330
C
100
AcDbDictionary
281
     1
  0
DICTIONARY
  5
1A
102
{ACAD_REACTORS
330
C
102
}
330
C
100
AcDbDictionary
281
     1
  3
Layout1
350
1E
  3
Layout2
350
26
  3
Model
350
22
  0
DICTIONARY
  5
17
102
{ACAD_REACTORS
330
C
102
}
330
C
100
AcDbDictionary
281
     1
  3
Standard
350
18
  0
DICTIONARY
  5
19
102
{ACAD_REACTORS
330
C
102
}
330
C
100
AcDbDictionary
281
     1
  0
ACDBDICTIONARYWDFLT
  5
E
102
{ACAD_REACTORS
330
C
102
}
330
C
100
AcDbDictionary
281
     1
  3
Normal
350
F
100
AcDbDictionaryWithDefault
340
F
  0
DICTIONARY
  5
47
102
{ACAD_REACTORS
330
C
102
}
330
C
100
AcDbDictionary
281
     1
  3
A0
350
48
  3
A1
350
49
  3
A2
350
4A
  3
A3
350
4B
  3
A4
350
4C
  3
A5
350
4D
  3
A6
350
4E
  3
A7
350
4F
  3
A8
350
50
  3
A9
350
51
  3
B0
350
52
  3
B1
350
53
  3
B2
350
54
  3
B3
350
55
  3
B4
350
56
  3
B5
350
57
  3
B6
350
58
  3
B7
350
59
  3
B8
350
5A
  3
B9
350
5B
  3
C0
350
5C
  3
C1
350
5D
  3
C2
350
5E
  3
C3
350
5F
  3
C4
350
60
  3
C5
350
61
  3
C6
350
62
  3
C7
350
63
  3
C8
350
64
  3
C9
350
65
  3
D0
350
66
  3
D1
350
67
  3
D2
350
68
  0
LAYOUT
  5
1E
102
{ACAD_REACTORS
330
1A
102
}
330
1A
100
AcDbPlotSettings
  1

  2
none_device
  4

  6

 40
0.0
 41
0.0
 42
0.0
 43
0.0
 44
0.0
 45
0.0
 46
0.0
 47
0.0
 48
0.0
 49
0.0
140
0.0
141
0.0
142
1.0
143
1.0
 70
   688
 72
     1
 73
     0
 74
     5
  7

 75
    16
147
1.0
148
0.0
149
0.0
100
AcDbLayout
  1
Layout1
 70
     1
 71
     1
 10
0.0
 20
0.0
 11
420.0
 21
297.0
 12
0.0
 22
0.0
 32
0.0
 14
1.0000000000E+20
 24
1.0000000000E+20
 34
1.0000000000E+20
 15
-1.0000000000E+20
 25
-1.0000000000E+20
 35
-1.0000000000E+20
146
0.0
 13
0.0
 23
0.0
 33
0.0
 16
1.0
 26
0.0
 36
0.0
 17
0.0
 27
1.0
 37
0.0
 76
     0
330
1B
  0
LAYOUT
  5
26
102
{ACAD_REACTORS
330
1A
102
}
330
1A
100
AcDbPlotSettings
  1

  2
none_device
  4

  6

 40
0.0
 41
0.0
 42
0.0
 43
0.0
 44
0.0
 45
0.0
 46
0.0
 47
0.0
 48
0.0
 49
0.0
140
0.0
141
0.0
142
1.0
143
1.0
 70
   688
 72
     1
 73
     0
 74
     5
  7

 75
    16
147
1.0
148
0.0
149
0.0
100
AcDbLayout
  1
Layout2
 70
     1
 71
     2
 10
0.0
 20
0.0
 11
0.0
 21
0.0
 12
0.0
 22
0.0
 32
0.0
 14
0.0
 24
0.0
 34
0.0
 15
0.0
 25
0.0
 35
0.0
146
0.0
 13
0.0
 23
0.0
 33
0.0
 16
1.0
 26
0.0
 36
0.0
 17
0.0
 27
1.0
 37
0.0
 76
     0
330
23
  0
LAYOUT
  5
22
102
{ACAD_REACTORS
330
1A
102
}
330
1A
100
AcDbPlotSettings
  1

  2
none_device
  4
ANSI_A_(11.00_x_8.50_Inches)
  6

 40
6.35
 41
19.05
 42
6.35000508
 43
19.05000254
 44
279.4
 45
215.9
 46
133.34999746
 47
84.620908096
 48
0.0
 49
0.0
140
0.0
141
0.0
142
0.0732470153
143
1.0
 70
  1696
 72
     0
 73
     0
 74
     0
  7

 75
     0
147
0.0179189148
148
-1300.4909072572
149
0.0
100
AcDbLayout
  1
Model
 70
     1
 71
     0
 10
0.0
 20
0.0
 11
420.0
 21
297.0
 12
0.0
 22
0.0
 32
0.0
 14
-74.3375
 24
-48.9
 34
0.0
 15
74.3375
 25
53.5
 35
0.0
146
0.0
 13
0.0
 23
0.0
 33
0.0
 16
1.0
 26
0.0
 36
0.0
 17
0.0
 27
1.0
 37
0.0
 76
     0
330
1F
331
29
  0
MLINESTYLE
  5
18
102
{ACAD_REACTORS
330
17
102
}
330
17
100
AcDbMlineStyle
  2
Standard
 70
     0
  3

 62
   256
 51
90.0
 52
90.0
 71
     2
 49
0.5
 62
   256
  6
BYLAYER
 49
-0.5
 62
   256
  6
BYLAYER
  0
ACDBPLACEHOLDER
  5
F
102
{ACAD_REACTORS
330
E
102
}
330
E
  0
SCALE
  5
48
102
{ACAD_REACTORS
330
47
102
}
330
47
100
AcDbScale
 70
     0
300
1:1
140
1.0
141
1.0
290
     1
  0
SCALE
  5
49
102
{ACAD_REACTORS
330
47
102
}
330
47
100
AcDbScale
 70
     0
300
1:2
140
1.0
141
2.0
290
     0
  0
SCALE
  5
4A
102
{ACAD_REACTORS
330
47
102
}
330
47
100
AcDbScale
 70
     0
300
1:4
140
1.0
141
4.0
290
     0
  0
SCALE
  5
4B
102
{ACAD_REACTORS
330
47
102
}
330
47
100
AcDbScale
 70
     0
300
1:5
140
1.0
141
5.0
290
     0
  0
SCALE
  5
4C
102
{ACAD_REACTORS
330
47
102
}
330
47
100
AcDbScale
 70
     0
300
1:8
140
1.0
141
8.0
290
     0
  0
SCALE
  5
4D
102
{ACAD_REACTORS
330
47
102
}
330
47
100
AcDbScale
 70
     0
300
1:10
140
1.0
141
10.0
290
     0
  0
SCALE
  5
4E
102
{ACAD_REACTORS
330
47
102
}
330
47
100
AcDbScale
 70
     0
300
1:16
140
1.0
141
16.0
290
     0
  0
SCALE
  5
4F
102
{ACAD_REACTORS
330
47
102
}
330
47
100
AcDbScale
 70
     0
300
1:20
140
1.0
141
20.0
290
     0
  0
SCALE
  5
50
102
{ACAD_REACTORS
330
47
102
}
330
47
100
AcDbScale
 70
     0
300
1:30
140
1.0
141
30.0
290
     0
  0
SCALE
  5
51
102
{ACAD_REACTORS
330
47
102
}
330
47
100
AcDbScale
 70
     0
300
1:40
140
1.0
141
40.0
290
     0
  0
SCALE
  5
52
102
{ACAD_REACTORS
330
47
102
}
330
47
100
AcDbScale
 70
     0
300
1:50
140
1.0
141
50.0
290
     0
  0
SCALE
  5
53
102
{ACAD_REACTORS
330
47
102
}
330
47
100
AcDbScale
 70
     0
300
1:100
140
1.0
141
100.0
290
     0
  0
SCALE
  5
54
102
{ACAD_REACTORS
330
47
102
}
330
47
100
AcDbScale
 70
     0
300
2:1
140
2.0
141
1.0
290
     0
  0
SCALE
  5
55
102
{ACAD_REACTORS
330
47
102
}
330
47
100
AcDbScale
 70
     0
300
4:1
140
4.0
141
1.0
290
     0
  0
SCALE
  5
56
102
{ACAD_REACTORS
330
47
102
}
330
47
100
AcDbScale
 70
     0
300
8:1
140
8.0
141
1.0
290
     0
  0
SCALE
  5
57
102
{ACAD_REACTORS
330
47
102
}
330
47
100
AcDbScale
 70
     0
300
10:1
140
10.0
141
1.0
290
     0
  0
SCALE
  5
58
102
{ACAD_REACTORS
330
47
102
}
330
47
100
AcDbScale
 70
     0
300
100:1
140
100.0
141
1.0
290
     0
  0
SCALE
  5
59
102
{ACAD_REACTORS
330
47
102
}
330
47
100
AcDbScale
 70
     0
300
1/128" = 1'-0"
140
0.0078125
141
12.0
290
     0
  0
SCALE
  5
5A
102
{ACAD_REACTORS
330
47
102
}
330
47
100
AcDbScale
 70
     0
300
1/64" = 1'-0"
140
0.015625
141
12.0
290
     0
  0
SCALE
  5
5B
102
{ACAD_REACTORS
330
47
102
}
330
47
100
AcDbScale
 70
     0
300
1/32" = 1'-0"
140
0.03125
141
12.0
290
     0
  0
SCALE
  5
5C
102
{ACAD_REACTORS
330
47
102
}
330
47
100
AcDbScale
 70
     0
300
1/16" = 1'-0"
140
0.0625
141
12.0
290
     0
  0
SCALE
  5
5D
102
{ACAD_REACTORS
330
47
102
}
330
47
100
AcDbScale
 70
     0
300
3/32" = 1'-0"
140
0.09375
141
12.0
290
     0
  0
SCALE
  5
5E
102
{ACAD_REACTORS
330
47
102
}
330
47
100
AcDbScale
 70
     0
300
1/8" = 1'-0"
140
0.125
141
12.0
290
     0
  0
SCALE
  5
5F
102
{ACAD_REACTORS
330
47
102
}
330
47
100
AcDbScale
 70
     0
300
3/16" = 1'-0"
140
0.1875
141
12.0
290
     0
  0
SCALE
  5
60
102
{ACAD_REACTORS
330
47
102
}
330
47
100
AcDbScale
 70
     0
300
1/4" = 1'-0"
140
0.25
141
12.0
290
     0
  0
SCALE
  5
61
102
{ACAD_REACTORS
330
47
102
}
330
47
100
AcDbScale
 70
     0
300
3/8" = 1'-0"
140
0.375
141
12.0
290
     0
  0
SCALE
  5
62
102
{ACAD_REACTORS
330
47
102
}
330
47
100
AcDbScale
 70
     0
300
1/2" = 1'-0"
140
0.5
141
12.0
290
     0
  0
SCALE
  5
63
102
{ACAD_REACTORS
330
47
102
}
330
47
100
AcDbScale
 70
     0
300
3/4" = 1'-0"
140
0.75
141
12.0
290
     0
  0
SCALE
  5
64
102
{ACAD_REACTORS
330
47
102
}
330
47
100
AcDbScale
 70
     0
300
1" = 1'-0"
140
1.0
141
12.0
290
     0
  0
SCALE
  5
65
102
{ACAD_REACTORS
330
47
102
}
330
47
100
AcDbScale
 70
     0
300
1-1/2" = 1'-0"
140
1.5
141
12.0
290
     0
  0
SCALE
  5
66
102
{ACAD_REACTORS
330
47
102
}
330
47
100
AcDbScale
 70
     0
300
3" = 1'-0"
140
3.0
141
12.0
290
     0
  0
SCALE
  5
67
102
{ACAD_REACTORS
330
47
102
}
330
47
100
AcDbScale
 70
     0
300
6" = 1'-0"
140
6.0
141
12.0
290
     0
  0
SCALE
  5
68
102
{ACAD_REACTORS
330
47
102
}
330
47
100
AcDbScale
 70
     0
300
1'-0" = 1'-0"
140
12.0
141
12.0
290
     0
  0
ENDSEC
  0
EOF
